<svg width="32" height="26" viewBox="0 0 32 26" fill="none" xmlns="http://www.w3.org/2000/svg">
 <path  d= "M29.3333 0.555542H2.66667C1.19444 0.555542 0 1.74999 0 3.22221V22.7778C0 24.25 1.19444 25.4444 2.66667 25.4444H29.3333C30.8056 25.4444 32 24.25 32 22.7778V3.22221C32 1.74999 30.8056 0.555542 29.3333 0.555542ZM9.77778 5.88888C11.7389 5.88888 13.3333 7.48332 13.3333 9.44443C13.3333 11.4055 11.7389 13 9.77778 13C7.81667 13 6.22222 11.4055 6.22222 9.44443C6.22222 7.48332 7.81667 5.88888 9.77778 5.88888ZM16 19.0444C16 19.6333 15.4444 20.1111 14.7556 20.1111H4.8C4.11111 20.1111 3.55556 19.6333 3.55556 19.0444V17.9778C3.55556 16.2111 5.22778 14.7778 7.28889 14.7778H7.56667C8.25 15.0611 8.99444 15.2222 9.77778 15.2222C10.5611 15.2222 11.3111 15.0611 11.9889 14.7778H12.2667C14.3278 14.7778 16 16.2111 16 17.9778V19.0444ZM28.4444 16.1111C28.4444 16.3555 28.2444 16.5555 28 16.5555H20C19.7556 16.5555 19.5556 16.3555 19.5556 16.1111V15.2222C19.5556 14.9778 19.7556 14.7778 20 14.7778H28C28.2444 14.7778 28.4444 14.9778 28.4444 15.2222V16.1111ZM28.4444 12.5555C28.4444 12.8 28.2444 13 28 13H20C19.7556 13 19.5556 12.8 19.5556 12.5555V11.6667C19.5556 11.4222 19.7556 11.2222 20 11.2222H28C28.2444 11.2222 28.4444 11.4222 28.4444 11.6667V12.5555ZM28.4444 8.99999C28.4444 9.24443 28.2444 9.44443 28 9.44443H20C19.7556 9.44443 19.5556 9.24443 19.5556 8.99999V8.1111C19.5556 7.86665 19.7556 7.66665 20 7.66665H28C28.2444 7.66665 28.4444 7.86665 28.4444 8.1111V8.99999Z" fill="#0165E1" /></svg>