<svg width="32" height="32" viewBox="0 0 32 32" fill="none" xmlns="http://www.w3.org/2000/svg">
 <path  d= "M24.9825 1.12281V3.92982C24.9825 4.54996 24.4798 5.05263 23.8597 5.05263H8.14041C7.52027 5.05263 7.0176 4.54996 7.0176 3.92982V1.12281C7.0176 0.502667 7.52027 0 8.14041 0H23.8597C24.4798 0 24.9825 0.502667 24.9825 1.12281ZM1.40357 14.0351H30.5966C31.2167 14.0351 31.7194 13.5324 31.7194 12.9123V10.1053C31.7194 9.48512 31.2167 8.98246 30.5966 8.98246H1.40357C0.783428 8.98246 0.280762 9.48512 0.280762 10.1053V12.9123C0.280762 13.5324 0.783428 14.0351 1.40357 14.0351ZM1.40357 32H30.5966C31.2167 32 31.7194 31.4973 31.7194 30.8772V28.0702C31.7194 27.45 31.2167 26.9474 30.5966 26.9474H1.40357C0.783428 26.9474 0.280762 27.45 0.280762 28.0702V30.8772C0.280762 31.4973 0.783428 32 1.40357 32ZM23.8597 17.9649H8.14041C7.52027 17.9649 7.0176 18.4676 7.0176 19.0877V21.8947C7.0176 22.5149 7.52027 23.0175 8.14041 23.0175H23.8597C24.4798 23.0175 24.9825 22.5149 24.9825 21.8947V19.0877C24.9825 18.4676 24.4798 17.9649 23.8597 17.9649Z" fill="#0165E1" /></svg>