<svg width="28" height="32" viewBox="0 0 28 32" fill="none" xmlns="http://www.w3.org/2000/svg">
 <path  d= "M25.9968 6.99863C24.897 6.99863 23.9972 7.89846 23.9972 8.99824V13.4974C23.9972 13.7723 23.7723 13.9973 23.4973 13.9973H22.4975C22.2226 13.9973 21.9976 13.7723 21.9976 13.4974V3.99922C21.9976 2.89943 21.0978 1.99961 19.998 1.99961C18.8982 1.99961 17.9984 2.89943 17.9984 3.99922V13.4974C17.9984 13.7723 17.7734 13.9973 17.4985 13.9973H16.4987C16.2237 13.9973 15.9988 13.7723 15.9988 13.4974V1.99961C15.9988 0.899824 15.099 0 13.9992 0C12.8994 0 11.9996 0.899824 11.9996 1.99961V13.4974C11.9996 13.7723 11.7746 13.9973 11.4997 13.9973H10.4999C10.2249 13.9973 9.99995 13.7723 9.99995 13.4974V3.99922C9.99995 2.89943 9.10012 1.99961 8.00034 1.99961C6.90055 1.99961 6.00073 2.89943 6.00073 3.99922V19.0588L4.52602 17.0279C3.71367 15.9094 2.15148 15.6657 1.03295 16.478C-0.0855832 17.2904 -0.329286 18.8526 0.483056 19.9711L8.33152 30.7627C8.89391 31.5376 9.79999 32 10.7561 32H23.1036C24.4971 32 25.7031 31.0439 26.0218 29.688L27.6777 22.6456C27.8777 21.7895 27.9839 20.8772 27.9964 20.0023V8.99824C27.9964 7.89846 27.0966 6.99863 25.9968 6.99863ZM10.9998 25.9949C10.4499 25.9949 9.99995 25.545 9.99995 24.9951C9.99995 24.4452 10.4499 23.9953 10.9998 23.9953C11.5496 23.9953 11.9996 24.4452 11.9996 24.9951C11.9996 25.545 11.5496 25.9949 10.9998 25.9949ZM10.9998 19.9961C10.4499 19.9961 9.99995 19.5462 9.99995 18.9963C9.99995 18.4464 10.4499 17.9965 10.9998 17.9965C11.5496 17.9965 11.9996 18.4464 11.9996 18.9963C11.9996 19.5462 11.5496 19.9961 10.9998 19.9961ZM14.999 27.9945C14.4491 27.9945 13.9992 27.5446 13.9992 26.9947C13.9992 26.4448 14.4491 25.9949 14.999 25.9949C15.5489 25.9949 15.9988 26.4448 15.9988 26.9947C15.9988 27.5446 15.5489 27.9945 14.999 27.9945ZM14.999 21.9957C14.4491 21.9957 13.9992 21.5458 13.9992 20.9959C13.9992 20.446 14.4491 19.9961 14.999 19.9961C15.5489 19.9961 15.9988 20.446 15.9988 20.9959C15.9988 21.5458 15.5489 21.9957 14.999 21.9957ZM18.9982 23.9953C18.4483 23.9953 17.9984 23.5454 17.9984 22.9955C17.9984 22.4456 18.4483 21.9957 18.9982 21.9957C19.5481 21.9957 19.998 22.4456 19.998 22.9955C19.998 23.5454 19.5481 23.9953 18.9982 23.9953ZM20.9978 27.9945C20.4479 27.9945 19.998 27.5446 19.998 26.9947C19.998 26.4448 20.4479 25.9949 20.9978 25.9949C21.5477 25.9949 21.9976 26.4448 21.9976 26.9947C21.9976 27.5446 21.5477 27.9945 20.9978 27.9945ZM22.9974 19.9961C22.4475 19.9961 21.9976 19.5462 21.9976 18.9963C21.9976 18.4464 22.4475 17.9965 22.9974 17.9965C23.5473 17.9965 23.9972 18.4464 23.9972 18.9963C23.9972 19.5462 23.5473 19.9961 22.9974 19.9961Z" fill="#0165E1" /></svg>