<svg width="32" height="26" viewBox="0 0 32 26" fill="none" xmlns="http://www.w3.org/2000/svg">
 <path  d= "M31.2 17.8H30.4V12.395C30.4 11.76 30.145 11.15 29.695 10.7L24.7 5.70501C24.25 5.25501 23.64 5.00001 23.005 5.00001H20.8V2.60001C20.8 1.27501 19.725 0.200012 18.4 0.200012H2.4C1.075 0.200012 0 1.27501 0 2.60001V18.6C0 19.925 1.075 21 2.4 21H3.2C3.2 23.65 5.35 25.8 8 25.8C10.65 25.8 12.8 23.65 12.8 21H19.2C19.2 23.65 21.35 25.8 24 25.8C26.65 25.8 28.8 23.65 28.8 21H31.2C31.64 21 32 20.64 32 20.2V18.6C32 18.16 31.64 17.8 31.2 17.8ZM8 23.4C6.675 23.4 5.6 22.325 5.6 21C5.6 19.675 6.675 18.6 8 18.6C9.325 18.6 10.4 19.675 10.4 21C10.4 22.325 9.325 23.4 8 23.4ZM15.2 11C15.2 11.22 15.02 11.4 14.8 11.4H12V14.2C12 14.42 11.82 14.6 11.6 14.6H9.2C8.98 14.6 8.8 14.42 8.8 14.2V11.4H6C5.78 11.4 5.6 11.22 5.6 11V8.60001C5.6 8.38001 5.78 8.20001 6 8.20001H8.8V5.40001C8.8 5.18001 8.98 5.00001 9.2 5.00001H11.6C11.82 5.00001 12 5.18001 12 5.40001V8.20001H14.8C15.02 8.20001 15.2 8.38001 15.2 8.60001V11ZM24 23.4C22.675 23.4 21.6 22.325 21.6 21C21.6 19.675 22.675 18.6 24 18.6C25.325 18.6 26.4 19.675 26.4 21C26.4 22.325 25.325 23.4 24 23.4ZM28 13H20.8V7.40001H23.005L28 12.395V13Z" fill="#0165E1" /></svg>