<svg width="32" height="26" viewBox="0 0 32 26" fill="none" xmlns="http://www.w3.org/2000/svg">
 <path  d= "M14.5274 9.65197C13.5126 9.14452 12.32 9.09202 11.2904 9.45747C13.4207 9.45747 14.8508 10.4812 15.5693 11.9863C15.9981 12.8812 15.3119 13.8898 14.3885 13.8898C15.3099 13.8898 15.999 14.8966 15.5693 15.7934C14.8331 17.3357 13.2632 18.3361 11.5544 18.3361C11.5266 18.3361 6.83086 17.9053 6.83086 17.9053L3.51056 19.5727C3.04136 19.8073 2.51981 19.5916 2.31581 19.1836L0.0930105 14.7374C-0.11534 14.3066 0.0374605 13.7925 0.440311 13.5563L3.34391 11.9029L5.40001 8.19306C5.71951 5.33081 7.13656 2.70471 9.38716 0.856764C9.95671 0.384364 10.8042 0.467714 11.2627 1.03741C11.735 1.60711 11.6517 2.44076 11.0821 2.91321C10.4569 3.44116 9.90116 4.03866 9.45661 4.69171C10.5402 3.95526 11.7906 3.45511 13.1659 3.28836C13.9022 3.19111 14.5691 3.70516 14.6524 4.44161C14.7497 5.17801 14.2356 5.84496 13.4993 5.92831C12.6935 6.02557 11.9433 6.30347 11.2904 6.69252C12.5961 6.40687 14.226 6.53561 15.6944 7.24826C16.3612 7.58172 16.639 8.37372 16.3056 9.04067C15.9861 9.69367 15.1804 9.97152 14.5274 9.65197ZM13.1659 13.1256C12.8603 12.5003 12.249 12.1113 11.5544 12.1113C11.3206 12.1106 11.0891 12.1561 10.873 12.2452C10.6569 12.3344 10.4606 12.4654 10.2953 12.6306C10.13 12.7959 9.9991 12.9923 9.90999 13.2084C9.82088 13.4245 9.77539 13.656 9.77611 13.8898C9.77611 14.9612 10.6665 15.6683 11.5544 15.6683C12.249 15.6683 12.8603 15.2792 13.1659 14.654C13.3882 14.1815 13.8466 13.9037 14.3329 13.8898C13.8466 13.8759 13.3882 13.598 13.1659 13.1256ZM31.907 11.2637C32.1154 11.6945 31.9625 12.2086 31.5597 12.4448L28.6561 14.0982L26.6 17.808C26.2805 20.6703 24.8635 23.2964 22.6129 25.1443C22.0663 25.5999 21.2229 25.5515 20.7374 24.9637C20.2651 24.394 20.3484 23.5603 20.918 23.0879C21.5432 22.5599 22.0989 21.9624 22.5434 21.3094C21.4598 22.0458 20.2095 22.546 18.8341 22.7127C18.3331 22.838 17.4565 22.4306 17.3476 21.5595C17.2504 20.8231 17.7644 20.1561 18.5007 20.0728C19.3065 19.9755 20.0567 19.6976 20.7096 19.3086C19.4039 19.5942 17.774 19.4655 16.3057 18.7528C15.6389 18.4194 15.361 17.6274 15.6945 16.9604C16.0139 16.3074 16.8197 16.0295 17.4727 16.3491C18.4875 16.8565 19.6801 16.909 20.7097 16.5436C18.5794 16.5436 17.1493 15.5198 16.4308 14.0148C16.002 13.1198 16.6882 12.1112 17.6116 12.1112C16.6902 12.1112 16.0011 11.1044 16.4308 10.2077C17.1324 8.73787 18.6327 7.66331 20.5291 7.66497L25.1692 8.09572L28.4895 6.42836C28.9599 6.19316 29.4809 6.41067 29.6842 6.81742L31.907 11.2637ZM20.4456 10.3328C19.751 10.3328 19.1397 10.7219 18.8341 11.3471C18.6118 11.8196 18.1534 12.0974 17.6671 12.1113C18.1534 12.1252 18.6118 12.4031 18.8341 12.8755C19.1397 13.5008 19.751 13.8898 20.4456 13.8898C20.6794 13.8905 20.9109 13.845 21.127 13.7558C21.3431 13.6667 21.5394 13.5357 21.7047 13.3704C21.8699 13.2051 22.0009 13.0088 22.09 12.7927C22.1791 12.5766 22.2246 12.3451 22.2239 12.1113C22.2239 11.0399 21.3335 10.3328 20.4456 10.3328Z" fill="#0165E1" /></svg>