<svg width="32" height="30" viewBox="0 0 32 30" fill="none" xmlns="http://www.w3.org/2000/svg">
 <path  d= "M0.670224 20.3509H2.47583C3.69132 26.0773 10.0886 29.2691 16 29.2691C21.9211 29.2691 28.3101 26.0708 29.5242 20.3509H31.3298C31.9257 20.3509 32.2241 19.6304 31.8027 19.2091L28.0666 15.473C27.8054 15.2118 27.3819 15.2118 27.1207 15.473L23.3846 19.2091C22.9632 19.6305 23.2616 20.3509 23.8575 20.3509H25.8165C24.6856 23.3785 21.0808 25.1772 17.7836 25.5912V15H20.682C21.0514 15 21.3509 14.7005 21.3509 14.3311V12.1016C21.3509 11.7322 21.0514 11.4327 20.682 11.4327H17.7836V11.1278C19.8616 10.3933 21.3506 8.41196 21.3509 6.08247C21.3512 3.17067 18.9879 0.772008 16.0764 0.73143C13.0862 0.689682 10.6491 3.10116 10.6491 6.0818C10.6491 8.41157 12.1382 10.3932 14.2164 11.1278V11.4327H11.318C10.9486 11.4327 10.6491 11.7322 10.6491 12.1016V14.3311C10.6491 14.7005 10.9486 15 11.318 15H14.2164V25.5912C10.9313 25.1788 7.31479 23.3796 6.18346 20.3509H8.14246C8.73836 20.3509 9.03678 19.6304 8.6154 19.2091L4.87928 15.473C4.61809 15.2118 4.19459 15.2118 3.93334 15.473L0.197225 19.2091C-0.224105 19.6304 0.0743206 20.3509 0.670224 20.3509ZM16 4.29816C16.9835 4.29816 17.7836 5.09829 17.7836 6.0818C17.7836 7.06531 16.9835 7.86544 16 7.86544C15.0165 7.86544 14.2164 7.06531 14.2164 6.0818C14.2164 5.09829 15.0165 4.29816 16 4.29816Z" fill="#0165E1" /></svg>