<svg width="32" height="26" viewBox="0 0 32 26" fill="none" xmlns="http://www.w3.org/2000/svg">
 <path  d= "M16.0201 14.3647L5.10186 25.283C4.34722 26.0376 3.12694 26.0376 2.38033 25.283L0.565981 23.4686C-0.18866 22.714 -0.18866 21.4937 0.565981 20.7471L8.30507 13.008L0.565981 5.26891C-0.18866 4.51427 -0.18866 3.294 0.565981 2.54739L2.3723 0.716982C3.12694 -0.0376593 4.34721 -0.0376593 5.09383 0.716982L16.012 11.6352C16.7747 12.3898 16.7747 13.6101 16.0201 14.3647ZM31.434 11.6352L20.5158 0.716982C19.7612 -0.0376593 18.5409 -0.0376593 17.7943 0.716982L15.9799 2.53133C15.2253 3.28597 15.2253 4.50624 15.9799 5.25286L23.719 12.9919L15.9799 20.731C15.2253 21.4857 15.2253 22.7059 15.9799 23.4526L17.7943 25.2669C18.5489 26.0215 19.7692 26.0215 20.5158 25.2669L31.434 14.3487C32.1887 13.6101 32.1887 12.3898 31.434 11.6352Z" fill="#0165E1" /></svg>