<svg width="26" height="32" viewBox="0 0 26 32" fill="none" xmlns="http://www.w3.org/2000/svg">
 <path  d= "M11.6352 16.0206L0.716633 5.10202C-0.0380314 4.34735 -0.0380314 3.12704 0.716633 2.38041L2.53104 0.565999C3.28571 -0.188666 4.50601 -0.188666 5.25265 0.565999L12.992 8.30533L20.7313 0.565999C21.486 -0.188666 22.7063 -0.188666 23.4529 0.565999L25.2834 2.37238C26.038 3.12704 26.038 4.34735 25.2834 5.09399L14.3648 16.0125C13.6102 16.7752 12.3899 16.7752 11.6352 16.0206ZM14.3648 31.435L25.2834 20.5164C26.038 19.7618 26.038 18.5415 25.2834 17.7948L23.469 15.9804C22.7143 15.2258 21.494 15.2258 20.7474 15.9804L13 23.7117L5.26068 15.9724C4.50601 15.2177 3.28571 15.2177 2.53907 15.9724L0.716633 17.7868C-0.0380314 18.5415 -0.0380314 19.7618 0.716633 20.5084L11.6352 31.427C12.3899 32.1897 13.6102 32.1897 14.3648 31.435Z" fill="#0165E1" /></svg>