<svg width="32" height="26" viewBox="0 0 32 26" fill="none" xmlns="http://www.w3.org/2000/svg">
 <path  d= "M15.9754 11.6355L26.8912 0.719665C27.6457 -0.0348102 28.8657 -0.0348102 29.6122 0.719665L31.4261 2.53362C32.1806 3.28809 32.1806 4.5081 31.4261 5.25454L23.6968 13L31.4341 20.7373C32.1886 21.4918 32.1886 22.7118 31.4341 23.4583L29.6202 25.2802C28.8657 26.0347 27.6457 26.0347 26.8993 25.2802L15.9834 14.3644C15.2209 13.61 15.2209 12.39 15.9754 11.6355ZM0.564857 14.3644L11.4807 25.2802C12.2351 26.0347 13.4552 26.0347 14.2016 25.2802L16.0156 23.4663C16.77 22.7118 16.77 21.4918 16.0156 20.7454L8.28619 13L16.0236 5.26257C16.7781 4.5081 16.7781 3.28809 16.0236 2.54164L14.2096 0.719665C13.4552 -0.0348102 12.2351 -0.0348102 11.4887 0.719665L0.572884 11.6355C-0.189618 12.39 -0.189618 13.61 0.564857 14.3644Z" fill="#0165E1" /></svg>