<svg width="32" height="32" viewBox="0 0 32 32" fill="none" xmlns="http://www.w3.org/2000/svg">
 <path  d= "M16 0C7.16129 0 0 7.16129 0 16C0 24.8387 7.16129 32 16 32C24.8387 32 32 24.8387 32 16C32 7.16129 24.8387 0 16 0ZM8.77419 14.9677C8.77419 14.3677 9.03871 13.8387 9.45161 13.4581L7.45161 12.8581C6.90323 12.6968 6.59355 12.1161 6.76129 11.5742C6.92258 11.0258 7.49677 10.7226 8.04516 10.8839L13.2065 12.4323C13.7548 12.5935 14.0645 13.1742 13.8968 13.7161C13.7613 14.1613 13.3548 14.4516 12.9097 14.4516C12.8774 14.4516 12.8387 14.4387 12.8 14.4387C12.8452 14.6129 12.9097 14.7806 12.9097 14.9677C12.9097 16.1097 11.9871 17.0323 10.8452 17.0323C9.70323 17.0323 8.77419 16.1097 8.77419 14.9677ZM19.6129 24.9161C17.8194 22.7613 14.1806 22.7613 12.3806 24.9161C11.5097 25.9677 9.91613 24.6452 10.7935 23.5935C12.0839 22.0452 13.9806 21.1548 15.9935 21.1548C18.0065 21.1548 19.9032 22.0452 21.1935 23.5935C22.0839 24.6581 20.4774 25.9548 19.6129 24.9161ZM24.5548 12.8581L22.5548 13.4581C22.9613 13.8323 23.2323 14.3677 23.2323 14.9677C23.2323 16.1097 22.3097 17.0323 21.1677 17.0323C20.0258 17.0323 19.1032 16.1097 19.1032 14.9677C19.1032 14.7806 19.1613 14.6065 19.2129 14.4387C19.1742 14.4452 19.1419 14.4516 19.1032 14.4516C18.6581 14.4516 18.2516 14.1613 18.1161 13.7161C17.9548 13.1677 18.2645 12.5935 18.8065 12.4323L23.9677 10.8839C24.5097 10.7226 25.0903 11.0323 25.2516 11.5742C25.4129 12.1226 25.1032 12.6968 24.5548 12.8581V12.8581Z" fill="#0165E1" /></svg>