<svg width="32" height="30" viewBox="0 0 32 30" fill="none" xmlns="http://www.w3.org/2000/svg">
 <path  d= "M31.1111 25.6667H30.2222V6.1111H1.77778V25.6667H0.89C0.398889 25.6667 0.00111111 26.0644 0.00111111 26.5555V28.3333C0.00111111 28.8244 0.398889 29.2222 0.89 29.2222H9.77778C10.2689 29.2222 10.6667 28.8244 10.6667 28.3333V18.5555C10.6667 15.61 13.0544 13.2222 16 13.2222C18.9456 13.2222 21.3333 15.61 21.3333 18.5555L21.3344 27.4444V28.3333C21.3344 28.8244 21.7322 29.2222 22.2233 29.2222H31.1111C31.6022 29.2222 32 28.8244 32 28.3333V26.5555C32 26.0644 31.6022 25.6667 31.1111 25.6667ZM31.1111 0.777771H0.888889C0.397778 0.777771 0 1.17555 0 1.66666V3.44444C0 3.93555 0.397778 4.33333 0.888889 4.33333H31.1111C31.6022 4.33333 32 3.93555 32 3.44444V1.66666C32 1.17555 31.6022 0.777771 31.1111 0.777771Z" fill="#0165E1" /></svg>