<svg width="32" height="32" viewBox="0 0 32 32" fill="none" xmlns="http://www.w3.org/2000/svg">
 <path  d= "M32 16C32 24.8387 24.8387 32 16 32C7.16129 32 0 24.8387 0 16C0 7.16129 7.16129 0 16 0C24.8387 0 32 7.16129 32 16ZM22.7355 14.1355L18.0645 19.0065V7.22581C18.0645 6.36774 17.3742 5.67742 16.5161 5.67742H15.4839C14.6258 5.67742 13.9355 6.36774 13.9355 7.22581V19.0065L9.26452 14.1355C8.66452 13.5097 7.66452 13.4968 7.05161 14.1097L6.34839 14.8194C5.74194 15.4258 5.74194 16.4065 6.34839 17.0065L14.9032 25.5677C15.5097 26.1742 16.4903 26.1742 17.0903 25.5677L25.6516 17.0065C26.2581 16.4 26.2581 15.4194 25.6516 14.8194L24.9484 14.1097C24.3355 13.4968 23.3355 13.5097 22.7355 14.1355Z" fill="#0165E1" /></svg>