<svg width="32" height="32" viewBox="0 0 32 32" fill="none" xmlns="http://www.w3.org/2000/svg">
 <path  d= "M29.5056 13.6056L31.0911 15.1912C31.7625 15.8625 31.7625 16.9481 31.0911 17.6123L17.2141 31.4965C16.5428 32.1678 15.4572 32.1678 14.793 31.4965L0.908789 17.6123C0.237435 16.941 0.237435 15.8554 0.908789 15.1912L2.49433 13.6056C3.17282 12.9271 4.27984 12.9414 4.94405 13.6342L13.1431 22.2404V1.71409C13.1431 0.7642 13.9073 0 14.8572 0H17.1427C18.0926 0 18.8568 0.7642 18.8568 1.71409V22.2404L27.0559 13.6342C27.7201 12.9343 28.8271 12.92 29.5056 13.6056Z" fill="#0165E1" /></svg>