<svg width="32" height="32" viewBox="0 0 32 32" fill="none" xmlns="http://www.w3.org/2000/svg">
 <path  d= "M16 32C7.16129 32 0 24.8387 0 16C0 7.16129 7.16129 0 16 0C24.8387 0 32 7.16129 32 16C32 24.8387 24.8387 32 16 32ZM23.4839 13.1613H16V8.5871C16 7.89677 15.1613 7.54839 14.6774 8.03871L7.30323 15.4516C7 15.7548 7 16.2387 7.30323 16.5419L14.6774 23.9548C15.1677 24.4452 16 24.0968 16 23.4065V18.8387H23.4839C23.9097 18.8387 24.2581 18.4903 24.2581 18.0645V13.9355C24.2581 13.5097 23.9097 13.1613 23.4839 13.1613Z" fill="#0165E1" /></svg>