<svg width="32" height="32" viewBox="0 0 32 32" fill="none" xmlns="http://www.w3.org/2000/svg">
 <path  d= "M16 0C24.8387 0 32 7.16129 32 16C32 24.8387 24.8387 32 16 32C7.16129 32 0 24.8387 0 16C0 7.16129 7.16129 0 16 0ZM8.51613 18.8387H16V23.4129C16 24.1032 16.8387 24.4516 17.3226 23.9613L24.6968 16.5484C25 16.2452 25 15.7613 24.6968 15.4581L17.3226 8.03871C16.8323 7.54839 16 7.89677 16 8.5871V13.1613H8.51613C8.09032 13.1613 7.74194 13.5097 7.74194 13.9355V18.0645C7.74194 18.4903 8.09032 18.8387 8.51613 18.8387Z" fill="#0165E1" /></svg>