<svg width="32" height="32" viewBox="0 0 32 32" fill="none" xmlns="http://www.w3.org/2000/svg">
 <path  d= "M16 0C24.8387 0 32 7.16129 32 16C32 24.8387 24.8387 32 16 32C7.16129 32 0 24.8387 0 16C0 7.16129 7.16129 0 16 0ZM14.1355 9.26452L19.0065 13.9355H7.22581C6.36774 13.9355 5.67742 14.6258 5.67742 15.4839V16.5161C5.67742 17.3742 6.36774 18.0645 7.22581 18.0645H19.0065L14.1355 22.7355C13.5097 23.3355 13.4968 24.3355 14.1097 24.9484L14.8194 25.6516C15.4258 26.2581 16.4065 26.2581 17.0065 25.6516L25.5677 17.0968C26.1742 16.4903 26.1742 15.5097 25.5677 14.9097L17.0065 6.34194C16.4 5.73548 15.4194 5.73548 14.8194 6.34194L14.1097 7.04516C13.4968 7.66452 13.5097 8.66452 14.1355 9.26452Z" fill="#0165E1" /></svg>