<svg width="32" height="32" viewBox="0 0 32 32" fill="none" xmlns="http://www.w3.org/2000/svg">
 <path  d= "M13.6056 2.49433L15.1912 0.908789C15.8625 0.237435 16.9481 0.237435 17.6123 0.908789L31.4965 14.7858C32.1678 15.4572 32.1678 16.5428 31.4965 17.207L17.6123 31.0911C16.941 31.7625 15.8554 31.7625 15.1912 31.0911L13.6056 29.5056C12.9271 28.8271 12.9414 27.7201 13.6342 27.0559L22.2404 18.8568H1.71409C0.7642 18.8568 0 18.0926 0 17.1427V14.8572C0 13.9073 0.7642 13.1431 1.71409 13.1431H22.2404L13.6342 4.94405C12.9343 4.27984 12.92 3.17282 13.6056 2.49433Z" fill="#0165E1" /></svg>