<svg width="32" height="32" viewBox="0 0 32 32" fill="none" xmlns="http://www.w3.org/2000/svg">
 <path  d= "M0 16C0 7.16129 7.16129 0 16 0C24.8387 0 32 7.16129 32 16C32 24.8387 24.8387 32 16 32C7.16129 32 0 24.8387 0 16ZM9.26452 17.8645L13.9355 12.9935V24.7742C13.9355 25.6323 14.6258 26.3226 15.4839 26.3226H16.5161C17.3742 26.3226 18.0645 25.6323 18.0645 24.7742V12.9935L22.7355 17.8645C23.3355 18.4903 24.3355 18.5032 24.9484 17.8903L25.6516 17.1806C26.2581 16.5742 26.2581 15.5935 25.6516 14.9935L17.0968 6.43226C16.4903 5.82581 15.5097 5.82581 14.9097 6.43226L6.34194 14.9935C5.73548 15.6 5.73548 16.5806 6.34194 17.1806L7.04516 17.8903C7.66452 18.5032 8.66452 18.4903 9.26452 17.8645Z" fill="#0165E1" /></svg>