<svg width="32" height="32" viewBox="0 0 32 32" fill="none" xmlns="http://www.w3.org/2000/svg">
 <path  d= "M32 16C32 24.8387 24.8387 32 16 32C7.16129 32 0 24.8387 0 16C0 7.16129 7.16129 0 16 0C24.8387 0 32 7.16129 32 16ZM13.1613 8.51613V16H8.5871C7.89677 16 7.54839 16.8387 8.03871 17.3226L15.4516 24.6968C15.7548 25 16.2387 25 16.5419 24.6968L23.9548 17.3226C24.4452 16.8323 24.0968 16 23.4065 16H18.8387V8.51613C18.8387 8.09032 18.4903 7.74194 18.0645 7.74194H13.9355C13.5097 7.74194 13.1613 8.09032 13.1613 8.51613Z" fill="#0165E1" /></svg>