<svg width="32" height="32" viewBox="0 0 32 32" fill="none" xmlns="http://www.w3.org/2000/svg">
 <path  d= "M16 32C7.16129 32 0 24.8387 0 16C0 7.16129 7.16129 0 16 0C24.8387 0 32 7.16129 32 16C32 24.8387 24.8387 32 16 32ZM17.8645 22.7355L12.9935 18.0645H24.7742C25.6323 18.0645 26.3226 17.3742 26.3226 16.5161V15.4839C26.3226 14.6258 25.6323 13.9355 24.7742 13.9355H12.9935L17.8645 9.26452C18.4903 8.66452 18.5032 7.66452 17.8903 7.05161L17.1806 6.34839C16.5742 5.74194 15.5935 5.74194 14.9935 6.34839L6.43226 14.9032C5.82581 15.5097 5.82581 16.4903 6.43226 17.0903L14.9935 25.6516C15.6 26.2581 16.5806 26.2581 17.1806 25.6516L17.8903 24.9484C18.5032 24.3355 18.4903 23.3355 17.8645 22.7355Z" fill="#0165E1" /></svg>