<svg width="32" height="32" viewBox="0 0 32 32" fill="none" xmlns="http://www.w3.org/2000/svg">
 <path  d= "M2.49799 18.3944L0.912451 16.8088C0.241097 16.1375 0.241097 15.0519 0.912451 14.3877L14.7895 0.503515C15.4608 -0.167838 16.5464 -0.167838 17.2106 0.503515L31.0877 14.3805C31.759 15.0519 31.759 16.1375 31.0877 16.8017L29.5021 18.3872C28.8236 19.0657 27.7166 19.0514 27.0524 18.3587L18.8604 9.75963V30.2859C18.8604 31.2358 18.0962 32 17.1464 32H14.8609C13.911 32 13.1468 31.2358 13.1468 30.2859V9.75963L4.94771 18.3658C4.2835 19.0657 3.17648 19.08 2.49799 18.3944Z" fill="#0165E1" /></svg>