<svg width="32" height="32" viewBox="0 0 32 32" fill="none" xmlns="http://www.w3.org/2000/svg">
 <path  d= "M13.5 16.25C13.5 17.2165 12.7165 18 11.75 18C10.7835 18 10 17.2165 10 16.25C10 13.493 12.243 11.25 15 11.25C17.757 11.25 20 13.493 20 16.25C20 17.2165 19.2165 18 18.25 18C17.2835 18 16.5 17.2165 16.5 16.25C16.5 15.4229 15.8271 14.75 15 14.75C14.1729 14.75 13.5 15.4229 13.5 16.25ZM15 5.24999C8.93456 5.24999 4 10.1846 4 16.25C4 17.2165 4.7835 18 5.75 18C6.7165 18 7.5 17.2165 7.5 16.25C7.5 12.1145 10.8645 8.74999 15 8.74999C19.1355 8.74999 22.5 12.1145 22.5 16.25C22.5 20.9477 18.0619 20.6444 18.0002 25.2264L18 25.25C18 27.0421 16.5421 28.5 14.75 28.5C13.7835 28.5 13 29.2835 13 30.25C13 31.2165 13.7835 32 14.75 32C18.4672 32 21.4923 28.9795 21.5 25.2641C21.5372 23.1124 26 22.2491 26 16.25C26 10.1846 21.0654 5.24999 15 5.24999ZM10 20C8.89544 20 8 20.8954 8 22C8 23.1046 8.89544 24 10 24C11.1046 24 12 23.1046 12 22C12 20.8954 11.1046 20 10 20ZM2 28C0.895437 28 0 28.8954 0 30C0 31.1046 0.895437 32 2 32C3.10456 32 4 31.1046 4 30C4 28.8954 3.10456 28 2 28ZM32 16.2504C32 16.1556 31.9992 16.0614 31.9972 15.9672C31.8797 8.78281 27.2598 2.40437 20.4996 0.0944306C19.5851 -0.217944 18.5903 0.269993 18.2778 1.18456C17.9653 2.09912 18.4534 3.09387 19.3679 3.40643C24.737 5.24106 28.406 10.3135 28.4977 16.0285L28.4979 16.0402C28.4995 16.1101 28.4999 16.18 28.4999 16.2504C28.4999 17.2169 29.2834 18.0004 30.2499 18.0004C31.2164 18.0004 32 17.2169 32 16.2504ZM9.56069 27.4393L4.56069 22.4393L2.43937 24.5606L7.43937 29.5606L9.56069 27.4393Z" fill="#0165E1" /></svg>