<svg width="30" height="32" viewBox="0 0 30 32" fill="none" xmlns="http://www.w3.org/2000/svg">
 <path  d= "M28.8882 20.8808L20 16L28.8882 11.1192C29.6253 10.7144 29.8857 9.78269 29.4652 9.05437L28.2477 6.94556C27.8272 6.21725 26.8902 5.97688 26.171 6.41288L17.5 11.6699L17.7172 1.53212C17.7352 0.691312 17.0586 0 16.2175 0H13.7825C12.9415 0 12.2648 0.691312 12.2829 1.53212L12.5 11.6699L3.82909 6.41294C3.10996 5.97694 2.1729 6.21731 1.7524 6.94562L0.534902 9.05444C0.114402 9.78275 0.374777 10.7144 1.11196 11.1193L10 16L1.1119 20.8808C0.374715 21.2856 0.11434 22.2173 0.534902 22.9456L1.7524 25.0544C2.1729 25.7827 3.10996 26.0231 3.82909 25.5871L12.5 20.3301L12.2828 30.4679C12.2648 31.3087 12.9415 32 13.7825 32H16.2176C17.0586 32 17.7353 31.3087 17.7173 30.4679L17.5 20.3301L26.171 25.5871C26.8901 26.0231 27.8272 25.7827 28.2477 25.0544L29.4652 22.9456C29.8857 22.2173 29.6253 21.2856 28.8882 20.8808Z" fill="#0165E1" /></svg>