<svg width="32" height="32" viewBox="0 0 32 32" fill="none" xmlns="http://www.w3.org/2000/svg">
 <path  d= "M16 0C7.15748 0 0 7.15606 0 16C0 24.8425 7.15606 32 16 32C19.1067 32 22.1511 31.0877 24.736 29.405C25.5105 28.9008 25.6795 27.838 25.0942 27.1229L24.4376 26.3208C23.9427 25.7162 23.0712 25.5681 22.4135 25.9899C20.511 27.2101 18.2783 27.871 16 27.871C9.45432 27.871 4.12903 22.5457 4.12903 16C4.12903 9.45432 9.45432 4.12903 16 4.12903C22.4606 4.12903 27.871 7.84639 27.871 14.4516C27.871 16.9539 26.5101 19.5963 24.1181 19.8512C22.9988 19.8219 23.0271 19.0217 23.2486 17.9141L24.7605 10.1006C24.9454 9.14516 24.2134 8.25806 23.2403 8.25806H20.3383C20.1241 8.25806 19.9173 8.33694 19.7574 8.47964C19.5976 8.62235 19.4959 8.8189 19.4717 9.03181L19.4711 9.03774C18.5229 7.88284 16.8615 7.6329 15.602 7.6329C10.7904 7.6329 6.70968 11.648 6.70968 17.4045C6.70968 21.6176 9.0829 24.2348 12.9032 24.2348C14.6441 24.2348 16.6045 23.226 17.7414 21.7617C18.3557 23.962 20.3615 23.9619 22.3033 23.9619C29.3296 23.9619 32 19.3418 32 14.4516C32 5.65503 24.9047 0 16 0ZM14.6013 19.6406C13.1659 19.6406 12.2742 18.6327 12.2742 17.0103C12.2742 14.1075 14.2599 12.3181 16.0568 12.3181C17.495 12.3181 18.3536 13.3014 18.3536 14.9484C18.3536 17.8555 16.1681 19.6406 14.6013 19.6406Z" fill="#0165E1" /></svg>