<svg width="28" height="32" viewBox="0 0 28 32" fill="none" xmlns="http://www.w3.org/2000/svg">
 <path  d= "M19.8988 13H17.4556C17.3625 14.6894 17.0469 16.2094 16.5675 17.4006C18.2994 16.5731 19.5688 14.9513 19.8988 13ZM19.8988 11C19.5681 9.04875 18.2994 7.42687 16.5675 6.59937C17.0475 7.79062 17.3625 9.31063 17.4556 11H19.8988ZM14 6.08187C13.5194 6.5475 12.7019 8.23312 12.5356 11H15.465C15.2981 8.23375 14.4806 6.5475 14 6.08187ZM11.4325 6.59937C9.70062 7.42687 8.43125 9.04875 8.10125 11H10.5444C10.6375 9.31063 10.9525 7.79062 11.4325 6.59937ZM11.4325 17.4006C10.9525 16.2094 10.6375 14.6894 10.5444 13H8.10125C8.43125 14.9513 9.70062 16.5731 11.4325 17.4006ZM15.4644 13H12.535C12.7013 15.7662 13.5188 17.4525 13.9994 17.9181C14.4806 17.4525 15.2981 15.7662 15.4644 13ZM28 22.4V1.6C28 0.6 27.4 0 26.4 0H6C2.6 0 0 2.6 0 6V26C0 29.4 2.6 32 6 32H26.4C27.2 32 28 31.4 28 30.4V29.4C28 29 27.8 28.6 27.4 28.2C27.2 27.2 27.2 24.4 27.4 23.6C27.8 23.4 28 23 28 22.4ZM14 4C18.4181 4 22 7.58187 22 12C22 16.4181 18.4181 20 14 20C9.58187 20 6 16.4181 6 12C6 7.58187 9.58187 4 14 4ZM24 28H6C4.8 28 4 27.2 4 26C4 24.8 5 24 6 24H24V28Z" fill="#0165E1" /></svg>