<svg width="32" height="24" viewBox="0 0 32 24" fill="none" xmlns="http://www.w3.org/2000/svg">
 <path  d= "M10.1828 10.9193L10.7342 12.8353H9.13381L9.69888 10.9195C9.77869 10.6432 9.86456 10.2949 9.94088 9.96669C10.0171 10.2949 10.103 10.6431 10.1828 10.9193ZM20.5874 8.91313H19.6798V15.0869H20.5874C22.4484 15.0869 23.4734 13.9821 23.4734 11.9759C23.4734 9.961 22.3802 8.91313 20.5874 8.91313ZM32 3V21C32 22.6569 30.6569 24 29 24H3C1.34312 24 0 22.6569 0 21V3C0 1.34312 1.34312 0 3 0H29C30.6569 0 32 1.34312 32 3ZM15.3412 17.0087L11.7726 6.50869C11.7222 6.36036 11.6266 6.23154 11.4993 6.1403C11.3719 6.04907 11.2192 6.00001 11.0625 6H8.81913C8.66246 6.00001 8.50973 6.04907 8.38237 6.1403C8.25501 6.23154 8.15942 6.36036 8.109 6.50869L4.54044 17.0087C4.37519 17.4951 4.73681 18 5.25056 18H7.07137C7.23424 18 7.39268 17.947 7.52274 17.849C7.65281 17.7509 7.74743 17.6132 7.79231 17.4567L8.32819 15.5876H11.5386L12.0882 17.4611C12.1338 17.6166 12.2286 17.7532 12.3583 17.8504C12.4881 17.9475 12.6458 18 12.8079 18H14.6311C15.1449 18 15.5065 17.4951 15.3412 17.0087ZM26.885 11.9759C26.885 8.28981 24.5151 6 20.7 6H17.1146C16.7004 6 16.3646 6.33581 16.3646 6.75V17.25C16.3646 17.6642 16.7004 18 17.1146 18H20.7C24.5151 18 26.885 15.6917 26.885 11.9759Z" fill="#0165E1" /></svg>