<svg width="24" height="32" viewBox="0 0 24 32" fill="none" xmlns="http://www.w3.org/2000/svg">
 <path  d= "M6.07014 22.6644L5.7389 22.3332C5.66926 22.2637 5.58263 22.2137 5.48765 22.1882L4.50017 21.9232C3.9058 21.7638 3.38331 21.4576 2.91082 21.0907L0.0752443 28.0437C-0.199126 28.7168 0.313365 29.448 1.0396 29.4205L4.33267 29.2949L6.59763 31.6874C7.09762 32.2149 7.97511 32.0505 8.24948 31.3774L11.5025 23.4013C10.8251 23.7788 10.0732 24 9.29571 24C8.07698 24 6.932 23.5256 6.07014 22.6644ZM23.9248 28.0437L21.0893 21.0913C20.6168 21.4588 20.0943 21.7644 19.4999 21.9238L18.5124 22.1882C18.4174 22.2137 18.3308 22.2637 18.2612 22.3332L17.9299 22.6644C17.0681 23.5256 15.9225 24 14.7037 24C13.9263 24 13.1744 23.7781 12.4969 23.4013L15.75 31.3774C16.0243 32.0505 16.9025 32.2149 17.4018 31.6874L19.6674 29.2949L22.9605 29.4205C23.6867 29.448 24.1992 28.7162 23.9248 28.0437ZM16.4375 21.2501L16.7631 20.9188C17.0756 20.6007 17.4643 20.3719 17.8912 20.2557L18.8618 19.9913C19.7299 19.7545 20.4086 19.0638 20.6411 18.1801L20.9011 17.192C21.0146 16.7592 21.2391 16.3634 21.5524 16.0439L22.263 15.3208C22.8986 14.6739 23.1467 13.7308 22.9142 12.8471L22.6542 11.859C22.5399 11.4245 22.5399 10.9678 22.6542 10.5334L22.9142 9.54525C23.1467 8.66152 22.8986 7.71841 22.263 7.07155L21.5524 6.34843C21.2399 6.03031 21.0155 5.6347 20.9011 5.20033L20.6411 4.21284C20.4086 3.32911 19.7299 2.6385 18.8618 2.40163L17.8912 2.13663C17.4643 2.02038 17.0756 1.79164 16.7631 1.47352L16.0525 0.750404C15.4169 0.10354 14.49 -0.14958 13.6219 0.0872908L12.6513 0.352286C12.2249 0.468534 11.7752 0.468534 11.3488 0.352286L10.3782 0.0879158C9.51008 -0.148955 8.58322 0.103541 7.94761 0.751029L7.237 1.47414C6.9245 1.79226 6.53576 2.02038 6.10889 2.13726L5.13828 2.40225C4.27017 2.63912 3.59143 3.32974 3.35894 4.21347L3.09894 5.20095C2.98545 5.6338 2.76098 6.02954 2.4477 6.34906L1.73709 7.07217C1.10148 7.71903 0.852731 8.66214 1.08585 9.54588L1.34585 10.5334C1.46022 10.9678 1.46022 11.4245 1.34585 11.859L1.08585 12.8464C0.853356 13.7302 1.10148 14.6733 1.73709 15.3208L2.4477 16.0439C2.7602 16.362 2.98457 16.7576 3.09894 17.192L3.35894 18.1795C3.59143 19.0632 4.27017 19.7538 5.13828 19.9907L6.10889 20.2551C6.53576 20.3713 6.9245 20.6001 7.237 20.9182L7.56262 21.2501C8.38948 22.0919 9.67758 22.2425 10.6713 21.6138C11.0687 21.3615 11.5297 21.2276 12.0004 21.2276C12.471 21.2276 12.932 21.3615 13.3294 21.6138C14.3225 22.2425 15.6106 22.0919 16.4375 21.2501ZM6.10389 10.9977C6.10389 7.68341 8.74384 4.99658 12 4.99658C15.2562 4.99658 17.8962 7.68341 17.8962 10.9977C17.8962 14.312 15.2562 16.9989 12 16.9989C8.74384 16.9989 6.10389 14.312 6.10389 10.9977Z" fill="#0165E1" /></svg>