<svg width="32" height="20" viewBox="0 0 32 20" fill="none" xmlns="http://www.w3.org/2000/svg">
 <path  d= "M28.8 0.400147H10.2632C9.84287 0.400063 9.42668 0.482817 9.03838 0.643678C8.65008 0.804539 8.29729 1.04035 8.00019 1.33764L0.468746 8.86858C-0.156249 9.49358 -0.156249 10.5066 0.468746 11.1311L8.00019 18.6625C8.60018 19.2625 9.41418 19.6 10.2627 19.6H28.8C30.5675 19.6 32 18.1675 32 16.4V3.60012C32 1.83264 30.5675 0.400147 28.8 0.400147ZM24.5656 13.103C24.8781 13.4155 24.8781 13.922 24.5656 14.2345L23.4346 15.3655C23.1221 15.678 22.6156 15.678 22.3031 15.3655L19.2001 12.2626L16.0971 15.3655C15.7846 15.678 15.2781 15.678 14.9656 15.3655L13.8346 14.2345C13.5221 13.922 13.5221 13.4155 13.8346 13.103L16.9376 10.0001L13.8346 6.8971C13.5221 6.5846 13.5221 6.0781 13.8346 5.7656L14.9656 4.63461C15.2781 4.32212 15.7846 4.32212 16.0971 4.63461L19.2001 7.73759L22.3031 4.63461C22.6156 4.32212 23.1221 4.32212 23.4346 4.63461L24.5656 5.7656C24.8781 6.0781 24.8781 6.5846 24.5656 6.8971L21.4626 10.0001L24.5656 13.103Z" fill="#0165E1" /></svg>