<svg width="32" height="26" viewBox="0 0 32 26" fill="none" xmlns="http://www.w3.org/2000/svg">
 <path  d= "M12.8 17H12.799C12.799 16.191 12.866 16.5635 8.5465 7.92445C7.664 6.15995 5.137 6.15645 4.253 7.92445C-0.103 16.6375 0.001 16.2165 0.001 17H0C0 19.209 2.8655 21 6.4 21C9.9345 21 12.8 19.209 12.8 17ZM6.4 8.99995L10 16.2H2.8L6.4 8.99995ZM31.999 17C31.999 16.191 32.066 16.5635 27.7465 7.92445C26.864 6.15995 24.337 6.15645 23.453 7.92445C19.097 16.6375 19.201 16.2165 19.201 17H19.2C19.2 19.209 22.0655 21 25.6 21C29.1345 21 32 19.209 32 17H31.999ZM22 16.2L25.6 8.99995L29.2 16.2H22ZM26.4 22.6H17.6V7.86245C18.7755 7.34795 19.658 6.28845 19.9195 4.99995H26.4C26.842 4.99995 27.2 4.64195 27.2 4.19995V2.59995C27.2 2.15795 26.842 1.79995 26.4 1.79995H19.182C18.452 0.833951 17.3045 0.199951 16 0.199951C14.6955 0.199951 13.548 0.833951 12.818 1.79995H5.6C5.158 1.79995 4.8 2.15795 4.8 2.59995V4.19995C4.8 4.64195 5.158 4.99995 5.6 4.99995H12.0805C12.342 6.28795 13.224 7.34795 14.4 7.86245V22.6H5.6C5.158 22.6 4.8 22.958 4.8 23.4V25C4.8 25.442 5.158 25.8 5.6 25.8H26.4C26.842 25.8 27.2 25.442 27.2 25V23.4C27.2 22.958 26.842 22.6 26.4 22.6Z" fill="#0165E1" /></svg>