<svg width="32" height="32" viewBox="0 0 32 32" fill="none" xmlns="http://www.w3.org/2000/svg">
 <path  d= "M16 0C7.16348 0 0 7.16342 0 16C0 24.8366 7.16348 32 16 32C24.8365 32 32 24.8365 32 16C32 7.16348 24.8366 0 16 0ZM24.3941 7.60594C28.6165 11.8284 28.9102 18.2821 25.7281 22.8083L9.19161 6.272C13.7209 3.08774 20.1739 3.38587 24.3941 7.60594ZM7.60594 24.3941C3.38348 20.1716 3.08981 13.7179 6.27194 9.19168L22.8084 25.728C18.2792 28.9123 11.8261 28.6142 7.60594 24.3941Z" fill="#0165E1" /></svg>