<svg width="32" height="16" viewBox="0 0 32 16" fill="none" xmlns="http://www.w3.org/2000/svg">
 <path  d= "M0 3.2V12.8C0 14.565 1.435 16 3.2 16H8V0H3.2C1.435 0 0 1.435 0 3.2ZM28.8 0H24V16H28.8C30.565 16 32 14.565 32 12.8V3.2C32 1.435 30.565 0 28.8 0ZM9.6 16H22.4V0H9.6V16ZM18.4 4.4C19.065 4.4 19.6 4.935 19.6 5.6C19.6 6.265 19.065 6.8 18.4 6.8C17.735 6.8 17.2 6.265 17.2 5.6C17.2 4.935 17.735 4.4 18.4 4.4ZM18.4 9.2C19.065 9.2 19.6 9.735 19.6 10.4C19.6 11.065 19.065 11.6 18.4 11.6C17.735 11.6 17.2 11.065 17.2 10.4C17.2 9.735 17.735 9.2 18.4 9.2ZM13.6 4.4C14.265 4.4 14.8 4.935 14.8 5.6C14.8 6.265 14.265 6.8 13.6 6.8C12.935 6.8 12.4 6.265 12.4 5.6C12.4 4.935 12.935 4.4 13.6 4.4ZM13.6 9.2C14.265 9.2 14.8 9.735 14.8 10.4C14.8 11.065 14.265 11.6 13.6 11.6C12.935 11.6 12.4 11.065 12.4 10.4C12.4 9.735 12.935 9.2 13.6 9.2Z" fill="#0165E1" /></svg>