<svg width="32" height="24" viewBox="0 0 32 24" fill="none" xmlns="http://www.w3.org/2000/svg">
 <path  d= "M0 24V0H1.125V24H0ZM1.67856 23.9829V0H2.25V23.9829H1.67856ZM3.375 23.9829V0H3.92856V23.9829H3.375ZM6.17856 23.9829V0H6.73212V23.9829H6.17856ZM8.42856 23.9829V0H9.53569V23.9829H8.42856ZM11.2321 23.9829V0H11.7857V23.9829H11.2321ZM12.3571 23.9829V0H12.9107V23.9829H12.3571ZM13.4821 23.9829V0H14.0357V23.9829H13.4821ZM15.7143 23.9829V0H16.8393V23.9829H15.7143ZM18.5179 23.9829V0H19.6429V23.9829H18.5179ZM20.7678 23.9829V0H21.8929V23.9829H20.7678ZM23.0179 23.9829V0H24.1429V23.9829H23.0179ZM24.6964 23.9829V0H25.8214V23.9829H24.6964ZM27.5179 23.9829V0H29.1964V23.9829H27.5179ZM29.75 23.9829V0H30.3214V23.9829H29.75ZM30.875 24V0H32V24H30.875Z" fill="#0165E1" /></svg>