<svg width="32" height="32" viewBox="0 0 32 32" fill="none" xmlns="http://www.w3.org/2000/svg">
 <path  d= "M23.7774 22.9613L25.6354 22.0645C26.3516 23.5419 27.3129 24.8516 28.4806 25.9935C30.6741 23.2516 31.9967 19.7806 31.9967 16C31.9967 12.2258 30.6806 8.76129 28.4999 6.02581C27.3516 7.14194 26.3967 8.41935 25.687 9.86452L23.8354 8.95484C24.6612 7.27742 25.7709 5.79355 27.1129 4.50323C24.2354 1.72258 20.3258 0 16.0032 0C11.687 0 7.77737 1.71613 4.89995 4.49677C6.23543 5.78064 7.34511 7.26452 8.17092 8.93548L6.3193 9.84516C5.60963 8.40645 4.66124 7.12903 3.51285 6.0129C1.3193 8.75484 0.00317383 12.2194 0.00317383 16C0.00317383 19.7806 1.3193 23.2452 3.51285 25.9806C4.68705 24.8387 5.65479 23.529 6.37092 22.0452L8.22898 22.9419C7.39672 24.6645 6.27414 26.1871 4.9064 27.5032C7.77737 30.2839 11.687 32 16.0032 32C20.3129 32 24.2161 30.2903 27.0935 27.5161C25.7322 26.2 24.6096 24.6839 23.7774 22.9613ZM9.04834 20.8968L7.08059 20.2645C8.04188 17.271 7.89995 14.2129 7.04188 11.6194L9.00317 10.9742C9.97092 13.9161 10.1645 17.4194 9.04834 20.8968ZM23.0032 11L24.9645 11.6452C24.1129 14.2323 23.9645 17.2903 24.9258 20.2903L22.958 20.9226C21.8419 17.4387 22.0354 13.9355 23.0032 11Z" fill="#0165E1" /></svg>