<svg width="32" height="32" viewBox="0 0 32 32" fill="none" xmlns="http://www.w3.org/2000/svg">
 <path  d= "M13.6968 0.148387C10.871 0.554839 8.13548 1.70323 5.8129 3.61935L10.8065 8.6129C12.6 6.30323 13.6 3.37419 13.6968 0.148387ZM16 13.8065L26.1871 3.61935C23.4516 1.36129 20.1484 0.167742 16.8 0C16.7226 4.12258 15.4129 7.89032 13.0129 10.8194L16 13.8065ZM3.61935 5.8129C1.70323 8.13548 0.554839 10.871 0.148387 13.6968C3.37419 13.6 6.30968 12.6 8.6129 10.8065L3.61935 5.8129ZM21.1806 18.9871C24.1032 16.5935 27.871 15.2839 32 15.2C31.8323 11.8516 30.6387 8.54839 28.3806 5.8129L18.1935 16L21.1806 18.9871ZM16 18.1935L5.8129 28.3806C8.54839 30.6323 11.8516 31.8323 15.2 32C15.2839 27.871 16.5935 24.1032 18.9871 21.1806L16 18.1935ZM28.3806 26.1871C30.2968 23.8645 31.4452 21.129 31.8516 18.3032C28.6194 18.4065 25.6903 19.4065 23.3871 21.1935L28.3806 26.1871ZM10.8194 13.0129C7.89032 15.4129 4.12258 16.729 0 16.8C0.167742 20.1484 1.36129 23.4516 3.61935 26.1871L13.8065 16L10.8194 13.0129ZM18.3032 31.8516C21.129 31.4452 23.8645 30.2968 26.1871 28.3806L21.1935 23.3871C19.4065 25.6903 18.4065 28.6258 18.3032 31.8516Z" fill="#0165E1" /></svg>