<svg width="32" height="28" viewBox="0 0 32 28" fill="none" xmlns="http://www.w3.org/2000/svg">
 <path  d= "M30.5 14H5V5C5 3.89719 5.89719 3 7 3C7.70944 3 8.33325 3.37156 8.68844 3.93C7.65769 5.50544 7.7705 7.6535 9.11581 9.11969C8.85481 9.41425 8.8645 9.86444 9.1465 10.1464L9.85363 10.8536C10.1465 11.1464 10.6214 11.1464 10.9143 10.8536L16.8537 4.91425C17.1466 4.62138 17.1466 4.1465 16.8537 3.85356L16.1466 3.14644C15.8646 2.86444 15.4144 2.85481 15.1198 3.11575C13.998 2.08644 12.4764 1.77644 11.1087 2.15544C10.2051 0.854187 8.70075 0 7 0C4.243 0 2 2.243 2 5V14H1.5C0.671562 14 0 14.6716 0 15.5V16.5C0 17.3284 0.671562 18 1.5 18H2V20C2 21.7769 2.77262 23.3731 4 24.4717V26.5C4 27.3284 4.67156 28 5.5 28H6.5C7.32844 28 8 27.3284 8 26.5V26H24V26.5C24 27.3284 24.6716 28 25.5 28H26.5C27.3284 28 28 27.3284 28 26.5V24.4717C29.2274 23.3731 30 21.7769 30 20V18H30.5C31.3284 18 32 17.3284 32 16.5V15.5C32 14.6716 31.3284 14 30.5 14Z" fill="#0165E1" /></svg>