<svg width="32" height="20" viewBox="0 0 32 20" fill="none" xmlns="http://www.w3.org/2000/svg">
 <path  d= "M8.8 10C11.0055 10 12.8 8.20552 12.8 6.00002C12.8 3.79452 11.0055 2.00002 8.8 2.00002C6.5945 2.00002 4.8 3.79452 4.8 6.00002C4.8 8.20552 6.5945 10 8.8 10ZM26.4 3.60002H15.2C14.758 3.60002 14.4 3.95802 14.4 4.40002V11.6H3.2V1.20002C3.2 0.758024 2.842 0.400024 2.4 0.400024H0.8C0.358 0.400024 0 0.758024 0 1.20002V18.8C0 19.242 0.358 19.6 0.8 19.6H2.4C2.842 19.6 3.2 19.242 3.2 18.8V16.4H28.8V18.8C28.8 19.242 29.158 19.6 29.6 19.6H31.2C31.642 19.6 32 19.242 32 18.8V9.20002C32 6.10702 29.493 3.60002 26.4 3.60002Z" fill="#0165E1" /></svg>