<svg width="32" height="32" viewBox="0 0 32 32" fill="none" xmlns="http://www.w3.org/2000/svg">
 <path  d= "M26.2857 4.57143H22.8571V1.71429C22.8571 0.7675 22.0896 0 21.1429 0H1.71429C0.7675 0 0 0.7675 0 1.71429V30.2857C0 31.2325 0.7675 32 1.71429 32H21.1429C22.0896 32 22.8571 31.2325 22.8571 30.2857V27.2779L28.6147 24.7081C30.6711 23.7902 32 21.742 32 19.49V10.2857C32 7.13486 29.4366 4.57143 26.2857 4.57143ZM27.4286 19.49C27.4284 19.7107 27.3644 19.9267 27.2443 20.1119C27.1241 20.2971 26.953 20.4435 26.7515 20.5336L22.8571 22.2718V9.14286H26.2857C26.9159 9.14286 27.4286 9.65557 27.4286 10.2857V19.49ZM14.8571 25.1429C14.226 25.1429 13.7143 24.6311 13.7143 24V8C13.7143 7.36886 14.226 6.85714 14.8571 6.85714C15.4883 6.85714 16 7.36886 16 8V24C16 24.6311 15.4883 25.1429 14.8571 25.1429ZM8 25.1429C7.36886 25.1429 6.85714 24.6311 6.85714 24V8C6.85714 7.36886 7.36886 6.85714 8 6.85714C8.63114 6.85714 9.14286 7.36886 9.14286 8V24C9.14286 24.6311 8.63114 25.1429 8 25.1429Z" fill="#0165E1" /></svg>