<svg width="32" height="30" viewBox="0 0 32 30" fill="none" xmlns="http://www.w3.org/2000/svg">
 <path  d= "M4.3394 21.1144C2.66445 22.7894 3.85151 25.6667 6.22501 25.6667H12.4446C12.4446 27.6304 14.0365 29.2223 16.0001 29.2223C17.9638 29.2223 19.5557 27.6304 19.5557 25.6667H21.3715L7.10279 13.0767C6.98067 18.4699 5.52284 19.931 4.3394 21.1144ZM14.6668 25.6667C14.6668 26.402 15.2649 27.0001 16.0001 27.0001C16.118 27.0001 16.231 27.0469 16.3144 27.1302C16.3977 27.2136 16.4446 27.3266 16.4446 27.4445C16.4446 27.5624 16.3977 27.6754 16.3144 27.7588C16.231 27.8421 16.118 27.889 16.0001 27.889C14.7748 27.889 13.7779 26.8921 13.7779 25.6667H14.6668ZM31.661 28.0963L31.0631 28.7678C30.5678 29.324 29.7113 29.3771 29.15 28.8863L0.458784 3.79967C-0.10255 3.30883 -0.15605 2.46005 0.339228 1.90378L0.937061 1.23233C1.43239 0.67611 2.28895 0.623054 2.85028 1.11389L9.17307 6.64233C10.5073 5.04356 12.3923 3.92033 14.537 3.56511C14.3316 3.26854 14.2219 2.91631 14.2223 2.55561C14.2223 1.57378 15.0183 0.777832 16.0001 0.777832C16.982 0.777832 17.7779 1.57378 17.7779 2.55561C17.7779 2.93061 17.6615 3.27828 17.4633 3.56505C21.6762 4.26289 24.889 7.92261 24.889 12.3334C24.889 18.3399 26.4242 19.8783 27.6603 21.1144C28.3353 21.7894 28.545 22.6576 28.4009 23.4545L31.5415 26.2005C32.1028 26.6913 32.1563 27.5401 31.661 28.0963Z" fill="#0165E1" /></svg>