<svg width="28" height="32" viewBox="0 0 28 32" fill="none" xmlns="http://www.w3.org/2000/svg">
 <path  d= "M27.1177 22.8787C25.7271 21.4881 24 19.7574 24 13C24 8.03788 20.3856 3.92069 15.6461 3.13562C15.877 2.80201 16.0005 2.40577 16 2C16 0.895437 15.1046 0 14 0C12.8954 0 12 0.895437 12 2C12 2.42188 12.1309 2.813 12.3539 3.13562C7.61443 3.92069 3.99999 8.03788 3.99999 13C3.99999 19.7574 2.27231 21.4881 0.88168 22.8787C-1.00263 24.763 0.332805 28 3.00299 28H9.99999C9.99999 30.2091 11.7909 32 14 32C16.2091 32 18 30.2091 18 28H24.9964C27.6613 28 29.0059 24.7668 27.1177 22.8787ZM14 29.5C14.1326 29.5 14.2598 29.5527 14.3535 29.6464C14.4473 29.7402 14.5 29.8674 14.5 30C14.5 30.1326 14.4473 30.2598 14.3535 30.3536C14.2598 30.4473 14.1326 30.5 14 30.5C12.6215 30.5 11.5 29.3785 11.5 28H12.5C12.5 28.8271 13.1729 29.5 14 29.5Z" fill="#0165E1" /></svg>