<svg width="32" height="24" viewBox="0 0 32 24" fill="none" xmlns="http://www.w3.org/2000/svg">
 <path  d= "M18.4 0.800049H13.6C12.7165 0.800049 12 1.51655 12 2.40005V7.20005C12 8.08355 12.7165 8.80005 13.6 8.80005H18.4C19.2835 8.80005 20 8.08355 20 7.20005V2.40005C20 1.51655 19.2835 0.800049 18.4 0.800049ZM10.4 3.60005H6.1625C5.6875 2.42805 4.542 1.60005 3.2 1.60005C1.433 1.60005 0 3.03255 0 4.80005C0 6.56755 1.433 8.00005 3.2 8.00005C4.542 8.00005 5.6875 7.17205 6.1625 6.00005H10.149C7.3805 7.62605 5.356 10.366 4.672 13.6H7.142C7.707 11.5195 8.9805 9.73955 10.694 8.52205C10.509 8.11805 10.4 7.67255 10.4 7.20005V3.60005ZM8 15.2H3.2C2.3165 15.2 1.6 15.9165 1.6 16.8V21.6C1.6 22.4835 2.3165 23.2 3.2 23.2H8C8.8835 23.2 9.6 22.4835 9.6 21.6V16.8C9.6 15.9165 8.8835 15.2 8 15.2ZM28.8 1.60005C27.458 1.60005 26.3125 2.42805 25.8375 3.60005H21.6V7.20005C21.6 7.67255 21.4905 8.11805 21.306 8.52205C23.0195 9.73955 24.293 11.5195 24.858 13.6H27.328C26.644 10.366 24.6195 7.62605 21.851 6.00005H25.8375C26.3125 7.17205 27.458 8.00005 28.8 8.00005C30.567 8.00005 32 6.56755 32 4.80005C32 3.03255 30.567 1.60005 28.8 1.60005ZM28.8 15.2H24C23.1165 15.2 22.4 15.9165 22.4 16.8V21.6C22.4 22.4835 23.1165 23.2 24 23.2H28.8C29.6835 23.2 30.4 22.4835 30.4 21.6V16.8C30.4 15.9165 29.6835 15.2 28.8 15.2Z" fill="#0165E1" /></svg>