<svg width="32" height="20" viewBox="0 0 32 20" fill="none" xmlns="http://www.w3.org/2000/svg">
 <path  d= "M25.6254 6.80007C24.8068 6.79687 24.0239 6.94782 23.3036 7.22482L19.4197 0.967174C19.312 0.793712 19.1618 0.650588 18.9834 0.551344C18.805 0.4521 18.6042 0.400017 18.4001 0.400024H15.2001C14.7582 0.400024 14.4001 0.758174 14.4001 1.20002V2.00002C14.4001 2.44187 14.7582 2.80002 15.2001 2.80002H17.7325L18.4773 4.00002H12.8001V3.20002C12.8001 2.75817 12.442 2.40002 12.0001 2.40002H7.62716C6.95511 2.40002 6.38831 2.94997 6.40036 3.62187C6.41196 4.27407 6.94416 4.80002 7.60011 4.80002H10.0364L8.56556 7.17602C7.89391 6.93452 7.17036 6.80187 6.41596 6.80002C2.90471 6.79152 0.0206117 9.65062 0.00011168 13.1618C-0.0206383 16.714 2.85276 19.6 6.40011 19.6C9.38221 19.6 11.888 17.5604 12.5985 14.8H15.2001C15.4045 14.8 15.6055 14.7478 15.7841 14.6483C15.9626 14.5489 16.1128 14.4055 16.2204 14.2317L20.5185 7.28852L21.2654 8.49187C19.9927 9.66427 19.1962 11.3459 19.2001 13.2137C19.2073 16.6554 22.095 19.5663 25.5365 19.5997C29.0668 19.6339 31.9455 16.8095 31.9992 13.2999C32.0535 9.75282 29.1729 6.81387 25.6254 6.80007ZM9.33751 10.4886C9.82386 11.0151 10.1712 11.6717 10.3196 12.4H8.15431L9.33751 10.4886ZM6.40011 17.2C4.19451 17.2 2.40011 15.4056 2.40011 13.2C2.40011 10.9944 4.19451 9.20002 6.40011 9.20002C6.69356 9.20002 6.97941 9.23267 7.25506 9.29297L4.97981 12.9684C4.48576 13.7664 5.06066 14.8 6.00011 14.8H10.0651C9.44661 16.2113 8.03701 17.2 6.40011 17.2ZM14.5316 12.4H12.7504C12.5524 10.8122 11.7726 9.40532 10.6313 8.39872L11.8686 6.40002H18.2459L14.5316 12.4ZM25.3844 17.1943C23.3326 17.0861 21.682 15.4097 21.6031 13.3566C21.5625 12.3005 21.9347 11.3307 22.5698 10.5934L24.7915 14.1727C25.0245 14.5481 25.5177 14.6635 25.8931 14.4305L26.5728 14.0087C26.9482 13.7757 27.0636 13.2825 26.8306 12.9071L24.6072 9.32492C24.9316 9.24185 25.2652 9.19991 25.6001 9.20007C27.8057 9.20007 29.6001 10.9945 29.6001 13.2001C29.6 15.4771 27.6875 17.3159 25.3844 17.1943Z" fill="#0165E1" /></svg>