<svg width="32" height="28" viewBox="0 0 32 28" fill="none" xmlns="http://www.w3.org/2000/svg">
 <path  d= "M12 4.5H6V1.5C6 0.671562 6.67156 0 7.5 0H10.5C11.3284 0 12 0.671562 12 1.5V4.5ZM26 1.5C26 0.671562 25.3284 0 24.5 0H21.5C20.6716 0 20 0.671562 20 1.5V4.5H26V1.5ZM0 26.5C0 27.3284 0.671562 28 1.5 28H9C9.82844 28 10.5 27.3284 10.5 26.5V25.5H0V26.5ZM5.5 6C4.67156 6 4 6.67156 4 7.5C4 14 0 15 0 24H10.5V17.5C10.5 16.6716 11.1716 16 12 16V6H5.5ZM21.5 26.5C21.5 27.3284 22.1716 28 23 28H30.5C31.3284 28 32 27.3284 32 26.5V25.5H21.5V26.5ZM13.5 6V16H18.5V6H13.5ZM21.5 24H32C32 15 28 14 28 7.5C28 6.67156 27.3284 6 26.5 6H20V16C20.8284 16 21.5 16.6716 21.5 17.5V24Z" fill="#0165E1" /></svg>