<svg width="32" height="32" viewBox="0 0 32 32" fill="none" xmlns="http://www.w3.org/2000/svg">
 <path  d= "M26 24H10C7.79063 24 6 25.7906 6 28V30C6 31.1044 6.89563 32 8 32H28C29.1044 32 30 31.1044 30 30V28C30 25.7906 28.2094 24 26 24ZM18 30C16.8956 30 16 29.1044 16 28C16 26.8956 16.8956 26 18 26C19.1044 26 20 26.8956 20 28C20 29.1044 19.1044 30 18 30ZM20.5 4H30.9088L32 0H3C1.34312 0 0 1.34312 0 3V13C0 14.6569 1.34312 16 3 16H9.45438L10 22H26L27.0912 18H20.5C20.2237 18 20 17.7763 20 17.5V16.5C20 16.2237 20.2237 16 20.5 16H27.6362L28.7275 12H20.5C20.2237 12 20 11.7762 20 11.5V10.5C20 10.2238 20.2237 10 20.5 10H29.2725L30.3638 6H20.5C20.2237 6 20 5.77625 20 5.5V4.5C20 4.22375 20.2237 4 20.5 4ZM4 12V4H8.36375L9.09125 12H4Z" fill="#0165E1" /></svg>