<svg width="24" height="32" viewBox="0 0 24 32" fill="none" xmlns="http://www.w3.org/2000/svg">
 <path  d= "M23.7594 31.9273C23.646 31.9961 23.51 32.0171 23.3812 31.9856C23.2524 31.9541 23.1414 31.8727 23.0726 31.7594L15.2394 18.8577C15.5555 18.7323 15.8343 18.5283 16.0493 18.2649L23.9273 31.2404C23.9614 31.2965 23.9841 31.3588 23.9941 31.4237C24.0041 31.4886 24.0012 31.5548 23.9856 31.6186C23.97 31.6824 23.942 31.7425 23.9032 31.7955C23.8644 31.8484 23.8155 31.8932 23.7594 31.9273ZM8.92519 19.6461L6.89144 25.2389L9.14894 30.7567C9.56725 31.7792 10.735 32.2687 11.7572 31.8506C12.7796 31.4323 13.2693 30.2646 12.8511 29.2422L8.92519 19.6461ZM6 5.5C7.51881 5.5 8.75 4.26881 8.75 2.75C8.75 1.23119 7.51881 0 6 0C4.48119 0 3.25 1.23119 3.25 2.75C3.25 4.26881 4.48119 5.5 6 5.5ZM15.6773 16.0705L8.17731 6.5705C7.8815 6.19581 7.44294 6.00125 7 6.001V6H5V6.00162C4.55337 6.00181 4.11144 6.19919 3.816 6.57912L0 11.4854V17.4662C0 18.3072 0.688187 19.0157 1.529 18.9997C2.34406 18.9842 3 18.3187 3 17.5V12.5146L4 11.2289V20.0226L0.620437 29.3159C0.242937 30.354 0.778437 31.5015 1.81656 31.879C2.85419 32.2564 4.00206 31.7212 4.37962 30.6829L8.5 19.3524V12.6526L6.53712 10.1641C6.51672 10.1383 6.50159 10.1088 6.49259 10.0773C6.48359 10.0457 6.48089 10.0127 6.48466 9.98004C6.48843 9.94742 6.49858 9.91586 6.51454 9.88717C6.5305 9.85848 6.55196 9.83321 6.57769 9.81281C6.60341 9.79241 6.63291 9.77728 6.66448 9.76828C6.69606 9.75927 6.7291 9.75658 6.76171 9.76035C6.82759 9.76795 6.88774 9.80142 6.92894 9.85337L13.3227 17.9294C13.8942 18.6534 14.8457 18.6381 15.4294 18.1772C16.0801 17.6637 16.1894 16.7189 15.6773 16.0705Z" fill="#0165E1" /></svg>