<svg width="28" height="32" viewBox="0 0 28 32" fill="none" xmlns="http://www.w3.org/2000/svg">
 <path  d= "M22.0567 15.1351C24.4595 13.811 25.8893 11.2665 25.8893 8.29986C25.8893 4.85443 24.0143 2.04086 20.9875 0.8585C19.2242 0.143572 17.4893 0 15.2615 0H2.00003C1.36882 0 0.857178 0.511643 0.857178 1.14286V3.5035C0.857178 4.13471 1.36882 4.64636 2.00003 4.64636H4.36525V27.3985H2.00003C1.36882 27.3985 0.857178 27.9101 0.857178 28.5414V30.8571C0.857178 31.4884 1.36882 32 2.00003 32H15.9779C17.7067 32 19.1803 31.9079 20.754 31.4583C24.3943 30.3709 27.1429 27.0462 27.1429 22.7153C27.1429 18.989 25.2448 16.1664 22.0567 15.1351ZM10.4441 4.91493H15.2615C16.4254 4.91493 17.2284 5.05914 17.9419 5.39471C19.0725 6.00036 19.7209 7.28771 19.7209 8.92657C19.7209 11.4286 18.2695 12.983 15.9331 12.983H10.4441V4.91493ZM18.49 26.7346C17.7657 27.0243 16.8702 27.0851 16.2465 27.0851H10.4441V17.8531H16.4703C19.3021 17.8531 20.9744 19.6659 20.9744 22.3571C20.9745 24.3875 19.9987 26.1059 18.49 26.7346Z" fill="#0165E1" /></svg>