<svg width="32" height="32" viewBox="0 0 32 32" fill="none" xmlns="http://www.w3.org/2000/svg">
 <path  d= "M27.5312 5.53442L24.2812 8.78442L25.9375 10.4407C26.525 11.0282 26.525 11.9782 25.9375 12.5594L24.85 13.6469C25.5875 15.2782 26 17.0907 26 18.9969C26 26.1782 20.1812 31.9969 13 31.9969C5.81875 31.9969 0 26.1844 0 19.0032C0 11.8219 5.81875 6.00317 13 6.00317C14.9062 6.00317 16.7188 6.41567 18.35 7.15317L19.4375 6.06567C20.025 5.47817 20.975 5.47817 21.5562 6.06567L23.2125 7.72192L26.4625 4.47192L27.5312 5.53442ZM31.25 3.75317H29.75C29.3375 3.75317 29 4.09067 29 4.50317C29 4.91567 29.3375 5.25317 29.75 5.25317H31.25C31.6625 5.25317 32 4.91567 32 4.50317C32 4.09067 31.6625 3.75317 31.25 3.75317ZM27.5 0.00317383C27.0875 0.00317383 26.75 0.340674 26.75 0.753174V2.25317C26.75 2.66567 27.0875 3.00317 27.5 3.00317C27.9125 3.00317 28.25 2.66567 28.25 2.25317V0.753174C28.25 0.340674 27.9125 0.00317383 27.5 0.00317383ZM29.6187 3.44067L30.6812 2.37817C30.975 2.08442 30.975 1.60942 30.6812 1.31567C30.3875 1.02192 29.9125 1.02192 29.6187 1.31567L28.5562 2.37817C28.2625 2.67192 28.2625 3.14692 28.5562 3.44067C28.8562 3.73442 29.3312 3.73442 29.6187 3.44067ZM25.3813 3.44067C25.675 3.73442 26.15 3.73442 26.4438 3.44067C26.7375 3.14692 26.7375 2.67192 26.4438 2.37817L25.3813 1.31567C25.0875 1.02192 24.6125 1.02192 24.3188 1.31567C24.025 1.60942 24.025 2.08442 24.3188 2.37817L25.3813 3.44067ZM29.6187 5.56567C29.325 5.27192 28.85 5.27192 28.5562 5.56567C28.2625 5.85942 28.2625 6.33442 28.5562 6.62817L29.6187 7.69067C29.9125 7.98442 30.3875 7.98442 30.6812 7.69067C30.975 7.39692 30.975 6.92192 30.6812 6.62817L29.6187 5.56567ZM7 17.0032C7 14.7969 8.79375 13.0032 11 13.0032C11.55 13.0032 12 12.5532 12 12.0032C12 11.4532 11.55 11.0032 11 11.0032C7.69375 11.0032 5 13.6969 5 17.0032C5 17.5532 5.45 18.0032 6 18.0032C6.55 18.0032 7 17.5532 7 17.0032Z" fill="#0165E1" /></svg>