<svg width="28" height="32" viewBox="0 0 28 32" fill="none" xmlns="http://www.w3.org/2000/svg">
 <path  d= "M18.9064 32C20.3551 32 21.6832 31.2137 22.4064 29.9587C23.4182 28.2038 24.0001 26.1719 24.0001 24C24.0001 21.7425 23.3701 19.6369 22.2851 17.8363L25.0001 15.1213L25.5864 15.7075C25.977 16.0981 26.6101 16.0981 27.0007 15.7075L27.707 15C28.0976 14.6094 28.0976 13.9763 27.707 13.5856L24.4139 10.2925C24.0232 9.90188 23.3901 9.90188 22.9995 10.2925L22.2926 10.9994C21.902 11.39 21.902 12.0231 22.2926 12.4138L22.8789 13L20.4157 15.4631C19.6932 14.7525 18.8826 14.13 18.0001 13.6188V3.98375L18.9982 3.9825C19.5495 3.98188 19.9964 3.535 19.997 2.98375L19.9995 1.00125C20.0001 0.448126 19.5514 -0.000624348 18.9982 6.52063e-07L5.002 0.0162507C4.45075 0.0168757 4.00387 0.463751 4.00325 1.015L4.00075 2.99813C4.00012 3.55125 4.44887 3.99938 5.002 3.99875L6.00012 3.9975V13.6181C2.417 15.6938 0.00012207 19.5606 0.00012207 24C0.00012207 26.1719 0.581997 28.2044 1.59387 29.9587C2.31762 31.2137 3.64575 32 5.09387 32H18.9064ZM7.50387 16.2144L9.00012 15.3475V3.99438L15.0001 3.9875V15.3475L16.4964 16.2144C18.047 17.1125 19.2539 18.4475 20.0314 20H3.96887C4.747 18.4475 5.95325 17.1125 7.50387 16.2144Z" fill="#0165E1" /></svg>