<svg width="32" height="26" viewBox="0 0 32 26" fill="none" xmlns="http://www.w3.org/2000/svg">
 <path  d= "M30.1239 0.558315C27.0794 0.731096 21.0281 1.36 17.2925 3.6467C17.0347 3.80448 16.8886 4.08504 16.8886 4.37838V24.5937C16.8886 25.2354 17.5903 25.641 18.182 25.3432C22.0254 23.4087 27.5838 22.8809 30.3322 22.7365C31.2705 22.687 32 21.9348 32 21.0331V2.2639C32.0006 1.27999 31.1472 0.500536 30.1239 0.558315ZM14.7075 3.6467C10.9724 1.36 4.9212 0.731651 1.8767 0.558315C0.853348 0.500536 0 1.27999 0 2.2639V21.0337C0 21.9359 0.729457 22.6881 1.66781 22.737C4.4173 22.8815 9.97851 23.4098 13.8219 25.3454C14.4119 25.6426 15.1114 25.2376 15.1114 24.5976V4.36838C15.1114 4.07449 14.9658 3.80504 14.7075 3.6467Z" fill="#0165E1" /></svg>