<svg width="32" height="32" viewBox="0 0 32 32" fill="none" xmlns="http://www.w3.org/2000/svg">
 <path  d= "M16 0C7.16129 0 0 7.16129 0 16C0 24.8387 7.16129 32 16 32C24.8387 32 32 24.8387 32 16C32 7.16129 24.8387 0 16 0ZM7.74194 11.871C6.6 11.871 5.67742 10.9484 5.67742 9.80645C5.67742 8.66452 6.6 7.74194 7.74194 7.74194C8.88387 7.74194 9.80645 8.66452 9.80645 9.80645C9.80645 10.9484 8.88387 11.871 7.74194 11.871ZM11.871 5.67742C11.871 4.53548 12.7935 3.6129 13.9355 3.6129C15.0774 3.6129 16 4.53548 16 5.67742C16 6.81936 15.0774 7.74194 13.9355 7.74194C12.7935 7.74194 11.871 6.81936 11.871 5.67742ZM14.9677 14.9677C13.8258 14.9677 12.9032 14.0452 12.9032 12.9032C12.9032 11.7613 13.8258 10.8387 14.9677 10.8387C16.1097 10.8387 17.0323 11.7613 17.0323 12.9032C17.0323 14.0452 16.1097 14.9677 14.9677 14.9677Z" fill="#0165E1" /></svg>