<svg width="32" height="24" viewBox="0 0 32 24" fill="none" xmlns="http://www.w3.org/2000/svg">
 <path  d= "M2.66195 1.25223L0.0871108 6.39191C-0.142875 6.85188 0.10211 7.40185 0.592079 7.54184L10.4865 10.3667C10.8414 10.4667 11.2214 10.3167 11.4114 10.0017L16.0011 2.40216L3.4919 0.807263C3.14692 0.767265 2.81694 0.942254 2.66195 1.25223ZM31.9151 6.39191L29.3403 1.25223C29.1853 0.942254 28.8503 0.762266 28.5053 0.807263L16.0011 2.40216L20.5858 10.0067C20.7758 10.3217 21.1558 10.4717 21.5108 10.3717L31.4051 7.54684C31.9001 7.40185 32.1401 6.85188 31.9151 6.39191ZM21.2858 12.0016C20.4408 12.0016 19.6459 11.5516 19.2159 10.8316L16.0011 5.50197L12.7913 10.8316C12.3563 11.5566 11.5614 12.0066 10.7164 12.0066C10.4915 12.0066 10.2665 11.9766 10.0515 11.9116L3.20191 9.95169V18.8511C3.20191 19.5861 3.70188 20.226 4.41184 20.401L15.2212 23.1059C15.7311 23.2309 16.2661 23.2309 16.7711 23.1059L27.5904 20.401C28.3003 20.221 28.8003 19.5811 28.8003 18.8511V9.95169L21.9507 11.9066C21.7357 11.9716 21.5108 12.0016 21.2858 12.0016Z" fill="#0165E1" /></svg>