<svg width="32" height="30" viewBox="0 0 32 30" fill="none" xmlns="http://www.w3.org/2000/svg">
 <path  d= "M31.1111 16.7778H26.6667V22.1112L24.8889 20.9278L23.1111 22.1112V16.7778H18.6667C18.1778 16.7778 17.7778 17.1778 17.7778 17.6667V28.3334C17.7778 28.8223 18.1778 29.2223 18.6667 29.2223H31.1111C31.6 29.2223 32 28.8223 32 28.3334V17.6667C32 17.1778 31.6 16.7778 31.1111 16.7778ZM9.77778 13.2223H22.2222C22.7111 13.2223 23.1111 12.8223 23.1111 12.3334V1.66672C23.1111 1.17783 22.7111 0.777832 22.2222 0.777832H17.7778V6.11117L16 4.92783L14.2222 6.11117V0.777832H9.77778C9.28889 0.777832 8.88889 1.17783 8.88889 1.66672V12.3334C8.88889 12.8223 9.28889 13.2223 9.77778 13.2223ZM13.3333 16.7778H8.88889V22.1112L7.11111 20.9278L5.33333 22.1112V16.7778H0.888889C0.4 16.7778 0 17.1778 0 17.6667V28.3334C0 28.8223 0.4 29.2223 0.888889 29.2223H13.3333C13.8222 29.2223 14.2222 28.8223 14.2222 28.3334V17.6667C14.2222 17.1778 13.8222 16.7778 13.3333 16.7778Z" fill="#0165E1" /></svg>