<svg width="32" height="22" viewBox="0 0 32 22" fill="none" xmlns="http://www.w3.org/2000/svg">
 <path  d= "M6.4 11.8C6.4 13.5673 4.9673 15 3.2 15C1.4327 15 0 13.5673 0 11.8C0 10.0327 1.4327 8.59998 3.2 8.59998C4.9673 8.59998 6.4 10.0327 6.4 11.8ZM3.2 18.2C2.31635 18.2 1.6 18.9163 1.6 19.8C1.6 20.6836 2.31635 21.4 3.2 21.4C4.08365 21.4 4.8 20.6836 4.8 19.8C4.8 18.9163 4.08365 18.2 3.2 18.2ZM3.2 0.599976C1.4327 0.599976 0 2.03268 0 3.79998C0 5.56728 1.4327 6.99998 3.2 6.99998C4.9673 6.99998 6.4 5.56728 6.4 3.79998C6.4 2.03268 4.9673 0.599976 3.2 0.599976ZM11.2 10.2C10.3163 10.2 9.6 10.9163 9.6 11.8C9.6 12.6836 10.3163 13.4 11.2 13.4C12.0836 13.4 12.8 12.6836 12.8 11.8C12.8 10.9163 12.0836 10.2 11.2 10.2ZM11.2 18.2C10.3163 18.2 9.6 18.9163 9.6 19.8C9.6 20.6836 10.3163 21.4 11.2 21.4C12.0836 21.4 12.8 20.6836 12.8 19.8C12.8 18.9163 12.0836 18.2 11.2 18.2ZM11.2 0.599976C9.4327 0.599976 8 2.03268 8 3.79998C8 5.56728 9.4327 6.99998 11.2 6.99998C12.9673 6.99998 14.4 5.56728 14.4 3.79998C14.4 2.03268 12.9673 0.599976 11.2 0.599976ZM22.4 10.2C21.5163 10.2 20.8 10.9163 20.8 11.8C20.8 12.6836 21.5163 13.4 22.4 13.4C23.2836 13.4 24 12.6836 24 11.8C24 10.9163 23.2836 10.2 22.4 10.2ZM22.4 18.2C21.5163 18.2 20.8 18.9163 20.8 19.8C20.8 20.6836 21.5163 21.4 22.4 21.4C23.2836 21.4 24 20.6836 24 19.8C24 18.9163 23.2836 18.2 22.4 18.2ZM22.4 0.599976C20.6327 0.599976 19.2 2.03268 19.2 3.79998C19.2 5.56728 20.6327 6.99998 22.4 6.99998C24.1673 6.99998 25.6 5.56728 25.6 3.79998C25.6 2.03268 24.1673 0.599976 22.4 0.599976ZM30.4 10.2C29.5163 10.2 28.8 10.9163 28.8 11.8C28.8 12.6836 29.5163 13.4 30.4 13.4C31.2836 13.4 32 12.6836 32 11.8C32 10.9163 31.2836 10.2 30.4 10.2ZM30.4 18.2C29.5163 18.2 28.8 18.9163 28.8 19.8C28.8 20.6836 29.5163 21.4 30.4 21.4C31.2836 21.4 32 20.6836 32 19.8C32 18.9163 31.2836 18.2 30.4 18.2ZM30.4 2.19998C29.5163 2.19998 28.8 2.91633 28.8 3.79998C28.8 4.68363 29.5163 5.39998 30.4 5.39998C31.2836 5.39998 32 4.68363 32 3.79998C32 2.91633 31.2836 2.19998 30.4 2.19998Z" fill="#0165E1" /></svg>