<svg width="32" height="30" viewBox="0 0 32 30" fill="none" xmlns="http://www.w3.org/2000/svg">
 <path  d= "M29 6H24V3C24 1.34375 22.6562 0 21 0H11C9.34375 0 8 1.34375 8 3V6H3C1.34375 6 0 7.34375 0 9V27C0 28.6562 1.34375 30 3 30H29C30.6562 30 32 28.6562 32 27V9C32 7.34375 30.6562 6 29 6ZM12 4H20V6H12V4ZM22 19.5C22 19.775 21.775 20 21.5 20H18V23.5C18 23.775 17.775 24 17.5 24H14.5C14.225 24 14 23.775 14 23.5V20H10.5C10.225 20 10 19.775 10 19.5V16.5C10 16.225 10.225 16 10.5 16H14V12.5C14 12.225 14.225 12 14.5 12H17.5C17.775 12 18 12.225 18 12.5V16H21.5C21.775 16 22 16.225 22 16.5V19.5Z" fill="#0165E1" /></svg>