<svg width="32" height="26" viewBox="0 0 32 26" fill="none" xmlns="http://www.w3.org/2000/svg">
 <path  d= "M7.547 9.80007H9.2335C9.784 9.80007 10.164 9.25857 9.9765 8.74107C9.73 8.06207 9.599 7.34207 9.599 6.60007C9.599 5.85807 9.73 5.13807 9.9765 4.45907C10.1645 3.94157 9.784 3.40007 9.2335 3.40007H7.547C7.1965 3.40007 6.874 3.62457 6.7765 3.96157C6.532 4.81057 6.4 5.69407 6.4 6.60007C6.4 7.50607 6.532 8.38957 6.777 9.23807C6.874 9.57507 7.1965 9.80007 7.547 9.80007ZM4.496 1.36707C4.778 0.836073 4.3985 0.200073 3.798 0.200073H2.0315C1.718 0.200073 1.4245 0.379573 1.2945 0.665573C0.47 2.47707 0 4.48257 0 6.60007C0 7.83757 0.156 10.0166 1.3345 12.5431C1.4655 12.8246 1.7555 13.0001 2.065 13.0001H3.807C4.408 13.0001 4.7875 12.3631 4.5045 11.8316C2.0155 7.16557 3.669 2.92407 4.496 1.36707ZM30.703 0.664573C30.573 0.379073 30.28 0.200073 29.9665 0.200073H28.1955C27.5965 0.200073 27.2125 0.833073 27.4945 1.36257C28.408 3.07707 29.9155 7.33357 27.5085 11.8241C27.2225 12.3581 27.5985 13.0001 28.204 13.0001H29.9655C30.279 13.0001 30.572 12.8211 30.702 12.5356C31.5285 10.7241 32 8.71807 32 6.60007C32 4.48207 31.529 2.47607 30.703 0.664573ZM24.453 3.40007H22.7665C22.216 3.40007 21.836 3.94157 22.0235 4.45907C22.27 5.13807 22.401 5.85807 22.401 6.60007C22.401 7.34207 22.27 8.06207 22.0235 8.74107C21.8355 9.25857 22.216 9.80007 22.7665 9.80007H24.453C24.804 9.80007 25.126 9.57557 25.2235 9.23807C25.4685 8.38957 25.6 7.50607 25.6 6.60007C25.6 5.69407 25.468 4.81057 25.223 3.96207C25.126 3.62457 24.8035 3.40007 24.453 3.40007ZM18.638 8.40607C18.9905 7.89157 19.198 7.27057 19.198 6.60007C19.198 4.83257 17.7665 3.40007 16 3.40007C14.234 3.40007 12.802 4.83257 12.802 6.60007C12.802 7.27057 13.0095 7.89157 13.362 8.40607L6.837 24.0766C6.667 24.4841 6.86 24.9526 7.2675 25.1226L8.743 25.7381C9.1505 25.9081 9.619 25.7151 9.7885 25.3076L12.248 19.4001H19.7515L22.2115 25.3076C22.3815 25.7156 22.8495 25.9081 23.257 25.7381L24.7325 25.1226C25.14 24.9526 25.3325 24.4841 25.163 24.0766L18.638 8.40607ZM13.581 16.2001L16 10.3906L18.419 16.2001H13.581Z" fill="#0165E1" /></svg>