<svg width="32" height="32" viewBox="0 0 32 32" fill="none" xmlns="http://www.w3.org/2000/svg">
 <path  d= "M0.678111 15.4486C-0.0405007 15.736 -0.227964 16.6671 0.315681 17.2107L3.74002 20.6351L8.31414 19.1104L6.78943 23.6845L14.7879 31.6829C15.3378 32.2328 16.2626 32.0391 16.55 31.3205L22.6801 16.0922L15.9064 9.31851L0.678111 15.4486ZM31.7034 1.70748L30.2911 0.295256C29.9037 -0.0984185 29.2663 -0.0984185 28.8789 0.295256L22.4864 6.68152L19.9619 4.15701C19.6994 3.88831 19.2495 3.96955 19.0933 4.31323L17.3936 7.97502L24.0236 14.605L27.6854 12.9053C28.0228 12.7491 28.1041 12.2992 27.8416 12.0367L25.3171 9.51223L31.7034 3.11971C32.097 2.73229 32.097 2.10116 31.7034 1.70748Z" fill="#0165E1" /></svg>