<svg width="32" height="32" viewBox="0 0 32 32" fill="none" xmlns="http://www.w3.org/2000/svg">
 <path  d= "M31.9992 18.0563C31.9694 19.1456 31.0482 20 29.9584 20H26.5V21C26.5 22.3665 26.1948 23.6615 25.65 24.8216L29.4142 28.5858C30.1952 29.3669 30.1952 30.6332 29.4142 31.4143C28.6331 32.1953 27.3668 32.1953 26.5857 31.4143L23.1647 27.9933C21.6178 29.2478 19.6469 30 17.5 30V14.75C17.5 14.3358 17.1642 14 16.75 14H15.25C14.8358 14 14.5 14.3358 14.5 14.75V30C12.353 30 10.3821 29.2478 8.83522 27.9933L5.41421 31.4143C4.63309 32.1953 3.36678 32.1953 2.58571 31.4143C1.80471 30.6332 1.80471 29.3669 2.58571 28.5858L6.34997 24.8216C5.80509 23.6615 5.49996 22.3665 5.49996 21V20H2.04159C0.951838 20 0.0306498 19.1456 0.000774748 18.0563C-0.0302878 16.926 0.876713 16 1.99996 16H5.49996V12.3284L2.58571 9.41419C1.80471 8.63313 1.80471 7.36682 2.58571 6.58575C3.36684 5.80469 4.63309 5.80469 5.41421 6.58575L8.8284 10H23.1715L26.5857 6.58582C27.3668 5.80475 28.633 5.80475 29.4142 6.58582C30.1952 7.36688 30.1952 8.63319 29.4142 9.41426L26.5 12.3284V16H30C31.1232 16 32.0302 16.926 31.9992 18.0563ZM16.0625 0C12.1965 0 9.06247 3.134 9.06247 7H23.0625C23.0625 3.134 19.9285 0 16.0625 0Z" fill="#0165E1" /></svg>