<svg width="28" height="32" viewBox="0 0 28 32" fill="none" xmlns="http://www.w3.org/2000/svg">
 <path  d= "M27.25 30H26V1.5C26 0.671562 25.3284 0 24.5 0H3.5C2.67156 0 2 0.671562 2 1.5V30H0.75C0.335813 30 0 30.3358 0 30.75V32H28V30.75C28 30.3358 27.6642 30 27.25 30ZM8 4.75C8 4.33581 8.33581 4 8.75 4H11.25C11.6642 4 12 4.33581 12 4.75V7.25C12 7.66419 11.6642 8 11.25 8H8.75C8.33581 8 8 7.66419 8 7.25V4.75ZM8 10.75C8 10.3358 8.33581 10 8.75 10H11.25C11.6642 10 12 10.3358 12 10.75V13.25C12 13.6642 11.6642 14 11.25 14H8.75C8.33581 14 8 13.6642 8 13.25V10.75ZM11.25 20H8.75C8.33581 20 8 19.6642 8 19.25V16.75C8 16.3358 8.33581 16 8.75 16H11.25C11.6642 16 12 16.3358 12 16.75V19.25C12 19.6642 11.6642 20 11.25 20ZM16 30H12V24.75C12 24.3358 12.3358 24 12.75 24H15.25C15.6642 24 16 24.3358 16 24.75V30ZM20 19.25C20 19.6642 19.6642 20 19.25 20H16.75C16.3358 20 16 19.6642 16 19.25V16.75C16 16.3358 16.3358 16 16.75 16H19.25C19.6642 16 20 16.3358 20 16.75V19.25ZM20 13.25C20 13.6642 19.6642 14 19.25 14H16.75C16.3358 14 16 13.6642 16 13.25V10.75C16 10.3358 16.3358 10 16.75 10H19.25C19.6642 10 20 10.3358 20 10.75V13.25ZM20 7.25C20 7.66419 19.6642 8 19.25 8H16.75C16.3358 8 16 7.66419 16 7.25V4.75C16 4.33581 16.3358 4 16.75 4H19.25C19.6642 4 20 4.33581 20 4.75V7.25Z" fill="#0165E1" /></svg>