<svg width="32" height="32" viewBox="0 0 32 32" fill="none" xmlns="http://www.w3.org/2000/svg">
 <path  d= "M16 4.12903C22.5606 4.12903 27.871 9.43839 27.871 16C27.871 22.5606 22.5616 27.871 16 27.871C9.43942 27.871 4.12903 22.5616 4.12903 16C4.12903 9.43942 9.43839 4.12903 16 4.12903ZM16 0C7.16342 0 0 7.16342 0 16C0 24.8366 7.16342 32 16 32C24.8366 32 32 24.8366 32 16C32 7.16342 24.8366 0 16 0ZM16 11.871C18.2768 11.871 20.129 13.7232 20.129 16C20.129 18.2768 18.2768 20.129 16 20.129C13.7232 20.129 11.871 18.2768 11.871 16C11.871 13.7232 13.7232 11.871 16 11.871ZM16 7.74194C11.4392 7.74194 7.74194 11.4392 7.74194 16C7.74194 20.5608 11.4392 24.2581 16 24.2581C20.5608 24.2581 24.2581 20.5608 24.2581 16C24.2581 11.4392 20.5608 7.74194 16 7.74194Z" fill="#0165E1" /></svg>