<svg width="32" height="30" viewBox="0 0 32 30" fill="none" xmlns="http://www.w3.org/2000/svg">
 <path  d= "M32 13.2223C32 12.0614 31.2578 11.0742 30.2222 10.7079V4.33339C30.2222 2.36972 28.6303 0.777832 26.6667 0.777832C23.0564 3.88894 18.7761 7.88894 11.5556 7.88894H2.66667C1.19389 7.88894 0 9.08283 0 10.5556V15.8889C0 17.3617 1.19389 18.5556 2.66667 18.5556H5.07017C4.02894 22.1473 5.20789 25.0211 6.11539 27.8578C6.20994 28.1534 6.40444 28.4074 6.66661 28.5734C7.82106 29.3042 10.4641 29.4432 11.8762 28.8596C12.7677 28.4911 12.9851 27.3361 12.2941 26.6631C11.2659 25.6616 10.6199 24.6125 11.1944 23.2821C11.2395 23.1777 11.2579 23.0637 11.2477 22.9504C11.2376 22.8372 11.1993 22.7282 11.1363 22.6336C10.2303 21.2625 10.9374 19.1832 12.7206 18.5918C19.2446 18.9938 23.2551 22.7268 26.6667 25.6667C28.6303 25.6667 30.2222 24.0748 30.2222 22.1112V15.7366C31.2578 15.3704 32 14.3832 32 13.2223ZM26.6667 20.992C23.6328 18.4932 19.7204 15.8287 14.2222 15.1597V11.2848C19.7204 10.6158 23.6328 7.95139 26.6667 5.4525V20.992Z" fill="#0165E1" /></svg>