<svg width="32" height="32" viewBox="0 0 32 32" fill="none" xmlns="http://www.w3.org/2000/svg">
 <path  d= "M30.5 8H30V5C30 2.2 23.8 0 16 0C8.2 0 2 2.2 2 5V8H1.5C0.671875 8 0 8.67125 0 9.5V14.5C0 15.3281 0.671875 16 1.5 16H2V26C2 27.1044 2.89563 28 4 28V30C4 31.1044 4.89563 32 6 32H8C9.10437 32 10 31.1044 10 30V28H22V30C22 31.1044 22.8956 32 24 32H26C27.1044 32 28 31.1044 28 30V28H28.4C29.4 28 30 27.2 30 26.4V16H30.5C31.3281 16 32 15.3281 32 14.5V9.5C32 8.67125 31.3281 8 30.5 8ZM10 4.5C10 4.22375 10.2238 4 10.5 4H21.5C21.7763 4 22 4.22375 22 4.5V5.5C22 5.77625 21.7763 6 21.5 6H10.5C10.2238 6 10 5.77625 10 5.5V4.5ZM7 25C5.89563 25 5 24.1044 5 23C5 21.8956 5.89563 21 7 21C8.10437 21 9 21.8956 9 23C9 24.1044 8.10437 25 7 25ZM15 18H8C6.89563 18 6 17.1044 6 16V10C6 8.89563 6.89563 8 8 8H15V18ZM17 18V8H24C25.1044 8 26 8.89563 26 10V16C26 17.1044 25.1044 18 24 18H17ZM25 25C23.8956 25 23 24.1044 23 23C23 21.8956 23.8956 21 25 21C26.1044 21 27 21.8956 27 23C27 24.1044 26.1044 25 25 25Z" fill="#0165E1" /></svg>