<svg width="28" height="32" viewBox="0 0 28 32" fill="none" xmlns="http://www.w3.org/2000/svg">
 <path  d= "M0 29V3C0 1.34312 1.34312 0 3 0H25C26.6569 0 28 1.34312 28 3V29C28 30.6569 26.6569 32 25 32H3C1.34312 32 0 30.6569 0 29ZM24 11.25V4.75C24 4.33581 23.6642 4 23.25 4H4.75C4.33581 4 4 4.33581 4 4.75V11.25C4 11.6642 4.33581 12 4.75 12H23.25C23.6642 12 24 11.6642 24 11.25ZM8 19.25V16.75C8 16.3358 7.66419 16 7.25 16H4.75C4.33581 16 4 16.3358 4 16.75V19.25C4 19.6642 4.33581 20 4.75 20H7.25C7.66419 20 8 19.6642 8 19.25ZM24 27.25V16.75C24 16.3358 23.6642 16 23.25 16H20.75C20.3358 16 20 16.3358 20 16.75V27.25C20 27.6642 20.3358 28 20.75 28H23.25C23.6642 28 24 27.6642 24 27.25ZM8 27.25V24.75C8 24.3358 7.66419 24 7.25 24H4.75C4.33581 24 4 24.3358 4 24.75V27.25C4 27.6642 4.33581 28 4.75 28H7.25C7.66419 28 8 27.6642 8 27.25ZM16 19.25V16.75C16 16.3358 15.6642 16 15.25 16H12.75C12.3358 16 12 16.3358 12 16.75V19.25C12 19.6642 12.3358 20 12.75 20H15.25C15.6642 20 16 19.6642 16 19.25ZM16 27.25V24.75C16 24.3358 15.6642 24 15.25 24H12.75C12.3358 24 12 24.3358 12 24.75V27.25C12 27.6642 12.3358 28 12.75 28H15.25C15.6642 28 16 27.6642 16 27.25Z" fill="#0165E1" /></svg>