<svg width="28" height="32" viewBox="0 0 28 32" fill="none" xmlns="http://www.w3.org/2000/svg">
 <path  d= "M27.25 10H0.75C0.3375 10 0 9.6625 0 9.25V7C0 5.34375 1.34375 4 3 4H6V0.75C6 0.3375 6.3375 0 6.75 0H9.25C9.6625 0 10 0.3375 10 0.75V4H18V0.75C18 0.3375 18.3375 0 18.75 0H21.25C21.6625 0 22 0.3375 22 0.75V4H25C26.6562 4 28 5.34375 28 7V9.25C28 9.6625 27.6625 10 27.25 10ZM0.75 12H27.25C27.6625 12 28 12.3375 28 12.75V29C28 30.6562 26.6562 32 25 32H3C1.34375 32 0 30.6562 0 29V12.75C0 12.3375 0.3375 12 0.75 12ZM20.5 20.75C20.5 20.3375 20.1625 20 19.75 20H16V16.25C16 15.8375 15.6625 15.5 15.25 15.5H12.75C12.3375 15.5 12 15.8375 12 16.25V20H8.25C7.8375 20 7.5 20.3375 7.5 20.75V23.25C7.5 23.6625 7.8375 24 8.25 24H12V27.75C12 28.1625 12.3375 28.5 12.75 28.5H15.25C15.6625 28.5 16 28.1625 16 27.75V24H19.75C20.1625 24 20.5 23.6625 20.5 23.25V20.75Z" fill="#0165E1" /></svg>