<svg width="28" height="32" viewBox="0 0 28 32" fill="none" xmlns="http://www.w3.org/2000/svg">
 <path  d= "M27.25 10H0.75C0.3375 10 0 9.6625 0 9.25V7C0 5.34375 1.34375 4 3 4H6V0.75C6 0.3375 6.3375 0 6.75 0H9.25C9.6625 0 10 0.3375 10 0.75V4H18V0.75C18 0.3375 18.3375 0 18.75 0H21.25C21.6625 0 22 0.3375 22 0.75V4H25C26.6562 4 28 5.34375 28 7V9.25C28 9.6625 27.6625 10 27.25 10ZM0.75 12H27.25C27.6625 12 28 12.3375 28 12.75V29C28 30.6562 26.6562 32 25 32H3C1.34375 32 0 30.6562 0 29V12.75C0 12.3375 0.3375 12 0.75 12ZM16.8312 22L19.8375 18.9937C20.1313 18.7 20.1313 18.225 19.8375 17.9312L18.0688 16.1625C17.775 15.8688 17.3 15.8688 17.0063 16.1625L14 19.1688L10.9937 16.1625C10.7 15.8688 10.225 15.8688 9.93125 16.1625L8.1625 17.9312C7.86875 18.225 7.86875 18.7 8.1625 18.9937L11.1687 22L8.1625 25.0063C7.86875 25.3 7.86875 25.775 8.1625 26.0688L9.93125 27.8375C10.225 28.1313 10.7 28.1313 10.9937 27.8375L14 24.8312L17.0063 27.8375C17.3 28.1313 17.775 28.1313 18.0688 27.8375L19.8375 26.0688C20.1313 25.775 20.1313 25.3 19.8375 25.0063L16.8312 22Z" fill="#0165E1" /></svg>