<svg width="28" height="32" viewBox="0 0 28 32" fill="none" xmlns="http://www.w3.org/2000/svg">
 <path  d= "M27.25 10H0.75C0.3375 10 0 9.6625 0 9.25V7C0 5.34375 1.34375 4 3 4H6V0.75C6 0.3375 6.3375 0 6.75 0H9.25C9.6625 0 10 0.3375 10 0.75V4H18V0.75C18 0.3375 18.3375 0 18.75 0H21.25C21.6625 0 22 0.3375 22 0.75V4H25C26.6562 4 28 5.34375 28 7V9.25C28 9.6625 27.6625 10 27.25 10ZM0.75 12H27.25C27.6625 12 28 12.3375 28 12.75V29C28 30.6562 26.6562 32 25 32H3C1.34375 32 0 30.6562 0 29V12.75C0 12.3375 0.3375 12 0.75 12ZM8 24.75C8 24.3375 7.6625 24 7.25 24H4.75C4.3375 24 4 24.3375 4 24.75V27.25C4 27.6625 4.3375 28 4.75 28H7.25C7.6625 28 8 27.6625 8 27.25V24.75ZM8 16.75C8 16.3375 7.6625 16 7.25 16H4.75C4.3375 16 4 16.3375 4 16.75V19.25C4 19.6625 4.3375 20 4.75 20H7.25C7.6625 20 8 19.6625 8 19.25V16.75ZM16 24.75C16 24.3375 15.6625 24 15.25 24H12.75C12.3375 24 12 24.3375 12 24.75V27.25C12 27.6625 12.3375 28 12.75 28H15.25C15.6625 28 16 27.6625 16 27.25V24.75ZM16 16.75C16 16.3375 15.6625 16 15.25 16H12.75C12.3375 16 12 16.3375 12 16.75V19.25C12 19.6625 12.3375 20 12.75 20H15.25C15.6625 20 16 19.6625 16 19.25V16.75ZM24 24.75C24 24.3375 23.6625 24 23.25 24H20.75C20.3375 24 20 24.3375 20 24.75V27.25C20 27.6625 20.3375 28 20.75 28H23.25C23.6625 28 24 27.6625 24 27.25V24.75ZM24 16.75C24 16.3375 23.6625 16 23.25 16H20.75C20.3375 16 20 16.3375 20 16.75V19.25C20 19.6625 20.3375 20 20.75 20H23.25C23.6625 20 24 19.6625 24 19.25V16.75Z" fill="#0165E1" /></svg>