<svg width="28" height="32" viewBox="0 0 28 32" fill="none" xmlns="http://www.w3.org/2000/svg">
 <path  d= "M27.25 10H0.75C0.335813 10 0 9.66419 0 9.25V7C0 5.34312 1.34312 4 3 4H6V0.75C6 0.335813 6.33581 0 6.75 0H9.25C9.66419 0 10 0.335813 10 0.75V4H18V0.75C18 0.335813 18.3358 0 18.75 0H21.25C21.6642 0 22 0.335813 22 0.75V4H25C26.6569 4 28 5.34312 28 7V9.25C28 9.66419 27.6642 10 27.25 10ZM0.75 12H27.25C27.6642 12 28 12.3358 28 12.75V29C28 30.6569 26.6569 32 25 32H3C1.34312 32 0 30.6569 0 29V12.75C0 12.3358 0.335813 12 0.75 12ZM21.581 17.9967L19.8204 16.2218C19.5288 15.9278 19.0539 15.9258 18.7598 16.2176L12.1325 22.7916L9.25875 19.8946C8.96706 19.6005 8.49213 19.5986 8.19806 19.8903L6.42325 21.6509C6.12919 21.9426 6.12725 22.4175 6.419 22.7116L11.5816 27.9159C11.8732 28.2099 12.3481 28.2119 12.6422 27.9201L21.5767 19.0573C21.8708 18.7656 21.8727 18.2907 21.581 17.9967Z" fill="#0165E1" /></svg>