<svg width="32" height="28" viewBox="0 0 32 28" fill="none" xmlns="http://www.w3.org/2000/svg">
 <path  d= "M3 0C1.34375 0 0 1.34375 0 3V25C0 26.6562 1.34375 28 3 28H29C30.6562 28 32 26.6562 32 25V3C32 1.34375 30.6562 0 29 0H3ZM3 2H9.625C9.83125 2 10 2.16875 10 2.375V3.625C10 3.83125 9.83125 4 9.625 4H2.375C2.16875 4 2 3.83125 2 3.625V3C2 2.45 2.45 2 3 2ZM29.625 8H2.375C2.16875 8 2 7.83125 2 7.625V5.375C2 5.16875 2.16875 5 2.375 5H11L12.8875 2.16875C12.9563 2.0625 13.075 2 13.2 2H29C29.55 2 30 2.45 30 3V7.625C30 7.83125 29.8312 8 29.625 8ZM16 24.5C11.8625 24.5 8.5 21.1375 8.5 17C8.5 12.8625 11.8625 9.5 16 9.5C20.1375 9.5 23.5 12.8625 23.5 17C23.5 21.1375 20.1375 24.5 16 24.5ZM16 11.5C12.9688 11.5 10.5 13.9688 10.5 17C10.5 20.0312 12.9688 22.5 16 22.5C19.0312 22.5 21.5 20.0312 21.5 17C21.5 13.9688 19.0312 11.5 16 11.5ZM13 18C12.45 18 12 17.55 12 17C12 14.7937 13.7937 13 16 13C16.55 13 17 13.45 17 14C17 14.55 16.55 15 16 15C14.9 15 14 15.9 14 17C14 17.55 13.55 18 13 18Z" fill="#0165E1" /></svg>