<svg width="32" height="32" viewBox="0 0 32 32" fill="none" xmlns="http://www.w3.org/2000/svg">
 <path  d= "M31.4669 22.5156C31.3694 22.4644 29.4425 21.46 26.6681 20.9025C30.6838 16.2075 31.9212 10.7982 31.9762 10.5501C32.05 10.2169 31.9487 9.86882 31.7075 9.62695C31.5181 9.43695 31.2625 9.3332 31 9.3332C30.9288 9.3332 30.8569 9.3407 30.785 9.35695C30.5425 9.41008 25.3763 10.5813 20.7488 14.3419C20.7494 14.2507 20.7494 14.1588 20.7494 14.0669C20.7494 6.64259 17.0007 0.709494 16.8413 0.460745C16.751 0.319516 16.6267 0.203293 16.4796 0.122792C16.3326 0.0422906 16.1677 0.000103957 16.0001 0.000122076C15.6595 0.000122076 15.342 0.173871 15.1582 0.460745C14.9988 0.709494 11.2501 6.64259 11.2501 14.0669C11.2501 14.1588 11.2507 14.2507 11.2507 14.3419C6.62387 10.5819 1.45765 9.4107 1.21452 9.35695C1.14327 9.34133 1.0714 9.3332 0.999524 9.3332C0.737026 9.3332 0.481402 9.43695 0.292028 9.62695C0.17332 9.74586 0.0865185 9.89279 0.0396526 10.0541C-0.00721336 10.2155 -0.0126298 10.3861 0.0239042 10.5501C0.078904 10.7982 1.3164 16.2075 5.332 20.9025C2.55764 21.46 0.631401 22.4644 0.533277 22.5156C0.372492 22.6006 0.237902 22.7277 0.143982 22.8834C0.0500618 23.0391 0.000364871 23.2175 0.00023632 23.3993C0.000107769 23.5812 0.0495525 23.7596 0.143253 23.9154C0.236953 24.0713 0.371363 24.1986 0.532027 24.2838C0.685151 24.3644 4.32951 26.2662 8.87511 26.2662C9.25886 26.2662 9.62261 26.26 9.96886 26.2469C9.25823 27.6362 8.93636 28.6412 8.91824 28.6981C8.80574 29.0531 8.90011 29.4412 9.16261 29.705C9.2916 29.8344 9.45357 29.9261 9.63094 29.97C9.80832 30.014 9.99434 30.0086 10.1689 29.9543C10.2832 29.9187 12.5263 29.205 15.0001 27.4987V31.5C15.0001 31.7762 15.2238 32 15.5001 32H16.5001C16.7763 32 17.0001 31.7762 17.0001 31.5V27.4994C19.4738 29.2056 21.7169 29.9187 21.8313 29.955C22.0058 30.0092 22.1918 30.0146 22.3692 29.9707C22.5466 29.9267 22.7085 29.835 22.8375 29.7056C23.1 29.4419 23.1944 29.0537 23.0819 28.6987C23.0638 28.6419 22.7413 27.6369 22.0313 26.2475C22.3775 26.2606 22.7419 26.2669 23.125 26.2669C27.67 26.2669 31.315 24.365 31.4681 24.2844C31.7956 24.1106 32.0006 23.7706 32 23.4C31.9994 23.0288 31.7944 22.6881 31.4669 22.5156Z" fill="#0165E1" /></svg>