<svg width="32" height="26" viewBox="0 0 32 26" fill="none" xmlns="http://www.w3.org/2000/svg">
 <path  d= "M30.8501 15.45L23.5668 5.04445C22.3279 3.27778 20.3556 2.33333 18.3556 2.33333C17.1001 2.33333 15.8278 2.70555 14.7167 3.48333C13.6223 4.25 12.8445 5.30556 12.4112 6.47223C12.25 3.17777 9.55559 0.555542 6.22225 0.555542C2.78334 0.555542 0 3.33889 0 6.77779V19.2223C0 22.6612 2.78334 25.4445 6.22225 25.4445C9.66115 25.4445 12.4445 22.6612 12.4445 19.2223V10.9389C12.6278 11.4167 12.8501 11.8889 13.1556 12.3278L20.4445 22.7334C21.6779 24.5001 23.6501 25.4445 25.6557 25.4445C26.9168 25.4445 28.1834 25.0723 29.2946 24.2945C32.1668 22.2834 32.8612 18.3223 30.8501 15.45ZM8.88892 13H3.55557V6.77779C3.55557 5.30556 4.75002 4.11111 6.22225 4.11111C7.69448 4.11111 8.88892 5.30556 8.88892 6.77779V13ZM19.7112 15.4945L16.0667 10.2889C15.639 9.6778 15.4723 8.93335 15.6056 8.20002C15.7334 7.46668 16.1445 6.82223 16.7556 6.39445C17.2278 6.06112 17.7834 5.8889 18.3556 5.8889C19.2723 5.8889 20.1279 6.33334 20.6501 7.08335L24.2945 12.2889L19.7112 15.4945Z" fill="#0165E1" /></svg>