<svg width="32" height="24" viewBox="0 0 32 24" fill="none" xmlns="http://www.w3.org/2000/svg">
 <path  d= "M31.2494 6.5H27.8235L27.3326 5.191C26.7581 3.65894 25.7436 2.35656 24.3988 1.42456C23.0539 0.492563 21.4782 0 19.842 0H12.158C10.5217 0 8.94606 0.492625 7.60125 1.42456C6.25638 2.35656 5.24188 3.65894 4.66738 5.191L4.1765 6.5H0.750562C0.238625 6.5 -0.122813 7.0015 0.039062 7.48719L0.539062 8.98719C0.588842 9.13652 0.684344 9.2664 0.812041 9.35844C0.939737 9.45047 1.09315 9.5 1.25056 9.5H3.0515L3.04825 9.50875C1.82637 10.1933 1 11.4998 1 13V16C1 17.0141 1.37806 17.9393 2 18.6443V22.5C2 23.3284 2.67156 24 3.5 24H6.5C7.32844 24 8 23.3284 8 22.5V20H24V22.5C24 23.3284 24.6716 24 25.5 24H28.5C29.3284 24 30 23.3284 30 22.5V18.6443C30.6219 17.9393 31 17.014 31 16V13C31 11.4998 30.1736 10.1933 28.9518 9.50875L28.9485 9.5H30.7494C30.9068 9.5 31.0603 9.45047 31.188 9.35844C31.3157 9.2664 31.4112 9.13652 31.4609 8.98719L31.9609 7.48719C32.1228 7.0015 31.7614 6.5 31.2494 6.5ZM8.41269 6.5955C8.99487 5.04306 10.5 4 12.158 4H19.842C21.5 4 23.0051 5.04306 23.5873 6.5955L24.489 9H7.511L8.41269 6.5955ZM5.5 16.5C4.39544 16.5 3.5 15.6046 3.5 14.5C3.5 13.3954 4.39544 12.5 5.5 12.5C6.60456 12.5 8.5 14.3954 8.5 15.5C8.5 16.6046 6.60456 16.5 5.5 16.5ZM26.5 16.5C25.3954 16.5 23.5 16.6046 23.5 15.5C23.5 14.3954 25.3954 12.5 26.5 12.5C27.6046 12.5 28.5 13.3954 28.5 14.5C28.5 15.6046 27.6046 16.5 26.5 16.5Z" fill="#0165E1" /></svg>