<svg width="32" height="30" viewBox="0 0 32 30" fill="none" xmlns="http://www.w3.org/2000/svg">
 <path  d= "M28.0398 18.5556H11.754L12.1176 20.3334H27.0297C27.8853 20.3334 28.5195 21.1279 28.3299 21.9622L28.0234 23.3109C29.0618 23.8149 29.7778 24.8794 29.7778 26.1112C29.7778 27.8446 28.3601 29.247 26.6209 29.2219C24.9641 29.1981 23.6014 27.8536 23.5567 26.1971C23.5323 25.2923 23.8948 24.4722 24.4902 23.8889H12.8431C13.4196 24.4537 13.7778 25.2404 13.7778 26.1112C13.7778 27.8786 12.304 29.3018 10.5183 29.2188C8.93278 29.1452 7.64328 27.8641 7.55995 26.279C7.49561 25.0549 8.13972 23.9759 9.11834 23.4131L5.21572 4.33339H1.33333C0.596945 4.33339 0 3.73644 0 3.00005V2.11117C0 1.37478 0.596945 0.777832 1.33333 0.777832H7.02939C7.66278 0.777832 8.20872 1.22344 8.33567 1.84394L8.84489 4.33339H30.6661C31.5217 4.33339 32.1559 5.12789 31.9663 5.96222L29.34 17.5178C29.2021 18.1248 28.6624 18.5556 28.0398 18.5556ZM22.6667 10.1112H20V7.88894C20 7.398 19.6021 7.00006 19.1111 7.00006H18.2222C17.7313 7.00006 17.3333 7.398 17.3333 7.88894V10.1112H14.6667C14.1757 10.1112 13.7778 10.5091 13.7778 11.0001V11.8889C13.7778 12.3799 14.1757 12.7778 14.6667 12.7778H17.3333V15.0001C17.3333 15.491 17.7313 15.8889 18.2222 15.8889H19.1111C19.6021 15.8889 20 15.491 20 15.0001V12.7778H22.6667C23.1576 12.7778 23.5556 12.3799 23.5556 11.8889V11.0001C23.5556 10.5091 23.1576 10.1112 22.6667 10.1112Z" fill="#0165E1" /></svg>