<svg width="32" height="30" viewBox="0 0 32 30" fill="none" xmlns="http://www.w3.org/2000/svg">
 <path  d= "M28.0398 18.5556H11.754L12.1176 20.3334H27.0297C27.8853 20.3334 28.5195 21.1279 28.3299 21.9622L28.0234 23.3109C29.0618 23.8149 29.7778 24.8794 29.7778 26.1112C29.7778 27.8446 28.3601 29.247 26.6209 29.2219C24.9641 29.1981 23.6014 27.8536 23.5567 26.1971C23.5323 25.2923 23.8948 24.4722 24.4902 23.8889H12.8431C13.4196 24.4537 13.7778 25.2404 13.7778 26.1112C13.7778 27.8786 12.304 29.3018 10.5183 29.2188C8.93278 29.1452 7.64328 27.8641 7.55995 26.279C7.49561 25.0549 8.13972 23.9759 9.11834 23.4131L5.21572 4.33339H1.33333C0.596945 4.33339 0 3.73644 0 3.00005V2.11117C0 1.37478 0.596945 0.777832 1.33333 0.777832H7.02939C7.66278 0.777832 8.20872 1.22344 8.33567 1.84394L8.84489 4.33339H30.6661C31.5217 4.33339 32.1559 5.12789 31.9663 5.96222L29.34 17.5178C29.2021 18.1248 28.6624 18.5556 28.0398 18.5556ZM22.3905 11.4445H20V8.11117C20 7.743 19.7015 7.4445 19.3333 7.4445H18C17.6318 7.4445 17.3333 7.743 17.3333 8.11117V11.4445H14.9428C14.3489 11.4445 14.0514 12.1626 14.4714 12.5826L18.1953 16.3064C18.4556 16.5667 18.8777 16.5667 19.1381 16.3064L22.8619 12.5826C23.2819 12.1626 22.9844 11.4445 22.3905 11.4445Z" fill="#0165E1" /></svg>