<svg width="32" height="32" viewBox="0 0 32 32" fill="none" xmlns="http://www.w3.org/2000/svg">
 <path  d= "M28.6639 15.9951L31.538 13.1822C32.3948 12.3712 31.9953 10.9298 30.8715 10.6611L26.9559 9.66167L28.0597 5.78573C28.3716 4.67085 27.3204 3.61929 26.2059 3.93129L22.3312 5.03548L21.3322 1.11853C21.0679 0.0123403 19.6104 -0.392223 18.8119 0.451779L16 3.34816L13.1882 0.451841C12.3988 -0.382598 10.9353 -0.000284792 10.6679 1.11859L9.66889 5.03554L5.7942 3.93135C4.67938 3.61922 3.62851 4.67116 3.94038 5.78579L5.0442 9.66174L1.12856 10.6611C0.00431038 10.9299 -0.394378 12.3716 0.461999 13.1822L3.33607 15.9951L0.461999 18.8078C-0.394753 19.6189 0.004748 21.0603 1.1285 21.329L5.04413 22.3284L3.94032 26.2043C3.62838 27.3192 4.67963 28.3708 5.79414 28.0588L9.66877 26.9546L10.6678 30.8715C10.9452 32.0325 12.3988 32.3727 13.1881 31.5383L16 28.6632L18.8119 31.5383C19.5931 32.3813 21.061 32.0062 21.3322 30.8715L22.3312 26.9546L26.2058 28.0588C27.3206 28.3709 28.3715 27.319 28.0596 26.2043L26.9558 22.3284L30.8714 21.329C31.9956 21.0601 32.3943 19.6186 31.5379 18.8078L28.6639 15.9951Z" fill="#0165E1" /></svg>