<svg width="32" height="26" viewBox="0 0 32 26" fill="none" xmlns="http://www.w3.org/2000/svg">
 <path  d= "M10.4001 17.7999C10.2806 17.7999 10.1611 17.8174 10.0471 17.8544C9.39906 18.0649 8.71756 18.1999 8.00006 18.1999C7.28256 18.1999 6.60106 18.0649 5.95257 17.8544C5.83857 17.8174 5.71957 17.7999 5.60007 17.7999C2.49707 17.7999 -0.0164192 20.3239 8.07737e-05 23.4309C0.00708076 24.7439 1.08658 25.7999 2.40007 25.7999H13.6C14.9135 25.7999 15.993 24.7439 16 23.4309C16.0165 20.3239 13.503 17.7999 10.4001 17.7999ZM8.00006 16.1999C10.6511 16.1999 12.8 14.0509 12.8 11.3999C12.8 8.74893 10.6511 6.59994 8.00006 6.59994C5.34907 6.59994 3.20007 8.74893 3.20007 11.3999C3.20007 14.0509 5.34907 16.1999 8.00006 16.1999ZM29.6 0.199951H10.4001C9.07656 0.199951 8.00006 1.31245 8.00006 2.67945V4.99994C9.17106 4.99994 10.2551 5.33894 11.2001 5.88994V3.39994H28.8V17.7999H25.6V14.5999H19.2V17.7999H15.388C16.343 18.6344 17.044 19.7364 17.3725 20.9999H29.6C30.9235 20.9999 32 19.8874 32 18.5204V2.67945C32 1.31245 30.9235 0.199951 29.6 0.199951Z" fill="#0165E1" /></svg>