<svg width="32" height="24" viewBox="0 0 32 24" fill="none" xmlns="http://www.w3.org/2000/svg">
 <path  d= "M31.25 20C31.6625 20 32 20.3375 32 20.75V23.25C32 23.6625 31.6625 24 31.25 24H0.75C0.3375 24 0 23.6625 0 23.25V0.75C0 0.3375 0.3375 0 0.75 0H3.25C3.6625 0 4 0.3375 4 0.75V20H31.25ZM28.5 2H21.5C20.1625 2 19.4937 3.61875 20.4375 4.5625L22.4937 6.61875L17.9937 11.175L14.5188 7.7C14.225 7.40625 13.7562 7.40625 13.4625 7.7L6.025 15.0625C5.73125 15.35 5.725 15.825 6.0125 16.1187L7.79375 17.9562C8.0875 18.2562 8.56875 18.2625 8.8625 17.9625L13.9937 12.8312L17.4625 16.3C17.7563 16.5938 18.2312 16.5938 18.525 16.3L25.35 9.475L27.4375 11.5625C28.3813 12.5063 30 11.8375 30 10.5V3.5C30 2.66875 29.3312 2 28.5 2Z" fill="#0165E1" /></svg>