<svg width="32" height="30" viewBox="0 0 32 30" fill="none" xmlns="http://www.w3.org/2000/svg">
 <path  d= "M16.3198 1.18238V14.0852H29.2227C29.6137 14.0852 29.9197 13.7566 29.9027 13.3656C29.54 6.42965 23.9811 0.865047 17.0395 0.502384C16.6485 0.485385 16.3198 0.791381 16.3198 1.18238ZM31.3193 16.8052C31.7103 16.8052 32.0163 17.1339 31.9993 17.5249C31.8407 20.5395 30.6847 23.5088 28.5314 25.9001C28.2707 26.1891 27.8174 26.2061 27.5397 25.9284L18.4165 16.8052H31.3193ZM22.7231 25.0218C22.9951 25.2938 22.9894 25.7471 22.7004 26.0021C20.2865 28.1781 17.0905 29.4984 13.5885 29.4984C6.09728 29.4927 -0.0113175 23.3671 1.57443e-05 15.8702C0.011349 8.61129 5.71195 2.68969 12.8802 2.3157C13.2712 2.29303 13.5999 2.60469 13.5999 2.99569V15.8985L22.7231 25.0218Z" fill="#0165E1" /></svg>