<svg width="32" height="24" viewBox="0 0 32 24" fill="none" xmlns="http://www.w3.org/2000/svg">
 <path  d= "M31.25 20C31.6625 20 32 20.3375 32 20.75V23.25C32 23.6625 31.6625 24 31.25 24H0.75C0.3375 24 0 23.6625 0 23.25V0.75C0 0.3375 0.3375 0 0.75 0H3.25C3.6625 0 4 0.3375 4 0.75V20H31.25ZM12 17.25V12.75C12 12.3375 11.6625 12 11.25 12H8.75C8.3375 12 8 12.3375 8 12.75V17.25C8 17.6625 8.3375 18 8.75 18H11.25C11.6625 18 12 17.6625 12 17.25ZM24 17.25V8.75C24 8.3375 23.6625 8 23.25 8H20.75C20.3375 8 20 8.3375 20 8.75V17.25C20 17.6625 20.3375 18 20.75 18H23.25C23.6625 18 24 17.6625 24 17.25ZM18 17.25V4.75C18 4.3375 17.6625 4 17.25 4H14.75C14.3375 4 14 4.3375 14 4.75V17.25C14 17.6625 14.3375 18 14.75 18H17.25C17.6625 18 18 17.6625 18 17.25ZM30 17.25V2.75C30 2.3375 29.6625 2 29.25 2H26.75C26.3375 2 26 2.3375 26 2.75V17.25C26 17.6625 26.3375 18 26.75 18H29.25C29.6625 18 30 17.6625 30 17.25Z" fill="#0165E1" /></svg>