<svg width="32" height="32" viewBox="0 0 32 32" fill="none" xmlns="http://www.w3.org/2000/svg">
 <path  d= "M31.5312 10.7467L29.2687 8.47111C28.6437 7.84298 27.6306 7.84298 27.0063 8.47111L12 23.5636L4.99375 16.5174C4.36875 15.8886 3.35563 15.8886 2.73125 16.5174L0.46875 18.793C-0.15625 19.4211 -0.15625 20.4405 0.46875 21.0686L10.8687 31.5286C11.4937 32.1574 12.5069 32.1574 13.1313 31.5286L31.5312 13.023C32.1562 12.3942 32.1562 11.3755 31.5312 10.7467ZM10.4106 17.6692C10.8381 18.108 11.5469 18.108 11.9862 17.6805L25.2406 4.53861C25.6794 4.11111 25.6794 3.40236 25.2519 2.96298L22.63 0.330482C22.2025 -0.108268 21.4937 -0.108268 21.0544 0.319232L11.2319 10.0742L6.9675 5.77611C6.54 5.33736 5.83125 5.33736 5.3925 5.76486L2.75938 8.37548C2.32063 8.80298 2.32063 9.51173 2.74813 9.95048L10.4106 17.6692Z" fill="#0165E1" /></svg>