<svg width="32" height="32" viewBox="0 0 32 32" fill="none" xmlns="http://www.w3.org/2000/svg">
 <path  d= "M16 16V20H12V16H16ZM16 0H12V4H16V0ZM16 16H20V12H16V16ZM24 0H20V4H24V0ZM24 32H28V28H24V32ZM32 28V24H28V28H32ZM8 32H12V28H8V32ZM8 0H4V4H8V0ZM32 12V8H28V12H32ZM32 20V16H28V20H32ZM0 32H4V28H0V32ZM0 4V8H4V4H0ZM0 12V16H4V12H0ZM0 20V24H4V20H0ZM16 32H20V28H16V32ZM12 24V28H16V24H12ZM16 12V8H12V12H16ZM4 24V28H8V24H4ZM8 16H4V20H8V16ZM24 24H28V20H24V24ZM32 0H28V4H32V0ZM24 16H28V12H24V16ZM24 4V8H28V4H24ZM20 24V28H24V24H20ZM8 20V24H12V20H8ZM16 20V24H20V20H16ZM12 12H8V16H12V12ZM8 8H4V12H8V8ZM20 20H24V16H20V20ZM12 8V4H8V8H12ZM20 8V4H16V8H20ZM20 12H24V8H20V12Z" fill="#0165E1" /></svg>