<svg width="20" height="32" viewBox="0 0 20 32" fill="none" xmlns="http://www.w3.org/2000/svg">
 <path  d= "M7.69737 4.86756C6.71056 4.53312 6 3.59981 6 2.5C6 1.11931 7.11931 0 8.5 0H11.4873C12.8679 0 13.9873 1.11931 13.9873 2.5C13.9873 3.59631 13.2813 4.52713 12.2994 4.86431C13.799 5.90538 15.3355 7.79175 16.5934 9.99244L9.05806 17.5277C8.98774 17.598 8.94824 17.6934 8.94824 17.7928C8.94824 17.8923 8.98774 17.9877 9.05806 18.058L9.94194 18.9419C10.0123 19.0122 10.1076 19.0517 10.2071 19.0517C10.3065 19.0517 10.4019 19.0122 10.4722 18.9419L17.5562 11.8579C18.6661 14.2514 19.3919 16.8231 19.3919 18.9999C19.3919 22.3616 17.9609 23.7367 15.7391 24.377V28H4.26088V24.3769C2.03944 23.7365 0.608688 22.3613 0.608688 19C0.608688 14.1232 4.25125 7.26462 7.69737 4.86756ZM20 31.25V29.75C20 29.3358 19.6642 29 19.25 29H0.75C0.335813 29 0 29.3358 0 29.75V31.25C0 31.6642 0.335813 32 0.75 32H19.25C19.6642 32 20 31.6642 20 31.25Z" fill="#0165E1" /></svg>