<svg width="26" height="32" viewBox="0 0 26 32" fill="none" xmlns="http://www.w3.org/2000/svg">
 <path  d= "M5.61602 12.2018C5.59708 15.128 5.36068 21.0717 3.39995 27.7333H22.5988C20.6388 21.0931 20.403 15.1392 20.384 12.2017L23.4119 9.38087C23.4922 9.30601 23.5563 9.21541 23.6001 9.11471C23.644 9.014 23.6666 8.90536 23.6666 8.79553V0.8C23.6666 0.3582 23.3084 0 22.8666 0H20.1999C19.7581 0 19.3999 0.3582 19.3999 0.8V3.73333H16.1999V0.8C16.1999 0.3582 15.8417 0 15.3999 0H10.5999C10.1581 0 9.79988 0.3582 9.79988 0.8V3.73333H6.59995V0.8C6.59995 0.3582 6.24175 0 5.79995 0H3.13328C2.69148 0 2.33328 0.3582 2.33328 0.8V8.79547C2.33328 9.01747 2.42555 9.22947 2.58795 9.3808L5.61602 12.2018ZM10.8666 14.9333C10.8666 13.7551 11.8218 12.8 13 12.8C14.1782 12.8 15.1333 13.7551 15.1333 14.9333V19.2003H10.8666V14.9333ZM25.8 29.6V31.2C25.8 31.6418 25.4418 32 25 32H0.999951C0.558151 32 0.199951 31.6418 0.199951 31.2V29.6C0.199951 29.1582 0.558151 28.8 0.999951 28.8H25C25.4418 28.8 25.8 29.1582 25.8 29.6Z" fill="#0165E1" /></svg>