<svg width="32" height="32" viewBox="0 0 32 32" fill="none" xmlns="http://www.w3.org/2000/svg">
 <path  d= "M12.4103 13.6021C12.5097 13.6021 12.6051 13.6416 12.6754 13.7119C12.7458 13.7822 12.7853 13.8776 12.7853 13.9771L12.7852 15.2749C12.7852 15.3744 12.7457 15.4698 12.6754 15.5401C12.6051 15.6104 12.5097 15.6499 12.4102 15.6499H10.7974C10.7974 17.6321 10.6628 21.6625 11.8848 25.2267H3.95877C5.20521 21.5907 5.04771 17.4528 5.04771 15.6499H3.4329C3.33344 15.6499 3.23806 15.6104 3.16773 15.5401C3.09741 15.4698 3.0579 15.3744 3.0579 15.2749L3.05802 13.9771C3.05802 13.8776 3.09753 13.7822 3.16786 13.7119C3.23819 13.6416 3.33357 13.6021 3.43302 13.6021H12.4103ZM2.51859 7.193L4.67984 13.1349H11.1632L13.324 7.19294C13.5018 6.70381 13.1396 6.18663 12.6191 6.18663H9.42146V4.29787H10.7696C10.869 4.29787 10.9644 4.25837 11.0348 4.18804C11.1051 4.11771 11.1446 4.02233 11.1446 3.92287V2.52394C11.1446 2.42448 11.1051 2.3291 11.0348 2.25877C10.9644 2.18845 10.869 2.14894 10.7696 2.14894H8.99665V0.375C8.99665 0.275544 8.95714 0.180161 8.88682 0.109835C8.81649 0.0395088 8.72111 0 8.62165 0L7.22271 0C7.12326 0 7.02787 0.0395088 6.95755 0.109835C6.88722 0.180161 6.84771 0.275544 6.84771 0.375V2.14894H5.07277C4.97332 2.14894 4.87794 2.18845 4.80761 2.25877C4.73728 2.3291 4.69777 2.42448 4.69777 2.52394V3.92287C4.69777 4.02233 4.73728 4.11771 4.80761 4.18804C4.87794 4.25837 4.97332 4.29787 5.07277 4.29787H6.42146V6.18656H3.2234C2.7029 6.18663 2.34065 6.70381 2.51859 7.193ZM13.8388 27.8231V26.0689C13.8388 25.9695 13.7993 25.8741 13.729 25.8038C13.6587 25.7334 13.5633 25.6939 13.4638 25.6939H2.37909C2.27963 25.6939 2.18425 25.7334 2.11392 25.8038C2.0436 25.8741 2.00409 25.9695 2.00409 26.0689V27.8231L0.619837 28.7084C0.566812 28.7423 0.523178 28.789 0.492955 28.8442C0.462732 28.8994 0.446894 28.9614 0.446899 29.0243V31.625C0.446899 31.7245 0.486408 31.8198 0.556734 31.8902C0.627061 31.9605 0.722443 32 0.821899 32H15.0211C15.1205 32 15.2159 31.9605 15.2863 31.8902C15.3566 31.8198 15.3961 31.7245 15.3961 31.625V29.0243C15.3961 28.9613 15.3803 28.8994 15.35 28.8442C15.3198 28.7889 15.2762 28.7422 15.2231 28.7083L13.8388 27.8231ZM19.5 18.8091L21.055 19.8692C21.0606 21.002 21.0445 23.8632 20.3109 27.0269H29.5313C28.7992 23.8722 28.7832 21.0066 28.7886 19.8683L30.3423 18.809C30.3748 18.7869 30.4013 18.7572 30.4197 18.7225C30.438 18.6877 30.4476 18.6491 30.4476 18.6098V14.241C30.4476 14.1771 30.4222 14.1158 30.377 14.0705C30.3318 14.0253 30.2705 13.9999 30.2065 13.9999H28.4781C28.4142 13.9999 28.3528 14.0253 28.3076 14.0705C28.2624 14.1158 28.237 14.1771 28.237 14.241V16.2106H26.816V14.241C26.816 14.2093 26.8097 14.178 26.7976 14.1487C26.7855 14.1195 26.7677 14.0929 26.7453 14.0705C26.7229 14.0481 26.6964 14.0304 26.6671 14.0183C26.6379 14.0062 26.6065 13.9999 26.5748 13.9999H23.2675C23.2035 13.9999 23.1422 14.0253 23.097 14.0705C23.0518 14.1158 23.0264 14.1771 23.0264 14.241V16.2106H21.6053V14.241C21.6053 14.1771 21.5799 14.1158 21.5347 14.0705C21.4895 14.0253 21.4282 13.9999 21.3643 13.9999H19.6358C19.5719 13.9999 19.5106 14.0253 19.4654 14.0705C19.4202 14.1158 19.3948 14.1771 19.3948 14.241V18.6098C19.3947 18.6491 19.4043 18.6878 19.4226 18.7225C19.441 18.7572 19.4675 18.7869 19.5 18.8091ZM23.974 22.0532C23.974 21.5299 24.3982 21.1058 24.9215 21.1058C25.4447 21.1058 25.8688 21.53 25.8688 22.0532V23.9481H23.974V22.0532ZM31.4602 29.3787L30.6062 28.7138V27.7418C30.6062 27.7101 30.6 27.6787 30.5879 27.6495C30.5757 27.6203 30.558 27.5937 30.5356 27.5713C30.5132 27.5489 30.4866 27.5312 30.4574 27.519C30.4282 27.5069 30.3968 27.5007 30.3651 27.5007H19.4786C19.447 27.5007 19.4156 27.5069 19.3864 27.519C19.3572 27.5312 19.3306 27.5489 19.3082 27.5713C19.2858 27.5937 19.2681 27.6203 19.2559 27.6495C19.2438 27.6787 19.2376 27.7101 19.2376 27.7418V28.7138L18.3828 29.3787C18.3538 29.4012 18.3304 29.4301 18.3143 29.4631C18.2981 29.496 18.2898 29.5322 18.2898 29.5689V31.7589C18.2898 31.8228 18.3152 31.8841 18.3604 31.9293C18.4056 31.9745 18.4669 31.9999 18.5308 31.9999H31.3121C31.376 31.9999 31.4373 31.9745 31.4825 31.9293C31.5278 31.8841 31.5531 31.8228 31.5531 31.7589V29.5689C31.5531 29.5322 31.5448 29.496 31.5287 29.463C31.5126 29.4301 31.4891 29.4012 31.4602 29.3787Z" fill="#0165E1" /></svg>