<svg width="32" height="32" viewBox="0 0 32 32" fill="none" xmlns="http://www.w3.org/2000/svg">
 <path  d= "M27.25 32H4.75003C4.33584 32 4.00003 31.6642 4.00003 31.25V29.75C4.00003 29.3358 4.33584 29 4.75003 29H27.25C27.6642 29 28 29.3358 28 29.75V31.25C28 31.6642 27.6642 32 27.25 32ZM15.9737 0C14.0407 0 12.4737 1.567 12.4737 3.5C12.4737 5.433 14.0407 7 15.9737 7C17.9067 7 19.4737 5.433 19.4737 3.5C19.4737 1.567 17.9067 0 15.9737 0ZM28.7592 9.66463C28.3987 9.47431 27.952 9.60638 27.7541 9.96275C27.2156 10.9325 26.3324 12.3253 25 12.3253C23.2054 12.3253 23.086 11.0876 23.0197 8.72894C23.0082 8.32319 22.6758 7.99994 22.27 7.99994H19.7071C19.3837 7.99994 19.0975 8.20794 18.9953 8.51481C18.4397 10.1841 17.3658 11.0768 16 11.0768C14.6343 11.0768 13.5604 10.1841 13.0047 8.51481C12.9026 8.20794 12.6164 7.99994 12.293 7.99994H9.73016C9.32422 7.99994 8.99185 8.32331 8.98047 8.72913C8.91472 11.0817 8.7971 12.3253 6.99997 12.3253C5.70678 12.3253 4.88641 11.0613 4.22341 9.94875C4.01928 9.60625 3.58228 9.48431 3.22972 9.67044L0.781033 10.9629C0.616389 11.0498 0.489949 11.1948 0.426299 11.3697C0.36265 11.5447 0.366342 11.7371 0.436658 11.9094L7.00003 28H25L31.5634 11.9095C31.6337 11.7371 31.6374 11.5448 31.5738 11.3698C31.5101 11.1949 31.3837 11.0498 31.219 10.9629L28.7592 9.66463Z" fill="#0165E1" /></svg>