<svg width="22" height="32" viewBox="0 0 22 32" fill="none" xmlns="http://www.w3.org/2000/svg">
 <path  d= "M18.4286 27.4286H3.5715C3.5715 27.4286 7.85721 24.3755 7.85721 14.8571H5.5715C5.09814 14.8571 4.71436 14.4734 4.71436 14V12.2857C4.71436 11.8124 5.09814 11.4286 5.5715 11.4286H8.44357C6.40871 10.4686 5.00007 8.39914 5.00007 6C5.00007 2.68629 7.68636 0 11.0001 0C14.3138 0 17.0001 2.68629 17.0001 6C17.0001 8.39914 15.5914 10.4686 13.5566 11.4286H16.4286C16.902 11.4286 17.2858 11.8124 17.2858 12.2857V14C17.2858 14.4734 16.902 14.8571 16.4286 14.8571H14.1429C14.1429 24.3755 18.4286 27.4286 18.4286 27.4286ZM20.4286 28.5714H1.5715C1.09814 28.5714 0.714355 28.9552 0.714355 29.4286V31.1429C0.714355 31.6162 1.09814 32 1.5715 32H20.4286C20.902 32 21.2858 31.6162 21.2858 31.1429V29.4286C21.2858 28.9552 20.902 28.5714 20.4286 28.5714Z" fill="#0165E1" /></svg>