<svg width="28" height="32" viewBox="0 0 28 32" fill="none" xmlns="http://www.w3.org/2000/svg">
 <path  d= "M26 29.75V31.25C26 31.6642 25.6642 32 25.25 32H2.74999C2.3358 32 1.99999 31.6642 1.99999 31.25V29.75C1.99999 29.3358 2.3358 29 2.74999 29H25.25C25.6642 29 26 29.3358 26 29.75ZM25.4979 9.5H15.5V6.5H18.625C18.7244 6.5 18.8198 6.46049 18.8902 6.39016C18.9605 6.31984 19 6.22446 19 6.125V3.875C19 3.77554 18.9605 3.68016 18.8902 3.60983C18.8198 3.53951 18.7244 3.5 18.625 3.5H15.5V0.375C15.5 0.275544 15.4605 0.180161 15.3902 0.109835C15.3198 0.0395088 15.2244 0 15.125 0L12.875 0C12.7755 0 12.6802 0.0395088 12.6098 0.109835C12.5395 0.180161 12.5 0.275544 12.5 0.375V3.5H9.37499C9.27553 3.5 9.18015 3.53951 9.10983 3.60983C9.0395 3.68016 8.99999 3.77554 8.99999 3.875V6.125C8.99999 6.22446 9.0395 6.31984 9.10983 6.39016C9.18015 6.46049 9.27553 6.5 9.37499 6.5H12.5V9.5H2.50205C0.778679 9.5 -0.427884 11.2028 0.143428 12.8287L5.47387 28H22.5261L27.8566 12.8287C28.4279 11.2028 27.2213 9.5 25.4979 9.5Z" fill="#0165E1" /></svg>