<svg width="26" height="32" viewBox="0 0 26 32" fill="none" xmlns="http://www.w3.org/2000/svg">
 <path  d= "M23.6666 12.8V27.7333H2.33328V24.6295C2.33328 22.6094 3.47462 20.7627 5.28148 19.8593L9.09768 17.9511C9.62923 17.6854 10.0763 17.2768 10.3887 16.7713C10.7011 16.2658 10.8666 15.6832 10.8666 15.0889V11.7333L9.39148 12.4709C9.18504 12.5741 9.00337 12.7207 8.85895 12.9008C8.71453 13.0808 8.61078 13.29 8.55482 13.5139L7.76582 16.6697C7.7351 16.7926 7.67566 16.9064 7.59239 17.0018C7.50912 17.0972 7.40439 17.1714 7.28682 17.2185L5.31342 18.0078C5.21421 18.0475 5.10806 18.0669 5.00123 18.0649C4.8944 18.0629 4.78906 18.0395 4.69142 17.9961L0.675018 16.2111C0.533608 16.1483 0.413464 16.0458 0.329143 15.916C0.244823 15.7862 0.199946 15.6348 0.199951 15.4801V4.9294C0.199951 4.50507 0.368551 4.09807 0.668618 3.798L1.26662 3.2L0.319218 1.3052C0.240768 1.14835 0.199933 0.975377 0.199951 0.8C0.199951 0.3582 0.558151 0 0.999951 0H10.8666C17.9359 0 23.6666 5.73073 23.6666 12.8ZM25 28.8H0.999951C0.558151 28.8 0.199951 29.1582 0.199951 29.6V31.2C0.199951 31.6418 0.558151 32 0.999951 32H25C25.4418 32 25.8 31.6418 25.8 31.2V29.6C25.8 29.1582 25.4418 28.8 25 28.8ZM3.66662 6.4C2.93022 6.4 2.33328 6.99693 2.33328 7.73333C2.33328 8.46973 2.93022 9.06667 3.66662 9.06667C4.40302 9.06667 4.99995 8.46973 4.99995 7.73333C4.99995 6.99693 4.40302 6.4 3.66662 6.4Z" fill="#0165E1" /></svg>