<svg width="32" height="32" viewBox="0 0 32 32" fill="none" xmlns="http://www.w3.org/2000/svg">
 <path  d= "M16 0C24.8387 0 32 7.16129 32 16C32 24.8387 24.8387 32 16 32C7.16129 32 0 24.8387 0 16C0 7.16129 7.16129 0 16 0ZM23.3484 14.9032L14.6065 6.16129C14 5.55484 13.0194 5.55484 12.4194 6.16129L11.3226 7.25806C10.7161 7.86452 10.7161 8.84516 11.3226 9.44516L17.8774 16L11.3226 22.5548C10.7161 23.1613 10.7161 24.1419 11.3226 24.7419L12.4194 25.8387C13.0258 26.4452 14.0065 26.4452 14.6065 25.8387L23.3484 17.0968C23.9548 16.4903 23.9548 15.5097 23.3484 14.9032Z" fill="#0165E1" /></svg>