<svg width="32" height="32" viewBox="0 0 32 32" fill="none" xmlns="http://www.w3.org/2000/svg">
 <path  d= "M0 16C0 7.16129 7.16129 0 16 0C24.8387 0 32 7.16129 32 16C32 24.8387 24.8387 32 16 32C7.16129 32 0 24.8387 0 16ZM14.9032 8.65161L6.16129 17.3935C5.55484 18 5.55484 18.9806 6.16129 19.5806L7.25806 20.6774C7.86452 21.2839 8.84516 21.2839 9.44516 20.6774L16 14.1226L22.5548 20.6774C23.1613 21.2839 24.1419 21.2839 24.7419 20.6774L25.8387 19.5806C26.4452 18.9742 26.4452 17.9935 25.8387 17.3935L17.0968 8.65161C16.4903 8.04516 15.5097 8.04516 14.9032 8.65161Z" fill="#0165E1" /></svg>