<svg width="32" height="32" viewBox="0 0 32 32" fill="none" xmlns="http://www.w3.org/2000/svg">
 <path  d= "M32 16C32 24.8387 24.8387 32 16 32C7.16129 32 0 24.8387 0 16C0 7.16129 7.16129 0 16 0C24.8387 0 32 7.16129 32 16ZM17.0968 23.3484L25.8387 14.6065C26.4452 14 26.4452 13.0194 25.8387 12.4194L24.7419 11.3226C24.1355 10.7161 23.1548 10.7161 22.5548 11.3226L16 17.8774L9.44516 11.3226C8.83871 10.7161 7.85806 10.7161 7.25806 11.3226L6.16129 12.4194C5.55484 13.0258 5.55484 14.0065 6.16129 14.6065L14.9032 23.3484C15.5097 23.9548 16.4903 23.9548 17.0968 23.3484Z" fill="#0165E1" /></svg>