<svg width="32" height="32" viewBox="0 0 32 32" fill="none" xmlns="http://www.w3.org/2000/svg">
 <path  d= "M16 32C7.16129 32 0 24.8387 0 16C0 7.16129 7.16129 0 16 0C24.8387 0 32 7.16129 32 16C32 24.8387 24.8387 32 16 32ZM8.65161 17.0968L17.3935 25.8387C18 26.4452 18.9806 26.4452 19.5806 25.8387L20.6774 24.7419C21.2839 24.1355 21.2839 23.1548 20.6774 22.5548L14.1226 16L20.6774 9.44516C21.2839 8.83871 21.2839 7.85806 20.6774 7.25806L19.5806 6.16129C18.9742 5.55484 17.9935 5.55484 17.3935 6.16129L8.65161 14.9032C8.04516 15.5097 8.04516 16.4903 8.65161 17.0968Z" fill="#0165E1" /></svg>