<svg width="24" height="32" viewBox="0 0 24 32" fill="none" xmlns="http://www.w3.org/2000/svg">
 <path  d= "M7.49998 4.5C7.49998 2.01469 9.51467 0 12 0C14.4853 0 16.5 2.01469 16.5 4.5C16.5 6.98525 14.4853 9 12 9C9.51467 9 7.49998 6.98525 7.49998 4.5ZM23.4142 4.58581C22.6332 3.80475 21.3668 3.80475 20.5858 4.58581L15.1715 10H8.82836L3.41417 4.58581C2.63317 3.80475 1.3668 3.80475 0.585797 4.58581C-0.195266 5.36688 -0.195266 6.63319 0.585797 7.41425L6.49998 13.3284V30C6.49998 31.1046 7.39542 32 8.49998 32H9.49998C10.6045 32 11.5 31.1046 11.5 30V23H12.5V30C12.5 31.1046 13.3954 32 14.5 32H15.5C16.6045 32 17.5 31.1046 17.5 30V13.3284L23.4142 7.41419C24.1952 6.63312 24.1952 5.36688 23.4142 4.58581Z" fill="#0165E1" /></svg>