<svg width="32" height="26" viewBox="0 0 32 26" fill="none" xmlns="http://www.w3.org/2000/svg">
 <path  d= "M23.223 12.534L17.6 9.15995V6.59995H20C20.442 6.59995 20.8 6.24195 20.8 5.79995V4.19995C20.8 3.75795 20.442 3.39995 20 3.39995H17.6V0.999951C17.6 0.557951 17.242 0.199951 16.8 0.199951H15.2C14.758 0.199951 14.4 0.557951 14.4 0.999951V3.39995H12C11.558 3.39995 11.2 3.75795 11.2 4.19995V5.79995C11.2 6.24195 11.558 6.59995 12 6.59995H14.4V9.15995L8.777 12.534C8.54003 12.6761 8.34391 12.8771 8.20774 13.1176C8.07158 13.358 8 13.6296 8 13.906V25.8H12.8V21C12.8 19.2325 14.2325 17.8 16 17.8C17.7675 17.8 19.2 19.2325 19.2 21V25.8H24V13.906C24 13.344 23.705 12.823 23.223 12.534ZM0 19.998V25C0 25.442 0.358 25.8 0.8 25.8H6.4V16.2L0.9695 18.527C0.681768 18.6505 0.436572 18.8557 0.264255 19.1171C0.0919384 19.3786 6.35128e-05 19.6848 0 19.998H0ZM31.0305 18.527L25.6 16.2V25.8H31.2C31.642 25.8 32 25.442 32 25V19.998C32 19.358 31.6185 18.7795 31.0305 18.527Z" fill="#0165E1" /></svg>