<svg width="24" height="32" viewBox="0 0 24 32" fill="none" xmlns="http://www.w3.org/2000/svg">
 <path  d= "M24 7V29C24 30.6569 22.6569 32 21 32H3C1.34312 32 0 30.6569 0 29V7C0 5.34312 1.34312 4 3 4H8C8 1.79437 9.79437 0 12 0C14.2056 0 16 1.79437 16 4H21C22.6569 4 24 5.34312 24 7ZM12 2.5C11.1716 2.5 10.5 3.17156 10.5 4C10.5 4.82844 11.1716 5.5 12 5.5C12.8284 5.5 13.5 4.82844 13.5 4C13.5 3.17156 12.8284 2.5 12 2.5ZM18 9.625V8.375C18 8.27554 17.9605 8.18016 17.8902 8.10983C17.8198 8.03951 17.7245 8 17.625 8H6.375C6.27554 8 6.18016 8.03951 6.10984 8.10983C6.03951 8.18016 6 8.27554 6 8.375V9.625C6 9.72446 6.03951 9.81984 6.10984 9.89017C6.18016 9.96049 6.27554 10 6.375 10H17.625C17.7245 10 17.8198 9.96049 17.8902 9.89017C17.9605 9.81984 18 9.72446 18 9.625Z" fill="#0165E1" /></svg>