<svg width="32" height="24" viewBox="0 0 32 24" fill="none" xmlns="http://www.w3.org/2000/svg">
 <path  d= "M29 0H3C1.34375 0 0 1.34375 0 3V21C0 22.6562 1.34375 24 3 24H29C30.6562 24 32 22.6562 32 21V3C32 1.34375 30.6562 0 29 0ZM13.6313 13.9813C13.8063 13.825 14.075 13.85 14.2063 14.0375L15.425 15.7687C15.5312 15.9187 15.5188 16.1187 15.3938 16.25C12.0438 19.8 4.59375 18.2563 4.59375 12.0063C4.59375 5.925 12.2 4.5375 15.375 7.625C15.5063 7.75 15.5312 7.825 15.4375 7.98125L14.3438 9.8875C14.225 10.0813 13.9562 10.1375 13.775 9.99375C11.225 7.99375 7.8625 9.0625 7.8625 11.9438C7.86875 14.9438 11.0563 16.35 13.6313 13.9813ZM25.5312 13.9813C25.7062 13.825 25.975 13.85 26.1063 14.0375L27.325 15.7687C27.4313 15.9187 27.4188 16.1187 27.2938 16.25C23.95 19.8062 16.5 18.2563 16.5 12.0063C16.5 5.925 24.1063 4.5375 27.2812 7.625C27.4125 7.75 27.4375 7.825 27.3438 7.98125L26.25 9.8875C26.1313 10.0813 25.8625 10.1375 25.6812 9.99375C23.1313 7.99375 19.7687 9.0625 19.7687 11.9438C19.7687 14.9438 22.9562 16.35 25.5312 13.9813Z" fill="#0165E1" /></svg>