<svg width="32" height="24" viewBox="0 0 32 24" fill="none" xmlns="http://www.w3.org/2000/svg">
 <path  d= "M26.88 10.53C27.085 9.99505 27.2 9.41005 27.2 8.80005C27.2 6.15005 25.05 4.00005 22.4 4.00005C21.415 4.00005 20.495 4.30005 19.735 4.81005C18.35 2.41005 15.765 0.800049 12.8 0.800049C8.38 0.800049 4.8 4.38005 4.8 8.80005C4.8 8.93505 4.805 9.07005 4.81 9.20505C2.01 10.19 0 12.86 0 16C0 19.975 3.225 23.2 7.2 23.2H25.6C29.135 23.2 32 20.335 32 16.8C32 13.705 29.8 11.12 26.88 10.53ZM20.235 14.965L14.965 20.235C14.655 20.545 14.145 20.545 13.835 20.235L8.565 14.965C8.06 14.46 8.42 13.6 9.13 13.6H12.4V8.00005C12.4 7.56005 12.76 7.20005 13.2 7.20005H15.6C16.04 7.20005 16.4 7.56005 16.4 8.00005V13.6H19.67C20.38 13.6 20.74 14.46 20.235 14.965Z" fill="#0165E1" /></svg>