<svg width="32" height="24" viewBox="0 0 32 24" fill="none" xmlns="http://www.w3.org/2000/svg">
 <path  d= "M26.88 10.53C27.085 9.99505 27.2 9.41005 27.2 8.80005C27.2 6.15005 25.05 4.00005 22.4 4.00005C21.415 4.00005 20.495 4.30005 19.735 4.81005C18.35 2.41005 15.765 0.800049 12.8 0.800049C8.38 0.800049 4.8 4.38005 4.8 8.80005C4.8 8.93505 4.805 9.07005 4.81 9.20505C2.01 10.19 0 12.86 0 16C0 19.975 3.225 23.2 7.2 23.2H25.6C29.135 23.2 32 20.335 32 16.8C32 13.705 29.8 11.12 26.88 10.53ZM19.67 13.6H16.4V19.2C16.4 19.64 16.04 20 15.6 20H13.2C12.76 20 12.4 19.64 12.4 19.2V13.6H9.13C8.415 13.6 8.06 12.74 8.565 12.235L13.835 6.96505C14.145 6.65505 14.655 6.65505 14.965 6.96505L20.235 12.235C20.74 12.74 20.38 13.6 19.67 13.6Z" fill="#0165E1" /></svg>