<svg width="32" height="30" viewBox="0 0 32 30" fill="none" xmlns="http://www.w3.org/2000/svg">
 <path  d= "M16.4446 26.5555H13.3335V19.5989L22.7079 10.2251C23.5701 9.36287 22.9595 7.889 21.7401 7.889H1.37141C0.151977 7.889 -0.458573 9.36287 0.403641 10.2251L9.77799 19.5989V26.5555H6.66691C5.4397 26.5555 4.44471 27.5505 4.44471 28.7777C4.44471 29.0232 4.6436 29.2221 4.88915 29.2221H18.2224C18.4679 29.2221 18.6668 29.0232 18.6668 28.7777C18.6668 27.5505 17.6718 26.5555 16.4446 26.5555ZM24.0001 0.777954C20.5218 0.777954 17.5918 3.01127 16.4902 6.11124H19.409C20.334 4.52514 22.0351 3.44459 24.0001 3.44459C26.9406 3.44459 29.3334 5.83679 29.3334 8.77788C29.3334 11.719 26.9406 14.1112 24.0001 14.1112C23.2201 14.1112 22.484 13.9334 21.8157 13.6312L19.8568 15.59C21.0684 16.3289 22.4773 16.7778 24.0001 16.7778C28.4184 16.7778 32 13.1962 32 8.77788C32 4.35959 28.4184 0.777954 24.0001 0.777954Z" fill="#0165E1" /></svg>