<svg width="32" height="26" viewBox="0 0 32 26" fill="none" xmlns="http://www.w3.org/2000/svg">
 <path  d= "M13.9452 25.773L10.8954 24.8881C10.5754 24.7981 10.3954 24.4632 10.4854 24.1432L17.3099 0.635012C17.3999 0.315037 17.7349 0.135051 18.0548 0.225044L21.1046 1.10997C21.4246 1.19997 21.6046 1.53494 21.5146 1.85492L14.6901 25.3631C14.5951 25.6831 14.2651 25.868 13.9452 25.773ZM8.24561 20.1635L10.4204 17.8437C10.6504 17.5987 10.6354 17.2087 10.3804 16.9837L5.85079 12.999L10.3804 9.01436C10.6354 8.78938 10.6554 8.39941 10.4204 8.15443L8.24561 5.83461C8.02062 5.59462 7.64065 5.57963 7.39567 5.80961L0.191235 12.5591C-0.063745 12.7941 -0.063745 13.199 0.191235 13.434L7.39567 20.1885C7.64065 20.4185 8.02062 20.4085 8.24561 20.1635ZM24.6043 20.1935L31.8088 13.439C32.0637 13.204 32.0637 12.7991 31.8088 12.5641L24.6043 5.80461C24.3643 5.57963 23.9844 5.58962 23.7544 5.82961L21.5796 8.14943C21.3496 8.39441 21.3646 8.78438 21.6196 9.00936L26.1492 12.999L21.6196 16.9837C21.3646 17.2087 21.3446 17.5987 21.5796 17.8437L23.7544 20.1635C23.9794 20.4085 24.3593 20.4185 24.6043 20.1935Z" fill="#0165E1" /></svg>