<svg width="24" height="32" viewBox="0 0 24 32" fill="none" xmlns="http://www.w3.org/2000/svg">
 <path  d= "M24 9C24 6.2375 21.7625 4 19 4C16.2375 4 14 6.2375 14 9C14 11.275 15.5188 13.1938 17.5938 13.8C17.5562 14.8063 17.3312 15.5813 16.9062 16.1063C15.9438 17.3063 13.825 17.5063 11.5813 17.7125C9.81875 17.875 7.99375 18.05 6.5 18.7687V9.76875C8.53125 9.13125 10 7.2375 10 5C10 2.2375 7.7625 0 5 0C2.2375 0 0 2.2375 0 5C0 7.2375 1.46875 9.13125 3.5 9.76875V22.225C1.46875 22.8687 0 24.7625 0 27C0 29.7625 2.2375 32 5 32C7.7625 32 10 29.7625 10 27C10 24.875 8.675 23.0562 6.8 22.3375C6.99375 22.0125 7.2875 21.725 7.73125 21.5C8.74375 20.9875 10.2563 20.85 11.8625 20.7C14.5 20.4563 17.4875 20.175 19.25 17.9875C20.125 16.9 20.5688 15.5 20.6 13.7437C22.575 13.0687 24 11.2 24 9ZM5 4C5.55 4 6 4.45 6 5C6 5.55 5.55 6 5 6C4.45 6 4 5.55 4 5C4 4.45 4.45 4 5 4ZM5 28C4.45 28 4 27.55 4 27C4 26.45 4.45 26 5 26C5.55 26 6 26.45 6 27C6 27.55 5.55 28 5 28ZM19 8C19.55 8 20 8.45 20 9C20 9.55 19.55 10 19 10C18.45 10 18 9.55 18 9C18 8.45 18.45 8 19 8Z" fill="#0165E1" /></svg>