<svg width="32" height="24" viewBox="0 0 32 24" fill="none" xmlns="http://www.w3.org/2000/svg">
 <path  d= "M9.60196 18.3995H19.2011C21.8509 18.3995 24.0007 16.2497 24.0007 13.5999H25.6006C29.1303 13.5999 32 10.7302 32 7.20047C32 3.67077 29.1303 0.801025 25.6006 0.801025H6.00227C5.33733 0.801025 4.80238 1.33598 4.80238 2.00092V13.5999C4.80238 16.2497 6.95219 18.3995 9.60196 18.3995ZM25.6006 4.00075C27.3654 4.00075 28.8003 5.43562 28.8003 7.20047C28.8003 8.96531 27.3654 10.4002 25.6006 10.4002H24.0007V4.00075H25.6006ZM27.9854 23.1991H2.41758C0.0377925 23.1991 -0.632149 19.9993 0.617742 19.9993H29.7802C31.0301 19.9993 30.3701 23.1991 27.9854 23.1991Z" fill="#0165E1" /></svg>