<svg width="32" height="32" viewBox="0 0 32 32" fill="none" xmlns="http://www.w3.org/2000/svg">
 <path  d= "M28.1798 18.2645L30.9292 19.8515C31.2432 20.0328 31.389 20.4075 31.2814 20.7538C30.5672 23.0533 29.3479 25.1307 27.7531 26.8561C27.6338 26.9853 27.474 27.0701 27.3001 27.0965C27.1262 27.1229 26.9485 27.0894 26.7962 27.0015L24.0489 25.4147C22.8929 26.4052 21.564 27.1735 20.1289 27.6812V30.8542C20.1289 31.0302 20.069 31.2009 19.9591 31.3384C19.8491 31.4758 19.6957 31.5716 19.524 31.6102C17.2687 32.1167 14.8466 32.1429 12.4776 31.6107C12.1234 31.5311 11.8709 31.2174 11.8709 30.8544V27.6812C10.4359 27.1736 9.10693 26.4052 7.95102 25.4147L5.20367 27.0015C5.05133 27.0894 4.87363 27.1229 4.69974 27.0965C4.52585 27.0701 4.36612 26.9853 4.24677 26.8561C2.65207 25.1307 1.43265 23.0533 0.718459 20.7538C0.610911 20.4076 0.756653 20.0328 1.07065 19.8515L3.82013 18.2645C3.54397 16.7675 3.54397 15.2326 3.82013 13.7356L1.07072 12.1485C0.756717 11.9673 0.610976 11.5925 0.718524 11.2463C1.43272 8.94679 2.65207 6.86938 4.24684 5.14396C4.36618 5.01477 4.52592 4.93 4.69981 4.90357C4.87369 4.87715 5.0514 4.91064 5.20374 4.99854L7.95109 6.58531C9.10702 5.59489 10.436 4.82652 11.871 4.31887V1.14578C11.871 0.969796 11.9309 0.799054 12.0409 0.661649C12.1508 0.524244 12.3043 0.428362 12.476 0.389781C14.7312 -0.116669 17.1533 -0.142863 19.5223 0.389329C19.8765 0.468877 20.129 0.782619 20.129 1.14565V4.3188C21.5641 4.82643 22.893 5.5948 24.0489 6.58525L26.7963 4.99848C26.9486 4.91057 27.1263 4.87708 27.3002 4.90351C27.4741 4.92993 27.6338 5.0147 27.7532 5.1439C29.3479 6.86931 30.5673 8.94673 31.2815 11.2462C31.389 11.5924 31.2433 11.9672 30.9293 12.1485L28.1798 13.7355C28.456 15.2325 28.456 16.7675 28.1798 18.2645ZM21.1612 16C21.1612 13.1541 18.8459 10.8387 16 10.8387C13.154 10.8387 10.8387 13.1541 10.8387 16C10.8387 18.8459 13.154 21.1613 16 21.1613C18.8459 21.1613 21.1612 18.8459 21.1612 16Z" fill="#0165E1" /></svg>