<svg width="32" height="26" viewBox="0 0 32 26" fill="none" xmlns="http://www.w3.org/2000/svg">
 <path  d= "M25.6076 9.78723L25.1975 10.5023C25.0475 10.7673 24.7275 10.8773 24.4425 10.7723C23.8524 10.5523 23.3124 10.2373 22.8374 9.84224C22.6073 9.65222 22.5473 9.3172 22.6973 9.05717L23.1074 8.34212C22.7624 7.94208 22.4923 7.47704 22.3123 6.972H21.4872C21.1872 6.972 20.9272 6.75698 20.8772 6.45696C20.7772 5.85691 20.7722 5.22686 20.8772 4.60181C20.9272 4.30178 21.1872 4.08176 21.4872 4.08176H22.3123C22.4923 3.57672 22.7624 3.11168 23.1074 2.71165L22.6973 1.99659C22.5473 1.73657 22.6023 1.40154 22.8374 1.21153C23.3124 0.816494 23.8574 0.501468 24.4425 0.28145C24.7275 0.176441 25.0475 0.28645 25.1975 0.551472L25.6076 1.26653C26.1326 1.17152 26.6677 1.17152 27.1927 1.26653L27.6027 0.551472C27.7528 0.28645 28.0728 0.176441 28.3578 0.28145C28.9479 0.501468 29.4879 0.816494 29.9629 1.21153C30.193 1.40154 30.253 1.73657 30.103 1.99659L29.6929 2.71165C30.038 3.11168 30.308 3.57672 30.488 4.08176H31.3131C31.6131 4.08176 31.8731 4.29678 31.9231 4.59681C32.0231 5.19686 32.0281 5.82691 31.9231 6.45196C31.8731 6.75198 31.6131 6.972 31.3131 6.972H30.488C30.308 7.47704 30.038 7.94208 29.6929 8.34212L30.103 9.05717C30.253 9.3172 30.198 9.65222 29.9629 9.84224C29.4879 10.2373 28.9429 10.5523 28.3578 10.7723C28.0728 10.8773 27.7528 10.7673 27.6027 10.5023L27.1927 9.78723C26.6727 9.88224 26.1326 9.88224 25.6076 9.78723ZM25.0825 6.84699C27.0077 8.32711 29.2029 6.13193 27.7228 4.20677C25.7976 2.72165 23.6024 4.92183 25.0825 6.84699ZM19.3171 14.5426L21.0022 15.3827C21.5072 15.6727 21.7273 16.2878 21.5272 16.8378C21.0822 18.0479 20.2071 19.158 19.3971 20.1281C19.027 20.5731 18.387 20.6831 17.8819 20.3931L16.4268 19.553C15.6268 20.2381 14.6967 20.7831 13.6816 21.1382V22.8183C13.6816 23.3984 13.2666 23.8984 12.6965 23.9984C11.4664 24.2084 10.1763 24.2184 8.9012 23.9984C8.32616 23.8984 7.90112 23.4034 7.90112 22.8183V21.1382C6.88604 20.7781 5.95596 20.2381 5.1559 19.553L3.70078 20.3881C3.20073 20.6781 2.55568 20.5681 2.18565 20.1231C1.37558 19.153 0.520512 18.0429 0.0754757 16.8378C-0.124541 16.2928 0.0954774 15.6777 0.600519 15.3827L2.26566 14.5426C2.07064 13.4975 2.07064 12.4225 2.26566 11.3724L0.600519 10.5273C0.0954774 10.2373 -0.129541 9.62222 0.0754757 9.07718C0.520512 7.86708 1.37558 6.75698 2.18565 5.7869C2.55568 5.34187 3.19573 5.23186 3.70078 5.52188L5.1559 6.36195C5.95596 5.6769 6.88604 5.13185 7.90112 4.77682V3.09168C7.90112 2.51663 8.31116 2.01659 8.8812 1.91658C10.1113 1.70657 11.4064 1.69657 12.6815 1.91158C13.2566 2.01159 13.6816 2.50663 13.6816 3.09168V4.77182C14.6967 5.13185 15.6268 5.6719 16.4268 6.35695L17.8819 5.51688C18.382 5.22686 19.027 5.33687 19.3971 5.7819C20.2071 6.75198 21.0572 7.86208 21.5022 9.07218C21.7023 9.61722 21.5072 10.2323 21.0022 10.5273L19.3171 11.3674C19.5121 12.4175 19.5121 13.4925 19.3171 14.5426ZM13.4366 15.5977C16.3968 11.7474 12.0015 7.35203 8.15114 10.3123C5.1909 14.1626 9.58626 18.558 13.4366 15.5977ZM25.6076 24.7335L25.1975 25.4485C25.0475 25.7136 24.7275 25.8236 24.4425 25.7185C23.8524 25.4985 23.3124 25.1835 22.8374 24.7885C22.6073 24.5985 22.5473 24.2634 22.6973 24.0034L23.1074 23.2883C22.7624 22.8883 22.4923 22.4233 22.3123 21.9182H21.4872C21.1872 21.9182 20.9272 21.7032 20.8772 21.4032C20.7772 20.8031 20.7722 20.1731 20.8772 19.548C20.9272 19.248 21.1872 19.028 21.4872 19.028H22.3123C22.4923 18.523 22.7624 18.0579 23.1074 17.6579L22.6973 16.9428C22.5473 16.6828 22.6023 16.3478 22.8374 16.1578C23.3124 15.7627 23.8574 15.4477 24.4425 15.2277C24.7275 15.1227 25.0475 15.2327 25.1975 15.4977L25.6076 16.2128C26.1326 16.1178 26.6677 16.1178 27.1927 16.2128L27.6027 15.4977C27.7528 15.2327 28.0728 15.1227 28.3578 15.2277C28.9479 15.4477 29.4879 15.7627 29.9629 16.1578C30.193 16.3478 30.253 16.6828 30.103 16.9428L29.6929 17.6579C30.038 18.0579 30.308 18.523 30.488 19.028H31.3131C31.6131 19.028 31.8731 19.243 31.9231 19.543C32.0231 20.1431 32.0281 20.7731 31.9231 21.3982C31.8731 21.6982 31.6131 21.9182 31.3131 21.9182H30.488C30.308 22.4233 30.038 22.8883 29.6929 23.2883L30.103 24.0034C30.253 24.2634 30.198 24.5985 29.9629 24.7885C29.4879 25.1835 28.9429 25.4985 28.3578 25.7185C28.0728 25.8236 27.7528 25.7136 27.6027 25.4485L27.1927 24.7335C26.6727 24.8285 26.1326 24.8285 25.6076 24.7335ZM25.0825 21.7882C27.0077 23.2683 29.2029 21.0732 27.7228 19.148C25.7976 17.6679 23.6024 19.8631 25.0825 21.7882Z" fill="#0165E1" /></svg>