<svg width="32" height="26" viewBox="0 0 32 26" fill="none" xmlns="http://www.w3.org/2000/svg">
 <path  d= "M23.1111 9.44443C23.1111 4.53332 17.9389 0.555542 11.5556 0.555542C5.17222 0.555542 0 4.53332 0 9.44443C0 11.35 0.783333 13.1055 2.11111 14.5555C1.36667 16.2333 0.138889 17.5667 0.122222 17.5833C0 17.7111 -0.0333333 17.9 0.0388889 18.0667C0.111111 18.2333 0.266667 18.3333 0.444444 18.3333C2.47778 18.3333 4.16111 17.65 5.37222 16.9444C7.16111 17.8167 9.27778 18.3333 11.5556 18.3333C17.9389 18.3333 23.1111 14.3555 23.1111 9.44443ZM29.8889 21.6667C31.2167 20.2222 32 18.4611 32 16.5555C32 12.8389 29.0278 9.65554 24.8167 8.32776C24.8667 8.69443 24.8889 9.06665 24.8889 9.44443C24.8889 15.3278 18.9056 20.1111 11.5556 20.1111C10.9556 20.1111 10.3722 20.0667 9.79445 20.0055C11.5444 23.2 15.6556 25.4444 20.4444 25.4444C22.7222 25.4444 24.8389 24.9333 26.6278 24.0555C27.8389 24.7611 29.5222 25.4444 31.5556 25.4444C31.7333 25.4444 31.8944 25.3389 31.9611 25.1778C32.0333 25.0167 32 24.8278 31.8778 24.6944C31.8611 24.6778 30.6333 23.35 29.8889 21.6667Z" fill="#0165E1" /></svg>