<svg width="32" height="28" viewBox="0 0 32 28" fill="none" xmlns="http://www.w3.org/2000/svg">
 <path  d= "M16 0C7.1625 0 0 5.81875 0 13C0 16.1 1.3375 18.9375 3.5625 21.1688C2.78125 24.3188 0.16875 27.125 0.1375 27.1562C0 27.3 -0.0375 27.5125 0.04375 27.7C0.125 27.8875 0.3 28 0.5 28C4.64375 28 7.75 26.0125 9.2875 24.7875C11.3313 25.5562 13.6 26 16 26C24.8375 26 32 20.1812 32 13C32 5.81875 24.8375 0 16 0ZM8 15C6.89375 15 6 14.1062 6 13C6 11.8938 6.89375 11 8 11C9.10625 11 10 11.8938 10 13C10 14.1062 9.10625 15 8 15ZM16 15C14.8938 15 14 14.1062 14 13C14 11.8938 14.8938 11 16 11C17.1063 11 18 11.8938 18 13C18 14.1062 17.1063 15 16 15ZM24 15C22.8937 15 22 14.1062 22 13C22 11.8938 22.8937 11 24 11C25.1063 11 26 11.8938 26 13C26 14.1062 25.1063 15 24 15Z" fill="#0165E1" /></svg>