<svg width="32" height="26" viewBox="0 0 32 26" fill="none" xmlns="http://www.w3.org/2000/svg">
 <path  d= "M3.19851 12.2026C3.19851 14.6826 4.26851 16.9525 6.0485 18.7375C5.4185 21.2525 3.33351 23.4975 3.30851 23.5275C3.19851 23.6425 3.16851 23.8125 3.23351 23.9625C3.29851 24.1075 3.43851 24.2025 3.59851 24.2025C6.91349 24.2025 9.39848 22.6125 10.6285 21.6325C12.2635 22.2475 14.0785 22.6025 15.9984 22.6025C17.3684 22.6025 18.6834 22.4225 19.9184 22.1025L3.64351 9.52258C3.36351 10.3776 3.19851 11.2726 3.19851 12.2026ZM31.6884 23.1075L25.9684 18.6875C27.7284 16.9075 28.7984 14.6626 28.7984 12.2026C28.7984 6.4576 23.0684 1.80262 15.9984 1.80262C12.7435 1.80262 9.78848 2.80762 7.52849 4.43761L2.27352 0.372628C1.92352 0.10263 1.42352 0.162629 1.14852 0.512628L0.168527 1.77262C-0.101472 2.12262 -0.0414722 2.62262 0.308526 2.89262L29.7284 25.6275C30.0784 25.8975 30.5784 25.8375 30.8534 25.4875L31.8334 24.2225C32.1034 23.8825 32.0384 23.3775 31.6884 23.1075Z" fill="#0165E1" /></svg>