<svg width="32" height="32" viewBox="0 0 32 32" fill="none" xmlns="http://www.w3.org/2000/svg">
 <path  d= "M16 0C7.16129 0 0 7.16129 0 16C0 24.8387 7.16129 32 16 32C24.8387 32 32 24.8387 32 16C32 7.16129 24.8387 0 16 0ZM5.67742 16H3.6129C3.6129 9.16774 9.16774 3.6129 16 3.6129V5.67742C10.3097 5.67742 5.67742 10.3097 5.67742 16ZM16 22.1935C12.5806 22.1935 9.80645 19.4194 9.80645 16C9.80645 12.5806 12.5806 9.80645 16 9.80645C19.4194 9.80645 22.1935 12.5806 22.1935 16C22.1935 19.4194 19.4194 22.1935 16 22.1935ZM16 13.9355C14.8581 13.9355 13.9355 14.8581 13.9355 16C13.9355 17.1419 14.8581 18.0645 16 18.0645C17.1419 18.0645 18.0645 17.1419 18.0645 16C18.0645 14.8581 17.1419 13.9355 16 13.9355Z" fill="#0165E1" /></svg>