<svg width="32" height="32" viewBox="0 0 32 32" fill="none" xmlns="http://www.w3.org/2000/svg">
 <path  d= "M31.1429 11.4286H22.2857C21.3357 11.4286 20.5714 10.6643 20.5714 9.71429V0.857143C20.5714 0.385714 20.9571 0 21.4286 0H24.2857C24.7571 0 25.1429 0.385714 25.1429 0.857143V6.85714H31.1429C31.6143 6.85714 32 7.24286 32 7.71429V10.5714C32 11.0429 31.6143 11.4286 31.1429 11.4286ZM11.4286 9.71429V0.857143C11.4286 0.385714 11.0429 0 10.5714 0H7.71429C7.24286 0 6.85714 0.385714 6.85714 0.857143V6.85714H0.857143C0.385714 6.85714 0 7.24286 0 7.71429V10.5714C0 11.0429 0.385714 11.4286 0.857143 11.4286H9.71429C10.6643 11.4286 11.4286 10.6643 11.4286 9.71429ZM11.4286 31.1429V22.2857C11.4286 21.3357 10.6643 20.5714 9.71429 20.5714H0.857143C0.385714 20.5714 0 20.9571 0 21.4286V24.2857C0 24.7571 0.385714 25.1429 0.857143 25.1429H6.85714V31.1429C6.85714 31.6143 7.24286 32 7.71429 32H10.5714C11.0429 32 11.4286 31.6143 11.4286 31.1429ZM25.1429 31.1429V25.1429H31.1429C31.6143 25.1429 32 24.7571 32 24.2857V21.4286C32 20.9571 31.6143 20.5714 31.1429 20.5714H22.2857C21.3357 20.5714 20.5714 21.3357 20.5714 22.2857V31.1429C20.5714 31.6143 20.9571 32 21.4286 32H24.2857C24.7571 32 25.1429 31.6143 25.1429 31.1429Z" fill="#0165E1" /></svg>