<svg width="32" height="32" viewBox="0 0 32 32" fill="none" xmlns="http://www.w3.org/2000/svg">
 <path  d= "M32 16C32 24.8366 24.8366 32 16 32C7.16342 32 0 24.8366 0 16C0 7.16342 7.16342 0 16 0C24.8366 0 32 7.16342 32 16ZM19.3191 7.28026L12.697 13.5886C12.4818 13.7936 12.3301 14.0563 12.2601 14.3453L10.1079 23.2343C9.74148 24.7477 11.5774 25.7709 12.6808 24.7197L19.3028 18.4114C19.5181 18.2063 19.6697 17.9436 19.7397 17.6546L21.8919 8.76568C22.2543 7.26903 20.4344 6.21774 19.3191 7.28026ZM16 13.9355C14.8598 13.9355 13.9355 14.8598 13.9355 16C13.9355 17.1402 14.8598 18.0645 16 18.0645C17.1402 18.0645 18.0645 17.1402 18.0645 16C18.0645 14.8598 17.1402 13.9355 16 13.9355Z" fill="#0165E1" /></svg>