<svg width="32" height="32" viewBox="0 0 32 32" fill="none" xmlns="http://www.w3.org/2000/svg">
 <path  d= "M31.9072 15.9881C27.5342 15.935 24.003 12.3826 24.003 7.99705C19.6175 7.99705 16.0657 4.4665 16.0119 0.0940803C14.3082 -0.164665 12.5664 0.11283 11.0295 0.895315L6.70898 3.09652C5.15365 3.88915 3.88927 5.15397 3.09718 6.70958L0.903468 11.0145C0.109018 12.5741 -0.171453 14.345 0.102233 16.0738L0.857219 20.8406C1.13063 22.5676 1.9436 24.1638 3.17967 25.4005L6.60273 28.8229C7.8349 30.0555 9.42567 30.8663 11.147 31.1391L15.9413 31.8985C17.6606 32.171 19.4225 31.8916 20.9743 31.101L25.2949 28.9004C26.8501 28.1076 28.1144 26.8428 28.9067 25.2873L31.1004 20.9824C31.8854 19.4425 32.1635 17.6962 31.9072 15.9881ZM11.0001 22.9993C9.89579 22.9993 9.00019 22.1037 9.00019 20.9993C9.00019 19.8949 9.89579 18.9993 11.0001 18.9993C12.1045 18.9993 13.0001 19.8949 13.0001 20.9993C13.0001 22.1037 12.1045 22.9993 11.0001 22.9993ZM13.0001 12.9995C11.8958 12.9995 11.0001 12.1038 11.0001 10.9995C11.0001 9.89514 11.8958 8.99953 13.0001 8.99953C14.1045 8.99953 15.0001 9.89514 15.0001 10.9995C15.0001 12.1038 14.1045 12.9995 13.0001 12.9995ZM22.9999 20.9993C21.8956 20.9993 21 20.1037 21 18.9993C21 17.895 21.8956 16.9994 22.9999 16.9994C24.1043 16.9994 24.9999 17.895 24.9999 18.9993C24.9999 20.1037 24.1043 20.9993 22.9999 20.9993Z" fill="#0165E1" /></svg>