<svg width="32" height="32" viewBox="0 0 32 32" fill="none" xmlns="http://www.w3.org/2000/svg">
 <path  d= "M31.898 15.924L31.143 11.158C30.8696 9.4312 30.0567 7.83527 28.8206 6.59883L25.3983 3.17712C24.1652 1.94467 22.5747 1.13346 20.8542 0.861601L16.0606 0.102262C14.3413 -0.170225 12.5802 0.109137 11.0284 0.899724L6.70858 3.10024C5.15345 3.89279 3.88915 5.15731 3.09687 6.71257L0.903226 11.0174C0.108753 12.5766 -0.171716 14.3474 0.102014 16.0759L0.856978 20.8425C1.1304 22.5693 1.94335 24.1652 3.17937 25.4017L6.60171 28.8234C7.83405 30.0555 9.42471 30.8661 11.1459 31.1389L15.9394 31.8976C17.6587 32.1701 19.4198 31.8907 20.9716 31.1008L25.2914 28.9003C26.8464 28.1075 28.1107 26.8431 28.9031 25.2879L31.0968 20.9838C31.8911 19.4238 32.1717 17.6527 31.898 15.924ZM11.0009 22.9993C9.89655 22.9993 9.00097 22.1037 9.00097 20.9994C9.00097 19.8951 9.89655 18.9995 11.0009 18.9995C12.1052 18.9995 13.0008 19.8951 13.0008 20.9994C13.0008 22.1037 12.1052 22.9993 11.0009 22.9993ZM13.0008 12.9998C11.8965 12.9998 11.0009 12.1042 11.0009 10.9999C11.0009 9.89555 11.8965 8.99996 13.0008 8.99996C14.1051 8.99996 15.0007 9.89555 15.0007 10.9999C15.0007 12.1042 14.1051 12.9998 13.0008 12.9998ZM23.0003 20.9994C21.896 20.9994 21.0004 20.1038 21.0004 18.9995C21.0004 17.8952 21.896 16.9996 23.0003 16.9996C24.1046 16.9996 25.0002 17.8952 25.0002 18.9995C25.0002 20.1038 24.1046 20.9994 23.0003 20.9994Z" fill="#0165E1" /></svg>