<svg width="32" height="32" viewBox="0 0 32 32" fill="none" xmlns="http://www.w3.org/2000/svg">
 <path  d= "M16 0C7.16342 0 0 7.16342 0 16C0 24.8366 7.16342 32 16 32C24.8366 32 32 24.8366 32 16C32 7.16342 24.8366 0 16 0ZM23.557 22.3712C23.4543 22.4916 20.9908 25.3215 16.4699 25.3215C11.0059 25.3215 7.14832 21.2403 7.14832 15.9301C7.14832 10.6848 11.1486 6.67845 16.4233 6.67845C20.7431 6.67845 23.0017 9.08587 23.0957 9.18839C23.2115 9.31464 23.2822 9.47574 23.2966 9.64646C23.3111 9.81719 23.2685 9.98788 23.1755 10.1318L21.7317 12.3676C21.4705 12.7719 20.9075 12.8419 20.5553 12.5157C20.5403 12.5019 18.8437 10.975 16.563 10.975C13.5878 10.975 11.7943 13.1412 11.7943 15.8835C11.7943 18.4385 13.4403 21.025 16.5863 21.025C19.0829 21.025 20.7979 19.1967 20.815 19.1782C21.1461 18.8192 21.722 18.8535 22.009 19.2461L23.5927 21.4121C23.6955 21.5526 23.7479 21.7238 23.7414 21.8978C23.7349 22.0718 23.67 22.2386 23.557 22.3712Z" fill="#0165E1" /></svg>