<svg width="28" height="32" viewBox="0 0 28 32" fill="none" xmlns="http://www.w3.org/2000/svg">
 <path  d= "M20 28V30.5C20 31.3284 19.3284 32 18.5 32H1.5C0.671562 32 0 31.3284 0 30.5V7.5C0 6.67156 0.671562 6 1.5 6H6V24.5C6 26.4299 7.57006 28 9.5 28H20ZM20 6.5V0H9.5C8.67156 0 8 0.671562 8 1.5V24.5C8 25.3284 8.67156 26 9.5 26H26.5C27.3284 26 28 25.3284 28 24.5V8H21.5C20.675 8 20 7.325 20 6.5ZM27.5607 4.56069L23.4393 0.439312C23.158 0.158027 22.7765 2.07998e-06 22.3787 0L22 0V6H28V5.62131C28 5.2235 27.842 4.84199 27.5607 4.56069Z" fill="#0165E1" /></svg>