<svg width="32" height="20" viewBox="0 0 32 20" fill="none" xmlns="http://www.w3.org/2000/svg">
 <path  d= "M8 8.40002V11.6H24V8.40002C24 6.63502 25.435 5.20002 27.2 5.20002H28.8C28.8 2.55002 26.65 0.400024 24 0.400024H8C5.35 0.400024 3.2 2.55002 3.2 5.20002H4.8C6.565 5.20002 8 6.63502 8 8.40002ZM28.8 6.80002H27.2C26.315 6.80002 25.6 7.51502 25.6 8.40002V13.2H6.4V8.40002C6.4 7.51502 5.685 6.80002 4.8 6.80002H3.2C1.435 6.80002 0 8.23502 0 10C0 11.18 0.65 12.2 1.6 12.755V18.8C1.6 19.24 1.96 19.6 2.4 19.6H5.6C6.04 19.6 6.4 19.24 6.4 18.8V18H25.6V18.8C25.6 19.24 25.96 19.6 26.4 19.6H29.6C30.04 19.6 30.4 19.24 30.4 18.8V12.755C31.35 12.2 32 11.18 32 10C32 8.23502 30.565 6.80002 28.8 6.80002Z" fill="#0165E1" /></svg>