<svg width="32" height="26" viewBox="0 0 32 26" fill="none" xmlns="http://www.w3.org/2000/svg">
 <path  d= "M0 22.7778C0 24.25 1.19444 25.4444 2.66667 25.4444H29.3333C30.8056 25.4444 32 24.25 32 22.7778V13H0V22.7778ZM10.6667 19C10.6667 18.6333 10.9667 18.3333 11.3333 18.3333H18.8889C19.2556 18.3333 19.5556 18.6333 19.5556 19V21.2222C19.5556 21.5889 19.2556 21.8889 18.8889 21.8889H11.3333C10.9667 21.8889 10.6667 21.5889 10.6667 21.2222V19ZM3.55556 19C3.55556 18.6333 3.85556 18.3333 4.22222 18.3333H8.22222C8.58889 18.3333 8.88889 18.6333 8.88889 19V21.2222C8.88889 21.5889 8.58889 21.8889 8.22222 21.8889H4.22222C3.85556 21.8889 3.55556 21.5889 3.55556 21.2222V19ZM32 3.22221V5.88888H0V3.22221C0 1.74999 1.19444 0.555542 2.66667 0.555542H29.3333C30.8056 0.555542 32 1.74999 32 3.22221Z" fill="#0165E1" /></svg>