<svg width="32" height="32" viewBox="0 0 32 32" fill="none" xmlns="http://www.w3.org/2000/svg">
 <path  d= "M30.5 22H28V6C28 4.89563 27.1044 4 26 4H12V10H22V30.5C22 31.3281 22.6719 32 23.5 32H26.5C27.3281 32 28 31.3281 28 30.5V28H30.5C31.3281 28 32 27.3281 32 26.5V23.5C32 22.6712 31.3281 22 30.5 22ZM10 1.5C10 0.67125 9.32812 0 8.5 0H5.5C4.67188 0 4 0.67125 4 1.5V4H1.5C0.671875 4 0 4.67125 0 5.5V8.5C0 9.32812 0.671875 10 1.5 10H4V26C4 27.1044 4.89563 28 6 28H20V22H10V1.5Z" fill="#0165E1" /></svg>