<svg width="32" height="26" viewBox="0 0 32 26" fill="none" xmlns="http://www.w3.org/2000/svg">
 <path  d= "M26.4 22.6H5.6C5.16 22.6 4.8 22.96 4.8 23.4V25C4.8 25.44 5.16 25.8 5.6 25.8H26.4C26.84 25.8 27.2 25.44 27.2 25V23.4C27.2 22.96 26.84 22.6 26.4 22.6ZM29.6 6.59995C28.275 6.59995 27.2 7.67495 27.2 8.99995C27.2 9.35495 27.28 9.68495 27.42 9.98995L23.8 12.16C23.03 12.62 22.035 12.36 21.59 11.58L17.515 4.44995C18.05 4.00995 18.4 3.34995 18.4 2.59995C18.4 1.27495 17.325 0.199951 16 0.199951C14.675 0.199951 13.6 1.27495 13.6 2.59995C13.6 3.34995 13.95 4.00995 14.485 4.44995L10.41 11.58C9.965 12.36 8.965 12.62 8.2 12.16L4.585 9.98995C4.72 9.68995 4.805 9.35495 4.805 8.99995C4.805 7.67495 3.73 6.59995 2.405 6.59995C1.08 6.59995 0 7.67495 0 8.99995C0 10.325 1.075 11.4 2.4 11.4C2.53 11.4 2.66 11.38 2.785 11.36L6.4 21H25.6L29.215 11.36C29.34 11.38 29.47 11.4 29.6 11.4C30.925 11.4 32 10.325 32 8.99995C32 7.67495 30.925 6.59995 29.6 6.59995Z" fill="#0165E1" /></svg>