<svg width="32" height="26" viewBox="0 0 32 26" fill="none" xmlns="http://www.w3.org/2000/svg">
 <path  d= "M27.2 1.80007H26.382C25.652 0.834073 24.5045 0.200073 23.2 0.200073C20.991 0.200073 19.2 1.99107 19.2 4.20007V5.24907L0.6045 19.8786C0.41685 20.0193 0.264534 20.2017 0.159611 20.4115C0.0546889 20.6212 4.26905e-05 20.8525 0 21.0871C0 22.2101 1.182 22.9406 2.1865 22.4386L8.2635 19.4001H13.088L15.3085 25.4051C15.422 25.7166 15.766 25.8771 16.0775 25.7636L17.205 25.3531C17.5165 25.2396 17.677 24.8956 17.5635 24.5841L15.647 19.4001H17.6C17.6955 19.4001 17.788 19.3886 17.883 19.3856L20.1085 25.4046C20.222 25.7161 20.566 25.8766 20.8775 25.7631L22.005 25.3526C22.3165 25.2391 22.477 24.8951 22.3635 24.5836L20.3015 19.0071C24.287 17.8401 27.2 14.1631 27.2 9.80007V5.80007L32 5.00007C32 3.23257 29.851 1.80007 27.2 1.80007ZM23.2 5.40007C22.5375 5.40007 22 4.86257 22 4.20007C22 3.53707 22.5375 3.00007 23.2 3.00007C23.8625 3.00007 24.4 3.53707 24.4 4.20007C24.4 4.86257 23.8625 5.40007 23.2 5.40007Z" fill="#0165E1" /></svg>