<svg width="32" height="32" viewBox="0 0 32 32" fill="none" xmlns="http://www.w3.org/2000/svg">
 <path  d= "M14.9467 0.464522L1.94413 5.34047C0.775151 5.77806 0 6.90328 0 8.15352V22.225C0 23.3627 0.643876 24.4004 1.65657 24.9068L14.6591 31.4081C15.503 31.8331 16.497 31.8331 17.3409 31.4081L30.3434 24.9068C31.3624 24.4004 32 23.3565 32 22.225V8.15352C32 6.90328 31.2248 5.78431 30.0559 5.34673L17.0533 0.470773C16.3782 0.208222 15.6281 0.208222 14.9467 0.464522ZM16.0031 4.34653L28.0055 8.84741V8.91617L16.0031 13.7921L4.00078 8.91617V8.84741L16.0031 4.34653ZM18.0035 26.6009V17.2928L28.0055 13.2295V21.5999L18.0035 26.6009Z" fill="#0165E1" /></svg>