<svg width="32" height="30" viewBox="0 0 32 30" fill="none" xmlns="http://www.w3.org/2000/svg">
 <path  d= "M30.5375 14.6375L24.5 12.375V5.59373C24.5 4.65623 23.9188 3.81873 23.0375 3.48748L16.7875 1.14373C16.2812 0.949976 15.7188 0.949976 15.2063 1.14373L8.95625 3.48748C8.075 3.81873 7.49375 4.65623 7.49375 5.59373V12.375L1.45625 14.6375C0.58125 14.9687 0 15.8062 0 16.7437V23.625C0 24.475 0.48125 25.2562 1.24375 25.6375L7.49375 28.7625C8.125 29.0812 8.875 29.0812 9.50625 28.7625L16 25.5125L22.4937 28.7625C23.125 29.0812 23.875 29.0812 24.5063 28.7625L30.7563 25.6375C31.5188 25.2562 32 24.475 32 23.625V16.7437C32 15.8062 31.4188 14.9687 30.5375 14.6375ZM22.375 12.425L17.0625 14.4187V10.1562L22.375 7.84373V12.425ZM9.625 5.50623L16 3.11873L22.375 5.50623V5.54373L16 8.13123L9.625 5.54373V5.50623ZM14.875 23.7L9.5625 26.3562V21.4125L14.875 18.9875V23.7ZM14.875 16.7L8.5 19.2875L2.125 16.7V16.6625L8.5 14.275L14.875 16.6625V16.7ZM29.875 23.7L24.5625 26.3562V21.4125L29.875 18.9875V23.7ZM29.875 16.7L23.5 19.2875L17.125 16.7V16.6625L23.5 14.275L29.875 16.6625V16.7Z" fill="#0165E1" /></svg>