<svg width="32" height="32" viewBox="0 0 32 32" fill="none" xmlns="http://www.w3.org/2000/svg">
 <path  d= "M19.8615 16L31.7487 4.11204C32.0838 3.77704 32.0838 3.23418 31.7487 2.89989C29.4059 0.557024 25.6066 0.557024 23.2637 2.89989L15.0129 11.1514L13.2372 9.37564C13.5451 8.59564 13.7144 7.74635 13.7144 6.85706C13.7144 3.0699 10.6443 -0.00012207 6.85718 -0.00012207C3.07002 -0.00012207 0 3.0699 0 6.85706C0 10.6442 3.07002 13.7142 6.85718 13.7142C7.18147 13.7142 7.49933 13.6914 7.81147 13.6478L10.1636 16L7.81147 18.3521C7.49933 18.3086 7.18075 18.2857 6.85718 18.2857C3.07002 18.2857 0 21.3557 0 25.1429C0 28.93 3.07002 32.0001 6.85718 32.0001C10.6443 32.0001 13.7144 28.93 13.7144 25.1429C13.7144 24.2536 13.5451 23.4043 13.2372 22.6243L15.0129 20.8486L23.2637 29.1C25.6066 31.4429 29.4059 31.4429 31.7487 29.1C32.0838 28.7658 32.0838 28.2229 31.7487 27.8879L19.8615 16ZM6.85718 9.14279C5.59717 9.14279 4.57145 8.11707 4.57145 6.85706C4.57145 5.59705 5.59717 4.57133 6.85718 4.57133C8.11719 4.57133 9.14291 5.59705 9.14291 6.85706C9.14291 8.11707 8.11719 9.14279 6.85718 9.14279ZM6.85718 27.4286C5.59717 27.4286 4.57145 26.4029 4.57145 25.1429C4.57145 23.8829 5.59717 22.8571 6.85718 22.8571C8.11719 22.8571 9.14291 23.8829 9.14291 25.1429C9.14291 26.4029 8.11719 27.4286 6.85718 27.4286Z" fill="#0165E1" /></svg>