<svg width="28" height="32" viewBox="0 0 28 32" fill="none" xmlns="http://www.w3.org/2000/svg">
 <path  d= "M28 4.57144V7.42856C28 9.94644 21.7292 12 14 12C6.27081 12 0 9.94644 0 7.42856V4.57144C0 2.05356 6.27081 0 14 0C21.7292 0 28 2.05356 28 4.57144ZM28 11V17.4286C28 19.9464 21.7292 22 14 22C6.27081 22 0 19.9464 0 17.4286V11C3.00781 13.0714 8.513 14.0358 14 14.0358C19.487 14.0358 24.9921 13.0714 28 11ZM28 21V27.4286C28 29.9464 21.7292 32 14 32C6.27081 32 0 29.9464 0 27.4286V21C3.00781 23.0714 8.513 24.0357 14 24.0357C19.487 24.0357 24.9921 23.0714 28 21Z" fill="#0165E1" /></svg>