<svg width="32" height="32" viewBox="0 0 32 32" fill="none" xmlns="http://www.w3.org/2000/svg">
 <path  d= "M13.5 16.25C13.5 17.2165 12.7165 18 11.75 18C10.7835 18 9.99997 17.2165 9.99997 16.25C9.99997 13.493 12.243 11.25 15 11.25C17.757 11.25 20 13.493 20 16.25C20 17.2165 19.2165 18 18.25 18C17.2835 18 16.5 17.2165 16.5 16.25C16.5 15.4229 15.827 14.75 15 14.75C14.1729 14.75 13.5 15.4229 13.5 16.25ZM15 5.24997C8.93454 5.24997 3.99997 10.1845 3.99997 16.25C3.99997 17.2165 4.78347 18 5.74997 18C6.71647 18 7.49997 17.2165 7.49997 16.25C7.49997 12.1145 10.8645 8.74997 15 8.74997C19.1355 8.74997 22.5 12.1145 22.5 16.25C22.5 20.9477 18.0619 20.6444 18.0002 25.2264L18 25.25C18 27.042 16.542 28.5 14.75 28.5C13.7835 28.5 13 29.2835 13 30.25C13 31.2165 13.7835 32 14.75 32C18.4672 32 21.4922 28.9795 21.5 25.2641C21.5372 23.1124 26 22.2491 26 16.25C26 10.1845 21.0654 5.24997 15 5.24997ZM31.7803 1.98741L30.0125 0.219656C29.7195 -0.0732188 29.2447 -0.0732188 28.9518 0.219656L23.5125 5.65897C23.2196 5.95185 23.2196 6.42672 23.5125 6.71966L25.2803 8.48747C25.5732 8.78035 26.048 8.78035 26.3409 8.48747L31.7803 3.04816C32.0732 2.75516 32.0732 2.28028 31.7803 1.98741ZM10.5606 19.6715C10.2677 19.3787 9.79285 19.3787 9.49997 19.6715L0.219656 28.9519C-0.0732188 29.2447 -0.0732188 29.7196 0.219656 30.0125L1.98747 31.7803C2.28041 32.0732 2.75522 32.0732 3.04816 31.7803L12.3285 22.5C12.6213 22.2071 12.6213 21.7322 12.3285 21.4393L10.5606 19.6715Z" fill="#0165E1" /></svg>