<svg width="32" height="26" viewBox="0 0 32 26" fill="none" xmlns="http://www.w3.org/2000/svg">
 <path  d= "M24.8 13C25.24 13 25.6 12.64 25.6 12.2C25.6 11.76 25.24 11.4 24.8 11.4C24.36 11.4 24 11.76 24 12.2C24 12.64 24.36 13 24.8 13ZM16 8.99995C18.425 8.99995 20.4 7.02495 20.4 4.59995C20.4 2.17495 18.425 0.199951 16 0.199951C13.575 0.199951 11.6 2.17495 11.6 4.59995C11.6 7.02495 13.575 8.99995 16 8.99995ZM2.99 18.4C3.5 19.165 4.455 19.29 5.135 18.89C5.945 18.41 7.945 17.305 10.4 16.46V21H21.6V16.465C24.055 17.305 26.055 18.415 26.865 18.895C27.545 19.295 28.5 19.16 29.01 18.405L29.9 17.07C30.34 16.41 30.28 15.34 29.4 14.815C28.805 14.46 27.915 13.965 26.845 13.445C25.44 15.75 21.875 14.335 22.46 11.69C20.465 11.06 18.255 10.6 16 10.6C13.15 10.6 10.355 11.325 8 12.21C7.99 14.22 5.62 15.375 4.04 14.01C3.48 14.31 2.975 14.59 2.605 14.81C1.725 15.335 1.665 16.4 2.105 17.065L2.99 18.4ZM18.4 17.4C19.065 17.4 19.6 17.935 19.6 18.6C19.6 19.265 19.065 19.8 18.4 19.8C17.735 19.8 17.2 19.265 17.2 18.6C17.2 17.935 17.735 17.4 18.4 17.4ZM13.6 12.6C14.265 12.6 14.8 13.135 14.8 13.8C14.8 14.465 14.265 15 13.6 15C12.935 15 12.4 14.465 12.4 13.8C12.4 13.135 12.935 12.6 13.6 12.6ZM5.6 13C6.04 13 6.4 12.64 6.4 12.2C6.4 11.76 6.04 11.4 5.6 11.4C5.16 11.4 4.8 11.76 4.8 12.2C4.8 12.64 5.16 13 5.6 13ZM31.2 22.6H0.8C0.36 22.6 0 22.96 0 23.4V25C0 25.44 0.36 25.8 0.8 25.8H31.2C31.64 25.8 32 25.44 32 25V23.4C32 22.96 31.64 22.6 31.2 22.6Z" fill="#0165E1" /></svg>