<svg width="32" height="32" viewBox="0 0 32 32" fill="none" xmlns="http://www.w3.org/2000/svg">
 <path  d= "M27.4286 0H4.57143C2.04643 0 0 2.04643 0 4.57143V27.4286C0 29.9536 2.04643 32 4.57143 32H27.4286C29.9536 32 32 29.9536 32 27.4286V4.57143C32 2.04643 29.9536 0 27.4286 0ZM9.14286 25.1429C7.88071 25.1429 6.85714 24.1193 6.85714 22.8571C6.85714 21.595 7.88071 20.5714 9.14286 20.5714C10.405 20.5714 11.4286 21.595 11.4286 22.8571C11.4286 24.1193 10.405 25.1429 9.14286 25.1429ZM9.14286 18.2857C7.88071 18.2857 6.85714 17.2621 6.85714 16C6.85714 14.7379 7.88071 13.7143 9.14286 13.7143C10.405 13.7143 11.4286 14.7379 11.4286 16C11.4286 17.2621 10.405 18.2857 9.14286 18.2857ZM9.14286 11.4286C7.88071 11.4286 6.85714 10.405 6.85714 9.14286C6.85714 7.88071 7.88071 6.85714 9.14286 6.85714C10.405 6.85714 11.4286 7.88071 11.4286 9.14286C11.4286 10.405 10.405 11.4286 9.14286 11.4286ZM22.8571 25.1429C21.595 25.1429 20.5714 24.1193 20.5714 22.8571C20.5714 21.595 21.595 20.5714 22.8571 20.5714C24.1193 20.5714 25.1429 21.595 25.1429 22.8571C25.1429 24.1193 24.1193 25.1429 22.8571 25.1429ZM22.8571 18.2857C21.595 18.2857 20.5714 17.2621 20.5714 16C20.5714 14.7379 21.595 13.7143 22.8571 13.7143C24.1193 13.7143 25.1429 14.7379 25.1429 16C25.1429 17.2621 24.1193 18.2857 22.8571 18.2857ZM22.8571 11.4286C21.595 11.4286 20.5714 10.405 20.5714 9.14286C20.5714 7.88071 21.595 6.85714 22.8571 6.85714C24.1193 6.85714 25.1429 7.88071 25.1429 9.14286C25.1429 10.405 24.1193 11.4286 22.8571 11.4286Z" fill="#0165E1" /></svg>