<svg width="32" height="26" viewBox="0 0 32 26" fill="none" xmlns="http://www.w3.org/2000/svg">
 <path  d= "M29.6 9.79995H23.663C24.2975 11.2795 24.019 13.06 22.813 14.266L16 21.079V23.4C16 24.7255 17.0745 25.8 18.4 25.8H29.6C30.9255 25.8 32 24.7255 32 23.4V12.2C32 10.8745 30.9255 9.79995 29.6 9.79995ZM24 19C23.3375 19 22.8 18.4625 22.8 17.8C22.8 17.137 23.3375 16.6 24 16.6C24.6625 16.6 25.2 17.137 25.2 17.8C25.2 18.4625 24.6625 19 24 19ZM21.6815 9.66495L12.935 0.918451C11.977 -0.0395488 10.4235 -0.0395488 9.4655 0.918451L0.7185 9.66495C-0.2395 10.623 -0.2395 12.1765 0.7185 13.1345L9.465 21.8815C10.423 22.8395 11.9765 22.8395 12.9345 21.8815L21.6815 13.135C22.6395 12.1765 22.6395 10.623 21.6815 9.66495ZM4.8 12.6C4.1375 12.6 3.6 12.0625 3.6 11.4C3.6 10.737 4.1375 10.2 4.8 10.2C5.4625 10.2 6 10.737 6 11.4C6 12.0625 5.4625 12.6 4.8 12.6ZM11.2 19C10.5375 19 10 18.4625 10 17.8C10 17.137 10.5375 16.6 11.2 16.6C11.8625 16.6 12.4 17.137 12.4 17.8C12.4 18.4625 11.8625 19 11.2 19ZM11.2 12.6C10.5375 12.6 10 12.0625 10 11.4C10 10.737 10.5375 10.2 11.2 10.2C11.8625 10.2 12.4 10.737 12.4 11.4C12.4 12.0625 11.8625 12.6 11.2 12.6ZM11.2 6.19995C10.5375 6.19995 10 5.66245 10 4.99995C10 4.33695 10.5375 3.79995 11.2 3.79995C11.8625 3.79995 12.4 4.33695 12.4 4.99995C12.4 5.66245 11.8625 6.19995 11.2 6.19995ZM17.6 12.6C16.9375 12.6 16.4 12.0625 16.4 11.4C16.4 10.737 16.9375 10.2 17.6 10.2C18.2625 10.2 18.8 10.737 18.8 11.4C18.8 12.0625 18.2625 12.6 17.6 12.6Z" fill="#0165E1" /></svg>