<svg width="32" height="32" viewBox="0 0 32 32" fill="none" xmlns="http://www.w3.org/2000/svg">
 <path  d= "M27.4286 0H4.57143C2.04643 0 0 2.04643 0 4.57143V27.4286C0 29.9536 2.04643 32 4.57143 32H27.4286C29.9536 32 32 29.9536 32 27.4286V4.57143C32 2.04643 29.9536 0 27.4286 0ZM9.14286 11.4286C7.88071 11.4286 6.85714 10.405 6.85714 9.14286C6.85714 7.88071 7.88071 6.85714 9.14286 6.85714C10.405 6.85714 11.4286 7.88071 11.4286 9.14286C11.4286 10.405 10.405 11.4286 9.14286 11.4286ZM22.8571 25.1429C21.595 25.1429 20.5714 24.1193 20.5714 22.8571C20.5714 21.595 21.595 20.5714 22.8571 20.5714C24.1193 20.5714 25.1429 21.595 25.1429 22.8571C25.1429 24.1193 24.1193 25.1429 22.8571 25.1429Z" fill="#0165E1" /></svg>