<svg width="32" height="16" viewBox="0 0 32 16" fill="none" xmlns="http://www.w3.org/2000/svg">
 <path  d= "M30.4 0H1.6C0.7165 0 0 0.7165 0 1.6V14.4C0 15.2835 0.7165 16 1.6 16H30.4C31.2835 16 32 15.2835 32 14.4V1.6C32 0.7165 31.2835 0 30.4 0ZM15.2 12.8C15.2 13.021 15.021 13.2 14.8 13.2H3.6C3.379 13.2 3.2 13.021 3.2 12.8V12.4C3.2 12.179 3.379 12 3.6 12H14.8C15.021 12 15.2 12.179 15.2 12.4V12.8ZM3.6 9.6V8.8C3.6 8.579 3.779 8.4 4 8.4H4.8C5.021 8.4 5.2 8.579 5.2 8.8V9.6C5.2 9.821 5.021 10 4.8 10H4C3.779 10 3.6 9.821 3.6 9.6ZM6.8 9.6V8.8C6.8 8.579 6.979 8.4 7.2 8.4H8C8.221 8.4 8.4 8.579 8.4 8.8V9.6C8.4 9.821 8.221 10 8 10H7.2C6.979 10 6.8 9.821 6.8 9.6ZM10 9.6V8.8C10 8.579 10.179 8.4 10.4 8.4H11.2C11.421 8.4 11.6 8.579 11.6 8.8V9.6C11.6 9.821 11.421 10 11.2 10H10.4C10.179 10 10 9.821 10 9.6ZM13.2 9.6V8.8C13.2 8.579 13.379 8.4 13.6 8.4H14.4C14.621 8.4 14.8 8.579 14.8 8.8V9.6C14.8 9.821 14.621 10 14.4 10H13.6C13.379 10 13.2 9.821 13.2 9.6ZM15.2 6.4C15.2 6.842 14.842 7.2 14.4 7.2H4C3.558 7.2 3.2 6.842 3.2 6.4V4C3.2 3.558 3.558 3.2 4 3.2H14.4C14.842 3.2 15.2 3.558 15.2 4V6.4ZM28.8 12.8C28.8 13.021 28.621 13.2 28.4 13.2H17.2C16.979 13.2 16.8 13.021 16.8 12.8V12.4C16.8 12.179 16.979 12 17.2 12H28.4C28.621 12 28.8 12.179 28.8 12.4V12.8Z" fill="#0165E1" /></svg>