<svg width="32" height="32" viewBox="0 0 32 32" fill="none" xmlns="http://www.w3.org/2000/svg">
 <path  d= "M16 22.8571C13.475 22.8571 11.4286 24.9036 11.4286 27.4286C11.4286 29.9536 13.475 32 16 32C18.525 32 20.5714 29.9536 20.5714 27.4286C20.5714 24.9036 18.525 22.8571 16 22.8571ZM16 9.14286C18.525 9.14286 20.5714 7.09643 20.5714 4.57143C20.5714 2.04643 18.525 0 16 0C13.475 0 11.4286 2.04643 11.4286 4.57143C11.4286 7.09643 13.475 9.14286 16 9.14286ZM29.7143 12.5714H2.28571C1.02357 12.5714 0 13.595 0 14.8571V17.1429C0 18.405 1.02357 19.4286 2.28571 19.4286H29.7143C30.9764 19.4286 32 18.405 32 17.1429V14.8571C32 13.595 30.9764 12.5714 29.7143 12.5714Z" fill="#0165E1" /></svg>