<svg width="32" height="32" viewBox="0 0 32 32" fill="none" xmlns="http://www.w3.org/2000/svg">
 <path  d= "M16 0C7.16129 0 0 7.16129 0 16C0 24.8387 7.16129 32 16 32C24.8387 32 32 24.8387 32 16C32 7.16129 24.8387 0 16 0ZM9.80645 13.329L7.95484 15.1806C7 16.1355 5.51613 14.6968 6.49677 13.7226L8.34839 11.871L6.49677 10.0194C5.52903 9.05161 6.99355 7.59355 7.95484 8.56129L9.80645 10.4129L11.6581 8.56129C12.6258 7.59355 14.0839 9.05806 13.1161 10.0194L11.2645 11.871L13.1161 13.7226C14.0968 14.7032 12.6065 16.1355 11.6581 15.1806L9.80645 13.329ZM16 26.3226C13.7226 26.3226 11.871 24.471 11.871 22.1935C11.871 19.9161 13.7226 18.0645 16 18.0645C18.2774 18.0645 20.129 19.9161 20.129 22.1935C20.129 24.471 18.2774 26.3226 16 26.3226ZM25.5032 13.7226C26.4839 14.7032 24.9935 16.1355 24.0452 15.1806L22.1935 13.329L20.3419 15.1806C19.3871 16.1355 17.9032 14.6968 18.8839 13.7226L20.7355 11.871L18.8839 10.0194C17.9161 9.05161 19.3806 7.59355 20.3419 8.56129L22.1935 10.4129L24.0452 8.56129C25.0129 7.59355 26.471 9.05806 25.5032 10.0194L23.6516 11.871L25.5032 13.7226Z" fill="#0165E1" /></svg>