<svg width="28" height="32" viewBox="0 0 28 32" fill="none" xmlns="http://www.w3.org/2000/svg">
 <path  d= "M0.00629519 30.8812C-0.0624545 31.4749 0.400043 31.9937 1.00004 31.9937L3.01878 31.9999C3.52503 31.9999 3.95003 31.6312 4.01878 31.1312C4.06253 30.8249 4.13128 30.4374 4.23128 29.9999H23.7499C23.8499 30.4312 23.9312 30.8249 23.9687 31.1312C24.0374 31.6312 24.4624 32.0062 24.9687 31.9999L26.9874 31.9937C27.5874 31.9937 28.0562 31.4749 27.9812 30.8812C27.6937 28.5124 26.3812 22.8187 20.5499 17.9C19.45 18.675 18.2312 19.4125 16.8937 20.1125C17.2812 20.4 17.6062 20.7 17.9562 21H9.98125C11.3125 19.8687 12.9187 18.775 14.9 17.7875C25.6562 12.4438 27.6312 4.11256 27.9937 1.11882C28.0624 0.525074 27.5999 0.00632696 26.9999 0.00632696L24.9749 7.69856e-05C24.4687 7.69856e-05 24.0437 0.368825 23.9749 0.868823C23.9312 1.17507 23.8624 1.56257 23.7624 2.00007H4.23753C4.13753 1.56257 4.06878 1.18132 4.02503 0.868823C3.95628 0.368825 3.53128 -0.00617298 3.02503 7.69856e-05L1.00629 0.00632696C0.406293 0.00632696 -0.0624545 0.525074 0.00629519 1.11882C0.331294 3.80006 1.96254 10.7375 10 16C1.96879 21.2625 0.331294 28.1999 0.00629519 30.8812ZM14 13.725C12.4312 12.8688 11.1 11.95 9.98125 11H18.0125C16.9 11.95 15.5687 12.875 14 13.725ZM22.1937 6.00005C21.8312 6.65004 21.3937 7.31879 20.8812 8.00004H7.12501C6.60626 7.31879 6.16877 6.65004 5.81252 6.00005H22.1937ZM5.80627 26C6.16877 25.35 6.60626 24.6812 7.11876 24H20.8312C21.3499 24.6812 21.7937 25.35 22.1562 26H5.80627Z" fill="#0165E1" /></svg>