<svg width="18" height="32" viewBox="0 0 18 32" fill="none" xmlns="http://www.w3.org/2000/svg">
 <path  d= "M13.0747 14.5875L6.32468 12.6125C5.54343 12.3875 4.99968 11.6562 4.99968 10.8438C4.99968 9.825 5.82468 9 6.84343 9H10.9872C11.7497 9 12.4997 9.23125 13.1247 9.65625C13.5059 9.9125 14.0184 9.85 14.3434 9.53125L16.5184 7.40625C16.9622 6.975 16.8997 6.25625 16.4059 5.875C14.8747 4.675 12.9622 4.00625 10.9997 4V1C10.9997 0.45 10.5497 0 9.99968 0H7.99968C7.44968 0 6.99968 0.45 6.99968 1V4H6.84343C2.86218 4 -0.337824 7.41875 0.0309262 11.475C0.293426 14.3563 2.49343 16.7 5.26843 17.5125L11.6747 19.3875C12.4559 19.6188 12.9997 20.3438 12.9997 21.1562C12.9997 22.175 12.1747 23 11.1559 23H7.01218C6.24968 23 5.49968 22.7687 4.87468 22.3438C4.49343 22.0875 3.98093 22.15 3.65593 22.4688L1.48093 24.5938C1.03718 25.025 1.09968 25.7437 1.59343 26.125C3.12468 27.325 5.03718 27.9937 6.99968 28V31C6.99968 31.55 7.44968 32 7.99968 32H9.99968C10.5497 32 10.9997 31.55 10.9997 31V27.9875C13.9122 27.9312 16.6434 26.2 17.6059 23.4438C18.9497 19.5938 16.6934 15.6437 13.0747 14.5875Z" fill="#0165E1" /></svg>