<svg width="32" height="30" viewBox="0 0 32 30" fill="none" xmlns="http://www.w3.org/2000/svg">
 <path  d= "M16.3438 16.2064C17.3438 16.4841 18.2715 16.9508 19.0937 17.5785L28.0656 14.5898C28.5323 14.4342 28.7823 13.9287 28.6267 13.4676L25.2713 3.4013C25.1157 2.93465 24.6102 2.68466 24.1491 2.84021L20.7548 3.9735L22.5936 9.49551L19.2215 10.6121L17.3827 5.09012L13.9606 6.22897C13.4939 6.38452 13.2439 6.89006 13.3995 7.35115L16.3438 16.2064ZM31.9544 18.9118L31.3877 17.223C31.2322 16.7564 30.7266 16.5064 30.2655 16.6619L18.4049 20.6173C17.4493 19.3951 15.9827 18.5952 14.3217 18.5618L8.79967 1.9958C8.55523 1.26805 7.87748 0.779175 7.11084 0.779175H0.888856C0.399985 0.779175 0 1.17916 0 1.66803V3.44574C0 3.93461 0.399985 4.3346 0.888856 4.3346H5.82756L10.9496 19.7062C9.49964 20.8395 8.63301 22.6839 8.94967 24.7338C9.28854 26.9226 11.0551 28.7503 13.2439 29.1337C16.5883 29.7281 19.4826 27.2004 19.5437 23.9894L31.3933 20.034C31.8544 19.8785 32.1099 19.3785 31.9544 18.9118ZM14.2217 26.556C12.7495 26.556 11.5551 25.3616 11.5551 23.8894C11.5551 22.4173 12.7495 21.2229 14.2217 21.2229C15.6939 21.2229 16.8883 22.4173 16.8883 23.8894C16.8883 25.3616 15.6939 26.556 14.2217 26.556Z" fill="#0165E1" /></svg>