<svg width="32" height="26" viewBox="0 0 32 26" fill="none" xmlns="http://www.w3.org/2000/svg">
 <path  d= "M10.4 16.2H29.6C30.04 16.2 30.4 15.84 30.4 15.4V2.59995C30.4 2.15995 30.04 1.79995 29.6 1.79995H22.4V8.19995L20 6.59995L17.6 8.19995V1.79995H10.4C9.96 1.79995 9.6 2.15995 9.6 2.59995V15.4C9.6 15.84 9.96 16.2 10.4 16.2ZM31.2 19.4H6.4V0.999951C6.4 0.559951 6.04 0.199951 5.6 0.199951H0.8C0.36 0.199951 0 0.559951 0 0.999951V2.59995C0 3.03995 0.36 3.39995 0.8 3.39995H3.2V21.8C3.2 22.24 3.56 22.6 4 22.6H8.145C8.055 22.85 8 23.12 8 23.4C8 24.725 9.075 25.8 10.4 25.8C11.725 25.8 12.8 24.725 12.8 23.4C12.8 23.12 12.74 22.85 12.655 22.6H22.55C22.46 22.85 22.405 23.12 22.405 23.4C22.405 24.725 23.48 25.8 24.805 25.8C26.13 25.8 27.205 24.725 27.205 23.4C27.205 23.12 27.145 22.85 27.06 22.6H31.2C31.64 22.6 32 22.24 32 21.8V20.2C32 19.76 31.64 19.4 31.2 19.4Z" fill="#0165E1" /></svg>