<svg width="32" height="32" viewBox="0 0 32 32" fill="none" xmlns="http://www.w3.org/2000/svg">
 <path  d= "M16 26C23.1812 26 29 20.1812 29 13C29 5.81875 23.1812 0 16 0C8.81875 0 3 5.81875 3 13C3 20.1812 8.81875 26 16 26ZM14.6125 6.0875V5.0375C14.6125 4.4625 15.075 4 15.65 4H16.3438C16.9188 4 17.3813 4.4625 17.3813 5.0375V6.1C18.35 6.15 19.2875 6.48125 20.0688 7.0625C20.4188 7.31875 20.4562 7.83125 20.1437 8.13125L19.125 9.1C18.8875 9.33125 18.5312 9.3375 18.25 9.1625C17.9125 8.95 17.5375 8.84375 17.1375 8.84375H14.7063C14.1438 8.84375 13.6875 9.35625 13.6875 9.9875C13.6875 10.5 14 10.9562 14.4438 11.0875L18.3375 12.2563C19.9438 12.7375 21.0688 14.2813 21.0688 16.0125C21.0688 18.1375 19.4188 19.8563 17.375 19.9125V20.9625C17.375 21.5375 16.9125 22 16.3375 22H15.6438C15.0688 22 14.6062 21.5375 14.6062 20.9625V19.9C13.6375 19.85 12.7 19.5187 11.9187 18.9375C11.5687 18.6812 11.5312 18.1687 11.8438 17.8687L12.8625 16.9C13.1 16.6687 13.4563 16.6625 13.7375 16.8375C14.075 17.05 14.45 17.1562 14.85 17.1562H17.2812C17.8438 17.1562 18.3 16.6438 18.3 16.0125C18.3 15.5 17.9875 15.0438 17.5438 14.9125L13.65 13.7437C12.0437 13.2625 10.9187 11.7188 10.9187 9.9875C10.925 7.8625 12.5688 6.14375 14.6125 6.0875ZM30 22H27.9688C26.7437 23.625 25.1812 24.9813 23.4062 26H27.3937C27.725 26 27.9937 26.225 27.9937 26.5V27.5C27.9937 27.775 27.725 28 27.3937 28H4.6C4.26875 28 4 27.775 4 27.5V26.5C4 26.225 4.26875 26 4.6 26H8.5875C6.8125 24.9813 5.25625 23.625 4.025 22H2C0.89375 22 0 22.8937 0 24V30C0 31.1063 0.89375 32 2 32H30C31.1063 32 32 31.1063 32 30V24C32 22.8937 31.1063 22 30 22Z" fill="#0165E1" /></svg>