<svg width="32" height="26" viewBox="0 0 32 26" fill="none" xmlns="http://www.w3.org/2000/svg">
 <path  d= "M31.2 22.5999H27.2V5.8724C27.2 4.5094 26.1235 3.3999 24.8 3.3999H19.2V6.5999H24V25.7999H31.2C31.642 25.7999 32 25.4419 32 24.9999V23.3999C32 22.9579 31.642 22.5999 31.2 22.5999ZM15.612 0.250402L6.012 2.7374C5.2995 2.9219 4.8 3.5849 4.8 4.3459V22.5999H0.8C0.358 22.5999 0 22.9579 0 23.3999V24.9999C0 25.4419 0.358 25.7999 0.8 25.7999H17.6V1.8589C17.6 0.779903 16.622 -0.0115975 15.612 0.250402ZM13.2 14.5999C12.5375 14.5999 12 13.8834 12 12.9999C12 12.1164 12.5375 11.3999 13.2 11.3999C13.8625 11.3999 14.4 12.1164 14.4 12.9999C14.4 13.8834 13.8625 14.5999 13.2 14.5999Z" fill="#0165E1" /></svg>