<svg width="32" height="26" viewBox="0 0 32 26" fill="none" xmlns="http://www.w3.org/2000/svg">
 <path  d= "M31.2 22.6H25.6V2.73995C25.6 1.33895 24.5235 0.199951 23.2 0.199951H8.7995C7.476 0.199951 6.3995 1.33895 6.3995 2.73995V22.6H0.8C0.358 22.6 0 22.958 0 23.4V25C0 25.442 0.358 25.8 0.8 25.8H31.2C31.642 25.8 32 25.442 32 25V23.4C32 22.958 31.642 22.6 31.2 22.6ZM20.7995 14.6C19.916 14.6 19.1995 13.8835 19.1995 13C19.1995 12.1165 19.916 11.4 20.7995 11.4C21.683 11.4 22.3995 12.1165 22.3995 13C22.4 13.8835 21.6835 14.6 20.7995 14.6Z" fill="#0165E1" /></svg>