<svg width="32" height="32" viewBox="0 0 32 32" fill="none" xmlns="http://www.w3.org/2000/svg">
 <path  d= "M18.0004 10.448V8.69183C16.238 6.42315 15.0568 3.73574 14.6193 0.867079C14.4881 0.0233563 13.4318 -0.307883 12.8819 0.348346C11.5632 1.90455 10.5257 3.72949 9.82571 5.75442C11.9631 8.1481 14.8256 9.79179 18.0004 10.448ZM25.0002 3.99823C22.2378 3.99823 20.0004 6.24191 20.0004 9.00432V12.7167C13.4756 12.3292 7.93827 8.31059 5.43835 2.61077C5.09461 1.82955 3.9884 1.7858 3.62591 2.55453C2.58844 4.7482 2.00096 7.19813 2.00096 9.78554C2.00096 14.2104 4.13214 18.3415 7.31954 21.4039C8.14452 22.1976 8.95074 22.8539 9.75071 23.4539L0.757252 25.7038C0.0885236 25.8725 -0.211467 26.6475 0.163521 27.2287C1.25099 28.9099 3.9384 31.7598 9.73821 31.9973C10.2382 32.0161 10.7382 31.8348 11.1194 31.5036L15.1943 27.9975H20.0004C25.5252 27.9975 30.0001 23.5289 30.0001 18.004V7.9981L32 3.99823H25.0002ZM25.0002 10.0043C24.4502 10.0043 24.0003 9.5543 24.0003 9.00432C24.0003 8.45434 24.4502 8.00435 25.0002 8.00435C25.5502 8.00435 26.0002 8.45434 26.0002 9.00432C26.0002 9.5543 25.5502 10.0043 25.0002 10.0043Z" fill="#0165E1" /></svg>