<svg width="32" height="32" viewBox="0 0 32 32" fill="none" xmlns="http://www.w3.org/2000/svg">
 <path  d= "M13.5 0H18.5C19.3312 0 20 0.66875 20 1.5V12H25.4813C26.5938 12 27.15 13.3438 26.3625 14.1313L16.8563 23.6437C16.3875 24.1125 15.6187 24.1125 15.15 23.6437L5.63125 14.1313C4.84375 13.3438 5.4 12 6.5125 12H12V1.5C12 0.66875 12.6687 0 13.5 0ZM32 23.5V30.5C32 31.3312 31.3312 32 30.5 32H1.5C0.66875 32 0 31.3312 0 30.5V23.5C0 22.6688 0.66875 22 1.5 22H10.6687L13.7312 25.0625C14.9875 26.3188 17.0125 26.3188 18.2687 25.0625L21.3312 22H30.5C31.3312 22 32 22.6688 32 23.5ZM24.25 29C24.25 28.3125 23.6875 27.75 23 27.75C22.3125 27.75 21.75 28.3125 21.75 29C21.75 29.6875 22.3125 30.25 23 30.25C23.6875 30.25 24.25 29.6875 24.25 29ZM28.25 29C28.25 28.3125 27.6875 27.75 27 27.75C26.3125 27.75 25.75 28.3125 25.75 29C25.75 29.6875 26.3125 30.25 27 30.25C27.6875 30.25 28.25 29.6875 28.25 29Z" fill="#0165E1" /></svg>