<svg width="32" height="32" viewBox="0 0 32 32" fill="none" xmlns="http://www.w3.org/2000/svg">
 <path  d= "M28.5632 21.5259C26.9976 22.7965 25.2738 23.8496 23.4045 24.5915L26.8032 30.4783L30.175 31.9183C30.7881 32.1801 31.4806 31.7801 31.5606 31.1183L31.9994 27.4777L28.5632 21.5259ZM31.2188 15.616C31.5225 15.1366 31.3369 14.4917 30.8406 14.2167L29.0863 13.2435C28.6188 12.9842 28.0482 13.1523 27.7576 13.601C25.1882 17.5716 20.7658 19.9997 16.0002 19.9997C14.5046 19.9997 13.0484 19.7341 11.6622 19.2791L15.8721 11.9867C15.9159 11.9879 15.9559 11.9998 15.9996 11.9998C16.0434 11.9998 16.084 11.9879 16.1271 11.9867L19.3202 17.5179C21.272 16.9579 23.0426 15.9085 24.4832 14.4604L21.2464 8.85361C21.712 8.00175 22.0001 7.03927 22.0001 5.99991C22.0001 2.68621 19.3139 0 16.0002 0C12.6865 0 10.0003 2.68621 10.0003 5.99991C10.0003 7.03927 10.2885 8.00175 10.7534 8.85361L6.48476 16.2479C5.7004 15.5223 4.98729 14.711 4.3798 13.8104C4.08043 13.3667 3.50668 13.2092 3.04357 13.4773L1.30922 14.4817C0.818601 14.7654 0.644853 15.4129 0.956723 15.886C1.92983 17.3635 3.12481 18.6491 4.45542 19.7622L0.000488281 27.4783L0.439231 31.1189C0.51923 31.7808 1.21172 32.1808 1.82484 31.9189L5.19666 30.4789L9.62159 22.8146C11.6334 23.5796 13.789 23.9996 16.0002 23.9996C22.1908 23.9996 27.9301 20.8116 31.2188 15.616ZM16.0002 3.99994C17.1046 3.99994 18.0002 4.89555 18.0002 5.99991C18.0002 7.10426 17.1046 7.99988 16.0002 7.99988C14.8959 7.99988 14.0003 7.10426 14.0003 5.99991C14.0003 4.89555 14.8959 3.99994 16.0002 3.99994Z" fill="#0165E1" /></svg>