<svg width="32" height="26" viewBox="0 0 32 26" fill="none" xmlns="http://www.w3.org/2000/svg">
 <path  d= "M16 0.555542C7.16333 0.555542 0 3.73943 0 7.66665V18.3333C0 22.2605 7.16333 25.4444 16 25.4444C24.8367 25.4444 32 22.2605 32 18.3333V7.66665C32 3.73943 24.8367 0.555542 16 0.555542ZM11.3894 9.35332C11.1422 10.2761 10.5817 11.0517 9.81667 11.6022C5.56833 10.8589 2.66667 9.37665 2.66667 7.66665C2.66667 5.9911 5.45056 4.53388 9.55778 3.7761L10.98 6.23943C11.5278 7.18888 11.6733 8.29443 11.3894 9.35332ZM16 12.1111C14.8289 12.1111 13.6994 12.0555 12.6172 11.9611C13.065 10.5094 14.4033 9.44443 16 9.44443C17.5967 9.44443 18.935 10.5094 19.3828 11.9611C18.3006 12.0555 17.1711 12.1111 16 12.1111ZM19.5556 4.1111C19.5556 6.07165 17.9606 7.66665 16 7.66665C14.0394 7.66665 12.4444 6.07165 12.4444 4.1111V3.38665C13.5778 3.28221 14.7667 3.22221 16 3.22221C17.2333 3.22221 18.4222 3.28221 19.5556 3.38665V4.1111ZM22.1628 11.6055C21.3956 11.055 20.8328 10.2778 20.585 9.35332C20.3011 8.29443 20.4467 7.18888 20.995 6.23999L22.42 3.77221C26.54 4.52776 29.3333 5.98832 29.3333 7.66665C29.3333 9.37943 26.4222 10.8633 22.1628 11.6055Z" fill="#0165E1" /></svg>