<svg width="32" height="30" viewBox="0 0 32 30" fill="none" xmlns="http://www.w3.org/2000/svg">
 <path  d= "M25.4486 7.49337L31.1369 4.08063C31.9791 3.57563 32.2513 2.48342 31.7463 1.64121C31.2408 0.799555 30.1497 0.526225 29.3069 1.03177L20.3798 6.38782C18.927 6.20397 17.4642 6.11157 15.9998 6.11116C7.16325 6.11116 0 9.29501 0 13.2222V22.1571C0 23.8493 1.33498 25.4015 3.55551 26.622V21.2682C3.55551 20.2904 4.3555 19.4904 5.33327 19.4904C6.31104 19.4904 7.11103 20.2904 7.11103 21.2682V28.0687C9.18878 28.687 11.611 29.0931 14.2221 29.2214V23.0465C14.2221 22.0688 15.022 21.2688 15.9998 21.2688C16.9776 21.2688 17.7776 22.0688 17.7776 23.0465V29.222C20.3887 29.0937 22.8108 28.6876 24.8886 28.0692V21.2688C24.8886 20.291 25.6886 19.491 26.6664 19.491C27.6441 19.491 28.4441 20.291 28.4441 21.2688V26.6226C30.6646 25.4021 31.9996 23.8498 31.9996 22.1576V13.2227C31.9991 10.8683 29.4141 8.78724 25.4486 7.49337ZM15.9998 17.6666C8.63601 17.6666 2.66664 15.6766 2.66664 13.2222C2.66664 10.7678 8.63601 8.7778 15.9998 8.7778C16.1298 8.7778 16.2565 8.78335 16.3854 8.78446L11.5293 11.6978C10.6871 12.2028 10.4149 13.295 10.9199 14.1372C11.451 15.0222 12.5593 15.2266 13.3593 14.7466L22.3986 9.32335C26.5302 10.0783 29.333 11.5411 29.333 13.2227C29.333 15.6772 23.3631 17.6666 15.9998 17.6666Z" fill="#0165E1" /></svg>