<svg width="32" height="24" viewBox="0 0 32 24" fill="none" xmlns="http://www.w3.org/2000/svg">
 <path  d= "M5.2 4.00005H2.8C2.135 4.00005 1.6 4.53505 1.6 5.20005V10.4H0.4C0.18 10.4 0 10.58 0 10.8V13.2C0 13.42 0.18 13.6 0.4 13.6H1.6V18.8C1.6 19.465 2.135 20 2.8 20H5.2C5.865 20 6.4 19.465 6.4 18.8V5.20005C6.4 4.53505 5.865 4.00005 5.2 4.00005ZM31.6 10.4H30.4V5.20005C30.4 4.53505 29.865 4.00005 29.2 4.00005H26.8C26.135 4.00005 25.6 4.53505 25.6 5.20005V18.8C25.6 19.465 26.135 20 26.8 20H29.2C29.865 20 30.4 19.465 30.4 18.8V13.6H31.6C31.82 13.6 32 13.42 32 13.2V10.8C32 10.58 31.82 10.4 31.6 10.4ZM22.8 0.800049H20.4C19.735 0.800049 19.2 1.33505 19.2 2.00005V10.4H12.8V2.00005C12.8 1.33505 12.265 0.800049 11.6 0.800049H9.2C8.535 0.800049 8 1.33505 8 2.00005V22C8 22.665 8.535 23.2 9.2 23.2H11.6C12.265 23.2 12.8 22.665 12.8 22V13.6H19.2V22C19.2 22.665 19.735 23.2 20.4 23.2H22.8C23.465 23.2 24 22.665 24 22V2.00005C24 1.33505 23.465 0.800049 22.8 0.800049Z" fill="#0165E1" /></svg>