<svg width="32" height="30" viewBox="0 0 32 30" fill="none" xmlns="http://www.w3.org/2000/svg">
 <path  d= "M22.3667 5.39718L27.3778 10.4083C27.5889 10.6194 27.5889 10.9639 27.3778 11.175L15.2444 23.3083L10.0889 23.8805C9.4 23.9583 8.81667 23.375 8.89444 22.6861L9.46667 17.5305L21.6 5.39718C21.8111 5.18607 22.1556 5.18607 22.3667 5.39718ZM31.3667 4.12496L28.6556 1.41385C27.8111 0.569406 26.4389 0.569406 25.5889 1.41385L23.6222 3.38052C23.4111 3.59163 23.4111 3.93607 23.6222 4.14718L28.6333 9.15829C28.8444 9.36941 29.1889 9.36941 29.4 9.15829L31.3667 7.19163C32.2111 6.34163 32.2111 4.96941 31.3667 4.12496ZM21.3333 20.0083V25.6639H3.55556V7.88607H16.3222C16.5 7.88607 16.6667 7.81385 16.7944 7.69163L19.0167 5.46941C19.4389 5.04718 19.1389 4.33052 18.5444 4.33052H2.66667C1.19444 4.33052 0 5.52496 0 6.99718V26.5527C0 28.025 1.19444 29.2194 2.66667 29.2194H22.2222C23.6944 29.2194 24.8889 28.025 24.8889 26.5527V17.7861C24.8889 17.1916 24.1722 16.8972 23.75 17.3139L21.5278 19.5361C21.4056 19.6639 21.3333 19.8305 21.3333 20.0083Z" fill="#0165E1" /></svg>