<svg width="32" height="32" viewBox="0 0 32 32" fill="none" xmlns="http://www.w3.org/2000/svg">
 <path  d= "M32 25.1428V29.7142C32 30.9766 30.9766 32 29.7143 32H2.28573C1.02337 32 1.55453e-05 30.9766 1.55453e-05 29.7142V25.1428C1.55453e-05 23.8805 1.02337 22.8571 2.28573 22.8571H29.7143C30.9766 22.8571 32 23.8805 32 25.1428ZM3.43237 20.5714H28.5671C31.5421 20.5714 33.1086 17.0232 31.0944 14.826L18.5274 1.11126C17.1692 -0.370384 14.8309 -0.370455 13.4726 1.11126L0.905015 14.826C-1.10534 17.0191 0.45173 20.5714 3.43237 20.5714Z" fill="#0165E1" /></svg>