<svg width="10" height="32" viewBox="0 0 10 32" fill="none" xmlns="http://www.w3.org/2000/svg">
 <path  d= "M5.00002 11.3548C7.56776 11.3548 9.64518 13.4323 9.64518 16C9.64518 18.5677 7.56776 20.6452 5.00002 20.6452C2.43228 20.6452 0.354858 18.5677 0.354858 16C0.354858 13.4323 2.43228 11.3548 5.00002 11.3548ZM0.354858 4.64516C0.354858 7.2129 2.43228 9.29032 5.00002 9.29032C7.56776 9.29032 9.64518 7.2129 9.64518 4.64516C9.64518 2.07742 7.56776 0 5.00002 0C2.43228 0 0.354858 2.07742 0.354858 4.64516ZM0.354858 27.3548C0.354858 29.9226 2.43228 32 5.00002 32C7.56776 32 9.64518 29.9226 9.64518 27.3548C9.64518 24.7871 7.56776 22.7097 5.00002 22.7097C2.43228 22.7097 0.354858 24.7871 0.354858 27.3548Z" fill="#0165E1" /></svg>