<svg width="32" height="10" viewBox="0 0 32 10" fill="none" xmlns="http://www.w3.org/2000/svg">
 <path  d= "M20.6452 5.00002C20.6452 7.56776 18.5677 9.64518 16 9.64518C13.4323 9.64518 11.3548 7.56776 11.3548 5.00002C11.3548 2.43228 13.4323 0.354858 16 0.354858C18.5677 0.354858 20.6452 2.43228 20.6452 5.00002ZM27.3548 0.354858C24.7871 0.354858 22.7097 2.43228 22.7097 5.00002C22.7097 7.56776 24.7871 9.64518 27.3548 9.64518C29.9226 9.64518 32 7.56776 32 5.00002C32 2.43228 29.9226 0.354858 27.3548 0.354858ZM4.64516 0.354858C2.07742 0.354858 0 2.43228 0 5.00002C0 7.56776 2.07742 9.64518 4.64516 9.64518C7.2129 9.64518 9.29032 7.56776 9.29032 5.00002C9.29032 2.43228 7.2129 0.354858 4.64516 0.354858Z" fill="#0165E1" /></svg>