<svg width="32" height="32" viewBox="0 0 32 32" fill="none" xmlns="http://www.w3.org/2000/svg">
 <path  d= "M32 29C32 30.6569 30.6569 32 29 32H3C1.34312 32 0 30.6569 0 29V12.5453C5.52634e-06 12.0903 0.103468 11.6414 0.302561 11.2324C0.501654 10.8233 0.791163 10.4649 1.14919 10.1843C2.70625 8.9637 3.993 7.97395 11.4117 2.58982C12.4633 1.82313 14.5498 -0.0216778 16 0.000197209C17.4499 -0.0219278 19.5373 1.82345 20.5883 2.58976C28.0062 7.97332 29.2948 8.96445 30.8508 10.1843C31.2088 10.4649 31.4983 10.8233 31.6974 11.2324C31.8965 11.6414 32 12.0903 32 12.5453V29ZM27.8959 16.7122C27.7357 16.4792 27.4146 16.425 27.1872 16.593C25.7594 17.6476 23.7208 19.1371 20.5883 21.4104C19.5367 22.1771 17.4502 24.0218 16 23.9998C14.5493 24.0213 12.4651 22.1784 11.4117 21.4104C8.27956 19.1373 6.24081 17.6477 4.81281 16.593C4.58537 16.425 4.26431 16.4792 4.10413 16.7122L3.53713 17.5369C3.46363 17.6438 3.43454 17.775 3.45598 17.9029C3.47743 18.0308 3.54774 18.1454 3.65206 18.2224C5.0825 19.2786 7.11794 20.7655 10.2335 23.0266C11.5006 23.9504 13.7662 26.0149 16 25.9999C18.2327 26.0151 20.4976 23.9518 21.7664 23.0266C24.8821 20.7654 26.9176 19.2785 28.3479 18.2224C28.4522 18.1454 28.5225 18.0308 28.544 17.9029C28.5654 17.775 28.5363 17.6438 28.4628 17.5369L27.8959 16.7122Z" fill="#0165E1" /></svg>