<svg width="32" height="22" viewBox="0 0 32 22" fill="none" xmlns="http://www.w3.org/2000/svg">
 <path  d= "M29.7143 14.4286H2.28571C1.02357 14.4286 0 15.4522 0 16.7144V19.0001C0 20.2622 1.02357 21.2858 2.28571 21.2858H29.7143C30.9764 21.2858 32 20.2622 32 19.0001V16.7144C32 15.4522 30.9764 14.4286 29.7143 14.4286ZM29.7143 0.714355H2.28571C1.02357 0.714355 0 1.73793 0 3.00007V5.28578C0 6.54793 1.02357 7.5715 2.28571 7.5715H29.7143C30.9764 7.5715 32 6.54793 32 5.28578V3.00007C32 1.73793 30.9764 0.714355 29.7143 0.714355Z" fill="#0165E1" /></svg>