<svg width="32" height="28" viewBox="0 0 32 28" fill="none" xmlns="http://www.w3.org/2000/svg">
 <path  d= "M31.1213 15.1213C32.2929 13.9497 32.2929 12.0502 31.1213 10.8787L21.1213 0.878694C19.9498 -0.292867 18.0503 -0.292929 16.8786 0.878694L0.878671 16.8787C-0.29289 18.0502 -0.29289 19.9497 0.878671 21.1213L6.87866 27.1213C7.4413 27.6839 8.20437 28 9.00003 28H31.25C31.6642 28 32 27.6642 32 27.25V24.75C32 24.3358 31.6642 24 31.25 24H22.2427L31.1213 15.1213ZM12.2072 11.2071L20.793 19.7929L16.5858 24H9.41428L4.41429 19L12.2072 11.2071Z" fill="#0165E1" /></svg>