<svg width="24" height="32" viewBox="0 0 24 32" fill="none" xmlns="http://www.w3.org/2000/svg">
 <path  d= "M22.7735 27.2689C22.6796 26.7954 22.2138 26.4924 21.7432 26.5997C20.9795 26.7739 19.7845 26.9864 18.4985 26.9864C14.444 26.9864 11.2178 24.5014 9.8227 20.8829H17.9433C18.138 20.8829 18.3269 20.8166 18.4789 20.695C18.6309 20.5733 18.7369 20.4036 18.7796 20.2136L19.2348 18.1879C19.3553 17.6521 18.9478 17.1429 18.3986 17.1429H8.8102C8.72377 16.1194 8.7092 15.1224 8.81999 14.1254H19.2909C19.4864 14.1254 19.676 14.0585 19.8283 13.936C19.9806 13.8134 20.0865 13.6425 20.1283 13.4515L20.5934 11.3261C20.7104 10.7916 20.3033 10.2857 19.7561 10.2857H9.87906C11.3528 7.07207 14.3569 4.92643 18.2804 4.92643C19.3151 4.92643 20.3207 5.08714 20.9841 5.2225C21.4281 5.31307 21.866 5.04407 21.9842 4.60657L22.8407 1.43743C22.9708 0.955929 22.6646 0.464857 22.1746 0.371929C21.31 0.208 19.9166 0 18.4113 0C11.4696 0 5.86806 4.30371 3.79984 10.2857H1.43734C0.963986 10.2857 0.5802 10.6695 0.5802 11.1429V13.2682C0.5802 13.7416 0.963986 14.1254 1.43734 14.1254H2.97799C2.90591 15.0973 2.89363 16.2173 2.96506 17.1429H1.43734C0.963986 17.1429 0.5802 17.5266 0.5802 18V20.0257C0.5802 20.4991 0.963986 20.8829 1.43734 20.8829H3.58834C5.37584 27.3351 10.9562 32 18.4113 32C20.2899 32 21.88 31.6754 22.7756 31.4437C23.2161 31.3298 23.4918 30.8931 23.4033 30.4468L22.7735 27.2689Z" fill="#0165E1" /></svg>