<svg width="32" height="26" viewBox="0 0 32 26" fill="none" xmlns="http://www.w3.org/2000/svg">
 <path  d= "M0 7.50015V6.50015C0 5.67172 0.671562 5.00015 1.5 5.00015H24V2.00015C24 0.664716 25.6187 -0.00247204 26.5607 0.939465L31.5607 5.93947C32.1464 6.52528 32.1464 7.47503 31.5607 8.06078L26.5607 13.0608C25.6222 13.999 24 13.3412 24 12.0002V9.00015H1.5C0.671562 9.00015 0 8.32859 0 7.50015ZM30.5 17.0002H8V14.0002C8 12.668 6.38363 11.9952 5.43931 12.9395L0.439312 17.9395C-0.146437 18.5253 -0.146437 19.475 0.439312 20.0608L5.43931 25.0608C6.37856 26 8 25.34 8 24.0002V21.0002H30.5C31.3284 21.0002 32 20.3286 32 19.5002V18.5002C32 17.6717 31.3284 17.0002 30.5 17.0002Z" fill="#0165E1" /></svg>