<svg width="32" height="32" viewBox="0 0 32 32" fill="none" xmlns="http://www.w3.org/2000/svg">
 <path  d= "M0 10.5714V1.71429C0 0.764286 0.764286 0 1.71429 0H10.5714C11.0429 0 11.4286 0.385714 11.4286 0.857143V3.71429C11.4286 4.18571 11.0429 4.57143 10.5714 4.57143H4.57143V10.5714C4.57143 11.0429 4.18571 11.4286 3.71429 11.4286H0.857143C0.385714 11.4286 0 11.0429 0 10.5714ZM20.5714 0.857143V3.71429C20.5714 4.18571 20.9571 4.57143 21.4286 4.57143H27.4286V10.5714C27.4286 11.0429 27.8143 11.4286 28.2857 11.4286H31.1429C31.6143 11.4286 32 11.0429 32 10.5714V1.71429C32 0.764286 31.2357 0 30.2857 0H21.4286C20.9571 0 20.5714 0.385714 20.5714 0.857143ZM31.1429 20.5714H28.2857C27.8143 20.5714 27.4286 20.9571 27.4286 21.4286V27.4286H21.4286C20.9571 27.4286 20.5714 27.8143 20.5714 28.2857V31.1429C20.5714 31.6143 20.9571 32 21.4286 32H30.2857C31.2357 32 32 31.2357 32 30.2857V21.4286C32 20.9571 31.6143 20.5714 31.1429 20.5714ZM11.4286 31.1429V28.2857C11.4286 27.8143 11.0429 27.4286 10.5714 27.4286H4.57143V21.4286C4.57143 20.9571 4.18571 20.5714 3.71429 20.5714H0.857143C0.385714 20.5714 0 20.9571 0 21.4286V30.2857C0 31.2357 0.764286 32 1.71429 32H10.5714C11.0429 32 11.4286 31.6143 11.4286 31.1429Z" fill="#0165E1" /></svg>