<svg width="32" height="32" viewBox="0 0 32 32" fill="none" xmlns="http://www.w3.org/2000/svg">
 <path  d= "M32 22.2843V30.2825C32 31.2323 31.2359 31.9964 30.2861 31.9964H22.2879C20.7597 31.9964 19.9955 30.1468 21.0739 29.0685L23.659 26.4833L15.9964 18.8279L8.341 26.4905L10.9261 29.0685C12.0045 30.1468 11.2403 31.9964 9.71212 31.9964H1.7139C0.764115 31.9964 0 31.2323 0 30.2825V22.2843C0 20.7561 1.84959 19.9919 2.92792 21.0703L5.51305 23.6554L13.1756 16L5.51305 8.33739L2.92792 10.9297C1.84959 12.008 0 11.2439 0 9.71566V1.71744C0 0.767655 0.764115 0.00354004 1.7139 0.00354004H9.71212C11.2403 0.00354004 12.0045 1.85313 10.9261 2.93146L8.341 5.51659L15.9964 13.172L23.659 5.50945L21.0739 2.93146C19.9955 1.85313 20.7597 0.00354004 22.2879 0.00354004H30.2861C31.2359 0.00354004 32 0.767655 32 1.71744V9.71566C32 11.2439 30.1504 12.008 29.0721 10.9297L26.4869 8.34454L18.8244 16L26.4869 23.6625L29.0721 21.0774C30.1504 19.9919 32 20.7561 32 22.2843Z" fill="#0165E1" /></svg>