<svg width="32" height="32" viewBox="0 0 32 32" fill="none" xmlns="http://www.w3.org/2000/svg">
 <path  d= "M32 3.42857V28.5714C32 30.465 30.465 32 28.5714 32H3.42857C1.535 32 0 30.465 0 28.5714V3.42857C0 1.535 1.535 0 3.42857 0H28.5714C30.465 0 32 1.535 32 3.42857ZM25.7143 4.57143H17.7164C16.194 4.57143 15.4249 6.41864 16.5041 7.49793L18.7887 9.78271L4.8225 23.7489C4.48779 24.0836 4.48779 24.6264 4.8225 24.9611L7.03886 27.1775C7.37364 27.5122 7.91636 27.5122 8.25107 27.1775L22.2172 13.2114L24.5021 15.4964C25.5756 16.5698 27.4286 15.8161 27.4286 14.2842V6.28571C27.4286 5.33893 26.6611 4.57143 25.7143 4.57143Z" fill="#0165E1" /></svg>