<svg width="32" height="30" viewBox="0 0 32 30" fill="none" xmlns="http://www.w3.org/2000/svg">
 <path  d= "M32 2.11117V9.22139C32 10.4137 30.5578 10.9981 29.7238 10.1642L27.7401 8.18039L14.2111 21.7094C13.6903 22.2302 12.8462 22.2302 12.3254 21.7094L11.0684 20.4524C10.5477 19.9317 10.5477 19.0874 11.0684 18.5668L24.5976 5.03761L22.6141 3.054C21.7768 2.21672 22.3698 0.777832 23.5569 0.777832H30.6667C31.4031 0.777832 32 1.37478 32 2.11117ZM22.6127 15.8219L21.7238 16.7108C21.6 16.8346 21.5018 16.9816 21.4348 17.1434C21.3678 17.3052 21.3333 17.4786 21.3333 17.6537V25.6667H3.55556V7.88894H18.2222C18.5758 7.88892 18.9149 7.74846 19.165 7.49844L20.0539 6.60955C20.8938 5.76955 20.2989 4.33339 19.1111 4.33339H2.66667C1.19389 4.33339 0 5.52728 0 7.00005V26.5556C0 28.0284 1.19389 29.2223 2.66667 29.2223H22.2222C23.695 29.2223 24.8889 28.0284 24.8889 26.5556V16.7647C24.8889 15.5768 23.4527 14.9819 22.6127 15.8219Z" fill="#0165E1" /></svg>