<svg width="32" height="30" viewBox="0 0 32 30" fill="none" xmlns="http://www.w3.org/2000/svg">
 <path  d= "M15.9274 22.5547L17.7374 25.1404C17.1598 25.1948 16.5801 25.2221 16 25.2223C9.34391 25.2223 3.50175 21.6695 0.369248 16.3539C0.127498 15.9436 0 15.4762 0 15C0 14.5239 0.127498 14.0564 0.369248 13.6462C1.70386 11.3814 3.53108 9.43643 5.70391 7.94965L8.87486 12.4796C8.59647 13.2678 8.44447 14.116 8.44447 15C8.44447 19.152 11.7853 22.5157 15.9274 22.5547ZM31.6308 16.3539C29.8715 19.3393 27.256 21.7683 24.1211 23.3247L24.1217 23.3255L26.4256 26.6144C26.8478 27.2178 26.7011 28.0489 26.0978 28.4711L25.3695 28.9811C24.7661 29.4033 23.935 29.2566 23.5128 28.6533L5.57447 3.3856C5.15225 2.78227 5.29891 1.95115 5.90225 1.52893L6.63058 1.01893C7.23391 0.596711 8.06502 0.743378 8.48725 1.34671L11.3227 5.38099C12.8156 4.9876 14.3836 4.77782 16 4.77782C22.6561 4.77782 28.4983 8.33054 31.6308 13.6462C31.8725 14.0564 32 14.5239 32 15C32 15.4762 31.8725 15.9436 31.6308 16.3539ZM23.5556 15C23.5556 10.8237 20.1757 7.44449 16 7.44449C15.0034 7.44449 14.0525 7.63743 13.1817 7.98738L14.2539 9.4906C15.6911 9.03665 17.3119 9.14821 18.7206 9.90226H18.7189C17.405 9.90226 16.34 10.9673 16.34 12.2812C16.34 13.5937 17.4037 14.66 18.7189 14.66C20.0328 14.66 21.0978 13.595 21.0978 12.2812V12.2795C22.1235 14.1956 22.004 16.608 20.6395 18.4434V18.4439L21.7125 19.9473C22.8609 18.6223 23.5556 16.893 23.5556 15ZM14.5564 20.596L10.2491 14.4428C9.97058 17.3532 11.8777 19.9069 14.5564 20.596Z" fill="#0165E1" /></svg>