<svg width="32" height="32" viewBox="0 0 32 32" fill="none" xmlns="http://www.w3.org/2000/svg">
 <path  d= "M3.17184 20.8282C2.42185 21.5782 1.99998 22.5957 1.99998 23.657V26.5001L0 30L1.99998 32L5.49995 30H8.34304C9.40366 30 10.4211 29.5788 11.1711 28.8288L19.0861 20.9151L11.0861 12.9152L3.17184 20.8282ZM30.2422 1.7578C27.9004 -0.585932 24.0998 -0.585932 21.7579 1.7578L16.9398 6.57587L16.1211 5.75713C15.5311 5.16714 14.5805 5.17526 13.9999 5.75713L11.4393 8.31773C10.8536 8.90335 10.8536 9.85334 11.4393 10.439L21.5604 20.5601C22.1504 21.1501 23.101 21.142 23.6816 20.5601L26.2422 18.0001C26.8279 17.4145 26.8279 16.4645 26.2422 15.8789L25.4235 15.0602L30.2416 10.2421C32.5859 7.89961 32.5859 4.1009 30.2422 1.7578Z" fill="#0165E1" /></svg>