<svg width="32" height="22" viewBox="0 0 32 22" fill="none" xmlns="http://www.w3.org/2000/svg">
 <path  d= "M31.6308 9.64621C28.4983 4.33055 22.6561 0.777832 16 0.777832C9.34112 0.777832 3.50024 4.33305 0.369248 9.64621C0.127498 10.0564 0 10.5239 0 11.0001C0 11.4762 0.127498 11.9437 0.369248 12.3539C3.50174 17.6695 9.3439 21.2222 16 21.2222C22.6589 21.2222 28.4998 17.667 31.6308 12.3539C31.8725 11.9437 32 11.4762 32 11C32 10.5239 31.8725 10.0564 31.6308 9.64621ZM16 18.5556C11.8243 18.5556 8.44446 15.1763 8.44446 11C8.44446 6.82438 11.8237 3.44449 16 3.44449C20.1757 3.44449 23.5555 6.82371 23.5555 11C23.5555 15.1757 20.1763 18.5556 16 18.5556ZM21.7778 11C21.7778 14.191 19.191 16.7778 16 16.7778C12.809 16.7778 10.2222 14.191 10.2222 11C10.2222 10.0163 10.4684 9.0901 10.902 8.27932L10.902 8.2811C10.902 9.59504 11.9671 10.6601 13.2811 10.6601C14.595 10.6601 15.6602 9.59498 15.6602 8.2811C15.6602 6.96716 14.595 5.90199 13.2811 5.90199L13.2793 5.90205C14.0901 5.46843 15.0162 5.22227 16 5.22227C19.191 5.22227 21.7778 7.80904 21.7778 11Z" fill="#0165E1" /></svg>