<svg width="32" height="24" viewBox="0 0 32 24" fill="none" xmlns="http://www.w3.org/2000/svg">
 <path  d= "M0 23.25V0.750031C0 0.337531 0.3375 3.06798e-05 0.75 3.06798e-05H3.25C3.6625 3.06798e-05 4 0.337531 4 0.750031V10.2438L14.7188 0.462531C16.0063 -0.606219 18 0.287531 18 2.00003V10.2438L28.7188 0.462531C30.0063 -0.606219 32 0.287531 32 2.00003V22C32 23.7125 30.0063 24.6063 28.7188 23.5375L18 13.8313V22C18 23.7125 16.0063 24.6063 14.7188 23.5375L4 13.8313V23.25C4 23.6625 3.6625 24 3.25 24H0.75C0.3375 24 0 23.6625 0 23.25Z" fill="#0165E1" /></svg>