<svg width="32" height="26" viewBox="0 0 32 26" fill="none" xmlns="http://www.w3.org/2000/svg">
 <path  d= "M32 1.74869V24.2487C32 24.6612 31.6625 24.9987 31.25 24.9987H28.75C28.3375 24.9987 28 24.6612 28 24.2487V14.7549L17.2812 24.5362C15.9937 25.6112 14 24.7112 14 22.9987V14.7549L3.28125 24.5362C1.99375 25.6112 0 24.7112 0 22.9987V2.99869C0 1.28619 1.99375 0.392438 3.28125 1.46119L14 11.1737V2.99869C14 1.28619 15.9937 0.392438 17.2812 1.46119L28 11.1737V1.74869C28 1.33619 28.3375 0.998688 28.75 0.998688H31.25C31.6625 0.998688 32 1.33619 32 1.74869Z" fill="#0165E1" /></svg>