<svg width="32" height="32" viewBox="0 0 32 32" fill="none" xmlns="http://www.w3.org/2000/svg">
 <path  d= "M8 9V29C8 30.6569 6.65688 32 5 32H3C1.34312 32 0 30.6569 0 29V9C0 7.34312 1.34312 6 3 6H5C6.65688 6 8 7.34312 8 9ZM32 13V29C32 30.6569 30.6569 32 29 32H12C10.3431 32 9 30.6569 9 29V2.5C9 1.11931 10.1193 9.70441e-10 11.5 9.70441e-10H24.4645C24.7928 -9.14667e-06 25.1179 0.0646528 25.4212 0.190293C25.7245 0.315934 26.0001 0.500091 26.2323 0.73225L29.2678 3.76781C29.7366 4.23664 30 4.87249 30 5.5355V10.1714C31.1651 10.5833 32 11.6939 32 13ZM12 12H27V6H25.5C24.6748 6 24 5.32519 24 4.5V3H12V12ZM18 24.75C18 24.3358 17.6642 24 17.25 24H14.75C14.3358 24 14 24.3358 14 24.75V27.25C14 27.6642 14.3358 28 14.75 28H17.25C17.6642 28 18 27.6642 18 27.25V24.75ZM18 16.75C18 16.3358 17.6642 16 17.25 16H14.75C14.3358 16 14 16.3358 14 16.75V19.25C14 19.6642 14.3358 20 14.75 20H17.25C17.6642 20 18 19.6642 18 19.25V16.75ZM26 24.75C26 24.3358 25.6642 24 25.25 24H22.75C22.3358 24 22 24.3358 22 24.75V27.25C22 27.6642 22.3358 28 22.75 28H25.25C25.6642 28 26 27.6642 26 27.25V24.75ZM26 16.75C26 16.3358 25.6642 16 25.25 16H22.75C22.3358 16 22 16.3358 22 16.75V19.25C22 19.6642 22.3358 20 22.75 20H25.25C25.6642 20 26 19.6642 26 19.25V16.75Z" fill="#0165E1" /></svg>