<svg width="32" height="32" viewBox="0 0 32 32" fill="none" xmlns="http://www.w3.org/2000/svg">
 <path  d= "M32 0C28.7637 0.222501 6.02734 2.38751 4.43796 17.9757C4.24483 19.642 4.13545 21.3157 4.06358 22.9907L15.243 11.8226C15.6336 11.4319 16.268 11.4319 16.6586 11.8226C17.0493 12.2132 17.0493 12.8463 16.6586 13.2369L0.439812 29.4395C-0.146441 30.0251 -0.146441 30.9752 0.439812 31.5608C1.02606 32.1464 1.97669 32.1464 2.56357 31.5608L6.13421 27.9939C8.76485 27.9851 11.3936 27.8358 14.0068 27.5339C17.3493 27.1939 20.0705 25.8795 22.293 24.0001H15.9836L25.1581 20.9451C25.8612 20.0145 26.4937 19.0257 27.0612 18.0001H21.9899L28.6487 14.6744C31.2681 8.30379 31.8868 1.64126 32 0Z" fill="#0165E1" /></svg>