<svg width="32" height="32" viewBox="0 0 32 32" fill="none" xmlns="http://www.w3.org/2000/svg">
 <path  d= "M29.1962 2.80256C25.2868 -1.10247 19.0917 -1.24622 13.4286 4.4107C8.51539 9.31825 9.61728 8.21824 8.06914 9.7645C4.29035 13.5389 3.66972 19.1915 4.0916 22.9628L15.2442 11.822C15.6355 11.4314 16.2692 11.4314 16.6598 11.822C17.0505 12.2127 17.0505 12.8458 16.6598 13.2364L0.439692 29.4397C-0.146564 30.0253 -0.146564 30.9753 0.439692 31.561C1.02595 32.1466 1.97721 32.1466 2.56346 31.561L6.69475 27.434C9.96353 28.4159 17.4374 28.5697 22.1218 24.0003H15.9848L25.208 20.929C28.3325 17.8083 27.4818 18.6677 28.1025 18.0002H21.9911L30.2125 15.2627C33.0525 10.6089 32.3569 5.96009 29.1962 2.80256Z" fill="#0165E1" /></svg>