<svg width="16" height="32" viewBox="0 0 16 32" fill="none" xmlns="http://www.w3.org/2000/svg">
 <path  d= "M8.00002 0C10.2091 0 12 1.79087 12 4C12 6.20913 10.2091 8 8.00002 8C5.7909 8 4.00002 6.20913 4.00002 4C4.00002 1.79087 5.7909 0 8.00002 0ZM15.4552 22.1362L12.4552 10.1362C12.3741 9.81166 12.1868 9.52356 11.9231 9.3177C11.6595 9.11183 11.3345 9.00001 11 9H10.29C8.87059 9.65269 7.19065 9.68087 5.71002 9H5.00002C4.66551 9.00001 4.34059 9.11183 4.07692 9.3177C3.81326 9.52356 3.62597 9.81166 3.54483 10.1362L0.544835 22.1362C0.30846 23.0816 1.02396 24 2.00002 24H5.50002V30.5C5.50002 31.3284 6.17159 32 7.00002 32H9.00002C9.82846 32 10.5 31.3284 10.5 30.5V24H14C14.9745 24 15.692 23.0831 15.4552 22.1362Z" fill="#0165E1" /></svg>