<svg width="32" height="24" viewBox="0 0 32 24" fill="none" xmlns="http://www.w3.org/2000/svg">
 <path  d= "M27.2 10.4L20.8 9.60005L18.4 8.80005H17.2L11.3579 1.40005H13.3333C13.9166 1.40005 14.4 1.2688 14.4 1.10005C14.4 0.931299 13.9166 0.800049 13.3333 0.800049H7.6V1.40005H8.4V9.60005H6L2.66665 5.60005H0.93335L0.4 6.1334V9.60005H0.8V10.4H3.2V10.5333L0 10.9333V13.0667L3.2 13.4667V13.6H0.8V14.4H0.4V17.8667L0.93335 18.4H2.6667L6 14.4H8.4V22.6H7.6V23.2H13.3333C13.9167 23.2 14.4 23.0688 14.4 22.9C14.4 22.7313 13.9166 22.6 13.3333 22.6H11.3579L17.2 15.2H18.4L20.8 14.4L27.2 13.6C32 12.5334 32 12.2709 32 12C32 11.7292 32 11.4667 27.2 10.4Z" fill="#0165E1" /></svg>