<svg width="24" height="32" viewBox="0 0 24 32" fill="none" xmlns="http://www.w3.org/2000/svg">
 <path  d= "M14 8.5V0H1.5C0.66875 0 0 0.66875 0 1.5V30.5C0 31.3312 0.66875 32 1.5 32H22.5C23.3312 32 24 31.3312 24 30.5V10H15.5C14.675 10 14 9.325 14 8.5ZM4 4.5C4 4.22375 4.22375 4 4.5 4H9.5C9.77625 4 10 4.22375 10 4.5V5.5C10 5.77625 9.77625 6 9.5 6H4.5C4.22375 6 4 5.77625 4 5.5V4.5ZM4 8.5C4 8.22375 4.22375 8 4.5 8H9.5C9.77625 8 10 8.22375 10 8.5V9.5C10 9.77625 9.77625 10 9.5 10H4.5C4.22375 10 4 9.77625 4 9.5V8.5ZM16.0506 24H19C19.5525 24 20 24.4475 20 25C20 25.5525 19.5525 26 19 26H16.0506C15.0225 26 14.0962 25.4288 13.6356 24.5088C13.4513 24.1388 13.13 24.1012 13 24.1012C12.87 24.1012 12.5487 24.1381 12.3737 24.4881L11.8944 25.4469C11.8114 25.613 11.6837 25.7527 11.5257 25.8503C11.3677 25.9479 11.1857 25.9995 11 25.9994C10.9762 25.9994 10.9531 25.9981 10.9288 25.9963C10.5256 25.9681 10.1788 25.6994 10.0519 25.3156L9 22.1619L8.33687 24.1544C7.96875 25.2581 6.93813 26 5.77437 26H5C4.4475 26 4 25.5525 4 25C4 24.4475 4.4475 24 5 24H5.77437C6.07625 24 6.34375 23.8075 6.43937 23.5212L7.57625 20.1063C7.7825 19.4931 8.35375 19.0806 9 19.0806C9.64625 19.0806 10.2175 19.4925 10.4231 20.1063L11.2906 22.7087C12.5262 21.6969 14.6687 22.1025 15.4156 23.5938C15.5419 23.8475 15.7881 24 16.0506 24ZM23.5625 6.5625L17.4438 0.4375C17.1625 0.15625 16.7812 0 16.3813 0H16V8H24V7.61875C24 7.225 23.8438 6.84375 23.5625 6.5625Z" fill="#0165E1" /></svg>