<svg width="24" height="32" viewBox="0 0 24 32" fill="none" xmlns="http://www.w3.org/2000/svg">
 <path  d= "M23.5625 6.5625L17.4438 0.4375C17.1625 0.15625 16.7812 0 16.3813 0H16V8H24V7.61875C24 7.225 23.8438 6.84375 23.5625 6.5625ZM14 8.5V0H1.5C0.66875 0 0 0.66875 0 1.5V30.5C0 31.3312 0.66875 32 1.5 32H22.5C23.3312 32 24 31.3312 24 30.5V10H15.5C14.675 10 14 9.325 14 8.5ZM4 4.5C4 4.22375 4.22375 4 4.5 4H9.5C9.77625 4 10 4.22375 10 4.5V5.5C10 5.77625 9.77625 6 9.5 6H4.5C4.22375 6 4 5.77625 4 5.5V4.5ZM4 9.5V8.5C4 8.22375 4.22375 8 4.5 8H9.5C9.77625 8 10 8.22375 10 8.5V9.5C10 9.77625 9.77625 10 9.5 10H4.5C4.22375 10 4 9.77625 4 9.5ZM13 25.9925V27.5C13 27.7763 12.7762 28 12.5 28H11.5C11.2238 28 11 27.7763 11 27.5V25.9819C10.2944 25.9456 9.60813 25.6994 9.03938 25.2725C8.79563 25.0894 8.78312 24.7244 9.00375 24.5138L9.73812 23.8131C9.91125 23.6481 10.1687 23.6406 10.3713 23.7675C10.6131 23.9188 10.8875 24 11.1725 24H12.9294C13.3356 24 13.6669 23.63 13.6669 23.1756C13.6669 22.8037 13.4412 22.4762 13.1187 22.38L10.3062 21.5362C9.14437 21.1875 8.3325 20.0725 8.3325 18.8244C8.3325 17.2919 9.52313 16.0469 10.9994 16.0075V14.5C10.9994 14.2238 11.2231 14 11.4994 14H12.4994C12.7756 14 12.9994 14.2238 12.9994 14.5V16.0181C13.705 16.0544 14.3912 16.3 14.96 16.7275C15.2037 16.9106 15.2162 17.2756 14.9956 17.4862L14.2612 18.1869C14.0881 18.3519 13.8306 18.3594 13.6281 18.2325C13.3863 18.0806 13.1119 18 12.8269 18H11.07C10.6637 18 10.3325 18.37 10.3325 18.8244C10.3325 19.1963 10.5581 19.5238 10.8806 19.62L13.6931 20.4638C14.855 20.8125 15.6669 21.9275 15.6669 23.1756C15.6669 24.7087 14.4762 25.9531 13 25.9925Z" fill="#0165E1" /></svg>