<svg width="24" height="32" viewBox="0 0 24 32" fill="none" xmlns="http://www.w3.org/2000/svg">
 <path  d= "M24 7.62131V8H16V0H16.3787C16.7765 0 17.1581 0.158062 17.4394 0.439312L23.5607 6.56063C23.842 6.84196 24 7.22349 24 7.62131ZM14 8.5V0H1.5C0.671562 0 0 0.671562 0 1.5V30.5C0 31.3284 0.671562 32 1.5 32H22.5C23.3284 32 24 31.3284 24 30.5V10H15.5C14.675 10 14 9.325 14 8.5ZM20 17.501V24.4987C20 25.839 18.3786 26.4986 17.4393 25.5594L14 22.1213V24.5C14 25.3284 13.3284 26 12.5 26H5.5C4.67156 26 4 25.3284 4 24.5V17.5C4 16.6716 4.67156 16 5.5 16H12.5C13.3284 16 14 16.6716 14 17.5V19.8787L17.4393 16.4404C18.3775 15.5022 20 16.1597 20 17.501Z" fill="#0165E1" /></svg>