<svg width="32" height="32" viewBox="0 0 32 32" fill="none" xmlns="http://www.w3.org/2000/svg">
 <path  d= "M1 18C0.4475 18 0 18.4475 0 19V21C0 21.5525 0.4475 22 1 22H8V18H1ZM22 8.5V0H9.5C8.66875 0 8 0.66875 8 1.5V18H15.9994V13.9263C15.9994 13.0338 17.08 12.5881 17.7094 13.2219L23.6906 19.2488C24.1031 19.6644 24.1031 20.3356 23.6906 20.7512L17.7094 26.7775C17.0806 27.4113 15.9994 26.9656 15.9994 26.0731V22H8V30.5C8 31.3312 8.66875 32 9.5 32H30.5C31.3312 32 32 31.3312 32 30.5V10H23.5C22.675 10 22 9.325 22 8.5ZM31.5625 6.5625L25.4438 0.4375C25.1625 0.15625 24.7812 0 24.3813 0H24V8H32V7.61875C32 7.225 31.8438 6.84375 31.5625 6.5625Z" fill="#0165E1" /></svg>