<svg width="28" height="32" viewBox="0 0 28 32" fill="none" xmlns="http://www.w3.org/2000/svg">
 <path  d= "M18 8.5V0H5.5C4.66875 0 4 0.66875 4 1.5V16H0.5C0.225 16 0 16.225 0 16.5V17.5C0 17.775 0.225 18 0.5 18H9.30625C9.49375 18 9.66875 18.1062 9.75625 18.275L11 20.7625L14.55 13.6562C14.7312 13.2875 15.2625 13.2875 15.4438 13.6562L17.6125 18H22C22.55 18 23 18.45 23 19C23 19.55 22.55 20 22 20H16.3813L15 17.2375L11.45 24.3438C11.2688 24.7125 10.7375 24.7125 10.5562 24.3438L8.38125 20H4V30.5C4 31.3312 4.66875 32 5.5 32H26.5C27.3312 32 28 31.3312 28 30.5V10H19.5C18.675 10 18 9.325 18 8.5ZM27.5625 6.5625L21.4438 0.4375C21.1625 0.15625 20.7812 0 20.3813 0H20V8H28V7.61875C28 7.225 27.8438 6.84375 27.5625 6.5625Z" fill="#0165E1" /></svg>