<svg width="24" height="32" viewBox="0 0 24 32" fill="none" xmlns="http://www.w3.org/2000/svg">
 <path  d= "M14 8.5V0H1.5C0.66875 0 0 0.66875 0 1.5V30.5C0 31.3312 0.66875 32 1.5 32H22.5C23.3312 32 24 31.3312 24 30.5V10H15.5C14.675 10 14 9.325 14 8.5ZM18.2831 19.7175L18.99 20.4244C19.3806 20.815 19.3806 21.4481 18.99 21.8388L17.1213 23.7075L19 25.5863C19.3906 25.9769 19.3906 26.61 19 27.0006L18.2931 27.7075C17.9025 28.0981 17.2694 28.0981 16.8787 27.7075L15 25.8281L13.1213 27.7069C12.7306 28.0975 12.0975 28.0975 11.7069 27.7069L11 27C10.6094 26.6094 10.6094 25.9762 11 25.5856L12.8787 23.7069L9.17125 20H8V23C8 23.5525 7.5525 24 7 24H6C5.4475 24 5 23.5525 5 23V13C5 12.4475 5.4475 12 6 12H11C13.2094 12 15 13.7906 15 16C15 17.5138 14.1487 18.8156 12.9087 19.495L15 21.5863L16.8687 19.7175C17.2594 19.3269 17.8925 19.3269 18.2831 19.7175ZM11 17H8V15H11C11.5513 15 12 15.4487 12 16C12 16.5513 11.5513 17 11 17ZM24 7.61875V8H16V0H16.3813C16.7812 0 17.1625 0.15625 17.4438 0.4375L23.5625 6.5625C23.8438 6.84375 24 7.225 24 7.61875Z" fill="#0165E1" /></svg>