<svg width="24" height="32" viewBox="0 0 24 32" fill="none" xmlns="http://www.w3.org/2000/svg">
 <path  d= "M14 8.5V0H1.5C0.66875 0 0 0.66875 0 1.5V30.5C0 31.3312 0.66875 32 1.5 32H22.5C23.3312 32 24 31.3312 24 30.5V10H15.5C14.675 10 14 9.325 14 8.5ZM17.5688 16H19.0625C19.5438 16 19.9 16.4438 19.7938 16.9188L17.4188 27.4188C17.3438 27.7625 17.0375 28 16.6875 28H14.3125C13.9688 28 13.6687 27.7625 13.5875 27.4312C11.975 20.9625 12.2875 22.3562 11.9875 20.525H11.9563C11.8875 21.4187 11.8062 21.6125 10.3562 27.4312C10.275 27.7625 9.975 28 9.63125 28H7.3125C6.9625 28 6.65625 27.7563 6.58125 27.4125L4.21875 16.9125C4.1125 16.4438 4.46875 16 4.95 16H6.48125C6.8375 16 7.15 16.25 7.21875 16.6063C8.19375 21.4813 8.475 23.45 8.53125 24.2437C8.63125 23.6062 8.9875 22.2 10.3687 16.575C10.45 16.2375 10.75 16.0063 11.1 16.0063H12.9187C13.2688 16.0063 13.5687 16.2437 13.65 16.5812C15.15 22.8562 15.45 24.3313 15.5 24.6688C15.4875 23.9688 15.3375 23.5562 16.85 16.5938C16.9125 16.2437 17.2188 16 17.5688 16ZM24 7.61875V8H16V0H16.3813C16.7812 0 17.1625 0.15625 17.4438 0.4375L23.5625 6.5625C23.8438 6.84375 24 7.225 24 7.61875Z" fill="#0165E1" /></svg>