<svg width="24" height="32" viewBox="0 0 24 32" fill="none" xmlns="http://www.w3.org/2000/svg">
 <path  d= "M23.5625 6.5625L17.4438 0.4375C17.1625 0.15625 16.7812 0 16.3813 0H16V8H24V7.61875C24 7.225 23.8438 6.84375 23.5625 6.5625ZM14 8.5V0H1.5C0.66875 0 0 0.66875 0 1.5V30.5C0 31.3312 0.66875 32 1.5 32H22.5C23.3312 32 24 31.3312 24 30.5V10H15.5C14.675 10 14 9.325 14 8.5ZM18 18.5V21.5C18 21.775 17.775 22 17.5 22H14V25.5C14 25.775 13.775 26 13.5 26H10.5C10.225 26 10 25.775 10 25.5V22H6.5C6.225 22 6 21.775 6 21.5V18.5C6 18.225 6.225 18 6.5 18H10V14.5C10 14.225 10.225 14 10.5 14H13.5C13.775 14 14 14.225 14 14.5V18H17.5C17.775 18 18 18.225 18 18.5Z" fill="#0165E1" /></svg>