<svg width="24" height="32" viewBox="0 0 24 32" fill="none" xmlns="http://www.w3.org/2000/svg">
 <path  d= "M11.3687 16.0063C11.0562 15.0063 11.0625 13.075 11.2437 13.075C11.7687 13.075 11.7188 15.3813 11.3687 16.0063ZM11.2625 18.9562C10.7812 20.2188 10.1813 21.6625 9.4875 22.875C10.6313 22.4375 11.925 21.8 13.4187 21.5063C12.625 20.9062 11.8625 20.0437 11.2625 18.9562ZM5.38125 26.7563C5.38125 26.8062 6.20625 26.4187 7.5625 24.2437C7.14375 24.6375 5.74375 25.775 5.38125 26.7563ZM15.5 10H24V30.5C24 31.3312 23.3312 32 22.5 32H1.5C0.66875 32 0 31.3312 0 30.5V1.5C0 0.66875 0.66875 0 1.5 0H14V8.5C14 9.325 14.675 10 15.5 10ZM15 20.7375C13.75 19.975 12.9187 18.925 12.3313 17.375C12.6125 16.2188 13.0562 14.4625 12.7188 13.3625C12.425 11.525 10.0687 11.7063 9.73125 12.9375C9.41875 14.0813 9.70625 15.6938 10.2375 17.75C9.5125 19.475 8.44375 21.7875 7.6875 23.1125C7.68125 23.1125 7.68125 23.1187 7.675 23.1187C5.98125 23.9875 3.075 25.9 4.26875 27.3687C4.61875 27.8 5.26875 27.9937 5.6125 27.9937C6.73125 27.9937 7.84375 26.8687 9.43125 24.1313C11.0437 23.6 12.8125 22.9375 14.3687 22.6812C15.725 23.4187 17.3125 23.9 18.3687 23.9C20.1938 23.9 20.3188 21.9 19.6 21.1875C18.7313 20.3375 16.2062 20.5812 15 20.7375ZM23.5625 6.5625L17.4375 0.4375C17.1562 0.15625 16.775 0 16.375 0H16V8H24V7.61875C24 7.225 23.8438 6.84375 23.5625 6.5625ZM18.9312 22.5187C19.1875 22.35 18.775 21.775 16.2563 21.9562C18.575 22.9437 18.9312 22.5187 18.9312 22.5187Z" fill="#0165E1" /></svg>