<svg width="24" height="32" viewBox="0 0 24 32" fill="none" xmlns="http://www.w3.org/2000/svg">
 <path  d= "M14 8.5V0H1.5C0.66875 0 0 0.66875 0 1.5V30.5C0 31.3312 0.66875 32 1.5 32H22.5C23.3312 32 24 31.3312 24 30.5V10H15.5C14.675 10 14 9.325 14 8.5ZM18.7781 21.71L12.7519 27.6912C12.3363 28.1044 11.665 28.1044 11.2494 27.6912L5.22312 21.71C4.58875 21.0806 5.03375 20 5.92625 20H10V15C10 14.4475 10.4475 14 11 14H13C13.5525 14 14 14.4475 14 15V20H18.0737C18.9662 20 19.4113 21.0806 18.7781 21.71ZM23.5625 6.5625L17.4438 0.4375C17.1625 0.15625 16.7812 0 16.3813 0H16V8H24V7.61875C24 7.225 23.8438 6.84375 23.5625 6.5625Z" fill="#0165E1" /></svg>