<svg width="24" height="32" viewBox="0 0 24 32" fill="none" xmlns="http://www.w3.org/2000/svg">
 <path  d= "M14 8.5V0H1.5C0.66875 0 0 0.66875 0 1.5V30.5C0 31.3312 0.66875 32 1.5 32H22.5C23.3312 32 24 31.3312 24 30.5V10H15.5C14.675 10 14 9.325 14 8.5ZM10 25.25C10 25.9188 9.19375 26.25 8.71875 25.7812L6.5 23.5H4.75C4.3375 23.5 4 23.1625 4 22.75V19.25C4 18.8375 4.3375 18.5 4.75 18.5H6.5L8.71875 16.2188C9.19375 15.7437 10 16.0812 10 16.75V25.25ZM12.075 22.275C12.6438 21.6938 12.6438 20.7687 12.075 20.1875C10.6937 18.7625 12.8375 16.675 14.225 18.0938C15.925 19.8375 15.925 22.6187 14.225 24.3687C12.8625 25.7625 10.6687 23.7188 12.075 22.275ZM17.45 14.9563C20.85 18.45 20.85 24.0063 17.45 27.5063C16.0875 28.9062 13.8875 26.8625 15.3 25.4125C17.5625 23.0875 17.5688 19.3812 15.3 17.05C13.9187 15.625 16.0688 13.5312 17.45 14.9563ZM24 7.61875V8H16V0H16.3813C16.7812 0 17.1625 0.15625 17.4438 0.4375L23.5625 6.5625C23.8438 6.84375 24 7.225 24 7.61875Z" fill="#0165E1" /></svg>