<svg width="24" height="32" viewBox="0 0 24 32" fill="none" xmlns="http://www.w3.org/2000/svg">
 <path  d= "M24 7.62131V8H16V0H16.3787C16.7765 0 17.1581 0.158062 17.4394 0.439312L23.5607 6.56063C23.842 6.84196 24 7.22349 24 7.62131ZM15.5 10C14.675 10 14 9.325 14 8.5V0H1.5C0.671562 0 0 0.671562 0 1.5V30.5C0 31.3284 0.671562 32 1.5 32H22.5C23.3284 32 24 31.3284 24 30.5V10H15.5ZM7.70038 25.0316C7.67006 25.0639 7.63367 25.0899 7.59329 25.1082C7.55291 25.1265 7.50933 25.1366 7.46503 25.1381C7.42073 25.1395 7.37658 25.1322 7.33511 25.1165C7.29363 25.1009 7.25565 25.0773 7.22331 25.0469L3.16919 21.2462C3.13552 21.2146 3.10868 21.1765 3.09033 21.1341C3.07198 21.0918 3.06252 21.0461 3.06252 21C3.06252 20.9538 3.07198 20.9082 3.09033 20.8658C3.10868 20.8235 3.13552 20.7853 3.16919 20.7537L7.22331 16.953C7.25565 16.9227 7.29363 16.899 7.33511 16.8834C7.37658 16.8678 7.42073 16.8605 7.46503 16.8619C7.50933 16.8633 7.55291 16.8734 7.59329 16.8917C7.63367 16.91 7.67006 16.936 7.70038 16.9684L8.92406 18.2737C8.95499 18.3067 8.97897 18.3455 8.99458 18.388C9.01019 18.4304 9.01712 18.4755 9.01495 18.5207C9.01278 18.5659 9.00156 18.6101 8.98196 18.6509C8.96235 18.6916 8.93475 18.728 8.90081 18.7579L6.35313 21L8.90081 23.2421C8.93475 23.272 8.96235 23.3084 8.98196 23.3491C9.00156 23.3899 9.01278 23.4341 9.01495 23.4793C9.01712 23.5245 9.01019 23.5696 8.99458 23.612C8.97897 23.6545 8.95499 23.6933 8.92406 23.7263L7.70038 25.0316ZM10.9063 28.1865L9.1905 27.6884C9.10454 27.6634 9.03202 27.6053 8.98888 27.5269C8.94574 27.4485 8.93551 27.3561 8.96044 27.2701L12.8004 14.0435C12.8254 13.9575 12.8835 13.885 12.9619 13.8419C13.0404 13.7987 13.1327 13.7885 13.2187 13.8134L14.9344 14.3116C14.977 14.3239 15.0167 14.3445 15.0513 14.3723C15.0859 14.4 15.1147 14.4342 15.1361 14.4731C15.1574 14.5119 15.1709 14.5546 15.1758 14.5986C15.1807 14.6427 15.1768 14.6872 15.1644 14.7298L11.3244 27.9564C11.3121 27.999 11.2915 28.0387 11.2638 28.0733C11.2361 28.1079 11.2019 28.1368 11.1631 28.1581C11.1242 28.1795 11.0816 28.193 11.0375 28.1979C10.9935 28.2027 10.9489 28.1989 10.9063 28.1865ZM20.9558 21.2462L16.9017 25.0469C16.8694 25.0773 16.8314 25.1009 16.7899 25.1165C16.7484 25.1322 16.7043 25.1395 16.66 25.1381C16.6157 25.1366 16.5721 25.1265 16.5317 25.1082C16.4913 25.0899 16.4549 25.0639 16.4246 25.0316L15.2009 23.7262C15.17 23.6933 15.146 23.6544 15.1304 23.612C15.1147 23.5695 15.1078 23.5244 15.11 23.4792C15.1122 23.4341 15.1234 23.3898 15.143 23.3491C15.1626 23.3083 15.1902 23.2719 15.2241 23.2421L17.7719 21L15.2242 18.7579C15.1902 18.728 15.1627 18.6916 15.143 18.6509C15.1234 18.6101 15.1122 18.5659 15.11 18.5207C15.1079 18.4755 15.1148 18.4304 15.1304 18.388C15.146 18.3455 15.17 18.3067 15.2009 18.2737L16.4247 16.9684C16.455 16.936 16.4914 16.91 16.5318 16.8917C16.5721 16.8734 16.6157 16.8633 16.66 16.8619C16.7043 16.8605 16.7485 16.8678 16.79 16.8834C16.8314 16.899 16.8694 16.9227 16.9018 16.953L20.9559 20.7537C20.9895 20.7853 21.0164 20.8235 21.0347 20.8658C21.0531 20.9082 21.0625 20.9538 21.0625 21C21.0625 21.0461 21.053 21.0918 21.0347 21.1341C21.0163 21.1765 20.9895 21.2146 20.9558 21.2462Z" fill="#0165E1" /></svg>