<svg width="32" height="30" viewBox="0 0 32 30" fill="none" xmlns="http://www.w3.org/2000/svg">
 <path  d= "M12.1205 24.3411C11.9566 24.0122 11.6711 23.9788 11.5555 23.9788C11.4399 23.9788 11.1544 24.0116 10.9988 24.3227L10.5727 25.1749C10.2188 25.8849 9.18218 25.8066 8.93496 25.0588L7.99997 22.255L7.41052 24.0261C7.0833 25.0072 6.1672 25.6666 5.13276 25.6666H4.44443C3.95332 25.6666 3.55554 25.2688 3.55554 24.7777C3.55554 24.2866 3.95332 23.8888 4.44443 23.8888H5.13276C5.40109 23.8888 5.63886 23.7177 5.72386 23.4633L6.73442 20.4277C6.91775 19.8827 7.42552 19.5161 7.99997 19.5161C8.57441 19.5161 9.08218 19.8822 9.26496 20.4277L10.0361 22.7411C11.1333 21.8416 13.0394 22.2022 13.7027 23.5277C13.8077 23.7377 14.0077 23.8583 14.2227 23.8755V19.3133L21.3338 12.2528V9.66668H13.7777C13.0444 9.66668 12.4444 9.06668 12.4444 8.33335V0.777832H1.33333C0.594442 0.777832 0 1.37227 0 2.11116V27.8888C0 28.6277 0.594442 29.2222 1.33333 29.2222H19.9999C20.7388 29.2222 21.3332 28.6277 21.3332 27.8888V25.6666L14.2222 25.6605C13.3266 25.6433 12.5233 25.1449 12.1205 24.3411ZM21.3332 7.55002C21.3332 7.20003 21.1944 6.86114 20.9444 6.61114L15.5055 1.16672C15.2555 0.91672 14.9166 0.777832 14.561 0.777832H14.2222V7.88891H21.3332V7.55002ZM15.9999 20.0533V23.8888H19.8327L28.8149 14.8455L25.0438 11.0745L15.9999 20.0533ZM31.5854 10.0739L29.8149 8.30336C29.2626 7.75114 28.3665 7.75114 27.8143 8.30336L26.3004 9.81724L30.0715 13.5883L31.5854 12.0744C32.1382 11.5222 32.1382 10.6261 31.5854 10.0739Z" fill="#0165E1" /></svg>