<svg width="24" height="32" viewBox="0 0 24 32" fill="none" xmlns="http://www.w3.org/2000/svg">
 <path  d= "M14 8.5V0H10.025V2H8.025V0H1.5C0.66875 0 0 0.66875 0 1.5V30.5C0 31.3312 0.66875 32 1.5 32H22.5C23.3312 32 24 31.3312 24 30.5V10H15.5C14.675 10 14 9.325 14 8.5ZM5.99375 2H7.99375V4H5.99375V2ZM8.0125 26C5.9375 26 4.3875 24.1 4.8 22.0688L6.025 16V14H8.025V12H6.025V10H8.025V8H6.025V6H8.025V4H10.025V6H8.025V8H10.025V10H8.025V12H10.025V14H8.025V16H9.40625C9.7625 16 10.075 16.2563 10.1438 16.6063L11.225 22.0875C11.625 24.1125 10.075 26 8.0125 26ZM10.0562 22.6875C10.0562 23.6187 9.15 24.375 8.03125 24.375C6.9125 24.375 6 23.625 6 22.6875C6 21.7563 6.90625 21 8.025 21C9.14375 21 10.0562 21.7563 10.0562 22.6875ZM24 7.61875V8H16V0H16.3813C16.7812 0 17.1625 0.15625 17.4438 0.4375L23.5625 6.5625C23.8438 6.84375 24 7.225 24 7.61875Z" fill="#0165E1" /></svg>