<svg width="24" height="32" viewBox="0 0 24 32" fill="none" xmlns="http://www.w3.org/2000/svg">
 <path  d= "M12.1062 16.95C12.6562 16.95 13.075 17.1187 13.375 17.4562C13.975 18.1375 13.9875 19.5 13.3625 20.2125C13.0563 20.5625 12.6187 20.7437 12.0437 20.7437H10.3625V16.95H12.1062ZM23.5625 6.5625L17.4375 0.4375C17.1562 0.15625 16.775 0 16.375 0H16V8H24V7.61875C24 7.225 23.8438 6.84375 23.5625 6.5625ZM14 8.5V0H1.5C0.66875 0 0 0.66875 0 1.5V30.5C0 31.3312 0.66875 32 1.5 32H22.5C23.3312 32 24 31.3312 24 30.5V10H15.5C14.675 10 14 9.325 14 8.5ZM17.3125 18.825C17.3125 24.4688 11.7625 23.675 10.3687 23.675V27.25C10.3687 27.6625 10.0312 28 9.61875 28H7.69375C7.28125 28 6.94375 27.6625 6.94375 27.25V14.7625C6.94375 14.35 7.28125 14.0125 7.69375 14.0125H12.7563C15.5375 14.0125 17.3125 16.0625 17.3125 18.825Z" fill="#0165E1" /></svg>