<svg width="32" height="30" viewBox="0 0 32 30" fill="none" xmlns="http://www.w3.org/2000/svg">
 <path  d= "M21.3333 7.55005C21.3333 7.20005 21.1944 6.86117 20.9444 6.61117L15.5056 1.16672C15.2556 0.916721 14.9167 0.777832 14.5611 0.777832H14.2222V7.88894H21.3333V7.55005ZM10.6667 19.4445V17.6667C10.6667 17.1756 11.0644 16.7778 11.5556 16.7778H21.3333V9.66672H13.7778C13.0444 9.66672 12.4444 9.06672 12.4444 8.33339V0.777832H1.33333C0.594444 0.777832 0 1.37228 0 2.11117V27.8889C0 28.6278 0.594444 29.2223 1.33333 29.2223H20C20.7389 29.2223 21.3333 28.6278 21.3333 27.8889V20.3334H11.5556C11.0644 20.3334 10.6667 19.9356 10.6667 19.4445ZM31.725 17.8878L26.4083 12.5306C25.8494 11.9673 24.8883 12.3634 24.8883 13.1567V16.7778H21.3333V20.3334H24.8883V23.9545C24.8883 24.7478 25.8489 25.1439 26.4083 24.5806L31.725 19.2239C32.0917 18.8539 32.0917 18.2573 31.725 17.8878Z" fill="#0165E1" /></svg>