<svg width="32" height="30" viewBox="0 0 32 30" fill="none" xmlns="http://www.w3.org/2000/svg">
 <path  d= "M28.4444 18.5556C28.4444 18.5556 24.8889 23.7028 24.8889 25.6667C24.8889 27.6306 26.4811 29.2223 28.4444 29.2223C30.4078 29.2223 32 27.6306 32 25.6667C32 23.7028 28.4444 18.5556 28.4444 18.5556ZM27.9239 12.8367L16.3855 1.29827C16.0383 0.951044 15.5833 0.77771 15.1283 0.77771C14.6733 0.77771 14.2183 0.951044 13.8716 1.29827L9.33935 5.83051L4.55155 1.04216C4.20432 0.694932 3.64154 0.694932 3.29488 1.04216L2.0382 2.29883C1.69154 2.64605 1.69154 3.20883 2.0382 3.5555L6.82656 8.3433L1.56209 13.6078C-0.520697 15.69 -0.520697 19.0667 1.56209 21.1495L8.07267 27.66C9.11379 28.7012 10.4788 29.2223 11.8432 29.2223C13.2083 29.2223 14.5727 28.7017 15.6138 27.66L27.9233 15.3506C28.6178 14.6561 28.6178 13.5311 27.9239 12.8367ZM21.4672 16.7794H3.66265C3.73821 16.5661 3.86099 16.3361 4.07543 16.1222L4.80599 15.3917L9.3399 10.8578L12.5955 14.1133C13.2894 14.8072 14.4149 14.8072 15.1088 14.1133C15.8027 13.4194 15.8027 12.2939 15.1088 11.6L11.8532 8.34441L15.1283 5.0694L24.1527 14.0939L21.4672 16.7794Z" fill="#0165E1" /></svg>