<svg width="32" height="32" viewBox="0 0 32 32" fill="none" xmlns="http://www.w3.org/2000/svg">
 <path  d= "M31.4141 13.566L18.4337 0.585614C18.0431 0.194996 17.5312 0 17.0194 0C16.5075 0 15.9956 0.194996 15.6057 0.585614L10.507 5.68426L5.12086 0.298119C4.73086 -0.0924982 4.09713 -0.0924982 3.70713 0.298119L2.29341 1.71122C1.90342 2.10183 1.90342 2.73495 2.29341 3.12556L7.68018 8.51171L1.7578 14.4341C-0.585282 16.7772 -0.585282 20.5752 1.7578 22.9183L9.08203 30.2425C10.2539 31.4138 11.7889 32 13.3238 32C14.8594 32 16.3944 31.4144 17.5662 30.2425L31.4141 16.3947C32.1947 15.6134 32.1947 14.3472 31.4141 13.566ZM24.1505 18.0015H4.12088C4.20587 17.7615 4.344 17.5028 4.58524 17.2622L5.4071 16.4403L10.5076 11.3398L14.1707 15.0022C14.9513 15.7828 16.2175 15.7828 16.9981 15.0022C17.7787 14.2216 17.7787 12.9554 16.9981 12.1748L13.3351 8.51233L17.0194 4.82803L27.1723 14.9803L24.1505 18.0015Z" fill="#0165E1" /></svg>