<svg width="32" height="24" viewBox="0 0 32 24" fill="none" xmlns="http://www.w3.org/2000/svg">
 <path  d= "M30.5 0H30V1.25C30 1.6625 29.6625 2 29.25 2H26.75C26.3375 2 26 1.6625 26 1.25V0H6V1.25C6 1.6625 5.6625 2 5.25 2H2.75C2.3375 2 2 1.6625 2 1.25V0H1.5C0.66875 0 0 0.66875 0 1.5V22.5C0 23.3312 0.66875 24 1.5 24H2V22.75C2 22.3375 2.3375 22 2.75 22H5.25C5.6625 22 6 22.3375 6 22.75V24H26V22.75C26 22.3375 26.3375 22 26.75 22H29.25C29.6625 22 30 22.3375 30 22.75V24H30.5C31.3312 24 32 23.3312 32 22.5V1.5C32 0.66875 31.3312 0 30.5 0ZM6 19.25C6 19.6625 5.6625 20 5.25 20H2.75C2.3375 20 2 19.6625 2 19.25V16.75C2 16.3375 2.3375 16 2.75 16H5.25C5.6625 16 6 16.3375 6 16.75V19.25ZM6 13.25C6 13.6625 5.6625 14 5.25 14H2.75C2.3375 14 2 13.6625 2 13.25V10.75C2 10.3375 2.3375 10 2.75 10H5.25C5.6625 10 6 10.3375 6 10.75V13.25ZM6 7.25C6 7.6625 5.6625 8 5.25 8H2.75C2.3375 8 2 7.6625 2 7.25V4.75C2 4.3375 2.3375 4 2.75 4H5.25C5.6625 4 6 4.3375 6 4.75V7.25ZM23 20.25C23 20.6625 22.6625 21 22.25 21H9.75C9.3375 21 9 20.6625 9 20.25V14.25C9 13.8375 9.3375 13.5 9.75 13.5H22.25C22.6625 13.5 23 13.8375 23 14.25V20.25ZM23 9.75C23 10.1625 22.6625 10.5 22.25 10.5H9.75C9.3375 10.5 9 10.1625 9 9.75V3.75C9 3.3375 9.3375 3 9.75 3H22.25C22.6625 3 23 3.3375 23 3.75V9.75ZM30 19.25C30 19.6625 29.6625 20 29.25 20H26.75C26.3375 20 26 19.6625 26 19.25V16.75C26 16.3375 26.3375 16 26.75 16H29.25C29.6625 16 30 16.3375 30 16.75V19.25ZM30 13.25C30 13.6625 29.6625 14 29.25 14H26.75C26.3375 14 26 13.6625 26 13.25V10.75C26 10.3375 26.3375 10 26.75 10H29.25C29.6625 10 30 10.3375 30 10.75V13.25ZM30 7.25C30 7.6625 29.6625 8 29.25 8H26.75C26.3375 8 26 7.6625 26 7.25V4.75C26 4.3375 26.3375 4 26.75 4H29.25C29.6625 4 30 4.3375 30 4.75V7.25Z" fill="#0165E1" /></svg>