<svg width="32" height="32" viewBox="0 0 32 32" fill="none" xmlns="http://www.w3.org/2000/svg">
 <path  d= "M16.0072 15.3725C15.179 15.3725 14.5072 16.0437 14.5072 16.8725C14.5784 21.3881 13.9984 25.7412 12.7759 30.0944C12.6053 30.7019 12.9103 32 14.2209 32C14.8759 32 15.4778 31.5675 15.664 30.905C16.5097 27.9106 17.604 23.0669 17.5065 16.8725C17.5072 16.0444 16.8359 15.3725 16.0072 15.3725ZM15.9534 10.2644C12.1247 10.26 9.45278 13.2062 9.50591 16.5825C9.55278 19.5787 9.27153 22.5769 8.67028 25.4919C8.50216 26.3031 9.02466 27.0975 9.83528 27.2644C10.6509 27.4312 11.4397 26.9106 11.6078 26.0994C12.254 22.9687 12.5559 19.7506 12.5059 16.5356C12.4803 14.9137 13.7509 13.255 15.909 13.2644C17.8659 13.2937 19.4809 14.8481 19.5103 16.7312C19.5584 19.7344 19.3347 22.7519 18.8472 25.7031C18.7115 26.5194 19.2653 27.2919 20.0822 27.4269C21.3303 27.635 21.7578 26.4831 21.8059 26.1912C22.3234 23.0644 22.5597 19.8656 22.5103 16.6844C22.4553 13.1969 19.514 10.3169 15.9534 10.2644ZM9.03528 9.02812C8.39153 8.50687 7.44966 8.60312 6.92528 9.24562C5.32403 11.2144 4.46341 13.7006 4.50341 16.2456C4.54028 18.5944 4.34903 20.95 3.93403 23.2487C3.78778 24.0644 4.32841 24.8444 5.14403 24.9919C6.40091 25.2106 6.83591 24.0662 6.88716 23.7819C7.33653 21.2919 7.54341 18.7406 7.50341 16.1987C7.47403 14.3312 8.07841 12.5812 9.25341 11.1381C9.77528 10.4956 9.67778 9.55125 9.03528 9.02812ZM15.8772 5.1325C14.914 5.10687 13.9478 5.2225 13.0159 5.44312C12.2103 5.63437 11.7115 6.44187 11.9015 7.24875C12.0928 8.05437 12.9015 8.55062 13.7072 8.36312C14.3978 8.2 15.1115 8.1275 15.8322 8.1325C20.5465 8.20312 24.4403 11.9762 24.5122 16.5437C24.549 18.9112 24.4322 21.3006 24.1634 23.6456C24.0697 24.4687 24.6603 25.2131 25.4828 25.3069C26.5278 25.4287 27.0772 24.5644 27.144 23.9875C27.428 21.5012 27.551 18.9991 27.5122 16.4969C27.4147 10.325 22.1953 5.22625 15.8772 5.1325ZM31.6315 12.7231C31.4528 11.9156 30.6622 11.3981 29.8434 11.5812C29.0347 11.76 28.5234 12.56 28.7022 13.3694C28.9965 14.7075 29.009 15.7075 28.9959 17.2194C28.989 18.0487 29.6553 18.725 30.4834 18.7319H30.4959C31.319 18.7319 31.989 18.0687 31.9959 17.2444C32.0072 15.8581 32.0209 14.4875 31.6315 12.7231ZM29.124 7.05312C26.0803 2.71625 21.0997 0.0806209 15.8003 0.00124588C11.4384 -0.0512541 7.40403 1.55687 4.40341 4.55875C1.50528 7.46062 -0.0565934 11.315 0.00840664 15.4156L0.000906643 16.7575C-0.0234684 17.5856 0.627782 18.2769 1.45591 18.3006C1.47028 18.3019 1.48591 18.3019 1.50091 18.3019C2.30841 18.3019 2.97528 17.6581 2.99903 16.8456L3.00903 15.3681C2.95716 12.0869 4.20653 9.00187 6.52653 6.68062C8.94903 4.25562 12.2353 2.95125 15.7565 3.00187C20.0972 3.06625 24.1772 5.22437 26.6703 8.77625C27.1459 9.455 28.0803 9.61687 28.759 9.1425C29.4365 8.66625 29.6003 7.73062 29.124 7.05312Z" fill="#0165E1" /></svg>