<svg width="28" height="32" viewBox="0 0 28 32" fill="none" xmlns="http://www.w3.org/2000/svg">
 <path  d= "M27.1266 1.64556L16.6266 3.39556C15.9182 3.51362 15.9999 4.2375 15.9999 4.5H12.3541C13.0219 2.25675 11.3403 0 8.99988 0C6.5352 0 4.85188 2.47975 5.73563 4.76269C2.4832 5.57838 1.02432 8.151 0.107571 10.4429C-0.200116 11.2121 0.174009 12.0851 0.943196 12.3927C1.71301 12.7006 2.58563 12.3256 2.89295 11.5571C4.69101 7.06187 6.68513 7.5 10.4999 7.5V9.19225C7.90345 9.87113 5.99988 12.2694 5.99988 15.0753V30.5C5.99988 31.3284 6.67145 32 7.49988 32H16.4999C17.3283 32 17.9999 31.3284 17.9999 30.5V15C17.9999 12.2043 16.0876 9.8555 13.4999 9.18937V7.5H15.9999C15.9999 7.68587 15.8934 8.48225 16.6266 8.60444L27.1266 10.3544C27.5838 10.4306 27.9999 10.0781 27.9999 9.61462V2.38538C27.9999 1.92188 27.5838 1.56938 27.1266 1.64556ZM8.99988 4.5C8.44851 4.5 7.99988 4.05137 7.99988 3.5C7.99988 2.94863 8.44851 2.5 8.99988 2.5C9.55126 2.5 9.99988 2.94863 9.99988 3.5C9.99988 4.05137 9.55126 4.5 8.99988 4.5Z" fill="#0165E1" /></svg>