<svg width="32" height="26" viewBox="0 0 32 26" fill="none" xmlns="http://www.w3.org/2000/svg">
 <path  d= "M0 3.22221V22.7778C0 24.25 1.19444 25.4444 2.66667 25.4444H5.33333V0.555542H2.66667C1.19444 0.555542 0 1.74999 0 3.22221ZM7.11111 25.4444H24.8889V0.555542H7.11111V25.4444ZM10.6667 11.6667C10.6667 11.4222 10.8667 11.2222 11.1111 11.2222H14.2222V8.1111C14.2222 7.86665 14.4222 7.66665 14.6667 7.66665H17.3333C17.5778 7.66665 17.7778 7.86665 17.7778 8.1111V11.2222H20.8889C21.1333 11.2222 21.3333 11.4222 21.3333 11.6667V14.3333C21.3333 14.5778 21.1333 14.7778 20.8889 14.7778H17.7778V17.8889C17.7778 18.1333 17.5778 18.3333 17.3333 18.3333H14.6667C14.4222 18.3333 14.2222 18.1333 14.2222 17.8889V14.7778H11.1111C10.8667 14.7778 10.6667 14.5778 10.6667 14.3333V11.6667ZM29.3333 0.555542H26.6667V25.4444H29.3333C30.8056 25.4444 32 24.25 32 22.7778V3.22221C32 1.74999 30.8056 0.555542 29.3333 0.555542Z" fill="#0165E1" /></svg>