<svg width="32" height="18" viewBox="0 0 32 18" fill="none" xmlns="http://www.w3.org/2000/svg">
 <path  d= "M18.1723 0.111084C13.1739 0.111084 8.80894 3.15386 6.3795 5.75718L1.52784 2.08775C0.853957 1.57775 -0.152152 2.12108 0.0200695 2.90219L1.3634 8.99995L0.019514 15.0983C-0.152708 15.8794 0.853401 16.4222 1.52729 15.9127L6.37894 12.2433C8.80838 14.8461 13.1739 17.8888 18.1723 17.8888C25.8089 17.8888 32 10.7777 32 8.99995C32 7.22218 25.8089 0.111084 18.1723 0.111084ZM23.0295 10.3333C22.2934 10.3333 21.6961 9.73606 21.6961 8.99995C21.6961 8.26329 22.2934 7.66662 23.0295 7.66662C23.7661 7.66662 24.3628 8.26329 24.3628 8.99995C24.3628 9.73606 23.7656 10.3333 23.0295 10.3333Z" fill="#0165E1" /></svg>