<svg width="32" height="32" viewBox="0 0 32 32" fill="none" xmlns="http://www.w3.org/2000/svg">
 <path  d= "M21.5978 6.17392C18.2486 6.17392 15.4826 3.99998 11.2718 3.99998C9.71207 3.99998 8.31494 4.27398 7.01894 4.75079C7.19855 4.28171 7.275 3.77944 7.24307 3.27817C7.13232 1.50092 5.67538 0.075353 3.89613 0.00297798C1.89656 -0.0783971 0.25 1.51848 0.25 3.49998C0.25 4.68911 0.843563 5.73904 1.75 6.37155V30.5C1.75 31.3284 2.42156 32 3.25 32H4.25C5.07844 32 5.75 31.3284 5.75 30.5V24.6C7.51944 23.846 9.72388 23.2174 12.9022 23.2174C16.2514 23.2174 19.0175 25.3913 23.2283 25.3913C26.2388 25.3913 28.645 24.3729 30.8848 22.8377C31.4275 22.4657 31.75 21.8482 31.75 21.1903V5.99654C31.75 4.53448 30.2332 3.56717 28.9072 4.18304C26.7611 5.17979 24.1288 6.17392 21.5978 6.17392Z" fill="#0165E1" /></svg>