<svg width="32" height="32" viewBox="0 0 32 32" fill="none" xmlns="http://www.w3.org/2000/svg">
 <path  d= "M28.9072 4.18298C30.2332 3.56711 31.75 4.53442 31.75 5.99648V21.1902C31.75 21.8481 31.4275 22.4657 30.8848 22.8376C28.645 24.3729 26.2389 25.3912 23.2283 25.3912C19.0175 25.3912 16.2514 23.2173 12.9022 23.2173C9.72388 23.2173 7.51944 23.8459 5.75 24.5999V30.5C5.75 31.3284 5.07844 32 4.25 32H3.25C2.42156 32 1.75 31.3284 1.75 30.5V6.37155C0.843563 5.73904 0.25 4.68911 0.25 3.49998C0.25 1.51848 1.89656 -0.0783971 3.89613 0.00297798C5.67538 0.075353 7.13232 1.50098 7.24307 3.27823C7.27557 3.79961 7.19244 4.29761 7.01894 4.75086C8.31494 4.27398 9.71207 3.99998 11.2718 3.99998C15.4826 3.99998 18.2486 6.17392 21.5978 6.17392C24.1288 6.17392 26.7611 5.17979 28.9072 4.18298ZM5.75 8.41436V12.82C7.56251 12.1531 8.94876 11.7056 10.35 11.5131V7.03998C8.88126 7.17561 7.82251 7.65186 5.75 8.41436ZM19.55 8.98874C17.8989 8.69673 16.4321 8.11505 14.95 7.65498V11.8687C16.4609 12.2879 17.9229 12.8965 19.55 13.2631V8.98874ZM10.35 11.5131V15.8906C12.3998 15.7045 13.7194 15.8509 14.95 16.1281V11.8687C13.3721 11.429 12.0387 11.2798 10.35 11.5131ZM14.95 20.4025C16.5961 20.6932 18.0583 21.2729 19.55 21.7362V17.5231C18.0327 17.1015 16.5788 16.495 14.95 16.1281V20.4025ZM5.75 21.3812C7.22625 20.8569 8.73688 20.5162 10.35 20.3462V15.8906C8.71813 16.0375 7.39001 16.3931 5.75 16.9756V21.3812ZM28.75 7.53123C27.4188 8.08436 25.8381 8.63373 24.15 8.93561V13.43C25.8569 13.1575 27.2769 12.5487 28.75 11.9369V7.53123ZM28.75 20.6537V16.2481C27.3631 17.1356 25.7013 17.6612 24.15 17.8744V22.3481C25.7169 22.1994 27.1806 21.6581 28.75 20.6537ZM19.55 13.2631V17.5231C21.154 17.969 22.4635 18.107 24.15 17.8744V13.43C22.5251 13.6917 21.0286 13.5972 19.55 13.2631Z" fill="#0165E1" /></svg>