<svg width="28" height="32" viewBox="0 0 28 32" fill="none" xmlns="http://www.w3.org/2000/svg">
 <path  d= "M27.3245 25.2188L19.9995 13.4375V4H20.4995C21.3308 4 21.9995 3.33125 21.9995 2.5V1.5C21.9995 0.66875 21.3308 0 20.4995 0H7.49954C6.66829 0 5.99954 0.66875 5.99954 1.5V2.5C5.99954 3.33125 6.66829 4 7.49954 4H7.99954V13.4375L0.674536 25.2188C-1.15671 28.1625 0.955786 32 4.43079 32H23.5683C27.0495 32 29.1558 28.1562 27.3245 25.2188ZM8.61829 20L11.6308 15.15C11.862 14.825 11.9933 14.425 11.9933 14V4H15.9933V14C15.9933 14.4312 16.1308 14.825 16.3558 15.15L19.3683 20H8.61829Z" fill="#0165E1" /></svg>