<svg width="32" height="32" viewBox="0 0 32 32" fill="none" xmlns="http://www.w3.org/2000/svg">
 <path  d= "M22.1935 12.3871C21.3355 12.3871 20.6452 13.0774 20.6452 13.9355C20.6452 14.7935 21.3355 15.4839 22.1935 15.4839C23.0516 15.4839 23.7419 14.7935 23.7419 13.9355C23.7419 13.0774 23.0516 12.3871 22.1935 12.3871ZM9.80645 12.3871C8.94839 12.3871 8.25806 13.0774 8.25806 13.9355C8.25806 14.7935 8.94839 15.4839 9.80645 15.4839C10.6645 15.4839 11.3548 14.7935 11.3548 13.9355C11.3548 13.0774 10.6645 12.3871 9.80645 12.3871ZM16 0C7.16129 0 0 7.16129 0 16C0 24.8387 7.16129 32 16 32C24.8387 32 32 24.8387 32 16C32 7.16129 24.8387 0 16 0ZM5.16129 13.9355C5.16129 11.3677 7.23871 9.29032 9.80645 9.29032C12.3742 9.29032 14.4516 11.3677 14.4516 13.9355C14.4516 16.5032 12.3742 18.5806 9.80645 18.5806C7.23871 18.5806 5.16129 16.5032 5.16129 13.9355ZM20.129 25.2903H11.871C10.5032 25.2903 10.5032 23.2258 11.871 23.2258H20.129C21.4968 23.2258 21.4968 25.2903 20.129 25.2903ZM22.1935 18.5806C19.6258 18.5806 17.5484 16.5032 17.5484 13.9355C17.5484 11.3677 19.6258 9.29032 22.1935 9.29032C24.7613 9.29032 26.8387 11.3677 26.8387 13.9355C26.8387 16.5032 24.7613 18.5806 22.1935 18.5806Z" fill="#0165E1" /></svg>