<svg width="32" height="22" viewBox="0 0 32 22" fill="none" xmlns="http://www.w3.org/2000/svg">
 <path  d= "M31.8163 13.0051L27.7928 19.9026C27.4797 20.4394 27.0313 20.8847 26.4925 21.1942C25.9536 21.5037 25.343 21.6666 24.7216 21.6666H2.50139C1.47233 21.6666 0.831167 20.5503 1.34967 19.6614L5.37322 12.7639C5.68635 12.2271 6.13469 11.7818 6.67356 11.4723C7.21243 11.1628 7.82301 10.9999 8.44445 10.9999H30.6647C31.6937 10.9999 32.3349 12.1162 31.8163 13.0051ZM8.44445 9.22214H26.6667V6.55548C26.6667 5.0827 25.4728 3.88881 24 3.88881H15.1111L11.5556 0.333252H2.66667C1.19389 0.333252 0 1.52714 0 2.99992V18.4469L3.83761 11.8681C4.78967 10.236 6.55495 9.22214 8.44445 9.22214Z" fill="#0165E1" /></svg>