<svg width="32" height="32" viewBox="0 0 32 32" fill="none" xmlns="http://www.w3.org/2000/svg">
 <path  d= "M10.8571 27.4286H9.14193L11.0409 21.6584H20.9143L22.8133 27.4286H21.1429C20.5116 27.4286 20 27.9402 20 28.5714V30.8571C20 31.4884 20.5116 32 21.1429 32H30.8571C31.4884 32 32 31.4884 32 30.8571V28.5714C32 27.9402 31.4884 27.4286 30.8571 27.4286H28.9472L19.6782 0.767571C19.6003 0.543369 19.4544 0.348999 19.261 0.21145C19.0676 0.0739001 18.8361 -3.57545e-06 18.5987 1.29738e-10H13.4011C13.1638 -3.57545e-06 12.9323 0.0739001 12.7389 0.21145C12.5454 0.348999 12.3996 0.543369 12.3216 0.767571L3.05279 27.4286H1.14286C0.511643 27.4286 0 27.9402 0 28.5714V30.8571C0 31.4884 0.511643 32 1.14286 32H10.8571C11.4884 32 12 31.4884 12 30.8571V28.5714C12 27.9402 11.4884 27.4286 10.8571 27.4286ZM15.4538 8.01586C15.7644 6.929 15.9259 6.00471 15.9956 5.54129C16.0556 6.00707 16.2056 6.93243 16.5476 8.02029L19.5001 16.8779H12.4559L15.4538 8.01586Z" fill="#0165E1" /></svg>