<svg width="32" height="32" viewBox="0 0 32 32" fill="none" xmlns="http://www.w3.org/2000/svg">
 <path  d= "M31.0645 3.37419C30.7548 2.2 29.8323 1.27742 28.6581 0.96129C27.1161 0.548387 24.7097 0.0580645 21.8968 0L32 10.1161C31.9484 7.30968 31.471 4.91613 31.0645 3.37419ZM0.935484 28.6258C1.24516 29.8 2.16774 30.7226 3.34194 31.0387C4.88387 31.4516 7.29032 31.9419 10.1032 32L0 21.8839C0.0516129 24.6903 0.529032 27.0839 0.935484 28.6258ZM0.270968 17.7677L14.2194 31.7419C22.7677 30.4903 30.271 24.0839 31.7355 14.2323L17.7806 0.258065C9.23226 1.50968 1.72903 7.91613 0.270968 17.7677ZM20.7419 9.79355C20.9419 9.59355 21.271 9.59355 21.471 9.79355L22.2 10.5226C22.4 10.7226 22.4 11.0516 22.2 11.2516L20.3742 13.0774L22.2 14.9032C22.4 15.1032 22.4 15.4323 22.2 15.6323L21.471 16.3613C21.271 16.5613 20.9419 16.5613 20.7419 16.3613L18.9161 14.5355L17.4581 16L19.2839 17.8258C19.4839 18.0258 19.4839 18.3548 19.2839 18.5548L18.5548 19.2839C18.3548 19.4839 18.0258 19.4839 17.8258 19.2839L16 17.4581L14.5419 18.9161L16.3677 20.7419C16.5677 20.9419 16.5677 21.271 16.3677 21.471L15.6387 22.2C15.4387 22.4 15.1097 22.4 14.9097 22.2L13.0839 20.3742L11.2581 22.2C11.0581 22.4 10.729 22.4 10.529 22.2L9.8 21.471C9.6 21.271 9.6 20.9419 9.8 20.7419L11.6258 18.9161L9.8 17.0968C9.6 16.8968 9.6 16.5677 9.8 16.3677L10.529 15.6387C10.729 15.4387 11.0581 15.4387 11.2581 15.6387L13.0839 17.4645L14.5419 16.0065L12.7161 14.1806C12.5161 13.9806 12.5161 13.6516 12.7161 13.4516L13.4452 12.7226C13.6452 12.5226 13.9742 12.5226 14.1742 12.7226L16 14.5484L17.4581 13.0903L15.6323 11.2645C15.4323 11.0645 15.4323 10.7355 15.6323 10.5355L16.3613 9.80645C16.5613 9.60645 16.8903 9.60645 17.0903 9.80645L18.9161 11.6323L20.7419 9.79355Z" fill="#0165E1" /></svg>