<svg width="32" height="26" viewBox="0 0 32 26" fill="none" xmlns="http://www.w3.org/2000/svg">
 <path  d= "M24.8072 4.19065C24.4261 2.12399 22.6217 0.555664 20.4445 0.555664C18.265 0.555664 16.46 2.12733 16.0812 4.19677C7.04173 5.05343 -0.0276961 12.6734 8.15777e-05 21.9434C0.00619267 23.8834 1.61563 25.4445 3.55563 25.4445H20.4445C20.9356 25.4445 21.3334 25.0467 21.3334 24.5556C21.3334 23.5739 20.5373 22.7778 19.5556 22.7778H15.1395L17.1284 20.0928C18.4695 18.0801 17.7034 15.1884 15.2556 14.1706C13.9284 13.619 12.3917 13.9123 11.2423 14.7751L9.42228 16.1412C9.03006 16.4362 8.47284 16.3584 8.17728 15.964C7.88284 15.5706 7.96173 15.0134 8.3545 14.719L10.2867 13.2695C12.3334 11.7329 15.1912 11.7351 17.2384 13.2695C17.8423 13.7223 19.7867 15.4395 19.505 18.4478L26.09 25.4445H31.1111C31.6022 25.4445 32 25.0467 32 24.5556C32 23.5739 31.2039 22.7778 30.2222 22.7778H27.2428L21.7695 16.9623L30.3494 12.1484C30.8501 11.8676 31.2669 11.4585 31.557 10.9632C31.8471 10.4678 32 9.90413 32 9.33009C32 8.1412 31.3489 7.05509 30.3067 6.48398C28.0533 5.24954 24.8072 4.19065 24.8072 4.19065ZM20.4445 6.33343C19.7078 6.33343 19.1111 5.73621 19.1111 5.0001C19.1111 4.26343 19.7078 3.66677 20.4445 3.66677C21.1806 3.66677 21.7778 4.26343 21.7778 5.0001C21.7778 5.73621 21.1806 6.33343 20.4445 6.33343Z" fill="#0165E1" /></svg>