<svg width="32" height="32" viewBox="0 0 32 32" fill="none" xmlns="http://www.w3.org/2000/svg">
 <path  d= "M16 0C7.16129 0 0 7.16129 0 16C0 24.8387 7.16129 32 16 32C24.8387 32 32 24.8387 32 16C32 7.16129 24.8387 0 16 0ZM8.77419 12.9032C8.77419 11.7613 9.69677 10.8387 10.8387 10.8387C11.9806 10.8387 12.9032 11.7613 12.9032 12.9032C12.9032 14.0452 11.9806 14.9677 10.8387 14.9677C9.69677 14.9677 8.77419 14.0452 8.77419 12.9032ZM20.8581 24.729C18.8452 24.1097 17.0258 23.7419 16 23.7419C14.9742 23.7419 13.1548 24.1097 11.1419 24.729C10.4 24.9548 9.69032 24.3226 9.81936 23.5613C10.271 20.9806 13.6968 19.6129 16 19.6129C18.3032 19.6129 21.729 20.9871 22.1806 23.5613C22.3097 24.329 21.5935 24.9548 20.8581 24.729ZM21.1613 14.9677C20.0194 14.9677 19.0968 14.0452 19.0968 12.9032C19.0968 11.7613 20.0194 10.8387 21.1613 10.8387C22.3032 10.8387 23.2258 11.7613 23.2258 12.9032C23.2258 14.0452 22.3032 14.9677 21.1613 14.9677Z" fill="#0165E1" /></svg>