<svg width="32" height="32" viewBox="0 0 32 32" fill="none" xmlns="http://www.w3.org/2000/svg">
 <path  d= "M32 16C32 24.8366 24.8366 32 16 32C7.16342 32 0 24.8366 0 16C0 7.16342 7.16342 0 16 0C24.8366 0 32 7.16342 32 16ZM28.9032 16L28.903 15.9818L27.2215 17.449L23.1777 13.6748L24.2392 8.23252L26.4523 8.43071C24.8466 6.22323 22.5811 4.554 19.955 3.71194L20.8357 5.77252L16 8.45161L11.1643 5.77258L12.045 3.712C9.42368 4.55252 7.156 6.21974 5.54768 8.43077L7.77768 8.23252L8.82232 13.6748L4.77858 17.449L3.09703 15.9818L3.09684 16C3.09684 18.7752 3.96761 21.4163 5.5789 23.6123L6.07594 21.4254L11.5687 22.0994L13.9107 27.1205L11.9815 28.2679C14.5752 29.1145 17.4196 29.1162 20.0185 28.2679L18.0893 27.1205L20.4313 22.0994L25.9241 21.4254L26.4211 23.6123C28.0325 21.4163 28.9032 18.7752 28.9032 16ZM12.8966 20.4885L10.968 14.5974L16 10.9505L21.032 14.5974L19.1209 20.4885H12.8966Z" fill="#0165E1" /></svg>