<svg width="32" height="18" viewBox="0 0 32 18" fill="none" xmlns="http://www.w3.org/2000/svg">
 <path  d= "M24.0037 0.998779H8.00125C3.58056 0.998779 0 4.57934 0 9.00003C0 13.4207 3.58056 17.0013 8.00125 17.0013C10.2416 17.0013 12.2619 16.0811 13.7121 14.6009H18.2879C19.7381 16.0811 21.7634 17.0013 23.9987 17.0013C28.4194 17.0013 32 13.4207 32 9.00003C32 4.57934 28.4244 0.998779 24.0037 0.998779ZM12.802 10.0002C12.802 10.3302 12.532 10.6003 12.2019 10.6003H9.6015V13.2007C9.6015 13.5307 9.33146 13.8008 9.00141 13.8008H7.00109C6.67104 13.8008 6.401 13.5307 6.401 13.2007V10.6003H3.80059C3.47054 10.6003 3.2005 10.3302 3.2005 10.0002V7.99987C3.2005 7.66982 3.47054 7.39978 3.80059 7.39978H6.401V4.79937C6.401 4.46932 6.67104 4.19928 7.00109 4.19928H9.00141C9.33146 4.19928 9.6015 4.46932 9.6015 4.79937V7.39978H12.2019C12.532 7.39978 12.802 7.66982 12.802 7.99987V10.0002ZM22.0034 13.4007C20.6782 13.4007 19.6031 12.3255 19.6031 11.0003C19.6031 9.67513 20.6782 8.59997 22.0034 8.59997C23.3286 8.59997 24.4038 9.67513 24.4038 11.0003C24.4038 12.3255 23.3286 13.4007 22.0034 13.4007ZM26.0041 9.40009C24.6789 9.40009 23.6037 8.32492 23.6037 6.99972C23.6037 5.67451 24.6789 4.59934 26.0041 4.59934C27.3293 4.59934 28.4044 5.67451 28.4044 6.99972C28.4044 8.32492 27.3293 9.40009 26.0041 9.40009Z" fill="#0165E1" /></svg>