<svg width="32" height="32" viewBox="0 0 32 32" fill="none" xmlns="http://www.w3.org/2000/svg">
 <path  d= "M21 28H1C0.45 28 0 28.45 0 29V31C0 31.55 0.45 32 1 32H21C21.55 32 22 31.55 22 31V29C22 28.45 21.55 28 21 28ZM30.825 6.70625L25.7625 1.64375C25.375 1.25625 24.7375 1.25625 24.35 1.64375L23.6437 2.35C23.2562 2.7375 23.2562 3.375 23.6437 3.7625L26 6.11875V10C26 11.7563 27.3062 13.2063 29 13.45V23.5C29 24.325 28.325 25 27.5 25C26.675 25 26 24.325 26 23.5V21.5C26 18.4625 23.5375 16 20.5 16H20V4C20 1.79375 18.2062 0 16 0H6C3.79375 0 2 1.79375 2 4V26H20V19H20.5C21.8813 19 23 20.1187 23 21.5V23.2375C23 25.5938 24.6875 27.7375 27.0312 27.9813C29.7188 28.25 32 26.1375 32 23.5V9.5375C32 8.475 31.575 7.45625 30.825 6.70625ZM16 12H6V4H16V12Z" fill="#0165E1" /></svg>