<svg width="32" height="32" viewBox="0 0 32 32" fill="none" xmlns="http://www.w3.org/2000/svg">
 <path  d= "M31.5607 12.4602L30.1465 11.046C29.5607 10.4602 28.6109 10.4602 28.0252 11.046L27.6716 11.3996L20.6005 4.32849L20.9541 3.97492C21.5399 3.38911 21.5399 2.43936 20.9541 1.85361L19.5399 0.43936C18.9541 -0.146453 18.0043 -0.146453 17.4186 0.43936L9.64036 8.21755C9.05455 8.80336 9.05455 9.75311 9.64036 10.3389L11.0546 11.7531C11.6404 12.3389 12.5901 12.3389 13.1759 11.7531L13.5294 11.3995L16.0043 13.8744L10.9393 18.9394L10.5857 18.5858C9.80468 17.8047 8.53836 17.8047 7.7573 18.5858L0.585797 25.7574C-0.195266 26.5385 -0.195266 27.8048 0.585797 28.5859L3.41424 31.4143C4.1953 32.1954 5.46161 32.1954 6.24267 31.4143L13.4142 24.2427C14.1953 23.4617 14.1953 22.1954 13.4142 21.4143L13.0607 21.0607L18.1257 15.9957L20.6006 18.4706L20.247 18.8242C19.6612 19.41 19.6612 20.3597 20.247 20.9455L21.6612 22.3597C22.247 22.9455 23.1967 22.9455 23.7825 22.3597L31.5607 14.5815C32.1464 13.9957 32.1464 13.046 31.5607 12.4602Z" fill="#0165E1" /></svg>