<svg width="32" height="30" viewBox="0 0 32 30" fill="none" xmlns="http://www.w3.org/2000/svg">
 <path  d= "M26.9722 0.777832L32 9.66672H26.3833L22.5389 0.777832H26.9722ZM19.8611 0.777832L23.7056 9.66672H8.29445L12.1389 0.777832H19.8611ZM5.02778 0.777832H9.46111L5.61667 9.66672H0L5.02778 0.777832ZM0 11.4445H5.59444L12.4278 25.4278C12.5111 25.6001 12.2778 25.7556 12.15 25.6112L0 11.4445ZM8.23333 11.4445H23.7667L16.1556 29.1223C16.1 29.2556 15.9056 29.2556 15.85 29.1223L8.23333 11.4445ZM19.5722 25.4278L26.4056 11.4445H32L19.85 25.6056C19.7222 25.7556 19.4889 25.6001 19.5722 25.4278Z" fill="#0165E1" /></svg>