<svg width="32" height="28" viewBox="0 0 32 28" fill="none" xmlns="http://www.w3.org/2000/svg">
 <path  d= "M2 26C2 27.1063 2.89375 28 4 28H14V18H2V26ZM30 8H27.3687C27.7563 7.24375 28 6.40625 28 5.5C28 2.46875 25.5312 0 22.5 0C19.9 0 18.2188 1.33125 16.0625 4.26875C13.9062 1.33125 12.225 0 9.625 0C6.59375 0 4.125 2.46875 4.125 5.5C4.125 6.40625 4.3625 7.24375 4.75625 8H2C0.89375 8 0 8.89375 0 10V15C0 15.55 0.45 16 1 16H31C31.55 16 32 15.55 32 15V10C32 8.89375 31.1063 8 30 8ZM9.61875 8C8.2375 8 7.11875 6.88125 7.11875 5.5C7.11875 4.11875 8.2375 3 9.61875 3C10.8625 3 11.7812 3.20625 15 8H9.61875ZM22.5 8H17.1187C20.3312 3.21875 21.225 3 22.5 3C23.8813 3 25 4.11875 25 5.5C25 6.88125 23.8813 8 22.5 8ZM18 28H28C29.1063 28 30 27.1063 30 26V18H18V28Z" fill="#0165E1" /></svg>