<svg width="32" height="26" viewBox="0 0 32 26" fill="none" xmlns="http://www.w3.org/2000/svg">
 <path  d= "M31.8944 14.3542L29.375 4.25917C29.0467 2.9425 28.1756 1.81194 26.9861 1.15861C25.795 0.506945 24.3767 0.374723 23.0867 0.806945L22.2394 1.08917C21.7733 1.24417 21.5217 1.74806 21.6772 2.21361L21.9583 3.05694C22.1133 3.5225 22.6167 3.77417 23.0822 3.61917L23.8144 3.37528C24.4183 3.17417 25.0922 3.17695 25.6567 3.47139C26.2283 3.76972 26.6328 4.28028 26.7883 4.90583L28.925 13.4514C27.6922 13.0731 26.1589 12.7592 24.4139 12.7592C22.4822 12.7592 20.3039 13.1492 18.0333 14.2447H13.9678C11.6972 13.1481 9.51889 12.7586 7.58667 12.7586C5.84111 12.7586 4.30778 13.0725 3.075 13.4508L5.21167 4.90472C5.36667 4.27972 5.77222 3.76861 6.34389 3.47083C6.90833 3.17639 7.58167 3.17361 8.18556 3.37472L8.91722 3.61861C9.38278 3.77361 9.88611 3.52195 10.0411 3.05639L10.3222 2.21306C10.4778 1.7475 10.2261 1.24361 9.76 1.08861L8.91278 0.806389C7.62278 0.374167 6.20444 0.505834 5.01333 1.15806C3.82389 1.81194 2.95278 2.94194 2.62444 4.25806L0.105556 14.3542C0.0355166 14.6357 6.97378e-05 14.9246 0 15.2147L0 19.1175C0 22.6119 2.86556 25.4447 6.4 25.4447H8.46222C11.8111 25.4447 14.5939 22.8925 14.8444 19.5908L15.0072 17.4447H16.9933L17.1561 19.5908C17.4061 22.8925 20.1889 25.4447 23.5378 25.4447H25.6C29.1344 25.4447 32 22.6119 32 19.1181V15.2153C32 14.9247 31.9644 14.6358 31.8944 14.3542ZM11.2989 19.3219C11.1894 20.7614 9.94333 21.8892 8.46222 21.8892H6.4C4.83167 21.8892 3.55556 20.6458 3.55556 19.1175V17.0319C4.56222 16.6714 5.96778 16.3142 7.58778 16.3142C8.91333 16.3142 10.2133 16.5547 11.4728 17.0319L11.2989 19.3219ZM28.4444 19.1181C28.4444 20.6464 27.1683 21.8892 25.6 21.8892H23.5378C22.0561 21.8892 20.81 20.7614 20.7011 19.3219L20.5272 17.0319C21.7867 16.5547 23.0872 16.3142 24.4133 16.3142C26.0311 16.3142 27.4372 16.6719 28.4439 17.0325V19.1181H28.4444Z" fill="#0165E1" /></svg>