<svg width="32" height="32" viewBox="0 0 32 32" fill="none" xmlns="http://www.w3.org/2000/svg">
 <path  d= "M16 0C7.16323 0 0 7.16323 0 16C0 24.8368 7.16323 32 16 32C24.8368 32 32 24.8368 32 16C32 7.16323 24.8368 0 16 0ZM21.309 23.071C21.0574 23.3213 20.7935 23.5839 20.5794 23.7987C20.3865 23.9923 20.2503 24.231 20.1813 24.4897C20.0839 24.8548 20.0052 25.2239 19.8735 25.5781L18.7516 28.6006C17.8639 28.7942 16.9452 28.9032 16 28.9032V27.1368C16.109 26.3226 15.5071 24.7974 14.54 23.8303C14.1529 23.4432 13.9355 22.9181 13.9355 22.3703V20.3052C13.9355 19.5542 13.531 18.8639 12.8735 18.5006C11.9465 17.9877 10.6277 17.271 9.72452 16.8161C8.98387 16.4432 8.29871 15.9684 7.68258 15.4129L7.63097 15.3665C7.19036 14.9687 6.79917 14.5195 6.46581 14.0284C5.86065 13.14 4.87484 11.6787 4.23419 10.729C5.55484 7.79355 7.93484 5.43613 10.8923 4.15548L12.4413 4.93032C13.1277 5.27355 13.9355 4.77484 13.9355 4.0071V3.27806C14.451 3.19484 14.9755 3.14194 15.509 3.12194L17.3348 4.94774C17.7381 5.35097 17.7381 6.00452 17.3348 6.40774L17.0323 6.70968L16.3652 7.37677C16.1639 7.57806 16.1639 7.90516 16.3652 8.10645L16.6677 8.40903C16.869 8.61032 16.869 8.93742 16.6677 9.13871L16.1516 9.65484C16.0547 9.75156 15.9234 9.80586 15.7865 9.80581H15.2065C15.0723 9.80581 14.9432 9.85806 14.8465 9.95226L14.2065 10.5748C14.128 10.6512 14.0759 10.7506 14.0575 10.8585C14.0392 10.9665 14.0557 11.0775 14.1045 11.1755L15.1103 13.1877C15.2819 13.531 15.0323 13.9348 14.649 13.9348H14.2852C14.1606 13.9348 14.0406 13.8897 13.9471 13.8084L13.3484 13.2884C13.2129 13.1709 13.0492 13.0906 12.8733 13.0555C12.6974 13.0205 12.5154 13.0318 12.3452 13.0884L10.3342 13.7587C10.1807 13.8099 10.0471 13.9081 9.95253 14.0394C9.85793 14.1707 9.80705 14.3285 9.8071 14.4903C9.8071 14.7826 9.97226 15.049 10.2335 15.18L10.9484 15.5374C11.5555 15.8413 12.2252 15.9994 12.9039 15.9994C13.5826 15.9994 14.3613 17.76 14.9684 18.0639H19.2748C19.8226 18.0639 20.3471 18.2813 20.7348 18.6684L21.6181 19.5516C21.987 19.9207 22.1943 20.4213 22.1942 20.9432C22.1941 21.3387 22.1158 21.7303 21.9639 22.0954C21.812 22.4606 21.5894 22.7921 21.309 23.071ZM26.9032 17.1774C26.5297 17.0839 26.2039 16.8548 25.9903 16.5342L24.8303 14.7942C24.6606 14.54 24.57 14.2412 24.57 13.9355C24.57 13.6298 24.6606 13.331 24.8303 13.0768L26.0942 11.1813C26.2439 10.9574 26.449 10.7755 26.6903 10.6555L27.5277 10.2368C28.4 11.9735 28.9032 13.9271 28.9032 16C28.9032 16.5594 28.8555 17.1071 28.7858 17.6477L26.9032 17.1774Z" fill="#0165E1" /></svg>