<svg width="32" height="32" viewBox="0 0 32 32" fill="none" xmlns="http://www.w3.org/2000/svg">
 <path  d= "M21.7129 9.80645C20.7774 4.04516 18.5709 0 16.0032 0C13.4354 0 11.229 4.04516 10.2935 9.80645H21.7129ZM9.80963 16C9.80963 17.4323 9.88704 18.8065 10.0225 20.129H21.9774C22.1129 18.8065 22.1903 17.4323 22.1903 16C22.1903 14.5677 22.1129 13.1935 21.9774 11.871H10.0225C9.88704 13.1935 9.80963 14.5677 9.80963 16ZM30.758 9.80645C28.9129 5.42581 25.1774 2.03871 20.5645 0.670968C22.1387 2.85161 23.2225 6.13548 23.7903 9.80645H30.758ZM11.4354 0.670968C6.82898 2.03871 3.08704 5.42581 1.24834 9.80645H8.21608C8.77737 6.13548 9.86124 2.85161 11.4354 0.670968ZM31.4483 11.871H24.0483C24.1838 13.2258 24.2612 14.6129 24.2612 16C24.2612 17.3871 24.1838 18.7742 24.0483 20.129H31.4419C31.7967 18.8065 31.9967 17.4323 31.9967 16C31.9967 14.5677 31.7967 13.1935 31.4483 11.871ZM7.74511 16C7.74511 14.6129 7.82253 13.2258 7.95801 11.871H0.558013C0.209625 13.1935 0.00317383 14.5677 0.00317383 16C0.00317383 17.4323 0.209625 18.8065 0.558013 20.129H7.95156C7.82253 18.7742 7.74511 17.3871 7.74511 16ZM10.2935 22.1935C11.229 27.9548 13.4354 32 16.0032 32C18.5709 32 20.7774 27.9548 21.7129 22.1935H10.2935ZM20.5709 31.329C25.1774 29.9613 28.9193 26.5742 30.7645 22.1935H23.7967C23.229 25.8645 22.1451 29.1484 20.5709 31.329ZM1.24834 22.1935C3.0935 26.5742 6.82898 29.9613 11.4419 31.329C9.86769 29.1484 8.78382 25.8645 8.21608 22.1935H1.24834Z" fill="#0165E1" /></svg>