<svg width="32" height="32" viewBox="0 0 32 32" fill="none" xmlns="http://www.w3.org/2000/svg">
 <path  d= "M16 0C7.16323 0 0 7.16323 0 16C0 24.8368 7.16323 32 16 32C24.8368 32 32 24.8368 32 16C32 7.16323 24.8368 0 16 0ZM26.3226 13.9032V14.3503C26.3226 14.729 26.1084 15.0755 25.7697 15.2445L24.7768 15.7413C24.6191 15.8202 24.4433 15.856 24.2674 15.845C24.0914 15.834 23.9215 15.7766 23.7748 15.6787L22.6 14.8955C22.4733 14.8111 22.3289 14.7567 22.178 14.7364C22.0271 14.7162 21.8735 14.7307 21.729 14.7787L21.5581 14.8355C20.9323 15.0439 20.6768 15.7897 21.0426 16.3387L21.8968 17.62C22.0819 17.8981 22.3942 18.0652 22.7284 18.0652H23.2581C23.8103 18.0652 24.2581 18.5129 24.2581 19.0652V19.7968C24.2581 20.0129 24.1877 20.2239 24.0581 20.3968L22.849 22.0084C22.7574 22.131 22.6948 22.2729 22.6665 22.4232L22.389 23.8961C22.349 24.1084 22.2413 24.3019 22.0819 24.4484C21.4705 25.0083 20.929 25.6399 20.469 26.3297L19.6284 27.591C19.4649 27.8362 19.2434 28.0373 18.9835 28.1764C18.7236 28.3155 18.4335 28.3883 18.1387 28.3884C17.4606 28.3884 16.8406 28.0052 16.5374 27.3987C16.184 26.6918 16 25.9123 16 25.1219V23.1935C16 22.6413 15.5523 22.1935 15 22.1935H13.3303C12.3955 22.1935 11.4994 21.8219 10.8381 21.1613C10.1773 20.5002 9.80599 19.6038 9.80581 18.669V17.7619C9.80581 16.6529 10.3284 15.6084 11.2155 14.9426L12.9948 13.6077C13.605 13.1502 14.347 12.9028 15.1097 12.9026H15.1671C15.7142 12.9026 16.2542 13.0297 16.7432 13.2748L17.6929 13.7497C17.9303 13.8684 18.2045 13.8877 18.4561 13.8039L21.5084 12.7865C21.9168 12.6503 22.1923 12.2684 22.1923 11.8381C22.1923 11.2858 21.7445 10.8381 21.1923 10.8381H20.5413C20.2761 10.8381 20.0219 10.7329 19.8342 10.5452L19.3877 10.0987C19.2949 10.0058 19.1847 9.93216 19.0633 9.8819C18.942 9.83164 18.812 9.80579 18.6806 9.80581H12.871C12.3187 9.80581 11.871 9.35806 11.871 8.80581V8.52194C11.871 8.06323 12.1832 7.66323 12.6284 7.55161L13.5606 7.31871C13.8019 7.25806 14.0123 7.11032 14.1503 6.90323L14.6716 6.12194C14.8568 5.84387 15.169 5.67677 15.5032 5.67677H17.0652C17.6174 5.67677 18.0652 5.22903 18.0652 4.67677V3.27677C23.1761 4.10516 27.2813 7.93677 28.5116 12.9032H27.3226C26.7703 12.9032 26.3226 13.351 26.3226 13.9032Z" fill="#0165E1" /></svg>