<svg width="32" height="32" viewBox="0 0 32 32" fill="none" xmlns="http://www.w3.org/2000/svg">
 <path  d= "M16 0C7.16323 0 0 7.16323 0 16C0 24.8368 7.16323 32 16 32C24.8368 32 32 24.8368 32 16C32 7.16323 24.8368 0 16 0ZM15.2684 15.4987C15.0819 15.8097 14.7458 16 14.3832 16H14.3632C14.0897 16 13.8271 16.109 13.6335 16.3026L13.2684 16.6677C13.0671 16.869 13.0671 17.1961 13.2684 17.3974L13.6335 17.7626C13.8271 17.9561 13.9361 18.2187 13.9361 18.4923V19.0968C13.9361 19.6671 13.4742 20.129 12.9039 20.129H12.5097C12.1187 20.129 11.7613 19.9084 11.5865 19.5581L10.1271 16.64C9.96968 16.3252 9.54968 16.2568 9.30065 16.5058L8.04452 17.7613C7.85097 17.9548 7.58839 18.0639 7.31484 18.0639H3.27806C3.16903 17.3903 3.09677 16.7045 3.09677 16C3.09677 8.88516 8.88516 3.09677 16 3.09677C17.3877 3.09677 18.7226 3.32323 19.9761 3.73032L16.74 6.21613C16.4103 6.43613 16.4413 6.92968 16.7955 7.1071L17.4942 7.45613C17.8439 7.63097 18.0645 7.98839 18.0645 8.37936V13.4194C18.0645 13.7045 17.8335 13.9355 17.5484 13.9355H17.351C17.1555 13.9355 16.9768 13.8252 16.8897 13.6503C16.789 13.449 16.5052 13.4381 16.389 13.631L15.2684 15.4987ZM26.3226 22.6084C26.3226 22.8819 26.2135 23.1445 26.02 23.3381L25.4026 23.9555C25.209 24.149 24.9465 24.2581 24.6729 24.2581H23.6948C23.4213 24.2581 23.1587 24.149 22.9652 23.9555L22.1258 23.1161C21.9149 22.9053 21.653 22.7526 21.3656 22.673C21.0782 22.5934 20.7751 22.5896 20.4858 22.6619L19.1135 23.0052C19.0316 23.0258 18.9477 23.0361 18.8632 23.0361H18.1961C17.9226 23.0361 17.66 22.9271 17.4665 22.7335L16.6981 21.9652C16.6013 21.8683 16.547 21.7369 16.5471 21.6V20.9419C16.5471 20.731 16.6755 20.5413 16.8716 20.4626L19.4097 19.4471C19.5374 19.3961 19.6587 19.3297 19.7703 19.2503L21.3 18.1606C21.3874 18.0984 21.4921 18.065 21.5994 18.0652H22.3794C22.5877 18.0652 22.7761 18.1903 22.8561 18.3832L23.2013 19.2123C23.2209 19.2592 23.254 19.2994 23.2963 19.3276C23.3387 19.3559 23.3884 19.3709 23.4394 19.371H23.6845C23.7994 19.371 23.9006 19.2948 23.9323 19.1852L24.2032 18.2516C24.2355 18.1413 24.3361 18.0658 24.451 18.0658H24.8419C24.9845 18.0658 25.1 18.1813 25.1 18.3239V19.1581C25.1 19.2948 25.1542 19.4265 25.251 19.5232L26.0194 20.2916C26.2129 20.4852 26.3219 20.7477 26.3219 21.0213V22.6084H26.3226Z" fill="#0165E1" /></svg>