<svg width="26" height="32" viewBox="0 0 26 32" fill="none" xmlns="http://www.w3.org/2000/svg">
 <path  d= "M6 26H20C20 27.1063 19.1063 28 18 28H17C15.8938 28 15 28.8937 15 30V31.25C15 31.6625 14.6625 32 14.25 32H11.75C11.3375 32 11 31.6625 11 31.25V30C11 28.8937 10.1062 28 9 28H8C6.89375 28 6 27.1063 6 26ZM26 13C26 17.6375 23.5625 21.7 19.9062 24H6.09375C2.4375 21.7 0 17.6375 0 13C0 5.81875 5.81875 0 13 0C20.1812 0 26 5.81875 26 13ZM14.7437 15.7437C15.8875 15.7437 16.8125 14.8188 16.8125 13.675C16.8125 12.775 16.2312 12.0312 15.4312 11.7437C16.0312 13.4187 14.4563 14.95 12.8125 14.3625C13.1 15.1625 13.8438 15.7437 14.7437 15.7437ZM17.8125 18.675C17.8125 17.775 17.2312 17.0312 16.4312 16.7437C17.0312 18.4187 15.4563 19.95 13.8125 19.3625C14.1 20.1625 14.8438 20.7437 15.7437 20.7437C16.8875 20.7437 17.8125 19.8125 17.8125 18.675ZM21.8125 14.675C21.8125 13.775 21.2312 13.0312 20.4312 12.7437C21.0312 14.4187 19.4562 15.95 17.8125 15.3625C18.1 16.1625 18.8438 16.7437 19.7437 16.7437C20.8875 16.7437 21.8125 15.8125 21.8125 14.675Z" fill="#0165E1" /></svg>