<svg width="32" height="20" viewBox="0 0 32 20" fill="none" xmlns="http://www.w3.org/2000/svg">
 <path  d= "M31.1442 7.15026L17.3534 11.4053C16.4698 11.6649 15.5302 11.6649 14.6467 11.4053L4.61994 8.31161C4.19174 8.8835 4.06904 9.4641 4.02404 10.2284C4.48894 10.5083 4.80004 11.0178 4.80004 11.6C4.80004 12.1976 4.47219 12.7183 3.98679 12.9931L4.79664 19.1478C4.82814 19.3871 4.64164 19.6 4.40004 19.6H2.00004C1.75864 19.6 1.57194 19.3873 1.60344 19.1478L2.41329 12.993C1.92789 12.7183 1.60004 12.1976 1.60004 11.6C1.60004 10.9983 1.93234 10.4745 2.42329 10.2012C2.47064 9.30365 2.62199 8.53966 3.03089 7.82136L0.855788 7.15026C-0.288011 6.81021 -0.282511 5.18821 0.855788 4.84976L14.6466 0.594761C15.5302 0.335112 16.4698 0.335112 17.3533 0.594761L31.1442 4.84976C32.288 5.18981 32.2825 6.81181 31.1442 7.15026ZM17.8252 12.9341L17.8148 12.9373L17.8045 12.9404C16.6264 13.2865 15.3737 13.2865 14.1956 12.9404L14.1853 12.9373L14.1749 12.9341L6.62923 10.6056L6.00003 14.8C6.00003 16.5673 10.4772 18 16 18C21.5229 18 26 16.5673 26 14.8L25.3709 10.6056L17.8252 12.9341Z" fill="#0165E1" /></svg>