<svg width="30" height="32" viewBox="0 0 30 32" fill="none" xmlns="http://www.w3.org/2000/svg">
 <path  d= "M3.74798 6.11267L15.452 10.652L3.75598 15.1887C2.52998 15.5907 1.89732 16.8147 2.34265 17.922L3.14865 19.9273C3.59398 21.0347 4.94798 21.6067 6.17398 21.204L26.268 13.2133C27.186 12.912 27.8 12.106 27.8 11.202V10.138C27.8 9.23401 27.186 8.42801 26.268 8.12667L6.15332 0.128008C4.93398 -0.271992 3.58598 0.296674 3.14332 1.39867L2.34132 3.39334C1.89865 4.49534 2.52865 5.71267 3.74798 6.11267ZM28.3333 25.6H1.66665C0.783317 25.6 0.0666504 26.316 0.0666504 27.2V30.4C0.0666504 31.2833 0.783317 32 1.66665 32H28.3333C29.2166 32 29.9333 31.2833 29.9333 30.4V27.2C29.9333 26.316 29.2166 25.6 28.3333 25.6Z" fill="#0165E1" /></svg>