<svg width="32" height="32" viewBox="0 0 32 32" fill="none" xmlns="http://www.w3.org/2000/svg">
 <path  d= "M16 0C7.16129 0 0 7.16129 0 16C0 24.8387 7.16129 32 16 32C24.8387 32 32 24.8387 32 16C32 7.16129 24.8387 0 16 0ZM9.29032 25.2903H8.77419C7.63226 25.2903 6.70968 24.3677 6.70968 23.2258V22.7097H9.29032V25.2903ZM9.29032 21.6774H6.70968V21.1613C6.70968 20.0194 7.63226 19.0968 8.77419 19.0968H9.29032V21.6774ZM8.77419 12.9032C8.77419 11.7613 9.69677 10.8387 10.8387 10.8387C11.9806 10.8387 12.9032 11.7613 12.9032 12.9032C12.9032 14.0452 11.9806 14.9677 10.8387 14.9677C9.69677 14.9677 8.77419 14.0452 8.77419 12.9032ZM13.4194 25.2903H10.3226V22.7097H13.4194V25.2903ZM13.4194 21.6774H10.3226V19.0968H13.4194V21.6774ZM17.5484 25.2903H14.4516V22.7097H17.5484V25.2903ZM17.5484 21.6774H14.4516V19.0968H17.5484V21.6774ZM21.6774 25.2903H18.5806V22.7097H21.6774V25.2903ZM21.6774 21.6774H18.5806V19.0968H21.6774V21.6774ZM21.1613 14.9677C20.0194 14.9677 19.0968 14.0452 19.0968 12.9032C19.0968 11.7613 20.0194 10.8387 21.1613 10.8387C22.3032 10.8387 23.2258 11.7613 23.2258 12.9032C23.2258 14.0452 22.3032 14.9677 21.1613 14.9677ZM25.2903 23.2258C25.2903 24.3677 24.3677 25.2903 23.2258 25.2903H22.7097V22.7097H25.2903V23.2258ZM25.2903 21.6774H22.7097V19.0968H23.2258C24.3677 19.0968 25.2903 20.0194 25.2903 21.1613V21.6774Z" fill="#0165E1" /></svg>