<svg width="32" height="32" viewBox="0 0 32 32" fill="none" xmlns="http://www.w3.org/2000/svg">
 <path  d= "M22.0964 11.1767C21.2518 11.1767 20.5723 11.8562 20.5723 12.7008C20.5723 13.5454 21.2518 14.2249 22.0964 14.2249C22.941 14.2249 23.6205 13.5454 23.6205 12.7008C23.6205 11.8562 22.941 11.1767 22.0964 11.1767ZM16.0001 0C7.30003 0 0.251099 7.04893 0.251099 15.749C0.251099 22.4994 4.50586 28.2402 10.4752 30.4819C10.1196 29.7071 9.90368 28.8498 9.90368 27.9417V25.0523C8.33514 24.0235 7.14127 22.6328 6.8682 21.0007C6.74119 20.2514 7.45879 19.6354 8.18273 19.864C10.1005 20.48 12.9519 20.8293 16.0001 20.8293C19.0482 20.8293 21.8996 20.48 23.8174 19.864C24.5477 19.629 25.2526 20.2514 25.1319 21.0007C24.8588 22.6328 23.665 24.0235 22.0964 25.0523V27.9417C22.0964 28.8498 21.8805 29.7071 21.5249 30.4819C27.4943 28.2402 31.749 22.4994 31.749 15.749C31.749 7.04893 24.7001 0 16.0001 0ZM12.4438 14.2884L11.8406 13.7486C10.9007 12.9103 8.90667 12.9103 7.96682 13.7486L7.36353 14.2884C6.82375 14.7583 5.99185 14.3074 6.10615 13.6025C6.36017 12.0022 8.27799 10.929 9.91004 10.929C11.5421 10.929 13.4599 12.0022 13.7139 13.6025C13.8155 14.3074 12.9773 14.7583 12.4438 14.2884ZM22.0964 16.765C19.8547 16.765 18.0322 14.9425 18.0322 12.7008C18.0322 10.4591 19.8547 8.63652 22.0964 8.63652C24.3381 8.63652 26.1607 10.4591 26.1607 12.7008C26.1607 14.9425 24.3381 16.765 22.0964 16.765ZM18.8641 23.2805C17.9496 22.8677 16.8891 23.4202 16.6668 24.3982L16.5525 24.8935C16.4192 25.4777 15.5873 25.4777 15.4539 24.8935L15.3396 24.3982C15.1174 23.4202 14.0568 22.8677 13.1424 23.2805C13.0852 23.3059 13.1614 23.2678 11.9422 23.8775V27.8782C11.9422 30.1135 13.7203 31.9742 15.9493 31.9996C18.2163 32.0313 20.0707 30.1961 20.0707 27.9353V23.8711C18.8323 23.2615 18.9149 23.3059 18.8641 23.2805Z" fill="#0165E1" /></svg>