<svg width="32" height="32" viewBox="0 0 32 32" fill="none" xmlns="http://www.w3.org/2000/svg">
 <path  d= "M16 0C7.16129 0 0 7.16129 0 16C0 24.8387 7.16129 32 16 32C24.8387 32 32 24.8387 32 16C32 7.16129 24.8387 0 16 0ZM5.83226 11.329C6.26452 10.1935 7.55484 9.60645 8.72903 9.91613L9.1871 10.0387L9.31613 9.58065C9.63871 8.4129 10.7871 7.5871 11.9935 7.78065C13.3742 8 14.2129 9.34194 13.8516 10.6516L12.6 15.1613C12.5226 15.4516 12.2194 15.6258 11.9226 15.5484L7.39355 14.3742C6.07742 14.0258 5.33548 12.6323 5.83226 11.329ZM16 27.3548C12.0903 27.3548 7.32258 24.8839 6.72258 21.3355C6.59355 20.5742 7.31613 19.9484 8.05806 20.1806C10.0065 20.8064 12.9032 21.1613 16 21.1613C19.0968 21.1613 21.9935 20.8064 23.9419 20.1806C24.6774 19.9484 25.4 20.5742 25.2774 21.3355C24.6774 24.8839 19.9097 27.3548 16 27.3548ZM24.6065 14.3677L20.0774 15.5419C19.7871 15.6194 19.4839 15.4452 19.4 15.1548L18.1484 10.6452C17.7871 9.33548 18.6258 7.99355 20.0065 7.77419C21.2065 7.58065 22.3548 8.40645 22.6839 9.57419L22.8129 10.0323L23.271 9.90968C24.4452 9.60645 25.7355 10.1871 26.1677 11.3226C26.6645 12.6323 25.9226 14.0258 24.6065 14.3677Z" fill="#0165E1" /></svg>