<svg width="32" height="32" viewBox="0 0 32 32" fill="none" xmlns="http://www.w3.org/2000/svg">
 <path  d= "M16 0C7.16129 0 0 7.16129 0 16C0 24.8387 7.16129 32 16 32C24.8387 32 32 24.8387 32 16C32 7.16129 24.8387 0 16 0ZM21.1613 9.29032C22.6968 9.29032 24.5613 11.1806 24.7742 13.8968C24.8194 14.4516 24.0774 14.6645 23.8129 14.1871L23.2 13.0903C22.7032 12.2065 21.9613 11.6968 21.1677 11.6968C20.3742 11.6968 19.6323 12.2065 19.1355 13.0903L18.5226 14.1871C18.2581 14.6581 17.5161 14.4452 17.5613 13.8968C17.7613 11.1806 19.6258 9.29032 21.1613 9.29032ZM10.8387 9.29032C12.3742 9.29032 14.2387 11.1806 14.4516 13.8968C14.4968 14.4516 13.7548 14.6645 13.4903 14.1871L12.8774 13.0903C12.3806 12.2065 11.6387 11.6968 10.8452 11.6968C10.0516 11.6968 9.30968 12.2065 8.8129 13.0903L8.2 14.1871C7.92903 14.6645 7.19355 14.4452 7.23871 13.8968C7.43871 11.1806 9.30323 9.29032 10.8387 9.29032ZM16 27.3548C12.0903 27.3548 7.32258 24.8839 6.72258 21.3355C6.59355 20.5677 7.32903 19.9419 8.05806 20.1806C10.0065 20.8064 12.9032 21.1613 16 21.1613C19.0968 21.1613 21.9935 20.8064 23.9419 20.1806C24.6774 19.9419 25.4 20.5742 25.2774 21.3355C24.6774 24.8839 19.9097 27.3548 16 27.3548Z" fill="#0165E1" /></svg>