<svg width="32" height="32" viewBox="0 0 32 32" fill="none" xmlns="http://www.w3.org/2000/svg">
 <path  d= "M25.5951 6.99571C27.0072 6.79576 30.1878 6.24588 31.1126 5.32109C32.3123 4.12137 32.2935 2.15932 31.0688 0.934605C29.8441 -0.290113 27.8695 -0.308859 26.6761 0.890865C25.7513 1.81565 25.2077 4.99617 25.0015 6.40834C24.9515 6.75202 25.2452 7.0457 25.5951 6.99571ZM6.39949 25.0041C4.98732 25.204 1.8068 25.7539 0.882011 26.6787C-0.311464 27.8722 -0.292718 29.8405 0.932 31.0652C2.15672 32.2899 4.11877 32.3086 5.31849 31.1089C6.24328 30.1841 6.7869 27.0036 6.9931 25.5914C7.04309 25.2478 6.74941 24.9541 6.39949 25.0041ZM25.8763 8.9765C23.8142 9.2202 22.8395 7.40811 23.0207 6.12091C23.2331 4.62126 23.4831 3.49027 23.7393 2.59047C17.8156 -0.833738 10.1111 -0.0276737 5.0373 5.03991C-0.0302784 10.1075 -0.836343 17.812 2.58787 23.7419C3.48766 23.4857 4.6124 23.242 6.11831 23.0233C8.19283 22.7796 9.15511 24.5979 8.9739 25.8789C8.76145 27.3785 8.51151 28.5095 8.25531 29.4093C14.179 32.8335 21.8834 32.0274 26.9573 26.9599C32.0311 21.8923 32.8309 14.1878 29.4067 8.25792C28.5069 8.51411 27.3759 8.7578 25.8763 8.9765ZM15.9785 6.62704C16.1847 5.80223 17.3782 5.90846 17.4532 6.73952L17.7531 10.0075L21.0211 10.3074C21.8584 10.3824 21.9522 11.5759 21.1336 11.7821L15.4787 13.1943C14.9225 13.3318 14.4351 12.8256 14.5726 12.2882L15.9785 6.62704ZM10.2986 21.0175L9.99866 17.7495L6.73067 17.4496C5.89336 17.3746 5.79963 16.1811 6.61819 15.9749L12.2731 14.5627C12.823 14.4252 13.3166 14.9251 13.1792 15.4688L11.767 21.1237C11.5733 21.9485 10.3798 21.8548 10.2986 21.0175ZM23.7767 23.7793C21.9459 25.6102 19.0466 26.9286 16.4847 26.9286C15.3037 26.9286 14.1977 26.6474 13.2979 26.0101C12.6855 25.5789 12.7543 24.6479 13.4229 24.3105C15.1912 23.3982 17.4157 21.6611 19.534 19.5428C21.6522 17.4246 23.3893 15.1938 24.3016 13.4317C24.639 12.7756 25.5638 12.6881 26.0075 13.3068C28.0258 16.1374 26.4511 21.0987 23.7767 23.7793Z" fill="#0165E1" /></svg>