<svg width="32" height="32" viewBox="0 0 32 32" fill="none" xmlns="http://www.w3.org/2000/svg">
 <path  d= "M28.9524 8.12784C30.6349 8.12784 32 6.79451 32 5.14371C32 3.87387 30.1905 1.30879 29.3587 0.204029C29.1556 -0.0689864 28.7492 -0.0689864 28.546 0.204029C27.7143 1.30879 25.9048 3.87387 25.9048 5.14371C25.9048 6.79451 27.2698 8.12784 28.9524 8.12784ZM28.9524 10.1596C26.1524 10.1596 23.873 7.91197 23.873 5.14371C23.873 4.86435 23.8921 4.24212 24.3873 3.09927C21.9048 1.46752 18.9397 0.508791 15.746 0.508791C7.04762 0.508791 0 7.55641 0 16.2548C0 24.9532 7.04762 32.0009 15.746 32.0009C24.4444 32.0009 31.4921 24.9532 31.4921 16.2548C31.4921 14.0263 31.0222 11.912 30.1905 9.9945C29.7905 10.0897 29.3841 10.1596 28.9524 10.1596ZM20.8254 9.65165C22.3365 9.65165 24.1714 11.512 24.381 14.185C24.4254 14.731 23.6952 14.9469 23.4349 14.4707L22.8317 13.3913C22.3429 12.5215 21.6127 12.0199 20.8317 12.0199C20.0508 12.0199 19.3206 12.5215 18.8317 13.3913L18.2286 14.4707C17.9683 14.9405 17.2381 14.7247 17.2825 14.185C17.4794 11.512 19.3143 9.65165 20.8254 9.65165ZM10.6667 9.65165C12.1778 9.65165 14.0127 11.512 14.2222 14.185C14.2667 14.731 13.5365 14.9469 13.2762 14.4707L12.673 13.3913C12.1841 12.5215 11.454 12.0199 10.673 12.0199C9.89206 12.0199 9.16191 12.5215 8.67302 13.3913L8.06984 14.4707C7.80317 14.9405 7.07936 14.7247 7.12381 14.185C7.32063 11.512 9.15556 9.65165 10.6667 9.65165ZM15.746 27.4294C11.8984 27.4294 7.20635 24.9977 6.61587 21.5056C6.48889 20.7564 7.20635 20.1342 7.93016 20.3691C9.84762 20.985 12.6984 21.3342 15.746 21.3342C18.7937 21.3342 21.6444 20.985 23.5619 20.3691C24.2921 20.1342 24.9968 20.7628 24.8762 21.5056C24.2857 24.9977 19.5937 27.4294 15.746 27.4294Z" fill="#0165E1" /></svg>