<svg width="32" height="32" viewBox="0 0 32 32" fill="none" xmlns="http://www.w3.org/2000/svg">
 <path  d= "M16 0C7.16129 0 0 7.16129 0 16C0 24.8387 7.16129 32 16 32C24.8387 32 32 24.8387 32 16C32 7.16129 24.8387 0 16 0ZM6.10323 10.3806L8.35484 10.0581L9.35484 8.01935C9.54194 7.64516 10.0645 7.64516 10.2516 8.01935L11.2516 10.0581L13.5032 10.3806C13.9032 10.4452 14.0774 10.9355 13.7806 11.2323L12.1419 12.8194L12.529 15.071C12.5935 15.471 12.1871 15.7806 11.8194 15.5806L9.80645 14.5355L7.7871 15.5871C7.41935 15.7871 7.0129 15.4774 7.07742 15.0774L7.46452 12.8258L5.82581 11.2387C5.52903 10.9355 5.70323 10.4452 6.10323 10.3806ZM16 27.3548C12.0903 27.3548 7.32258 24.8839 6.72258 21.3355C6.59355 20.5742 7.32258 19.9484 8.05806 20.1806C10.0065 20.8064 12.9032 21.1613 16 21.1613C19.0968 21.1613 21.9935 20.8064 23.9419 20.1806C24.6839 19.9419 25.4 20.5742 25.2774 21.3355C24.6774 24.8839 19.9097 27.3548 16 27.3548ZM26.1742 11.2323L24.5355 12.8194L24.9226 15.071C24.9871 15.471 24.5806 15.7806 24.2129 15.5806L22.1935 14.5355L20.1742 15.5871C19.8065 15.7871 19.4 15.4774 19.4645 15.0774L19.8516 12.8258L18.2129 11.2387C17.9226 10.9419 18.0903 10.4516 18.4903 10.3871L20.7419 10.0645L21.7419 8.02581C21.929 7.65161 22.4516 7.65161 22.6387 8.02581L23.6387 10.0645L25.8903 10.3871C26.2968 10.4452 26.471 10.9355 26.1742 11.2323Z" fill="#0165E1" /></svg>