<svg width="32" height="32" viewBox="0 0 32 32" fill="none" xmlns="http://www.w3.org/2000/svg">
 <path  d= "M16.0001 0C7.30003 0 0.251099 7.04893 0.251099 15.749C0.251099 22.4994 4.50586 28.2402 10.4752 30.4819C10.1196 29.7071 9.90368 28.8498 9.90368 27.9417V25.0523C8.33514 24.0235 7.14127 22.6328 6.8682 21.0007C6.74119 20.2514 7.45879 19.6354 8.18273 19.864C10.1005 20.48 12.9519 20.8293 16.0001 20.8293C19.0482 20.8293 21.8996 20.48 23.8174 19.864C24.5413 19.6354 25.2526 20.2514 25.1319 21.0007C24.8588 22.6328 23.665 24.0235 22.0964 25.0523V27.9417C22.0964 28.8498 21.8805 29.7071 21.5249 30.4819C27.4943 28.2402 31.749 22.4994 31.749 15.749C31.749 7.04893 24.7001 0 16.0001 0ZM10.9197 14.7329C9.79573 14.7329 8.88762 13.8248 8.88762 12.7008C8.88762 11.5768 9.79573 10.6686 10.9197 10.6686C12.0438 10.6686 12.9519 11.5768 12.9519 12.7008C12.9519 13.8248 12.0438 14.7329 10.9197 14.7329ZM21.0804 14.7329C19.9563 14.7329 19.0482 13.8248 19.0482 12.7008C19.0482 11.5768 19.9563 10.6686 21.0804 10.6686C22.2044 10.6686 23.1125 11.5768 23.1125 12.7008C23.1125 13.8248 22.2044 14.7329 21.0804 14.7329ZM18.8641 23.2805C17.9496 22.8677 16.8891 23.4202 16.6668 24.3982L16.5525 24.8935C16.4192 25.4777 15.5873 25.4777 15.4539 24.8935L15.3396 24.3982C15.1174 23.4202 14.0568 22.8677 13.1424 23.2805C13.0852 23.3059 13.1614 23.2678 11.9422 23.8775V27.8782C11.9422 30.1135 13.7203 31.9742 15.9493 31.9996C18.2163 32.0313 20.0707 30.1961 20.0707 27.9353V23.8711C18.8323 23.2615 18.9149 23.3059 18.8641 23.2805Z" fill="#0165E1" /></svg>