<svg width="32" height="26" viewBox="0 0 32 26" fill="none" xmlns="http://www.w3.org/2000/svg">
 <path  d= "M5.12102 13.005C3.99097 13.165 1.44584 13.605 0.705806 14.345C-0.249241 15.3001 -0.23424 16.8752 0.745808 17.8552C1.72586 18.8353 3.29593 18.8503 4.25598 17.8902C4.99601 17.1502 5.43104 14.605 5.59604 13.475C5.63605 13.2 5.40103 12.965 5.12102 13.005ZM31.2923 14.345C30.5523 13.605 28.0071 13.17 26.8771 13.005C26.6021 12.965 26.3621 13.2 26.4021 13.48C26.5621 14.61 27.0021 17.1552 27.7421 17.8952C28.7022 18.8553 30.2722 18.8403 31.2523 17.8602C32.2323 16.8802 32.2523 15.3001 31.2923 14.345ZM24.822 13.705C24.632 12.3749 25.777 11.2299 27.1071 11.4199C27.5521 11.4849 27.9471 11.5549 28.3221 11.6249C27.6371 5.4246 22.3869 0.599365 16.0015 0.599365C9.61624 0.599365 4.36598 5.4246 3.68095 11.6249C4.05597 11.5549 4.45099 11.4849 4.89601 11.4199C6.55609 11.2249 7.32613 12.685 7.18112 13.705C6.59109 17.8202 5.68605 18.7252 5.39103 19.0253C5.34603 19.0703 5.29103 19.1053 5.24103 19.1503C7.37613 22.8804 11.3913 25.4006 16.0015 25.4006C20.6118 25.4006 24.627 22.8804 26.7621 19.1453C26.7121 19.1003 26.6571 19.0703 26.6121 19.0203C26.3171 18.7252 25.412 17.8202 24.822 13.705ZM20.0017 7.79972C21.1918 7.79972 22.6369 9.26479 22.8019 11.3699C22.8369 11.7999 22.2619 11.9699 22.0568 11.5949L21.5818 10.7449C21.1968 10.0598 20.6218 9.66481 20.0067 9.66481C19.3917 9.66481 18.8167 10.0598 18.4317 10.7449L17.9566 11.5949C17.7466 11.9649 17.1766 11.7949 17.2116 11.3699C17.3666 9.26479 18.8117 7.79972 20.0017 7.79972ZM12.0014 7.79972C13.1914 7.79972 14.6365 9.26479 14.8015 11.3699C14.8365 11.7999 14.2615 11.9699 14.0565 11.5949L13.5814 10.7449C13.1964 10.0598 12.6214 9.66481 12.0064 9.66481C11.3913 9.66481 10.8163 10.0598 10.4313 10.7449L9.95625 11.5949C9.74624 11.9649 9.17622 11.7949 9.21122 11.3699C9.36623 9.26479 10.8113 7.79972 12.0014 7.79972ZM16.0015 21.8004C12.9714 21.8004 9.27622 19.8853 8.8112 17.1352C8.71119 16.5501 9.27122 16.0551 9.84625 16.2401C11.3563 16.7251 13.6014 17.0002 16.0015 17.0002C18.4017 17.0002 20.6468 16.7251 22.1568 16.2401C22.7269 16.0551 23.2869 16.5451 23.1919 17.1352C22.7269 19.8853 19.0317 21.8004 16.0015 21.8004Z" fill="#0165E1" /></svg>