<svg width="32" height="32" viewBox="0 0 32 32" fill="none" xmlns="http://www.w3.org/2000/svg">
 <path  d= "M16 0C7.16129 0 0 7.16129 0 16C0 24.8387 7.16129 32 16 32C24.8387 32 32 24.8387 32 16C32 7.16129 24.8387 0 16 0ZM20.1097 8.30323C20.6 7.56774 21.7032 7.54839 22.2194 8.30323C23.0194 9.49032 23.1935 10.6839 23.2323 11.871C23.2 13.0581 23.0194 14.2516 22.2194 15.4387C21.729 16.1742 20.6258 16.1935 20.1097 15.4387C19.3097 14.2516 19.1355 13.0581 19.0968 11.871C19.129 10.6839 19.3097 9.49032 20.1097 8.30323ZM9.7871 8.30323C10.2774 7.56774 11.3806 7.54839 11.8968 8.30323C12.6968 9.49032 12.871 10.6839 12.9097 11.871C12.8774 13.0581 12.6968 14.2516 11.8968 15.4387C11.4065 16.1742 10.3032 16.1935 9.7871 15.4387C8.9871 14.2516 8.8129 13.0581 8.77419 11.871C8.80645 10.6839 8.9871 9.49032 9.7871 8.30323ZM16 27.3548C12.0903 27.3548 7.32258 24.8839 6.72258 21.3355C6.59355 20.5742 7.32258 19.9419 8.05806 20.1806C10.0065 20.8064 12.9032 21.1613 16 21.1613C19.0968 21.1613 21.9935 20.8064 23.9419 20.1806C24.6774 19.9419 25.4 20.5742 25.2774 21.3355C24.6774 24.8839 19.9097 27.3548 16 27.3548Z" fill="#0165E1" /></svg>