<svg width="32" height="32" viewBox="0 0 32 32" fill="none" xmlns="http://www.w3.org/2000/svg">
 <path  d= "M16 0C7.16129 0 0 7.16129 0 16C0 24.8387 7.16129 32 16 32C24.8387 32 32 24.8387 32 16C32 7.16129 24.8387 0 16 0ZM18.1806 12.2387L23.3419 9.14194C24.0903 8.69677 24.8903 9.63871 24.3355 10.3032L22.1677 12.9032L24.3355 15.5032C24.8968 16.1742 24.0839 17.1032 23.3419 16.6645L18.1806 13.5677C17.6839 13.2645 17.6839 12.5419 18.1806 12.2387ZM7.66452 10.3032C7.10968 9.63871 7.90968 8.69677 8.65806 9.14194L13.8194 12.2387C14.3226 12.5419 14.3226 13.2645 13.8194 13.5677L8.65806 16.6645C7.91613 17.1032 7.10968 16.1742 7.66452 15.5032L9.83226 12.9032L7.66452 10.3032ZM16 27.3548C12.0903 27.3548 7.32258 24.8839 6.72258 21.3355C6.59355 20.5677 7.32903 19.9419 8.05806 20.1806C10.0065 20.8064 12.9032 21.1613 16 21.1613C19.0968 21.1613 21.9935 20.8064 23.9419 20.1806C24.6839 19.9419 25.4 20.5806 25.2774 21.3355C24.6774 24.8839 19.9097 27.3548 16 27.3548Z" fill="#0165E1" /></svg>