<svg width="24" height="32" viewBox="0 0 24 32" fill="none" xmlns="http://www.w3.org/2000/svg">
 <path  d= "M7.42855 0H2.85713C1.59498 0 0.571411 1.02357 0.571411 2.28571V6.85714C0.571411 8.11929 1.59498 9.14286 2.85713 9.14286H7.42855C8.6907 9.14286 9.71427 8.11929 9.71427 6.85714V2.28571C9.71427 1.02357 8.6907 0 7.42855 0ZM7.42855 11.4286H2.85713C1.59498 11.4286 0.571411 12.4521 0.571411 13.7143V18.2857C0.571411 19.5479 1.59498 20.5714 2.85713 20.5714H7.42855C8.6907 20.5714 9.71427 19.5479 9.71427 18.2857V13.7143C9.71427 12.4521 8.6907 11.4286 7.42855 11.4286ZM7.42855 22.8571H2.85713C1.59498 22.8571 0.571411 23.8807 0.571411 25.1429V29.7143C0.571411 30.9764 1.59498 32 2.85713 32H7.42855C8.6907 32 9.71427 30.9764 9.71427 29.7143V25.1429C9.71427 23.8807 8.6907 22.8571 7.42855 22.8571ZM21.1428 0H16.5714C15.3093 0 14.2857 1.02357 14.2857 2.28571V6.85714C14.2857 8.11929 15.3093 9.14286 16.5714 9.14286H21.1428C22.405 9.14286 23.4286 8.11929 23.4286 6.85714V2.28571C23.4286 1.02357 22.405 0 21.1428 0ZM21.1428 11.4286H16.5714C15.3093 11.4286 14.2857 12.4521 14.2857 13.7143V18.2857C14.2857 19.5479 15.3093 20.5714 16.5714 20.5714H21.1428C22.405 20.5714 23.4286 19.5479 23.4286 18.2857V13.7143C23.4286 12.4521 22.405 11.4286 21.1428 11.4286ZM21.1428 22.8571H16.5714C15.3093 22.8571 14.2857 23.8807 14.2857 25.1429V29.7143C14.2857 30.9764 15.3093 32 16.5714 32H21.1428C22.405 32 23.4286 30.9764 23.4286 29.7143V25.1429C23.4286 23.8807 22.405 22.8571 21.1428 22.8571Z" fill="#0165E1" /></svg>