<svg width="32" height="24" viewBox="0 0 32 24" fill="none" xmlns="http://www.w3.org/2000/svg">
 <path  d= "M6.85714 14.2856H2.28571C1.02357 14.2856 0 15.3091 0 16.5713V21.1427C0 22.4049 1.02357 23.4284 2.28571 23.4284H6.85714C8.11929 23.4284 9.14286 22.4049 9.14286 21.1427V16.5713C9.14286 15.3091 8.11929 14.2856 6.85714 14.2856ZM18.2857 14.2856H13.7143C12.4521 14.2856 11.4286 15.3091 11.4286 16.5713V21.1427C11.4286 22.4049 12.4521 23.4284 13.7143 23.4284H18.2857C19.5479 23.4284 20.5714 22.4049 20.5714 21.1427V16.5713C20.5714 15.3091 19.5479 14.2856 18.2857 14.2856ZM29.7143 14.2856H25.1429C23.8807 14.2856 22.8571 15.3091 22.8571 16.5713V21.1427C22.8571 22.4049 23.8807 23.4284 25.1429 23.4284H29.7143C30.9764 23.4284 32 22.4049 32 21.1427V16.5713C32 15.3091 30.9764 14.2856 29.7143 14.2856ZM6.85714 0.571289H2.28571C1.02357 0.571289 0 1.59486 0 2.857V7.42843C0 8.69057 1.02357 9.71415 2.28571 9.71415H6.85714C8.11929 9.71415 9.14286 8.69057 9.14286 7.42843V2.857C9.14286 1.59486 8.11929 0.571289 6.85714 0.571289ZM18.2857 0.571289H13.7143C12.4521 0.571289 11.4286 1.59486 11.4286 2.857V7.42843C11.4286 8.69057 12.4521 9.71415 13.7143 9.71415H18.2857C19.5479 9.71415 20.5714 8.69057 20.5714 7.42843V2.857C20.5714 1.59486 19.5479 0.571289 18.2857 0.571289ZM29.7143 0.571289H25.1429C23.8807 0.571289 22.8571 1.59486 22.8571 2.857V7.42843C22.8571 8.69057 23.8807 9.71415 25.1429 9.71415H29.7143C30.9764 9.71415 32 8.69057 32 7.42843V2.857C32 1.59486 30.9764 0.571289 29.7143 0.571289Z" fill="#0165E1" /></svg>