<svg width="32" height="32" viewBox="0 0 32 32" fill="none" xmlns="http://www.w3.org/2000/svg">
 <path  d= "M32 3.42857V28.5714C32 30.465 30.465 32 28.5714 32H3.42857C1.535 32 0 30.465 0 28.5714V3.42857C0 1.535 1.535 0 3.42857 0H28.5714C30.465 0 32 1.535 32 3.42857ZM24 6.85714H21.7143C21.0831 6.85714 20.5714 7.36879 20.5714 8V13.7143H11.4286V8C11.4286 7.36879 10.9169 6.85714 10.2857 6.85714H8C7.36879 6.85714 6.85714 7.36879 6.85714 8V24C6.85714 24.6312 7.36879 25.1429 8 25.1429H10.2857C10.9169 25.1429 11.4286 24.6312 11.4286 24V18.2857H20.5714V24C20.5714 24.6312 21.0831 25.1429 21.7143 25.1429H24C24.6312 25.1429 25.1429 24.6312 25.1429 24V8C25.1429 7.36879 24.6312 6.85714 24 6.85714Z" fill="#0165E1" /></svg>