<svg width="28" height="32" viewBox="0 0 28 32" fill="none" xmlns="http://www.w3.org/2000/svg">
 <path  d= "M25.5488 8.00045C24.1472 7.97364 23 9.14751 23 10.5494V16H22.5V4.98689C22.5 3.58501 21.3527 2.41114 19.9512 2.43795C18.593 2.46395 17.5 3.57307 17.5 4.93751V16H17V2.54939C17 1.14751 15.8527 -0.0263621 14.4512 0.000450425C13.093 0.0264504 12 1.13558 12 2.50001V16H11.5V5.04939C11.5 3.64751 10.3527 2.47364 8.95119 2.50045C7.593 2.52645 6.5 3.63557 6.5 5.00001V19.7495L4.522 17.0296C3.70994 15.9129 2.14644 15.666 1.02969 16.4781C-0.0868728 17.2903 -0.333748 18.8538 0.478314 19.9704L8.32837 30.7645C8.60669 31.1472 8.97158 31.4586 9.39324 31.6733C9.8149 31.8881 10.2814 32 10.7546 32H23.1039C24.4961 32 25.7053 31.0423 26.0242 29.6871L27.6809 22.6459C27.8929 21.7451 27.9999 20.8228 27.9999 19.8974V10.5C28 9.13557 26.907 8.02645 25.5488 8.00045Z" fill="#0165E1" /></svg>