<svg width="32" height="12" viewBox="0 0 32 12" fill="none" xmlns="http://www.w3.org/2000/svg">
 <path  d= "M31.4038 1.11697C30.7483 0.522556 29.7261 0.561443 29.0373 1.11697L23.9042 5.2223C23.2765 5.72782 22.4932 6.00003 21.6821 6.00003H15.1103C14.6214 6.00003 14.2214 5.60005 14.2214 5.11119C14.2214 4.62233 14.6214 4.22235 15.1103 4.22235H19.46C20.3433 4.22235 21.1655 3.61683 21.3099 2.74465C21.4933 1.63361 20.6377 0.666992 19.5545 0.666992H10.6661C9.16616 0.666992 7.71624 1.18363 6.54964 2.12802L3.96645 4.22235H0.88884C0.399978 4.22235 0 4.62233 0 5.11119V10.4442C0 10.9331 0.399978 11.3331 0.88884 11.3331H20.71C21.5155 11.3331 22.2988 11.0609 22.9321 10.5553L31.3316 3.83348C32.176 3.1613 32.2427 1.87248 31.4038 1.11697Z" fill="#0165E1" /></svg>