<svg width="32" height="26" viewBox="0 0 32 26" fill="none" xmlns="http://www.w3.org/2000/svg">
 <path  d= "M21.3333 25.4446H32V18.9878C32 17.9797 31.7143 16.9922 31.1759 16.1398L22.1182 1.79833C21.8778 1.41774 21.545 1.10419 21.1507 0.886907C20.7565 0.66962 20.3137 0.555666 19.8636 0.555664H1.33333C0.596944 0.555664 0 1.15261 0 1.889V2.77789C0 4.49611 1.39289 5.889 3.11111 5.889H15.8878C16.6014 5.889 17.0854 6.61494 16.8109 7.27361L15.6214 10.1283C15.4865 10.4523 15.2586 10.7291 14.9666 10.9238C14.6745 11.1184 14.3314 11.2223 13.9804 11.2223H7.11111C5.14744 11.2223 3.55556 12.8142 3.55556 14.7779V15.2223C3.55556 15.9587 4.1525 16.5557 4.88889 16.5557H13.0781C13.5835 16.5557 14.0785 16.6993 14.5054 16.9698L20.7137 20.9038C20.9035 21.0241 21.0599 21.1904 21.1682 21.3873C21.2765 21.5842 21.3333 21.8053 21.3333 22.0301V25.4446Z" fill="#0165E1" /></svg>