<svg width="24" height="32" viewBox="0 0 24 32" fill="none" xmlns="http://www.w3.org/2000/svg">
 <path  d= "M5.73913 29.2V19.8729C5.22363 20.2379 4.70425 20.5335 4.18175 20.7574C2.19363 21.6095 -0.000874738 20.1389 2.61577e-07 18C0.000500262 16.8365 0.681063 15.9873 1.81825 15.5C3.58613 14.7424 5.83881 10.5845 6.65094 8.77913C7.14819 7.66306 8.24337 7.00081 9.39125 7.00012L9.39131 7H20.1117C20.8499 7 21.4802 7.53725 21.5931 8.26681C22.0462 11.1941 23.9983 12.1268 23.9878 16C23.9874 16.1702 24 16.8284 24 17C24 20.1659 22.6174 22.0984 19.5461 21.5375C18.965 22.6998 17.0782 23.4586 15.6514 22.5656C14.3278 24.1059 12.2829 23.9806 11.2174 22.9593V29.2C11.2174 30.7094 9.95481 32 8.47825 32C7.02306 32 5.73913 30.6656 5.73913 29.2ZM7 4.5V1.5C7 0.671562 7.67156 0 8.5 0H20.5C21.3284 0 22 0.671562 22 1.5V4.5C22 5.32844 21.3284 6 20.5 6H8.5C7.67156 6 7 5.32844 7 4.5ZM20.25 3C20.25 2.30963 19.6904 1.75 19 1.75C18.3096 1.75 17.75 2.30963 17.75 3C17.75 3.69037 18.3096 4.25 19 4.25C19.6904 4.25 20.25 3.69037 20.25 3Z" fill="#0165E1" /></svg>