<svg width="32" height="28" viewBox="0 0 32 28" fill="none" xmlns="http://www.w3.org/2000/svg">
 <path  d= "M13.5 25.5C13.5 24.1193 14.6193 23 16 23V22.5H14C12.6193 22.5 11.5 21.3808 11.5 20C11.5 18.6193 12.6193 17.5 14 17.5H16V17H3C1.34312 17 0 15.6569 0 14C0 12.3432 1.34312 11 3 11H16V10.1518L4.90306 5.79305C3.36094 5.18717 2.60194 3.44586 3.20775 1.9038C3.81356 0.361673 5.55488 -0.397265 7.097 0.208548L18.9934 4.88136L20.5479 2.93824C21.317 1.97692 22.6715 1.71855 23.7404 2.32942L30.7404 6.32942C31.1231 6.54811 31.4411 6.86405 31.6623 7.24525C31.8835 7.62644 32 8.05933 32 8.50005V23.5C32 24.6602 31.2019 25.6679 30.0726 25.9336L21.5726 27.9336C21.385 27.9778 21.1928 28.0001 21 28H16C14.6193 28 13.5 26.8808 13.5 25.5Z" fill="#0165E1" /></svg>