<svg width="32" height="32" viewBox="0 0 32 32" fill="none" xmlns="http://www.w3.org/2000/svg">
 <path  d= "M15.1531 9.42925L18.0943 10.2704C18.3061 10.3293 18.4532 10.5293 18.4532 10.7469C18.4532 11.0175 18.2296 11.241 17.959 11.241H16.0296C15.8178 11.241 15.6119 11.194 15.4237 11.1116C15.1413 10.9822 14.8119 11.0116 14.5943 11.2293L13.5649 12.2587C13.2531 12.5705 13.2884 13.0999 13.6531 13.3411C14.2119 13.7117 14.8472 13.9352 15.5237 14.0175V15.0587C15.5237 15.5764 15.9472 15.9999 16.4649 15.9999H17.4061C17.9237 15.9999 18.3473 15.5764 18.3473 15.0587V14.0234C20.1296 13.8117 21.4826 12.1999 21.2473 10.3175C21.0767 8.96454 20.0296 7.88806 18.7237 7.51158L15.7825 6.67039C15.5708 6.61157 15.4237 6.41157 15.4237 6.19392C15.4237 5.92333 15.6472 5.6998 15.9178 5.6998H17.8473C18.059 5.6998 18.2649 5.74685 18.4532 5.82921C18.7355 5.95862 19.0649 5.92921 19.2826 5.71156L20.312 4.68214C20.6238 4.37037 20.5885 3.84095 20.2238 3.59977C19.6649 3.22918 19.0296 3.00565 18.3531 2.92329V1.88211C18.3531 1.36445 17.9296 0.940918 17.412 0.940918H16.4708C15.9531 0.940918 15.5296 1.36445 15.5296 1.88211V2.91741C13.7472 3.12918 12.3943 4.74096 12.6296 6.62334C12.8001 7.97629 13.8472 9.05277 15.1531 9.42925ZM31.4062 20.2411C30.7474 19.6117 29.7297 19.6529 29.0356 20.2411L23.9062 24.5882C23.2767 25.1235 22.4944 25.4118 21.6826 25.4118H15.1119C14.6237 25.4118 14.2237 24.9882 14.2237 24.4706C14.2237 23.9529 14.6237 23.5294 15.1119 23.5294H19.459C20.3473 23.5294 21.1649 22.8882 21.3061 21.9647C21.4885 20.7882 20.6296 19.7647 19.5532 19.7647H10.6648C9.16481 19.7647 7.71185 20.3117 6.55302 21.3117L3.97063 23.5294H0.888245C0.400005 23.5294 0 23.9529 0 24.4706V30.1177C0 30.6354 0.400005 31.0589 0.888245 31.0589H20.7061C21.512 31.0589 22.2944 30.7707 22.9297 30.2354L31.3298 23.1176C32.1768 22.4059 32.2415 21.0411 31.4062 20.2411Z" fill="#0165E1" /></svg>