<svg width="28" height="32" viewBox="0 0 28 32" fill="none" xmlns="http://www.w3.org/2000/svg">
 <path  d= "M25.5 13.5C24.1192 13.5 23 14.6193 23 16H22.5V14C22.5 12.6193 21.3807 11.5 20 11.5C18.6192 11.5 17.5 12.6193 17.5 14V16H17V3C17 1.34312 15.6569 0 14 0C12.3431 0 11 1.34312 11 3V16H10.1517L5.79299 4.90306C5.18711 3.36087 3.44586 2.60188 1.9038 3.20775C0.361673 3.81356 -0.397265 5.55481 0.208548 7.09694L4.88136 18.9933L2.93824 20.5478C1.97692 21.3169 1.71855 22.6714 2.32942 23.7404L6.32942 30.7404C6.54808 31.123 6.864 31.4411 7.24519 31.6623C7.62637 31.8835 8.05926 32 8.49999 32H23.5C24.6601 32 25.6679 31.2019 25.9335 30.0726L27.9335 21.5726C27.9777 21.385 28 21.1928 28 21V16C28 14.6193 26.8807 13.5 25.5 13.5Z" fill="#0165E1" /></svg>