<svg width="32" height="32" viewBox="0 0 32 32" fill="none" xmlns="http://www.w3.org/2000/svg">
 <path  d= "M0.679504 19.7865C1.62569 18.7811 3.20788 18.7331 4.21344 19.6795L8 23.2433V18.2805L5.56219 7.55403C5.25619 6.20765 6.09956 4.86815 7.44594 4.56215C8.79275 4.25628 10.1319 5.09959 10.4378 6.44596L12.6092 16H13.2237L10.251 3.06034C9.94187 1.71466 10.7821 0.373219 12.1277 0.064094C13.4735 -0.245281 14.8149 0.595219 15.124 1.94084L18.354 16H19.2981L22.3246 3.89359C22.6594 2.55409 24.0168 1.73972 25.3563 2.07459C26.6958 2.40947 27.5102 3.76678 27.1753 5.10628L24.4519 16H25.1444L27.0674 7.9209C27.3872 6.57771 28.7352 5.7479 30.0785 6.06796C31.4217 6.38778 32.2513 7.73584 31.9314 9.07903L29.6632 18.6082C29.5548 19.0635 29.5 19.5299 29.5 19.9979V22.6293C29.5 23.2067 29.4166 23.7811 29.2525 24.3347L27.6166 29.8526C27.239 31.1263 26.0688 31.9999 24.7404 31.9999H11.1982C10.434 31.9999 9.69864 31.7083 9.14212 31.1846L0.786566 23.3205C-0.21887 22.3741 -0.266745 20.792 0.679504 19.7865Z" fill="#0165E1" /></svg>