<svg width="32" height="28" viewBox="0 0 32 28" fill="none" xmlns="http://www.w3.org/2000/svg">
 <path  d= "M32 6.04937C32 4.40424 30.6962 3.02787 29.0513 3.00043C27.3709 2.97237 26 4.32605 26 5.99999H25.5V4.04937C25.5 2.40424 24.1962 1.02787 22.5513 1.00043C20.8709 0.972366 19.5 2.32605 19.5 3.99999V5.99999H19V3.04937C19 1.40424 17.6962 0.0278661 16.0513 0.000428565C14.3709 -0.0276339 13 1.32605 13 2.99999V5.99999H12.5V4.04937C12.5 2.40424 11.1962 1.02787 9.55125 1.00043C7.87094 0.972366 6.5 2.32605 6.5 3.99999V12.5L6 12.0556V9.04937C6 7.40424 4.69619 6.02787 3.05125 6.00043C1.37094 5.97237 1.44873e-10 7.32605 1.44873e-10 8.99999V13.1528C-5.88757e-06 14.0001 0.179449 14.8378 0.52655 15.6107C0.873652 16.3837 1.38053 17.0743 2.01381 17.6372L8.99306 23.8411C9.30971 24.1225 9.56316 24.4678 9.73672 24.8543C9.91027 25.2408 10 25.6596 10 26.0833V26.5C10 27.3284 10.6716 28 11.5 28H26.5C27.3284 28 28 27.3284 28 26.5V26.3174C28 25.5177 28.1599 24.7261 28.4702 23.9891L31.5298 16.7225C31.8401 15.9855 32 15.1938 32 14.3941V6.04937Z" fill="#0165E1" /></svg>