<svg width="32" height="26" viewBox="0 0 32 26" fill="none" xmlns="http://www.w3.org/2000/svg">
 <path  d= "M24.4011 9.80007H16.8011V12.6001C16.8011 14.5851 15.1861 16.2001 13.2011 16.2001C11.2161 16.2001 9.60112 14.5851 9.60112 12.6001V6.52008L6.35613 8.47007C5.39113 9.04507 4.80113 10.0901 4.80113 11.2101V13.5751L0.801139 15.8851C0.0361403 16.3251 -0.228859 17.3051 0.21614 18.0701L4.21613 25C4.65613 25.765 5.63613 26.025 6.40113 25.585L11.5711 22.6H18.4011C20.1661 22.6 21.6011 21.1651 21.6011 19.4001H22.4011C23.2861 19.4001 24.0011 18.6851 24.0011 17.8001V14.6001H24.4011C25.0661 14.6001 25.6011 14.0651 25.6011 13.4001V11.0001C25.6011 10.3351 25.0661 9.80007 24.4011 9.80007ZM31.7861 7.93008L27.7861 1.00009C27.3461 0.23509 26.3661 -0.0249093 25.6011 0.41509L20.4311 3.40008H15.3211C14.7211 3.40008 14.1361 3.57008 13.6261 3.88508L11.9511 4.93008C11.4811 5.22008 11.2011 5.73508 11.2011 6.28508V12.6001C11.2011 13.7051 12.0961 14.6001 13.2011 14.6001C14.3061 14.6001 15.2011 13.7051 15.2011 12.6001V8.20008H24.4011C25.9461 8.20008 27.2011 9.45507 27.2011 11.0001V12.4251L31.2011 10.1151C31.9661 9.67007 32.2261 8.69508 31.7861 7.93008Z" fill="#0165E1" /></svg>