<svg width="32" height="30" viewBox="0 0 32 30" fill="none" xmlns="http://www.w3.org/2000/svg">
 <path  d= "M15.2936 14.6949C15.6825 15.106 16.3158 15.106 16.7102 14.6949L22.7599 8.35083C24.5153 6.50649 24.4153 3.4511 22.4488 1.7512C20.7377 0.267946 18.1879 0.534598 16.6213 2.17895L15.9991 2.82892L15.3825 2.18451C13.8159 0.534598 11.266 0.267946 9.55503 1.7512C7.59403 3.4511 7.48848 6.50649 9.24393 8.35083L15.2936 14.6949ZM31.4038 19.0058C30.7483 18.4114 29.7261 18.4503 29.0373 19.0058L23.9042 23.1111C23.2765 23.6167 22.4932 23.8889 21.6821 23.8889H15.1103C14.6214 23.8889 14.2214 23.4889 14.2214 23C14.2214 22.5112 14.6214 22.1112 15.1103 22.1112H19.46C20.3433 22.1112 21.1655 21.5057 21.3099 20.6335C21.4933 19.5224 20.6377 18.5558 19.5545 18.5558H10.6661C9.16616 18.5558 7.71624 19.0725 6.54964 20.0169L3.96645 22.1112H0.88884C0.399978 22.1112 0 22.5112 0 23V28.3331C0 28.8219 0.399978 29.2219 0.88884 29.2219H20.71C21.5155 29.2219 22.2988 28.9497 22.9321 28.4442L31.3316 21.7223C32.176 21.0501 32.2427 19.7613 31.4038 19.0058Z" fill="#0165E1" /></svg>