<svg width="32" height="24" viewBox="0 0 32 24" fill="none" xmlns="http://www.w3.org/2000/svg">
 <path  d= "M2.8 5.73913H12.1271C11.7621 5.22363 11.4665 4.70425 11.2426 4.18175C10.3905 2.19363 11.8611 -0.000874738 14 2.61577e-07C15.1635 0.000500262 16.0127 0.681063 16.5 1.81825C17.2576 3.58613 21.4155 5.83881 23.2209 6.65094C24.3369 7.14819 24.9992 8.24337 24.9999 9.39125L25 9.39131V20.1117C25 20.8499 24.4627 21.4802 23.7332 21.5931C20.8059 22.0462 19.8732 23.9983 16 23.9878C15.8298 23.9874 15.1716 24 15 24C11.8341 24 9.90162 22.6174 10.4625 19.5461C9.30019 18.965 8.54138 17.0782 9.43437 15.6514C7.89406 14.3278 8.01944 12.2829 9.04069 11.2174H2.8C1.29062 11.2174 0 9.95481 0 8.47825C0 7.02306 1.33437 5.73913 2.8 5.73913ZM27.5 7H30.5C31.3284 7 32 7.67156 32 8.5V20.5C32 21.3284 31.3284 22 30.5 22H27.5C26.6716 22 26 21.3284 26 20.5V8.5C26 7.67156 26.6716 7 27.5 7ZM29 20.25C29.6904 20.25 30.25 19.6904 30.25 19C30.25 18.3096 29.6904 17.75 29 17.75C28.3096 17.75 27.75 18.3096 27.75 19C27.75 19.6904 28.3096 20.25 29 20.25Z" fill="#0165E1" /></svg>