<svg width="24" height="32" viewBox="0 0 24 32" fill="none" xmlns="http://www.w3.org/2000/svg">
 <path  d= "M8.47825 0C9.95481 0 11.2174 1.29062 11.2174 2.8V9.04069C12.2829 8.01944 14.3278 7.89406 15.6514 9.43437C17.0782 8.54138 18.9649 9.30019 19.5461 10.4625C22.6174 9.90162 24 11.8341 24 15C24 15.1716 23.9873 15.8298 23.9878 16C23.9983 19.8732 22.0462 20.8059 21.5931 23.7332C21.4802 24.4627 20.8499 25 20.1116 25H9.39131L9.39125 24.9999C8.24337 24.9992 7.14819 24.3369 6.65094 23.2209C5.83881 21.4155 3.58606 17.2576 1.81825 16.5C0.681063 16.0127 0.000500262 15.1635 2.61577e-07 14C-0.000874738 11.8611 2.19363 10.3905 4.18175 11.2426C4.70419 11.4665 5.22363 11.7621 5.73913 12.1271V2.8C5.73913 1.33437 7.02306 0 8.47825 0ZM8.5 26H20.5C21.3284 26 22 26.6716 22 27.5V30.5C22 31.3284 21.3284 32 20.5 32H8.5C7.67156 32 7 31.3284 7 30.5V27.5C7 26.6716 7.67156 26 8.5 26ZM19 27.75C18.3096 27.75 17.75 28.3096 17.75 29C17.75 29.6904 18.3096 30.25 19 30.25C19.6904 30.25 20.25 29.6904 20.25 29C20.25 28.3096 19.6904 27.75 19 27.75Z" fill="#0165E1" /></svg>