<svg width="28" height="32" viewBox="0 0 28 32" fill="none" xmlns="http://www.w3.org/2000/svg">
 <path  d= "M28 15V21C28 21.1928 27.9778 21.3849 27.9336 21.5726L25.9336 30.0726C25.6679 31.2019 24.6601 32 23.5 32H10.5C10.1057 32 9.71695 31.9067 9.36555 31.7278C9.01416 31.5488 8.71008 31.2893 8.47813 30.9704L0.478315 19.9704C-0.333748 18.8538 -0.0868728 17.2903 1.02969 16.4782C2.14638 15.6661 3.70994 15.913 4.522 17.0296L6.5 19.7495V2.5C6.5 1.11931 7.61925 0 9 0C10.3808 0 11.5 1.11931 11.5 2.5V15H12V12.5C12 11.1193 13.1193 10 14.5 10C15.8808 10 17 11.1193 17 12.5V15H17.5V13.5C17.5 12.1193 18.6193 11 20 11C21.3808 11 22.5 12.1193 22.5 13.5V15H23C23 13.6193 24.1193 12.5 25.5 12.5C26.8808 12.5 28 13.6193 28 15ZM12 20H11.5V26H12V20ZM17.5 20H17V26H17.5V20ZM23 20H22.5V26H23V20Z" fill="#0165E1" /></svg>