<svg width="32" height="24" viewBox="0 0 32 24" fill="none" xmlns="http://www.w3.org/2000/svg">
 <path  d= "M10.24 9.12005C9.71 8.41505 8.705 8.27005 8 8.80005C7.295 9.33005 7.15 10.335 7.68 11.04L9.585 13.58C9.825 13.9 9.79 14.345 9.51 14.625L8.87 15.265C8.535 15.6 7.99 15.575 7.69 15.21L3.2 9.82005V2.40005C3.2 1.51505 2.485 0.800049 1.6 0.800049C0.715 0.800049 0 1.51505 0 2.40005V13.32C0 13.865 0.185 14.395 0.525 14.82L5.73 21.535C5.98 21.86 6.15 22.23 6.25 22.62C6.34 22.965 6.655 23.2 7.015 23.2H13.6C14.04 23.2 14.4 22.84 14.4 22.4V16.8C14.4 15.415 13.95 14.07 13.12 12.96L10.24 9.12005ZM30.4 0.800049C29.515 0.800049 28.8 1.51505 28.8 2.40005V9.82005L24.31 15.21C24.01 15.57 23.46 15.595 23.13 15.265L22.49 14.625C22.21 14.345 22.175 13.9 22.415 13.58L24.32 11.04C24.85 10.335 24.705 9.33005 24 8.80005C23.295 8.27005 22.29 8.41505 21.76 9.12005L18.88 12.96C18.05 14.07 17.6 15.415 17.6 16.8V22.4C17.6 22.84 17.96 23.2 18.4 23.2H24.985C25.34 23.2 25.66 22.965 25.75 22.62C25.85 22.23 26.02 21.86 26.27 21.535L31.475 14.82C31.815 14.395 32 13.865 32 13.32V2.40005C32 1.51505 31.285 0.800049 30.4 0.800049Z" fill="#0165E1" /></svg>