<svg width="32" height="24" viewBox="0 0 32 24" fill="none" xmlns="http://www.w3.org/2000/svg">
 <path  d= "M32 8.47825C32 9.95481 30.7094 11.2174 29.2 11.2174H22.9593C23.9806 12.2829 24.1059 14.3278 22.5656 15.6514C23.4586 17.0782 22.6998 18.9649 21.5375 19.5461C22.0984 22.6174 20.1659 24 17 24C16.8284 24 16.1702 23.9873 16 23.9878C12.1268 23.9983 11.1941 22.0462 8.26681 21.5931C7.53725 21.4802 7 20.8499 7 20.1116V9.39131L7.00012 9.39125C7.00081 8.24337 7.66306 7.14819 8.77913 6.65094C10.5845 5.83881 14.7424 3.58606 15.5 1.81825C15.9873 0.681125 16.8365 0.000500262 18 2.61577e-07C20.1389 -0.000874738 21.6095 2.19363 20.7574 4.18175C20.5335 4.70419 20.2379 5.22363 19.8729 5.73913H29.2C30.6656 5.73913 32 7.02306 32 8.47825ZM6 8.5V20.5C6 21.3284 5.32844 22 4.5 22H1.5C0.671562 22 0 21.3284 0 20.5V8.5C0 7.67156 0.671562 7 1.5 7H4.5C5.32844 7 6 7.67156 6 8.5ZM4.25 19C4.25 18.3096 3.69037 17.75 3 17.75C2.30963 17.75 1.75 18.3096 1.75 19C1.75 19.6904 2.30963 20.25 3 20.25C3.69037 20.25 4.25 19.6904 4.25 19Z" fill="#0165E1" /></svg>