<svg width="32" height="22" viewBox="0 0 32 22" fill="none" xmlns="http://www.w3.org/2000/svg">
 <path  d= "M32 13.6666V18.9999C32 20.4727 30.8061 21.6666 29.3333 21.6666H2.66667C1.19389 21.6666 0 20.4727 0 18.9999V13.6666C0 12.1938 1.19389 10.9999 2.66667 10.9999H29.3333C30.8061 10.9999 32 12.1938 32 13.6666ZM29.3333 9.22214C29.9204 9.22163 30.5016 9.33806 31.0432 9.56464L25.6806 1.5207C25.437 1.15543 25.1071 0.855933 24.72 0.648789C24.3329 0.441644 23.9007 0.333259 23.4617 0.333252H8.53828C8.09928 0.333253 7.66706 0.441637 7.28001 0.648782C6.89295 0.855927 6.56302 1.15543 6.3195 1.5207L0.956833 9.56464C1.49838 9.33806 2.07963 9.22163 2.66667 9.22214H29.3333ZM26.6667 14.5555C25.6848 14.5555 24.8889 15.3514 24.8889 16.3333C24.8889 17.3151 25.6848 18.111 26.6667 18.111C27.6485 18.111 28.4444 17.3151 28.4444 16.3333C28.4444 15.3514 27.6485 14.5555 26.6667 14.5555ZM21.3333 14.5555C20.3515 14.5555 19.5556 15.3514 19.5556 16.3333C19.5556 17.3151 20.3515 18.111 21.3333 18.111C22.3152 18.111 23.1111 17.3151 23.1111 16.3333C23.1111 15.3514 22.3152 14.5555 21.3333 14.5555Z" fill="#0165E1" /></svg>