<svg width="32" height="28" viewBox="0 0 32 28" fill="none" xmlns="http://www.w3.org/2000/svg">
 <path  d= "M10 16H9C6.79063 16 5 17.7938 5 20.0075V23.9925C5 26.2056 6.79063 28 9 28H10C11.1044 28 12 27.1025 12 25.9963V18.0037C12 16.8969 11.1044 16 10 16ZM23 16H22C20.8956 16 20 16.8969 20 18.0037V25.9963C20 27.1025 20.8956 28 22 28H23C25.2094 28 27 26.2056 27 23.9925V20.0075C27 17.7944 25.2094 16 23 16ZM16 0C7.05688 0 0.285625 7.44563 0 16V23C0 23.5525 0.4475 24 1 24H2C2.5525 24 3 23.5525 3 23V16C3 8.83313 8.83313 3.0125 16 3.01125C23.1669 3.0125 29 8.83313 29 16V23C29 23.5525 29.4475 24 30 24H31C31.5525 24 32 23.5525 32 23V16C31.7144 7.44563 24.9431 0 16 0Z" fill="#0165E1" /></svg>