<svg width="32" height="30" viewBox="0 0 32 30" fill="none" xmlns="http://www.w3.org/2000/svg">
 <path  d= "M32 3.26665V1.13332C32 0.544184 31.5225 0.0666504 30.9333 0.0666504H20.2667C19.6775 0.0666504 19.2 0.544184 19.2 1.13332V3.26665C19.2 3.85578 19.6775 4.33332 20.2667 4.33332H22.7747V12.8667H9.22527V4.33332H11.7333C12.3225 4.33332 12.8 3.85578 12.8 3.26665V1.13332C12.8 0.544184 12.3225 0.0666504 11.7333 0.0666504H1.06667C0.477533 0.0666504 0 0.544184 0 1.13332V3.26665C0 3.85578 0.477533 4.33332 1.06667 4.33332H3.55167V25.6667H1.06667C0.477533 25.6667 0 26.1442 0 26.7333V28.8666C0 29.4558 0.477533 29.9333 1.06667 29.9333H11.7333C12.3225 29.9333 12.8 29.4558 12.8 28.8666V26.7333C12.8 26.1442 12.3225 25.6667 11.7333 25.6667H9.22527V17.1333H22.7747V25.6667H20.2667C19.6775 25.6667 19.2 26.1442 19.2 26.7333V28.8666C19.2 29.4558 19.6775 29.9333 20.2667 29.9333H30.9333C31.5225 29.9333 32 29.4558 32 28.8666V26.7333C32 26.1442 31.5225 25.6667 30.9333 25.6667H28.4483V4.33332H30.9333C31.5225 4.33332 32 3.85578 32 3.26665Z" fill="#0165E1" /></svg>