<svg width="32" height="28" viewBox="0 0 32 28" fill="none" xmlns="http://www.w3.org/2000/svg">
 <path  d= "M16 0C7.1575 0 1.66115e-10 7.156 1.66115e-10 16V19C-4.78612e-06 19.3714 0.103421 19.7355 0.298689 20.0515C0.493956 20.3674 0.77335 20.6228 1.10556 20.7889L2.0045 21.2383C2.13019 24.9939 5.21381 28 9 28H10.5C11.3284 28 12 27.3284 12 26.5V15.5C12 14.6716 11.3284 14 10.5 14H9C7.04113 14 5.27056 14.8049 4 16.1017V16C4 9.38319 9.38319 4 16 4C22.6168 4 28 9.38319 28 16V16.1017C26.7294 14.8049 24.9589 14 23 14H21.5C20.6716 14 20 14.6716 20 15.5V26.5C20 27.3284 20.6716 28 21.5 28H23C26.7862 28 29.8698 24.9939 29.9955 21.2383L30.8944 20.7889C31.2266 20.6228 31.506 20.3674 31.7013 20.0515C31.8966 19.7355 32 19.3714 32 19V16C32 7.15756 24.844 0 16 0Z" fill="#0165E1" /></svg>