<svg width="32" height="26" viewBox="0 0 32 26" fill="none" xmlns="http://www.w3.org/2000/svg">
 <path  d= "M15.1999 19.4003H28.8C29.6835 19.4003 30.4 18.6838 30.4 17.8003C30.4 11.6147 25.3855 6.60022 19.2 6.60022V3.40021H28C28.442 3.40021 28.8 3.04221 28.8 2.60021V1.0002C28.8 0.558197 28.442 0.200195 28 0.200195H7.1999C6.7579 0.200195 6.3999 0.558197 6.3999 1.0002V2.60021C6.3999 3.04221 6.7579 3.40021 7.1999 3.40021H15.9999V6.60022H5.59989L3.43988 3.72021C3.28888 3.51871 3.05138 3.40021 2.79988 3.40021H0.800371C0.279869 3.40021 -0.102133 3.88921 0.0243675 4.39421L1.59987 9.80024L9.59991 13.0003L13.9199 18.7603C14.0689 18.959 14.2622 19.1203 14.4844 19.2314C14.7065 19.3425 14.9515 19.4003 15.1999 19.4003ZM20.8 9.97574C23.9275 10.6152 26.4015 13.0723 27.0395 16.2003H20.8V9.97574ZM31.7685 23.1408L30.661 22.0308C30.3485 21.7178 29.849 21.7258 29.529 22.0313C29.1745 22.3698 28.837 22.5938 28.297 22.5938H11.9999C11.5579 22.5938 11.1999 22.9528 11.1999 23.3953V24.9983C11.1999 25.4408 11.5579 25.7998 11.9999 25.7998H28.297C29.041 25.7998 30.062 25.7763 31.7195 24.3238C32.0705 24.0168 32.098 23.4713 31.7685 23.1408Z" fill="#0165E1" /></svg>