<svg width="32" height="32" viewBox="0 0 32 32" fill="none" xmlns="http://www.w3.org/2000/svg">
 <path  d= "M0 29.1754L5.87762 31.059L7.96291 28.9737L4.0194 25.0302L0 29.1754ZM7.32997 15.0573C7.02031 15.3306 6.79581 15.6872 6.68327 16.0846C6.57073 16.482 6.57489 16.9033 6.69527 17.2984L7.46291 19.8178L4.46704 22.8143L10.1276 28.4749L13.1194 25.4831L15.6335 26.2525C16.4411 26.4996 17.3188 26.2519 17.8776 25.6184L19.9688 23.169L9.77232 12.9726L7.32997 15.0573ZM31.054 5.60435L27.3364 1.88672C26.1311 0.681428 24.1964 0.62084 22.9176 1.74848L11.2088 11.7461L21.1952 21.7331L31.1922 10.0237C32.3205 8.74493 32.2599 6.81023 31.054 5.60435Z" fill="#0165E1" /></svg>