<svg width="32" height="32" viewBox="0 0 32 32" fill="none" xmlns="http://www.w3.org/2000/svg">
 <path  d= "M32 15.9697C32.0163 24.7852 24.8271 31.9937 16.0116 31.9999C12.2042 32.0026 8.7069 30.6754 5.95858 28.4573C5.24393 27.8805 5.19051 26.8095 5.83993 26.16L6.56683 25.4331C7.12225 24.8777 8.00896 24.8169 8.62432 25.3051C10.6492 26.9119 13.2117 27.8709 16 27.8709C22.5616 27.8709 27.8709 22.5606 27.8709 16C27.8709 9.43838 22.5606 4.12903 16 4.12903C12.8507 4.12903 9.99038 5.35283 7.86657 7.35045L11.141 10.6249C11.7913 11.2752 11.3308 12.3871 10.4112 12.3871H1.03226C0.462129 12.3871 0 11.925 0 11.3548V1.97593C0 1.05632 1.11187 0.595741 1.76219 1.246L4.94748 4.43129C7.81993 1.68619 11.713 0 16 0C24.8264 0 31.9837 7.14709 32 15.9697ZM20.3282 21.0526L20.962 20.2377C21.487 19.5627 21.3654 18.5899 20.6904 18.0649L18.0645 16.0225V9.29031C18.0645 8.43515 17.3713 7.74193 16.5161 7.74193H15.4839C14.6287 7.74193 13.9355 8.43515 13.9355 9.29031V18.042L18.1554 21.3242C18.8304 21.8491 19.8032 21.7276 20.3282 21.0526Z" fill="#0165E1" /></svg>