<svg width="32" height="30" viewBox="0 0 32 30" fill="none" xmlns="http://www.w3.org/2000/svg">
 <path  d= "M30.2222 6.11117H23.1111V2.55561C23.1111 1.57228 22.3167 0.777832 21.3333 0.777832H10.6667C9.68333 0.777832 8.88889 1.57228 8.88889 2.55561V6.11117H1.77778C0.794444 6.11117 0 6.90561 0 7.88894V28.3334C0 28.8223 0.4 29.2223 0.888889 29.2223H31.1111C31.6 29.2223 32 28.8223 32 28.3334V7.88894C32 6.90561 31.2056 6.11117 30.2222 6.11117ZM8.88889 25.0001C8.88889 25.3667 8.58889 25.6667 8.22222 25.6667H6C5.63333 25.6667 5.33333 25.3667 5.33333 25.0001V22.7778C5.33333 22.4112 5.63333 22.1112 6 22.1112H8.22222C8.58889 22.1112 8.88889 22.4112 8.88889 22.7778V25.0001ZM8.88889 17.8889C8.88889 18.2556 8.58889 18.5556 8.22222 18.5556H6C5.63333 18.5556 5.33333 18.2556 5.33333 17.8889V15.6667C5.33333 15.3001 5.63333 15.0001 6 15.0001H8.22222C8.58889 15.0001 8.88889 15.3001 8.88889 15.6667V17.8889ZM17.7778 25.0001C17.7778 25.3667 17.4778 25.6667 17.1111 25.6667H14.8889C14.5222 25.6667 14.2222 25.3667 14.2222 25.0001V22.7778C14.2222 22.4112 14.5222 22.1112 14.8889 22.1112H17.1111C17.4778 22.1112 17.7778 22.4112 17.7778 22.7778V25.0001ZM17.7778 17.8889C17.7778 18.2556 17.4778 18.5556 17.1111 18.5556H14.8889C14.5222 18.5556 14.2222 18.2556 14.2222 17.8889V15.6667C14.2222 15.3001 14.5222 15.0001 14.8889 15.0001H17.1111C17.4778 15.0001 17.7778 15.3001 17.7778 15.6667V17.8889ZM18.6667 8.4445C18.6667 8.62783 18.5167 8.77783 18.3333 8.77783H16.8889V10.2223C16.8889 10.4056 16.7389 10.5556 16.5556 10.5556H15.4444C15.2611 10.5556 15.1111 10.4056 15.1111 10.2223V8.77783H13.6667C13.4833 8.77783 13.3333 8.62783 13.3333 8.4445V7.33339C13.3333 7.15005 13.4833 7.00005 13.6667 7.00005H15.1111V5.55561C15.1111 5.37228 15.2611 5.22228 15.4444 5.22228H16.5556C16.7389 5.22228 16.8889 5.37228 16.8889 5.55561V7.00005H18.3333C18.5167 7.00005 18.6667 7.15005 18.6667 7.33339V8.4445ZM26.6667 25.0001C26.6667 25.3667 26.3667 25.6667 26 25.6667H23.7778C23.4111 25.6667 23.1111 25.3667 23.1111 25.0001V22.7778C23.1111 22.4112 23.4111 22.1112 23.7778 22.1112H26C26.3667 22.1112 26.6667 22.4112 26.6667 22.7778V25.0001ZM26.6667 17.8889C26.6667 18.2556 26.3667 18.5556 26 18.5556H23.7778C23.4111 18.5556 23.1111 18.2556 23.1111 17.8889V15.6667C23.1111 15.3001 23.4111 15.0001 23.7778 15.0001H26C26.3667 15.0001 26.6667 15.3001 26.6667 15.6667V17.8889Z" fill="#0165E1" /></svg>