<svg width="32" height="32" viewBox="0 0 32 32" fill="none" xmlns="http://www.w3.org/2000/svg">
 <path  d= "M16 0C7.1625 0 0 7.1625 0 16C0 24.8375 7.1625 32 16 32C24.8375 32 32 24.8375 32 16C32 7.1625 24.8375 0 16 0ZM23 23.5C23 23.775 22.775 24 22.5 24H19.5C19.225 24 19 23.775 19 23.5V18H13V23.5C13 23.775 12.775 24 12.5 24H9.5C9.225 24 9 23.775 9 23.5V8.5C9 8.225 9.225 8 9.5 8H12.5C12.775 8 13 8.225 13 8.5V14H19V8.5C19 8.225 19.225 8 19.5 8H22.5C22.775 8 23 8.225 23 8.5V23.5Z" fill="#0165E1" /></svg>