<svg width="28" height="32" viewBox="0 0 28 32" fill="none" xmlns="http://www.w3.org/2000/svg">
 <path  d= "M28 30.75V32H0V30.75C0 30.3358 0.335813 30 0.75 30H2V7.5C2 6.67156 2.67156 6 3.5 6H9V1.5C9 0.671562 9.67156 0 10.5 0H17.5C18.3284 0 19 0.671562 19 1.5V6H24.5C25.3284 6 26 6.67156 26 7.5V30H27.25C27.6642 30 28 30.3358 28 30.75ZM19.25 12H16.75C16.3358 12 16 12.3358 16 12.75V15.25C16 15.6642 16.3358 16 16.75 16H19.25C19.6642 16 20 15.6642 20 15.25V12.75C20 12.3358 19.6642 12 19.25 12ZM8.75 16H11.25C11.6642 16 12 15.6642 12 15.25V12.75C12 12.3358 11.6642 12 11.25 12H8.75C8.33581 12 8 12.3358 8 12.75V15.25C8 15.6642 8.33581 16 8.75 16ZM15.25 24H12.75C12.3358 24 12 24.3358 12 24.75V30H16V24.75C16 24.3358 15.6642 24 15.25 24ZM19.25 18H16.75C16.3358 18 16 18.3358 16 18.75V21.25C16 21.6642 16.3358 22 16.75 22H19.25C19.6642 22 20 21.6642 20 21.25V18.75C20 18.3358 19.6642 18 19.25 18ZM12 18.75C12 18.3358 11.6642 18 11.25 18H8.75C8.33581 18 8 18.3358 8 18.75V21.25C8 21.6642 8.33581 22 8.75 22H11.25C11.6642 22 12 21.6642 12 21.25V18.75ZM11.375 6H13V7.625C13 7.72446 13.0395 7.81984 13.1098 7.89016C13.1802 7.96049 13.2755 8 13.375 8H14.625C14.7245 8 14.8198 7.96049 14.8902 7.89016C14.9605 7.81984 15 7.72446 15 7.625V6H16.625C16.7245 6 16.8198 5.96049 16.8902 5.89016C16.9605 5.81984 17 5.72446 17 5.625V4.375C17 4.27554 16.9605 4.18016 16.8902 4.10984C16.8198 4.03951 16.7245 4 16.625 4H15V2.375C15 2.27554 14.9605 2.18016 14.8902 2.10983C14.8198 2.03951 14.7245 2 14.625 2H13.375C13.2755 2 13.1802 2.03951 13.1098 2.10983C13.0395 2.18016 13 2.27554 13 2.375V4H11.375C11.2755 4 11.1802 4.03951 11.1098 4.10984C11.0395 4.18016 11 4.27554 11 4.375V5.625C11 5.72446 11.0395 5.81984 11.1098 5.89016C11.1802 5.96049 11.2755 6 11.375 6Z" fill="#0165E1" /></svg>