<svg width="32" height="32" viewBox="0 0 32 32" fill="none" xmlns="http://www.w3.org/2000/svg">
 <path  d= "M25.8881 11.1031C25.9519 11.6163 26.3725 12 26.8725 12H27.88C28.4744 12 28.9475 11.4644 28.88 10.8531C28.6087 8.40875 27.48 6.195 25.7469 4.78062C24.6613 3.895 23.9456 2.48375 23.7481 0.89625C23.685 0.38375 23.2638 0 22.7644 0H21.7569C21.1625 0 20.6887 0.535625 20.7569 1.14688C21.0281 3.59125 22.1569 5.805 23.89 7.21938C24.975 8.105 25.6912 9.51625 25.8881 11.1031ZM19.1381 11.1031C19.2019 11.6163 19.6225 12 20.1225 12H21.13C21.7244 12 22.1975 11.4644 22.13 10.8531C21.8587 8.40875 20.73 6.195 18.9969 4.78062C17.9113 3.895 17.1956 2.48375 16.9981 0.89625C16.935 0.38375 16.5138 0 16.0144 0H15.0069C14.4125 0 13.9388 0.535625 14.0069 1.14688C14.2781 3.59125 15.4069 5.805 17.14 7.21938C18.225 8.105 18.9412 9.51625 19.1381 11.1031ZM30 16H16L9.06688 10.8C8.37451 10.2807 7.53236 9.99996 6.66687 10H4C1.79063 10 0 11.7906 0 14V28C0 30.2094 1.79063 32 4 32H28C30.2094 32 32 30.2094 32 28V18C32 16.8956 31.1044 16 30 16ZM8 27.5C8 27.7763 7.77625 28 7.5 28H6.5C6.22375 28 6 27.7763 6 27.5V20.5C6 20.2237 6.22375 20 6.5 20H7.5C7.77625 20 8 20.2237 8 20.5V27.5ZM14 27.5C14 27.7763 13.7762 28 13.5 28H12.5C12.2238 28 12 27.7763 12 27.5V20.5C12 20.2237 12.2238 20 12.5 20H13.5C13.7762 20 14 20.2237 14 20.5V27.5ZM20 27.5C20 27.7763 19.7763 28 19.5 28H18.5C18.2237 28 18 27.7763 18 27.5V20.5C18 20.2237 18.2237 20 18.5 20H19.5C19.7763 20 20 20.2237 20 20.5V27.5ZM26 27.5C26 27.7763 25.7763 28 25.5 28H24.5C24.2237 28 24 27.7763 24 27.5V20.5C24 20.2237 24.2237 20 24.5 20H25.5C25.7763 20 26 20.2237 26 20.5V27.5ZM4 8C6.20937 8 8 6.20937 8 4C8 1.79063 6.20937 0 4 0C1.79063 0 0 1.79063 0 4C0 6.20937 1.79063 8 4 8Z" fill="#0165E1" /></svg>