<svg width="32" height="30" viewBox="0 0 32 30" fill="none" xmlns="http://www.w3.org/2000/svg">
 <path  d= "M31.1111 4.33339C31.6022 4.33339 32 3.93561 32 3.4445V1.66672C32 1.17561 31.6022 0.777832 31.1111 0.777832H0.888889C0.397778 0.777832 0 1.17561 0 1.66672V3.4445C0 3.93561 0.397778 4.33339 0.888889 4.33339H1.77667V25.6667H0.888889C0.397778 25.6667 0 26.0645 0 26.5556V28.3334C0 28.8245 0.397778 29.2223 0.888889 29.2223H14.2222V24.7778C14.2222 24.2889 14.6222 23.8889 15.1111 23.8889H16.8889C17.3778 23.8889 17.7778 24.2889 17.7778 24.7778V29.2223H31.1111C31.6022 29.2223 32 28.8245 32 28.3334V26.5556C32 26.0645 31.6022 25.6667 31.1111 25.6667H30.2222V4.33339H31.1111ZM14.2222 6.82228C14.2222 6.46672 14.5778 6.11117 14.9333 6.11117H17.0667C17.4222 6.11117 17.7778 6.46672 17.7778 6.82228V8.95561C17.7778 9.31116 17.4222 9.66672 17.0667 9.66672H14.9333C14.5778 9.66672 14.2222 9.31116 14.2222 8.95561V6.82228ZM14.2222 12.1556C14.2222 11.8001 14.5778 11.4445 14.9333 11.4445H17.0667C17.4222 11.4445 17.7778 11.8001 17.7778 12.1556V14.2889C17.7778 14.6445 17.4222 15.0001 17.0667 15.0001H14.9333C14.5778 15.0001 14.2222 14.6445 14.2222 14.2889V12.1556ZM7.11111 6.82228C7.11111 6.46672 7.46667 6.11117 7.82222 6.11117H9.95555C10.3111 6.11117 10.6667 6.46672 10.6667 6.82228V8.95561C10.6667 9.31116 10.3111 9.66672 9.95555 9.66672H7.82222C7.46667 9.66672 7.11111 9.31116 7.11111 8.95561V6.82228ZM9.95555 15.0001H7.82222C7.46667 15.0001 7.11111 14.6445 7.11111 14.2889V12.1556C7.11111 11.8001 7.46667 11.4445 7.82222 11.4445H9.95555C10.3111 11.4445 10.6667 11.8001 10.6667 12.1556V14.2889C10.6667 14.6445 10.3111 15.0001 9.95555 15.0001ZM10.6667 22.1112C10.6667 19.1656 13.0544 16.7778 16 16.7778C18.9456 16.7778 21.3333 19.1656 21.3333 22.1112H10.6667ZM24.8889 14.2889C24.8889 14.6445 24.5333 15.0001 24.1778 15.0001H22.0444C21.6889 15.0001 21.3333 14.6445 21.3333 14.2889V12.1556C21.3333 11.8001 21.6889 11.4445 22.0444 11.4445H24.1778C24.5333 11.4445 24.8889 11.8001 24.8889 12.1556V14.2889ZM24.8889 8.95561C24.8889 9.31116 24.5333 9.66672 24.1778 9.66672H22.0444C21.6889 9.66672 21.3333 9.31116 21.3333 8.95561V6.82228C21.3333 6.46672 21.6889 6.11117 22.0444 6.11117H24.1778C24.5333 6.11117 24.8889 6.46672 24.8889 6.82228V8.95561Z" fill="#0165E1" /></svg>