<svg width="32" height="30" viewBox="0 0 32 30" fill="none" xmlns="http://www.w3.org/2000/svg">
 <path  d= "M29.3333 4.33339H21.3333V9.66672H10.6667V4.33339H2.66667C1.19444 4.33339 0 5.52783 0 7.00005V26.5556C0 28.0278 1.19444 29.2223 2.66667 29.2223H29.3333C30.8056 29.2223 32 28.0278 32 26.5556V7.00005C32 5.52783 30.8056 4.33339 29.3333 4.33339ZM16 13.2223C17.9611 13.2223 19.5556 14.8167 19.5556 16.7778C19.5556 18.7389 17.9611 20.3334 16 20.3334C14.0389 20.3334 12.4444 18.7389 12.4444 16.7778C12.4444 14.8167 14.0389 13.2223 16 13.2223ZM21.1833 25.6667H10.8167C10.2389 25.6667 9.77222 25.1112 9.95 24.5667C10.4111 23.1445 11.75 22.1112 13.3333 22.1112H13.7889C14.4722 22.3945 15.2167 22.5556 16 22.5556C16.7833 22.5556 17.5333 22.3945 18.2111 22.1112H18.6667C20.2444 22.1112 21.5833 23.1389 22.05 24.5667C22.2278 25.1112 21.7611 25.6667 21.1833 25.6667ZM19.5556 2.55561C19.5556 1.57228 18.7611 0.777832 17.7778 0.777832H14.2222C13.2389 0.777832 12.4444 1.57228 12.4444 2.55561V7.88894H19.5556V2.55561Z" fill="#0165E1" /></svg>