<svg width="32" height="26" viewBox="0 0 32 26" fill="none" xmlns="http://www.w3.org/2000/svg">
 <path  d= "M29.3333 0.555664H2.66667C1.19444 0.555664 0 1.75011 0 3.22233V4.11122H32V3.22233C32 1.75011 30.8056 0.555664 29.3333 0.555664ZM0 22.7779C0 24.2501 1.19444 25.4446 2.66667 25.4446H29.3333C30.8056 25.4446 32 24.2501 32 22.7779V5.889H0V22.7779ZM19.5556 9.889C19.5556 9.64455 19.7556 9.44455 20 9.44455H28C28.2444 9.44455 28.4444 9.64455 28.4444 9.889V10.7779C28.4444 11.0223 28.2444 11.2223 28 11.2223H20C19.7556 11.2223 19.5556 11.0223 19.5556 10.7779V9.889ZM19.5556 13.4446C19.5556 13.2001 19.7556 13.0001 20 13.0001H28C28.2444 13.0001 28.4444 13.2001 28.4444 13.4446V14.3334C28.4444 14.5779 28.2444 14.7779 28 14.7779H20C19.7556 14.7779 19.5556 14.5779 19.5556 14.3334V13.4446ZM19.5556 17.0001C19.5556 16.7557 19.7556 16.5557 20 16.5557H28C28.2444 16.5557 28.4444 16.7557 28.4444 17.0001V17.889C28.4444 18.1334 28.2444 18.3334 28 18.3334H20C19.7556 18.3334 19.5556 18.1334 19.5556 17.889V17.0001ZM9.77778 9.44455C11.7389 9.44455 13.3333 11.039 13.3333 13.0001C13.3333 14.9612 11.7389 16.5557 9.77778 16.5557C7.81667 16.5557 6.22222 14.9612 6.22222 13.0001C6.22222 11.039 7.81667 9.44455 9.77778 9.44455ZM3.72778 20.789C4.19444 19.3612 5.53333 18.3334 7.11111 18.3334H7.56667C8.25 18.6168 8.99444 18.7779 9.77778 18.7779C10.5611 18.7779 11.3111 18.6168 11.9889 18.3334H12.4444C14.0222 18.3334 15.3611 19.3612 15.8278 20.789C16.0056 21.339 15.5389 21.889 14.9611 21.889H4.59444C4.01667 21.889 3.55 21.3334 3.72778 20.789Z" fill="#0165E1" /></svg>