<svg width="32" height="26" viewBox="0 0 32 26" fill="none" xmlns="http://www.w3.org/2000/svg">
 <path  d= "M26.6667 21.889V22.7779C26.6667 24.2507 25.4728 25.4446 24 25.4446H2.66667C1.19389 25.4446 0 24.2507 0 22.7779V8.55566C0 7.08289 1.19389 5.889 2.66667 5.889H3.55556V17.4446C3.55556 19.8952 5.54933 21.889 8 21.889H26.6667ZM32 17.4446V3.22233C32 1.74955 30.8061 0.555664 29.3333 0.555664H8C6.52722 0.555664 5.33333 1.74955 5.33333 3.22233V17.4446C5.33333 18.9173 6.52722 20.1112 8 20.1112H29.3333C30.8061 20.1112 32 18.9173 32 17.4446ZM14.2222 5.889C14.2222 7.36178 13.0283 8.55566 11.5556 8.55566C10.0828 8.55566 8.88889 7.36178 8.88889 5.889C8.88889 4.41622 10.0828 3.22233 11.5556 3.22233C13.0283 3.22233 14.2222 4.41622 14.2222 5.889ZM8.88889 13.889L11.9731 10.8048C12.2334 10.5445 12.6555 10.5445 12.9159 10.8048L15.1111 13.0001L22.6397 5.4715C22.9001 5.21116 23.3222 5.21116 23.5826 5.4715L28.4444 10.3334V16.5557H8.88889V13.889Z" fill="#0165E1" /></svg>