<svg width="32" height="22" viewBox="0 0 32 22" fill="none" xmlns="http://www.w3.org/2000/svg">
 <path  d= "M31.5521 10.3281L25.6806 1.5207C25.437 1.15543 25.1071 0.855933 24.72 0.648789C24.3329 0.441644 23.9007 0.333259 23.4617 0.333252H8.53828C8.09928 0.333253 7.66706 0.441637 7.28001 0.648782C6.89295 0.855927 6.56302 1.15543 6.3195 1.5207L0.447889 10.3281C0.155838 10.7662 -6.42957e-06 11.2808 1.9895e-10 11.8073L1.9895e-10 18.9999C1.9895e-10 20.4727 1.19389 21.6666 2.66667 21.6666H29.3333C30.8061 21.6666 32 20.4727 32 18.9999V11.8073C32 11.2808 31.8442 10.7662 31.5521 10.3281ZM9.014 3.88881H22.9861L27.7268 10.9999H20.8889L19.1111 14.5555H12.8889L11.1111 10.9999H4.27322L9.014 3.88881Z" fill="#0165E1" /></svg>