<svg width="32" height="32" viewBox="0 0 32 32" fill="none" xmlns="http://www.w3.org/2000/svg">
 <path  d= "M0.280762 3.92982V1.12281C0.280762 0.502667 0.783428 0 1.40357 0H30.5966C31.2167 0 31.7194 0.502667 31.7194 1.12281V3.92982C31.7194 4.54996 31.2167 5.05263 30.5966 5.05263H1.40357C0.783428 5.05263 0.280762 4.54996 0.280762 3.92982ZM12.6316 14.0351H30.5966C31.2167 14.0351 31.7194 13.5324 31.7194 12.9123V10.1053C31.7194 9.48512 31.2167 8.98246 30.5966 8.98246H12.6316C12.0115 8.98246 11.5088 9.48512 11.5088 10.1053V12.9123C11.5088 13.5324 12.0115 14.0351 12.6316 14.0351ZM1.40357 32H30.5966C31.2167 32 31.7194 31.4973 31.7194 30.8772V28.0702C31.7194 27.45 31.2167 26.9474 30.5966 26.9474H1.40357C0.783428 26.9474 0.280762 27.45 0.280762 28.0702V30.8772C0.280762 31.4973 0.783428 32 1.40357 32ZM12.6316 23.0175H30.5966C31.2167 23.0175 31.7194 22.5149 31.7194 21.8947V19.0877C31.7194 18.4676 31.2167 17.9649 30.5966 17.9649H12.6316C12.0115 17.9649 11.5088 18.4676 11.5088 19.0877V21.8947C11.5088 22.5149 12.0115 23.0175 12.6316 23.0175ZM8.93431 15.2061L2.19746 8.47039C1.49241 7.76505 0.280762 8.26498 0.280762 9.26428V22.7362C0.280762 23.7418 1.49655 24.2312 2.19746 23.5301L8.93431 16.7938C9.37283 16.3554 9.37283 15.6446 8.93431 15.2061Z" fill="#0165E1" /></svg>