<svg width="32" height="16" viewBox="0 0 32 16" fill="none" xmlns="http://www.w3.org/2000/svg">
 <path  d= "M23.555 0C20.25 0 17.665 2.065 16 3.93C14.335 2.065 11.75 0 8.445 0C3.79 0 0 3.59 0 8C0 12.41 3.79 16 8.445 16C11.75 16 14.335 13.935 16 12.07C17.665 13.935 20.25 16 23.555 16C28.21 16 32 12.41 32 8C32 3.59 28.21 0 23.555 0ZM8.445 11.2C6.435 11.2 4.8 9.765 4.8 8C4.8 6.235 6.435 4.8 8.445 4.8C10.355 4.8 12.115 6.605 13.145 8C12.125 9.38 10.35 11.2 8.445 11.2ZM23.555 11.2C21.645 11.2 19.885 9.395 18.855 8C19.875 6.62 21.65 4.8 23.555 4.8C25.565 4.8 27.2 6.235 27.2 8C27.2 9.765 25.565 11.2 23.555 11.2Z" fill="#0165E1" /></svg>