<svg width="32" height="32" viewBox="0 0 32 32" fill="none" xmlns="http://www.w3.org/2000/svg">
 <path  d= "M16 0C7.16406 0 0 7.16664 0 16C0 24.8385 7.16406 32 16 32C24.8359 32 32 24.8385 32 16C32 7.16664 24.8359 0 16 0ZM16 7.09677C17.4965 7.09677 18.7097 8.30994 18.7097 9.80645C18.7097 11.303 17.4965 12.5161 16 12.5161C14.5035 12.5161 13.2903 11.303 13.2903 9.80645C13.2903 8.30994 14.5035 7.09677 16 7.09677ZM19.6129 23.4839C19.6129 23.9114 19.2663 24.2581 18.8387 24.2581H13.1613C12.7337 24.2581 12.3871 23.9114 12.3871 23.4839V21.9355C12.3871 21.5079 12.7337 21.1613 13.1613 21.1613H13.9355V17.0323H13.1613C12.7337 17.0323 12.3871 16.6856 12.3871 16.2581V14.7097C12.3871 14.2821 12.7337 13.9355 13.1613 13.9355H17.2903C17.7179 13.9355 18.0645 14.2821 18.0645 14.7097V21.1613H18.8387C19.2663 21.1613 19.6129 21.5079 19.6129 21.9355V23.4839Z" fill="#0165E1" /></svg>