<svg width="20" height="32" viewBox="0 0 20 32" fill="none" xmlns="http://www.w3.org/2000/svg">
 <path  d= "M13.1969 27.4286H10.7791L15.2143 4.57143H18.1232C18.3883 4.57143 18.6452 4.47924 18.8498 4.31066C19.0545 4.14208 19.1941 3.90759 19.2449 3.64736L19.6908 1.36164C19.8284 0.656 19.288 0 18.569 0H7.15954C6.8944 1.27416e-06 6.63752 0.0921874 6.43288 0.260769C6.22824 0.429351 6.08858 0.66384 6.03782 0.924071L5.59197 3.20979C5.45432 3.91543 5.99468 4.57143 6.71368 4.57143H9.13125L4.69625 27.4286H1.87689C1.61178 27.4286 1.35491 27.5207 1.15027 27.6893C0.945637 27.8578 0.805967 28.0923 0.75518 28.3525L0.309109 30.6382C0.171466 31.3439 0.711823 32 1.43089 32H12.7508C13.0159 32 13.2728 31.9078 13.4774 31.7393C13.6821 31.5707 13.8218 31.3363 13.8725 31.0761L14.3186 28.7904C14.4563 28.0846 13.9159 27.4286 13.1969 27.4286Z" fill="#0165E1" /></svg>