<svg width="32" height="26" viewBox="0 0 32 26" fill="none" xmlns="http://www.w3.org/2000/svg">
 <path  d= "M22.217 9.25495C23.336 10.039 24 11.313 24 12.6845V14.2C24 14.421 24.179 14.6 24.4 14.6H26.8C27.021 14.6 27.2 14.421 27.2 14.2V12.6845C27.2 10.5225 26.1495 8.51395 24.383 7.28145C23.1925 6.45095 22.4 5.16695 22.4 3.71545V0.599951C22.4 0.378951 22.221 0.199951 22 0.199951H19.6C19.379 0.199951 19.2 0.378951 19.2 0.599951V3.91995C19.2 6.10445 20.428 8.00145 22.217 9.25495ZM9.7485 18.149C6.3015 18.7035 2.9845 19.9345 0 21.8C4.1825 24.414 9.015 25.8 13.947 25.8H18.3755L12.7395 19.2245C12.0025 18.3645 10.867 17.969 9.7485 18.149ZM27.664 4.55445C27.3805 4.36445 27.2 4.05645 27.2 3.71545V0.599951C27.2 0.378951 27.021 0.199951 26.8 0.199951H24.4C24.179 0.199951 24 0.378951 24 0.599951V3.71545C24 4.81645 24.5085 5.88595 25.432 6.48495C27.5395 7.85195 28.8 10.177 28.8 12.6845V14.2C28.8 14.421 28.979 14.6 29.2 14.6H31.6C31.821 14.6 32 14.421 32 14.2V12.6845C32 9.41245 30.3795 6.37495 27.664 4.55445ZM18.0445 17.8025C16.3245 17.8055 13.704 17.81 13.634 17.811L19.524 24.6825C19.8244 25.033 20.197 25.3143 20.6164 25.5072C21.0358 25.7001 21.4919 25.8 21.9535 25.8H26.376L20.4785 18.92C20.1777 18.5688 19.8043 18.287 19.3841 18.0941C18.9639 17.9012 18.5069 17.8017 18.0445 17.8025ZM30.8 17.8H21.6L27.4995 24.6825C27.7999 25.033 28.1725 25.3143 28.5919 25.5072C29.0113 25.7001 29.4674 25.8 29.929 25.8H30.8C31.4625 25.8 32 25.2625 32 24.6V19C32 18.337 31.4625 17.8 30.8 17.8Z" fill="#0165E1" /></svg>