<svg width="32" height="32" viewBox="0 0 32 32" fill="none" xmlns="http://www.w3.org/2000/svg">
 <path  d= "M32 11.0001C32 17.0752 27.0751 22 21 22C20.2987 22 19.6131 21.9336 18.9483 21.8082L17.4476 23.4966C17.3068 23.6549 17.1342 23.7816 16.9409 23.8684C16.7477 23.9551 16.5383 24 16.3264 24H14V26.5C14 27.3284 13.3284 28 12.5 28H10V30.5C10 31.3284 9.32844 32 8.5 32H1.5C0.671562 32 0 31.3284 0 30.5V25.6213C0 25.2235 0.158062 24.8419 0.439312 24.5606L10.5519 14.448C10.1942 13.3634 10 12.2044 10 11C10 4.92487 14.9248 6.25006e-05 20.9999 5.97036e-10C27.093 -6.24994e-05 32 4.90694 32 11.0001ZM21 8C21 9.65687 22.3431 11 24 11C25.6569 11 27 9.65687 27 8C27 6.34312 25.6569 5 24 5C22.3431 5 21 6.34312 21 8Z" fill="#0165E1" /></svg>