<svg width="32" height="22" viewBox="0 0 32 22" fill="none" xmlns="http://www.w3.org/2000/svg">
 <path  d= "M29.3333 21.6668H2.66667C1.19389 21.6668 0 20.4729 0 19.0002V3.00016C0 1.52738 1.19389 0.333496 2.66667 0.333496H29.3333C30.8061 0.333496 32 1.52738 32 3.00016V19.0002C32 20.4729 30.8061 21.6668 29.3333 21.6668ZM7.11111 6.77794V4.55572C7.11111 4.18755 6.81261 3.88905 6.44444 3.88905H4.22222C3.85406 3.88905 3.55556 4.18755 3.55556 4.55572V6.77794C3.55556 7.14611 3.85406 7.44461 4.22222 7.44461H6.44444C6.81261 7.44461 7.11111 7.14611 7.11111 6.77794ZM12.4444 6.77794V4.55572C12.4444 4.18755 12.1459 3.88905 11.7778 3.88905H9.55556C9.18739 3.88905 8.88889 4.18755 8.88889 4.55572V6.77794C8.88889 7.14611 9.18739 7.44461 9.55556 7.44461H11.7778C12.1459 7.44461 12.4444 7.14611 12.4444 6.77794ZM17.7778 6.77794V4.55572C17.7778 4.18755 17.4793 3.88905 17.1111 3.88905H14.8889C14.5207 3.88905 14.2222 4.18755 14.2222 4.55572V6.77794C14.2222 7.14611 14.5207 7.44461 14.8889 7.44461H17.1111C17.4793 7.44461 17.7778 7.14611 17.7778 6.77794ZM23.1111 6.77794V4.55572C23.1111 4.18755 22.8126 3.88905 22.4444 3.88905H20.2222C19.8541 3.88905 19.5556 4.18755 19.5556 4.55572V6.77794C19.5556 7.14611 19.8541 7.44461 20.2222 7.44461H22.4444C22.8126 7.44461 23.1111 7.14611 23.1111 6.77794ZM28.4444 6.77794V4.55572C28.4444 4.18755 28.1459 3.88905 27.7778 3.88905H25.5556C25.1874 3.88905 24.8889 4.18755 24.8889 4.55572V6.77794C24.8889 7.14611 25.1874 7.44461 25.5556 7.44461H27.7778C28.1459 7.44461 28.4444 7.14611 28.4444 6.77794ZM9.77778 12.1113V9.88905C9.77778 9.52089 9.47928 9.22239 9.11111 9.22239H6.88889C6.52072 9.22239 6.22222 9.52089 6.22222 9.88905V12.1113C6.22222 12.4794 6.52072 12.7779 6.88889 12.7779H9.11111C9.47928 12.7779 9.77778 12.4794 9.77778 12.1113ZM15.1111 12.1113V9.88905C15.1111 9.52089 14.8126 9.22239 14.4444 9.22239H12.2222C11.8541 9.22239 11.5556 9.52089 11.5556 9.88905V12.1113C11.5556 12.4794 11.8541 12.7779 12.2222 12.7779H14.4444C14.8126 12.7779 15.1111 12.4794 15.1111 12.1113ZM20.4444 12.1113V9.88905C20.4444 9.52089 20.1459 9.22239 19.7778 9.22239H17.5556C17.1874 9.22239 16.8889 9.52089 16.8889 9.88905V12.1113C16.8889 12.4794 17.1874 12.7779 17.5556 12.7779H19.7778C20.1459 12.7779 20.4444 12.4794 20.4444 12.1113ZM25.7778 12.1113V9.88905C25.7778 9.52089 25.4793 9.22239 25.1111 9.22239H22.8889C22.5207 9.22239 22.2222 9.52089 22.2222 9.88905V12.1113C22.2222 12.4794 22.5207 12.7779 22.8889 12.7779H25.1111C25.4793 12.7779 25.7778 12.4794 25.7778 12.1113ZM7.11111 17.4446V15.2224C7.11111 14.8542 6.81261 14.5557 6.44444 14.5557H4.22222C3.85406 14.5557 3.55556 14.8542 3.55556 15.2224V17.4446C3.55556 17.8128 3.85406 18.1113 4.22222 18.1113H6.44444C6.81261 18.1113 7.11111 17.8128 7.11111 17.4446ZM23.1111 17.4446V15.2224C23.1111 14.8542 22.8126 14.5557 22.4444 14.5557H9.55556C9.18739 14.5557 8.88889 14.8542 8.88889 15.2224V17.4446C8.88889 17.8128 9.18739 18.1113 9.55556 18.1113H22.4444C22.8126 18.1113 23.1111 17.8128 23.1111 17.4446ZM28.4444 17.4446V15.2224C28.4444 14.8542 28.1459 14.5557 27.7778 14.5557H25.5556C25.1874 14.5557 24.8889 14.8542 24.8889 15.2224V17.4446C24.8889 17.8128 25.1874 18.1113 25.5556 18.1113H27.7778C28.1459 18.1113 28.4444 17.8128 28.4444 17.4446Z" fill="#0165E1" /></svg>