<svg width="32" height="32" viewBox="0 0 32 32" fill="none" xmlns="http://www.w3.org/2000/svg">
 <path  d= "M31.8162 25.3018C31.3083 23.9811 29.8162 23.3018 28.4448 23.6573L27.9114 23.797L27.7654 23.2637C27.3908 21.9049 26.0511 20.9462 24.6542 21.1684C23.0542 21.4224 22.0764 22.9843 22.4955 24.5081L23.9495 29.7526C24.0447 30.0892 24.3939 30.2923 24.7368 30.2034L30.0067 28.8383C31.5369 28.4383 32.4004 26.8193 31.8162 25.3018ZM20.5399 25.0478C20.1843 23.7589 20.3939 22.3811 21.1113 21.2573C22.9971 18.3176 27.3781 18.3684 29.2257 21.5303C29.6321 21.5367 30.0257 21.6192 30.4067 21.7145C31.0988 19.943 31.4924 18.0192 31.4924 16.0001C31.4924 7.3016 24.4447 0.253906 15.7462 0.253906C7.0477 0.253906 0 7.3016 0 16.0001C0 24.6986 7.0477 31.7463 15.7462 31.7463C17.9938 31.7463 20.1209 31.2701 22.0574 30.4193C22.0383 30.3749 20.5399 25.0478 20.5399 25.0478ZM10.6668 14.9842C9.54296 14.9842 8.63501 14.0763 8.63501 12.9525C8.63501 11.8286 9.54296 10.9207 10.6668 10.9207C11.7906 10.9207 12.6986 11.8286 12.6986 12.9525C12.6986 14.0763 11.7906 14.9842 10.6668 14.9842ZM18.2859 24.8891C18.2859 26.1082 16.4637 27.524 13.7462 27.6828C13.2065 27.7336 12.9779 26.9336 13.5176 26.705L14.597 26.2478C15.4224 25.8986 15.9176 25.3907 15.9176 24.8827C15.9176 24.3748 15.4224 23.8669 14.597 23.5177L13.5176 23.0605C13.1367 22.9018 13.1557 22.2795 13.5176 22.1208L14.597 21.6637C15.4224 21.3145 15.9176 20.8065 15.9176 20.2986C15.9176 19.7906 15.4224 19.2827 14.597 18.9335L13.5176 18.4763C12.9589 18.2414 13.2255 17.4223 13.7462 17.4985C16.4637 17.6573 18.2859 19.0732 18.2859 20.2922C18.2859 21.1176 17.4351 22.0256 16.051 22.578C17.4351 23.1557 18.2859 24.0637 18.2859 24.8891ZM19.3018 13.5239C18.7748 13.9937 17.9304 13.5493 18.0446 12.8382C18.2986 11.2382 20.2161 10.1651 21.8479 10.1651C23.4796 10.1651 25.3971 11.2382 25.6511 12.8382C25.759 13.5429 24.9336 14.0001 24.3939 13.5239L23.7907 12.9842C22.851 12.1461 20.8574 12.1461 19.9177 12.9842L19.3018 13.5239Z" fill="#0165E1" /></svg>