<svg width="32" height="32" viewBox="0 0 32 32" fill="none" xmlns="http://www.w3.org/2000/svg">
 <path  d= "M16 0C7.16129 0 0 7.16129 0 16C0 24.8387 7.16129 32 16 32C24.8387 32 32 24.8387 32 16C32 7.16129 24.8387 0 16 0ZM10.8387 14.9677C9.69677 14.9677 8.77419 14.0452 8.77419 12.9032C8.77419 11.7613 9.69677 10.8387 10.8387 10.8387C11.9806 10.8387 12.9032 11.7613 12.9032 12.9032C12.9032 14.0452 11.9806 14.9677 10.8387 14.9677ZM19.6129 25.0323C19.6129 26.271 17.7613 27.7097 15 27.871C14.4516 27.9226 14.2194 27.1097 14.7677 26.8774L15.8645 26.4129C16.7032 26.0581 17.2065 25.5419 17.2065 25.0258C17.2065 24.5097 16.7032 23.9935 15.8645 23.6387L14.7677 23.1742C14.3806 23.0129 14.3742 22.3871 14.7677 22.2194L15.8645 21.7548C16.7032 21.4 17.2065 20.8839 17.2065 20.3677C17.2065 19.8516 16.7032 19.3355 15.8645 18.9806L14.7677 18.5161C14.2129 18.2839 14.4581 17.4516 15 17.5226C17.7613 17.6839 19.6129 19.1226 19.6129 20.3613C19.6129 21.2 18.7484 22.1226 17.3419 22.6839C18.7484 23.271 19.6129 24.1935 19.6129 25.0323ZM21.1613 14.9677C20.0194 14.9677 19.0968 14.0452 19.0968 12.9032C19.0968 11.7613 20.0194 10.8387 21.1613 10.8387C22.3032 10.8387 23.2258 11.7613 23.2258 12.9032C23.2258 14.0452 22.3032 14.9677 21.1613 14.9677Z" fill="#0165E1" /></svg>