<svg width="32" height="32" viewBox="0 0 32 32" fill="none" xmlns="http://www.w3.org/2000/svg">
 <path  d= "M16 0C7.16129 0 0 7.16129 0 16C0 24.8387 7.16129 32 16 32C24.8387 32 32 24.8387 32 16C32 7.16129 24.8387 0 16 0ZM13.4839 14.1871L12.871 13.0903C12.3742 12.2065 11.6323 11.6968 10.8387 11.6968C10.0452 11.6968 9.30323 12.2065 8.80645 13.0903L8.19355 14.1871C7.92258 14.6645 7.1871 14.4452 7.23226 13.8968C7.44516 11.1806 9.30968 9.29032 10.8452 9.29032C12.3806 9.29032 14.2452 11.1806 14.4581 13.8968C14.4903 14.4452 13.7548 14.671 13.4839 14.1871ZM19.6129 25.0323C19.6129 26.271 17.7613 27.7097 15 27.871C14.4516 27.9226 14.2194 27.1097 14.7677 26.8774L15.8645 26.4129C16.7032 26.0581 17.2065 25.5419 17.2065 25.0258C17.2065 24.5097 16.7032 23.9935 15.8645 23.6387L14.7677 23.1742C14.3806 23.0129 14.3742 22.3871 14.7677 22.2194L15.8645 21.7548C16.7032 21.4 17.2065 20.8839 17.2065 20.3677C17.2065 19.8516 16.7032 19.3355 15.8645 18.9806L14.7677 18.5161C14.2129 18.2839 14.4581 17.4516 15 17.5226C17.7613 17.6839 19.6129 19.1226 19.6129 20.3613C19.6129 21.2 18.7484 22.1226 17.3419 22.6839C18.7484 23.271 19.6129 24.1935 19.6129 25.0323ZM23.8065 14.1871L23.1935 13.0903C22.6968 12.2065 21.9548 11.6968 21.1613 11.6968C20.3677 11.6968 19.6258 12.2065 19.129 13.0903L18.5161 14.1871C18.2516 14.6581 17.5097 14.4452 17.5548 13.8968C17.7677 11.1806 19.6323 9.29032 21.1677 9.29032C22.7032 9.29032 24.5677 11.1806 24.7806 13.8968C24.8129 14.4452 24.0774 14.671 23.8065 14.1871Z" fill="#0165E1" /></svg>