<svg width="32" height="26" viewBox="0 0 32 26" fill="none" xmlns="http://www.w3.org/2000/svg">
 <path  d= "M31.9893 10.8876C31.8132 7.52258 28.7932 4.99981 25.4238 4.99981H24.9032C21.9688 4.99981 19.1116 4.09704 16.6955 2.43094C14.3627 0.822054 11.3599 0.118724 8.18385 0.836498C7.1833 1.06205 -0.00444236 3.12427 2.06022e-06 11.222C0.00222427 15.1637 2.14888 18.5997 5.33276 20.4447V24.5553C5.33276 25.0464 5.73053 25.4442 6.22164 25.4442H7.11052C7.60163 25.4442 7.99941 25.0464 7.99941 24.5553V21.5408C8.85274 21.7608 9.74384 21.8886 10.6661 21.8886C10.9683 21.8886 11.2594 21.8481 11.5549 21.8231V24.5553C11.5549 25.0464 11.9527 25.4442 12.4438 25.4442H13.3327C13.8238 25.4442 14.2216 25.0464 14.2216 24.5553V21.2536C15.0127 20.9725 15.7705 20.6208 16.4627 20.1697C19.0038 18.5136 21.881 17.4442 24.9143 17.4442C26.3299 17.4442 25.8038 17.427 26.1949 17.4009L30.3288 24.9808C30.4876 25.2714 30.7899 25.4442 31.1093 25.4442C31.1821 25.4442 31.256 25.4353 31.3287 25.4164C31.7226 25.3164 31.9982 24.9614 31.9982 24.5553C31.9982 24.5553 32.006 11.2087 31.9893 10.8876ZM25.776 12.5553C25.0399 12.5553 24.4427 11.9581 24.4427 11.222C24.4427 10.4853 25.0399 9.88868 25.776 9.88868C26.5121 9.88868 27.1093 10.4853 27.1093 11.222C27.1093 11.9581 26.5121 12.5553 25.776 12.5553ZM30.2204 21.0692L28.006 17.0092C28.846 16.6853 29.6021 16.1981 30.2204 15.5659V21.0692Z" fill="#0165E1" /></svg>