<svg width="32" height="16" viewBox="0 0 32 16" fill="none" xmlns="http://www.w3.org/2000/svg">
 <path  d= "M15.2 16H1.2C0.53725 16 0 15.4628 0 14.8V1.2C0 0.53725 0.53725 0 1.2 0H15.2V16ZM9.1662 12.3689C9.2027 12.4933 9.27852 12.6026 9.38232 12.6803C9.48611 12.758 9.61229 12.8 9.74195 12.8H10.8851C11.2961 12.8 11.5855 12.3961 11.4532 12.007L8.5805 3.55425C8.54017 3.43558 8.4637 3.33252 8.36181 3.25953C8.25992 3.18655 8.13773 3.1473 8.0124 3.1473H6.38795C6.26262 3.14731 6.14043 3.18656 6.03855 3.25954C5.93666 3.33253 5.86018 3.43559 5.81985 3.55425L2.9471 12.007C2.81485 12.3961 3.1042 12.8 3.5152 12.8H4.65545C4.78574 12.8 4.91249 12.7576 5.01654 12.6792C5.12059 12.6007 5.19629 12.4906 5.2322 12.3654L5.6881 10.775H8.69865L9.1662 12.3689ZM7.21365 5.3479C7.21365 5.3479 7.42965 6.40095 7.60515 7.0084L8.14515 8.88495H6.24165L6.79515 7.0084C6.97065 6.4009 7.18665 5.3479 7.18665 5.3479H7.21365ZM30.8 16H16.8V0H30.8C31.4627 0 32 0.53725 32 1.2V14.8C32 15.4628 31.4627 16 30.8 16ZM29 4.6H25.8V3.8C25.8 3.46865 25.5313 3.2 25.2 3.2H24.4C24.0686 3.2 23.8 3.46865 23.8 3.8V4.6H20.6C20.2687 4.6 20 4.86865 20 5.2V6C20 6.33135 20.2687 6.6 20.6 6.6H26.3053C25.9922 7.31495 25.4794 8.0486 24.8041 8.7603C24.4762 8.4154 24.1843 8.0648 23.9359 7.71365C23.754 7.45645 23.4067 7.3799 23.1362 7.54135L22.7722 7.75865L22.4473 7.9526C22.1495 8.1304 22.0626 8.52365 22.2605 8.80845C22.5637 9.2449 22.9154 9.67525 23.3097 10.0947C22.9036 10.406 22.4676 10.707 22.0046 10.993C21.7285 11.1635 21.6355 11.5208 21.7964 11.8025L22.1935 12.4973C22.3616 12.7914 22.7402 12.8886 23.0288 12.7111C23.6654 12.3195 24.2574 11.9023 24.801 11.4665C25.3468 11.9045 25.9392 12.3216 26.5707 12.7106C26.8594 12.8883 27.2384 12.7915 27.4066 12.4971L27.8038 11.8019C27.9644 11.5208 27.8723 11.1639 27.597 10.9934C27.1478 10.7152 26.7129 10.4145 26.294 10.0924C27.3452 8.97115 28.0824 7.77795 28.4297 6.5999H29C29.3314 6.5999 29.6 6.33125 29.6 5.9999V5.1999C29.6 4.86865 29.3314 4.6 29 4.6Z" fill="#0165E1" /></svg>