<svg width="32" height="26" viewBox="0 0 32 26" fill="none" xmlns="http://www.w3.org/2000/svg">
 <path  d= "M25.6 3.39995V16.2H6.4V3.39995H25.6ZM26.4 0.199951H5.6C4.275 0.199951 3.2 1.27495 3.2 2.59995V17C3.2 18.325 4.275 19.4 5.6 19.4H26.4C27.725 19.4 28.8 18.325 28.8 17V2.59995C28.8 1.27495 27.725 0.199951 26.4 0.199951ZM31.4 21H19.475C19.325 21 19.2 21.105 19.18 21.255C19.06 22.015 18.4 22.6 17.6 22.6H14.4C13.6 22.6 12.94 22.015 12.82 21.255C12.795 21.11 12.67 21 12.525 21H0.6C0.27 21 0 21.27 0 21.6V23.4C0 24.725 1.075 25.8 2.4 25.8H29.6C30.925 25.8 32 24.725 32 23.4V21.6C32 21.27 31.73 21 31.4 21Z" fill="#0165E1" /></svg>