<svg width="32" height="32" viewBox="0 0 32 32" fill="none" xmlns="http://www.w3.org/2000/svg">
 <path  d= "M16 0C7.16129 0 0 7.16129 0 16C0 24.8387 7.16129 32 16 32C24.8387 32 32 24.8387 32 16C32 7.16129 24.8387 0 16 0ZM17.2968 12.7806C17.5548 11.1548 19.5032 10.0645 21.1613 10.0645C22.8194 10.0645 24.7677 11.1548 25.0258 12.7806C25.1355 13.4968 24.2903 13.9613 23.7484 13.4774L23.1355 12.929C22.1806 12.0774 20.1548 12.0774 19.2 12.929L18.5806 13.4839C18.0387 13.9613 17.1871 13.5032 17.2968 12.7806ZM10.8387 9.80645C11.9806 9.80645 12.9032 10.729 12.9032 11.871C12.9032 13.0129 11.9806 13.9355 10.8387 13.9355C9.69677 13.9355 8.77419 13.0129 8.77419 11.871C8.77419 10.729 9.69677 9.80645 10.8387 9.80645ZM25.7355 19.2258C25.1613 23.8065 21.2516 27.3548 16.5161 27.3548H15.4839C10.7484 27.3548 6.83871 23.8065 6.26452 19.2258C6.1871 18.6129 6.67097 18.0645 7.29032 18.0645H24.7097C25.329 18.0645 25.8129 18.6065 25.7355 19.2258Z" fill="#0165E1" /></svg>