<svg width="32" height="32" viewBox="0 0 32 32" fill="none" xmlns="http://www.w3.org/2000/svg">
 <path  d= "M16 0C7.16129 0 0 7.16129 0 16C0 24.8387 7.16129 32 16 32C24.8387 32 32 24.8387 32 16C32 7.16129 24.8387 0 16 0ZM17.5484 12.8645C17.7613 10.1484 19.6258 8.25806 21.1613 8.25806C22.6968 8.25806 24.5613 10.1484 24.7742 12.8645C24.8194 13.4194 24.0774 13.6323 23.8129 13.1548L23.2 12.0581C22.7032 11.1742 21.9613 10.6645 21.1677 10.6645C20.3742 10.6645 19.6323 11.1742 19.1355 12.0581L18.5226 13.1548C18.2516 13.6323 17.5032 13.4194 17.5484 12.8645ZM7.22581 12.8645C7.43871 10.1484 9.30323 8.25806 10.8387 8.25806C12.3742 8.25806 14.2387 10.1484 14.4516 12.8645C14.4968 13.4194 13.7548 13.6323 13.4903 13.1548L12.8774 12.0581C12.3806 11.1742 11.6387 10.6645 10.8452 10.6645C10.0516 10.6645 9.30968 11.1742 8.8129 12.0581L8.2 13.1548C7.92258 13.6323 7.18064 13.4129 7.22581 12.8645ZM25.7355 19.2258C25.1613 23.8065 21.2516 27.3548 16.5161 27.3548H15.4839C10.7484 27.3548 6.83871 23.8065 6.26452 19.2258C6.1871 18.6129 6.67097 18.0645 7.29032 18.0645H24.7097C25.329 18.0645 25.8129 18.6065 25.7355 19.2258Z" fill="#0165E1" /></svg>