<svg width="32" height="32" viewBox="0 0 32 32" fill="none" xmlns="http://www.w3.org/2000/svg">
 <path  d= "M16 0C7.16129 0 0 7.16129 0 16C0 24.8387 7.16129 32 16 32C24.8387 32 32 24.8387 32 16C32 7.16129 24.8387 0 16 0ZM18.1806 10.4323L23.3419 7.33548C24.0903 6.89032 24.8903 7.83226 24.3355 8.49677L22.1677 11.0968L24.3355 13.6968C24.8968 14.3677 24.0839 15.2968 23.3419 14.8581L18.1806 11.7613C17.6839 11.4581 17.6839 10.7355 18.1806 10.4323ZM7.66452 8.49677C7.10968 7.83226 7.90968 6.89032 8.65806 7.33548L13.8194 10.4323C14.3226 10.7355 14.3226 11.4581 13.8194 11.7613L8.65806 14.8581C7.91613 15.2968 7.10968 14.3677 7.66452 13.6968L9.83226 11.0968L7.66452 8.49677ZM25.7355 19.2258C25.1613 23.8065 21.2516 27.3548 16.5161 27.3548H15.4839C10.7484 27.3548 6.83871 23.8065 6.26452 19.2258C6.1871 18.6129 6.67097 18.0645 7.29032 18.0645H24.7097C25.329 18.0645 25.8129 18.6065 25.7355 19.2258Z" fill="#0165E1" /></svg>