<svg width="32" height="30" viewBox="0 0 32 30" fill="none" xmlns="http://www.w3.org/2000/svg">
 <path  d= "M30.3443 1.31467C30.0331 0.620158 29.1442 0.592377 28.7719 1.248C27.0495 4.24272 23.9659 6.10957 20.4433 6.10957H15.9985C10.109 6.10957 5.3308 10.8878 5.3308 16.7772C5.3308 17.1662 5.37525 17.5384 5.41414 17.9162C8.95892 15.3771 14.0761 13.2214 21.3323 13.2214C21.8213 13.2214 22.2213 13.6214 22.2213 14.1103C22.2213 14.5993 21.8213 14.9993 21.3323 14.9993C7.36433 14.9993 1.44154 23.5612 0.130306 26.7782C-0.236395 27.6838 0.196979 28.7173 1.10262 29.0895C2.01382 29.4673 3.04725 29.0284 3.42506 28.1283C3.5084 27.9283 4.58628 25.467 7.41989 23.0945C9.22006 25.5336 12.6426 27.8616 17.1375 27.3838C25.8605 26.7504 32 18.9275 32 9.34876C32 6.55961 31.3999 3.67045 30.3443 1.31467Z" fill="#0165E1" /></svg>