<svg width="32" height="32" viewBox="0 0 32 32" fill="none" xmlns="http://www.w3.org/2000/svg">
 <path  d= "M30.5648 1.43518C29.1215 -0.00812875 27.1655 -0.370628 25.8717 0.383058C22.19 2.52756 14.5436 -2.93425 5.80463 5.80468C-2.9343 14.5436 2.52757 22.19 0.383075 25.8715C-0.370611 27.1654 -0.00817453 29.1215 1.43514 30.5648C2.87857 32.0083 4.83463 32.3705 6.12857 31.6168C9.80988 29.4725 17.4564 34.9343 26.1953 26.1954C34.9342 17.4565 29.4725 9.80998 31.6169 6.12849C32.3706 4.83461 32.0082 2.87856 30.5648 1.43518ZM15.2426 5.97011C11.6057 6.8793 6.87957 11.6048 5.97019 15.2425C5.85663 15.6969 5.44882 16.0002 5.00076 16.0002C4.92051 16.0002 4.83888 15.9905 4.75744 15.9702C4.22169 15.8362 3.89595 15.2933 4.02982 14.7575C5.11882 10.4017 10.3947 5.12061 14.7574 4.02987C15.2934 3.89593 15.8362 4.22168 15.9701 4.75749C16.104 5.2933 15.7783 5.83618 15.2426 5.97011Z" fill="#0165E1" /></svg>