<svg width="32" height="32" viewBox="0 0 32 32" fill="none" xmlns="http://www.w3.org/2000/svg">
 <path  d= "M30.4547 24.4786L12.2532 15.9912L30.4589 7.50128C31.7938 6.87879 32.3713 5.29214 31.7488 3.95715L30.6222 1.54051C29.9997 0.205525 28.413 -0.37197 27.0781 0.250524L1.53998 12.1596C1.07999 12.3742 0.690753 12.7155 0.417975 13.1436C0.145198 13.5716 0.000198722 14.0686 0 14.5762L0 17.4295C0 18.4662 0.600827 19.4087 1.53998 19.8462L27.0656 31.7485C28.4039 32.3727 29.9947 31.7935 30.6188 30.4552L31.7488 28.0319C32.373 26.6936 31.7938 25.1028 30.4547 24.4786Z" fill="#0165E1" /></svg>