<svg width="30" height="32" viewBox="0 0 30 32" fill="none" xmlns="http://www.w3.org/2000/svg">
 <path  d= "M3.73181 13.2129L23.8262 21.2044C25.0523 21.6065 26.4069 21.0351 26.8516 19.9278L27.6576 17.9224C28.103 16.815 27.4696 15.591 26.2436 15.189L14.5474 10.6522L26.2516 6.1128C27.471 5.71279 28.101 4.49477 27.6583 3.39341L26.8563 1.3987C26.4136 0.296681 25.0656 -0.271998 23.8462 0.12801L3.73181 8.12551C2.8138 8.42685 2.19978 9.23286 2.19978 10.1376V11.2016C2.19978 12.1056 2.8138 12.9116 3.73181 13.2129ZM28.3337 25.5999H1.66644C0.783088 25.5999 0.0664062 26.3159 0.0664062 27.1999V30.4C0.0664062 31.2833 0.783088 32 1.66644 32H28.3337C29.217 32 29.9337 31.2833 29.9337 30.4V27.1999C29.9337 26.3159 29.217 25.5999 28.3337 25.5999Z" fill="#0165E1" /></svg>