<svg width="32" height="32" viewBox="0 0 32 32" fill="none" xmlns="http://www.w3.org/2000/svg">
 <path  d= "M16 0C7.16342 0 0 7.16342 0 16C0 24.8366 7.16342 32 16 32C24.8366 32 32 24.8366 32 16C32 7.16342 24.8366 0 16 0ZM27.2062 7.71348L23.1159 11.8037C22.4071 10.6064 21.3953 9.59394 20.1963 8.88406L24.2865 4.79381C25.3978 5.61838 26.3816 6.60216 27.2062 7.71348ZM16 22.1935C12.5794 22.1935 9.80645 19.4206 9.80645 16C9.80645 12.5794 12.5794 9.80645 16 9.80645C19.4206 9.80645 22.1935 12.5794 22.1935 16C22.1935 19.4206 19.4206 22.1935 16 22.1935ZM7.71348 4.79381L11.8037 8.88406C10.6064 9.5929 9.59394 10.6047 8.88406 11.8037L4.79381 7.71348C5.61836 6.60215 6.60215 5.61836 7.71348 4.79381ZM4.79381 24.2865L8.88406 20.1963C9.5929 21.3936 10.6047 22.4061 11.8037 23.1159L7.71348 27.2062C6.60216 26.3816 5.61838 25.3978 4.79381 24.2865ZM24.2865 27.2062L20.1963 23.1159C21.3936 22.4071 22.4061 21.3953 23.1159 20.1963L27.2062 24.2865C26.3816 25.3978 25.3978 26.3816 24.2865 27.2062Z" fill="#0165E1" /></svg>