<svg width="22" height="32" viewBox="0 0 22 32" fill="none" xmlns="http://www.w3.org/2000/svg">
 <path  d= "M16 26.75V28.5C16 29.1531 15.5825 29.7084 15 29.9143V30.5C15 31.3284 14.3284 32 13.5 32H8.5C7.67156 32 7 31.3284 7 30.5V29.9143C6.4175 29.7084 6 29.1531 6 28.5V26.75C6 26.3358 6.33581 26 6.75 26H15.25C15.6642 26 16 26.3358 16 26.75ZM7.05581 24C6.43663 24 5.87919 23.6201 5.65731 23.0421C3.23106 16.7213 0 17.3582 0 11C0 4.92519 4.92531 0 11 0C17.0747 0 22 4.92519 22 11C22 17.3582 18.7689 16.7213 16.3428 23.0421C16.1209 23.6201 15.5634 24 14.9443 24H7.05581ZM6 11C6 8.243 8.243 6 11 6C11.5523 6 12 5.55225 12 5C12 4.44775 11.5523 4 11 4C7.14019 4 4 7.14019 4 11C4 11.5522 4.44775 12 5 12C5.55225 12 6 11.5522 6 11Z" fill="#0165E1" /></svg>