<svg width="28" height="32" viewBox="0 0 28 32" fill="none" xmlns="http://www.w3.org/2000/svg">
 <path  d= "M26.8568 16H23.4268C22.9743 16 22.5715 16.3509 22.5715 16.8033C22.5715 24 16.7271 27.4286 10.5715 27.4286V16.0558L20.186 13.9192C20.3764 13.8769 20.5466 13.771 20.6686 13.6188C20.7907 13.4667 20.8572 13.2775 20.8572 13.0825V10.1556C20.8572 9.60729 20.3494 9.19993 19.8141 9.31893L10.5715 11.3728V9.19857L20.186 7.062C20.3764 7.0197 20.5466 6.91374 20.6686 6.76162C20.7907 6.60949 20.8572 6.42031 20.8572 6.22529V3.2985C20.8572 2.75014 20.3494 2.34279 19.8141 2.46179L10.5715 4.51564V0.857143C10.5715 0.383786 10.1877 0 9.71434 0H5.71434C5.24098 0 4.8572 0.383786 4.8572 0.857143V5.7855L0.956981 6.65221C0.766604 6.69452 0.596345 6.80048 0.474312 6.9526C0.35228 7.10472 0.285771 7.29391 0.285767 7.48893L0.285767 10.4158C0.285767 10.9641 0.793552 11.3715 1.32884 11.2525L4.8572 10.4684V12.6426L0.956981 13.5094C0.766604 13.5517 0.596345 13.6576 0.474312 13.8097C0.35228 13.9619 0.285771 14.1511 0.285767 14.3461L0.285767 17.2729C0.285767 17.8213 0.793552 18.2286 1.32884 18.1096L4.8572 17.3256V31.1429C4.8572 31.6162 5.24098 32 5.71434 32H11.3988C20.9768 32 27.3456 26.4404 27.7137 16.8863C27.7323 16.4019 27.3415 16 26.8568 16Z" fill="#0165E1" /></svg>