<svg width="32" height="30" viewBox="0 0 32 30" fill="none" xmlns="http://www.w3.org/2000/svg">
 <path  d= "M0.0660978 7.68902C0.0660978 7.21969 0.311972 6.96264 0.792546 6.96264H1.74233V4.45952C1.74233 4.13544 1.77585 3.80024 1.77585 3.80024H1.75351C1.75351 3.80024 1.64184 3.96784 1.57473 4.03488C1.29534 4.3031 0.915389 4.31427 0.591365 3.96784L0.244995 3.57671C-0.0903274 3.24145 -0.0678554 2.87267 0.278515 2.54859L1.6419 1.29706C1.9211 1.04001 2.16698 0.939453 2.54693 0.939453H3.30677C3.78735 0.939453 4.04427 1.18526 4.04427 1.66584V6.9627H5.01647C5.49698 6.9627 5.74285 7.21969 5.74285 7.68909V8.24781C5.74285 8.71715 5.49698 8.9742 5.01647 8.9742H0.792546C0.311972 8.9742 0.0660978 8.71715 0.0660978 8.24781V7.68902ZM6.27688e-05 18.0502C6.27688e-05 15.0826 3.19856 14.511 3.19856 13.7087C3.19856 13.258 2.82482 13.1591 2.61604 13.1591C2.41813 13.1591 2.20935 13.2251 2.02254 13.4009C1.70373 13.7087 1.36301 13.8406 1.01124 13.5548L0.472728 13.1261C0.109975 12.8403 0.0220326 12.5106 0.296781 12.1589C0.714459 11.6093 1.49489 10.9828 2.8358 10.9828C4.05588 10.9828 5.6276 11.6423 5.6276 13.4668C5.6276 15.8739 2.69287 16.3795 2.57198 17.0391H5.02312C5.49572 17.0391 5.74856 17.2918 5.74856 17.7535V18.3031C5.74856 18.7647 5.49572 19.0175 5.02312 19.0175H0.758461C0.318751 19.0175 2.39452e-09 18.7647 2.39452e-09 18.3031V18.0502H6.27688e-05ZM0.216183 27.4671L0.567889 26.8846C0.809745 26.4669 1.13942 26.4449 1.54611 26.6867C1.85388 26.8186 2.1506 26.8846 2.44744 26.8846C3.08488 26.8846 3.3487 26.6647 3.3487 26.368C3.3487 25.9503 2.99694 25.7964 2.34851 25.7964H2.05173C1.67799 25.7964 1.46922 25.6645 1.28228 25.3017L1.21638 25.1808C1.06252 24.8841 1.13942 24.5653 1.3922 24.2466L1.74397 23.8069C2.17263 23.2793 2.51335 22.9606 2.51335 22.9606V22.9386C2.51335 22.9386 2.24952 23.0046 1.72193 23.0046H0.908609C0.435944 23.0046 0.194088 22.7517 0.194088 22.2901V21.7406C0.194088 21.2679 0.435944 21.0261 0.908609 21.0261H4.57971C5.05231 21.0261 5.29416 21.2789 5.29416 21.7406V21.9494C5.29416 22.3121 5.20622 22.5649 4.97535 22.8397L3.87629 24.1037C5.1073 24.4224 5.67882 25.3897 5.67882 26.2909C5.67882 27.6319 4.77756 29.0608 2.63425 29.0608C1.58999 29.0608 0.864607 28.764 0.38102 28.4673C0.0182663 28.2035 -0.0146884 27.8518 0.216183 27.4671ZM8.90029 7.21655H30.9957C31.5504 7.21655 32 6.76692 32 6.21221V3.70137C32 3.14667 31.5504 2.69704 30.9957 2.69704H8.90029C8.34558 2.69704 7.89596 3.14667 7.89596 3.70137V6.21221C7.89596 6.76692 8.34558 7.21655 8.90029 7.21655ZM8.90029 17.2599H30.9957C31.5504 17.2599 32 16.8103 32 16.2556V13.7447C32 13.19 31.5504 12.7404 30.9957 12.7404H8.90029C8.34558 12.7404 7.89596 13.19 7.89596 13.7447V16.2556C7.89596 16.8103 8.34558 17.2599 8.90029 17.2599ZM8.90029 27.3032H30.9957C31.5504 27.3032 32 26.8536 32 26.2989V23.7881C32 23.2334 31.5504 22.7837 30.9957 22.7837H8.90029C8.34558 22.7837 7.89596 23.2334 7.89596 23.7881V26.2989C7.89596 26.8536 8.34558 27.3032 8.90029 27.3032Z" fill="#0165E1" /></svg>