<svg width="32" height="26" viewBox="0 0 32 26" fill="none" xmlns="http://www.w3.org/2000/svg">
 <path  d= "M6 3C6 4.65688 4.65688 6 3 6C1.34312 6 0 4.65688 0 3C0 1.34312 1.34312 0 3 0C4.65688 0 6 1.34312 6 3ZM3 10C1.34312 10 0 11.3431 0 13C0 14.6569 1.34312 16 3 16C4.65688 16 6 14.6569 6 13C6 11.3431 4.65688 10 3 10ZM3 20C1.34312 20 0 21.3431 0 23C0 24.6569 1.34312 26 3 26C4.65688 26 6 24.6569 6 23C6 21.3431 4.65688 20 3 20ZM9 5.25H31C31.5523 5.25 32 4.80231 32 4.25V1.75C32 1.19769 31.5523 0.75 31 0.75H9C8.44769 0.75 8 1.19769 8 1.75V4.25C8 4.80231 8.44769 5.25 9 5.25ZM9 15.25H31C31.5523 15.25 32 14.8023 32 14.25V11.75C32 11.1977 31.5523 10.75 31 10.75H9C8.44769 10.75 8 11.1977 8 11.75V14.25C8 14.8023 8.44769 15.25 9 15.25ZM9 25.25H31C31.5523 25.25 32 24.8023 32 24.25V21.75C32 21.1977 31.5523 20.75 31 20.75H9C8.44769 20.75 8 21.1977 8 21.75V24.25C8 24.8023 8.44769 25.25 9 25.25Z" fill="#0165E1" /></svg>