<svg width="32" height="26" viewBox="0 0 32 26" fill="none" xmlns="http://www.w3.org/2000/svg">
 <path  d= "M8 4.25V1.75C8 1.19769 8.44769 0.75 9 0.75H31C31.5523 0.75 32 1.19769 32 1.75V4.25C32 4.80231 31.5523 5.25 31 5.25H9C8.44769 5.25 8 4.80231 8 4.25ZM9 15.25H31C31.5523 15.25 32 14.8023 32 14.25V11.75C32 11.1977 31.5523 10.75 31 10.75H9C8.44769 10.75 8 11.1977 8 11.75V14.25C8 14.8023 8.44769 15.25 9 15.25ZM9 25.25H31C31.5523 25.25 32 24.8023 32 24.25V21.75C32 21.1977 31.5523 20.75 31 20.75H9C8.44769 20.75 8 21.1977 8 21.75V24.25C8 24.8023 8.44769 25.25 9 25.25ZM1 6H5C5.55231 6 6 5.55231 6 5V1C6 0.447688 5.55231 0 5 0H1C0.447688 0 0 0.447688 0 1V5C0 5.55231 0.447688 6 1 6ZM1 16H5C5.55231 16 6 15.5523 6 15V11C6 10.4477 5.55231 10 5 10H1C0.447688 10 0 10.4477 0 11V15C0 15.5523 0.447688 16 1 16ZM1 26H5C5.55231 26 6 25.5523 6 25V21C6 20.4477 5.55231 20 5 20H1C0.447688 20 0 20.4477 0 21V25C0 25.5523 0.447688 26 1 26Z" fill="#0165E1" /></svg>