<svg width="32" height="30" viewBox="0 0 32 30" fill="none" xmlns="http://www.w3.org/2000/svg">
 <path  d= "M23.5278 0.777887C18.8611 0.794553 15.1111 4.639 15.1111 9.30567V13.2223H2.66667C1.19444 13.2223 0 14.4168 0 15.889V26.5557C0 28.0279 1.19444 29.2223 2.66667 29.2223H22.2222C23.6944 29.2223 24.8889 28.0279 24.8889 26.5557V15.889C24.8889 14.4168 23.6944 13.2223 22.2222 13.2223H19.5556V9.27233C19.5556 7.07233 21.3167 5.24455 23.5167 5.22233C25.7389 5.20011 27.5556 7.00566 27.5556 9.22233V13.6668C27.5556 14.4057 28.15 15.0001 28.8889 15.0001H30.6667C31.4056 15.0001 32 14.4057 32 13.6668V9.22233C32 4.55566 28.1944 0.76122 23.5278 0.777887Z" fill="#0165E1" /></svg>