<svg width="32" height="30" viewBox="0 0 32 30" fill="none" xmlns="http://www.w3.org/2000/svg">
 <path  d= "M31.6302 13.6462C28.4978 8.33051 22.6561 4.77779 16 4.77779C14.4185 4.77779 12.8832 4.97884 11.4194 5.35607L8.48769 1.34668C8.06542 0.743458 7.23414 0.596681 6.63086 1.0189L5.90231 1.52879C5.29897 1.95107 5.1522 2.78246 5.57453 3.38579L7.97069 6.62995C4.96942 8.09612 2.23492 10.4824 0.371254 13.6434C0.370699 13.6443 0.369977 13.6452 0.369366 13.6462C-0.117579 14.4726 -0.128634 15.5088 0.369366 16.3539C2.50825 19.9834 5.91058 22.7907 9.97264 24.2066L3.07314 14.3501C3.54023 13.6422 4.06604 12.9748 4.64503 12.355L11.2784 21.8317H11.2789L13.5361 25.0561C14.9901 25.2532 16.4625 25.275 17.9217 25.1211L7.36725 10.0433C8.05223 9.58719 8.77262 9.1866 9.52153 8.8454L23.5124 28.6534C23.9347 29.2566 24.766 29.4033 25.3692 28.9812L26.0978 28.4713C26.7011 28.049 26.8479 27.2176 26.4256 26.6143L24.03 23.3711L24.0296 23.3706C27.2052 21.8163 29.8538 19.3684 31.6302 16.3539C31.8723 15.9438 32 15.4763 32 15C32 14.5238 31.8723 14.0563 31.6302 13.6462ZM21.6681 19.9967L20.6089 18.4839C21.9801 16.6746 22.1484 14.2421 21.0978 12.2795V12.2811C21.0978 13.595 20.0328 14.66 18.7189 14.66C17.3951 14.66 16.34 13.5851 16.34 12.2811C16.34 10.9672 17.405 9.90223 18.7189 9.90223H18.7206C17.3456 9.16618 15.7471 9.03318 14.3034 9.47556L13.244 7.9624C14.0977 7.62812 15.0271 7.44445 16 7.44445C20.1757 7.44445 23.5556 10.8237 23.5556 15C23.5556 16.9169 22.8426 18.6653 21.6681 19.9967Z" fill="#0165E1" /></svg>