<svg width="32" height="26" viewBox="0 0 32 26" fill="none" xmlns="http://www.w3.org/2000/svg">
 <path  d= "M11.2 16.2H12.8V4.99995H11.2C10.3165 4.99995 9.6 5.71645 9.6 6.59995V14.6C9.6 15.4835 10.3165 16.2 11.2 16.2ZM28.8 14.6V6.59995C28.8 5.71645 28.0835 4.99995 27.2 4.99995H25.6V16.2H27.2C28.0835 16.2 28.8 15.4835 28.8 14.6ZM31.2 19.4H6.4V0.999951C6.4 0.557951 6.042 0.199951 5.6 0.199951H0.8C0.358 0.199951 0 0.557951 0 0.999951V2.59995C0 3.04195 0.358 3.39995 0.8 3.39995H3.2V21.8C3.2 22.242 3.558 22.6 4 22.6H8.147C8.0575 22.8515 8 23.118 8 23.4C8 24.7255 9.0745 25.8 10.4 25.8C11.7255 25.8 12.8 24.7255 12.8 23.4C12.8 23.118 12.7425 22.8515 12.653 22.6H22.547C22.4575 22.8515 22.4 23.118 22.4 23.4C22.4 24.7255 23.4745 25.8 24.8 25.8C26.1255 25.8 27.2 24.7255 27.2 23.4C27.2 23.118 27.1425 22.8515 27.053 22.6H31.2C31.642 22.6 32 22.242 32 21.8V20.2C32 19.758 31.642 19.4 31.2 19.4ZM24 4.99995V2.59995C24 1.27445 22.9255 0.199951 21.6 0.199951H16.8C15.4745 0.199951 14.4 1.27445 14.4 2.59995V16.2H24V4.99995ZM21.6 4.99995H16.8V2.59995H21.6V4.99995Z" fill="#0165E1" /></svg>