<svg width="32" height="32" viewBox="0 0 32 32" fill="none" xmlns="http://www.w3.org/2000/svg">
 <path  d= "M14 6.00049L15 4.00049L17 3.00049L15 2.00049L14 0.000488281L13 2.00049L11 3.00049L13 4.00049L14 6.00049ZM5 10.0005L6.66625 6.66736L10 5.00049L6.66625 3.33361L5 0.000488281L3.33375 3.33361L0 5.00049L3.33375 6.66736L5 10.0005ZM27 18.0005L25.3337 21.3336L22 23.0005L25.3337 24.6674L27 28.0005L28.6663 24.6674L32 23.0005L28.6663 21.3336L27 18.0005ZM31.4137 5.88986L26.1106 0.586738C25.7206 0.195488 25.2087 0.000488281 24.6969 0.000488281C24.185 0.000488281 23.6731 0.195488 23.2825 0.586738L0.58625 23.283C-0.195 24.0642 -0.195 25.3305 0.58625 26.1111L5.88938 31.4142C6.28 31.8049 6.79187 31.9999 7.30312 31.9999C7.815 31.9999 8.32687 31.8049 8.7175 31.4142L31.4137 8.71736C32.195 7.93736 32.195 6.67049 31.4137 5.88986ZM22.4656 12.7167L19.2838 9.53486L24.6963 4.12236L27.8781 7.30424L22.4656 12.7167Z" fill="#0165E1" /></svg>