<svg width="32" height="30" viewBox="0 0 32 30" fill="none" xmlns="http://www.w3.org/2000/svg">
 <path  d= "M10.2542 8.25444H0.749854C0.337434 8.25444 0 7.91701 0 7.50459V2.50557C0 1.26206 1.00605 0.256005 2.24956 0.256005H8.74829C9.9918 0.256005 10.9979 1.26206 10.9979 2.50557V7.50459C11.0041 7.91701 10.6667 8.25444 10.2542 8.25444ZM32 7.50459V2.49932C32 1.25581 30.9939 0.249756 29.7504 0.249756H23.2517C22.0082 0.249756 21.0021 1.25581 21.0021 2.49932V7.49834C21.0021 7.91076 21.3396 8.24819 21.752 8.24819H31.2501C31.6626 8.25444 32 7.91701 32 7.50459ZM21.752 10.2541C21.3396 10.2541 21.0021 10.5915 21.0021 11.0039V14.2533C21.0021 22.258 11.0041 22.2455 11.0041 14.2533V11.0039C11.0041 10.5915 10.6667 10.2541 10.2542 10.2541H0.756102C0.337434 10.2541 0.00624878 10.5915 0.00624878 11.0102C0.0124976 12.3474 0.0437415 13.5284 0.00624878 14.3408C0.00624878 23.7514 8.51709 29.7502 16.0531 29.7502C23.5891 29.7502 31.9938 23.7514 31.9938 14.3345C31.9563 13.5347 31.9813 12.2724 31.9938 11.0102C31.9938 10.5915 31.6626 10.2541 31.2439 10.2541H21.752Z" fill="#0165E1" /></svg>