<svg width="18" height="32" viewBox="0 0 18 32" fill="none" xmlns="http://www.w3.org/2000/svg">
 <path  d= "M11 18.8008V29.6021L9.62407 31.666C9.32719 32.1113 8.67288 32.1113 8.37601 31.666L7 29.6021V18.8008C8.32011 19.0664 9.6799 19.0664 11 18.8008ZM9 0C13.9706 0 18 4.02944 18 9C18 13.9706 13.9706 18 9 18C4.02944 18 0 13.9706 0 9C0 4.02944 4.02944 0 9 0ZM4 8.5C4 6.01869 6.01869 4 8.5 4C8.63261 4 8.75979 3.94732 8.85356 3.85356C8.94733 3.75979 9 3.63261 9 3.5C9 3.36739 8.94733 3.24022 8.85356 3.14645C8.75979 3.05268 8.63261 3 8.5 3C5.46732 3 3 5.46732 3 8.5C3 8.63261 3.05268 8.75979 3.14645 8.85356C3.24022 8.94733 3.36739 9 3.5 9C3.63261 9 3.75979 8.94733 3.85356 8.85356C3.94732 8.75979 4 8.63261 4 8.5Z" fill="#0165E1" /></svg>