<svg width="32" height="30" viewBox="0 0 32 30" fill="none" xmlns="http://www.w3.org/2000/svg">
 <path  d= "M16 0.777832C12.1339 0.777832 9 3.91172 9 7.77783C9 10.9034 13.575 16.6001 15.3278 18.6678C15.6828 19.0867 16.3178 19.0867 16.6722 18.6678C18.425 16.6001 23 10.9034 23 7.77783C23 3.91172 19.8661 0.777832 16 0.777832ZM16 10.1112C14.7111 10.1112 13.6667 9.06672 13.6667 7.77783C13.6667 6.48894 14.7111 5.4445 16 5.4445C17.2889 5.4445 18.3333 6.48894 18.3333 7.77783C18.3333 9.06672 17.2889 10.1112 16 10.1112ZM1.11778 12.7751C0.787877 12.907 0.505072 13.1348 0.305839 13.429C0.106605 13.7232 7.90115e-05 14.0703 0 14.4256L0 28.3323C0 28.9612 0.635 29.3912 1.21889 29.1578L8.88889 25.6667V12.7178C8.39778 11.8301 7.99611 10.9656 7.70833 10.1389L1.11778 12.7751ZM16 20.7595C15.2183 20.7595 14.4789 20.4162 13.9717 19.8173C12.8794 18.5284 11.7178 17.0606 10.6667 15.5551V25.6662L21.3333 29.2217V15.5556C20.2822 17.0606 19.1211 18.5289 18.0283 19.8178C17.5211 20.4162 16.7817 20.7595 16 20.7595ZM30.7811 9.73117L23.1111 13.2223V29.2223L30.8822 26.1139C31.2122 25.9821 31.495 25.7543 31.6943 25.4601C31.8935 25.1659 32 24.8187 32 24.4634V10.5567C32 9.92783 31.365 9.49783 30.7811 9.73117Z" fill="#0165E1" /></svg>