<svg width="30" height="32" viewBox="0 0 30 32" fill="none" xmlns="http://www.w3.org/2000/svg">
 <path  d= "M29.4696 6.53031L26.4393 9.56063C26.3 9.69991 26.1347 9.81039 25.9527 9.88577C25.7707 9.96115 25.5757 9.99994 25.3787 9.99994H2.49995C1.67151 9.99994 0.99995 9.32837 0.99995 8.49994V3.5C0.99995 2.67156 1.67151 2 2.49995 2H12.5V1.5C12.5 0.671562 13.1715 0 14 0H16C16.8284 0 17.5 0.671562 17.5 1.5V2H25.3786C25.7764 2 26.158 2.15803 26.4393 2.43931L29.4696 5.46962C29.7625 5.76256 29.7625 6.23744 29.4696 6.53031ZM12.5 23V30.5C12.5 31.3284 13.1715 32 14 32H16C16.8284 32 17.5 31.3284 17.5 30.5V23H12.5ZM27.5 14H17.5V11H12.5V14H4.62126C4.22345 14 3.84194 14.158 3.56064 14.4393L0.530325 17.4696C0.23745 17.7625 0.23745 18.2374 0.530325 18.5303L3.56064 21.5606C3.69992 21.6999 3.86527 21.8104 4.04726 21.8858C4.22924 21.9612 4.42429 21.9999 4.62126 21.9999H27.5C28.3284 21.9999 29 21.3284 29 20.4999V15.4999C29 14.6716 28.3284 14 27.5 14Z" fill="#0165E1" /></svg>