<svg width="32" height="26" viewBox="0 0 32 26" fill="none" xmlns="http://www.w3.org/2000/svg">
 <path  d= "M0 5.31455V24.5546C0 25.1834 0.635 25.6134 1.21889 25.3801L8.88889 21.889V0.555664L1.11778 3.664C0.787877 3.79595 0.505072 4.02371 0.305839 4.31791C0.106605 4.6121 7.90115e-05 4.95924 0 5.31455H0ZM10.6667 21.889L21.3333 25.4446V4.11122L10.6667 0.555664V21.889ZM30.7811 0.620109L23.1111 4.11122V25.4446L30.8822 22.3362C31.2122 22.2043 31.495 21.9766 31.6943 21.6824C31.8935 21.3882 32 21.041 32 20.6857V1.44566C32 0.816775 31.365 0.386775 30.7811 0.620109Z" fill="#0165E1" /></svg>