<svg width="32" height="32" viewBox="0 0 32 32" fill="none" xmlns="http://www.w3.org/2000/svg">
 <path  d= "M5.8724 18.127C2.59145 21.408 0.524479 25.7077 0.0113035 30.3192L0.00942853 30.3336C-0.0968187 31.2886 0.710035 32.0961 1.66501 31.9904C6.28247 31.4806 10.5885 29.4129 13.8734 26.1281L18.5858 21.4157L10.5848 13.4147L5.8724 18.127ZM30.343 1.65748C28.1337 -0.551841 24.5513 -0.551841 22.342 1.65748L20.982 3.01744L18.6971 0.733125C17.7208 -0.243099 16.1378 -0.243099 15.1622 0.733125L8.65483 7.24046C8.26421 7.63107 8.26421 8.26418 8.65483 8.65479L10.0685 10.0685C10.4592 10.4591 11.0923 10.4591 11.4829 10.0685L16.9296 4.62177L18.154 5.84612L11.9991 12.0003L20.0002 20.0014L30.343 9.65852C32.5523 7.4492 32.5523 3.86742 30.343 1.65748Z" fill="#0165E1" /></svg>