<svg width="32" height="32" viewBox="0 0 32 32" fill="none" xmlns="http://www.w3.org/2000/svg">
 <path  d= "M31 0H24.4167C23.525 0 23.0833 1.075 23.7083 1.70833L25.1167 3.11667L18.3917 9.84167C16.5417 8.675 14.35 8 12 8C5.375 8 0 13.375 0 20C0 26.625 5.375 32 12 32C18.625 32 24 26.625 24 20C24 17.65 23.325 15.4583 22.1583 13.6083L28.8833 6.88333L30.2917 8.29167C30.925 8.925 32 8.475 32 7.58333V1C32 0.45 31.55 0 31 0ZM12 26.6667C8.325 26.6667 5.33333 23.675 5.33333 20C5.33333 16.325 8.325 13.3333 12 13.3333C15.675 13.3333 18.6667 16.325 18.6667 20C18.6667 23.675 15.675 26.6667 12 26.6667Z" fill="#0165E1" /></svg>