<svg width="32" height="32" viewBox="0 0 32 32" fill="none" xmlns="http://www.w3.org/2000/svg">
 <path  d= "M30.9919 0.00415039H24.4103C23.5189 0.00415039 23.0773 1.07887 23.7022 1.71204L25.1101 3.12001L23.6522 4.57796L22.4775 3.40327C22.0859 3.0117 21.4527 3.0117 21.0612 3.40327L18.7035 5.75265C18.3119 6.14422 18.3119 6.77739 18.7035 7.16895L19.8782 8.34365L18.3785 9.84326C16.529 8.67689 14.3379 8.00207 11.9885 8.00207C5.3736 8.00207 0 13.3757 0 19.9989C0 26.6222 5.3736 31.9958 11.9969 31.9958C18.6202 31.9958 23.9938 26.6222 23.9938 19.9989C23.9938 17.6496 23.3189 15.4585 22.1526 13.6089L23.6522 12.1093L24.8269 13.284C25.2184 13.6756 25.8516 13.6756 26.2432 13.284L28.6009 10.9263C28.9924 10.5347 28.9924 9.90157 28.6009 9.51001L27.4262 8.33531L28.8841 6.87736L30.2921 8.28533C30.9253 8.9185 32 8.46861 32 7.57718V1.00389C31.9917 0.454033 31.5418 0.00415039 30.9919 0.00415039ZM11.9969 26.6639C8.32283 26.6639 5.33194 23.673 5.33194 19.9989C5.33194 16.3249 8.32283 13.334 11.9969 13.334C15.6709 13.334 18.6618 16.3249 18.6618 19.9989C18.6618 23.673 15.6709 26.6639 11.9969 26.6639Z" fill="#0165E1" /></svg>