<svg width="20" height="32" viewBox="0 0 20 32" fill="none" xmlns="http://www.w3.org/2000/svg">
 <path  d= "M16.8072 15.561C15.476 14.2298 13.8505 13.3669 12.138 12.9789V11.2799H13.4759C13.9174 11.2799 14.2786 10.9186 14.2786 10.4771V7.80141C14.2786 7.35992 13.9174 6.99869 13.4759 6.99869H12.138V5.33974H13.7368C14.4525 5.33974 14.807 4.47682 14.3053 3.96843L10.566 0.235798C10.2516 -0.0785994 9.74324 -0.0785994 9.42884 0.235798L5.68951 3.97512C5.18112 4.48351 5.54235 5.34643 6.2581 5.34643H7.85685V6.99869H6.51899C6.07749 6.99869 5.71627 7.35992 5.71627 7.80141V10.4771C5.71627 10.9186 6.07749 11.2799 6.51899 11.2799H7.85685V12.9789C6.14439 13.3669 4.51888 14.2298 3.18771 15.561C-0.571684 19.3204 -0.571684 25.4211 3.18771 29.1805C6.9471 32.9398 13.0478 32.9398 16.8072 29.1805C20.5732 25.4211 20.5732 19.3204 16.8072 15.561ZM13.7836 26.1569C11.6965 28.2439 8.30503 28.2439 6.21797 26.1569C4.1309 24.0698 4.1309 20.6783 6.21797 18.5913C8.30503 16.5042 11.6965 16.5042 13.7836 18.5913C15.8706 20.6716 15.8706 24.0698 13.7836 26.1569Z" fill="#0165E1" /></svg>