<svg width="32" height="32" viewBox="0 0 32 32" fill="none" xmlns="http://www.w3.org/2000/svg">
 <path  d= "M21.25 0H16.3125C15.6438 0 15.3125 0.80625 15.7812 1.28125L16.8375 2.3375L13.7937 5.38125C12.4062 4.50625 10.7625 4 9 4C4.03125 4 0 8.03125 0 13C0 17.9688 4.03125 22 9 22C13.9688 22 18 17.9688 18 13C18 11.2375 17.4937 9.59375 16.6187 8.20625L19.6625 5.1625L20.7188 6.21875C20.8687 6.36875 21.0625 6.4375 21.2437 6.4375C21.6313 6.4375 22 6.1375 22 5.6875V0.75C22 0.3375 21.6625 0 21.25 0ZM9 18C6.24375 18 4 15.7563 4 13C4 10.2437 6.24375 8 9 8C11.7563 8 14 10.2437 14 13C14 15.7563 11.7563 18 9 18ZM31.25 9.99375H26.3125C25.6437 9.99375 25.3125 10.8 25.7812 11.275L26.8375 12.3313L23.7938 15.375C22.6562 14.6625 21.3563 14.1937 19.95 14.0437C19.8188 15.4062 19.4375 16.75 18.8 18C18.8687 18 18.9375 17.9937 19 17.9937C21.7563 17.9937 24 20.2375 24 22.9937C24 25.75 21.7563 27.9937 19 27.9937C16.2437 27.9937 14 25.75 14 22.9937C14 22.925 14 22.8563 14.0063 22.7938C12.7563 23.4313 11.4125 23.8188 10.05 23.9438C10.525 28.475 14.35 32 19 32C23.9688 32 28 27.9688 28 23C28 21.2375 27.4937 19.5938 26.6187 18.2062L29.6625 15.1625L30.7188 16.2188C30.8687 16.3687 31.0562 16.4375 31.2437 16.4375C31.6313 16.4375 32 16.1375 32 15.6875V10.75C32 10.3313 31.6625 9.99375 31.25 9.99375Z" fill="#0165E1" /></svg>