<svg width="32" height="20" viewBox="0 0 32 20" fill="none" xmlns="http://www.w3.org/2000/svg">
 <path  d= "M31.764 9.43285L28.0349 5.70376C27.5279 5.19676 26.6674 5.557 26.6674 6.2708V7.86517H25.0797V6.53096C25.0797 6.09068 24.7194 5.73044 24.2791 5.73044H21.6107C21.1704 5.73044 20.8102 6.09068 20.8102 6.53096V7.86517H18.969C18.5821 6.15739 17.7215 4.53633 16.394 3.2088C12.6449 -0.540304 6.56094 -0.540304 2.81183 3.2088C-0.937277 6.95791 -0.937277 13.0419 2.81183 16.791C6.56094 20.5401 12.6449 20.5401 16.394 16.791C17.7215 15.4634 18.5821 13.8424 18.969 12.1346H20.8102V13.4688C20.8102 13.9091 21.1704 14.2693 21.6107 14.2693H24.2791C24.7194 14.2693 25.0797 13.9091 25.0797 13.4688V12.1346H26.674V13.729C26.674 14.4428 27.5346 14.7963 28.0416 14.296L31.7707 10.5669C32.0775 10.2534 32.0775 9.74639 31.764 9.43285ZM13.3787 13.7757C11.2974 15.857 7.91515 15.857 5.8338 13.7757C3.75244 11.6943 3.75244 8.31212 5.8338 6.23077C7.91515 4.14941 11.2974 4.14941 13.3787 6.23077C15.4601 8.30545 15.4601 11.6943 13.3787 13.7757Z" fill="#0165E1" /></svg>