<svg width="32" height="32" viewBox="0 0 32 32" fill="none" xmlns="http://www.w3.org/2000/svg">
 <path  d= "M13.9844 8.1719L9.66373 0.971253C9.48608 0.675039 9.23474 0.429888 8.93419 0.259678C8.63364 0.0894685 8.29413 4.2408e-06 7.94873 0H1.00183C0.192455 0 -0.281296 0.910628 0.182455 1.57375L7.13685 11.5088C8.99436 9.77315 11.3569 8.5819 13.9844 8.1719ZM30.9982 0H24.0513C23.3488 0 22.6975 0.368751 22.3363 0.971253L18.0156 8.1719C20.6431 8.5819 23.0056 9.77315 24.8631 11.5082L31.8175 1.57375C32.2813 0.910628 31.8075 0 30.9982 0ZM16 10C9.92498 10 4.99997 14.925 4.99997 21.0001C4.99997 27.0751 9.92498 32.0001 16 32.0001C22.075 32.0001 27 27.0751 27 21.0001C27 14.925 22.075 10 16 10ZM21.7825 19.8288L19.4119 22.1388L19.9725 25.4026C20.0725 25.9876 19.4563 26.4345 18.9319 26.1582L16 24.6176L13.0687 26.1582C12.5437 26.4363 11.9281 25.9869 12.0281 25.4026L12.5887 22.1388L10.2181 19.8288C9.79186 19.4138 10.0275 18.6894 10.615 18.6044L13.8919 18.1269L15.3562 15.1569C15.4881 14.8894 15.7431 14.7575 15.9987 14.7575C16.2556 14.7575 16.5125 14.8913 16.6444 15.1569L18.1088 18.1269L21.3856 18.6044C21.9731 18.6894 22.2088 19.4138 21.7825 19.8288Z" fill="#0165E1" /></svg>