<svg width="32" height="28" viewBox="0 0 32 28" fill="none" xmlns="http://www.w3.org/2000/svg">
 <path  d= "M6 28H26V6H24V3C24 1.34312 22.6569 0 21 0H11C9.34313 0 8 1.34312 8 3V6H6V28ZM12 4H20V6H12V4ZM32 9V25C32 26.6569 30.6569 28 29 28H28V6H29C30.6569 6 32 7.34312 32 9ZM4 28H3C1.34312 28 0 26.6569 0 25V9C0 7.34312 1.34312 6 3 6H4V28ZM22 15V17C22 17.5523 21.5523 18 21 18H18V21C18 21.5523 17.5523 22 17 22H15C14.4477 22 14 21.5523 14 21V18H11C10.4477 18 10 17.5523 10 17V15C10 14.4477 10.4477 14 11 14H14V11C14 10.4477 14.4477 10 15 10H17C17.5523 10 18 10.4477 18 11V14H21C21.5523 14 22 14.4477 22 15Z" fill="#0165E1" /></svg>