<svg width="32" height="32" viewBox="0 0 32 32" fill="none" xmlns="http://www.w3.org/2000/svg">
 <path  d= "M16 0C7.16129 0 0 7.16129 0 16C0 24.8387 7.16129 32 16 32C24.8387 32 32 24.8387 32 16C32 7.16129 24.8387 0 16 0ZM5.67742 13.9355C5.67742 12.3677 6.56129 11.0194 7.84516 10.3226C7.8 10.4903 7.74194 10.6581 7.74194 10.8387C7.74194 11.9806 8.66452 12.9032 9.80645 12.9032C10.9484 12.9032 11.871 11.9806 11.871 10.8387C11.871 10.6581 11.8129 10.4903 11.7677 10.3226C13.0516 11.0194 13.9355 12.3677 13.9355 13.9355C13.9355 16.2129 12.0839 18.0645 9.80645 18.0645C7.52903 18.0645 5.67742 16.2129 5.67742 13.9355ZM20.129 25.2903H11.871C10.5032 25.2903 10.5032 23.2258 11.871 23.2258H20.129C21.4968 23.2258 21.4968 25.2903 20.129 25.2903ZM22.1935 18.0645C19.9161 18.0645 18.0645 16.2129 18.0645 13.9355C18.0645 12.3677 18.9484 11.0194 20.2323 10.3226C20.1871 10.4903 20.129 10.6581 20.129 10.8387C20.129 11.9806 21.0516 12.9032 22.1935 12.9032C23.3355 12.9032 24.2581 11.9806 24.2581 10.8387C24.2581 10.6581 24.2 10.4903 24.1548 10.3226C25.4387 11.0194 26.3226 12.3677 26.3226 13.9355C26.3226 16.2129 24.471 18.0645 22.1935 18.0645Z" fill="#0165E1" /></svg>