<svg width="32" height="20" viewBox="0 0 32 20" fill="none" xmlns="http://www.w3.org/2000/svg">
 <path  d= "M32 3.7469V1.9999C32 1.1164 31.2835 0.399902 30.4 0.399902H1.6C0.7165 0.399902 0 1.1164 0 1.9999V3.7469C0.93 4.0774 1.6 4.9564 1.6 5.9999C1.6 7.0434 0.93 7.9224 0 8.2529V13.1999H32V8.2529C31.07 7.9224 30.4 7.0434 30.4 5.9999C30.4 4.9564 31.07 4.0774 32 3.7469ZM11.2 9.9999H8V3.5999H11.2V9.9999ZM17.6 9.9999H14.4V3.5999H17.6V9.9999ZM24 9.9999H20.8V3.5999H24V9.9999ZM0 19.5999H3.2V18.2664C3.2 17.8244 3.558 17.4664 4 17.4664C4.442 17.4664 4.8 17.8244 4.8 18.2664V19.5999H11.2V18.2664C11.2 17.8244 11.558 17.4664 12 17.4664C12.442 17.4664 12.8 17.8244 12.8 18.2664V19.5999H19.2V18.2664C19.2 17.8244 19.558 17.4664 20 17.4664C20.442 17.4664 20.8 17.8244 20.8 18.2664V19.5999H27.2V18.2664C27.2 17.8244 27.558 17.4664 28 17.4664C28.442 17.4664 28.8 17.8244 28.8 18.2664V19.5999H32V14.7999H0V19.5999Z" fill="#0165E1" /></svg>