<svg width="18" height="32" viewBox="0 0 18 32" fill="none" xmlns="http://www.w3.org/2000/svg">
 <path  d= "M18 13C18 10.2375 16.7563 7.76875 14.8 6.11875C14.9563 6.00625 15.1062 5.88125 15.25 5.75625C16.7938 4.43125 17.7375 2.70625 17.95 0.83125C18.0063 0.3875 17.6562 0 17.2062 0H14.675C14.3125 0 14.0063 0.25625 13.9375 0.6125C13.7875 1.39375 13.3375 2.13125 12.6438 2.725C11.6875 3.55 10.3938 4 9 4C7.60625 4 6.3125 3.55 5.35 2.725C4.65625 2.13125 4.2125 1.39375 4.05625 0.6125C3.9875 0.25625 3.68125 0 3.325 0H0.79375C0.34375 0 -0.00625 0.3875 0.05 0.83125C0.2625 2.7125 1.2 4.4375 2.75 5.7625C2.89375 5.8875 3.04375 6.00625 3.2 6.125C1.24375 7.76875 0 10.2375 0 13C0 17.2812 2.99375 20.8687 7 21.775V25H4.75C4.3375 25 4 25.3375 4 25.75V28.25C4 28.6625 4.3375 29 4.75 29H7V31.25C7 31.6625 7.3375 32 7.75 32H10.25C10.6625 32 11 31.6625 11 31.25V29H13.25C13.6625 29 14 28.6625 14 28.25V25.75C14 25.3375 13.6625 25 13.25 25H11V21.775C15.0063 20.8687 18 17.2812 18 13ZM4 13C4 10.2437 6.24375 8 9 8C11.7563 8 14 10.2437 14 13C14 15.7563 11.7563 18 9 18C6.24375 18 4 15.7563 4 13Z" fill="#0165E1" /></svg>