<svg width="32" height="26" viewBox="0 0 32 26" fill="none" xmlns="http://www.w3.org/2000/svg">
 <path  d= "M31.6909 23.1049L23.8009 17.0069C24.4304 15.8064 24.7999 14.4504 24.7999 12.9999V10.5999C24.7999 10.1579 24.4419 9.79995 23.9999 9.79995H23.1999C22.7579 9.79995 22.4 10.1579 22.4 10.5999V12.9999C22.4 13.8959 22.202 14.7399 21.8639 15.5099L20.5365 14.4839C20.6915 14.0139 20.8004 13.5229 20.8004 13.0004V4.99995C20.8004 2.34895 18.6515 0.199951 16.0005 0.199951C13.3495 0.199951 11.2005 2.34895 11.2005 4.99995V7.26795L2.27346 0.368451C1.92446 0.0974512 1.42146 0.159951 1.15046 0.508951L0.168456 1.77245C-0.102544 2.12095 -0.0400443 2.62345 0.308956 2.89495L29.7269 25.6314C30.0759 25.9029 30.5784 25.8399 30.8499 25.4909L31.8319 24.2274C32.1024 23.8789 32.0399 23.3764 31.6909 23.1049ZM20 23.3999H17.2V21.7114C17.783 21.6314 18.3425 21.4844 18.8835 21.2959L16.378 19.3594C16.0425 19.3794 15.7075 19.4029 15.3605 19.3694C12.568 19.0969 10.4235 16.9379 9.80145 14.2769L7.19995 12.2654V12.6079C7.19995 17.0899 10.3985 21.0854 14.8 21.6924V23.3999H12C11.558 23.3999 11.2 23.7579 11.2 24.1999V24.9999C11.2 25.4419 11.558 25.7999 12 25.7999H20C20.4419 25.7999 20.7999 25.4419 20.7999 24.9999V24.1999C20.7999 23.7579 20.4419 23.3999 20 23.3999Z" fill="#0165E1" /></svg>