<svg width="32" height="32" viewBox="0 0 32 32" fill="none" xmlns="http://www.w3.org/2000/svg">
 <path  d= "M26 3V29C26 30.6569 24.6569 32 23 32H9C7.34312 32 6 30.6569 6 29V3C6 1.34312 7.34312 0 9 0H23C24.6569 0 26 1.34312 26 3ZM32 6.625V7.375C32 7.47446 31.9605 7.56984 31.8902 7.64016C31.8198 7.71049 31.7245 7.75 31.625 7.75H30.5V8.125C30.5 8.22446 30.4605 8.31984 30.3902 8.39017C30.3198 8.46049 30.2245 8.5 30.125 8.5H27.5V5.5H30.125C30.2245 5.5 30.3198 5.53951 30.3902 5.60984C30.4605 5.68016 30.5 5.77554 30.5 5.875V6.25H31.625C31.7245 6.25 31.8198 6.28951 31.8902 6.35984C31.9605 6.43016 32 6.52554 32 6.625ZM32 12.625V13.375C32 13.4745 31.9605 13.5698 31.8902 13.6402C31.8198 13.7105 31.7245 13.75 31.625 13.75H30.5V14.125C30.5 14.2245 30.4605 14.3198 30.3902 14.3902C30.3198 14.4605 30.2245 14.5 30.125 14.5H27.5V11.5H30.125C30.2245 11.5 30.3198 11.5395 30.3902 11.6098C30.4605 11.6802 30.5 11.7755 30.5 11.875V12.25H31.625C31.7245 12.25 31.8198 12.2895 31.8902 12.3598C31.9605 12.4302 32 12.5255 32 12.625ZM32 18.625V19.375C32 19.4745 31.9605 19.5698 31.8902 19.6402C31.8198 19.7105 31.7245 19.75 31.625 19.75H30.5V20.125C30.5 20.2245 30.4605 20.3198 30.3902 20.3902C30.3198 20.4605 30.2245 20.5 30.125 20.5H27.5V17.5H30.125C30.2245 17.5 30.3198 17.5395 30.3902 17.6098C30.4605 17.6802 30.5 17.7755 30.5 17.875V18.25H31.625C31.7245 18.25 31.8198 18.2895 31.8902 18.3598C31.9605 18.4302 32 18.5255 32 18.625ZM32 24.625V25.375C32 25.4745 31.9605 25.5698 31.8902 25.6402C31.8198 25.7105 31.7245 25.75 31.625 25.75H30.5V26.125C30.5 26.2245 30.4605 26.3198 30.3902 26.3902C30.3198 26.4605 30.2245 26.5 30.125 26.5H27.5V23.5H30.125C30.2245 23.5 30.3198 23.5395 30.3902 23.6098C30.4605 23.6802 30.5 23.7755 30.5 23.875V24.25H31.625C31.7245 24.25 31.8198 24.2895 31.8902 24.3598C31.9605 24.4302 32 24.5255 32 24.625ZM1.875 23.5H4.5V26.5H1.875C1.77554 26.5 1.68016 26.4605 1.60983 26.3902C1.53951 26.3198 1.5 26.2245 1.5 26.125V25.75H0.375C0.275544 25.75 0.180161 25.7105 0.109835 25.6402C0.0395088 25.5698 0 25.4745 0 25.375L0 24.625C0 24.5255 0.0395088 24.4302 0.109835 24.3598C0.180161 24.2895 0.275544 24.25 0.375 24.25H1.5V23.875C1.5 23.7755 1.53951 23.6802 1.60983 23.6098C1.68016 23.5395 1.77554 23.5 1.875 23.5ZM1.875 17.5H4.5V20.5H1.875C1.77554 20.5 1.68016 20.4605 1.60983 20.3902C1.53951 20.3198 1.5 20.2245 1.5 20.125V19.75H0.375C0.275544 19.75 0.180161 19.7105 0.109835 19.6402C0.0395088 19.5698 0 19.4745 0 19.375L0 18.625C0 18.5255 0.0395088 18.4302 0.109835 18.3598C0.180161 18.2895 0.275544 18.25 0.375 18.25H1.5V17.875C1.5 17.7755 1.53951 17.6802 1.60983 17.6098C1.68016 17.5395 1.77554 17.5 1.875 17.5ZM1.875 11.5H4.5V14.5H1.875C1.77554 14.5 1.68016 14.4605 1.60983 14.3902C1.53951 14.3198 1.5 14.2245 1.5 14.125V13.75H0.375C0.275544 13.75 0.180161 13.7105 0.109835 13.6402C0.0395088 13.5698 0 13.4745 0 13.375L0 12.625C0 12.5255 0.0395088 12.4302 0.109835 12.3598C0.180161 12.2895 0.275544 12.25 0.375 12.25H1.5V11.875C1.5 11.7755 1.53951 11.6802 1.60983 11.6098C1.68016 11.5395 1.77554 11.5 1.875 11.5ZM1.875 5.5H4.5V8.5H1.875C1.77554 8.5 1.68016 8.46049 1.60983 8.39017C1.53951 8.31984 1.5 8.22446 1.5 8.125V7.75H0.375C0.275544 7.75 0.180161 7.71049 0.109835 7.64016C0.0395088 7.56984 0 7.47446 0 7.375L0 6.625C0 6.52554 0.0395088 6.43016 0.109835 6.35984C0.180161 6.28951 0.275544 6.25 0.375 6.25H1.5V5.875C1.5 5.77554 1.53951 5.68016 1.60983 5.60984C1.68016 5.53951 1.77554 5.5 1.875 5.5Z" fill="#0165E1" /></svg>