<svg width="32" height="26" viewBox="0 0 32 26" fill="none" xmlns="http://www.w3.org/2000/svg">
 <path  d= "M31.6909 23.1049L23.813 17.0164C24.4369 15.8104 24.7999 14.4489 24.7999 12.9999V10.5999C24.7999 10.1579 24.4419 9.7999 23.9999 9.7999H23.1999C22.7579 9.7999 22.4 10.1579 22.4 10.5999V12.9999C22.4 13.8959 22.202 14.7399 21.8639 15.5099L20.5365 14.4839C20.6915 14.0139 20.8004 13.5229 20.8004 13.0004H18.617L16.547 11.4004H20.7999V9.8004H16.5335C16.239 9.8004 16 9.6214 16 9.4004V8.6004C16 8.3794 16.239 8.2004 16.5335 8.2004H20.7999V6.6004H16.5335C16.239 6.6004 16 6.42141 16 6.20041V5.40041C16 5.17941 16.239 5.00041 16.5335 5.00041H20.7999C20.7999 2.34941 18.651 0.200407 16 0.200407C13.349 0.200407 11.2 2.34941 11.2 5.00041V7.2684L2.27346 0.368407C1.92446 0.0974068 1.42146 0.159907 1.15046 0.508907L0.168456 1.77241C-0.102544 2.12091 -0.0400443 2.62341 0.308956 2.89491L29.7269 25.6314C30.0759 25.9029 30.5784 25.8399 30.8499 25.4909L31.8319 24.2274C32.1024 23.8789 32.0399 23.3764 31.6909 23.1049ZM20 23.3999H17.2V21.7109C17.7854 21.6299 18.3549 21.4969 18.8979 21.3069L16.378 19.3589C16.0425 19.3789 15.7075 19.4024 15.3605 19.3689C12.568 19.0964 10.4235 16.9374 9.80145 14.2764L7.19995 12.2654V12.6079C7.19995 17.0899 10.3985 21.0854 14.8 21.6924V23.3999H12C11.558 23.3999 11.2 23.7579 11.2 24.1999V24.9999C11.2 25.4419 11.558 25.7999 12 25.7999H20C20.4419 25.7999 20.7999 25.4419 20.7999 24.9999V24.1999C20.7999 23.7579 20.4419 23.3999 20 23.3999Z" fill="#0165E1" /></svg>