<svg width="32" height="20" viewBox="0 0 32 20" fill="none" xmlns="http://www.w3.org/2000/svg">
 <path  d= "M17.6 11.5999H16.8V7.1999C16.8 6.9789 16.621 6.7999 16.4 6.7999H15.721C15.484 6.7999 15.2525 6.8699 15.0555 7.0014L14.289 7.5124C14.2453 7.54151 14.2077 7.57894 14.1785 7.62257C14.1493 7.66619 14.1289 7.71515 14.1186 7.76665C14.1083 7.81815 14.1082 7.87117 14.1184 7.92269C14.1286 7.97421 14.1489 8.02321 14.178 8.0669L14.622 8.7324C14.6511 8.77612 14.6885 8.81367 14.7322 8.84291C14.7758 8.87215 14.8247 8.8925 14.8762 8.90281C14.9277 8.91312 14.9808 8.91318 15.0323 8.90299C15.0838 8.89279 15.1328 8.87255 15.1765 8.8434L15.2 8.8279V11.5999H14.4C14.179 11.5999 14 11.7789 14 11.9999V12.7999C14 13.0209 14.179 13.1999 14.4 13.1999H17.6C17.821 13.1999 18 13.0209 18 12.7999V11.9999C18 11.7789 17.821 11.5999 17.6 11.5999ZM30.4 0.399902H1.6C0.7165 0.399902 0 1.1164 0 1.9999V17.9999C0 18.8834 0.7165 19.5999 1.6 19.5999H30.4C31.2835 19.5999 32 18.8834 32 17.9999V1.9999C32 1.1164 31.2835 0.399902 30.4 0.399902ZM2.4 17.1999V13.9999C4.1675 13.9999 5.6 15.4324 5.6 17.1999H2.4ZM2.4 5.9999V2.7999H5.6C5.6 4.5674 4.1675 5.9999 2.4 5.9999ZM16 15.5999C13.349 15.5999 11.2 13.0924 11.2 9.9999C11.2 6.9069 13.349 4.3999 16 4.3999C18.651 4.3999 20.8 6.9069 20.8 9.9999C20.8 13.0934 18.65 15.5999 16 15.5999ZM29.6 17.1999H26.4C26.4 15.4324 27.8325 13.9999 29.6 13.9999V17.1999ZM29.6 5.9999C27.8325 5.9999 26.4 4.5674 26.4 2.7999H29.6V5.9999Z" fill="#0165E1" /></svg>