<svg width="32" height="24" viewBox="0 0 32 24" fill="none" xmlns="http://www.w3.org/2000/svg">
 <path  d= "M0 21.6C0 22.4835 0.7165 23.2 1.6 23.2H30.4C31.2835 23.2 32 22.4835 32 21.6V5.60005H0V21.6ZM22.4 11.2C22.4 10.758 22.758 10.4 23.2 10.4H28C28.442 10.4 28.8 10.758 28.8 11.2V12.8C28.8 13.242 28.442 13.6 28 13.6H23.2C22.758 13.6 22.4 13.242 22.4 12.8V11.2ZM22.4 17.2C22.4 16.979 22.579 16.8 22.8 16.8H28.4C28.621 16.8 28.8 16.979 28.8 17.2V18C28.8 18.221 28.621 18.4 28.4 18.4H22.8C22.579 18.4 22.4 18.221 22.4 18V17.2ZM3.2 12.4C3.2 12.179 3.379 12 3.6 12H18.8C19.021 12 19.2 12.179 19.2 12.4V13.2C19.2 13.421 19.021 13.6 18.8 13.6H3.6C3.379 13.6 3.2 13.421 3.2 13.2V12.4ZM3.2 17.2C3.2 16.979 3.379 16.8 3.6 16.8H12.4C12.621 16.8 12.8 16.979 12.8 17.2V18C12.8 18.221 12.621 18.4 12.4 18.4H3.6C3.379 18.4 3.2 18.221 3.2 18V17.2ZM31.2 0.800049H0.8C0.358 0.800049 0 1.15805 0 1.60005V4.00005H32V1.60005C32 1.15805 31.642 0.800049 31.2 0.800049Z" fill="#0165E1" /></svg>