<svg width="32" height="20" viewBox="0 0 32 20" fill="none" xmlns="http://www.w3.org/2000/svg">
 <path  d= "M30.4 0.399902H1.6C0.7165 0.399902 0 1.1164 0 1.9999V17.9999C0 18.8834 0.7165 19.5999 1.6 19.5999H30.4C31.2835 19.5999 32 18.8834 32 17.9999V1.9999C32 1.1164 31.2835 0.399902 30.4 0.399902ZM2.4 17.1999V13.9999C4.1675 13.9999 5.6 15.4324 5.6 17.1999H2.4ZM2.4 5.9999V2.7999H5.6C5.6 4.5674 4.1675 5.9999 2.4 5.9999ZM16 14.7999C13.7905 14.7999 12 12.6504 12 9.9999C12 7.3489 13.791 5.1999 16 5.1999C18.209 5.1999 20 7.3489 20 9.9999C20 12.6514 18.2085 14.7999 16 14.7999ZM29.6 17.1999H26.4C26.4 15.4324 27.8325 13.9999 29.6 13.9999V17.1999ZM29.6 5.9999C27.8325 5.9999 26.4 4.5674 26.4 2.7999H29.6V5.9999Z" fill="#0165E1" /></svg>