<svg width="32" height="24" viewBox="0 0 32 24" fill="none" xmlns="http://www.w3.org/2000/svg">
 <path  d= "M30.4 0.800049H1.6C0.7165 0.800049 0 1.51655 0 2.40005V21.6C0 22.4835 0.7165 23.2 1.6 23.2H30.4C31.2835 23.2 32 22.4835 32 21.6V2.40005C32 1.51655 31.2835 0.800049 30.4 0.800049ZM8.8 15.594V16.4C8.8 16.621 8.621 16.8 8.4 16.8H7.6C7.379 16.8 7.2 16.621 7.2 16.4V15.5855C6.6355 15.5565 6.0865 15.3595 5.6315 15.018C5.4365 14.8715 5.4265 14.5795 5.603 14.411L6.1905 13.8505C6.329 13.7185 6.535 13.7125 6.697 13.814C6.8905 13.935 7.11 14 7.338 14H8.7435C9.0685 14 9.3335 13.704 9.3335 13.3405C9.3335 13.043 9.153 12.781 8.895 12.704L6.645 12.029C5.7155 11.75 5.066 10.858 5.066 9.85955C5.066 8.63355 6.0185 7.63755 7.1995 7.60605V6.80005C7.1995 6.57905 7.3785 6.40005 7.5995 6.40005H8.3995C8.6205 6.40005 8.7995 6.57905 8.7995 6.80005V7.61455C9.364 7.64355 9.913 7.84005 10.368 8.18205C10.563 8.32855 10.573 8.62055 10.3965 8.78905L9.809 9.34955C9.6705 9.48155 9.4645 9.48755 9.3025 9.38605C9.109 9.26455 8.8895 9.20005 8.6615 9.20005H7.256C6.931 9.20005 6.666 9.49605 6.666 9.85955C6.666 10.157 6.8465 10.419 7.1045 10.496L9.3545 11.171C10.284 11.45 10.9335 12.342 10.9335 13.3405C10.9335 14.567 9.981 15.5625 8.8 15.594ZM20.8 14.8C20.8 15.021 20.621 15.2 20.4 15.2H14.8C14.579 15.2 14.4 15.021 14.4 14.8V14C14.4 13.779 14.579 13.6 14.8 13.6H20.4C20.621 13.6 20.8 13.779 20.8 14V14.8ZM28.8 14.8C28.8 15.021 28.621 15.2 28.4 15.2H24.4C24.179 15.2 24 15.021 24 14.8V14C24 13.779 24.179 13.6 24.4 13.6H28.4C28.621 13.6 28.8 13.779 28.8 14V14.8ZM28.8 10C28.8 10.221 28.621 10.4 28.4 10.4H14.8C14.579 10.4 14.4 10.221 14.4 10V9.20005C14.4 8.97905 14.579 8.80005 14.8 8.80005H28.4C28.621 8.80005 28.8 8.97905 28.8 9.20005V10Z" fill="#0165E1" /></svg>