<svg width="32" height="24" viewBox="0 0 32 24" fill="none" xmlns="http://www.w3.org/2000/svg">
 <path  d= "M31.0575 1.92328C29.118 1.10979 27.1771 0.800293 25.2371 0.800293C19.0787 0.799793 12.9208 3.91724 6.76239 3.91724C5.21792 3.91724 3.67444 3.72125 2.12997 3.23126C1.95647 3.17626 1.78247 3.15026 1.61247 3.15026C0.751988 3.15026 0 3.81625 0 4.74073V20.6035C0 21.235 0.361494 21.8335 0.941985 22.0765C2.88145 22.8904 4.82242 23.1999 6.76239 23.1999C12.9208 23.1999 19.0792 20.0825 25.2376 20.0825C26.7821 20.0825 28.3256 20.2785 29.87 20.7685C30.0435 20.8235 30.2175 20.8495 30.3875 20.8495C31.248 20.8495 32 20.1835 32 19.259V3.39675C31.9995 2.76476 31.638 2.16677 31.0575 1.92328ZM15.9998 16.8C13.7903 16.8 11.9998 14.6506 11.9998 12.0001C11.9998 9.34916 13.7908 7.20019 15.9998 7.20019C18.2087 7.20019 19.9997 9.34916 19.9997 12.0001C19.9997 14.6516 18.2082 16.8 15.9998 16.8Z" fill="#0165E1" /></svg>