<svg width="32" height="24" viewBox="0 0 32 24" fill="none" xmlns="http://www.w3.org/2000/svg">
 <path  d= "M31.0575 1.92328C29.118 1.10979 27.1771 0.800293 25.2371 0.800293C19.0787 0.799793 12.9208 3.91724 6.76239 3.91724C5.21792 3.91724 3.67444 3.72125 2.12997 3.23126C1.95647 3.17626 1.78247 3.15026 1.61247 3.15026C0.751988 3.15026 0 3.81625 0 4.74073V20.6035C0 21.235 0.361494 21.8335 0.941985 22.0765C2.88145 22.8904 4.82242 23.1999 6.76239 23.1999C12.9208 23.1999 19.0792 20.0825 25.2376 20.0825C26.7821 20.0825 28.3256 20.2785 29.87 20.7685C30.0435 20.8235 30.2175 20.8495 30.3875 20.8495C31.248 20.8495 32 20.1835 32 19.259V3.39675C31.9995 2.76476 31.638 2.16677 31.0575 1.92328ZM2.39996 5.81121C3.40595 6.06321 4.45593 6.18971 5.53591 6.25771C5.24192 7.72718 3.94994 8.83467 2.39996 8.83467V5.81121ZM2.39996 20.061V17.672C4.11844 17.672 5.50891 19.0355 5.58541 20.742C4.45893 20.6515 3.40595 20.4265 2.39996 20.061ZM15.9998 16.8C13.7903 16.8 11.9998 14.6506 11.9998 12.0001C11.9998 9.34916 13.7908 7.20019 15.9998 7.20019C18.2087 7.20019 19.9997 9.34916 19.9997 12.0001C19.9997 14.6516 18.2082 16.8 15.9998 16.8ZM29.5995 18.189C28.7236 17.9695 27.8141 17.8465 26.8836 17.767C27.1771 16.463 28.2586 15.4731 29.5995 15.3031V18.189ZM29.5995 6.38371C28.0551 6.18821 26.8566 4.89873 26.8091 3.30625C27.7861 3.41475 28.7136 3.61775 29.5995 3.93924V6.38371Z" fill="#0165E1" /></svg>