<svg width="24" height="32" viewBox="0 0 24 32" fill="none" xmlns="http://www.w3.org/2000/svg">
 <path  d= "M23.0001 28H1C0.447502 28 0 28.4475 0 29V31C0 31.5525 0.447502 32 1 32H23.0001C23.5526 32 24.0001 31.5525 24.0001 31V29C24.0001 28.4475 23.5526 28 23.0001 28ZM18.0713 6.29612C18.0256 5.83679 17.8222 5.40747 17.4957 5.08112L12.7069 0.29297C12.3163 -0.0976567 11.6832 -0.0976567 11.2926 0.29297L6.50503 5.08112C6.17857 5.40747 5.97517 5.83679 5.9294 6.29612L4.00002 26H20.0001L18.0713 6.29612ZM15.0001 19.1999C15.0001 19.5999 14.6001 19.9999 14.2001 19.9999H9.80005C9.40005 19.9999 9.00004 19.5999 9.00004 19.1999V16.7999C9.00004 16.3999 9.40005 15.9999 9.80005 15.9999H14.2001C14.6001 15.9999 15.0001 16.3999 15.0001 16.7999V19.1999Z" fill="#0165E1" /></svg>