<svg width="32" height="32" viewBox="0 0 32 32" fill="none" xmlns="http://www.w3.org/2000/svg">
 <path  d= "M31.3463 3.80708C32.4225 2.73083 32.1281 0.916452 30.7669 0.235827C30.3964 0.0506716 29.9817 -0.0276937 29.5692 0.00950596C29.1566 0.0467056 28.7626 0.198001 28.4312 0.446452L15.6931 10.0002H25.1537L31.3463 3.80708ZM31 12.0002H1C0.4475 12.0002 0 12.4477 0 13.0002V15.0002C0 15.5527 0.4475 16.0002 1 16.0002H2C2 21.0615 5.1375 25.3821 9.57063 27.1452C8.77313 28.1996 8.21312 29.4452 8.01125 30.8133C7.92 31.4333 8.38875 31.9996 9.01562 31.9996H22.9844C23.6112 31.9996 24.08 31.4333 23.9888 30.8133C23.7875 29.4452 23.2275 28.1996 22.4294 27.1452C26.8625 25.3821 30 21.0615 30 16.0002H31C31.5525 16.0002 32 15.5527 32 15.0002V13.0002C32 12.4477 31.5525 12.0002 31 12.0002Z" fill="#0165E1" /></svg>