<svg width="32" height="20" viewBox="0 0 32 20" fill="none" xmlns="http://www.w3.org/2000/svg">
 <path  d= "M25.6474 6.80005C24.9043 6.79465 24.1904 6.91615 23.5257 7.14375L21.8794 4.3999H26C26.6627 4.3999 27.2 3.86265 27.2 3.1999V1.5999C27.2 0.937152 26.6627 0.399902 26 0.399902H23.7344C23.5662 0.399904 23.3999 0.43527 23.2462 0.503706C23.0926 0.572143 22.955 0.67212 22.8425 0.797152L20.9677 2.8803L19.829 0.982502C19.7224 0.80481 19.5715 0.657755 19.3912 0.555658C19.2109 0.45356 19.0072 0.3999 18.8 0.399902H14.8C14.3581 0.399902 14 0.758052 14 1.1999V1.9999C14 2.44175 14.3581 2.7999 14.8 2.7999H18.1205L19.0805 4.3999H11.3952C10.5088 3.24625 9.14898 2.3999 6.39999 2.3999H3.62699C2.95424 2.3999 2.38744 2.95045 2.40019 3.6231C2.41259 4.27515 2.94499 4.7999 3.59999 4.7999H6.39999C7.62519 4.7999 8.33429 5.34585 8.78934 6.03835L8.22479 7.0648C7.57449 6.87155 6.88124 6.778 6.16224 6.8043C2.79284 6.92735 0.0782432 9.68014 0.0016933 13.0509C-0.0801566 16.6537 2.81584 19.5999 6.39999 19.5999C9.38208 19.5999 11.8872 17.5602 12.5976 14.7999H16.8094C17.4931 14.7999 18.0389 14.2288 18.0082 13.546C17.9023 11.19 18.8843 8.86279 20.8175 7.29475L21.4417 8.33515C20.0594 9.51784 19.1869 11.2791 19.2002 13.2441C19.2237 16.7219 22.0603 19.5667 25.5381 19.5996C29.1195 19.6335 32.03 16.7252 31.9998 13.1446C31.9704 9.66509 29.127 6.82535 25.6474 6.80005ZM6.39999 17.1999C4.19439 17.1999 2.39999 15.4055 2.39999 13.1999C2.39999 10.9943 4.19439 9.19989 6.39999 9.19989C6.61209 9.19989 6.82024 9.21694 7.02344 9.24899L4.94849 13.0216C4.50934 13.8202 5.08809 14.7999 5.99999 14.7999H10.0648C9.44633 16.2111 8.03684 17.1999 6.39999 17.1999ZM25.8175 17.1941C23.5136 17.3167 21.6 15.4776 21.6 13.1999C21.6 12.1317 22.0217 11.1608 22.7062 10.4427L25.1768 14.5603C25.4041 14.9391 25.8956 15.062 26.2744 14.8347L26.9604 14.4231C27.3393 14.1958 27.4621 13.7043 27.2348 13.3255L24.807 9.27915C25.068 9.2264 25.3337 9.19985 25.6 9.19989C27.8777 9.19989 29.7169 11.1135 29.5942 13.4175C29.4862 15.4454 27.8455 17.0861 25.8175 17.1941Z" fill="#0165E1" /></svg>