<svg width="32" height="32" viewBox="0 0 32 32" fill="none" xmlns="http://www.w3.org/2000/svg">
 <path  d= "M29.3997 0.0943169L10.4001 6.09421C9.56882 6.35671 9.00008 7.12544 9.00008 8.00043V24.5376C8.11885 24.2001 7.09387 24.0001 6.00014 24.0001C2.6877 24.0001 0.000244141 25.7939 0.000244141 28.0001C0.000244141 30.2063 2.6877 32 6.00014 32C9.31258 32 12 30.2063 12 28.0001V13.7816L28.9997 8.41292V20.5377C28.1185 20.2002 27.0935 20.0002 25.9998 20.0002C22.6873 20.0002 19.9999 21.7939 19.9999 24.0001C19.9999 26.2064 22.6873 28.0001 25.9998 28.0001C29.3122 28.0001 31.9997 26.2064 31.9997 24.0001V2.00053C31.9997 0.644307 30.6809 -0.311926 29.3997 0.0943169Z" fill="#0165E1" /></svg>