<svg width="22" height="32" viewBox="0 0 22 32" fill="none" xmlns="http://www.w3.org/2000/svg">
 <path  d= "M21.2857 10.2857C21.2857 4.60714 16.6785 0 10.9999 0C5.32138 0 0.714233 4.60714 0.714233 10.2857C0.714233 15.1786 4.13566 19.2786 8.71423 20.3143V31.1429C8.71423 31.6143 9.09995 32 9.57138 32H12.4285C12.8999 32 13.2857 31.6143 13.2857 31.1429V20.3143C17.8642 19.2786 21.2857 15.1786 21.2857 10.2857ZM10.9999 16C7.84995 16 5.28566 13.4357 5.28566 10.2857C5.28566 7.13571 7.84995 4.57143 10.9999 4.57143C14.1499 4.57143 16.7142 7.13571 16.7142 10.2857C16.7142 13.4357 14.1499 16 10.9999 16Z" fill="#0165E1" /></svg>