<svg width="32" height="22" viewBox="0 0 32 22" fill="none" xmlns="http://www.w3.org/2000/svg">
 <path  d= "M30.6667 0.333496H4.88889C4.1525 0.333496 3.55556 0.930441 3.55556 1.66683V2.11127H1.33333C0.596944 2.11127 0 2.70822 0 3.44461V18.5557C0 20.2739 1.39289 21.6668 3.11111 21.6668H29.3333C30.8061 21.6668 32 20.4729 32 19.0002V1.66683C32 0.930441 31.4031 0.333496 30.6667 0.333496ZM3.11111 19.0002C2.99324 19.0002 2.88019 18.9533 2.79684 18.87C2.71349 18.7866 2.66667 18.6736 2.66667 18.5557V4.77794H3.55556V18.5557C3.55556 18.6736 3.50873 18.7866 3.42538 18.87C3.34203 18.9533 3.22899 19.0002 3.11111 19.0002ZM16.2222 18.1113H7.77778C7.40961 18.1113 7.11111 17.8128 7.11111 17.4446V17.0002C7.11111 16.632 7.40961 16.3335 7.77778 16.3335H16.2222C16.5904 16.3335 16.8889 16.632 16.8889 17.0002V17.4446C16.8889 17.8128 16.5904 18.1113 16.2222 18.1113ZM27.7778 18.1113H19.3333C18.9652 18.1113 18.6667 17.8128 18.6667 17.4446V17.0002C18.6667 16.632 18.9652 16.3335 19.3333 16.3335H27.7778C28.1459 16.3335 28.4444 16.632 28.4444 17.0002V17.4446C28.4444 17.8128 28.1459 18.1113 27.7778 18.1113ZM16.2222 12.7779H7.77778C7.40961 12.7779 7.11111 12.4794 7.11111 12.1113V11.6668C7.11111 11.2987 7.40961 11.0002 7.77778 11.0002H16.2222C16.5904 11.0002 16.8889 11.2987 16.8889 11.6668V12.1113C16.8889 12.4794 16.5904 12.7779 16.2222 12.7779ZM27.7778 12.7779H19.3333C18.9652 12.7779 18.6667 12.4794 18.6667 12.1113V11.6668C18.6667 11.2987 18.9652 11.0002 19.3333 11.0002H27.7778C28.1459 11.0002 28.4444 11.2987 28.4444 11.6668V12.1113C28.4444 12.4794 28.1459 12.7779 27.7778 12.7779ZM27.7778 7.44461H7.77778C7.40961 7.44461 7.11111 7.14611 7.11111 6.77794V4.55572C7.11111 4.18755 7.40961 3.88905 7.77778 3.88905H27.7778C28.1459 3.88905 28.4444 4.18755 28.4444 4.55572V6.77794C28.4444 7.14611 28.1459 7.44461 27.7778 7.44461Z" fill="#0165E1" /></svg>