<svg width="28" height="32" viewBox="0 0 28 32" fill="none" xmlns="http://www.w3.org/2000/svg">
 <path  d= "M26 13C27.1044 13 28 12.1044 28 11V9.00003C28 7.89566 27.1044 7.00004 26 7.00004H24.5075L27.7494 2.82443C28.085 2.38568 28.0019 1.75819 27.5637 1.42256L25.9756 0.206319C25.5369 -0.129929 24.9094 -0.0461795 24.5731 0.391944L19.4432 7.00004H2.00011C0.895743 7.00004 0.00012207 7.89566 0.00012207 9.00003V11C0.00012207 12.1044 0.895743 13 2.00011 13H14.7851L10.127 19H2.00011C0.895743 19 0.00012207 19.8956 0.00012207 21V23C0.00012207 24.1043 0.895743 25 2.00011 25H5.46822L2.22636 29.1756C1.89074 29.6137 1.97386 30.2412 2.41199 30.5774L4.0001 31.7937C4.43885 32.1299 5.06635 32.0462 5.40197 31.6081L10.5326 25H26C27.1044 25 28 24.1043 28 23V21C28 19.8956 27.1044 19 26 19H15.1907L19.8488 13H26Z" fill="#0165E1" /></svg>