<svg width="24" height="32" viewBox="0 0 24 32" fill="none" xmlns="http://www.w3.org/2000/svg">
 <path  d= "M21 4H16C16 1.79375 14.2063 0 12 0C9.79375 0 8 1.79375 8 4H3C1.34375 4 0 5.34375 0 7V29C0 30.6562 1.34375 32 3 32H21C22.6562 32 24 30.6562 24 29V7C24 5.34375 22.6562 4 21 4ZM12 2.5C12.8313 2.5 13.5 3.16875 13.5 4C13.5 4.83125 12.8313 5.5 12 5.5C11.1687 5.5 10.5 4.83125 10.5 4C10.5 3.16875 11.1687 2.5 12 2.5ZM18 21.5C18 21.775 17.775 22 17.5 22H14V25.5C14 25.775 13.775 26 13.5 26H10.5C10.225 26 10 25.775 10 25.5V22H6.5C6.225 22 6 21.775 6 21.5V18.5C6 18.225 6.225 18 6.5 18H10V14.5C10 14.225 10.225 14 10.5 14H13.5C13.775 14 14 14.225 14 14.5V18H17.5C17.775 18 18 18.225 18 18.5V21.5ZM18 9.5C18 9.775 17.775 10 17.5 10H6.5C6.225 10 6 9.775 6 9.5V8.5C6 8.225 6.225 8 6.5 8H17.5C17.775 8 18 8.225 18 8.5V9.5Z" fill="#0165E1" /></svg>