<svg width="32" height="26" viewBox="0 0 32 26" fill="none" xmlns="http://www.w3.org/2000/svg">
 <path  d= "M3.55556 16.5557V18.0001C3.55556 18.0885 3.52044 18.1733 3.45792 18.2358C3.39541 18.2983 3.31063 18.3334 3.22222 18.3334H0.333333C0.244928 18.3334 0.160143 18.2983 0.0976311 18.2358C0.0351189 18.1733 0 18.0885 0 18.0001L0 15.1112C0 15.0228 0.0351189 14.938 0.0976311 14.8755C0.160143 14.813 0.244928 14.7779 0.333333 14.7779H1.77778V4.11122H0.333333C0.244928 4.11122 0.160143 4.0761 0.0976311 4.01359C0.0351189 3.95108 0 3.86629 0 3.77789L0 0.888997C0 0.800592 0.0351189 0.715807 0.0976311 0.653295C0.160143 0.590783 0.244928 0.555664 0.333333 0.555664H3.22222C3.31063 0.555664 3.39541 0.590783 3.45792 0.653295C3.52044 0.715807 3.55556 0.800592 3.55556 0.888997V2.33344H19.5556V0.888997C19.5556 0.800592 19.5907 0.715807 19.6532 0.653295C19.7157 0.590783 19.8005 0.555664 19.8889 0.555664H22.7778C22.8662 0.555664 22.951 0.590783 23.0135 0.653295C23.076 0.715807 23.1111 0.800592 23.1111 0.888997V3.77789C23.1111 3.86629 23.076 3.95108 23.0135 4.01359C22.951 4.0761 22.8662 4.11122 22.7778 4.11122H21.3333V14.7779H22.7778C22.8662 14.7779 22.951 14.813 23.0135 14.8755C23.076 14.938 23.1111 15.0228 23.1111 15.1112V18.0001C23.1111 18.0885 23.076 18.1733 23.0135 18.2358C22.951 18.2983 22.8662 18.3334 22.7778 18.3334H19.8889C19.8005 18.3334 19.7157 18.2983 19.6532 18.2358C19.5907 18.1733 19.5556 18.0885 19.5556 18.0001V16.5557H3.55556ZM30.2222 13.0001V11.2223H31.6667C31.7551 11.2223 31.8399 11.1872 31.9024 11.1247C31.9649 11.0622 32 10.9774 32 10.889V8.00011C32 7.9117 31.9649 7.82692 31.9024 7.76441C31.8399 7.70189 31.7551 7.66678 31.6667 7.66678H28.7778C28.6894 7.66678 28.6046 7.70189 28.5421 7.76441C28.4796 7.82692 28.4444 7.9117 28.4444 8.00011V9.44455H22.6667V13.4446H23.1111C23.8475 13.4446 24.4444 14.0415 24.4444 14.7779V18.3334C24.4444 19.0698 23.8475 19.6668 23.1111 19.6668H19.5556C18.8192 19.6668 18.2222 19.0698 18.2222 18.3334V17.889H10.6667V21.889H9.22222C9.13382 21.889 9.04903 21.9241 8.98652 21.9866C8.92401 22.0491 8.88889 22.1339 8.88889 22.2223V25.1112C8.88889 25.1996 8.92401 25.2844 8.98652 25.3469C9.04903 25.4094 9.13382 25.4446 9.22222 25.4446H12.1111C12.1995 25.4446 12.2843 25.4094 12.3468 25.3469C12.4093 25.2844 12.4444 25.1996 12.4444 25.1112V23.6668H28.4444V25.1112C28.4444 25.1996 28.4796 25.2844 28.5421 25.3469C28.6046 25.4094 28.6894 25.4446 28.7778 25.4446H31.6667C31.7551 25.4446 31.8399 25.4094 31.9024 25.3469C31.9649 25.2844 32 25.1996 32 25.1112V22.2223C32 22.1339 31.9649 22.0491 31.9024 21.9866C31.8399 21.9241 31.7551 21.889 31.6667 21.889H30.2222V13.0001Z" fill="#0165E1" /></svg>