<svg width="32" height="28" viewBox="0 0 32 28" fill="none" xmlns="http://www.w3.org/2000/svg">
 <path  d= "M30 6V4H31.25C31.6642 4 32 3.66419 32 3.25V0.75C32 0.335813 31.6642 0 31.25 0H28.75C28.3358 0 28 0.335813 28 0.75V2H4V0.75C4 0.335813 3.66419 0 3.25 0H0.75C0.335813 0 0 0.335813 0 0.75V3.25C0 3.66419 0.335813 4 0.75 4H2V24H0.75C0.335813 24 0 24.3358 0 24.75V27.25C0 27.6642 0.335813 28 0.75 28H3.25C3.66419 28 4 27.6642 4 27.25V26H28V27.25C28 27.6642 28.3358 28 28.75 28H31.25C31.6642 28 32 27.6642 32 27.25V24.75C32 24.3358 31.6642 24 31.25 24H30V6ZM6 15.25V6.75C6 6.33581 6.33581 6 6.75 6H17.25C17.6642 6 18 6.33581 18 6.75V15.25C18 15.6642 17.6642 16 17.25 16H6.75C6.33581 16 6 15.6642 6 15.25ZM26 21.25C26 21.6642 25.6642 22 25.25 22H14.75C14.3358 22 14 21.6642 14 21.25V18H18.5C19.3284 18 20 17.3284 20 16.5V12H25.25C25.6642 12 26 12.3358 26 12.75V21.25Z" fill="#0165E1" /></svg>