<svg width="32" height="32" viewBox="0 0 32 32" fill="none" xmlns="http://www.w3.org/2000/svg">
 <path  d= "M0.280762 3.92982V1.12281C0.280762 0.502667 0.783428 0 1.40357 0H30.5966C31.2167 0 31.7194 0.502667 31.7194 1.12281V3.92982C31.7194 4.54996 31.2167 5.05263 30.5966 5.05263H1.40357C0.783428 5.05263 0.280762 4.54996 0.280762 3.92982ZM14.8773 14.0351H30.5966C31.2167 14.0351 31.7194 13.5324 31.7194 12.9123V10.1053C31.7194 9.48512 31.2167 8.98246 30.5966 8.98246H14.8773C14.2571 8.98246 13.7544 9.48512 13.7544 10.1053V12.9123C13.7544 13.5324 14.2571 14.0351 14.8773 14.0351ZM1.40357 32H30.5966C31.2167 32 31.7194 31.4973 31.7194 30.8772V28.0702C31.7194 27.45 31.2167 26.9474 30.5966 26.9474H1.40357C0.783428 26.9474 0.280762 27.45 0.280762 28.0702V30.8772C0.280762 31.4973 0.783428 32 1.40357 32ZM14.8773 23.0175H30.5966C31.2167 23.0175 31.7194 22.5149 31.7194 21.8947V19.0877C31.7194 18.4676 31.2167 17.9649 30.5966 17.9649H14.8773C14.2571 17.9649 13.7544 18.4676 13.7544 19.0877V21.8947C13.7544 22.5149 14.2571 23.0175 14.8773 23.0175ZM0.609674 16.7939L7.34652 23.5296C8.05157 24.2349 9.26322 23.735 9.26322 22.7357V9.26372C9.26322 8.25817 8.04743 7.7687 7.34652 8.46982L0.609674 15.2061C0.171148 15.6446 0.171148 16.3554 0.609674 16.7939Z" fill="#0165E1" /></svg>