<svg width="32" height="32" viewBox="0 0 32 32" fill="none" xmlns="http://www.w3.org/2000/svg">
 <path  d= "M26 8V2C26 0.895625 25.1044 0 24 0H2C0.895625 0 0 0.895625 0 2V8C0 9.10437 0.895625 10 2 10H24C25.1044 10 26 9.10437 26 8ZM28 4V12C28 13.1044 27.1044 14 26 14H16C13.7906 14 12 15.7906 12 18V20C10.8956 20 10 20.8956 10 22V30C10 31.1044 10.8956 32 12 32H16C17.1044 32 18 31.1044 18 30V22C18 20.8956 17.1044 20 16 20V18H26C29.3137 18 32 15.3138 32 12V8C32 5.79063 30.2094 4 28 4Z" fill="#0165E1" /></svg>