<svg width="32" height="32" viewBox="0 0 32 32" fill="none" xmlns="http://www.w3.org/2000/svg">
 <path  d= "M10.4392 19.3339C7.93172 19.4951 5.65614 20.4501 4.36491 23.8525C4.21804 24.2406 3.86492 24.4763 3.45306 24.4763C2.7587 24.4763 0.611863 22.7469 0 22.3294C0.000624988 27.4762 2.3712 31.9999 8.00047 31.9999C12.7416 31.9999 16.0003 29.2643 16.0003 24.4881C16.0003 24.2938 15.9597 24.1081 15.9397 23.9175L10.4392 19.3339ZM28.6182 0.000488281C27.6707 0.000488281 26.7826 0.419855 26.1051 1.02859C13.3297 12.4409 12.0004 12.709 12.0004 16.0683C12.0004 16.9245 12.2035 17.7408 12.546 18.487L16.5347 21.8107C16.9853 21.9232 17.4497 22.0001 17.934 22.0001C21.8158 22.0001 24.0658 19.1582 31.1313 5.97162C31.5925 5.07476 32 4.10603 32 3.0973C32 1.29046 30.375 0.000488281 28.6182 0.000488281Z" fill="#0165E1" /></svg>