<svg width="32" height="32" viewBox="0 0 32 32" fill="none" xmlns="http://www.w3.org/2000/svg">
 <path  d= "M12.7683 0.314698C6.55564 1.52723 1.54927 6.5211 0.324245 12.715C-1.98831 24.4028 8.55569 33.1155 16.4996 31.8842C19.0747 31.4842 20.3372 28.4716 19.1559 26.1528C17.7122 23.3152 19.7747 20.0027 22.9623 20.0027H27.9437C30.1812 20.0027 31.9937 18.1526 32 15.9213C31.9688 6.07108 23.006 -1.6791 12.7683 0.314698ZM5.99938 20.0027C4.8931 20.0027 3.99933 19.1089 3.99933 18.0026C3.99933 16.8963 4.8931 16.0026 5.99938 16.0026C7.10566 16.0026 7.99943 16.8963 7.99943 18.0026C7.99943 19.1089 7.10566 20.0027 5.99938 20.0027ZM7.99943 12.0025C6.89315 12.0025 5.99938 11.1087 5.99938 10.0024C5.99938 8.89615 6.89315 8.00238 7.99943 8.00238C9.1057 8.00238 9.99948 8.89615 9.99948 10.0024C9.99948 11.1087 9.1057 12.0025 7.99943 12.0025ZM15.9996 8.00238C14.8933 8.00238 13.9996 7.10861 13.9996 6.00233C13.9996 4.89606 14.8933 4.00229 15.9996 4.00229C17.1059 4.00229 17.9997 4.89606 17.9997 6.00233C17.9997 7.10861 17.1059 8.00238 15.9996 8.00238ZM23.9998 12.0025C22.8935 12.0025 21.9998 11.1087 21.9998 10.0024C21.9998 8.89615 22.8935 8.00238 23.9998 8.00238C25.1061 8.00238 25.9999 8.89615 25.9999 10.0024C25.9999 11.1087 25.1061 12.0025 23.9998 12.0025Z" fill="#0165E1" /></svg>