<svg width="32" height="26" viewBox="0 0 32 26" fill="none" xmlns="http://www.w3.org/2000/svg">
 <path  d= "M7.2 13H24.8C25.24 13 25.6 12.64 25.6 12.2V0.999951C25.6 0.559951 25.24 0.199951 24.8 0.199951H19.2V6.59995L16 4.99995L12.8 6.59995V0.199951H7.2C6.76 0.199951 6.4 0.559951 6.4 0.999951V12.2C6.4 12.64 6.76 13 7.2 13ZM31.2 19.4C31.64 19.4 32 19.04 32 18.6V17C32 16.56 31.64 16.2 31.2 16.2H0.8C0.36 16.2 0 16.56 0 17V18.6C0 19.04 0.36 19.4 0.8 19.4H3.2V22.6H0.8C0.36 22.6 0 22.96 0 23.4V25C0 25.44 0.36 25.8 0.8 25.8H31.2C31.64 25.8 32 25.44 32 25V23.4C32 22.96 31.64 22.6 31.2 22.6H28.8V19.4H31.2ZM14.4 22.6H6.4V19.4H14.4V22.6ZM25.6 22.6H17.6V19.4H25.6V22.6Z" fill="#0165E1" /></svg>