<svg width="28" height="32" viewBox="0 0 28 32" fill="none" xmlns="http://www.w3.org/2000/svg">
 <path  d= "M2.70286 29.1339C-0.949013 25.3658 -0.88095 19.2894 2.78948 15.5351L15.8995 2.12503C18.6692 -0.708218 23.1714 -0.708468 25.9414 2.12503C28.6845 4.9309 28.6878 9.45808 25.9414 12.2673L14.5133 23.9455C12.6474 25.8541 9.59879 25.8274 7.76448 23.8831C5.99729 22.01 6.05398 19.0411 7.85522 17.1986L16.8391 8.02139C17.2255 7.62677 17.8586 7.62002 18.2533 8.00633L19.6821 9.40502C20.0768 9.79139 20.0835 10.4245 19.6971 10.8191L10.7142 19.9954C10.4059 20.3108 10.3869 20.8347 10.6737 21.1387C10.9469 21.4283 11.3765 21.4331 11.6542 21.149L23.0822 9.47083C24.308 8.21696 24.308 6.17552 23.0815 4.92096C21.8822 3.69428 19.9592 3.69365 18.7594 4.92096L5.64935 18.3309C3.47667 20.5534 3.44317 24.1509 5.57492 26.3505C7.70054 28.5438 11.1365 28.5466 13.266 26.3684L24.0198 15.3684C24.4058 14.9735 25.0389 14.9664 25.4339 15.3524L26.8637 16.7502C27.2586 17.1363 27.2658 17.7694 26.8797 18.1643L16.126 29.1642C12.4025 32.9728 6.37954 32.9277 2.70286 29.1339Z" fill="#0165E1" /></svg>