<svg width="30" height="32" viewBox="0 0 30 32" fill="none" xmlns="http://www.w3.org/2000/svg">
 <path  d= "M28.1428 0H11.6808C5.3534 0 0.146038 5.09536 0.142824 11.4227C0.139681 17.7372 5.25761 22.8571 11.5714 22.8571V30.2857C11.5714 31.2325 12.3389 32 13.2857 32H15.5714C16.5182 32 17.2857 31.2325 17.2857 30.2857V5.71429H19.5714V30.2857C19.5714 31.2325 20.3389 32 21.2857 32H23.5714C24.5182 32 25.2857 31.2325 25.2857 30.2857V5.71429H28.1428C29.0896 5.71429 29.8571 4.94679 29.8571 4V1.71429C29.8571 0.7675 29.0896 0 28.1428 0Z" fill="#0165E1" /></svg>