<svg width="32" height="32" viewBox="0 0 32 32" fill="none" xmlns="http://www.w3.org/2000/svg">
 <path  d= "M31.9936 10.9374C31.4248 6.21244 27.0936 2.66247 22.0999 1.01874C24.3749 3.48121 25.9999 7.30617 25.9999 11.9999H27.7561L20.4687 20.0935C20.3125 20.056 20.1687 19.9998 20 19.9998H17V11.9999H23.9999C23.9999 4.79995 19.6937 0 16 0C12.3063 0 8.00008 4.79995 8.00008 11.9999H15V19.9998H12C11.8313 19.9998 11.6875 20.056 11.5313 20.0935L4.24387 11.9999H6.0001C6.0001 7.30617 7.62509 3.48121 9.90006 1.01874C4.90637 2.66872 0.575161 6.21869 0.0064164 10.9374C-0.0623329 11.5061 0.431412 11.9999 1.00641 11.9999H1.55015L10.0938 21.4935C10.0501 21.656 9.99381 21.8185 9.99381 21.9998V29.9997C9.99381 31.1059 10.8876 31.9997 11.9938 31.9997H19.9937C21.0999 31.9997 21.9937 31.1059 21.9937 29.9997V21.9998C21.9937 21.8185 21.9374 21.6623 21.8937 21.4935L30.4436 11.9999H30.9873C31.5686 11.9999 32.0623 11.5124 31.9936 10.9374Z" fill="#0165E1" /></svg>