<svg width="32" height="32" viewBox="0 0 32 32" fill="none" xmlns="http://www.w3.org/2000/svg">
 <path  d= "M28.5714 0H3.42857C1.53571 0 0 1.53571 0 3.42857V28.5714C0 30.4643 1.53571 32 3.42857 32H28.5714C30.4643 32 32 30.4643 32 28.5714V3.42857C32 1.53571 30.4643 0 28.5714 0ZM17.1429 20.5714H13.7143V24C13.7143 24.6286 13.2 25.1429 12.5714 25.1429H10.2857C9.65714 25.1429 9.14286 24.6286 9.14286 24V8C9.14286 7.37143 9.65714 6.85714 10.2857 6.85714H17.1429C20.9214 6.85714 24 9.93571 24 13.7143C24 17.4929 20.9214 20.5714 17.1429 20.5714ZM17.1429 11.4286H13.7143V16H17.1429C18.4 16 19.4286 14.9714 19.4286 13.7143C19.4286 12.4571 18.4 11.4286 17.1429 11.4286Z" fill="#0165E1" /></svg>