<svg width="28" height="32" viewBox="0 0 28 32" fill="none" xmlns="http://www.w3.org/2000/svg">
 <path  d= "M8.10125 11H10.5444C10.6375 9.31063 10.9531 7.79062 11.4325 6.59937C9.70062 7.42687 8.43125 9.04875 8.10125 11ZM8.10125 13C8.43187 14.9513 9.70062 16.5731 11.4325 17.4006C10.9525 16.2094 10.6375 14.6894 10.5444 13H8.10125ZM14 17.9181C14.4806 17.4525 15.2981 15.7669 15.4644 13H12.535C12.7019 15.7662 13.5194 17.4525 14 17.9181ZM12.5356 11H15.465C15.2987 8.23375 14.4812 6.5475 14.0006 6.08187C13.5194 6.5475 12.7019 8.23375 12.5356 11ZM16.5675 17.4006C18.2994 16.5731 19.5688 14.9513 19.8988 13H17.4556C17.3625 14.6894 17.0475 16.2094 16.5675 17.4006ZM26 0H4C1.79063 0 0 1.79063 0 4V28C0 30.2094 1.79063 32 4 32H26C27.1044 32 28 31.1044 28 30V2C28 0.895625 27.1044 0 26 0ZM21 26H7C6.45 26 6 25.55 6 25C6 24.45 6.45 24 7 24H21C21.55 24 22 24.45 22 25C22 25.55 21.55 26 21 26ZM14 20C9.58187 20 6 16.4181 6 12C6 7.58187 9.58187 4 14 4C18.4181 4 22 7.58187 22 12C22 16.4181 18.4181 20 14 20ZM16.5675 6.59937C17.0475 7.79062 17.3625 9.31063 17.4556 11H19.8988C19.5688 9.04875 18.2994 7.42687 16.5675 6.59937Z" fill="#0165E1" /></svg>