<svg width="28" height="32" viewBox="0 0 28 32" fill="none" xmlns="http://www.w3.org/2000/svg">
 <path  d= "M8 11.5C8 9.57006 9.57012 8 11.5 8H20V3.5C20 2.67156 19.3284 2 18.5 2H13.4619C12.7691 0.805625 11.4773 0 10 0C8.52269 0 7.23088 0.805625 6.53813 2H1.5C0.671562 2 0 2.67156 0 3.5V24.5C0 25.3284 0.671562 26 1.5 26H8V11.5ZM10 2.5C10.8284 2.5 11.5 3.17156 11.5 4C11.5 4.82844 10.8284 5.5 10 5.5C9.17156 5.5 8.5 4.82844 8.5 4C8.5 3.17156 9.17156 2.5 10 2.5ZM21.5 18H28V30.5C28 31.3284 27.3284 32 26.5 32H11.5C10.6716 32 10 31.3284 10 30.5V11.5C10 10.6716 10.6716 10 11.5 10H20V16.5C20 17.325 20.675 18 21.5 18ZM28 15.6213V16H22V10H22.3787C22.7765 10 23.158 10.158 23.4393 10.4393L27.5606 14.5606C27.8419 14.8419 28 15.2235 28 15.6213Z" fill="#0165E1" /></svg>