<svg width="32" height="32" viewBox="0 0 32 32" fill="none" xmlns="http://www.w3.org/2000/svg">
 <path  d= "M10.2857 32H3.42857C1.53571 32 0 30.4643 0 28.5714V3.42857C0 1.53571 1.53571 0 3.42857 0H10.2857C12.1786 0 13.7143 1.53571 13.7143 3.42857V28.5714C13.7143 30.4643 12.1786 32 10.2857 32ZM32 28.5714V3.42857C32 1.53571 30.4643 0 28.5714 0H21.7143C19.8214 0 18.2857 1.53571 18.2857 3.42857V28.5714C18.2857 30.4643 19.8214 32 21.7143 32H28.5714C30.4643 32 32 30.4643 32 28.5714Z" fill="#0165E1" /></svg>