<svg width="32" height="28" viewBox="0 0 32 28" fill="none" xmlns="http://www.w3.org/2000/svg">
 <path  d= "M5.32694 18.6849C2.25 18.6849 0 15.112 0 12.4688C0 10.7005 1 8.84112 3.09612 8.84112C6.17306 8.84112 8.42306 12.4323 8.42306 15.0755C8.42306 16.8438 7.44231 18.6849 5.32694 18.6849ZM27.0769 25.3203C27.0769 27.6354 25.0769 28 23.1154 28C20.5384 28 18.4615 26.3594 16 26.3594C13.4231 26.3594 11.2308 27.9818 8.44231 27.9818C6.57687 27.9818 4.92306 27.3802 4.92306 25.3203C4.92306 21 11.2885 14.5833 16 14.5833C20.7115 14.5833 27.0769 21.0182 27.0769 25.3203ZM11.4039 10.737C8.28844 10.737 6.40387 7.01825 6.40387 4.46619C6.40387 2.4245 7.51925 0 10 0C13.1346 0 15 3.71875 15 6.27081C15 8.3125 13.8846 10.737 11.4039 10.737ZM17 6.27081C17 3.71875 18.8654 0 22 0C24.4808 0 25.5962 2.4245 25.5962 4.46613C25.5962 7.01819 23.7116 10.7369 20.5961 10.7369C18.1154 10.737 17 8.3125 17 6.27081ZM32 12.4688C32 15.112 29.75 18.6849 26.6731 18.6849C24.5576 18.6849 23.5769 16.8438 23.5769 15.0755C23.5769 12.4323 25.8269 8.84112 28.9039 8.84112C31 8.84112 32 10.7005 32 12.4688Z" fill="#0165E1" /></svg>