<svg width="32" height="32" viewBox="0 0 32 32" fill="none" xmlns="http://www.w3.org/2000/svg">
 <path  d= "M4.94876 17.6839C4.65419 17.7821 4.38652 17.9475 4.16696 18.1671C3.94739 18.3867 3.78196 18.6543 3.68376 18.9489L0 30.0002L0.293126 30.2933L6.09876 24.4877C6.05751 24.3277 6.00064 24.1733 6.00064 24.0002C6.00064 22.8958 6.89626 22.0002 8.00064 22.0002C9.10502 22.0002 10.0006 22.8958 10.0006 24.0002C10.0006 25.1045 9.10502 26.0002 8.00064 26.0002C7.82751 26.0002 7.67314 25.9433 7.51314 25.902L1.7075 31.7077L2 32.0002L13.0513 28.3164C13.3459 28.2183 13.6136 28.0529 13.8332 27.8333C14.0528 27.6138 14.2182 27.346 14.3163 27.0514L16.3832 21.797L10.2031 15.617L4.94876 17.6839ZM23.0782 1.77012L11.6338 14.2383L17.7494 20.3539L30.2176 8.9095C35.5251 4.21762 27.7332 -3.49614 23.0782 1.77012Z" fill="#0165E1" /></svg>