<svg width="32" height="32" viewBox="0 0 32 32" fill="none" xmlns="http://www.w3.org/2000/svg">
 <path  d= "M31.1211 4.63615L27.3643 0.879372C26.1925 -0.292473 24.2919 -0.292473 23.1201 0.879372L19.5858 4.41365L27.5868 12.4147L31.1211 8.88041C32.293 7.70857 32.293 5.80862 31.1211 4.63615ZM15.6965 3.35306C14.7203 2.37683 13.1378 2.37683 12.1616 3.35306L4.73806 10.7772C4.34744 11.1679 4.34744 11.801 4.73806 12.191L6.15239 13.6053C6.54301 13.9959 7.17612 13.9959 7.56673 13.6053L13.9303 7.24171L15.3447 8.65542L5.8724 18.127C2.59145 21.408 0.524479 25.7077 0.0113035 30.3192L0.00942853 30.3336C-0.0968187 31.2886 0.710035 32.0961 1.66501 31.9904C6.28247 31.4806 10.5885 29.4129 13.8734 26.1281L26.1725 13.829L20.9995 8.65604L15.6965 3.35306Z" fill="#0165E1" /></svg>