<svg width="32" height="32" viewBox="0 0 32 32" fill="none" xmlns="http://www.w3.org/2000/svg">
 <path  d= "M8.53746 8.67449C7.90975 8.85191 7.33496 9.18015 6.86316 9.63059C6.39136 10.081 6.03688 10.64 5.8306 11.2589L0 28.75L0.918121 29.6681L10.2999 20.2863C10.1131 19.8951 9.99995 19.4626 9.99995 19.0001C9.99995 17.3432 11.3431 16.0001 12.9999 16.0001C14.6568 16.0001 15.9999 17.3432 15.9999 19.0001C15.9999 20.6569 14.6568 22 12.9999 22C12.5374 22 12.1049 21.8869 11.7137 21.7001L2.33186 31.0819L3.24998 32L20.7411 26.1694C21.36 25.9631 21.919 25.6086 22.3694 25.1368C22.8199 24.665 23.1481 24.0902 23.3255 23.4625L25.9999 14.0001L17.9999 6.00013L8.53746 8.67449ZM31.1211 4.63576L27.3642 0.878902C26.1924 -0.292967 24.2918 -0.292967 23.1199 0.878902L19.5855 4.41326L27.5867 12.4145L31.1211 8.88011C32.293 7.70824 32.293 5.80825 31.1211 4.63576Z" fill="#0165E1" /></svg>