<svg width="32" height="32" viewBox="0 0 32 32" fill="none" xmlns="http://www.w3.org/2000/svg">
 <path  d= "M6.84146 15.2529L15.2526 6.84302L12.4951 4.08556L8.64019 7.94051C8.59422 7.98657 8.53961 8.02311 8.4795 8.04804C8.41939 8.07297 8.35496 8.08581 8.28988 8.08581C8.22481 8.08581 8.16037 8.07297 8.10026 8.04804C8.04015 8.02311 7.98554 7.98657 7.93957 7.94051L7.23896 7.23989C7.04521 7.04615 7.04521 6.7324 7.23896 6.53928L11.0939 2.68434L8.99143 0.581241C8.21707 -0.193122 6.96209 -0.193122 6.18772 0.581241L0.580933 6.18803C-0.192806 6.9624 -0.193431 8.21738 0.580933 8.99174L6.84146 15.2529ZM31.1205 7.95301C32.293 6.78052 32.2923 4.87993 31.1205 3.70745L28.2924 0.879362C27.1199 -0.293121 25.2187 -0.293121 24.0456 0.879362L21.1694 3.75494L28.2443 10.8298L31.1205 7.95301ZM19.755 5.16992L1.1928 23.7297L0.0203159 30.4445C-0.137807 31.3502 0.650932 32.1389 1.55717 31.9795L8.27269 30.802L26.8299 12.2442L19.755 5.16992ZM31.4192 23.009L29.3168 20.9066L25.4618 24.7615C25.2681 24.9553 24.9543 24.9553 24.7612 24.7615L24.0606 24.0609C23.8675 23.8671 23.8675 23.5534 24.0606 23.3603L27.9155 19.5053L25.1568 16.7466L16.7457 25.1565L23.0087 31.4189C23.7831 32.1933 25.0381 32.1933 25.8124 31.4189L31.4192 25.8127C32.1936 25.0384 32.1936 23.7834 31.4192 23.009Z" fill="#0165E1" /></svg>