<svg width="32" height="32" viewBox="0 0 32 32" fill="none" xmlns="http://www.w3.org/2000/svg">
 <path  d= "M31.1187 8.87697L28.2373 11.7584C27.9436 12.0521 27.4685 12.0521 27.1748 11.7584L20.237 4.82054C19.9432 4.52677 19.9432 4.05175 20.237 3.75799L23.1183 0.876603C24.2871 -0.292201 26.1872 -0.292201 27.3623 0.876603L31.1187 4.63303C32.2938 5.80183 32.2938 7.70192 31.1187 8.87697ZM17.7618 6.2331L1.34858 22.6464L0.0235201 30.2405C-0.157738 31.2655 0.736053 32.153 1.7611 31.978L9.3552 30.6467L25.7685 14.2335C26.0622 13.9397 26.0622 13.4647 25.7685 13.1709L18.8306 6.2331C18.5306 5.93934 18.0556 5.93934 17.7618 6.2331ZM7.75513 21.24C7.41136 20.8963 7.41136 20.3463 7.75513 20.0025L17.3806 10.377C17.7243 10.0333 18.2744 10.0333 18.6181 10.377C18.9619 10.7208 18.9619 11.2708 18.6181 11.6146L8.99268 21.24C8.64892 21.5838 8.09889 21.5838 7.75513 21.24ZM5.49877 26.4965H8.49891V28.7654L4.46748 29.4717L2.52364 27.5278L3.22992 23.4964H5.49877V26.4965Z" fill="#0165E1" /></svg>