<svg width="32" height="26" viewBox="0 0 32 26" fill="none" xmlns="http://www.w3.org/2000/svg">
 <path  d= "M6.40045 5.00046C7.72539 5.00046 8.80034 3.92551 8.80034 2.60057C8.80034 1.27563 7.72539 0.200684 6.40045 0.200684C5.07551 0.200684 4.00056 1.27563 4.00056 2.60057C4.00056 3.92551 5.07551 5.00046 6.40045 5.00046ZM25.5995 5.00046C26.9245 5.00046 27.9994 3.92551 27.9994 2.60057C27.9994 1.27563 26.9245 0.200684 25.5995 0.200684C24.2746 0.200684 23.1997 1.27563 23.1997 2.60057C23.1997 3.92551 24.2746 5.00046 25.5995 5.00046ZM31.8843 23.6046L29.6844 18.1048L27.6295 20.4247L27.5295 21.3347L28.9144 24.7945C29.1644 25.4195 29.7644 25.7995 30.3993 25.7995C30.5993 25.7995 30.7993 25.7645 30.9943 25.6845C31.8143 25.3545 32.2142 24.4245 31.8843 23.6046ZM30.1743 13.1151L29.2494 9.10527C29.0194 8.10531 28.3194 7.26535 27.3745 6.86037C26.4495 6.46039 25.4246 6.52539 24.5696 7.02536C23.4347 7.69533 22.5847 8.75028 22.1647 9.99522L21.5997 11.6901L20.7998 12.2001V7.40035C20.7998 6.96037 20.4398 6.60038 19.9998 6.60038H12.0002C11.5602 6.60038 11.2002 6.96037 11.2002 7.40035V12.2001L10.3953 11.6901L9.83029 9.99522C9.41531 8.74528 8.56035 7.69533 7.4254 7.02536C6.56544 6.52539 5.54549 6.46039 4.62053 6.86037C3.67558 7.26535 2.97561 8.10531 2.74562 9.10527L1.82566 13.1151C1.59567 14.115 1.86066 15.175 2.54563 15.9499L5.90547 19.7448L6.41045 24.3746C6.50044 25.1895 7.19041 25.7995 8.00037 25.7995C8.06037 25.7995 8.11537 25.7945 8.17537 25.7895C9.05533 25.6945 9.6853 24.9045 9.5903 24.0246L9.08532 19.3848C9.01033 18.7348 8.74034 18.1298 8.30536 17.6349L6.14046 15.185L7.02042 11.6701L7.3604 12.6901C7.56539 13.3151 7.95538 13.86 8.58535 14.32L11.1402 15.9449C11.3702 16.0899 11.7452 16.1749 12.0002 16.1949H19.9998C20.2548 16.1749 20.6298 16.0899 20.8598 15.9449L23.4147 14.32C24.0446 13.86 24.4346 13.3201 24.6396 12.6901L24.9796 11.6701L25.8595 15.185L23.6946 17.6349C23.2597 18.1298 22.9897 18.7348 22.9147 19.3848L22.4097 24.0246C22.3147 24.9045 22.9497 25.6945 23.8246 25.7895C23.8846 25.7945 23.9396 25.7995 23.9996 25.7995C24.8046 25.7995 25.4996 25.1945 25.5896 24.3746L26.0945 19.7448L29.4544 15.9499C30.1343 15.175 30.4043 14.115 30.1743 13.1151ZM2.31564 18.1048L0.115743 23.6046C-0.214241 24.4245 0.18574 25.3545 1.0057 25.6845C1.84566 26.0145 2.76062 25.5995 3.0856 24.7945L4.47054 21.3347L4.37054 20.4247L2.31564 18.1048Z" fill="#0165E1" /></svg>