<svg width="32" height="32" viewBox="0 0 32 32" fill="none" xmlns="http://www.w3.org/2000/svg">
 <path  d= "M9.10432 9.1048C11.1868 7.02232 11.1868 3.64484 9.10432 1.56235C7.02183 -0.520133 3.64435 -0.520133 1.56186 1.56235C-0.520622 3.64484 -0.520622 7.02232 1.56186 9.1048C3.64518 11.1881 7.02183 11.1881 9.10432 9.1048ZM30.4375 22.8955C28.355 20.8131 24.9775 20.8131 22.8951 22.8955C20.8126 24.978 20.8126 28.3555 22.8951 30.438C24.9775 32.5205 28.355 32.5205 30.4375 30.438C32.5208 28.3555 32.5208 24.9789 30.4375 22.8955ZM30.2758 3.60984L28.3909 1.72485C27.3492 0.683192 25.6609 0.683192 24.62 1.72485L1.72436 24.6205C0.682704 25.6622 0.682704 27.3505 1.72436 28.3913L3.60935 30.2763C4.65101 31.318 6.33933 31.318 7.38016 30.2763L30.2758 7.38065C31.3175 6.33982 31.3175 4.6515 30.2758 3.60984Z" fill="#0165E1" /></svg>