<svg width="28" height="32" viewBox="0 0 28 32" fill="none" xmlns="http://www.w3.org/2000/svg">
 <path  d= "M7 14C10.8687 14 14 10.8687 14 7C14 3.13125 10.8687 0 7 0C3.13125 0 0 3.13125 0 7C0 10.8687 3.13125 14 7 14ZM7 4C8.65625 4 10 5.34375 10 7C10 8.65625 8.65625 10 7 10C5.34375 10 4 8.65625 4 7C4 5.34375 5.34375 4 7 4ZM21 18C17.1313 18 14 21.1313 14 25C14 28.8687 17.1313 32 21 32C24.8687 32 28 28.8687 28 25C28 21.1313 24.8687 18 21 18ZM21 28C19.3438 28 18 26.6562 18 25C18 23.3438 19.3438 22 21 22C22.6562 22 24 23.3438 24 25C24 26.6562 22.6562 28 21 28ZM24.5187 0.0125L26.4937 0.00625C27.7062 0 28.425 1.36875 27.725 2.36875L4.8375 31.35C4.6995 31.5468 4.51613 31.7075 4.30291 31.8185C4.08968 31.9294 3.85287 31.9874 3.6125 31.9875L1.525 31.9937C0.30625 31.9937 -0.40625 30.625 0.29375 29.6313L23.2938 0.65C23.575 0.25 24.0312 0.0125 24.5187 0.0125Z" fill="#0165E1" /></svg>