<svg width="32" height="32" viewBox="0 0 32 32" fill="none" xmlns="http://www.w3.org/2000/svg">
 <path  d= "M28.5714 0H3.42857C1.535 0 0 1.535 0 3.42857V28.5714C0 30.465 1.535 32 3.42857 32H28.5714C30.465 32 32 30.465 32 28.5714V3.42857C32 1.535 30.465 0 28.5714 0ZM6.71429 27.4286C6.21193 27.4286 5.78164 27.0805 5.67029 26.5981L4.599 21.9552C4.54251 21.7104 4.57384 21.4535 4.68752 21.2295C4.8012 21.0054 4.99 20.8285 5.22093 20.7295L10.2208 18.5867C10.4344 18.4952 10.6719 18.4756 10.8976 18.5308C11.1233 18.5861 11.3249 18.7132 11.4721 18.8931L13.6861 21.5991C17.1821 19.9589 19.9931 17.1093 21.5991 13.6863L18.8929 11.4722C18.7131 11.3251 18.586 11.1234 18.5307 10.8978C18.4754 10.6721 18.4951 10.4345 18.5866 10.2209L20.7294 5.22107C20.8284 4.99015 21.0054 4.80135 21.2294 4.68766C21.4535 4.57398 21.7103 4.54265 21.9551 4.59914L26.598 5.67043C26.8341 5.72486 27.0448 5.85771 27.1956 6.04729C27.3465 6.23688 27.4286 6.47201 27.4286 6.71429C27.4286 18.1637 18.1468 27.4286 6.71429 27.4286Z" fill="#0165E1" /></svg>