<svg width="24" height="32" viewBox="0 0 24 32" fill="none" xmlns="http://www.w3.org/2000/svg">
 <path  d= "M6.08332 31.6854C-2.0338 23.5682 -2.02174 10.4196 6.08332 2.31456C6.43945 1.95843 6.99126 1.90006 7.41226 2.16318L11.4633 4.69524C11.6769 4.82874 11.8368 5.03306 11.9151 5.27249C11.9933 5.51192 11.9849 5.77124 11.8914 6.00512L9.86588 11.0689C9.77935 11.2852 9.62485 11.4676 9.42566 11.5884C9.22647 11.7092 8.99339 11.7621 8.76157 11.7389L5.27345 11.3901C3.95776 15.0314 3.9852 19.0446 5.27345 22.6098L8.76163 22.261C8.99345 22.2378 9.22653 22.2906 9.42572 22.4115C9.62491 22.5323 9.77942 22.7146 9.86594 22.9309L11.8914 27.9948C11.985 28.2287 11.9934 28.488 11.9151 28.7274C11.8369 28.9669 11.677 29.1712 11.4634 29.3047L7.41232 31.8367C7.20631 31.9655 6.96275 32.0206 6.72139 31.9931C6.48003 31.9656 6.2551 31.8571 6.08332 31.6854ZM15.4454 5.96705C16.1849 7.21999 16.1849 8.78006 15.4454 10.033C15.1985 10.4513 14.6261 10.5304 14.2755 10.1943L13.9021 9.83643C13.6576 9.60218 13.6025 9.23505 13.7608 8.93581C13.9131 8.6474 13.9927 8.32618 13.9927 8.00002C13.9927 7.67387 13.9131 7.35265 13.7608 7.06424C13.6024 6.76499 13.6576 6.39787 13.9021 6.16362L14.2755 5.80574C14.6261 5.46962 15.1985 5.54874 15.4454 5.96705ZM21.1821 0.267868C24.9408 4.74312 24.9378 11.2605 21.1821 15.7321C20.9024 16.0651 20.3989 16.0912 20.0851 15.7904L19.7227 15.4431C19.4377 15.1699 19.4116 14.7226 19.6646 14.4194C22.77 10.6983 22.7674 5.29862 19.6646 1.58056C19.4116 1.27743 19.4376 0.830055 19.7227 0.556868L20.0851 0.209555C20.3989 -0.091257 20.9024 -0.0650695 21.1821 0.267868ZM18.3088 3.07668C20.5619 5.97181 20.5656 10.0235 18.3088 12.9233C18.0344 13.2759 17.5153 13.314 17.1928 13.0048L16.8292 12.6561C16.5542 12.3924 16.5168 11.9627 16.7489 11.6604C18.4074 9.50018 18.4073 6.49968 16.7489 4.33955C16.5168 4.0373 16.5542 3.60762 16.8292 3.34387L17.1928 2.99518C17.5153 2.68599 18.0344 2.72412 18.3088 3.07668Z" fill="#0165E1" /></svg>