<svg width="32" height="26" viewBox="0 0 32 26" fill="none" xmlns="http://www.w3.org/2000/svg">
 <path  d= "M13.4085 19.2701L10.9285 16.2402C10.5885 15.8252 10.0185 15.6852 9.52848 15.8952L3.92851 18.2952C3.39351 18.5252 3.10351 19.1001 3.23351 19.6701L4.4335 24.8701C4.5585 25.4101 5.0385 25.8001 5.6035 25.8001C10.6385 25.8001 15.2884 24.1801 19.0884 21.4551L15.0884 18.3652C14.5435 18.6902 13.9835 19.0002 13.4085 19.2701ZM31.6884 23.1051L23.7534 16.9752C26.8934 13.0202 28.7984 8.04521 28.7984 2.60024C28.7984 2.04024 28.4134 1.55524 27.8684 1.43024L22.6684 0.230248C22.1034 0.100248 21.5234 0.395247 21.2934 0.925244L18.8934 6.52522C18.6834 7.01521 18.8234 7.59021 19.2384 7.92521L22.2684 10.4052C21.6584 11.7102 20.8734 12.9202 19.9684 14.0452L2.27352 0.370247C1.92352 0.100248 1.42352 0.160248 1.14852 0.510246L0.168527 1.77024C-0.101472 2.12024 -0.0414722 2.62024 0.308526 2.89023L29.7284 25.6251C30.0784 25.8951 30.5784 25.8351 30.8534 25.4851L31.8334 24.2201C32.1034 23.8801 32.0384 23.3751 31.6884 23.1051Z" fill="#0165E1" /></svg>