<svg width="32" height="30" viewBox="0 0 32 30" fill="none" xmlns="http://www.w3.org/2000/svg">
 <path  d= "M31.1111 13.2223H29.4721C28.9832 12.1111 28.2721 11.1277 27.3943 10.3055L28.4443 6.11089H26.6665C25.0331 6.11089 23.5886 6.86092 22.6107 8.01652C22.1885 7.9554 21.7718 7.88873 21.3329 7.88873H14.2215C9.92136 7.88873 6.33788 10.9444 5.51007 15.0001H3.10998C2.28773 15.0001 1.6377 14.2501 1.80437 13.4001C1.9266 12.7667 2.52107 12.3334 3.16554 12.3334H3.2211C3.40444 12.3334 3.55444 12.1833 3.55444 12V10.8889C3.55444 10.7055 3.40444 10.5555 3.2211 10.5555C1.6377 10.5555 0.226534 11.6889 0.0265264 13.2556C-0.217928 15.1557 1.25991 16.778 3.10998 16.778H5.33229C5.33229 19.6781 6.74346 22.2282 8.88798 23.8505V28.334C8.88798 28.8229 9.288 29.2229 9.77691 29.2229H13.3326C13.8215 29.2229 14.2215 28.8229 14.2215 28.334V25.6672H21.3329V28.334C21.3329 28.8229 21.7329 29.2229 22.2218 29.2229H25.7775C26.2664 29.2229 26.6665 28.8229 26.6665 28.334V23.8505C27.322 23.356 27.9054 22.7726 28.4054 22.1115H31.1111C31.6 22.1115 32 21.7115 32 21.2226V14.1112C32 13.6223 31.6 13.2223 31.1111 13.2223ZM23.9997 16.778C23.5108 16.778 23.1108 16.378 23.1108 15.889C23.1108 15.4001 23.5108 15.0001 23.9997 15.0001C24.4886 15.0001 24.8886 15.4001 24.8886 15.889C24.8886 16.378 24.4886 16.778 23.9997 16.778ZM14.2215 6.11089H21.3329C21.6329 6.11089 21.9274 6.13311 22.2163 6.15533C22.2163 6.13866 22.2218 6.12755 22.2218 6.11089C22.2218 3.16633 19.8329 0.777344 16.8883 0.777344C13.9437 0.777344 11.5548 3.16633 11.5548 6.11089C11.5548 6.22756 11.5825 6.33867 11.5881 6.45534C12.4326 6.23867 13.3104 6.11089 14.2215 6.11089Z" fill="#0165E1" /></svg>