<svg width="32" height="26" viewBox="0 0 32 26" fill="none" xmlns="http://www.w3.org/2000/svg">
 <path  d= "M6.22241 0.555176C2.78342 0.555176 0 3.33859 0 6.77759V19.2224C0 22.6614 2.78342 25.4448 6.22241 25.4448C9.6614 25.4448 12.4448 22.6614 12.4448 19.2224V6.77759C12.4448 3.33859 9.6614 0.555176 6.22241 0.555176ZM8.88916 13H3.55566V6.77759C3.55566 5.30532 4.75014 4.11084 6.22241 4.11084C7.69468 4.11084 8.88916 5.30532 8.88916 6.77759V13ZM16.6505 11.3499C16.4561 11.1555 16.1283 11.1777 15.9671 11.3944C13.4504 14.8667 13.7226 19.7335 16.8505 22.8614C19.9784 25.9893 24.8452 26.2615 28.3175 23.7448C28.5397 23.5836 28.5564 23.2559 28.362 23.0614L16.6505 11.3499ZM29.4176 10.2944C26.2897 7.16649 21.4229 6.89425 17.9505 9.411C17.7283 9.57211 17.7116 9.8999 17.9061 10.0944L29.6176 21.8058C29.812 22.0003 30.1398 21.978 30.3009 21.7614C32.8177 18.2835 32.551 13.4222 29.4176 10.2944Z" fill="#0165E1" /></svg>