<svg width="32" height="30" viewBox="0 0 32 30" fill="none" xmlns="http://www.w3.org/2000/svg">
 <path  d= "M26.6666 11.4445H20.3172L14.4783 1.22561C14.4004 1.08956 14.288 0.976494 14.1524 0.897862C14.0168 0.819229 13.8628 0.777822 13.706 0.777832H10.0671C9.47656 0.777832 9.05045 1.34283 9.21267 1.91061L11.9366 11.4445H6.2221L3.82209 8.24453C3.65431 8.02064 3.39042 7.88898 3.11098 7.88898H0.889301C0.310965 7.88898 -0.113481 8.43231 0.027075 8.99343L1.77764 15.0001L0.027075 21.0068C-0.113481 21.5679 0.310965 22.1113 0.889301 22.1113H3.11098C3.39098 22.1113 3.65431 21.9796 3.82209 21.7557L6.2221 18.5557H11.9366L9.21267 28.0891C9.05045 28.6568 9.47656 29.2224 10.0671 29.2224H13.706C14.0249 29.2224 14.3194 29.0513 14.4777 28.7746L20.3172 18.5557H26.6666C28.6305 18.5557 32 16.964 32 15.0001C32 13.0362 28.6305 11.4445 26.6666 11.4445Z" fill="#0165E1" /></svg>