<svg width="32" height="24" viewBox="0 0 32 24" fill="none" xmlns="http://www.w3.org/2000/svg">
 <path  d= "M31.1996 20.8H0.800127C0.358135 20.8 0.000142139 21.158 0.000142139 21.6V23.1999C0.000142139 23.6419 0.358135 23.9999 0.800127 23.9999H31.1996C31.6415 23.9999 31.9995 23.6419 31.9995 23.1999V21.6C31.9995 21.158 31.6415 20.8 31.1996 20.8ZM4.02757 15.4636C4.34156 15.8056 4.78255 15.9996 5.24404 15.9991L11.7709 15.9901C12.286 15.9894 12.7937 15.8674 13.2529 15.6341L27.8006 8.2517C29.1376 7.57322 30.3361 6.60474 31.1516 5.33626C32.067 3.91229 32.1665 2.88181 31.805 2.15382C31.4445 1.42533 30.5681 0.890343 28.8926 0.781346C27.4001 0.684347 25.9156 1.07734 24.5787 1.75533L19.6533 4.25478L8.71848 0.151858C8.587 0.0632881 8.43426 0.0114447 8.27603 0.00168756C8.11781 -0.00806955 7.95985 0.0246138 7.81849 0.0963585L4.53106 1.76483C3.99757 2.03532 3.86857 2.74731 4.27256 3.1913L12.0834 8.09621L6.92301 10.7152L3.30558 8.89169C3.18095 8.82886 3.04329 8.79621 2.90372 8.79638C2.76414 8.79656 2.62657 8.82955 2.50209 8.89269L0.495633 9.91117C-0.0263573 10.1762 -0.163855 10.8672 0.217138 11.3151L4.02757 15.4636Z" fill="#0165E1" /></svg>