<svg width="32" height="26" viewBox="0 0 32 26" fill="none" xmlns="http://www.w3.org/2000/svg">
 <path  d= "M31.2 22.6H0.8C0.358 22.6 0 22.958 0 23.4V25C0 25.442 0.358 25.8 0.8 25.8H31.2C31.642 25.8 32 25.442 32 25V23.4C32 22.958 31.642 22.6 31.2 22.6ZM2.2405 10.483L6.6775 14.483C7.04157 14.8117 7.47779 15.0503 7.951 15.1795L22.331 19.097C23.655 19.4575 25.059 19.533 26.381 19.165C27.8645 18.7515 28.553 18.1045 28.7435 17.3795C28.935 16.6545 28.657 15.744 27.575 14.6315C26.611 13.6405 25.3575 12.992 24.0335 12.6315L19.158 11.3035L14.14 1.71099C14.0645 1.42049 13.8425 1.19349 13.557 1.11549L10.3025 0.22899C9.7745 0.0849902 9.2575 0.49499 9.267 1.05099L11.663 9.26149L6.553 7.86949L5.1735 4.47549C5.077 4.23099 4.873 4.04699 4.6225 3.97899L2.636 3.43749C2.119 3.29649 1.6095 3.68749 1.6 4.23149L1.6115 9.32049C1.621 9.76599 1.913 10.1875 2.2405 10.483Z" fill="#0165E1" /></svg>