<svg width="32" height="32" viewBox="0 0 32 32" fill="none" xmlns="http://www.w3.org/2000/svg">
 <path  d= "M28.5714 0H3.42857C1.53571 0 0 1.53571 0 3.42857V28.5714C0 30.4643 1.53571 32 3.42857 32H28.5714C30.4643 32 32 30.4643 32 28.5714V3.42857C32 1.53571 30.4643 0 28.5714 0ZM26.2857 18C26.2857 18.4714 25.9 18.8571 25.4286 18.8571H18.8571V25.4286C18.8571 25.9 18.4714 26.2857 18 26.2857H14C13.5286 26.2857 13.1429 25.9 13.1429 25.4286V18.8571H6.57143C6.1 18.8571 5.71429 18.4714 5.71429 18V14C5.71429 13.5286 6.1 13.1429 6.57143 13.1429H13.1429V6.57143C13.1429 6.1 13.5286 5.71429 14 5.71429H18C18.4714 5.71429 18.8571 6.1 18.8571 6.57143V13.1429H25.4286C25.9 13.1429 26.2857 13.5286 26.2857 14V18Z" fill="#0165E1" /></svg>