<svg width="28" height="32" viewBox="0 0 28 32" fill="none" xmlns="http://www.w3.org/2000/svg">
 <path  d= "M16.7143 30.5352C16.3929 31.7233 15.1786 32 14 32C12.8214 32 11.6071 31.7233 11.2858 30.5352C10.8079 28.7584 10 24.3061 10 22.2344C10 20.0371 11.9464 19.5 14 19.5C16.0536 19.5 18 20.0371 18 22.2344C18 24.2937 17.1956 28.7456 16.7143 30.5352ZM9.80419 18.0346C8.63588 16.8904 7.93181 15.2738 8.00519 13.4972C8.13356 10.3894 10.6549 7.87494 13.7629 7.75462C17.1789 7.62238 20 10.3629 20 13.75C20 15.4267 19.3085 16.9447 18.1959 18.0345C18.0287 18.1982 18.0458 18.4711 18.2351 18.6087C18.8171 19.0315 19.2639 19.5676 19.5623 20.1939C19.6711 20.4222 19.9683 20.4851 20.1528 20.3121C21.9544 18.6219 23.0624 16.2006 22.9972 13.5267C22.8813 8.76387 19.0226 4.88875 14.2602 4.75369C9.17931 4.60956 5 8.70094 5 13.75C5 16.3351 6.09575 18.6688 7.84688 20.3118C8.03144 20.485 8.32881 20.4224 8.43769 20.1939C8.73606 19.5676 9.18288 19.0315 9.76488 18.6087C9.95419 18.4712 9.97138 18.1983 9.80419 18.0346ZM14 0C6.26275 0 0 6.26156 0 14C0 19.6245 3.28762 24.3529 7.85869 26.588C8.1295 26.7204 8.43787 26.4915 8.39213 26.1936C8.24325 25.2241 8.12075 24.2595 8.05425 23.4224C8.04513 23.3077 7.98244 23.2046 7.88688 23.1404C4.92438 21.1526 2.97662 17.7644 3.00019 13.9312C3.03719 7.91644 7.95581 3.01575 13.9707 3.00006C20.0496 2.98419 25 7.92481 25 14C25 17.8708 22.9901 21.2806 19.9594 23.2417C19.8969 24.119 19.7676 25.1534 19.6079 26.1936C19.5621 26.4915 19.8706 26.7204 20.1413 26.5879C24.7017 24.3579 28 19.6367 28 14C28 6.26281 21.7384 0 14 0ZM14 10C11.7909 10 10 11.7909 10 14C10 16.2091 11.7909 18 14 18C16.2091 18 18 16.2091 18 14C18 11.7909 16.2091 10 14 10Z" fill="#0165E1" /></svg>