<svg width="32" height="32" viewBox="0 0 32 32" fill="none" xmlns="http://www.w3.org/2000/svg">
 <path  d= "M28.2125 23.0688C29.2937 22.25 30 20.9625 30 19.5C30 17.0125 27.9875 15 25.5 15H24.6187C25.4562 14.2688 26 13.2 26 12C26 9.79375 24.2062 8 22 8H21.6313C21.8563 7.36875 22 6.70625 22 6C22 2.6875 19.3125 0 16 0C15.675 0 15.3625 0.04375 15.0562 0.09375C15.6437 0.9125 16 1.9125 16 3C16 5.7625 13.7625 8 11 8H10C7.79375 8 6 9.79375 6 12C6 13.2 6.54375 14.2688 7.38125 15H6.5C4.0125 15 2 17.0125 2 19.5C2 20.9625 2.70625 22.25 3.7875 23.0688C1.64375 23.4125 0 25.2563 0 27.5C0 29.9875 2.0125 32 4.5 32H27.5C29.9875 32 32 29.9875 32 27.5C32 25.2563 30.3562 23.4125 28.2125 23.0688ZM12 16C13.1062 16 14 16.8937 14 18C14 19.1063 13.1062 20 12 20C10.8938 20 10 19.1063 10 18C10 16.8937 10.8938 16 12 16ZM21.9688 24.6875C21.3125 26.4312 18.3125 28 16 28C13.6875 28 10.6875 26.4312 10.0312 24.6875C9.90625 24.3563 10.1562 24 10.5188 24H21.4813C21.8438 24 22.0938 24.3563 21.9688 24.6875ZM20 20C18.8937 20 18 19.1063 18 18C18 16.8937 18.8937 16 20 16C21.1063 16 22 16.8937 22 18C22 19.1063 21.1063 20 20 20Z" fill="#0165E1" /></svg>