<svg width="24" height="32" viewBox="0 0 24 32" fill="none" xmlns="http://www.w3.org/2000/svg">
 <path  d= "M21 0H3C1.34375 0 0 1.34375 0 3V29C0 30.6562 1.34375 32 3 32H21C22.6562 32 24 30.6562 24 29V3C24 1.34375 22.6562 0 21 0ZM12 8C14.2063 8 16 9.79375 16 12C16 14.2063 14.2063 16 12 16C9.79375 16 8 14.2063 8 12C8 9.79375 9.79375 8 12 8ZM19 22.8C19 23.4625 18.375 24 17.6 24H6.4C5.625 24 5 23.4625 5 22.8V21.6C5 19.6125 6.88125 18 9.2 18H9.5125C10.2812 18.3188 11.1187 18.5 12 18.5C12.8813 18.5 13.725 18.3188 14.4875 18H14.8C17.1187 18 19 19.6125 19 21.6V22.8Z" fill="#0165E1" /></svg>