<svg width="24" height="32" viewBox="0 0 24 32" fill="none" xmlns="http://www.w3.org/2000/svg">
 <path  d= "M22.5714 22.8571H19.3218C18.8484 22.8571 18.4646 23.2409 18.4646 23.7143V27.3463H9.71427V18.2857H15.7143C16.1876 18.2857 16.5714 17.9019 16.5714 17.4286V14.5714C16.5714 14.0981 16.1876 13.7143 15.7143 13.7143H9.71427V9.17457C9.71427 6.86986 11.4687 5.097 14.128 5.097C15.8178 5.097 17.405 5.91879 18.246 6.44336C18.6139 6.67286 19.0951 6.58986 19.3666 6.25157L21.4018 3.71493C21.7041 3.33807 21.636 2.786 21.2504 2.49486C20.0803 1.61143 17.4697 0 13.9951 0C8.1447 0 3.99998 3.76729 3.99998 8.99721V13.7143H1.99998C1.52663 13.7143 1.14284 14.0981 1.14284 14.5714V17.4286C1.14284 17.9019 1.52663 18.2857 1.99998 18.2857H3.99998V27.4286H1.42855C0.955197 27.4286 0.571411 27.8124 0.571411 28.2857V31.1429C0.571411 31.6162 0.955197 32 1.42855 32H22.5714C23.0448 32 23.4286 31.6162 23.4286 31.1429V23.7143C23.4286 23.2409 23.0448 22.8571 22.5714 22.8571Z" fill="#0165E1" /></svg>