<svg width="32" height="32" viewBox="0 0 32 32" fill="none" xmlns="http://www.w3.org/2000/svg">
 <path  d= "M25.1429 3.43492C29.1429 6.29206 31.7461 10.9651 31.7461 16.2539C31.7461 24.9397 24.7112 31.9809 16.0318 32C7.36514 32.019 0.266738 24.9524 0.25404 16.2793C0.247691 10.9905 2.85086 6.30475 6.84451 3.44127C7.58736 2.91428 8.62228 3.1365 9.06673 3.93015L10.0699 5.71428C10.4445 6.38094 10.2667 7.22539 9.65085 7.68253C7.01594 9.63808 5.3334 12.7365 5.3334 16.2476C5.32705 22.1079 10.0636 26.9206 16.0001 26.9206C21.8159 26.9206 26.7048 22.2095 26.6667 16.1841C26.6477 12.8952 25.0985 9.72062 22.3429 7.67618C21.727 7.21904 21.5556 6.3746 21.9302 5.71428L22.9334 3.93015C23.3778 3.14285 24.4064 2.90793 25.1429 3.43492ZM18.5397 16.7619V1.52381C18.5397 0.679364 17.8604 0 17.0159 0H14.9842C14.1397 0 13.4604 0.679364 13.4604 1.52381V16.7619C13.4604 17.6063 14.1397 18.2857 14.9842 18.2857H17.0159C17.8604 18.2857 18.5397 17.6063 18.5397 16.7619Z" fill="#0165E1" /></svg>