<svg width="24" height="32" viewBox="0 0 24 32" fill="none" xmlns="http://www.w3.org/2000/svg">
 <path  d= "M2 12H9.5C9.775 12 10 12.225 10 12.5V13.5C10 13.775 9.775 14 9.5 14H2V18H9.5C9.775 18 10 18.225 10 18.5V19.5C10 19.775 9.775 20 9.5 20H2V24H9.5C9.775 24 10 24.225 10 24.5V25.5C10 25.775 9.775 26 9.5 26H2V30C2 31.1 2.9 32 4 32H20C21.1 32 22 31.1 22 30V8H2V12ZM22.5 0H1.5C0.675 0 0 0.675 0 1.5V4.5C0 5.325 0.675 6 1.5 6H22.5C23.325 6 24 5.325 24 4.5V1.5C24 0.675 23.325 0 22.5 0Z" fill="#0165E1" /></svg>