<svg width="24" height="32" viewBox="0 0 24 32" fill="none" xmlns="http://www.w3.org/2000/svg">
 <path  d= "M22.5 0H1.5C0.675 0 0 0.675 0 1.5V4.5C0 5.325 0.675 6 1.5 6H22.5C23.325 6 24 5.325 24 4.5V1.5C24 0.675 23.325 0 22.5 0ZM2 30C2 31.1 2.9 32 4 32H20C21.1 32 22 31.1 22 30V8H2V30ZM6 18.5C6 18.225 6.225 18 6.5 18H10V14.5C10 14.225 10.225 14 10.5 14H13.5C13.775 14 14 14.225 14 14.5V18H17.5C17.775 18 18 18.225 18 18.5V21.5C18 21.775 17.775 22 17.5 22H14V25.5C14 25.775 13.775 26 13.5 26H10.5C10.225 26 10 25.775 10 25.5V22H6.5C6.225 22 6 21.775 6 21.5V18.5Z" fill="#0165E1" /></svg>