<svg width="28" height="32" viewBox="0 0 28 32" fill="none" xmlns="http://www.w3.org/2000/svg">
 <path  d= "M21.8039 22.8568L27.3795 17.2811C27.8259 16.8347 27.8259 16.1112 27.3795 15.6647L25.7631 14.0483C25.3167 13.6019 24.5931 13.6019 24.1467 14.0483L18.5711 19.624L12.574 13.6269C15.9504 13.1998 18.5711 10.3491 18.5711 6.85703C18.5711 3.06995 15.5011 0 11.714 0H1.42848C0.797065 0 0.285645 0.51142 0.285645 1.14284V19.4282C0.285645 20.0597 0.797065 20.5711 1.42848 20.5711H3.71416C4.34558 20.5711 4.857 20.0597 4.857 19.4282V13.7141H6.19626L15.339 22.8568L9.76334 28.4324C9.31692 28.8788 9.31692 29.6024 9.76334 30.0488L11.3797 31.6652C11.8262 32.1116 12.5497 32.1116 12.9961 31.6652L18.5711 26.0888L24.1467 31.6645C24.5931 32.1109 25.3167 32.1109 25.7631 31.6645L27.3795 30.0481C27.8259 29.6016 27.8259 28.8781 27.3795 28.4317L21.8039 22.8568ZM4.857 4.57135H11.714C12.974 4.57135 13.9997 5.59705 13.9997 6.85703C13.9997 8.11701 12.974 9.1427 11.714 9.1427H4.857V4.57135Z" fill="#0165E1" /></svg>