<svg width="32" height="32" viewBox="0 0 32 32" fill="none" xmlns="http://www.w3.org/2000/svg">
 <path  d= "M29 12H28V5.12131C28 4.7235 27.842 4.34199 27.5607 4.06069L23.9393 0.439312C23.658 0.158027 23.2765 2.07998e-06 22.8787 0L5.5 0C4.67156 0 4 0.671562 4 1.5V12H3C1.34312 12 0 13.3431 0 15V23.25C0 23.6642 0.335813 24 0.75 24H4V30.5C4 31.3284 4.67156 32 5.5 32H26.5C27.3284 32 28 31.3284 28 30.5V24H31.25C31.6642 24 32 23.6642 32 23.25V15C32 13.3431 30.6569 12 29 12ZM24 28H8V22H24V28ZM8 14V4H20V6.5C20 7.325 20.675 8 21.5 8H24V14H8ZM27 18.5C26.1716 18.5 25.5 17.8284 25.5 17C25.5 16.1716 26.1716 15.5 27 15.5C27.8284 15.5 28.5 16.1716 28.5 17C28.5 17.8284 27.8284 18.5 27 18.5Z" fill="#0165E1" /></svg>