<svg width="32" height="26" viewBox="0 0 32 26" fill="none" xmlns="http://www.w3.org/2000/svg">
 <path  d= "M26.4 11.4012H13.6C13.16 11.4012 12.8 11.7612 12.8 12.2012V19.4012H3.2V7.40123C3.2 6.96123 2.84 6.60123 2.4 6.60123H0.8C0.36 6.60123 0 6.96123 0 7.40123V25.0012C0 25.4412 0.36 25.8012 0.8 25.8012H2.4C2.84 25.8012 3.2 25.4412 3.2 25.0012V22.6012H28.8V25.0012C28.8 25.4412 29.16 25.8012 29.6 25.8012H31.2C31.64 25.8012 32 25.4412 32 25.0012V17.0012C32 13.9062 29.495 11.4012 26.4 11.4012ZM6.8 5.00123H13.105L14.485 7.76123C14.78 8.35123 15.62 8.35123 15.915 7.76123L18.4 2.79123L19.505 5.00123H25.6C26.04 5.00123 26.4 4.64123 26.4 4.20123C26.4 3.76123 26.04 3.40123 25.6 3.40123H20.495L19.115 0.64123C18.82 0.0512305 17.98 0.0512305 17.685 0.64123L15.2 5.61123L14.205 3.62123C14.135 3.48623 14 3.40123 13.845 3.40123H6.8C6.58 3.40123 6.4 3.58123 6.4 3.80123V4.60123C6.4 4.82123 6.58 5.00123 6.8 5.00123ZM8 17.8012C9.765 17.8012 11.2 16.3662 11.2 14.6012C11.2 12.8362 9.765 11.4012 8 11.4012C6.235 11.4012 4.8 12.8362 4.8 14.6012C4.8 16.3662 6.235 17.8012 8 17.8012Z" fill="#0165E1" /></svg>