<svg width="32" height="26" viewBox="0 0 32 26" fill="none" xmlns="http://www.w3.org/2000/svg">
 <path  d= "M19.2 16.2H12.8C11.9165 16.2 11.2 16.9165 11.2 17.8V24.2C11.2 25.0835 11.9165 25.8 12.8 25.8H19.2C20.0835 25.8 20.8 25.0835 20.8 24.2V17.8C20.8 16.9165 20.0835 16.2 19.2 16.2ZM9.6 1.79995C9.6 0.916451 8.8835 0.199951 8 0.199951H1.6C0.7165 0.199951 0 0.916451 0 1.79995V8.19995C0 9.08345 0.7165 9.79995 1.6 9.79995H6.386L10.044 16.202C10.599 15.249 11.62 14.6 12.8 14.6H12.814L9.6 8.97545V6.59995H20.8V3.39995H9.6V1.79995ZM30.4 0.199951H24C23.1165 0.199951 22.4 0.916451 22.4 1.79995V8.19995C22.4 9.08345 23.1165 9.79995 24 9.79995H30.4C31.2835 9.79995 32 9.08345 32 8.19995V1.79995C32 0.916451 31.2835 0.199951 30.4 0.199951Z" fill="#0165E1" /></svg>