<svg width="32" height="30" viewBox="0 0 32 30" fill="none" xmlns="http://www.w3.org/2000/svg">
 <path  d= "M28.8579 16.814C26.5513 16.814 25.5523 18.5692 24.2991 18.5692C20.9672 18.5692 24 8.77783 24 8.77783C24 8.77783 13.0951 13.2223 13.0951 8.59467C13.0951 6.60428 15.1111 6.02522 15.1111 3.81772C15.1111 1.84539 13.5492 0.777832 11.6966 0.777832C9.77139 0.777832 8.00961 1.82733 8.00961 3.90817C8.00961 6.20617 9.77133 7.20133 9.77133 8.44983C9.77139 12.3178 0 10.0422 0 10.0422V28.5553C0 28.5553 9.92417 30.8357 9.92417 26.963C9.92417 25.7145 7.70194 24.7348 7.70194 22.4368C7.70194 20.3559 9.32694 19.3065 11.234 19.3065C13.1047 19.3065 14.6667 20.3741 14.6667 22.3463C14.6667 24.5538 12.6507 25.1329 12.6507 27.1233C12.6507 30.5012 19.8548 28.5527 22.719 28.5527C22.719 28.5527 20.7898 21.8804 24.1538 21.8804C26.1517 21.8804 26.7329 23.8889 28.9487 23.8889C30.9284 23.8889 32 22.3328 32 20.4691C32 18.5692 30.9466 16.814 28.8579 16.814Z" fill="#0165E1" /></svg>