<svg width="32" height="32" viewBox="0 0 32 32" fill="none" xmlns="http://www.w3.org/2000/svg">
 <path  d= "M0 13.7143H13.7143V0H0V13.7143ZM4.57143 4.57143H9.14286V9.14286H4.57143V4.57143ZM18.2857 0V13.7143H32V0H18.2857ZM27.4286 9.14286H22.8571V4.57143H27.4286V9.14286ZM0 32H13.7143V18.2857H0V32ZM4.57143 22.8571H9.14286V27.4286H4.57143V22.8571ZM29.7143 18.2857H32V27.4286H25.1429V25.1429H22.8571V32H18.2857V18.2857H25.1429V20.5714H29.7143V18.2857ZM29.7143 29.7143H32V32H29.7143V29.7143ZM25.1429 29.7143H27.4286V32H25.1429V29.7143Z" fill="#0165E1" /></svg>