<svg width="22" height="32" viewBox="0 0 22 32" fill="none" xmlns="http://www.w3.org/2000/svg">
 <path  d= "M11.0294 0C6.04073 0 2.80954 2.04394 0.272728 5.68913C-0.187459 6.35038 -0.0455846 7.257 0.596353 7.74375L3.29248 9.78806C3.94079 10.2796 4.86323 10.1647 5.37079 9.52881C6.93635 7.5675 8.09767 6.43825 10.5431 6.43825C12.4659 6.43825 14.8441 7.67569 14.8441 9.54019C14.8441 10.9497 13.6805 11.6736 11.782 12.7379C9.5681 13.9792 6.63835 15.5239 6.63835 19.3883V20C6.63835 20.8284 7.30992 21.5 8.13835 21.5H12.6678C13.4962 21.5 14.1678 20.8284 14.1678 20V19.6392C14.1678 16.9604 21.997 16.8489 21.997 9.6C21.9971 4.141 16.3345 0 11.0294 0ZM10.4031 23.3412C8.01585 23.3412 6.07367 25.2834 6.07367 27.6706C6.07367 30.0578 8.01585 32 10.4031 32C12.7904 32 14.7325 30.0578 14.7325 27.6706C14.7325 25.2833 12.7904 23.3412 10.4031 23.3412Z" fill="#0165E1" /></svg>