<svg width="32" height="26" viewBox="0 0 32 26" fill="none" xmlns="http://www.w3.org/2000/svg">
 <path  d= "M12.825 11.0406L17.1601 16.5006C17.1601 16.5006 16.3301 21.6206 13.33 24.0056C10.335 26.3906 0 25.7106 0 25.7106C0 25.7106 0.190001 24.5556 0.550002 22.9406L5.28002 17.3306C5.48002 17.0956 5.23502 16.7506 4.95002 16.8556L1.93001 17.9606C2.65001 15.8756 3.56501 13.9606 4.66002 13.0856C7.65503 10.6956 12.825 11.0406 12.825 11.0406ZM24.7251 17.7906C22.5251 17.7906 20.7351 19.5806 20.7351 21.7856C20.7351 23.9906 22.5201 25.7806 24.7251 25.7806C26.9301 25.7806 28.7151 23.9906 28.7151 21.7856C28.7151 19.5756 26.9251 17.7906 24.7251 17.7906ZM31.8251 1.75054L30.8351 0.500536C30.5601 0.155534 30.0601 0.100534 29.7151 0.370535L18.0901 9.26557L16.3851 7.11556C16.1301 6.79556 15.6301 6.85556 15.4551 7.22556L14.1901 9.95557L18.5251 15.4156L21.4651 14.7956C21.8651 14.7106 22.0351 14.2356 21.7801 13.9156L20.0751 11.7706L31.7001 2.87554C32.0451 2.60054 32.1001 2.09554 31.8251 1.75054Z" fill="#0165E1" /></svg>