<svg width="32" height="28" viewBox="0 0 32 28" fill="none" xmlns="http://www.w3.org/2000/svg">
 <path  d= "M29 0H21C19.3438 0 18 1.34375 18 3V11C18 12.6562 19.3438 14 21 14H26V18C26 20.2062 24.2062 22 22 22H21.5C20.6688 22 20 22.6688 20 23.5V26.5C20 27.3312 20.6688 28 21.5 28H22C27.525 28 32 23.525 32 18V3C32 1.34375 30.6562 0 29 0ZM11 0H3C1.34375 0 0 1.34375 0 3V11C0 12.6562 1.34375 14 3 14H8V18C8 20.2062 6.20625 22 4 22H3.5C2.66875 22 2 22.6688 2 23.5V26.5C2 27.3312 2.66875 28 3.5 28H4C9.525 28 14 23.525 14 18V3C14 1.34375 12.6562 0 11 0Z" fill="#0165E1" /></svg>