<svg width="32" height="28" viewBox="0 0 32 28" fill="none" xmlns="http://www.w3.org/2000/svg">
 <path  d= "M31.5606 20.4393C32.1465 21.0251 32.1465 21.9748 31.5606 22.5606L26.5606 27.5596C25.6225 28.4977 24 27.8402 24 26.4989V24H20.3259C20.2231 24 20.1213 23.9788 20.027 23.9378C19.9327 23.8968 19.8478 23.8369 19.7776 23.7617L15.3679 19.037L18.7012 15.4655L22 19H24V16.5012C24 15.1613 25.6214 14.5013 26.5606 15.4405L31.5606 20.4393ZM0.749999 8.99998H5.99999L9.2988 12.5344L12.6321 8.96299L8.22236 4.23824C8.15219 4.16305 8.0673 4.1031 7.97297 4.06212C7.87865 4.02113 7.7769 3.99998 7.67405 3.99999H0.749999C0.335812 3.99999 0 4.3358 0 4.74999V8.24999C0 8.66417 0.335812 8.99998 0.749999 8.99998ZM24 8.99998V11.499C24 12.8402 25.6225 13.4977 26.5606 12.5597L31.5606 7.56067C32.1465 6.97486 32.1465 6.02511 31.5606 5.43936L26.5606 0.440559C25.6214 -0.49869 24 0.161372 24 1.50118V3.99999H20.3259C20.2231 4 20.1213 4.02116 20.027 4.06214C19.9327 4.10313 19.8478 4.16307 19.7776 4.23824L5.99999 19H0.749999C0.335812 19 0 19.3358 0 19.75V23.25C0 23.6642 0.335812 24 0.749999 24H7.67405C7.88193 24 8.08049 23.9136 8.22236 23.7617L22 8.99998H24Z" fill="#0165E1" /></svg>