<svg width="24" height="32" viewBox="0 0 24 32" fill="none" xmlns="http://www.w3.org/2000/svg">
 <path  d= "M22.3989 0.201662L19.9991 3.00137L16.5995 0.201662C16.4268 0.0708836 16.2161 0.00010694 15.9995 0.00010694C15.7829 0.00010694 15.5723 0.0708836 15.3996 0.201662L12 3.00137L8.60032 0.201662C8.42765 0.0708836 8.21698 0.00010694 8.00038 0.00010694C7.78378 0.00010694 7.57311 0.0708836 7.40044 0.201662L4.0008 3.00137L1.60105 0.201662C0.938622 -0.292036 0.0012207 0.176665 0.0012207 1.00158V30.9984C0.0012207 31.8233 0.938622 32.292 1.60105 31.7983L4.0008 28.9986L7.40044 31.7983C7.57311 31.9291 7.78378 31.9999 8.00038 31.9999C8.21698 31.9999 8.42765 31.9291 8.60032 31.7983L12 28.9986L15.3996 31.7983C15.5723 31.9291 15.7829 31.9999 15.9995 31.9999C16.2161 31.9999 16.4268 31.9291 16.5995 31.7983L19.9991 28.9986L22.3989 31.7983C23.055 32.292 23.9987 31.8233 23.9987 30.9984V1.00158C23.9987 0.176665 23.0613 -0.292036 22.3989 0.201662ZM19.9991 22.4993C19.9991 22.7743 19.7741 22.9993 19.4992 22.9993H4.50075C4.22578 22.9993 4.0008 22.7743 4.0008 22.4993V21.4994C4.0008 21.2244 4.22578 20.9995 4.50075 20.9995H19.4992C19.7741 20.9995 19.9991 21.2244 19.9991 21.4994V22.4993ZM19.9991 16.4999C19.9991 16.7749 19.7741 16.9999 19.4992 16.9999H4.50075C4.22578 16.9999 4.0008 16.7749 4.0008 16.4999V15.5001C4.0008 15.2251 4.22578 15.0001 4.50075 15.0001H19.4992C19.7741 15.0001 19.9991 15.2251 19.9991 15.5001V16.4999ZM19.9991 10.5006C19.9991 10.7755 19.7741 11.0005 19.4992 11.0005H4.50075C4.22578 11.0005 4.0008 10.7755 4.0008 10.5006V9.50068C4.0008 9.22571 4.22578 9.00074 4.50075 9.00074H19.4992C19.7741 9.00074 19.9991 9.22571 19.9991 9.50068V10.5006Z" fill="#0165E1" /></svg>