<svg width="32" height="32" viewBox="0 0 32 32" fill="none" xmlns="http://www.w3.org/2000/svg">
 <path  d= "M11.535 16.369C11.737 17.2438 10.7774 17.9087 10.0308 17.442L7.4848 15.851L4.30561 20.9387C3.47536 22.2671 4.43498 24 6.00073 24H9.24998C9.66417 24 9.99999 24.3359 9.99999 24.75V27.25C9.99999 27.6642 9.66417 28 9.24998 28H6.00717C1.29879 28 -1.57421 22.8095 0.919168 18.82L4.09554 13.7333L1.55023 12.1428C0.795168 11.6711 0.989856 10.5202 1.85517 10.3204L8.74498 8.72979C9.28317 8.60554 9.82005 8.9411 9.9443 9.47916L11.535 16.369ZM17.6951 4.93678L20.2757 9.06654L17.7294 10.6576C16.9762 11.1281 17.1669 12.2797 18.0344 12.48L24.9242 14.0706C25.4662 14.1955 26.0001 13.8557 26.1235 13.3212L27.7141 6.43141C27.9139 5.56616 26.9647 4.88647 26.2099 5.35841L23.6669 6.94741L21.088 2.81728C18.7429 -0.934781 13.2624 -0.943406 10.912 2.81728L9.7893 4.61516C9.56992 4.96641 9.6768 5.42897 10.028 5.64847L12.148 6.97316C12.4992 7.19266 12.962 7.08585 13.1815 6.7346L14.3041 4.93816C15.0986 3.66685 16.9274 3.70841 17.6951 4.93678ZM31.0805 18.82L29.3608 16.066C29.1414 15.7145 28.6786 15.6076 28.3272 15.8272L26.2109 17.1496C25.8596 17.3691 25.7527 17.8318 25.9722 18.1831L27.695 20.9401C28.5236 22.2658 27.5664 24.0001 25.999 24.0001H20V21.0013C20 20.113 18.9224 19.6649 18.2929 20.2942L13.2929 25.293C12.9024 25.6835 12.9024 26.3167 13.2929 26.7072L18.2929 31.7066C18.9181 32.3318 20 31.8938 20 30.9994V28H25.9925C30.6971 28 33.5759 22.8127 31.0805 18.82Z" fill="#0165E1" /></svg>