<svg width="32" height="32" viewBox="0 0 32 32" fill="none" xmlns="http://www.w3.org/2000/svg">
 <path  d= "M16.0294 2.60134e-05C20.3048 0.00770343 24.1866 1.69248 27.0525 4.43132L29.3567 2.12712C30.3322 1.1517 32 1.84254 32 3.22203V11.871C32 12.7262 31.3068 13.4194 30.4516 13.4194H21.8026C20.4232 13.4194 19.7323 11.7516 20.7077 10.7761L23.4013 8.08254C21.4101 6.21809 18.8335 5.18532 16.0961 5.1617C10.135 5.11022 5.11013 9.93441 5.16168 16.0934C5.21058 21.9361 9.94735 26.8387 16 26.8387C18.6534 26.8387 21.1611 25.8918 23.1374 24.1577C23.4434 23.8893 23.9055 23.9056 24.1934 24.1934L26.7522 26.7522C27.0665 27.0665 27.051 27.579 26.7211 27.8769C23.884 30.4396 20.1243 32 16 32C7.16348 32 6.45166e-05 24.8366 4.3339e-10 16.0002C-6.45157e-05 7.17377 7.20297 -0.0157804 16.0294 2.60134e-05Z" fill="#0165E1" /></svg>