<svg width="32" height="32" viewBox="0 0 32 32" fill="none" xmlns="http://www.w3.org/2000/svg">
 <path  d= "M31.2386 0.0107422H28.2304C27.7955 0.0107422 27.449 0.374248 27.4699 0.808564L27.7215 6.05963C24.8354 2.66924 20.537 0.518343 15.7357 0.518343C7.06454 0.518343 -0.00640411 7.59468 4.3526e-06 16.2658C0.00641282 24.951 7.04906 31.9896 15.7356 31.9896C19.7917 31.9896 23.4894 30.4549 26.2797 27.9346C26.6041 27.6416 26.6194 27.1376 26.3102 26.8285L24.1548 24.673C23.8714 24.3897 23.4162 24.3738 23.1155 24.6386C21.1484 26.371 18.5659 27.4212 15.7356 27.4212C9.56403 27.4212 4.56841 22.4267 4.56841 16.254C4.56841 10.0824 9.56295 5.08675 15.7356 5.08675C19.5992 5.08675 23.0011 7.0447 25.0056 10.0232L18.5639 9.71449C18.1295 9.69368 17.766 10.0402 17.766 10.475V13.4832C17.766 13.9037 18.107 14.2446 18.5274 14.2446H31.2386C31.6591 14.2446 32 13.9037 32 13.4832V0.772144C32 0.35166 31.6591 0.0107422 31.2386 0.0107422Z" fill="#0165E1" /></svg>