<svg width="32" height="32" viewBox="0 0 32 32" fill="none" xmlns="http://www.w3.org/2000/svg">
 <path  d= "M17.8944 12.8694C17.8944 14.0694 17.2601 14.7036 16.0601 14.7036H14.1326V11.0817H15.6409C17.4905 11.0817 17.8944 11.6477 17.8944 12.8694ZM32 16C32 24.8366 24.8366 32 16 32C7.16342 32 0 24.8366 0 16C0 7.16342 7.16342 0 16 0C24.8366 0 32 7.16342 32 16ZM22.9297 22.7364C19.915 17.2638 20.1363 17.6631 20.0457 17.5119C21.5575 16.533 22.4938 14.739 22.4938 12.7063C22.4938 9.20671 20.4615 6.94813 15.6875 6.94813H11.1283C10.2732 6.94813 9.57994 7.64135 9.57994 8.49652V23.4839C9.57994 24.339 10.2732 25.0323 11.1283 25.0323H12.5843C13.4394 25.0323 14.1326 24.339 14.1326 23.4839V18.8605H15.7814L18.6285 24.2112C18.7604 24.4592 18.9573 24.6666 19.1981 24.8113C19.4389 24.9559 19.7145 25.0323 19.9954 25.0323H21.5737C22.7519 25.0323 23.4982 23.7684 22.9297 22.7364Z" fill="#0165E1" /></svg>