<svg width="32" height="26" viewBox="0 0 32 26" fill="none" xmlns="http://www.w3.org/2000/svg">
 <path  d= "M7.57272 9.32432L17.3507 0.880704C18.2067 0.141537 19.5556 0.741648 19.5556 1.88981V6.48776C26.7323 7.05615 32 9.38843 32 16.6849C32 20.0983 29.801 23.4798 27.3704 25.2478C26.6119 25.7995 25.5309 25.107 25.8106 24.2127C27.9501 17.3704 25.5927 14.797 19.5556 14.1008V18.7772C19.5556 19.9272 18.2056 20.5245 17.3507 19.7863L7.57272 11.3425C6.95766 10.8114 6.95683 9.85626 7.57272 9.32432ZM0.461604 11.3425L10.2396 19.7862C11.0944 20.5245 12.4444 19.9272 12.4444 18.7771V17.8983L6.41077 12.688C6.0725 12.396 5.80115 12.0345 5.61522 11.6282C5.42928 11.2218 5.33314 10.7802 5.33333 10.3333C5.33314 9.88649 5.42929 9.44488 5.61521 9.03858C5.80114 8.63227 6.07247 8.27083 6.41072 7.97887L12.4444 2.76854V1.88981C12.4444 0.741648 11.0956 0.141537 10.2396 0.880704L0.461604 9.32432C-0.154285 9.85626 -0.153451 10.8114 0.461604 11.3425Z" fill="#0165E1" /></svg>