<svg width="32" height="20" viewBox="0 0 32 20" fill="none" xmlns="http://www.w3.org/2000/svg">
 <path  d= "M31.6448 14.4259L26.5579 19.5129C26.0843 19.9864 25.3166 19.9864 24.8431 19.5129L19.756 14.4259C19.2825 13.9524 19.2825 13.1846 19.756 12.7111L20.3028 12.1643C20.7859 11.6812 21.5726 11.6924 22.0418 12.1891L24.0837 14.3511V5.14996H14.6081C14.2865 5.14995 13.9781 5.02221 13.7507 4.79484L12.9423 3.98647C12.1785 3.22256 12.7195 1.91648 13.7998 1.91648H26.1046C26.7743 1.91648 27.3172 2.45936 27.3172 3.12904V14.3511L29.3591 12.1891C29.8282 11.6925 30.6149 11.6812 31.0981 12.1643L31.6449 12.7111C32.1184 13.1846 32.1184 13.9524 31.6448 14.4259ZM18.2492 15.2055C18.1366 15.0929 18.003 15.0036 17.8558 14.9427C17.7087 14.8817 17.551 14.8504 17.3918 14.8504H7.9163V5.64918L9.95824 7.81117C10.4274 8.30786 11.214 8.31913 11.6972 7.83597L12.244 7.28921C12.7175 6.81566 12.7175 6.04791 12.244 5.57441L7.15699 0.487489C6.68344 0.0139361 5.91569 0.0139361 5.44218 0.487489L0.355165 5.57446C-0.118388 6.04801 -0.118388 6.81576 0.355165 7.28926L0.901926 7.83602C1.38503 8.31913 2.17172 8.30791 2.64088 7.81122L4.68282 5.64918V16.8713C4.68282 17.541 5.22569 18.0839 5.89538 18.0839H18.2002C19.2805 18.0839 19.8215 16.7778 19.0577 16.0139L18.2492 15.2055Z" fill="#0165E1" /></svg>