<svg width="28" height="32" viewBox="0 0 28 32" fill="none" xmlns="http://www.w3.org/2000/svg">
 <path  d= "M0.378132 27.769C-0.221881 28.444 -0.0906277 29.494 0.659388 30.0003L4.95948 31.7441C5.57824 32.1628 6.41576 32.0566 6.91577 31.5066L12.6534 25.1377L7.70329 19.6438L0.378132 27.769ZM27.6162 27.769C27.6162 27.769 9.36582 7.48108 9.15332 7.13732C10.1158 6.61231 11.6659 6.01855 13.9972 6.01855C16.3285 6.01855 17.8785 6.61231 18.841 7.13732C18.6348 7.48733 15.3409 11.1749 15.3409 11.1749L20.2848 16.6563L22.4223 14.2812C24.2161 12.2874 24.5036 9.36862 23.1349 7.06232L20.4036 2.46847C20.1348 2.01846 19.7848 1.6372 19.3535 1.34345C16.8097 -0.381589 11.3909 -0.512841 8.6408 1.34345C8.20955 1.6372 7.85954 2.01846 7.59078 2.46847L4.86573 7.04357C4.77197 7.19982 2.54693 10.9311 5.58449 14.2937L21.0911 31.5003C21.5911 32.0566 22.4286 32.1566 23.0474 31.7378L27.3474 29.994C28.0912 29.494 28.2225 28.444 27.6162 27.769Z" fill="#0165E1" /></svg>