<svg width="32" height="22" viewBox="0 0 32 22" fill="none" xmlns="http://www.w3.org/2000/svg">
 <path  d= "M31.5167 18.0891L23.8833 1.12238C23.6667 0.639051 23.1889 0.333496 22.6667 0.333496H17.3278L17.4333 1.37794C17.4722 1.77239 17.1667 2.11127 16.7722 2.11127H15.2222C14.8278 2.11127 14.5167 1.76683 14.5611 1.37794L14.6667 0.333496H9.33333C8.81111 0.333496 8.33333 0.639051 8.11667 1.12238L0.483333 18.0891C0.177778 18.7668 0 19.5335 0 20.3335C0 21.0724 0.594444 21.6668 1.33333 21.6668H13.2C12.8056 21.6668 12.4944 21.3224 12.5389 20.9335L13.1389 15.1557C13.1722 14.8168 13.4611 14.5557 13.8 14.5557H18.2C18.5389 14.5557 18.8278 14.8113 18.8611 15.1557L19.4611 20.9335C19.5 21.3279 19.1944 21.6668 18.8 21.6668H30.6667C31.4 21.6668 32 21.0724 32 20.3335C32 19.5613 31.8333 18.7946 31.5167 18.0891ZM14.15 5.37794L14.3333 3.60016C14.3667 3.26127 14.6556 3.00016 14.9944 3.00016H17.0056C17.3444 3.00016 17.6333 3.25572 17.6667 3.60016L17.85 5.37794C17.8889 5.77239 17.5833 6.11127 17.1889 6.11127H14.8111C14.4167 6.11127 14.1056 5.76683 14.15 5.37794ZM17.8778 12.7779H14.1222C13.7278 12.7779 13.4167 12.4335 13.4611 12.0446L13.8722 8.04461C13.9056 7.70572 14.1944 7.44461 14.5333 7.44461H17.4611C17.8 7.44461 18.0889 7.70016 18.1222 8.04461L18.5333 12.0446C18.5833 12.4335 18.2722 12.7779 17.8778 12.7779Z" fill="#0165E1" /></svg>