<svg width="32" height="26" viewBox="0 0 32 26" fill="none" xmlns="http://www.w3.org/2000/svg">
 <path  d= "M0 13V19.4C0 20.285 0.715 21 1.6 21H3.2V11.4H1.6C0.715 11.4 0 12.115 0 13ZM23.2 4.99995H17.6V1.79995C17.6 0.914951 16.885 0.199951 16 0.199951C15.115 0.199951 14.4 0.914951 14.4 1.79995V4.99995H8.8C6.59 4.99995 4.8 6.78995 4.8 8.99995V22.6C4.8 24.365 6.235 25.8 8 25.8H24C25.765 25.8 27.2 24.365 27.2 22.6V8.99995C27.2 6.78995 25.41 4.99995 23.2 4.99995ZM12.8 21H9.6V19.4H12.8V21ZM11.2 15C10.095 15 9.2 14.105 9.2 13C9.2 11.895 10.095 11 11.2 11C12.305 11 13.2 11.895 13.2 13C13.2 14.105 12.305 15 11.2 15ZM17.6 21H14.4V19.4H17.6V21ZM22.4 21H19.2V19.4H22.4V21ZM20.8 15C19.695 15 18.8 14.105 18.8 13C18.8 11.895 19.695 11 20.8 11C21.905 11 22.8 11.895 22.8 13C22.8 14.105 21.905 15 20.8 15ZM30.4 11.4H28.8V21H30.4C31.285 21 32 20.285 32 19.4V13C32 12.115 31.285 11.4 30.4 11.4Z" fill="#0165E1" /></svg>