<svg width="32" height="32" viewBox="0 0 32 32" fill="none" xmlns="http://www.w3.org/2000/svg">
 <path  d= "M31.5698 1.19369C31.4885 0.812461 31.1885 0.512476 30.8073 0.43123C28.7949 0 27.22 0 25.6513 0C19.2016 0 15.333 3.44984 12.4457 7.99962H5.93348C4.79603 7.99962 3.75858 8.64334 3.25236 9.65579L0.165003 15.8305C-0.334973 16.8305 0.389992 17.9991 1.50869 17.9991H7.45216C7.08342 18.7991 6.70844 19.5928 6.32721 20.3553C6.13347 20.7428 6.20847 21.2052 6.5147 21.5115L10.4895 25.4863C10.7957 25.7925 11.2582 25.8675 11.6457 25.6738C12.4082 25.2925 13.2019 24.9238 14.0018 24.5551V30.4986C14.0018 31.611 15.1768 32.336 16.1705 31.8422L22.3389 28.7549C23.3577 28.2487 23.9951 27.205 23.9951 26.0738V19.5491C28.5324 16.6555 31.9947 12.7744 31.9947 6.35595C32.001 4.78102 32.001 3.2061 31.5698 1.19369ZM25.0013 9.99953C23.3452 9.99953 22.0015 8.65584 22.0015 6.99967C22.0015 5.3435 23.3452 3.99981 25.0013 3.99981C26.6575 3.99981 28.0012 5.3435 28.0012 6.99967C28.0012 8.65584 26.6575 9.99953 25.0013 9.99953Z" fill="#0165E1" /></svg>