<svg width="32" height="32" viewBox="0 0 32 32" fill="none" xmlns="http://www.w3.org/2000/svg">
 <path  d= "M28.5714 0H3.42857C1.535 0 0 1.535 0 3.42857V28.5714C0 30.465 1.535 32 3.42857 32H28.5714C30.465 32 32 30.465 32 28.5714V3.42857C32 1.535 30.465 0 28.5714 0ZM8 27.4286C6.10643 27.4286 4.57143 25.8936 4.57143 24C4.57143 22.1064 6.10643 20.5714 8 20.5714C9.89357 20.5714 11.4286 22.1064 11.4286 24C11.4286 25.8936 9.89357 27.4286 8 27.4286ZM19.2524 27.4286H16.7999C16.3705 27.4286 16.0105 27.0974 15.9826 26.669C15.6101 20.9511 11.0366 16.389 5.33093 16.0174C4.90257 15.9895 4.57143 15.6294 4.57143 15.2001V12.7476C4.57143 12.2809 4.962 11.9064 5.42814 11.9316C13.3243 12.3583 19.6422 18.6841 20.0684 26.5719C20.0936 27.038 19.7191 27.4286 19.2524 27.4286ZM26.6114 27.4286H24.159C23.7189 27.4286 23.3608 27.0799 23.3428 26.6401C22.9429 16.8876 15.1139 9.05721 5.35993 8.65729C4.92014 8.63921 4.57143 8.28107 4.57143 7.841V5.38857C4.57143 4.92757 4.95271 4.55543 5.41336 4.572C17.4012 5.00236 26.9998 14.6571 27.428 26.5866C27.4446 27.0473 27.0724 27.4286 26.6114 27.4286Z" fill="#0165E1" /></svg>