<svg width="32" height="32" viewBox="0 0 32 32" fill="none" xmlns="http://www.w3.org/2000/svg">
 <path  d= "M9.14863 27.4256C9.14863 29.952 7.10064 32 4.57428 32C2.04793 32 0 29.952 0 27.4256C0 24.8993 2.048 22.8513 4.57435 22.8513C7.10071 22.8513 9.14863 24.8994 9.14863 27.4256ZM21.6958 30.8006C21.0991 19.7578 12.254 10.9016 1.19936 10.3042C0.546857 10.2689 0 10.7932 0 11.4467V14.8802C0 15.4812 0.463571 15.9853 1.06336 16.0243C9.05135 16.5446 15.4543 22.9316 15.9756 30.9366C16.0147 31.5364 16.5188 31.9999 17.1198 31.9999H20.5533C21.2068 32 21.7311 31.4531 21.6958 30.8006ZM31.9993 30.8212C31.3997 14.1198 17.9618 0.603242 1.17878 0.000742084C0.533785 -0.0224008 0 0.49867 0 1.14403V4.57745C0 5.19352 0.488214 5.69495 1.10378 5.72024C14.7594 6.28017 25.72 17.2428 26.2798 30.8963C26.305 31.5119 26.8065 32.0001 27.4226 32.0001H30.856C31.5013 32 32.0224 31.4662 31.9993 30.8212Z" fill="#0165E1" /></svg>