<svg width="28" height="32" viewBox="0 0 28 32" fill="none" xmlns="http://www.w3.org/2000/svg">
 <path  d= "M17.3828 20.5714C23.4628 20.5714 27.7142 16.3244 27.7142 10.2194C27.7142 4.11429 23.4628 0 17.3828 0H5.71422C5.24086 0 4.85707 0.383786 4.85707 0.857143V15.6166H1.14279C0.66943 15.6166 0.285645 16.0004 0.285645 16.4737V19.7143C0.285645 20.1876 0.66943 20.5714 1.14279 20.5714H4.85707V22.8571H1.14279C0.66943 22.8571 0.285645 23.2409 0.285645 23.7143V26.5714C0.285645 27.0448 0.66943 27.4286 1.14279 27.4286H4.85707V31.1429C4.85707 31.6162 5.24086 32 5.71422 32H9.89707C10.3704 32 10.7542 31.6162 10.7542 31.1429V27.4286H22.2856C22.759 27.4286 23.1428 27.0448 23.1428 26.5714V23.7143C23.1428 23.2409 22.759 22.8571 22.2856 22.8571H10.7542V20.5714H17.3828ZM10.7542 4.91057H16.3771C19.7142 4.91057 21.7256 6.98986 21.7256 10.2194C21.7256 13.4931 19.7142 15.6166 16.2856 15.6166H10.7542V4.91057Z" fill="#0165E1" /></svg>