<svg width="32" height="16" viewBox="0 0 32 16" fill="none" xmlns="http://www.w3.org/2000/svg">
 <path  d= "M30.2222 0.888916H27.5556V5.7778C27.5556 6.02336 27.3567 6.22225 27.1111 6.22225H26.2222C25.9767 6.22225 25.7778 6.02336 25.7778 5.7778V0.888916H22.2222V5.7778C22.2222 6.02336 22.0233 6.22225 21.7778 6.22225H20.8889C20.6433 6.22225 20.4444 6.02336 20.4444 5.7778V0.888916H16.8889V5.7778C16.8889 6.02336 16.69 6.22225 16.4444 6.22225H15.5556C15.31 6.22225 15.1111 6.02336 15.1111 5.7778V0.888916H11.5556V5.7778C11.5556 6.02336 11.3567 6.22225 11.1111 6.22225H10.2222C9.97667 6.22225 9.77778 6.02336 9.77778 5.7778V0.888916H6.22222V5.7778C6.22222 6.02336 6.02333 6.22225 5.77778 6.22225H4.88889C4.64333 6.22225 4.44444 6.02336 4.44444 5.7778V0.888916H1.77778C0.796111 0.888916 0 1.68503 0 2.66669V13.3334C0 14.315 0.796111 15.1111 1.77778 15.1111H30.2222C31.2039 15.1111 32 14.315 32 13.3334V2.66669C32 1.68503 31.2039 0.888916 30.2222 0.888916Z" fill="#0165E1" /></svg>