<svg width="16" height="32" viewBox="0 0 16 32" fill="none" xmlns="http://www.w3.org/2000/svg">
 <path  d= "M10.5 26C10.2238 26 10 25.7763 10 25.5V24.5C10 24.2237 10.2238 24 10.5 24H16V20H10.5C10.2238 20 10 19.7763 10 19.5V18.5C10 18.2237 10.2238 18 10.5 18H16V14H10.5C10.2238 14 10 13.7762 10 13.5V12.5C10 12.2238 10.2238 12 10.5 12H16V8H10.5C10.2238 8 10 7.77625 10 7.5V6.5C10 6.22375 10.2238 6 10.5 6H16V2C16 0.895625 15.1044 0 14 0H2C0.895625 0 0 0.895625 0 2V30C0 31.1044 0.895625 32 2 32H14C15.1044 32 16 31.1044 16 30V26H10.5Z" fill="#0165E1" /></svg>