<svg width="32" height="24" viewBox="0 0 32 24" fill="none" xmlns="http://www.w3.org/2000/svg">
 <path  d= "M31.7859 7.5578L27.8062 0.783205C27.3662 0.0332506 26.3912 -0.221734 25.6313 0.20824L22.1815 2.16312L25.1663 7.24782C25.2763 7.4378 25.2113 7.67279 25.0213 7.78278L24.3314 8.17276C24.1414 8.28275 23.8964 8.21776 23.7864 8.02777L20.8016 2.94807L18.0417 4.51298L19.4367 6.88284C19.5467 7.07283 19.4817 7.30781 19.2917 7.41781L18.6017 7.80778C18.4117 7.91778 18.1667 7.85278 18.0567 7.66279L16.6618 5.29793L13.902 6.86284L16.8918 11.9475C17.0018 12.1325 16.9368 12.3725 16.7468 12.4825L16.0569 12.8725C15.8669 12.9825 15.6219 12.9175 15.5119 12.7275L12.5271 7.64279L9.76724 9.2077L11.1622 11.5776C11.2722 11.7675 11.2072 12.0025 11.0172 12.1125L10.3272 12.5025C10.1372 12.6125 9.89223 12.5475 9.78224 12.3575L8.38733 9.98265L5.62749 11.5476L8.61231 16.6322C8.7223 16.8172 8.65731 17.0572 8.46732 17.1672L7.77736 17.5572C7.58737 17.6672 7.34239 17.6022 7.23239 17.4122L4.24757 12.3425L0.797782 14.2974C0.0378279 14.7324 -0.227156 15.6873 0.212817 16.4373L4.19258 23.2169C4.63255 23.9668 5.60749 24.2218 6.36745 23.7918L31.2059 9.69767C31.9659 9.26769 32.2259 8.30775 31.7859 7.5578Z" fill="#0165E1" /></svg>