<svg width="32" height="32" viewBox="0 0 32 32" fill="none" xmlns="http://www.w3.org/2000/svg">
 <path  d= "M10 18H6.5C6.22375 18 6 17.7763 6 17.5V16.5C6 16.2237 6.22375 16 6.5 16H10V12H6.5C6.22375 12 6 11.7762 6 11.5V10.5C6 10.2238 6.22375 10 6.5 10H10V6H6.5C6.22375 6 6 5.77625 6 5.5V4.5C6 4.22375 6.22375 4 6.5 4H10V2C10 0.895625 9.10437 0 8 0H2C0.895625 0 0 0.895625 0 2V30C0 30.1731 0.056875 30.3275 0.098125 30.4875L10 20.5863V18ZM30 22H28V25.5C28 25.7763 27.7763 26 27.5 26H26.5C26.2237 26 26 25.7763 26 25.5V22H22V25.5C22 25.7763 21.7763 26 21.5 26H20.5C20.2237 26 20 25.7763 20 25.5V22H16V25.5C16 25.7763 15.7762 26 15.5 26H14.5C14.2238 26 14 25.7763 14 25.5V22H11.4144L1.5125 31.9019C1.6725 31.9431 1.8275 32 2 32H30C31.1044 32 32 31.1044 32 30V24C32 22.8956 31.1044 22 30 22Z" fill="#0165E1" /></svg>