<svg width="24" height="32" viewBox="0 0 24 32" fill="none" xmlns="http://www.w3.org/2000/svg">
 <path  d= "M22.5714 4.57143C23.0448 4.57143 23.4286 4.18764 23.4286 3.71429V0.857143C23.4286 0.383786 23.0448 0 22.5714 0H1.42855C0.955197 0 0.571411 0.383786 0.571411 0.857143V4.05343C0.571411 4.52679 0.955197 4.91057 1.42855 4.91057H7.51998C9.47055 4.91057 10.9672 5.62186 11.875 6.85714H1.42855C0.955197 6.85714 0.571411 7.24093 0.571411 7.71429V10.5714C0.571411 11.0448 0.955197 11.4286 1.42855 11.4286H12.7683C12.3243 14.0061 10.414 15.6166 7.42855 15.6166H1.42855C0.955197 15.6166 0.571411 16.0004 0.571411 16.4737V20.2603C0.571411 20.4995 0.671411 20.7279 0.847197 20.8901L12.6366 31.7727C12.795 31.9188 13.0025 32 13.218 32H19.1153C19.8956 32 20.27 31.0423 19.6966 30.513L8.91934 20.5647C14.3836 20.3976 18.2868 16.7508 18.7992 11.4286H22.5714C23.0448 11.4286 23.4286 11.0448 23.4286 10.5714V7.71429C23.4286 7.24093 23.0448 6.85714 22.5714 6.85714H18.3793C18.1303 6.03279 17.7878 5.26814 17.3613 4.57143H22.5714Z" fill="#0165E1" /></svg>