<svg width="32" height="32" viewBox="0 0 32 32" fill="none" xmlns="http://www.w3.org/2000/svg">
 <path  d= "M16 0C7.16129 0 0 7.16129 0 16C0 21.8129 3.10968 26.8839 7.74194 29.6839V18.0645C7.74194 17.4968 8.20645 17.0323 8.77419 17.0323C9.34194 17.0323 9.80645 17.4968 9.80645 18.0645V30.7548C11.7097 31.5548 13.8065 32 16 32C18.1935 32 20.2903 31.5548 22.1935 30.7548V18.0645C22.1935 17.4968 22.6581 17.0323 23.2258 17.0323C23.7935 17.0323 24.2581 17.4968 24.2581 18.0645V29.6839C28.8903 26.8839 32 21.8065 32 16C32 7.16129 24.8387 0 16 0ZM11.7742 13.9677C10.8194 13.1161 8.79355 13.1161 7.83871 13.9677L7.22581 14.5161C6.98065 14.729 6.62581 14.7742 6.34194 14.6194C6.05806 14.4645 5.89677 14.1419 5.94839 13.8194C6.20645 12.1935 8.15484 11.1032 9.8129 11.1032C11.471 11.1032 13.4194 12.1935 13.6774 13.8194C13.729 14.1419 13.5677 14.4645 13.2839 14.6194C12.9097 14.8194 12.5613 14.6645 12.4 14.5161L11.7742 13.9677ZM16 26.3226C14.2903 26.3226 12.9032 24.471 12.9032 22.1935C12.9032 19.9161 14.2903 18.0645 16 18.0645C17.7097 18.0645 19.0968 19.9161 19.0968 22.1935C19.0968 24.471 17.7097 26.3226 16 26.3226ZM25.6645 14.6129C25.2903 14.8129 24.9419 14.6581 24.7806 14.5097L24.1677 13.9613C23.2129 13.1097 21.1871 13.1097 20.2323 13.9613L19.6129 14.5161C19.3677 14.729 19.0129 14.7742 18.729 14.6194C18.4452 14.4645 18.2839 14.1419 18.3355 13.8194C18.5935 12.1935 20.5419 11.1032 22.2 11.1032C23.8581 11.1032 25.8065 12.1935 26.0645 13.8194C26.1032 14.1355 25.9484 14.4581 25.6645 14.6129Z" fill="#0165E1" /></svg>