<svg width="32" height="32" viewBox="0 0 32 32" fill="none" xmlns="http://www.w3.org/2000/svg">
 <path  d= "M16 0C7.16129 0 0 7.16129 0 16C0 24.8387 7.16129 32 16 32C24.8387 32 32 24.8387 32 16C32 7.16129 24.8387 0 16 0ZM21.1613 10.8387C22.3032 10.8387 23.2258 11.7613 23.2258 12.9032C23.2258 14.0452 22.3032 14.9677 21.1613 14.9677C20.0194 14.9677 19.0968 14.0452 19.0968 12.9032C19.0968 11.7613 20.0194 10.8387 21.1613 10.8387ZM9.80645 26.3226C8.09677 26.3226 6.70968 24.9677 6.70968 23.2903C6.70968 22 8.54839 19.3935 9.39355 18.271C9.6 17.9935 10.0129 17.9935 10.2194 18.271C11.0645 19.3935 12.9032 22 12.9032 23.2903C12.9032 24.9677 11.5161 26.3226 9.80645 26.3226ZM10.8387 14.9677C9.69677 14.9677 8.77419 14.0452 8.77419 12.9032C8.77419 11.7613 9.69677 10.8387 10.8387 10.8387C11.9806 10.8387 12.9032 11.7613 12.9032 12.9032C12.9032 14.0452 11.9806 14.9677 10.8387 14.9677ZM21.8194 24.9161C20.3742 23.1871 18.2516 22.1935 16 22.1935C14.6323 22.1935 14.6323 20.129 16 20.129C18.8645 20.129 21.5677 21.3935 23.4 23.6C24.2903 24.6581 22.6774 25.9548 21.8194 24.9161Z" fill="#0165E1" /></svg>