<svg width="32" height="26" viewBox="0 0 32 26" fill="none" xmlns="http://www.w3.org/2000/svg">
 <path  d= "M0 11.4V25C0 25.442 0.358 25.8 0.8 25.8H4.8V9.79996H1.6C0.7165 9.79996 0 10.5165 0 11.4ZM18 8.99996H16.8V6.99996C16.8 6.77896 16.621 6.59996 16.4 6.59996H15.6C15.379 6.59996 15.2 6.77896 15.2 6.99996V10.2C15.2 10.421 15.379 10.6 15.6 10.6H18C18.221 10.6 18.4 10.421 18.4 10.2V9.39996C18.4 9.17896 18.221 8.99996 18 8.99996ZM24.8875 5.80196L16.8875 0.468455C16.6246 0.293371 16.3158 0.199951 16 0.199951C15.6842 0.199951 15.3754 0.293371 15.1125 0.468455L7.1125 5.80196C6.89338 5.94804 6.7137 6.14596 6.58941 6.37814C6.46512 6.61033 6.40006 6.8696 6.4 7.13296V25.8H12.8V18.6C12.8 18.158 13.158 17.8 13.6 17.8H18.4C18.842 17.8 19.2 18.158 19.2 18.6V25.8H25.6V7.13346C25.6 6.59846 25.3325 6.09846 24.8875 5.80196ZM16 13C13.791 13 12 11.209 12 8.99996C12 6.79096 13.791 4.99996 16 4.99996C18.209 4.99996 20 6.79096 20 8.99996C20 11.209 18.209 13 16 13ZM30.4 9.79996H27.2V25.8H31.2C31.642 25.8 32 25.442 32 25V11.4C32 10.5165 31.2835 9.79996 30.4 9.79996Z" fill="#0165E1" /></svg>