<svg width="32" height="32" viewBox="0 0 32 32" fill="none" xmlns="http://www.w3.org/2000/svg">
 <path  d= "M27.9998 0L19.9998 6V9.87875L14.8104 15.0681C15.2348 15.3337 15.6398 15.6344 16.0023 15.9975C16.3648 16.36 16.666 16.765 16.9317 17.1894L22.121 12H25.9998L31.9998 4L27.9998 0ZM7.99978 17.4119L0.682275 24.7294C-0.2271 25.6388 -0.2271 27.1138 0.682275 28.0238L3.97603 31.3175C4.88603 32.2275 6.3604 32.2275 7.2704 31.3175L14.5879 24C16.4073 22.1806 16.4073 19.2313 14.5879 17.4119C12.7685 15.5925 9.81915 15.5925 7.99978 17.4119Z" fill="#0165E1" /></svg>