<svg width="32" height="32" viewBox="0 0 32 32" fill="none" xmlns="http://www.w3.org/2000/svg">
 <path  d= "M31.5621 27.666L25.3315 21.4354C25.0502 21.1542 24.669 20.9979 24.2691 20.9979H23.2504C24.9752 18.7919 26.0001 16.0172 26.0001 12.9987C26.0001 5.81818 20.182 0 13.0014 0C5.82087 0 0.00268555 5.81818 0.00268555 12.9987C0.00268555 20.1793 5.82087 25.9975 13.0014 25.9975C16.0199 25.9975 18.7946 24.9726 21.0006 23.2477V24.2664C21.0006 24.6663 21.1569 25.0476 21.4381 25.3288L27.6687 31.5594C28.2562 32.1469 29.2061 32.1469 29.7873 31.5594L31.5559 29.7908C32.1433 29.2034 32.1433 28.2535 31.5621 27.666ZM13.0014 20.9979C8.5831 20.9979 5.0022 17.4233 5.0022 12.9987C5.0022 8.58041 8.57685 4.99951 13.0014 4.99951C17.4197 4.99951 21.0006 8.57416 21.0006 12.9987C21.0006 17.417 17.426 20.9979 13.0014 20.9979Z" fill="#0165E1" /></svg>