<svg width="32" height="32" viewBox="0 0 32 32" fill="none" xmlns="http://www.w3.org/2000/svg">
 <path  d= "M19.0005 11.9988V13.9986C19.0005 14.4111 18.663 14.7486 18.2505 14.7486H7.75156C7.3391 14.7486 7.00164 14.4111 7.00164 13.9986V11.9988C7.00164 11.5864 7.3391 11.2489 7.75156 11.2489H18.2505C18.663 11.2489 19.0005 11.5864 19.0005 11.9988ZM31.5617 29.7908L29.7932 31.5594C29.2057 32.1469 28.2558 32.1469 27.6746 31.5594L21.4377 25.3288C21.1565 25.0476 21.0003 24.6663 21.0003 24.2664V23.2477C18.7942 24.9726 16.0195 25.9975 13.001 25.9975C5.8205 25.9975 0.00231934 20.1793 0.00231934 12.9987C0.00231934 5.81818 5.8205 0 13.001 0C20.1816 0 25.9998 5.81818 25.9998 12.9987C25.9998 16.0172 24.9749 18.7919 23.25 20.9979H24.2687C24.6687 20.9979 25.0499 21.1542 25.3311 21.4354L31.5617 27.666C32.1429 28.2535 32.1429 29.2034 31.5617 29.7908ZM21.5002 12.9987C21.5002 8.29919 17.7006 4.49956 13.001 4.49956C8.30151 4.49956 4.50188 8.29919 4.50188 12.9987C4.50188 17.6983 8.30151 21.4979 13.001 21.4979C17.7006 21.4979 21.5002 17.6983 21.5002 12.9987Z" fill="#0165E1" /></svg>