<svg width="28" height="32" viewBox="0 0 28 32" fill="none" xmlns="http://www.w3.org/2000/svg">
 <path  d= "M22 20C20.587 20 19.2883 20.4887 18.2631 21.3059L11.8577 17.3026C12.0474 16.4445 12.0474 15.5554 11.8577 14.6974L18.2631 10.694C19.2883 11.5113 20.587 12 22 12C25.3137 12 28 9.31369 28 6C28 2.68631 25.3137 0 22 0C18.6863 0 16 2.68631 16 6C16 6.44737 16.0494 6.88313 16.1423 7.30256L9.73687 11.3059C8.71169 10.4887 7.413 10 6 10C2.68631 10 0 12.6863 0 16C0 19.3137 2.68631 22 6 22C7.413 22 8.71169 21.5113 9.73687 20.6941L16.1423 24.6974C16.0476 25.1252 15.9999 25.5619 16 26C16 29.3137 18.6863 32 22 32C25.3137 32 28 29.3137 28 26C28 22.6863 25.3137 20 22 20Z" fill="#0165E1" /></svg>