<svg width="32" height="32" viewBox="0 0 32 32" fill="none" xmlns="http://www.w3.org/2000/svg">
 <path  d= "M32 3.42857V28.5714C32 30.465 30.465 32 28.5714 32H3.42857C1.535 32 0 30.465 0 28.5714V3.42857C0 1.535 1.535 0 3.42857 0H28.5714C30.465 0 32 1.535 32 3.42857ZM21.7143 18.8571C20.6741 18.8571 19.7269 19.2544 19.0155 19.9051L14.1614 16.9926C14.3271 16.3412 14.3271 15.6587 14.1614 15.0074L19.0155 12.0949C19.7269 12.7456 20.6741 13.1429 21.7143 13.1429C23.9234 13.1429 25.7143 11.352 25.7143 9.14286C25.7143 6.93371 23.9234 5.14286 21.7143 5.14286C19.5051 5.14286 17.7143 6.93371 17.7143 9.14286C17.7143 9.4855 17.7575 9.81807 17.8386 10.1355L12.9844 13.048C12.2731 12.3972 11.3259 12 10.2857 12C8.07657 12 6.28571 13.7909 6.28571 16C6.28571 18.2091 8.07657 20 10.2857 20C11.3259 20 12.2731 19.6028 12.9845 18.9521L17.8386 21.8646C17.7559 22.189 17.7141 22.5224 17.7144 22.8572C17.7144 25.0664 19.5052 26.8572 21.7144 26.8572C23.9235 26.8572 25.7144 25.0664 25.7144 22.8572C25.7143 20.648 23.9234 18.8571 21.7143 18.8571Z" fill="#0165E1" /></svg>