<svg width="32" height="30" viewBox="0 0 32 30" fill="none" xmlns="http://www.w3.org/2000/svg">
 <path  d= "M31.5823 10.6361L23.5822 18.1908C22.7389 18.9872 21.3333 18.3967 21.3333 17.2215V13.2235C13.3014 13.2774 9.913 15.1742 12.1792 22.7431C12.4282 23.575 11.4655 24.2191 10.7899 23.7059C8.62511 22.0615 6.66667 18.9161 6.66667 15.7411C6.66667 7.74462 13.1999 6.15779 21.3333 6.11268V2.11184C21.3333 0.935511 22.7398 0.346956 23.5822 1.14251L31.5823 8.6974C32.139 9.22312 32.1394 10.1099 31.5823 10.6361ZM21.3333 21.8405V25.6667H3.55556V7.88896H6.38422C6.474 7.8889 6.56283 7.87069 6.6454 7.83544C6.72796 7.80018 6.80254 7.7486 6.86467 7.68379C7.69539 6.8189 8.65561 6.13434 9.69878 5.59068C10.3171 5.2684 10.088 4.3334 9.39072 4.3334H2.66667C1.19389 4.3334 0 5.52729 0 7.00007V26.5556C0 28.0284 1.19389 29.2223 2.66667 29.2223H22.2222C23.695 29.2223 24.8889 28.0284 24.8889 26.5556V21.622C24.8889 21.1615 24.4335 20.8405 23.9994 20.9941C23.3908 21.2093 22.739 21.2737 22.1 21.1817C21.6961 21.1236 21.3333 21.4325 21.3333 21.8405Z" fill="#0165E1" /></svg>