<svg width="32" height="32" viewBox="0 0 32 32" fill="none" xmlns="http://www.w3.org/2000/svg">
 <path  d= "M17.7143 9.71429V21.7143C17.7143 22.3457 18.2257 22.8571 18.8571 22.8571H22.2857C22.9171 22.8571 23.4286 22.3457 23.4286 21.7143V9.71429C23.4286 4.34929 19.0793 0 13.7143 0H1.71429C0.767857 0 0 0.767143 0 1.71429V30.8571C0 31.4886 0.511429 32 1.14286 32H4.57143C5.20286 32 5.71429 31.4886 5.71429 30.8571V5.71429H13.7143C15.9236 5.71429 17.7143 7.505 17.7143 9.71429ZM30.8571 0H27.4286C26.7971 0 26.2857 0.511429 26.2857 1.14286V22.2857C26.2857 24.495 24.495 26.2857 22.2857 26.2857H14.2857V10.2857C14.2857 9.65429 13.7743 9.14286 13.1429 9.14286H9.71429C9.08286 9.14286 8.57143 9.65429 8.57143 10.2857V30.2857C8.57143 31.2321 9.33929 32 10.2857 32H22.2857C27.6507 32 32 27.6507 32 22.2857V1.14286C32 0.511429 31.4886 0 30.8571 0Z" fill="#0165E1" /></svg>