<svg width="30" height="32" viewBox="0 0 30 32" fill="none" xmlns="http://www.w3.org/2000/svg">
 <path  d= "M30 8.00001C30 21.8301 21.5041 29.5403 16.1538 31.7692C15.7882 31.9216 15.396 32 15 32C14.6039 32 14.2117 31.9216 13.8461 31.7692C7.15593 28.982 0 20.4054 0 8.00001C-1.02831e-06 7.40773 0.175316 6.8287 0.503857 6.33589C0.832398 5.84309 1.29946 5.45856 1.84619 5.23076L13.8462 0.230768C14.2118 0.0784311 14.6039 0 15 0C15.3961 0 15.7882 0.0784311 16.1539 0.230768L28.1538 5.23076C28.7006 5.45857 29.1676 5.8431 29.4961 6.3359C29.8247 6.82871 30 7.40773 30 8.00001ZM15 27.8945L15.0041 27.8967C20.8625 24.9786 25.7852 18.1274 25.9927 8.66363L15 4.08333V27.8945Z" fill="#0165E1" /></svg>