<svg width="32" height="26" viewBox="0 0 32 26" fill="none" xmlns="http://www.w3.org/2000/svg">
 <path  d= "M24.8308 18.8319L28.3314 15.3313C29.1763 14.4863 28.8285 13.0428 27.6896 12.6767L25.6 12.0051V4.99995C25.6 4.1163 24.8836 3.39995 24 3.39995H20.8V1.39995C20.8 0.737201 20.2628 0.199951 19.6 0.199951H12.4C11.7373 0.199951 11.2 0.737201 11.2 1.39995V3.39995H8C7.11635 3.39995 6.4 4.1163 6.4 4.99995V12.0051L4.3104 12.6767C3.17275 13.0424 2.8227 14.4854 3.6686 15.3313L7.1692 18.8319C6.2914 21.0143 4.27935 22.6 1.2 22.6C0.53725 22.6 0 23.1372 0 23.8V24.6C0 25.2627 0.53725 25.8 1.2 25.8C4.25115 25.8 6.57495 24.7695 8.3629 22.8302C9.08385 24.5716 10.8011 25.8 12.8 25.8H19.2C21.1989 25.8 22.9162 24.5716 23.6371 22.8302C25.4247 24.7692 27.7484 25.8 30.8 25.8C31.4627 25.8 32 25.2627 32 24.6V23.8C32 23.1372 31.4627 22.6 30.8 22.6C27.7591 22.6 25.7229 21.0499 24.8308 18.8319ZM9.6 6.59995H22.4V10.9765L16.4896 9.07675C16.1712 8.9744 15.8288 8.9744 15.5104 9.07675L9.6 10.9765V6.59995Z" fill="#0165E1" /></svg>