<svg width="32" height="26" viewBox="0 0 32 26" fill="none" xmlns="http://www.w3.org/2000/svg">
 <path  d= "M31.2 17.8H30.4V12.395C30.4 11.76 30.145 11.15 29.695 10.7L24.7 5.70495C24.25 5.25495 23.64 4.99995 23.005 4.99995H20.8V2.59995C20.8 1.27495 19.725 0.199951 18.4 0.199951H5.6C4.275 0.199951 3.2 1.27495 3.2 2.59995V4.99995H0.4C0.18 4.99995 0 5.17995 0 5.39995V6.19995C0 6.41995 0.18 6.59995 0.4 6.59995H14C14.22 6.59995 14.4 6.77995 14.4 6.99995V7.79995C14.4 8.01995 14.22 8.19995 14 8.19995H2C1.78 8.19995 1.6 8.37995 1.6 8.59995V9.39995C1.6 9.61995 1.78 9.79995 2 9.79995H12.4C12.62 9.79995 12.8 9.97995 12.8 10.2V11C12.8 11.22 12.62 11.4 12.4 11.4H0.4C0.18 11.4 0 11.58 0 11.8V12.6C0 12.82 0.18 13 0.4 13H10.8C11.02 13 11.2 13.18 11.2 13.4V14.2C11.2 14.42 11.02 14.6 10.8 14.6H3.2V21C3.2 23.65 5.35 25.8 8 25.8C10.65 25.8 12.8 23.65 12.8 21H19.2C19.2 23.65 21.35 25.8 24 25.8C26.65 25.8 28.8 23.65 28.8 21H31.2C31.64 21 32 20.64 32 20.2V18.6C32 18.16 31.64 17.8 31.2 17.8ZM8 23.4C6.675 23.4 5.6 22.325 5.6 21C5.6 19.675 6.675 18.6 8 18.6C9.325 18.6 10.4 19.675 10.4 21C10.4 22.325 9.325 23.4 8 23.4ZM24 23.4C22.675 23.4 21.6 22.325 21.6 21C21.6 19.675 22.675 18.6 24 18.6C25.325 18.6 26.4 19.675 26.4 21C26.4 22.325 25.325 23.4 24 23.4ZM28 13H20.8V7.39995H23.005L28 12.395V13Z" fill="#0165E1" /></svg>