<svg width="32" height="26" viewBox="0 0 32 26" fill="none" xmlns="http://www.w3.org/2000/svg">
 <path  d= "M9.6 8.19983H11.2V1.79983H9.6C7.8325 1.79983 6.4 3.23233 6.4 4.99983C6.4 6.76733 7.8325 8.19983 9.6 8.19983ZM0 20.9998C0 22.7673 1.4325 24.1998 3.2 24.1998H4.8V17.7998H3.2C1.4325 17.7998 0 19.2323 0 20.9998ZM16.873 14.5998C15.1275 14.5998 13.065 15.2558 11.6365 16.1998C10.397 17.0188 9.4105 17.7998 6.4 17.7998V24.1998L9.2765 24.9983C10.587 25.3623 11.927 25.6543 13.292 25.7508C14.9265 25.8663 16.572 25.7843 18.171 25.4408C23.645 24.2648 25.6 21.6608 25.6 19.3998C25.6 16.1998 21.391 14.5998 16.873 14.5998ZM24.571 0.559332C22.972 0.215832 21.3265 0.133332 19.692 0.249332C18.327 0.345832 16.987 0.637832 15.6765 1.00133L12.8 1.79983V8.19983C15.81 8.19983 16.797 8.98083 18.0365 9.79983C19.465 10.7438 21.5275 11.3998 23.273 11.3998C27.791 11.3998 32 9.79983 32 6.59983C32 4.33883 30.045 1.73483 24.571 0.559332Z" fill="#0165E1" /></svg>