<svg width="32" height="26" viewBox="0 0 32 26" fill="none" xmlns="http://www.w3.org/2000/svg">
 <path  d= "M32 10.7778V11.6667C32 12.4031 31.4031 13 30.6667 13H30.2222L28.7715 23.1549C28.5838 24.4686 27.4587 25.4445 26.1317 25.4445H5.86833C4.54128 25.4445 3.41617 24.4686 3.22844 23.1549L1.77778 13H1.33333C0.596944 13 0 12.4031 0 11.6667V10.7778C0 10.0414 0.596944 9.44447 1.33333 9.44447H5.0745L11.0067 1.28774C11.5842 0.493744 12.696 0.318133 13.4901 0.895633C14.2842 1.47313 14.4597 2.58497 13.8822 3.37902L9.47094 9.44447H22.5291L18.1178 3.37897C17.5403 2.58497 17.7159 1.47308 18.5099 0.895577C19.3039 0.318077 20.4158 0.493633 20.9933 1.28769L26.9255 9.44447H30.6667C31.4031 9.44447 32 10.0414 32 10.7778ZM17.3333 20.5556V14.3334C17.3333 13.597 16.7364 13 16 13C15.2636 13 14.6667 13.597 14.6667 14.3334V20.5556C14.6667 21.292 15.2636 21.8889 16 21.8889C16.7364 21.8889 17.3333 21.292 17.3333 20.5556ZM23.5556 20.5556V14.3334C23.5556 13.597 22.9586 13 22.2222 13C21.4858 13 20.8889 13.597 20.8889 14.3334V20.5556C20.8889 21.292 21.4858 21.8889 22.2222 21.8889C22.9586 21.8889 23.5556 21.292 23.5556 20.5556ZM11.1111 20.5556V14.3334C11.1111 13.597 10.5142 13 9.77778 13C9.04139 13 8.44444 13.597 8.44444 14.3334V20.5556C8.44444 21.292 9.04139 21.8889 9.77778 21.8889C10.5142 21.8889 11.1111 21.292 11.1111 20.5556Z" fill="#0165E1" /></svg>