<svg width="32" height="28" viewBox="0 0 32 28" fill="none" xmlns="http://www.w3.org/2000/svg">
 <path  d= "M24.3538 6.475L14.475 16.3538C13.8894 16.9394 12.9394 16.9394 12.3538 16.3538L11.6462 15.6462C11.0606 15.0606 11.0606 14.1106 11.6462 13.525L11.6531 13.5181C9.52625 11.005 9.45562 7.33438 11.4412 4.74438C10.6931 4.2725 9.8075 4 8.86 4C6.18 4 4 6.18 4 8.86V28H0V8.86C0 3.97437 3.97437 0 8.86 0C11.1681 0 13.2731 0.8875 14.8512 2.33875C17.095 1.61937 19.6325 2.0575 21.5181 3.65312L21.525 3.64625C22.1106 3.06062 23.0606 3.06062 23.6462 3.64625L24.3538 4.35375C24.9394 4.93938 24.9394 5.88938 24.3538 6.475ZM24 11C24 11.5523 23.5523 12 23 12C22.4477 12 22 11.5523 22 11C22 10.4477 22.4477 10 23 10C23.5523 10 24 10.4477 24 11ZM26 11C26 10.4477 26.4477 10 27 10C27.5523 10 28 10.4477 28 11C28 11.5523 27.5523 12 27 12C26.4477 12 26 11.5523 26 11ZM32 11C32 11.5523 31.5523 12 31 12C30.4477 12 30 11.5523 30 11C30 10.4477 30.4477 10 31 10C31.5523 10 32 10.4477 32 11ZM22 13C22 13.5523 21.5523 14 21 14C20.4477 14 20 13.5523 20 13C20 12.4477 20.4477 12 21 12C21.5523 12 22 12.4477 22 13ZM25 12C25.5523 12 26 12.4477 26 13C26 13.5523 25.5523 14 25 14C24.4477 14 24 13.5523 24 13C24 12.4477 24.4477 12 25 12ZM30 13C30 13.5523 29.5523 14 29 14C28.4477 14 28 13.5523 28 13C28 12.4477 28.4477 12 29 12C29.5523 12 30 12.4477 30 13ZM20 15C20 15.5523 19.5523 16 19 16C18.4477 16 18 15.5523 18 15C18 14.4477 18.4477 14 19 14C19.5523 14 20 14.4477 20 15ZM22 15C22 14.4477 22.4477 14 23 14C23.5523 14 24 14.4477 24 15C24 15.5523 23.5523 16 23 16C22.4477 16 22 15.5523 22 15ZM28 15C28 15.5523 27.5523 16 27 16C26.4477 16 26 15.5523 26 15C26 14.4477 26.4477 14 27 14C27.5523 14 28 14.4477 28 15ZM20 17C20 16.4477 20.4477 16 21 16C21.5523 16 22 16.4477 22 17C22 17.5523 21.5523 18 21 18C20.4477 18 20 17.5523 20 17ZM26 17C26 17.5523 25.5523 18 25 18C24.4477 18 24 17.5523 24 17C24 16.4477 24.4477 16 25 16C25.5523 16 26 16.4477 26 17ZM20 19C20 19.5523 19.5523 20 19 20C18.4477 20 18 19.5523 18 19C18 18.4477 18.4477 18 19 18C19.5523 18 20 18.4477 20 19ZM24 19C24 19.5523 23.5523 20 23 20C22.4477 20 22 19.5523 22 19C22 18.4477 22.4477 18 23 18C23.5523 18 24 18.4477 24 19ZM22 21C22 21.5523 21.5523 22 21 22C20.4477 22 20 21.5523 20 21C20 20.4477 20.4477 20 21 20C21.5523 20 22 20.4477 22 21ZM20 23C20 23.5523 19.5523 24 19 24C18.4477 24 18 23.5523 18 23C18 22.4477 18.4477 22 19 22C19.5523 22 20 22.4477 20 23Z" fill="#0165E1" /></svg>