<svg width="32" height="24" viewBox="0 0 32 24" fill="none" xmlns="http://www.w3.org/2000/svg">
 <path  d= "M31.444 9.73255L24.7195 1.66355C24.4943 1.39333 24.2124 1.17592 23.8938 1.0267C23.5753 0.877487 23.2278 0.80011 22.876 0.800049H1.6C0.7165 0.800049 0 1.51655 0 2.40005V16.8C0 17.6835 0.7165 18.4 1.6 18.4H3.2C3.2 21.051 5.349 23.2 8 23.2C10.651 23.2 12.8 21.051 12.8 18.4H19.2C19.2 21.051 21.349 23.2 24 23.2C26.651 23.2 28.8 21.051 28.8 18.4H30.4C31.2835 18.4 32 17.6835 32 16.8V11.269C32 10.7075 31.803 10.164 31.444 9.73255ZM3.2 8.80005V4.00005H8V8.80005H3.2ZM8 20.8C6.6745 20.8 5.6 19.7255 5.6 18.4C5.6 17.0745 6.6745 16 8 16C9.3255 16 10.4 17.0745 10.4 18.4C10.4 19.7255 9.3255 20.8 8 20.8ZM16 8.80005H11.2V4.00005H16V8.80005ZM24 20.8C22.6745 20.8 21.6 19.7255 21.6 18.4C21.6 17.0745 22.6745 16 24 16C25.3255 16 26.4 17.0745 26.4 18.4C26.4 19.7255 25.3255 20.8 24 20.8ZM19.2 8.80005V4.00005H22.501L26.501 8.80005H19.2Z" fill="#0165E1" /></svg>