<svg width="32" height="28" viewBox="0 0 32 28" fill="none" xmlns="http://www.w3.org/2000/svg">
 <path  d= "M0.648649 20.9189H3.67568C4.03243 20.9189 4.32432 21.2108 4.32432 21.5675V27.1891C4.32432 27.5459 4.03243 27.8378 3.67568 27.8378H0.648649C0.291892 27.8378 0 27.5459 0 27.1891V21.5675C0 21.2108 0.291892 20.9189 0.648649 20.9189ZM6.91892 18.9729V27.1891C6.91892 27.5459 7.21081 27.8378 7.56757 27.8378H10.5946C10.9514 27.8378 11.2432 27.5459 11.2432 27.1891V18.9729C11.2432 18.6162 10.9514 18.3243 10.5946 18.3243H7.56757C7.21081 18.3243 6.91892 18.6162 6.91892 18.9729ZM13.8378 14.6486V27.1891C13.8378 27.5459 14.1297 27.8378 14.4865 27.8378H17.5135C17.8703 27.8378 18.1622 27.5459 18.1622 27.1891V14.6486C18.1622 14.2918 17.8703 13.9999 17.5135 13.9999H14.4865C14.1297 13.9999 13.8378 14.2918 13.8378 14.6486ZM20.7568 8.59454V27.1891C20.7568 27.5459 21.0486 27.8378 21.4054 27.8378H24.4324C24.7892 27.8378 25.0811 27.5459 25.0811 27.1891V8.59454C25.0811 8.23779 24.7892 7.94589 24.4324 7.94589H21.4054C21.0486 7.94589 20.7568 8.23779 20.7568 8.59454ZM27.6757 0.810758V27.1891C27.6757 27.5459 27.9676 27.8378 28.3243 27.8378H31.3514C31.7081 27.8378 32 27.5459 32 27.1891V0.810758C32 0.454001 31.7081 0.162109 31.3514 0.162109H28.3243C27.9676 0.162109 27.6757 0.454001 27.6757 0.810758Z" fill="#0165E1" /></svg>