<svg width="28" height="32" viewBox="0 0 28 32" fill="none" xmlns="http://www.w3.org/2000/svg">
 <path  d= "M5.71456 30.2491C5.69537 29.248 6.53387 28.4286 7.53518 28.4286H11.4285V28.0714H3.562C2.56069 28.0714 1.72219 27.252 1.74138 26.2509C1.75994 25.2806 2.55213 24.5 3.52669 24.5H11.4285V24.1428H1.82094C0.819634 24.1428 -0.0188645 23.3234 0.000322914 22.3223C0.0188854 21.3521 0.811134 20.5715 1.78569 20.5715H11.4285V20.2143H3.60663C2.60532 20.2143 1.76682 19.3949 1.78601 18.3938C1.80457 17.4237 2.59682 16.643 3.57138 16.643H14.1067L12.1639 15.2301C11.3663 14.65 11.19 13.5333 11.77 12.7356C12.3501 11.938 13.4669 11.7617 14.2645 12.3417L21.9746 17.9489C22.2479 18.1477 22.4704 18.4083 22.6238 18.7095C22.7771 19.0107 22.8571 19.3439 22.8571 19.6819V28.5029C22.8571 29.4973 22.173 30.361 21.205 30.5887L16.1756 31.7721C15.5322 31.9235 14.8734 32 14.2124 32H7.49993C6.52537 31.9999 5.73312 31.2192 5.71456 30.2491ZM10.2926 16.1428H12.569L11.8699 15.6343C10.7087 14.7899 10.6003 13.0789 11.6717 12.1009L10.859 11.0571C10.2438 10.267 9.08212 10.1089 8.30399 10.7391C7.54993 11.3498 7.42068 12.4545 8.01943 13.2235L10.2926 16.1428ZM27.9987 16.0114L27.686 6.48318C27.6536 5.49749 26.8284 4.72468 25.8427 4.75699C24.8569 4.78937 24.0841 5.61461 24.1165 6.6003L24.1954 9.00123L17.7227 0.688687C17.124 -0.0802489 16.0213 -0.225686 15.2444 0.355688C14.4427 0.955624 14.3114 2.12068 14.9265 2.91074L19.7321 9.0823L19.4503 9.30173L13.5259 1.69337C12.9272 0.924437 11.8245 0.778999 11.0476 1.36037C10.2459 1.96031 10.1146 3.12537 10.7297 3.91543L16.6324 11.4959L16.3506 11.7154L11.4959 5.48074C10.8972 4.7118 9.79449 4.56637 9.01762 5.14774C8.21593 5.74768 8.08456 6.91274 8.69974 7.7028L11.953 11.8809C12.7341 11.3648 13.769 11.363 14.5587 11.9374L22.2687 17.5445C22.9502 18.0401 23.3571 18.8391 23.3571 19.6818V20.7443L27.1736 17.7725C27.4403 17.5648 27.654 17.297 27.7974 16.9909C27.9408 16.6849 28.0098 16.3492 27.9987 16.0114Z" fill="#0165E1" /></svg>