<svg width="32" height="24" viewBox="0 0 32 24" fill="none" xmlns="http://www.w3.org/2000/svg">
 <path  d= "M31 15.9995H25.2588C24.6794 15.9995 24.0262 15.2926 23.6475 14.217C22.6956 11.507 20.6406 9.82326 18.285 9.82326C16.3575 9.82326 14.6306 10.9514 13.5281 12.9001L12.175 2.65576C11.8025 1.06701 10.5837 -0.000488281 9.1425 -0.000488281C7.70187 -0.000488281 6.48312 1.06701 6.11125 2.65576L3.51 13.762C3.16875 15.2151 2.35938 15.9995 1.77062 15.9995H1C0.4475 15.9995 0 16.447 0 16.9995V18.9995C0 19.552 0.4475 19.9995 1 19.9995H1.77062C4.39375 19.9995 6.6575 17.8601 7.40438 14.6745L8.89437 8.31326L10.7225 22.1951C10.8462 23.1358 11.5863 23.9108 12.5312 23.992C12.5931 23.9976 12.6537 24.0001 12.7144 24.0001C13.5944 24.0001 14.3794 23.4208 14.6325 22.5658L16.6969 15.5445C17.0644 14.4995 17.6869 13.8245 18.285 13.8245C18.8837 13.8245 19.5069 14.4995 19.8962 15.607C20.8481 18.317 22.9031 20.0008 25.2588 20.0008H31C31.5525 20.0008 32 19.5533 32 19.0008V17.0008C32 16.447 31.5525 15.9995 31 15.9995Z" fill="#0165E1" /></svg>