<svg width="32" height="32" viewBox="0 0 32 32" fill="none" xmlns="http://www.w3.org/2000/svg">
 <path  d= "M16 0C7.1625 0 0 6.26875 0 14C0 18.3813 2.30625 22.2875 5.90625 24.8563C6.50625 25.2875 6.85625 25.9875 6.75 26.725L6.1625 30.8625C6.075 31.4625 6.5375 32 7.14375 32H12V28.5C12 28.225 12.225 28 12.5 28H13.5C13.775 28 14 28.225 14 28.5V32H18V28.5C18 28.225 18.225 28 18.5 28H19.5C19.775 28 20 28.225 20 28.5V32H24.8563C25.4625 32 25.925 31.4625 25.8375 30.8625L25.25 26.725C25.1437 25.9937 25.4875 25.2875 26.0938 24.8563C29.6938 22.2875 32 18.3813 32 14C32 6.26875 24.8375 0 16 0ZM10 20C7.79375 20 6 18.2062 6 16C6 13.7937 7.79375 12 10 12C12.2063 12 14 13.7937 14 16C14 18.2062 12.2063 20 10 20ZM22 20C19.7938 20 18 18.2062 18 16C18 13.7937 19.7938 12 22 12C24.2062 12 26 13.7937 26 16C26 18.2062 24.2062 20 22 20Z" fill="#0165E1" /></svg>