<svg width="32" height="28" viewBox="0 0 32 28" fill="none" xmlns="http://www.w3.org/2000/svg">
 <path  d= "M31 22H10V21C10 20.45 9.55 20 9 20H7C6.45 20 6 20.45 6 21V22H1C0.45 22 0 22.45 0 23V25C0 25.55 0.45 26 1 26H6V27C6 27.55 6.45 28 7 28H9C9.55 28 10 27.55 10 27V26H31C31.55 26 32 25.55 32 25V23C32 22.45 31.55 22 31 22ZM31 12H26V11C26 10.45 25.55 10 25 10H23C22.45 10 22 10.45 22 11V12H1C0.45 12 0 12.45 0 13V15C0 15.55 0.45 16 1 16H22V17C22 17.55 22.45 18 23 18H25C25.55 18 26 17.55 26 17V16H31C31.55 16 32 15.55 32 15V13C32 12.45 31.55 12 31 12ZM31 2H18V1C18 0.45 17.55 0 17 0H15C14.45 0 14 0.45 14 1V2H1C0.45 2 0 2.45 0 3V5C0 5.55 0.45 6 1 6H14V7C14 7.55 14.45 8 15 8H17C17.55 8 18 7.55 18 7V6H31C31.55 6 32 5.55 32 5V3C32 2.45 31.55 2 31 2Z" fill="#0165E1" /></svg>