<svg width="32" height="32" viewBox="0 0 32 32" fill="none" xmlns="http://www.w3.org/2000/svg">
 <path  d= "M16 0C7.16129 0 0 7.16129 0 16C0 24.8387 7.16129 32 16 32C24.8387 32 32 24.8387 32 16C32 7.16129 24.8387 0 16 0ZM7.22581 13.8968C7.43871 11.1806 9.30323 9.29032 10.8387 9.29032C12.3742 9.29032 14.2387 11.1806 14.4516 13.8968C14.4968 14.4516 13.7548 14.6645 13.4903 14.1871L12.8774 13.0903C12.3806 12.2065 11.6387 11.6968 10.8452 11.6968C10.0516 11.6968 9.30968 12.2065 8.8129 13.0903L8.2 14.1871C7.92258 14.6645 7.18064 14.4452 7.22581 13.8968ZM23.4065 21.8194C21.5677 24.0258 18.871 25.2903 16 25.2903C13.129 25.2903 10.4323 24.0258 8.59355 21.8194C7.72258 20.7677 9.30323 19.4516 10.1806 20.4968C11.6258 22.2323 13.7419 23.2194 16 23.2194C18.2581 23.2194 20.3742 22.2258 21.8194 20.4968C22.6968 19.4516 24.2774 20.7742 23.4065 21.8194ZM23.8065 14.1871L23.1935 13.0903C22.6968 12.2065 21.9548 11.6968 21.1613 11.6968C20.3677 11.6968 19.6258 12.2065 19.129 13.0903L18.5161 14.1871C18.2516 14.6581 17.5097 14.4452 17.5548 13.8968C17.7677 11.1806 19.6323 9.29032 21.1677 9.29032C22.7032 9.29032 24.5677 11.1806 24.7806 13.8968C24.8194 14.4516 24.071 14.6645 23.8065 14.1871Z" fill="#0165E1" /></svg>