<svg width="32" height="32" viewBox="0 0 32 32" fill="none" xmlns="http://www.w3.org/2000/svg">
 <path  d= "M16 0C7.16129 0 0 7.16129 0 16C0 24.8387 7.16129 32 16 32C24.8387 32 32 24.8387 32 16C32 7.16129 24.8387 0 16 0ZM21.1613 10.8387C22.3032 10.8387 23.2258 11.7613 23.2258 12.9032C23.2258 14.0452 22.3032 14.9677 21.1613 14.9677C20.0194 14.9677 19.0968 14.0452 19.0968 12.9032C19.0968 11.7613 20.0194 10.8387 21.1613 10.8387ZM10.8387 10.8387C11.9806 10.8387 12.9032 11.7613 12.9032 12.9032C12.9032 14.0452 11.9806 14.9677 10.8387 14.9677C9.69677 14.9677 8.77419 14.0452 8.77419 12.9032C8.77419 11.7613 9.69677 10.8387 10.8387 10.8387ZM23.4065 21.8194C21.5677 24.0258 18.871 25.2903 16 25.2903C13.129 25.2903 10.4323 24.0258 8.59355 21.8194C7.71613 20.7677 9.30323 19.4516 10.1806 20.4968C11.6258 22.2323 13.7419 23.2194 16 23.2194C18.2581 23.2194 20.3742 22.2258 21.8194 20.4968C22.6839 19.4516 24.2774 20.7677 23.4065 21.8194Z" fill="#0165E1" /></svg>