<svg width="32" height="32" viewBox="0 0 32 32" fill="none" xmlns="http://www.w3.org/2000/svg">
 <path  d= "M0 16C0 24.8387 7.16129 32 16 32C24.8387 32 32 24.8387 32 16C32 7.16129 24.8387 0 16 0C7.16129 0 0 7.16129 0 16ZM12.9032 12.9032C12.9032 14.0452 11.9806 14.9677 10.8387 14.9677C9.69677 14.9677 8.77419 14.0452 8.77419 12.9032C8.77419 11.7613 9.69677 10.8387 10.8387 10.8387C11.9806 10.8387 12.9032 11.7613 12.9032 12.9032ZM23.129 13.9677C22.1742 13.1161 20.1484 13.1161 19.1935 13.9677L18.5806 14.5161C18.0452 14.9935 17.1871 14.5419 17.3032 13.8194C17.5613 12.1935 19.5097 11.1032 21.1677 11.1032C22.8258 11.1032 24.7742 12.1935 25.0323 13.8194C25.1419 14.5355 24.2968 15 23.7548 14.5161L23.129 13.9677ZM10.1806 20.5032C11.6258 22.2387 13.7419 23.2258 16 23.2258C18.2581 23.2258 20.3742 22.2323 21.8194 20.5032C22.6968 19.4581 24.2774 20.7742 23.4065 21.8258C21.5677 24.0258 18.871 25.2903 16 25.2903C13.129 25.2903 10.4323 24.0258 8.59355 21.8194C7.72258 20.7677 9.31613 19.4516 10.1806 20.5032Z" fill="#0165E1" /></svg>