<svg width="32" height="26" viewBox="0 0 32 26" fill="none" xmlns="http://www.w3.org/2000/svg">
 <path  d= "M31.6 17.8H29.2C28.98 17.8 28.8 17.98 28.8 18.2V25.4C28.8 25.62 28.98 25.8 29.2 25.8H31.6C31.82 25.8 32 25.62 32 25.4V18.2C32 17.98 31.82 17.8 31.6 17.8ZM27.665 4.55495C27.38 4.36495 27.2 4.05495 27.2 3.71495V0.599951C27.2 0.379951 27.02 0.199951 26.8 0.199951H24.4C24.18 0.199951 24 0.379951 24 0.599951V3.71495C24 4.81495 24.51 5.88495 25.43 6.48495C27.54 7.84995 28.8 10.175 28.8 12.685V14.2C28.8 14.42 28.98 14.6 29.2 14.6H31.6C31.82 14.6 32 14.42 32 14.2V12.685C32 9.40995 30.38 6.37495 27.665 4.55495ZM21.6 17.8H2.4C1.075 17.8 0 18.875 0 20.2V23.4C0 24.725 1.075 25.8 2.4 25.8H21.6C22.04 25.8 22.4 25.44 22.4 25V18.6C22.4 18.16 22.04 17.8 21.6 17.8ZM20 23.4H11.2V20.2H20V23.4ZM24.385 7.27995C23.19 6.44995 22.4 5.16495 22.4 3.71495V0.599951C22.4 0.379951 22.22 0.199951 22 0.199951H19.6C19.38 0.199951 19.2 0.379951 19.2 0.599951V3.91995C19.2 6.10495 20.43 7.99995 22.215 9.25495C23.335 10.04 24 11.315 24 12.685V14.2C24 14.42 24.18 14.6 24.4 14.6H26.8C27.02 14.6 27.2 14.42 27.2 14.2V12.685C27.2 10.52 26.15 8.51495 24.385 7.27995ZM26.8 17.8H24.4C24.18 17.8 24 17.98 24 18.2V25.4C24 25.62 24.18 25.8 24.4 25.8H26.8C27.02 25.8 27.2 25.62 27.2 25.4V18.2C27.2 17.98 27.02 17.8 26.8 17.8Z" fill="#0165E1" /></svg>