<svg width="32" height="32" viewBox="0 0 32 32" fill="none" xmlns="http://www.w3.org/2000/svg">
 <path  d= "M6 19C6 19.55 6.45 20 7 20H14.3438L8.34375 14H7C6.45 14 6 14.45 6 15V19ZM16 0C7.1625 0 0 7.1625 0 16C0 24.8375 7.1625 32 16 32C24.8375 32 32 24.8375 32 16C32 7.1625 24.8375 0 16 0ZM16 28C9.38125 28 4 22.6187 4 16C4 13.4125 4.83125 11.0187 6.23125 9.05625L22.9438 25.7687C20.9813 27.1687 18.5875 28 16 28ZM18.825 16H24V18H20.825L18.825 16ZM25.7687 22.9438L22.825 20H25C25.55 20 26 19.55 26 19V15C26 14.45 25.55 14 25 14H16.825L9.05625 6.23125C11.0187 4.83125 13.4125 4 16 4C22.6187 4 28 9.38125 28 16C28 18.5875 27.1687 20.9813 25.7687 22.9438ZM20.0375 8C19.0625 8 18.25 7.3 18.075 6.38125C18.0312 6.15625 17.825 6 17.5938 6H16.5812C16.2687 6 16.0375 6.28125 16.0812 6.5875C16.3687 8.51875 18.0312 10 20.0375 10C21.0125 10 21.825 10.7 22 11.6187C22.0438 11.8438 22.25 12 22.4813 12H23.4937C23.8062 12 24.0375 11.7188 23.9937 11.4125C23.7062 9.48125 22.0438 8 20.0375 8Z" fill="#0165E1" /></svg>