<svg width="28" height="32" viewBox="0 0 28 32" fill="none" xmlns="http://www.w3.org/2000/svg">
 <path  d= "M27.801 18.8524C27.9849 18.5311 28.044 18.1534 27.9673 17.7913C27.797 16.9809 27.0086 16.4635 26.2065 16.6356L20.7435 18.2009L16.5 16L20.7435 13.7991L26.2065 15.3644C27.0086 15.5365 27.797 15.0191 27.9673 14.2087C28.1376 13.3983 27.6254 12.6019 26.8233 12.4299L23.856 11.9838L27.1733 10.0491C27.8835 9.63488 28.1268 8.71744 27.7168 8C27.3067 7.28256 26.3986 7.03675 25.6884 7.45094L22.3711 9.38569L23.4724 6.56669C23.726 5.77881 23.2994 4.93256 22.5195 4.67637C21.7396 4.42019 20.9018 4.85119 20.6482 5.639L19.2587 11.2009L15.485 13.4018V9L19.5584 5.00344C20.107 4.38769 20.0576 3.43925 19.448 2.88506C18.8385 2.33087 17.8996 2.38081 17.351 2.99656L15.485 5.3695V1.5C15.485 0.671562 14.8201 0 14.0001 0C13.18 0 12.5152 0.671562 12.5152 1.5V5.3695L10.6491 2.99656C10.1004 2.38081 9.1617 2.33081 8.55214 2.88506C7.94257 3.43925 7.8932 4.38769 8.44176 5.00344L12.5151 9V13.4019L8.74139 11.201L7.35189 5.63912C7.09833 4.85131 6.26051 4.42031 5.48064 4.6765C4.70076 4.93269 4.27414 5.779 4.5277 6.56681L5.62895 9.38581L2.31164 7.45106C1.60145 7.03688 0.693325 7.28269 0.283263 8.00012C-0.1268 8.71756 0.116575 9.63494 0.826763 10.0492L4.14408 11.9839L1.17676 12.43C0.374575 12.6021 -0.137675 13.3984 0.0327002 14.2088C0.203013 15.0191 0.991388 15.5366 1.79358 15.3646L7.25651 13.7992L11.5 16L7.25651 18.2009L1.79364 16.6356C0.99145 16.4636 0.203075 16.981 0.0327627 17.7914C-0.13755 18.6018 0.374638 19.3981 1.17683 19.5702L4.14414 20.0163L0.826825 21.951C0.116638 22.3652 -0.126675 23.2826 0.283325 24C0.693325 24.7174 1.60151 24.9633 2.3117 24.5491L5.62901 22.6143L4.52776 25.4333C4.46313 25.6334 4.44099 25.8447 4.46275 26.0538C4.48451 26.2629 4.5497 26.4651 4.65414 26.6476C4.83108 26.9571 5.11764 27.2044 5.48064 27.3236C6.26051 27.5798 7.09833 27.1488 7.35189 26.3609L8.74139 20.7991L12.5151 18.5981V23L8.4417 26.9966C7.89307 27.6123 7.94251 28.5607 8.55207 29.1149C9.1617 29.6692 10.1004 29.6192 10.6491 29.0034L12.5151 26.6305V30.5C12.5151 31.3284 13.1799 32 14 32C14.8201 32 15.4849 31.3284 15.4849 30.5V26.6305L17.351 29.0034C17.4894 29.1596 17.6594 29.2847 17.8497 29.3703C18.0401 29.4559 18.2464 29.5001 18.4551 29.5C18.8226 29.5002 19.1767 29.3628 19.448 29.1149C20.0575 28.5607 20.107 27.6123 19.5583 26.9966L15.4849 23V18.5981L19.2586 20.799L20.6481 26.3609C20.9017 27.1487 21.7395 27.5797 22.5194 27.3235C23.2993 27.0673 23.7259 26.221 23.4723 25.4332L22.371 22.6142L25.6883 24.5489C26.3985 24.9631 27.3066 24.7173 27.7167 23.9999C28.1268 23.2824 27.8834 22.3651 27.1732 21.9508L23.8559 20.0161L26.8232 19.57C27.2519 19.4782 27.5978 19.2079 27.801 18.8524Z" fill="#0165E1" /></svg>