<svg width="32" height="26" viewBox="0 0 32 26" fill="none" xmlns="http://www.w3.org/2000/svg">
 <path  d= "M21.599 22.6006L19.2005 22.6031V21.0001H12.8006V22.6105L10.4016 22.6131C9.9606 22.6136 9.6031 22.971 9.6026 23.4125L9.6001 24.999C9.5996 25.4415 9.9586 25.8005 10.4011 25.8L21.599 25.787C22.04 25.7865 22.3975 25.429 22.398 24.988L22.4 23.4015C22.4005 22.959 22.0415 22.6001 21.599 22.6006ZM29.26 1.53719C29.129 0.765692 28.4495 0.200195 27.653 0.200195H4.34664C3.55014 0.200195 2.87065 0.765692 2.73965 1.53719C-0.165833 18.6581 0.00216587 17.6041 0.00166587 17.8001C0.00016588 18.6661 0.716161 19.4001 1.63166 19.4001H30.3685C31.28 19.4001 31.994 18.6721 31.998 17.8106C31.999 17.6066 32.1655 18.6581 29.26 1.53719ZM12.9916 3.40017H19.008L19.4965 8.20014H12.5031L12.9916 3.40017ZM9.23311 16.2001H3.55464L4.50514 10.6001H9.8036L9.23311 16.2001ZM10.0476 8.20014H4.91213L5.72663 3.40017H10.5361L10.0476 8.20014ZM11.6886 16.2001L12.2586 10.6001H19.741L20.311 16.2001H11.6886ZM21.4635 3.40017H26.273L27.0875 8.20014H21.952L21.4635 3.40017ZM22.7665 16.2001L22.1965 10.6001H27.495L28.4455 16.2001H22.7665Z" fill="#0165E1" /></svg>