<svg width="32" height="32" viewBox="0 0 32 32" fill="none" xmlns="http://www.w3.org/2000/svg">
 <path  d= "M22.8067 5.8031L21.4268 4.32762C21.1059 3.98449 21.1235 3.44631 21.4662 3.12496L24.5487 0.234252C24.7065 0.0862323 24.9147 0.00385693 25.1311 0.00386702H27.3726C27.8428 0.00386702 28.224 0.385099 28.224 0.855307V9.87135H30.0447C30.5149 9.87135 30.8961 10.2526 30.8961 10.7228V12.7755C30.8961 13.2457 30.5149 13.6269 30.0447 13.6269H22.2985C21.8283 13.6269 21.4471 13.2457 21.4471 12.7755V10.7228C21.4471 10.2526 21.8283 9.87135 22.2985 9.87135H24.1017V5.76046C23.587 6.22733 23.0934 6.10962 22.8067 5.8031ZM20.6376 22.7304C20.6376 20.4135 22.3309 17.9512 25.4691 17.9512C28.1833 17.9512 31.1045 19.999 31.1045 24.4951C31.1045 28.1333 28.8172 32 24.578 32C23.3125 32 22.4107 31.7476 21.8429 31.5189C21.4321 31.3533 21.2193 30.8983 21.3518 30.4756L22.0072 28.3839C22.1516 27.923 22.6492 27.6756 23.1046 27.8365C24.0291 28.163 25.0826 28.2107 25.8081 27.5429C23.0593 27.9027 20.6376 25.7435 20.6376 22.7304ZM27.1847 24.1025C27.1847 22.5213 26.099 21.5123 25.3516 21.5123C24.7385 21.5123 24.4176 22.0775 24.4176 22.6356C24.4176 23.0379 24.5464 24.3504 26.2034 24.3504C26.911 24.3504 27.1525 24.1976 27.1785 24.1567C27.18 24.1534 27.1847 24.136 27.1847 24.1025ZM2.03189 7.94681H5.43652V30.6519C5.43652 31.2789 5.94476 31.7871 6.57177 31.7871H8.84228C9.46929 31.7871 9.97753 31.2789 9.97753 30.6519V7.94681H13.3819C14.3903 7.94681 14.8992 6.72329 14.1847 6.00879L8.50979 0.332381C8.06669 -0.110723 7.34757 -0.110865 6.90433 0.332381L1.22912 6.00879C0.516114 6.72187 1.02144 7.94681 2.03189 7.94681Z" fill="#0165E1" /></svg>