<svg width="32" height="32" viewBox="0 0 32 32" fill="none" xmlns="http://www.w3.org/2000/svg">
 <path  d= "M22.8067 5.80307L21.4268 4.32759C21.106 3.98446 21.1236 3.44628 21.4663 3.12493L24.5487 0.234217C24.7065 0.0861969 24.9148 0.00382146 25.1312 0.00383155H27.3726C27.8428 0.00383155 28.2241 0.385064 28.2241 0.855273V9.87133H30.0447C30.515 9.87133 30.8962 10.2526 30.8962 10.7228V12.7754C30.8962 13.2457 30.515 13.6269 30.0447 13.6269H22.2985C21.8283 13.6269 21.4471 13.2457 21.4471 12.7754V10.7228C21.4471 10.2526 21.8283 9.87133 22.2985 9.87133H24.1018V5.76043C23.5871 6.2273 23.0934 6.10959 22.8067 5.80307ZM20.6377 22.7304C20.6377 20.4135 22.331 17.9512 25.4692 17.9512C28.1834 17.9512 31.1046 19.999 31.1046 24.4951C31.1046 28.1333 28.8173 32 24.5781 32C23.3125 32 22.4107 31.7476 21.843 31.5189C21.4321 31.3533 21.2193 30.8983 21.3518 30.4756L22.0072 28.3839C22.1516 27.923 22.6493 27.6756 23.1047 27.8365C24.0291 28.163 25.0827 28.2107 25.8082 27.5428C23.0593 27.9027 20.6377 25.7435 20.6377 22.7304ZM27.1848 24.1025C27.1848 22.5213 26.099 21.5123 25.3517 21.5123C24.7385 21.5123 24.4176 22.0774 24.4176 22.6356C24.4176 23.0379 24.5464 24.3504 26.2034 24.3504C26.911 24.3504 27.1525 24.1976 27.1786 24.1567C27.1801 24.1534 27.1848 24.136 27.1848 24.1025ZM13.3822 23.8404H9.97755V1.13525C9.97755 0.508239 9.46932 0 8.8423 0H6.57179C5.94477 0 5.43653 0.508239 5.43653 1.13525V23.8404H2.03212C1.02373 23.8404 0.51485 25.0639 1.22935 25.7784L6.90428 31.4548C7.34738 31.8979 8.06649 31.898 8.50974 31.4548L14.1849 25.7784C14.898 25.0653 14.3926 23.8404 13.3822 23.8404Z" fill="#0165E1" /></svg>