<svg width="32" height="28" viewBox="0 0 32 28" fill="none" xmlns="http://www.w3.org/2000/svg">
 <path  d= "M0.29387 5.29291L5.29287 0.292781C5.68337 -0.0976564 6.31681 -0.0975314 6.70706 0.292781L11.7059 5.29291C12.3352 5.92228 11.8871 7.00003 10.9987 7.00003H8V27C8 27.5523 7.55231 28 7 28H5C4.44768 28 4 27.5523 4 27V7.00003H1.001C0.110932 7.00003 -0.334193 5.92103 0.29387 5.29291ZM15 4.00003H31C31.5523 4.00003 32 3.55234 32 3.00003V1.00003C32 0.447719 31.5523 3.12519e-05 31 3.12519e-05H15C14.4477 3.12519e-05 14 0.447719 14 1.00003V3.00003C14 3.55234 14.4477 4.00003 15 4.00003ZM14 11V9.00003C14 8.44772 14.4477 8.00003 15 8.00003H27C27.5523 8.00003 28 8.44772 28 9.00003V11C28 11.5523 27.5523 12 27 12H15C14.4477 12 14 11.5523 14 11ZM14 27V25C14 24.4477 14.4477 24 15 24H19C19.5523 24 20 24.4477 20 25V27C20 27.5523 19.5523 28 19 28H15C14.4477 28 14 27.5523 14 27ZM14 19V17C14 16.4477 14.4477 16 15 16H23C23.5523 16 24 16.4477 24 17V19C24 19.5523 23.5523 20 23 20H15C14.4477 20 14 19.5523 14 19Z" fill="#0165E1" /></svg>