<svg width="32" height="32" viewBox="0 0 32 32" fill="none" xmlns="http://www.w3.org/2000/svg">
 <path  d= "M14.2039 25.951L8.49072 31.6654C8.04444 32.1116 7.32051 32.1115 6.87451 31.6654L1.16152 25.951C0.442233 25.2317 0.954518 24 1.96966 24H5.39687V1.14286C5.39687 0.511642 5.90851 0 6.53973 0H8.82544C9.45665 0 9.96829 0.511642 9.96829 1.14286V24H13.3957C14.4129 24 14.9216 25.2331 14.2039 25.951ZM22.7092 13.0933C22.6579 13.2723 22.5498 13.4296 22.4011 13.5417C22.2525 13.6537 22.0714 13.7143 21.8853 13.7143H19.3341C18.7469 13.7143 18.3336 13.1373 18.5225 12.5813L22.6008 0.581357C22.6584 0.41183 22.7676 0.2646 22.9132 0.160333C23.0587 0.0560663 23.2333 -1.55284e-06 23.4124 0H26.2385C26.6056 0 26.9319 0.233785 27.0501 0.581357L31.1283 12.5813C31.3173 13.1373 30.904 13.7143 30.3168 13.7143H27.7643C27.579 13.7143 27.3988 13.6543 27.2505 13.5432C27.1022 13.4322 26.9939 13.2762 26.9418 13.0984L26.3488 11.0771H23.2872L22.7092 13.0933ZM24.3419 7.47213H25.2966L24.8252 5.83378L24.3419 7.47213ZM25.2401 27.9952L30.058 21.1596C30.1599 21.0151 30.2145 20.8426 30.2146 20.6658V19.1428C30.2146 18.6695 29.8308 18.2857 29.3574 18.2857H20.4341C19.9608 18.2857 19.577 18.6695 19.577 19.1428V21.2093C19.577 21.6826 19.9608 22.0664 20.4341 22.0664H24.4676C24.4148 22.1372 24.3607 22.2118 24.3055 22.2902L19.5053 29.0905C19.4032 29.2352 19.3484 29.4078 19.3484 29.5848V31.1428C19.3484 31.6162 19.7322 32 20.2056 32H29.4452C29.9186 32 30.3023 31.6162 30.3023 31.1428V29.0764C30.3023 28.603 29.9186 28.2193 29.4452 28.2193H25.0776C25.1305 28.1483 25.1848 28.0736 25.2401 27.9952Z" fill="#0165E1" /></svg>