<svg width="32" height="28" viewBox="0 0 32 28" fill="none" xmlns="http://www.w3.org/2000/svg">
 <path  d= "M11.7061 22.7071L6.70713 27.7072C6.31663 28.0977 5.68319 28.0976 5.29294 27.7072L0.294069 22.7071C-0.335306 22.0777 0.112944 21 1.00119 21H4.00001V1C4.00001 0.447687 4.44769 0 5 0H7C7.55232 0 8 0.447687 8 1V21H10.999C11.8891 21 12.3342 22.079 11.7061 22.7071ZM15 4H31C31.5523 4 32 3.55231 32 3V1C32 0.447687 31.5523 0 31 0H15C14.4477 0 14 0.447687 14 1V3C14 3.55231 14.4477 4 15 4ZM14 11V9C14 8.44769 14.4477 8 15 8H27C27.5523 8 28 8.44769 28 9V11C28 11.5523 27.5523 12 27 12H15C14.4477 12 14 11.5523 14 11ZM14 27V25C14 24.4477 14.4477 24 15 24H19C19.5523 24 20 24.4477 20 25V27C20 27.5523 19.5523 28 19 28H15C14.4477 28 14 27.5523 14 27ZM14 19V17C14 16.4477 14.4477 16 15 16H23C23.5523 16 24 16.4477 24 17V19C24 19.5523 23.5523 20 23 20H15C14.4477 20 14 19.5523 14 19Z" fill="#0165E1" /></svg>