<svg width="32" height="32" viewBox="0 0 32 32" fill="none" xmlns="http://www.w3.org/2000/svg">
 <path  d= "M1.16129 6.04903L6.87443 0.334607C7.32071 -0.111607 8.04464 -0.111464 8.49064 0.334607L14.2036 6.04903C14.9228 6.76831 14.4106 8.00003 13.3954 8.00003H9.96828V30.8571C9.96828 31.4884 9.45664 32 8.82542 32H6.53971C5.9085 32 5.39686 31.4884 5.39686 30.8571V8.00003H1.96943C0.952219 8.00003 0.443505 6.76689 1.16129 6.04903ZM22.7092 13.0934C22.6579 13.2723 22.5498 13.4297 22.4011 13.5417C22.2525 13.6537 22.0714 13.7143 21.8853 13.7143H19.3341C18.7469 13.7143 18.3336 13.1373 18.5225 12.5814L22.6008 0.581392C22.6584 0.411866 22.7676 0.264635 22.9132 0.160369C23.0587 0.056102 23.2333 3.41635e-05 23.4123 3.57164e-05H26.2385C26.6055 3.57164e-05 26.9319 0.233821 27.05 0.581392L31.1283 12.5814C31.3173 13.1373 30.904 13.7143 30.3168 13.7143H27.7643C27.579 13.7143 27.3988 13.6543 27.2505 13.5433C27.1022 13.4323 26.9939 13.2762 26.9418 13.0985L26.3488 11.0771H23.2872L22.7092 13.0934ZM24.3418 7.47217H25.2966L24.8252 5.83382L24.3418 7.47217ZM25.24 27.9952L30.058 21.1597C30.1598 21.0151 30.2145 20.8427 30.2145 20.6659V19.1429C30.2145 18.6695 29.8308 18.2857 29.3574 18.2857H20.4341C19.9608 18.2857 19.577 18.6695 19.577 19.1429V21.2093C19.577 21.6827 19.9608 22.0664 20.4341 22.0664H24.4676C24.4148 22.1372 24.3607 22.2119 24.3055 22.2902L19.5053 29.0906C19.4032 29.2352 19.3484 29.4079 19.3484 29.5849V31.1429C19.3484 31.6162 19.7322 32 20.2056 32H29.4452C29.9185 32 30.3023 31.6162 30.3023 31.1429V29.0764C30.3023 28.6031 29.9185 28.2193 29.4452 28.2193H25.0776C25.1305 28.1484 25.1848 28.0736 25.24 27.9952Z" fill="#0165E1" /></svg>