<svg width="32" height="26" viewBox="0 0 32 26" fill="none" xmlns="http://www.w3.org/2000/svg">
 <path  d= "M31.5694 9.44458C29.9561 9.4518 24.0689 9.7868 19.6894 14.0557C17.8494 15.7018 16.725 17.5723 16 19.3257C15.275 17.5723 14.1506 15.7018 12.3106 14.0557C7.93112 9.7868 2.04391 9.4518 0.430575 9.44458C0.185575 9.44346 -0.0022027 9.63346 1.95198e-05 9.87902C0.0127973 11.4301 0.396686 16.8868 4.93168 20.9512C9.59945 25.4968 14.2222 25.4446 16 25.4446C17.7778 25.4446 22.3994 25.4973 27.0683 20.9512C31.6039 16.8862 31.9872 11.4301 32 9.87902C32.0022 9.63346 31.8144 9.44346 31.5694 9.44458ZM15.9989 15.589C16.7111 14.5418 17.5322 13.6012 18.4483 12.7823C19.5089 11.7485 20.6472 10.9324 21.7961 10.2724C20.8828 6.35569 18.9228 2.88069 16.4222 0.704586C16.1939 0.505698 15.81 0.505698 15.5811 0.704586C13.0817 2.87903 11.1217 6.35069 10.2067 10.264C11.3383 10.914 12.4567 11.7162 13.4967 12.7301C14.4433 13.5783 15.2835 14.5383 15.9989 15.589Z" fill="#0165E1" /></svg>