<svg width="32" height="24" viewBox="0 0 32 24" fill="none" xmlns="http://www.w3.org/2000/svg">
 <path  d= "M29.6302 9.61225C27.9867 8.84185 25.7889 8.40005 23.6 8.40005H9.31635C9.06875 8.0723 8.7871 7.80115 8.48035 7.60005H18.8C11.4578 6.0874 10.9701 0.800049 4.80015 0.800049H4.8V7.20005H4V0.800049C2.6745 0.800049 1.6 2.23275 1.6 4.00005V7.20005C0.44015 7.20005 0 7.70165 0 8.40005V10.4C0 11.0992 0.44095 11.6 1.6 11.6V12.4C0.44015 12.4 0 12.9016 0 13.6V15.6C0 16.2992 0.44095 16.8 1.6 16.8V20C1.6 21.7673 2.6745 23.2 4 23.2V16.8H4.8V23.2H4.80015C10.9701 23.2 11.4578 17.9127 18.8 16.4H8.4803C8.78705 16.1989 9.0687 15.9278 9.3163 15.6H23.6C25.7889 15.6 27.9867 15.1582 29.6302 14.3878C31.1141 13.6923 32 12.7996 32 12C32 11.2004 31.1141 10.3078 29.6302 9.61225ZM24.4 14C24.2939 14 24.1922 13.9579 24.1172 13.8829C24.0421 13.8079 24 13.7061 24 13.6V10.4C24 10.294 24.0421 10.1922 24.1172 10.1172C24.1922 10.0422 24.2939 10 24.4 10C25.9955 10 25.9971 14 24.4 14Z" fill="#0165E1" /></svg>