<svg width="32" height="32" viewBox="0 0 32 32" fill="none" xmlns="http://www.w3.org/2000/svg">
 <path  d= "M19 3C19 4.65688 17.6569 6 16 6C14.3431 6 13 4.65688 13 3C13 1.34312 14.3431 0 16 0C17.6569 0 19 1.34312 19 3ZM16 26C14.3431 26 13 27.3431 13 29C13 30.6569 14.3431 32 16 32C17.6569 32 19 30.6569 19 29C19 27.3431 17.6569 26 16 26ZM29 13C27.3431 13 26 14.3431 26 16C26 17.6569 27.3431 19 29 19C30.6569 19 32 17.6569 32 16C32 14.3431 30.6569 13 29 13ZM6 16C6 14.3431 4.65688 13 3 13C1.34312 13 0 14.3431 0 16C0 17.6569 1.34312 19 3 19C4.65688 19 6 17.6569 6 16ZM6.80762 22.1924C5.15075 22.1924 3.80763 23.5355 3.80763 25.1924C3.80763 26.8493 5.15075 28.1924 6.80762 28.1924C8.4645 28.1924 9.80762 26.8493 9.80762 25.1924C9.80762 23.5356 8.46444 22.1924 6.80762 22.1924ZM25.1924 22.1924C23.5355 22.1924 22.1924 23.5355 22.1924 25.1924C22.1924 26.8493 23.5355 28.1924 25.1924 28.1924C26.8493 28.1924 28.1924 26.8493 28.1924 25.1924C28.1924 23.5356 26.8493 22.1924 25.1924 22.1924ZM6.80762 3.80763C5.15075 3.80763 3.80763 5.15075 3.80763 6.80762C3.80763 8.4645 5.15075 9.80762 6.80762 9.80762C8.4645 9.80762 9.80762 8.4645 9.80762 6.80762C9.80762 5.15075 8.46444 3.80763 6.80762 3.80763Z" fill="#0165E1" /></svg>