<svg width="32" height="28" viewBox="0 0 32 28" fill="none" xmlns="http://www.w3.org/2000/svg">
 <path  d= "M29.5181 10.2438L25.3269 8.80942C24.1219 8.39693 23.2306 7.50193 22.9431 6.41569L21.9438 2.63758C21.22 -0.0980247 17.1582 -0.93302 15.0701 1.22384L12.1863 4.2032C11.3576 5.06007 10.0901 5.51132 8.79885 5.41007L4.30637 5.05882C1.05327 4.80445 -1.12672 7.8638 0.617019 10.2357L3.02575 13.5119C3.71825 14.4538 3.827 15.6281 3.31575 16.6519L1.53889 20.2131C0.252021 22.7912 2.96638 25.5175 6.13199 24.8262L10.5045 23.8712C11.7613 23.5968 13.0951 23.8712 14.0713 24.6043L17.4663 27.1562C19.9238 29.0037 23.7813 27.6293 23.9944 24.83L24.2881 20.9637C24.3725 19.8519 25.0881 18.8475 26.2025 18.2769L30.0775 16.2931C32.8825 14.8581 32.5518 11.2825 29.5181 10.2438Z" fill="#0165E1" /></svg>