<svg width="32" height="32" viewBox="0 0 32 32" fill="none" xmlns="http://www.w3.org/2000/svg">
 <path  d= "M14 2C14 0.895625 13.1044 0 12 0H8C6.89563 0 6 0.895625 6 2V8H14V2ZM30 8C28.8956 8 28 8.89563 28 10C28 11.1044 28.8956 12 30 12C31.1044 12 32 11.1044 32 10C32 8.89563 31.1044 8 30 8ZM14 10H6C2.68625 10 0 12.6862 0 16V30C0 31.1044 0.895625 32 2 32H18C19.1044 32 20 31.1044 20 30V16C20 12.6862 17.3137 10 14 10ZM10 26C7.23875 26 5 23.7612 5 21C5 18.2388 7.23875 16 10 16C12.7612 16 15 18.2388 15 21C15 23.7612 12.7612 26 10 26ZM30 6C31.1044 6 32 5.10437 32 4C32 2.89563 31.1044 2 30 2C28.8956 2 28 2.89563 28 4C28 5.10437 28.8956 6 30 6ZM24 8C22.8956 8 22 8.89563 22 10C22 11.1044 22.8956 12 24 12C25.1044 12 26 11.1044 26 10C26 8.89563 25.1044 8 24 8ZM18 2C16.8956 2 16 2.89563 16 4C16 5.10437 16.8956 6 18 6C19.1044 6 20 5.10437 20 4C20 2.89563 19.1044 2 18 2ZM24 2C22.8956 2 22 2.89563 22 4C22 5.10437 22.8956 6 24 6C25.1044 6 26 5.10437 26 4C26 2.89563 25.1044 2 24 2ZM30 14C28.8956 14 28 14.8956 28 16C28 17.1044 28.8956 18 30 18C31.1044 18 32 17.1044 32 16C32 14.8956 31.1044 14 30 14Z" fill="#0165E1" /></svg>