<svg width="32" height="32" viewBox="0 0 32 32" fill="none" xmlns="http://www.w3.org/2000/svg">
 <path  d= "M2 31.9996H30V27.9996H2V31.9996ZM26 15.9996H21.84C20.8237 15.9996 20 15.1759 20 14.1596V13.5684C20 11.8578 20.555 10.2303 21.3412 8.71089C21.9106 7.61026 22.1475 6.31151 21.9069 4.93464C21.4838 2.51089 19.5025 0.515885 17.0781 0.0940105C13.2887 -0.565365 10 2.33276 10 5.99964C10 6.88464 10.195 7.72089 10.5431 8.47339C11.3763 10.2765 12 12.1684 12 14.1553V14.1596C12 15.1759 11.1762 15.9996 10.16 15.9996H6C2.68625 15.9996 0 18.6859 0 21.9996V23.9996C0 25.104 0.895625 25.9996 2 25.9996H30C31.1044 25.9996 32 25.104 32 23.9996V21.9996C32 18.6859 29.3137 15.9996 26 15.9996Z" fill="#0165E1" /></svg>