<svg width="32" height="32" viewBox="0 0 32 32" fill="none" xmlns="http://www.w3.org/2000/svg">
 <path  d= "M30.3611 10.9558L21.6227 9.68361L17.7177 1.77982C17.3666 1.07356 16.6819 0.716553 15.9971 0.716553C15.3165 0.716553 14.6365 1.06879 14.2843 1.77982L10.3781 9.68302L1.63905 10.954C0.0719068 11.1809 -0.556146 13.1086 0.579961 14.2131L6.90168 20.3623L5.40558 29.0476C5.19304 30.2882 6.18348 31.2834 7.29272 31.2834C7.58704 31.2834 7.88973 31.2135 8.18047 31.0595L15.9983 26.9592L23.8155 31.0607C24.1057 31.2129 24.4077 31.2822 24.7009 31.2822C25.8113 31.2822 26.8035 30.2905 26.591 29.0494L25.0967 20.3635L31.4196 14.2155C32.5563 13.111 31.9283 11.1827 30.3611 10.9558ZM23.0931 18.311L22.0114 19.3629L22.2669 20.8483L23.4322 27.6213L17.335 24.422L15.9989 23.7211L16.0007 4.78457L19.0472 10.9511L19.7147 12.3021L21.2078 12.5194L28.0274 13.5122L23.0931 18.311Z" fill="#0165E1" /></svg>