<svg width="32" height="32" viewBox="0 0 32 32" fill="none" xmlns="http://www.w3.org/2000/svg">
 <path  d= "M27.9438 6.99923C25.8062 7.03048 24.05 8.77423 24.0063 10.9117C23.975 12.4305 24.7875 13.7617 26.0063 14.4617V21.4992C26.0063 25.0805 22.8687 27.9992 19.0063 27.9992C15.2563 27.9992 12.1812 25.243 12.0125 21.7992C16.5625 20.8617 20 16.8242 20 11.9992V2.28673C20 1.57423 19.4938 0.95548 18.7938 0.81798L14.8625 0.0304802C14.05 -0.13202 13.2625 0.39298 13.1 1.20548L12.9 2.18673C12.7375 2.99923 13.2625 3.78673 14.075 3.94923L15.9937 4.33048V11.918C15.9937 15.2242 13.3563 17.9617 10.05 17.993C6.7125 18.0242 3.99375 15.3242 3.99375 11.993V4.33673L5.9125 3.95548C6.725 3.79298 7.25 3.00548 7.0875 2.19298L6.89375 1.21173C6.73125 0.39923 5.94375 -0.12577 5.13125 0.0367302L1.20625 0.81173C0.50625 0.95548 0 1.56798 0 2.28673V11.9992C0 16.8305 3.44375 20.8742 8.00625 21.7992C8.16875 27.4492 13.0375 31.9992 19 31.9992C25.0625 31.9992 30 27.2867 30 21.4992V14.4617C31.1938 13.768 32 12.4805 32 10.9992C32 8.76798 30.175 6.96798 27.9438 6.99923ZM28 11.9992C27.45 11.9992 27 11.5492 27 10.9992C27 10.4492 27.45 9.99923 28 9.99923C28.55 9.99923 29 10.4492 29 10.9992C29 11.5492 28.55 11.9992 28 11.9992Z" fill="#0165E1" /></svg>