<svg width="26" height="32" viewBox="0 0 26 32" fill="none" xmlns="http://www.w3.org/2000/svg">
 <path  d= "M25.9993 19C25.9993 26.1812 20.1805 32 12.9993 32C5.81802 32 -0.000732422 26.1812 -0.000732422 19C-0.000732422 12.5 4.76802 7.1125 10.9993 6.15625V4H9.24927C8.83677 4 8.49927 3.6625 8.49927 3.25V0.75C8.49927 0.3375 8.83677 0 9.24927 0H16.7493C17.1618 0 17.4993 0.3375 17.4993 0.75V3.25C17.4993 3.6625 17.1618 4 16.7493 4H14.9993V6.15625C17.343 6.51875 19.4805 7.50625 21.2305 8.94375L22.9493 7.225C23.243 6.93125 23.718 6.93125 24.0118 7.225L25.7805 8.99375C26.0743 9.2875 26.0743 9.7625 25.7805 10.0562L23.943 11.8938L23.9055 11.9312C25.2305 13.9562 25.9993 16.3875 25.9993 19ZM14.9993 21.25V11.7812C14.9993 11.3687 14.6618 11.0312 14.2493 11.0312H11.7493C11.3368 11.0312 10.9993 11.3687 10.9993 11.7812V21.25C10.9993 21.6625 11.3368 22 11.7493 22H14.2493C14.6618 22 14.9993 21.6625 14.9993 21.25Z" fill="#0165E1" /></svg>