<svg width="32" height="28" viewBox="0 0 32 28" fill="none" xmlns="http://www.w3.org/2000/svg">
 <path  d= "M31.2735 6.86148L27.9017 1.47902C27.6004 0.995846 27.0652 0.699707 26.4937 0.699707H5.50423C4.93273 0.699707 4.3976 0.995846 4.09627 1.47902L0.724435 6.86148C-1.01603 9.64103 0.527009 13.5064 3.77935 13.948C4.01314 13.9792 4.25213 13.9948 4.49112 13.9948C6.02896 13.9948 7.39017 13.3194 8.32534 12.2751C9.26052 13.3194 10.6269 13.9948 12.1596 13.9948C13.6974 13.9948 15.0586 13.3194 15.9938 12.2751C16.929 13.3194 18.2954 13.9948 19.828 13.9948C21.3659 13.9948 22.7271 13.3194 23.6622 12.2751C24.6026 13.3194 25.9638 13.9948 27.4965 13.9948C27.7406 13.9948 27.9744 13.9792 28.2082 13.948C31.471 13.5116 33.0192 9.64623 31.2735 6.86148ZM27.5069 15.6625C26.9873 15.6625 26.473 15.5846 25.9742 15.4651V20.6501H6.02377V15.4651C5.52501 15.5794 5.01066 15.6625 4.49112 15.6625C4.17939 15.6625 3.86247 15.6417 3.55594 15.6002C3.265 15.5586 2.97925 15.4911 2.70389 15.4132V25.6377C2.70389 26.5573 3.44684 27.3003 4.36643 27.3003H27.6419C28.5615 27.3003 29.3045 26.5573 29.3045 25.6377V15.4132C29.0239 15.4963 28.7434 15.5638 28.4524 15.6002C28.1355 15.6417 27.8238 15.6625 27.5069 15.6625Z" fill="#0165E1" /></svg>