<svg width="32" height="26" viewBox="0 0 32 26" fill="none" xmlns="http://www.w3.org/2000/svg">
 <path  d= "M15.999 19.4005H6.39805V11.3998H3.19774V24.201C3.19774 25.0861 3.91281 25.8012 4.79789 25.8012H17.5991C18.4842 25.8012 19.1993 25.0861 19.1993 24.201V11.3998H15.999V19.4005ZM31.7304 7.3094L27.465 0.908798C27.165 0.463756 26.665 0.19873 26.1299 0.19873H5.868C5.33295 0.19873 4.8329 0.463756 4.53787 0.908798L0.272466 7.3094C-0.437601 8.3745 0.322471 9.79964 1.60259 9.79964H30.4003C31.6754 9.79964 32.4355 8.3745 31.7304 7.3094ZM25.5999 25.0011C25.5999 25.4411 25.9599 25.8012 26.3999 25.8012H28.0001C28.4401 25.8012 28.8002 25.4411 28.8002 25.0011V11.3998H25.5999V25.0011Z" fill="#0165E1" /></svg>