<svg width="32" height="32" viewBox="0 0 32 32" fill="none" xmlns="http://www.w3.org/2000/svg">
 <path  d= "M12 4C12 1.79087 13.7909 0 16 0C18.2091 0 20 1.79087 20 4C20 6.20913 18.2091 8 16 8C13.7909 8 12 6.20913 12 4ZM19 9H18.29C16.8706 9.65269 15.1906 9.68087 13.71 9H13C11.3431 9 10 10.3431 10 12V18.5C10 19.3284 10.6716 20 11.5 20H12.5V26.5C12.5 27.3284 13.1716 28 14 28H18C18.8284 28 19.5 27.3284 19.5 26.5V20H20.5C21.3284 20 22 19.3284 22 18.5V12C22 10.3431 20.6569 9 19 9ZM24.3526 20.822C23.9168 21.5422 23.2889 22.1267 22.5395 22.5101C24.4458 22.8282 30 24.1159 30 26C30 28.894 19.5215 30 16 30C11.6061 30 2 28.6963 2 26C2 24.1173 7.52256 22.8334 9.46044 22.5101C8.71103 22.1267 8.0832 21.5421 7.64731 20.822C4.68494 21.4622 0 22.9749 0 26C0 30.8194 11.1661 32 16 32C20.8281 32 32 30.8209 32 26C32 22.9748 27.3146 21.4621 24.3526 20.822Z" fill="#0165E1" /></svg>