<svg width="32" height="30" viewBox="0 0 32 30" fill="none" xmlns="http://www.w3.org/2000/svg">
 <path  d= "M31 16.9115H1C0.447688 16.9115 0 16.4638 0 15.9115V13.9115C0 13.3592 0.447688 12.9115 1 12.9115H31C31.5523 12.9115 32 13.3592 32 13.9115V15.9115C32 16.4638 31.5523 16.9115 31 16.9115ZM17.5834 17.9115C19.287 18.72 20.4911 19.7042 20.4911 21.4267C20.4911 23.4959 18.6801 24.7814 15.7648 24.7814C13.7445 24.7814 10.9602 24.0264 10.9602 22.0145V21.9115C10.9602 21.3592 10.5124 20.9115 9.96019 20.9115H7.10938C6.55713 20.9115 6.10938 21.3592 6.10938 21.9115V23.1117C6.10938 27.2895 10.9667 29.4755 15.7648 29.4755C21.3009 29.4755 25.8906 26.6356 25.8906 21.074C25.8906 19.8355 25.6645 18.7979 25.2567 17.9115H17.5834ZM15.6489 11.9115C13.6225 11.0674 12.0966 10.1024 12.0966 8.18129C12.0966 6.06129 14.0279 5.21841 16.1567 5.21841C18.8222 5.21841 20.2169 6.25548 20.2169 7.27998V7.41148C20.2169 7.96379 20.6646 8.41148 21.2169 8.41148H24.0677C24.6199 8.41148 25.0677 7.96379 25.0677 7.41148V5.5166C25.0677 2.23923 20.5849 0.524414 16.1567 0.524414C10.8316 0.524414 6.73637 3.08516 6.73637 8.37729C6.73637 9.79666 7.02794 10.9508 7.53494 11.9115H15.6489Z" fill="#0165E1" /></svg>