<svg width="32" height="32" viewBox="0 0 32 32" fill="none" xmlns="http://www.w3.org/2000/svg">
 <path  d= "M11.7575 13.1713L8.92875 16L11.7569 18.8281L14.5856 16L11.7575 13.1713ZM18.8281 11.7575L16 8.92875L13.1719 11.7569L16 14.5856L18.8281 11.7575ZM13.1719 20.2425L16 23.0713L18.8288 20.2425L16 17.4144L13.1719 20.2425ZM16 0C7.16375 0 0 7.16375 0 16C0 24.8363 7.16375 32 16 32C24.8363 32 32 24.8363 32 16C32 7.16375 24.8363 0 16 0ZM27.6675 18.475L26.9606 19.1819C26.7656 19.3769 26.4487 19.3769 26.2537 19.1819L24.4856 17.4137L21.6575 20.2419L23.7787 22.3631L24.8394 21.3025C25.0344 21.1075 25.3512 21.1075 25.5462 21.3025L26.2531 22.0094C26.4481 22.2044 26.4481 22.5212 26.2531 22.7162L25.1925 23.7769L26.2531 24.8375C26.4481 25.0325 26.4481 25.3494 26.2531 25.5444L25.5462 26.2512C25.3512 26.4462 25.0344 26.4462 24.8394 26.2512L23.7787 25.1906L22.7181 26.2512C22.5231 26.4462 22.2062 26.4462 22.0112 26.2512L21.3044 25.5444C21.1094 25.3494 21.1094 25.0325 21.3044 24.8375L22.365 23.7769L20.2437 21.6556L17.415 24.4844L19.1831 26.2525C19.3781 26.4475 19.3781 26.7644 19.1831 26.9594L18.4762 27.6663C18.2812 27.8612 17.9644 27.8612 17.7694 27.6663L16 25.8994L14.2319 27.6675C14.0369 27.8625 13.72 27.8625 13.525 27.6675L12.8181 26.9606C12.6231 26.7656 12.6231 26.4487 12.8181 26.2537L14.5863 24.4856L11.7581 21.6569L9.63688 23.7781L10.6975 24.8388C10.8925 25.0338 10.8925 25.3506 10.6975 25.5456L9.99063 26.2525C9.79563 26.4475 9.47875 26.4475 9.28375 26.2525L8.22313 25.1919L7.1625 26.2525C6.9675 26.4475 6.65063 26.4475 6.45563 26.2525L5.74875 25.5456C5.55375 25.3506 5.55375 25.0338 5.74875 24.8388L6.80937 23.7781L5.74875 22.7175C5.55375 22.5225 5.55375 22.2056 5.74875 22.0106L6.45563 21.3037C6.65063 21.1087 6.9675 21.1087 7.1625 21.3037L8.22313 22.3644L10.3444 20.2431L7.51625 17.415L5.74813 19.1831C5.55312 19.3781 5.23625 19.3781 5.04125 19.1831L4.3325 18.475C4.1375 18.28 4.1375 17.9631 4.3325 17.7681L6.10063 16L4.3325 14.2319C4.1375 14.0369 4.1375 13.72 4.3325 13.525L5.03937 12.8181C5.23438 12.6231 5.55125 12.6231 5.74625 12.8181L7.51438 14.5863L10.3425 11.7575L8.22125 9.63625L7.16062 10.6969C6.96562 10.8919 6.64875 10.8919 6.45375 10.6969L5.74687 9.99C5.55187 9.795 5.55187 9.47812 5.74687 9.28312L6.8075 8.2225L5.74687 7.16187C5.55187 6.96687 5.55187 6.65 5.74687 6.455L6.45375 5.74813C6.64875 5.55312 6.96562 5.55312 7.16062 5.74813L8.22125 6.80875L9.28187 5.74813C9.47687 5.55312 9.79375 5.55312 9.98875 5.74813L10.6956 6.455C10.8906 6.65 10.8906 6.96687 10.6956 7.16187L9.635 8.2225L11.7563 10.3438L14.585 7.51562L12.8169 5.7475C12.6219 5.5525 12.6219 5.23563 12.8169 5.04063L13.5238 4.33375C13.7188 4.13875 14.0356 4.13875 14.2306 4.33375L16 6.10063L17.7681 4.3325C17.9631 4.1375 18.28 4.1375 18.475 4.3325L19.1819 5.03937C19.3769 5.23438 19.3769 5.55125 19.1819 5.74625L17.4137 7.51438L20.2425 10.3425L22.3638 8.22125L21.3031 7.16062C21.1081 6.96562 21.1081 6.64875 21.3031 6.45375L22.01 5.74687C22.205 5.55187 22.5219 5.55187 22.7169 5.74687L23.7775 6.8075L24.8381 5.74687C25.0331 5.55187 25.35 5.55187 25.545 5.74687L26.2519 6.45375C26.4469 6.64875 26.4469 6.96562 26.2519 7.16062L25.1912 8.22125L26.2519 9.28187C26.4469 9.47687 26.4469 9.79375 26.2519 9.98875L25.545 10.6956C25.35 10.8906 25.0331 10.8906 24.8381 10.6956L23.7775 9.635L21.6562 11.7563L24.4844 14.585L26.2525 12.8169C26.4475 12.6219 26.7644 12.6219 26.9594 12.8169L27.6663 13.5238C27.8612 13.7188 27.8612 14.0356 27.6663 14.2306L25.8994 16L27.6675 17.7675C27.7612 17.8614 27.8138 17.9886 27.8138 18.1213C27.8138 18.2539 27.7612 18.3811 27.6675 18.475ZM17.4144 16L20.2431 18.8281L23.0713 16L20.2431 13.1713L17.4144 16Z" fill="#0165E1" /></svg>