<svg width="32" height="28" viewBox="0 0 32 28" fill="none" xmlns="http://www.w3.org/2000/svg">
 <path  d= "M24.6999 24C24.9162 23.3421 25.8746 22.67 26.9664 21.9734C28.0055 21.3106 29.1831 20.5593 30.1127 19.5446C31.2039 18.3537 31.7342 17.0336 31.7342 15.5091C31.7342 11.724 28.5654 10 25.6211 10C22.9654 10 20.8475 11.376 19.7191 13.1529C19.4283 13.611 19.5571 14.2177 20.0081 14.5195L21.9036 15.788C22.3431 16.0821 22.9323 15.9807 23.2554 15.5621C23.7568 14.9125 24.4316 14.4231 25.2346 14.4231C26.4463 14.4231 26.8762 15.2294 26.8762 15.9198C26.8762 18.1798 19.4114 19.4837 19.4114 25.9213C19.4114 26.3372 19.4465 26.7347 19.4999 27.1295C19.5671 27.6272 19.9895 28 20.4918 28H31C31.5523 28 32 27.5523 32 27V25C32 24.4477 31.5523 24 31 24H24.6999ZM17 14C17.5523 14 18 14.4477 18 15V17C18 17.5523 17.5523 18 17 18H13.1001C12.931 18 12.7647 17.9571 12.6167 17.8754C12.4687 17.7936 12.3438 17.6757 12.2537 17.5326L9.39744 12.9942C9.25387 12.7847 9.12106 12.5586 9.01025 12.3561C8.90713 12.5589 8.78231 12.7897 8.64312 13.0175L5.84863 17.5267C5.75895 17.6714 5.63381 17.7908 5.48506 17.8737C5.33631 17.9565 5.16888 17.9999 4.99862 17.9999H1C0.447688 17.9999 0 17.5522 0 16.9999V14.9999C0 14.4476 0.447688 13.9999 1 13.9999H2.64531L6.17981 8.83062L2.88194 4H1C0.447688 4 0 3.55231 0 3V1C0 0.447688 0.447688 2.01349e-10 1 2.01349e-10H5.30037C5.47153 -3.43392e-06 5.63982 0.0439214 5.78913 0.12757C5.93845 0.211219 6.0638 0.331793 6.15319 0.47775L8.64581 4.54812C8.77531 4.76831 8.89913 4.99631 9.00375 5.19625C9.11481 4.9935 9.24875 4.76162 9.39356 4.53769L11.9143 0.473C12.004 0.328353 12.1291 0.208992 12.2778 0.12622C12.4265 0.0434476 12.5939 3.06357e-06 12.7641 2.01349e-10H17C17.5523 2.01349e-10 18 0.447688 18 1V3C18 3.55231 17.5523 4 17 4H15.2513L11.9582 8.72944L15.6234 14H17Z" fill="#0165E1" /></svg>