<svg width="28" height="32" viewBox="0 0 28 32" fill="none" xmlns="http://www.w3.org/2000/svg">
 <path  d= "M28 6V22C28 25.2384 24.1485 28 19.8736 28L23.8099 31.1076C24.1816 31.4011 23.9726 32 23.5 32H4.5C4.02637 32 3.81925 31.4004 4.19019 31.1076L8.12638 28C3.86375 28 0 25.2471 0 22V6C0 2.68631 4 0 8 0H20C24.0625 0 28 2.68631 28 6ZM12.5 14.5V7.5C12.5 6.67156 11.8284 6 11 6H4.5C3.67156 6 3 6.67156 3 7.5V14.5C3 15.3284 3.67156 16 4.5 16H11C11.8284 16 12.5 15.3284 12.5 14.5ZM25 14.5V7.5C25 6.67156 24.3284 6 23.5 6H17C16.1716 6 15.5 6.67156 15.5 7.5V14.5C15.5 15.3284 16.1716 16 17 16H23.5C24.3284 16 25 15.3284 25 14.5ZM22 18C20.3431 18 19 19.3431 19 21C19 22.6569 20.3431 24 22 24C23.6569 24 25 22.6569 25 21C25 19.3431 23.6569 18 22 18ZM6 18C4.34312 18 3 19.3431 3 21C3 22.6569 4.34312 24 6 24C7.65688 24 9 22.6569 9 21C9 19.3431 7.65688 18 6 18Z" fill="#0165E1" /></svg>