<svg width="24" height="32" viewBox="0 0 24 32" fill="none" xmlns="http://www.w3.org/2000/svg">
 <path  d= "M21 10H3C1.34312 10 0 11.3431 0 13V27C0 28.6569 1.34312 30 3 30H4V31C4 31.5525 4.4475 32 5 32H7C7.5525 32 8 31.5525 8 31V30H16V31C16 31.5525 16.4475 32 17 32H19C19.5525 32 20 31.5525 20 31V30H21C22.6569 30 24 28.6569 24 27V13C24 11.3431 22.6569 10 21 10ZM20 23.5C20 23.7763 19.7763 24 19.5 24H4.5C4.22375 24 4 23.7763 4 23.5V22.5C4 22.2237 4.22375 22 4.5 22H19.5C19.7763 22 20 22.2237 20 22.5V23.5ZM20 17.5C20 17.7763 19.7763 18 19.5 18H4.5C4.22375 18 4 17.7763 4 17.5V16.5C4 16.2237 4.22375 16 4.5 16H19.5C19.7763 16 20 16.2237 20 16.5V17.5ZM9 3H15V8H18V3C18 1.34312 16.6569 0 15 0H9C7.34312 0 6 1.34312 6 3V8H9V3Z" fill="#0165E1" /></svg>