<svg width="32" height="32" viewBox="0 0 32 32" fill="none" xmlns="http://www.w3.org/2000/svg">
 <path  d= "M17.1772 0.790359L18.772 4.68992C19.0353 5.33373 19.8139 5.58673 20.4053 5.22067L23.9876 3.00323C24.9557 2.40398 26.1631 3.28117 25.8923 4.38711L24.8904 8.47929C24.725 9.15492 25.2062 9.81729 25.8999 9.86873L30.1014 10.1804C31.2368 10.2647 31.698 11.684 30.829 12.4195L27.6132 15.1412C27.0822 15.5906 27.0822 16.4093 27.6132 16.8587L30.829 19.5804C31.6982 20.316 31.237 21.7353 30.1015 21.8195L25.9 22.1312C25.2063 22.1827 24.725 22.845 24.8905 23.5207L25.8923 27.6128C26.1631 28.7188 24.9557 29.596 23.9877 28.9967L20.4054 26.7793C19.814 26.4132 19.0353 26.6662 18.772 27.31L17.1773 31.2096C16.7463 32.2635 15.2539 32.2635 14.8229 31.2096L13.2282 27.31C12.9648 26.6662 12.1862 26.4132 11.5948 26.7793L8.01247 28.9967C7.04435 29.596 5.83697 28.7188 6.10779 27.6128L7.10966 23.5207C7.2751 22.845 6.79385 22.1827 6.10016 22.1312L1.89866 21.8195C0.763227 21.7353 0.302039 20.316 1.1711 19.5804L4.38691 16.8587C4.91785 16.4094 4.91785 15.5907 4.38691 15.1413L1.17104 12.4195C0.301914 11.684 0.763102 10.2647 1.8986 10.1804L6.1001 9.86873C6.79379 9.81729 7.27504 9.15492 7.1096 8.47929L6.10772 4.38711C5.83697 3.28117 7.04435 2.40398 8.01241 3.00323L11.5947 5.22067C12.1862 5.58679 12.9648 5.33379 13.2281 4.68992L14.8228 0.790359C15.2538 -0.263453 16.7462 -0.263453 17.1772 0.790359ZM24.5 16C24.5 11.313 20.6869 7.49998 16 7.49998C11.3131 7.49998 7.50004 11.313 7.50004 16C7.50004 20.6869 11.3131 24.5 16 24.5C20.6869 24.5 24.5 20.6869 24.5 16ZM22.5 16C22.5 19.5841 19.5842 22.5 16 22.5C12.4159 22.5 9.50003 19.5841 9.50003 16C9.50003 12.4159 12.4159 9.49998 16 9.49998C19.5842 9.49998 22.5 12.4159 22.5 16Z" fill="#0165E1" /></svg>