<svg width="32" height="28" viewBox="0 0 32 28" fill="none" xmlns="http://www.w3.org/2000/svg">
 <path  d= "M24.6999 14C24.9162 13.3421 25.8746 12.67 26.9664 11.9734C28.0055 11.3106 29.1831 10.5593 30.1127 9.54456C31.2039 8.35369 31.7342 7.03363 31.7342 5.50913C31.7342 1.724 28.5654 0 25.6211 0C22.9654 0 20.8475 1.376 19.7191 3.15294C19.4283 3.611 19.5571 4.21769 20.0081 4.5195L21.9036 5.788C22.3431 6.08213 22.9323 5.98075 23.2554 5.56213C23.7568 4.9125 24.4316 4.42306 25.2346 4.42306C26.4463 4.42306 26.8762 5.22938 26.8762 5.91981C26.8762 8.17975 19.4114 9.48375 19.4114 15.9213C19.4114 16.3372 19.4465 16.7347 19.4999 17.1295C19.5671 17.6272 19.9895 18 20.4918 18H31C31.5523 18 32 17.5523 32 17V15C32 14.4477 31.5523 14 31 14H24.6999ZM17 24C17.5523 24 18 24.4477 18 25V27C18 27.5523 17.5523 28 17 28H13.1001C12.931 28 12.7647 27.9571 12.6167 27.8754C12.4687 27.7936 12.3438 27.6757 12.2537 27.5326L9.39744 22.9942C9.25387 22.7847 9.12106 22.5586 9.01025 22.3561C8.90713 22.5589 8.78231 22.7897 8.64312 23.0175L5.84863 27.5267C5.75895 27.6714 5.63381 27.7908 5.48506 27.8737C5.33631 27.9565 5.16888 27.9999 4.99862 27.9999H1C0.447688 27.9999 0 27.5522 0 26.9999V24.9999C0 24.4476 0.447688 23.9999 1 23.9999H2.64531L6.17981 18.8306L2.88194 14H1C0.447688 14 0 13.5523 0 13V11C0 10.4477 0.447688 10 1 10H5.30037C5.47153 10 5.63982 10.0439 5.78913 10.1276C5.93845 10.2112 6.0638 10.3318 6.15319 10.4777L8.64581 14.5481C8.77531 14.7683 8.89913 14.9963 9.00375 15.1963C9.11481 14.9935 9.24875 14.7616 9.39356 14.5377L11.9143 10.473C12.004 10.3284 12.1292 10.209 12.2779 10.1262C12.4266 10.0435 12.594 10.0001 12.7642 10.0001H17C17.5523 10.0001 18 10.4478 18 11.0001V13.0001C18 13.5524 17.5523 14.0001 17 14.0001H15.2513L11.9582 18.7295L15.6234 24H17Z" fill="#0165E1" /></svg>