<svg width="32" height="32" viewBox="0 0 32 32" fill="none" xmlns="http://www.w3.org/2000/svg">
 <path  d= "M29.9725 20H23.2994L11.6656 31.6569C11.5369 31.7863 11.385 31.8806 11.2487 32H29.9725C31.075 32 31.9688 31.1044 31.9688 30V22C31.9688 20.8956 31.075 20 29.9725 20ZM27.1912 10.4438L21.5456 4.78687C20.7663 4.00562 19.5025 4.00562 18.7225 4.78687L14.0037 9.515V26C14.0037 26.185 13.9619 26.3581 13.9494 26.54L27.1912 13.2725C27.9706 12.4913 27.9706 11.2244 27.1912 10.4438ZM12.0075 2C12.0075 0.895625 11.1137 0 10.0112 0H2.0275C0.925 0 0.03125 0.895625 0.03125 2V26C0.03125 29.3137 2.7125 32 6.01937 32C9.32625 32 12.0075 29.3137 12.0075 26V2ZM6.01937 27.5C5.1925 27.5 4.5225 26.8281 4.5225 26C4.5225 25.1712 5.19312 24.5 6.01937 24.5C6.84562 24.5 7.51625 25.1712 7.51625 26C7.51688 26.8281 6.84625 27.5 6.01937 27.5ZM8.01562 16H4.02375V12H8.01625V16H8.01562ZM8.01562 8H4.02375V4H8.01625V8H8.01562Z" fill="#0165E1" /></svg>