<svg width="32" height="16" viewBox="0 0 32 16" fill="none" xmlns="http://www.w3.org/2000/svg">
 <path  d= "M9.4805 10.7291C9.6575 10.8921 10.244 11.2001 11.2 11.2001C12.156 11.2001 12.743 10.8921 12.9195 10.7291C13.7205 9.9906 14.6445 9.6001 15.5925 9.6001H16.4075C17.3555 9.6001 18.28 9.9906 19.0805 10.7291C19.2575 10.8921 19.844 11.2001 20.8 11.2001C21.756 11.2001 22.343 10.8921 22.5195 10.7291C23.2625 10.0436 24.1135 9.6731 24.989 9.6211L19.347 5.5911L20.247 4.9481C20.429 4.8191 20.661 4.7721 20.878 4.8176L25.8955 5.8941C27.191 6.1706 28.4675 5.3456 28.7455 4.0501C29.023 2.7541 28.198 1.4781 26.9015 1.2001L21.884 0.1236C20.3475 -0.2054 18.733 0.1296 17.456 1.0426L13.455 3.9011C12.936 4.2706 12.487 4.7231 12.119 5.2481L8.6875 10.1501C8.961 10.3116 9.2285 10.4966 9.4805 10.7291ZM31.2 12.8001H30.4C29.098 12.8001 28.11 12.3791 27.5955 11.9051C27.1505 11.4946 26.6125 11.2001 26.007 11.2001H25.192C24.5865 11.2001 24.0485 11.4946 23.6035 11.9051C23.09 12.3791 22.102 12.8001 20.8 12.8001C19.498 12.8001 18.51 12.3791 17.9955 11.9051C17.5505 11.4946 17.0125 11.2001 16.407 11.2001H15.592C14.9865 11.2001 14.4485 11.4946 14.0035 11.9051C13.49 12.3791 12.502 12.8001 11.2 12.8001C9.898 12.8001 8.91 12.3791 8.3955 11.9051C7.9505 11.4946 7.4125 11.2001 6.807 11.2001H5.992C5.3865 11.2001 4.8485 11.4946 4.4035 11.9051C3.89 12.3791 2.902 12.8001 1.6 12.8001H0.8C0.358 12.8001 0 13.1581 0 13.6001V15.2001C0 15.6421 0.358 16.0001 0.8 16.0001H1.6C3.531 16.0001 5.236 15.3906 6.4 14.4081C7.564 15.3911 9.269 16.0001 11.2 16.0001C13.131 16.0001 14.836 15.3906 16 14.4081C17.164 15.3911 18.869 16.0001 20.8 16.0001C22.731 16.0001 24.436 15.3906 25.6 14.4081C26.764 15.3911 28.469 16.0001 30.4 16.0001H31.2C31.642 16.0001 32 15.6421 32 15.2001V13.6001C32 13.1581 31.642 12.8001 31.2 12.8001ZM5.6 8.0001C7.809 8.0001 9.6 6.2091 9.6 4.0001C9.6 1.7911 7.809 0.000100335 5.6 0.000100335C3.391 0.000100335 1.6 1.7911 1.6 4.0001C1.6 6.2091 3.391 8.0001 5.6 8.0001Z" fill="#0165E1" /></svg>