<svg width="32" height="24" viewBox="0 0 32 24" fill="none" xmlns="http://www.w3.org/2000/svg">
 <path  d= "M31.2 20H30.4C29.098 20 28.11 19.579 27.5955 19.105C27.1505 18.6945 26.6125 18.4 26.007 18.4H25.192C24.5865 18.4 24.0485 18.6945 23.6035 19.105C23.09 19.579 22.102 20 20.8 20C19.498 20 18.51 19.579 17.9955 19.105C17.5505 18.6945 17.0125 18.4 16.407 18.4H15.592C14.9865 18.4 14.4485 18.6945 14.0035 19.105C13.49 19.579 12.502 20 11.2 20C9.898 20 8.91 19.579 8.3955 19.105C7.9505 18.6945 7.4125 18.4 6.807 18.4H5.992C5.3865 18.4 4.8485 18.6945 4.4035 19.105C3.89 19.579 2.902 20 1.6 20H0.8C0.358 20 0 20.358 0 20.8V22.4C0 22.842 0.358 23.2 0.8 23.2H1.6C3.531 23.2 5.236 22.5905 6.4 21.608C7.564 22.591 9.269 23.2 11.2 23.2C13.131 23.2 14.836 22.5905 16 21.608C17.164 22.591 18.869 23.2 20.8 23.2C22.731 23.2 24.436 22.5905 25.6 21.608C26.764 22.591 28.469 23.2 30.4 23.2H31.2C31.642 23.2 32 22.842 32 22.4V20.8C32 20.358 31.642 20 31.2 20ZM11.2 18.4V13.6H20.8V18.4C21.756 18.4 22.343 18.092 22.5195 17.929C22.978 17.506 23.4795 17.212 24 17.0255V5.60005C24 4.71805 24.718 4.00005 25.6 4.00005C26.482 4.00005 27.2 4.71805 27.2 5.60005V6.40005C27.2 6.84205 27.558 7.20005 28 7.20005H29.6C30.042 7.20005 30.4 6.84205 30.4 6.40005V5.60005C30.4 2.95305 28.247 0.800049 25.6 0.800049C22.953 0.800049 20.8 2.95305 20.8 5.60005V10.4H11.2V5.60005C11.2 4.71805 11.918 4.00005 12.8 4.00005C13.682 4.00005 14.4 4.71805 14.4 5.60005V6.40005C14.4 6.84205 14.758 7.20005 15.2 7.20005H16.8C17.242 7.20005 17.6 6.84205 17.6 6.40005V5.60005C17.6 2.95305 15.447 0.800049 12.8 0.800049C10.153 0.800049 8 2.95305 8 5.60005V17.025C8.5205 17.2115 9.022 17.506 9.4805 17.9285C9.657 18.092 10.244 18.4 11.2 18.4Z" fill="#0165E1" /></svg>