<svg width="32" height="32" viewBox="0 0 32 32" fill="none" xmlns="http://www.w3.org/2000/svg">
 <path  d= "M27.5405 0.795618L27.7882 5.96513C24.9473 2.62755 20.7162 0.509929 15.9896 0.509929C8.42034 0.509929 2.11943 5.93915 0.768 13.1157C0.681307 13.576 1.03708 14.0012 1.50546 14.0012H4.57121C4.91911 14.0012 5.21936 13.7612 5.30049 13.4228C6.45874 8.59267 10.8012 5.007 15.9896 5.007C19.7929 5.007 23.1419 6.93425 25.1152 9.86641L18.7737 9.56254C18.3461 9.54205 17.9883 9.88314 17.9883 10.3112V13.2724C17.9883 13.6864 18.3239 14.022 18.7378 14.022H31.2505C31.6644 14.022 32 13.6864 32 13.2724V0.759766C32 0.345848 31.6644 0.0102539 31.2505 0.0102539H28.2892C27.8612 0.0102539 27.52 0.368084 27.5405 0.795618ZM15.9896 26.9927C12.1861 26.9927 8.83694 25.0653 6.86372 22.1331L13.2263 22.4373C13.6539 22.4577 14.0116 22.1166 14.0116 21.6887V18.7273C14.0116 18.3134 13.676 17.9778 13.2621 17.9778H0.749512C0.335594 17.9778 0 18.3134 0 18.7273V31.2399C0 31.6539 0.335594 31.9895 0.749512 31.9895H3.70915C4.13781 31.9895 4.47915 31.6306 4.45773 31.2025L4.19983 26.0449C7.04073 29.3765 11.268 31.4898 15.9896 31.4898C23.5589 31.4898 29.8598 26.0606 31.2112 18.884C31.2979 18.4237 30.9421 17.9986 30.4737 17.9986H27.408C27.0601 17.9986 26.7598 18.2385 26.6787 18.5769C25.5205 23.407 21.178 26.9927 15.9896 26.9927Z" fill="#0165E1" /></svg>