<svg width="32" height="32" viewBox="0 0 32 32" fill="none" xmlns="http://www.w3.org/2000/svg">
 <path  d= "M23.4013 8.08258C21.3844 6.19406 18.767 5.15884 15.9902 5.16129C10.9929 5.16568 6.67871 8.59213 5.48755 13.3452C5.40084 13.6912 5.09258 13.9355 4.73587 13.9355H1.0389C0.555161 13.9355 0.187677 13.4963 0.277161 13.0209C1.6731 5.608 8.18148 0 16 0C20.287 0 24.1801 1.68619 27.0526 4.43129L29.3568 2.1271C30.3322 1.15168 32 1.84252 32 3.222V11.871C32 12.7261 31.3068 13.4194 30.4516 13.4194H21.8026C20.4232 13.4194 19.7323 11.7515 20.7077 10.7761L23.4013 8.08258ZM1.54839 18.5806H10.1974C11.5768 18.5806 12.2677 20.2485 11.2923 21.2239L8.59871 23.9175C10.6156 25.8061 13.2332 26.8413 16.0101 26.8388C21.0048 26.8343 25.3207 23.4101 26.5125 18.655C26.5992 18.309 26.9074 18.0646 27.2641 18.0646H30.9612C31.4449 18.0646 31.8124 18.5038 31.7229 18.9792C30.3269 26.392 23.8185 32 16 32C11.713 32 7.81994 30.3138 4.94742 27.5687L2.64323 29.8729C1.66781 30.8483 0 30.1575 0 28.778V20.129C0 19.2739 0.693226 18.5806 1.54839 18.5806Z" fill="#0165E1" /></svg>