<svg width="32" height="32" viewBox="0 0 32 32" fill="none" xmlns="http://www.w3.org/2000/svg">
 <path  d= "M12.5941 10.9287L16.075 14.4158C16.2687 14.6096 16.2687 14.9283 16.075 15.122L15.3688 15.8282C15.1751 16.0219 14.8564 16.0219 14.6626 15.8282L11.1817 12.341L8.35075 15.172L11.8379 18.6592C12.0316 18.8529 12.0316 19.1716 11.8379 19.3653L11.1317 20.0715C10.938 20.2653 10.6193 20.2653 10.4255 20.0715L6.93839 16.5781L5.28855 18.228C4.2074 19.3091 3.6887 20.7965 3.85119 22.3151L4.29489 26.2897L0.145298 30.4393C-0.0484328 30.633 -0.0484328 30.9517 0.145298 31.1454L0.851479 31.8516C1.04521 32.0454 1.36393 32.0454 1.55766 31.8516L5.70101 27.7083L9.67562 28.152C11.1692 28.3145 12.6691 27.8145 13.7627 26.7146L25.1304 15.347L16.6499 6.86657L12.5941 10.9287ZM31.8547 5.09799L26.9052 0.148472C26.7115 -0.0452589 26.3927 -0.0452589 26.199 0.148472L25.4928 0.854653C25.2991 1.04838 25.2991 1.3671 25.4928 1.56083L27.2614 3.32941L24.4304 6.16039L20.8933 2.62323L19.8309 1.56083C19.6371 1.3671 19.3184 1.3671 19.1247 1.56083L17.0062 3.67938C16.8124 3.87311 16.8124 4.19183 17.0062 4.38556L18.0685 5.44795L26.549 13.9409L27.6114 15.0033C27.8051 15.197 28.1238 15.197 28.3175 15.0033L30.4361 12.8785C30.6298 12.6847 30.6298 12.366 30.4361 12.1723L25.8428 7.579L28.6738 4.74802L30.4423 6.5166C30.6361 6.71033 30.9548 6.71033 31.1485 6.5166L31.8547 5.81042C32.0484 5.61044 32.0484 5.29797 31.8547 5.09799Z" fill="#0165E1" /></svg>