<svg width="32" height="26" viewBox="0 0 32 26" fill="none" xmlns="http://www.w3.org/2000/svg">
 <path  d= "M8.00004 9.80046C3.94502 9.80046 0.625014 12.7255 0.0050126 16.5355C-0.0349875 16.7755 0.170013 17.0005 0.420014 17.0005H15.5851C15.8351 17.0005 16.0401 16.7755 16.0001 16.5355C15.3751 12.7255 12.055 9.80046 8.00004 9.80046ZM15.5801 18.6005H0.420014C0.170013 18.6005 -0.0349875 18.8255 0.0050126 19.0655C0.625014 22.8755 3.94502 25.8005 8.00004 25.8005C12.055 25.8005 15.3751 22.8755 15.9951 19.0655C16.0351 18.8255 15.8301 18.6005 15.5801 18.6005ZM29.6701 2.53044C26.8451 -0.294567 22.4601 -0.539568 19.3251 1.73044C19.1251 1.87544 19.1101 2.17544 19.2851 2.34544L29.8501 12.9155C30.0251 13.0905 30.3251 13.0755 30.4651 12.8755C32.7401 9.74046 32.4951 5.35545 29.6701 2.53044ZM18.1501 3.48544C17.9751 3.31044 17.6751 3.32544 17.5351 3.52544C15.2651 6.66045 15.5101 11.0455 18.3301 13.8705C21.1551 16.6955 25.5401 16.9405 28.6751 14.6655C28.8751 14.5205 28.8901 14.2205 28.7151 14.0505L18.1501 3.48544Z" fill="#0165E1" /></svg>