<svg width="28" height="32" viewBox="0 0 28 32" fill="none" xmlns="http://www.w3.org/2000/svg">
 <path  d= "M25 0H3C1.34375 0 0 1.34375 0 3V29C0 30.6562 1.34375 32 3 32H25C26.6562 32 28 30.6562 28 29V3C28 1.34375 26.6562 0 25 0ZM14 30C12.8938 30 12 29.1063 12 28C12 26.8937 12.8938 26 14 26C15.1062 26 16 26.8937 16 28C16 29.1063 15.1062 30 14 30ZM25 23.25C25 23.6625 24.6625 24 24.25 24H3.75C3.3375 24 3 23.6625 3 23.25V3.75C3 3.3375 3.3375 3 3.75 3H24.25C24.6625 3 25 3.3375 25 3.75V23.25Z" fill="#0165E1" /></svg>