<svg width="32" height="32" viewBox="0 0 32 32" fill="none" xmlns="http://www.w3.org/2000/svg">
 <path  d= "M31.0126 18.5277C32.9811 13.6659 32 7.88551 28.0631 3.94234C22.8201 -1.31314 14.3151 -1.31314 9.07211 3.94234L5.57263 7.44808L18.7894 20.6649C21.6703 16.7842 27.007 15.8281 31.0126 18.5277ZM17.3959 23.5082L3.62291 9.74149C1.91691 12.5723 2.26686 16.303 4.704 18.7464L6.85994 20.9086L0.423383 26.4953C-0.114038 26.964 -0.145283 27.7888 0.360892 28.295L3.6979 31.6383C4.19783 32.1445 5.02271 32.1132 5.49139 31.5758L11.0718 25.1205L13.3027 27.3514C14.5338 28.5825 16.0898 29.2574 17.6959 29.4324C17.2522 28.37 17.0084 27.2077 17.0084 25.9891C17.0022 25.1267 17.1647 24.3019 17.3959 23.5082ZM26.0009 19.9962C22.6889 19.9962 20.0018 22.6833 20.0018 25.9954C20.0018 29.3074 22.6889 31.9945 26.0009 31.9945C29.3129 31.9945 32 29.3074 32 25.9954C32 22.6833 29.3129 19.9962 26.0009 19.9962Z" fill="#0165E1" /></svg>