<svg width="32" height="26" viewBox="0 0 32 26" fill="none" xmlns="http://www.w3.org/2000/svg">
 <path  d= "M4.20522 25.4446C3.72013 25.4445 3.24422 25.3123 2.8287 25.0619C2.41318 24.8116 2.07378 24.4528 1.847 24.0239C0.667944 21.7946 0 19.2532 0 16.5557C0 7.71911 7.16344 0.555664 16 0.555664C24.8366 0.555664 32 7.71911 32 16.5557C32 19.2532 31.3321 21.7946 30.153 24.0239C29.9262 24.4528 29.5868 24.8116 29.1713 25.062C28.7558 25.3123 28.2799 25.4445 27.7948 25.4446H4.20522ZM28.4444 14.7779C27.4626 14.7779 26.6667 15.5738 26.6667 16.5557C26.6667 17.5375 27.4626 18.3334 28.4444 18.3334C29.4263 18.3334 30.2222 17.5375 30.2222 16.5557C30.2222 15.5738 29.4263 14.7779 28.4444 14.7779ZM16 5.889C16.9818 5.889 17.7778 5.09305 17.7778 4.11122C17.7778 3.12939 16.9818 2.33344 16 2.33344C15.0182 2.33344 14.2222 3.12939 14.2222 4.11122C14.2222 5.09305 15.0182 5.889 16 5.889ZM3.55556 14.7779C2.57372 14.7779 1.77778 15.5738 1.77778 16.5557C1.77778 17.5375 2.57372 18.3334 3.55556 18.3334C4.53739 18.3334 5.33333 17.5375 5.33333 16.5557C5.33333 15.5738 4.53739 14.7779 3.55556 14.7779ZM7.20044 5.97833C6.21861 5.97833 5.42267 6.77428 5.42267 7.75611C5.42267 8.73794 6.21861 9.53389 7.20044 9.53389C8.18228 9.53389 8.97822 8.73794 8.97822 7.75611C8.97822 6.77428 8.18228 5.97833 7.20044 5.97833ZM24.7996 5.97833C23.8177 5.97833 23.0218 6.77428 23.0218 7.75611C23.0218 8.73794 23.8177 9.53389 24.7996 9.53389C25.7814 9.53389 26.5773 8.73794 26.5773 7.75611C26.5773 6.77428 25.7814 5.97833 24.7996 5.97833ZM19.9619 7.73022C19.2604 7.50577 18.5101 7.89244 18.2856 8.59378L15.7343 16.5666C13.8949 16.7026 12.4444 18.237 12.4444 20.1112C12.4444 22.0749 14.0363 23.6668 16 23.6668C17.9637 23.6668 19.5556 22.0749 19.5556 20.1112C19.5556 19.0127 19.0572 18.0308 18.2744 17.3786L20.8254 9.4065C21.0498 8.70511 20.6632 7.95466 19.9619 7.73022Z" fill="#0165E1" /></svg>