<svg width="32" height="32" viewBox="0 0 32 32" fill="none" xmlns="http://www.w3.org/2000/svg">
 <path  d= "M0 15.7574V3C0 1.34313 1.34313 0 3 0H15.7574C16.553 4.16048e-06 17.3161 0.316078 17.8787 0.878688L31.1213 14.1213C32.2929 15.2929 32.2929 17.1924 31.1213 18.3639L18.3639 31.1213C17.1924 32.2929 15.2929 32.2929 14.1213 31.1213L0.878688 17.8787C0.316078 17.3161 4.16048e-06 16.553 0 15.7574H0ZM7 4C5.34313 4 4 5.34313 4 7C4 8.65688 5.34313 10 7 10C8.65688 10 10 8.65688 10 7C10 5.34313 8.65688 4 7 4Z" fill="#0165E1" /></svg>