<svg width="32" height="26" viewBox="0 0 32 26" fill="none" xmlns="http://www.w3.org/2000/svg">
 <path  d= "M24.8971 11.497L14.303 0.902901C13.8529 0.452813 13.2424 0.199955 12.6059 0.199951H2.4C1.0745 0.199951 0 1.27445 0 2.59995V12.8059C3.32838e-06 13.4424 0.252862 14.0528 0.70295 14.5029L11.2971 25.097C12.2343 26.0343 13.7539 26.0343 14.6912 25.097L24.8971 14.8911C25.8343 13.9539 25.8343 12.4343 24.8971 11.497ZM5.6 8.19995C4.2745 8.19995 3.2 7.12545 3.2 5.79995C3.2 4.47445 4.2745 3.39995 5.6 3.39995C6.9255 3.39995 8 4.47445 8 5.79995C8 7.12545 6.9255 8.19995 5.6 8.19995ZM31.2971 14.8911L21.0912 25.097C20.1539 26.0343 18.6343 26.0343 17.6971 25.097L17.6791 25.079L26.382 16.3761C27.232 15.5261 27.7 14.3961 27.7 13.1941C27.7 11.9921 27.2319 10.862 26.382 10.0121L16.5699 0.199951H19.0059C19.6424 0.199955 20.2529 0.452813 20.703 0.902901L31.2971 11.497C32.2343 12.4343 32.2343 13.9539 31.2971 14.8911Z" fill="#0165E1" /></svg>