<svg width="32" height="24" viewBox="0 0 32 24" fill="none" xmlns="http://www.w3.org/2000/svg">
 <path  d= "M11.2 8.80005C9.435 8.80005 8 10.235 8 12C8 13.765 9.435 15.2 11.2 15.2C12.965 15.2 14.4 13.765 14.4 12C14.4 10.235 12.965 8.80005 11.2 8.80005ZM31.2 20H19.03C21.105 17.965 22.4 15.135 22.4 12C22.4 5.81505 17.385 0.800049 11.2 0.800049C5.015 0.800049 0 5.81505 0 12C0 18.185 5.015 23.2 11.2 23.2H31.2C31.64 23.2 32 22.84 32 22.4V20.8C32 20.36 31.64 20 31.2 20ZM11.2 16.8C8.55 16.8 6.4 14.65 6.4 12C6.4 9.35005 8.55 7.20005 11.2 7.20005C13.85 7.20005 16 9.35005 16 12C16 14.65 13.85 16.8 11.2 16.8Z" fill="#0165E1" /></svg>