<svg width="32" height="28" viewBox="0 0 32 28" fill="none" xmlns="http://www.w3.org/2000/svg">
 <path  d= "M13.0009 6.75126H31C31.55 6.75126 32 6.30128 32 5.75131V3.25143C32 2.70145 31.55 2.25148 31 2.25148H13.0009C12.451 2.25148 12.001 2.70145 12.001 3.25143V5.75131C12.001 6.30128 12.451 6.75126 13.0009 6.75126ZM13.0009 16.7508H31C31.55 16.7508 32 16.3008 32 15.7508V13.2509C32 12.701 31.55 12.251 31 12.251H13.0009C12.451 12.251 12.001 12.701 12.001 13.2509V15.7508C12.001 16.3008 12.451 16.7508 13.0009 16.7508ZM13.0009 26.7503H31C31.55 26.7503 32 26.3003 32 25.7503V23.2505C32 22.7005 31.55 22.2505 31 22.2505H13.0009C12.451 22.2505 12.001 22.7005 12.001 23.2505V25.7503C12.001 26.3003 12.451 26.7503 13.0009 26.7503ZM4.00137 21.5005C2.3452 21.5005 0.964015 22.8442 0.964015 24.5004C0.964015 26.1566 2.3452 27.5002 4.00137 27.5002C5.65754 27.5002 7.00122 26.1566 7.00122 24.5004C7.00122 22.8442 5.65754 21.5005 4.00137 21.5005ZM9.78233 2.81395L5.27006 7.32623L4.2951 8.30118C4.00137 8.59492 3.48889 8.59492 3.19516 8.30118L0.220302 5.33883C-0.0734339 5.04509 -0.0734339 4.57011 0.220302 4.27638L1.2015 3.29518C1.49524 3.00144 1.97022 3.00144 2.26395 3.29518L3.68263 4.67636L7.66369 0.720302C7.95742 0.426566 8.4324 0.426566 8.72614 0.720302L9.78858 1.7515C10.0761 2.04524 10.0761 2.52021 9.78233 2.81395ZM9.78233 12.7885L5.27006 17.3007L4.28885 18.2819C3.99512 18.5757 3.48264 18.5757 3.18891 18.2819L0.220302 15.3133C-0.0734339 15.0196 -0.0734339 14.5446 0.220302 14.2509L1.2015 13.2697C1.49524 12.976 1.97022 12.976 2.26395 13.2697L3.68263 14.6509L7.66369 10.6698C7.95742 10.3761 8.4324 10.3761 8.72614 10.6698L9.78858 11.7323C10.0761 12.0197 10.0761 12.4947 9.78233 12.7885Z" fill="#0165E1" /></svg>