<svg width="32" height="28" viewBox="0 0 32 28" fill="none" xmlns="http://www.w3.org/2000/svg">
 <path  d= "M28.875 13.1025L27.5 7.8C26.9 5.6 24.9 4 22.7 4H22V2C22 0.895625 21.1044 0 20 0H12C10.8956 0 10 0.895625 10 2V4H9.3C7.1 4 5.1 5.6 4.5 7.8L3.125 13.1025C1.33812 13.5025 0 15.0919 0 17V20C0 21.4769 0.809375 22.7525 2 23.445V26C2 27.1044 2.89563 28 4 28H6C7.10437 28 8 27.1044 8 26V24H24V26C24 27.1044 24.8956 28 26 28H28C29.1044 28 30 27.1044 30 26V23.445C31.1906 22.7519 32 21.4762 32 20V17C32 15.0919 30.6619 13.5025 28.875 13.1025ZM6 20C4.89563 20 4 19.1044 4 18C4 16.8956 4.89563 16 6 16C7.10437 16 8 16.8956 8 18C8 19.1044 7.10437 20 6 20ZM7.28438 13L8.35938 8.8525C8.49875 8.3425 8.95875 8 9.30062 8H22.7006C23.0425 8 23.5025 8.3425 23.6287 8.80375L24.7156 13H7.28438ZM26 20C24.8956 20 24 19.1044 24 18C24 16.8956 24.8956 16 26 16C27.1044 16 28 16.8956 28 18C28 19.1044 27.1044 20 26 20Z" fill="#0165E1" /></svg>