<svg width="32" height="24" viewBox="0 0 32 24" fill="none" xmlns="http://www.w3.org/2000/svg">
 <path  d= "M12.8991 12.7071L3.18192 22.4242C2.71327 22.8929 1.95347 22.8929 1.48487 22.4242L0.351476 21.2909C-0.116374 20.823 -0.117274 20.0648 0.349476 19.5958L8.05057 11.8585L0.349526 4.12129C-0.117224 3.65234 -0.116324 2.89409 0.351526 2.42624L1.48487 1.29289C1.95352 0.824244 2.71332 0.824244 3.18192 1.29289L12.8991 11.01C13.3677 11.4786 13.3677 12.2384 12.8991 12.7071ZM32 21.8585V20.2585C32 19.5958 31.4627 19.0585 30.8 19.0585H15.6C14.9373 19.0585 14.4 19.5958 14.4 20.2585V21.8585C14.4 22.5213 14.9373 23.0585 15.6 23.0585H30.8C31.4627 23.0585 32 22.5213 32 21.8585Z" fill="#0165E1" /></svg>