<svg width="32" height="26" viewBox="0 0 32 26" fill="none" xmlns="http://www.w3.org/2000/svg">
 <path  d= "M0.888888 0.555664H16.8889C17.3798 0.555664 17.7778 0.953608 17.7778 1.44455V6.77788C17.7778 7.26883 17.3798 7.66677 16.8889 7.66677H14.9169C14.4259 7.66677 14.028 7.26883 14.028 6.77788V4.11122H10.9857V21.889H12.8889C13.3798 21.889 13.7778 22.2869 13.7778 22.7779V24.5556C13.7778 25.0466 13.3798 25.4445 12.8889 25.4445H4.88889C4.39794 25.4445 4 25.0466 4 24.5556V22.7779C4 22.2869 4.39794 21.889 4.88889 21.889H6.79205V4.11122H3.74978V6.77788C3.74978 7.26883 3.35183 7.66677 2.86089 7.66677H0.888888C0.397944 7.66677 0 7.26883 0 6.77788V1.44455C0 0.953608 0.397944 0.555664 0.888888 0.555664ZM27.2949 0.815942L31.739 5.26044C32.2949 5.81638 31.9054 6.77788 31.1105 6.77788H28.4444V19.2223H31.1111C31.9799 19.2223 32.2575 20.2218 31.7396 20.7398L27.2954 25.1843C26.9484 25.5313 26.3854 25.5312 26.0384 25.1843L21.5943 20.7398C21.0384 20.1838 21.4279 19.2223 22.2228 19.2223H24.8889V6.77788H22.2222C21.3534 6.77788 21.0758 5.77838 21.5937 5.26044L26.0379 0.815942C26.3849 0.468831 26.9479 0.468998 27.2949 0.815942Z" fill="#0165E1" /></svg>