<svg width="32" height="32" viewBox="0 0 32 32" fill="none" xmlns="http://www.w3.org/2000/svg">
 <path  d= "M1.14286 0H30.8571C31.4884 0 32 0.511643 32 1.14286V8C32 8.63121 31.4884 9.14286 30.8571 9.14286H28.3217C27.6905 9.14286 27.1789 8.63121 27.1789 8V4.57143H18.6959V13.7143H21.1429C21.7741 13.7143 22.2857 14.2259 22.2857 14.8571V17.1429C22.2857 17.7741 21.7741 18.2857 21.1429 18.2857H10.8571C10.2259 18.2857 9.71429 17.7741 9.71429 17.1429V14.8571C9.71429 14.2259 10.2259 13.7143 10.8571 13.7143H13.3041V4.57143H4.82114V8C4.82114 8.63121 4.3095 9.14286 3.67829 9.14286H1.14286C0.511643 9.14286 0 8.63121 0 8V1.14286C0 0.511643 0.511643 0 1.14286 0ZM31.6654 24.3344L25.951 18.6205C25.2851 17.9546 24 18.3116 24 19.4286V22.8571H8V19.4293C8 18.4074 6.76379 17.9065 6.049 18.6212L0.334643 24.3351C-0.111429 24.7812 -0.111571 25.5051 0.334643 25.9513L6.049 31.6652C6.71493 32.3311 8 31.9741 8 30.8571V27.4286H24V30.8564C24 31.8784 25.2362 32.3792 25.951 31.6645L31.6654 25.9506C32.1114 25.5045 32.1116 24.7806 31.6654 24.3344Z" fill="#0165E1" /></svg>