<svg width="32" height="28" viewBox="0 0 32 28" fill="none" xmlns="http://www.w3.org/2000/svg">
 <path  d= "M9.33331 1.5V6.5C9.33331 7.32844 8.66175 8 7.83331 8H1.5C0.671562 8 0 7.32844 0 6.5V1.5C0 0.671562 0.671562 0 1.5 0H7.83331C8.66175 0 9.33331 0.671562 9.33331 1.5ZM20.6667 16.5V11.5C20.6667 10.6716 19.9951 10 19.1667 10H12.8333C12.0049 10 11.3333 10.6716 11.3333 11.5V16.5C11.3333 17.3284 12.0049 18 12.8333 18H19.1666C19.9951 18 20.6667 17.3284 20.6667 16.5ZM22.6667 1.5V6.5C22.6667 7.32844 23.3382 8 24.1667 8H30.5C31.3284 8 32 7.32844 32 6.5V1.5C32 0.671562 31.3284 0 30.5 0H24.1667C23.3382 0 22.6667 0.671562 22.6667 1.5ZM20.6667 6.5V1.5C20.6667 0.671562 19.9951 0 19.1667 0H12.8333C12.0049 0 11.3333 0.671562 11.3333 1.5V6.5C11.3333 7.32844 12.0049 8 12.8333 8H19.1666C19.9951 8 20.6667 7.32844 20.6667 6.5ZM7.83331 10H1.5C0.671562 10 0 10.6716 0 11.5V16.5C0 17.3284 0.671562 18 1.5 18H7.83331C8.66175 18 9.33331 17.3284 9.33331 16.5V11.5C9.33331 10.6716 8.66175 10 7.83331 10ZM0 21.5V26.5C0 27.3284 0.671562 28 1.5 28H7.83331C8.66175 28 9.33331 27.3284 9.33331 26.5V21.5C9.33331 20.6716 8.66175 20 7.83331 20H1.5C0.671562 20 0 20.6716 0 21.5ZM24.1667 18H30.5C31.3284 18 32 17.3284 32 16.5V11.5C32 10.6716 31.3284 10 30.5 10H24.1667C23.3382 10 22.6667 10.6716 22.6667 11.5V16.5C22.6667 17.3284 23.3382 18 24.1667 18ZM24.1667 28H30.5C31.3284 28 32 27.3284 32 26.5V21.5C32 20.6716 31.3284 20 30.5 20H24.1667C23.3382 20 22.6667 20.6716 22.6667 21.5V26.5C22.6667 27.3284 23.3382 28 24.1667 28ZM11.3333 21.5V26.5C11.3333 27.3284 12.0049 28 12.8333 28H19.1666C19.9951 28 20.6666 27.3284 20.6666 26.5V21.5C20.6666 20.6716 19.9951 20 19.1666 20H12.8333C12.0049 20 11.3333 20.6716 11.3333 21.5Z" fill="#0165E1" /></svg>