<svg width="16" height="32" viewBox="0 0 16 32" fill="none" xmlns="http://www.w3.org/2000/svg">
 <path  d= "M14 6C14 2.68631 11.3137 0 7.99998 0C4.68629 0 1.99998 2.68631 1.99998 6V18.7092C0.764043 20.1097 0.0103551 21.946 0.000105141 23.9583C-0.0223324 28.3523 3.54929 31.9693 7.94317 31.9998C7.96186 31.9999 7.98129 32 7.99998 32C12.4186 32 16 28.4185 16 24C16 21.9713 15.2445 20.1194 14 18.7092V6ZM7.99998 29L7.96398 28.9999C5.22273 28.9809 2.98604 26.7159 3.00004 23.9736C3.01086 21.8499 4.20417 20.7454 4.99998 19.8436V6C4.99998 4.34581 6.34579 3 7.99998 3C9.65417 3 11 4.34581 11 6V19.8436C11.7894 20.7381 13 21.8539 13 24C13 26.757 10.757 29 7.99998 29ZM12 24C12 26.2091 10.2091 28 7.99998 28C5.79085 28 3.99998 26.2091 3.99998 24C3.99998 22.5197 4.80473 21.2282 5.99998 20.5364V6C5.99998 4.89544 6.89542 4 7.99998 4C9.10454 4 9.99998 4.89544 9.99998 6V20.5364C11.1952 21.2282 12 22.5197 12 24Z" fill="#0165E1" /></svg>