<svg width="32" height="32" viewBox="0 0 32 32" fill="none" xmlns="http://www.w3.org/2000/svg">
 <path  d= "M29.7995 1.27831C27.456 -0.640203 23.8315 -0.365237 21.5567 1.91573L18.7008 4.79038L21.8567 7.94625C22.0504 8.13997 22.0504 8.45869 21.8567 8.65241L21.1505 9.35858C20.9568 9.5523 20.6381 9.5523 20.4444 9.35858L17.2948 6.20271L14.4764 9.03987L17.6197 12.1895C17.8134 12.3832 17.8134 12.7019 17.6197 12.8956L16.9136 13.6018C16.7198 13.7955 16.4011 13.7955 16.2074 13.6018L13.064 10.4647L10.2456 13.3018L13.3765 16.439C13.5702 16.6327 13.5702 16.9514 13.3765 17.1451L12.6703 17.8513C12.4766 18.045 12.1579 18.045 11.9642 17.8513L8.8333 14.7142L6.00239 17.5701V23.8756L0.440571 29.4374C-0.146857 30.0248 -0.146857 30.9747 0.440571 31.5559C1.028 32.1433 1.97788 32.1433 2.55906 31.5559L8.12088 25.994H14.3639L30.2494 10.1647C32.4304 7.98374 32.8866 3.82175 29.7995 1.27831Z" fill="#0165E1" /></svg>