<svg width="16" height="32" viewBox="0 0 16 32" fill="none" xmlns="http://www.w3.org/2000/svg">
 <path  d= "M12 24C12 26.2091 10.2091 28 7.99998 28C5.79085 28 3.99998 26.2091 3.99998 24C3.99998 21.7909 5.79085 20 7.99998 20C10.2091 20 12 21.7909 12 24ZM14 18.7092C15.2445 20.1194 16 21.9713 16 24C16 28.4185 12.4185 32 7.99998 32C7.98129 32 7.96192 31.9999 7.94317 31.9998C3.54929 31.9693 -0.0223324 28.3523 0.000105141 23.9583C0.0103551 21.9459 0.764043 20.1097 1.99998 18.7092V6C1.99998 2.68631 4.68629 0 7.99998 0C11.3137 0 14 2.68631 14 6V18.7092ZM13 24C13 21.8538 11.7894 20.7381 11 19.8436V6C11 4.34581 9.65417 3 7.99998 3C6.34579 3 4.99998 4.34581 4.99998 6V19.8436C4.20423 20.7454 3.01092 21.8499 3.00004 23.9736C2.98604 26.7159 5.22273 28.9809 7.96398 28.9999L7.99998 29C10.757 29 13 26.757 13 24Z" fill="#0165E1" /></svg>