<svg width="32" height="32" viewBox="0 0 32 32" fill="none" xmlns="http://www.w3.org/2000/svg">
 <path  d= "M6.5 14H1.5C0.671563 14 0 14.6716 0 15.5V30.5C0 31.3285 0.671563 32 1.5 32H6.5C7.32844 32 8 31.3285 8 30.5V15.5C8 14.6716 7.32844 14 6.5 14ZM4 29.5C3.17156 29.5 2.5 28.8285 2.5 28C2.5 27.1716 3.17156 26.5 4 26.5C4.82844 26.5 5.5 27.1716 5.5 28C5.5 28.8285 4.82844 29.5 4 29.5ZM24 5.09075C24 7.74176 22.3769 9.22876 21.9202 11H28.2779C30.3652 11 31.9902 12.7341 32 14.6311C32.0052 15.7523 31.5283 16.9592 30.785 17.7059L30.7781 17.7128C31.3929 19.1714 31.293 21.2151 30.1964 22.6796C30.739 24.2981 30.1921 26.2861 29.1725 27.352C29.4411 28.4518 29.3128 29.3879 28.7883 30.1415C27.5126 31.9742 24.351 32 21.6775 32L21.4996 32C18.4817 31.9989 16.0118 30.9001 14.0271 30.0171C13.0298 29.5735 11.7258 29.0242 10.7364 29.006C10.3277 28.9985 10 28.665 10 28.2561V14.8955C10 14.6955 10.0801 14.5036 10.2224 14.3629C12.6983 11.9164 13.7629 9.32626 15.7922 7.2935C16.7174 6.3665 17.0539 4.96625 17.3793 3.61213C17.6572 2.45581 18.2386 0 19.5 0C21 0 24 0.5 24 5.09075Z" fill="#0165E1" /></svg>