<svg width="24" height="32" viewBox="0 0 24 32" fill="none" xmlns="http://www.w3.org/2000/svg">
 <path  d= "M18.6267 13.3917L17.862 5.99999H20.5C21.3284 5.99999 22 5.32843 22 4.49999V1.5C22 0.671562 21.3284 0 20.5 0H3.5C2.67156 0 2 0.671562 2 1.5V4.49999C2 5.32843 2.67156 5.99999 3.5 5.99999H6.13793L5.37324 13.3917C2.34156 14.8012 0 17.3288 0 20.5C0 21.3284 0.671562 22 1.5 22H9.99999V28.5004C9.99999 28.578 10.0181 28.6546 10.0528 28.724L11.5528 31.724C11.7366 32.0916 12.263 32.0923 12.4472 31.724L13.9472 28.724C13.9819 28.6546 14 28.578 14 28.5004V22H22.5C23.3285 22 24 21.3284 24 20.5C24 17.301 21.6261 14.7862 18.6267 13.3917Z" fill="#0165E1" /></svg>