<svg width="32" height="32" viewBox="0 0 32 32" fill="none" xmlns="http://www.w3.org/2000/svg">
 <path  d= "M0 3.5V18.5C0 19.3284 0.671562 20 1.5 20H6.49999C7.32843 20 7.99999 19.3284 7.99999 18.5V3.5C7.99999 2.67156 7.32843 2 6.49999 2H1.5C0.671562 2 0 2.67156 0 3.5ZM2.5 16C2.5 15.1715 3.17156 14.5 3.99999 14.5C4.82843 14.5 5.49999 15.1715 5.49999 16C5.49999 16.8284 4.82843 17.5 3.99999 17.5C3.17156 17.5 2.5 16.8284 2.5 16ZM19.5 32C18.2385 32 17.6572 29.5441 17.3793 28.3878C17.0539 27.0337 16.7175 25.6334 15.7922 24.7064C13.7629 22.6737 12.6983 20.0835 10.2224 17.637C10.152 17.5673 10.096 17.4844 10.0579 17.393C10.0197 17.3016 10 17.2035 10 17.1044V3.74381C10 3.335 10.3277 3.00143 10.7365 2.99393C11.7259 2.97581 13.0299 2.4265 14.0272 1.98281C16.0118 1.09987 18.4818 0.0010625 21.4997 0H21.6774C24.351 0 27.5126 0.0258125 28.7883 1.85856C29.3128 2.61212 29.4411 3.54818 29.1725 4.64806C30.192 5.71387 30.739 7.70199 30.1964 9.32036C31.2929 10.7849 31.3928 12.8286 30.7781 14.2872L30.785 14.294C31.5283 15.0409 32.0052 16.2477 32 17.3689C31.9902 19.2659 30.3651 21 28.2779 21H21.9202C22.3768 22.7712 24 24.2582 24 26.9092C24 31.5 21 32 19.5 32Z" fill="#0165E1" /></svg>