<svg width="32" height="22" viewBox="0 0 32 22" fill="none" xmlns="http://www.w3.org/2000/svg">
 <path  d= "M7.11111 5.66683H24.8889V16.3335H7.11111V5.66683ZM29.3333 11.0002C29.3333 12.4729 30.5272 13.6668 32 13.6668V19.0002C32 20.4729 30.8061 21.6668 29.3333 21.6668H2.66667C1.19389 21.6668 0 20.4729 0 19.0002V13.6668C1.47278 13.6668 2.66667 12.4729 2.66667 11.0002C2.66667 9.52739 1.47278 8.3335 0 8.3335V3.00016C0 1.52738 1.19389 0.333496 2.66667 0.333496H29.3333C30.8061 0.333496 32 1.52738 32 3.00016V8.3335C30.5272 8.3335 29.3333 9.52739 29.3333 11.0002ZM26.6667 5.22238C26.6667 4.486 26.0697 3.88905 25.3333 3.88905H6.66667C5.93028 3.88905 5.33333 4.486 5.33333 5.22238V16.7779C5.33333 17.5143 5.93028 18.1113 6.66667 18.1113H25.3333C26.0697 18.1113 26.6667 17.5143 26.6667 16.7779V5.22238Z" fill="#0165E1" /></svg>