<svg width="32" height="26" viewBox="0 0 32 26" fill="none" xmlns="http://www.w3.org/2000/svg">
 <path  d= "M31.6909 23.105L24.7484 17.739C24.7744 17.4605 24.7999 17.181 24.7999 16.8955C24.7999 11.3075 19.8104 9.22847 17.461 1.30447C17.064 -0.134531 14.989 -0.201531 14.539 1.30447C13.763 3.92147 12.6955 5.90247 11.6145 7.58847L2.27346 0.368469C1.92446 0.0974691 1.42146 0.159969 1.15046 0.508969L0.168456 1.77247C-0.102544 2.12097 -0.0400443 2.62347 0.308956 2.89497L29.7269 25.6315C30.0759 25.903 30.5784 25.84 30.8499 25.491L31.8319 24.2275C32.1024 23.879 32.0399 23.3765 31.6909 23.105ZM7.19995 16.8955C7.19995 21.8175 11.136 25.8 16 25.8C18.2355 25.8 20.2684 24.952 21.82 23.565L8.13595 12.989C7.56545 14.164 7.19995 15.4065 7.19995 16.8955Z" fill="#0165E1" /></svg>