<svg width="32" height="32" viewBox="0 0 32 32" fill="none" xmlns="http://www.w3.org/2000/svg">
 <path  d= "M16 0C7.16129 0 0 7.16129 0 16C0 24.8387 7.16129 32 16 32C24.8387 32 32 24.8387 32 16C32 7.16129 24.8387 0 16 0ZM18.1806 12.2387L23.3419 9.14194C24.0903 8.69677 24.8903 9.63871 24.3355 10.3032L22.1677 12.9032L24.3355 15.5032C24.8968 16.1742 24.0839 17.1032 23.3419 16.6645L18.1806 13.5677C17.6839 13.2645 17.6839 12.5419 18.1806 12.2387ZM7.66452 10.3032C7.10968 9.63871 7.90968 8.69677 8.65806 9.14194L13.8194 12.2387C14.3226 12.5419 14.3226 13.2645 13.8194 13.5677L8.65806 16.6645C7.91613 17.1032 7.10968 16.1742 7.66452 15.5032L9.83226 12.9032L7.66452 10.3032ZM16 18.0645C19.3484 18.0645 23.4387 20.8903 23.9484 24.9484C24.0581 25.8258 23.4323 26.5355 22.8065 26.2645C21.1355 25.5484 18.6516 25.1419 16 25.1419C13.3484 25.1419 10.8645 25.5484 9.19355 26.2645C8.56129 26.5355 7.94194 25.8129 8.05161 24.9484C8.56129 20.8903 12.6516 18.0645 16 18.0645Z" fill="#0165E1" /></svg>