<svg width="32" height="22" viewBox="0 0 32 22" fill="none" xmlns="http://www.w3.org/2000/svg">
 <path  d= "M21.3333 0.333252H10.6667C4.77561 0.333252 0 5.10886 0 10.9999C0 16.891 4.77561 21.6666 10.6667 21.6666H21.3333C27.2244 21.6666 32 16.891 32 10.9999C32 5.10886 27.2244 0.333252 21.3333 0.333252ZM3.55556 10.9999C3.55556 7.06986 6.73606 3.88881 10.6667 3.88881C14.5967 3.88881 17.7778 7.06931 17.7778 10.9999C17.7778 14.93 14.5973 18.111 10.6667 18.111C6.73661 18.111 3.55556 14.9305 3.55556 10.9999ZM21.3333 18.111H18.6164C22.2396 14.0634 22.2406 7.9377 18.6164 3.88881H21.3333C25.2634 3.88881 28.4444 7.06931 28.4444 10.9999C28.4444 14.9299 25.2639 18.111 21.3333 18.111Z" fill="#0165E1" /></svg>