<svg width="32" height="28" viewBox="0 0 32 28" fill="none" xmlns="http://www.w3.org/2000/svg">
 <path  d= "M31.4144 11.4144L28.5863 8.58625C28.2113 8.21125 27.7025 8.00062 27.1719 8.00062H24V3C24 1.34312 22.6569 0 21 0H11C9.34313 0 8 1.34312 8 3V8H4.82812C4.2975 8 3.78937 8.21062 3.41375 8.58562L0.585625 11.4144C0.210625 11.7894 0 12.2981 0 12.8287V18H8V17C8 16.4475 8.4475 16 9 16H11C11.5525 16 12 16.4475 12 17V18H20V17C20 16.4475 20.4475 16 21 16H23C23.5525 16 24 16.4475 24 17V18H32V12.8281C32 12.2981 31.7894 11.7894 31.4144 11.4144ZM20 8H12V4H20V8ZM24 21C24 21.5525 23.5525 22 23 22H21C20.4475 22 20 21.5525 20 21V20H12V21C12 21.5525 11.5525 22 11 22H9C8.4475 22 8 21.5525 8 21V20H0V26C0 27.1044 0.895625 28 2 28H30C31.1044 28 32 27.1044 32 26V20H24V21Z" fill="#0165E1" /></svg>