<svg width="28" height="32" viewBox="0 0 28 32" fill="none" xmlns="http://www.w3.org/2000/svg">
 <path  d= "M27.7491 6.01558C27.061 3.18932 24.8047 0.886816 21.9985 0.158065C19.9866 -0.364436 18.0609 0.476816 16.4272 1.67869C16.2241 1.82807 15.9922 1.91182 15.7709 2.02119L17.5409 3.15932C18.0047 3.45745 18.1397 4.0762 17.8409 4.5412C17.5622 4.97557 16.9491 5.15745 16.4591 4.8412L10.1772 0.802441C8.88343 0.124315 7.46592 -0.222561 6.00155 0.158065C3.19529 0.887441 0.939036 3.18932 0.25091 6.01558C-0.382216 8.61683 0.22466 11.0662 1.59466 12.9175C3.05467 14.8906 3.63717 17.2087 3.86279 19.6269C4.13779 22.5744 4.50842 25.5119 5.17154 28.3969L5.65905 30.5187C5.85842 31.3856 6.62717 32 7.51342 32C8.38655 32 9.1478 31.4031 9.35968 30.5525L11.5141 21.9012C11.7991 20.7562 12.8241 19.9537 13.9991 19.9537C15.1741 19.9537 16.1991 20.7569 16.4841 21.9012L18.6384 30.5525C18.8503 31.4031 19.6116 32 20.4847 32C21.371 32 22.1397 31.3856 22.3391 30.5187L22.8266 28.3969C23.4897 25.5125 23.8597 22.5744 24.1353 19.6269C24.361 17.2081 24.9435 14.8906 26.4035 12.9175C27.7753 11.0668 28.3822 8.61746 27.7491 6.01558Z" fill="#0165E1" /></svg>