<svg width="32" height="16" viewBox="0 0 32 16" fill="none" xmlns="http://www.w3.org/2000/svg">
 <path  d= "M4.85595 3.35665H0.6C0.26865 3.35665 0 3.088 0 2.75665V0.6C0 0.26865 0.26865 7.02103e-10 0.6 7.02103e-10H13.0279C13.3593 7.02103e-10 13.6279 0.26865 13.6279 0.6V2.75665C13.6279 3.088 13.3593 3.35665 13.0279 3.35665H8.772V15.4C8.772 15.7313 8.50335 16 8.172 16H5.4559C5.12455 16 4.8559 15.7313 4.8559 15.4V3.35665H4.85595ZM16.4912 7.02103e-10H19.7625C19.8874 1.6682e-06 20.0092 0.0389913 20.1109 0.11153C20.2126 0.184069 20.2891 0.28654 20.3298 0.40465L22.5177 6.75805C22.8758 7.78745 23.3233 9.39865 23.3233 9.39865H23.3681C23.3681 9.39865 23.8156 7.78745 24.1736 6.75805L26.3615 0.40465C26.4022 0.28654 26.4787 0.184069 26.5804 0.11153C26.6821 0.0389913 26.8039 1.6682e-06 26.9288 7.02103e-10H30.1993C30.3501 -3.37098e-06 30.4953 0.0567303 30.6061 0.158917C30.7169 0.261104 30.7852 0.401257 30.7974 0.5515L31.998 15.3515C32.0263 15.7008 31.7504 16 31.3999 16H28.6949C28.5428 16 28.3965 15.9423 28.2853 15.8385C28.1742 15.7347 28.1067 15.5926 28.0963 15.4409L27.6422 8.7944C27.5527 7.586 27.6422 6.1091 27.6422 6.1091H27.5974C27.5974 6.1091 27.0603 7.7874 26.7023 8.7944L25.1673 13.0309C25.1253 13.1469 25.0486 13.247 24.9477 13.3178C24.8468 13.3886 24.7265 13.4265 24.6032 13.4265H22.0881C21.9648 13.4265 21.8445 13.3886 21.7436 13.3178C21.6427 13.247 21.566 13.1469 21.524 13.0309L19.989 8.7944C19.6309 7.7874 19.0938 6.1091 19.0938 6.1091H19.0491C19.0491 6.1091 19.1386 7.586 19.0491 8.7944L18.595 15.4409C18.5736 15.7556 18.312 16 17.9965 16H15.27C14.9191 16 14.6432 15.7003 14.672 15.3506L15.8933 0.55065C15.9057 0.400572 15.974 0.260635 16.0848 0.158625C16.1956 0.0566155 16.3407 -7.28032e-06 16.4912 7.02103e-10Z" fill="#0165E1" /></svg>