<svg width="28" height="32" viewBox="0 0 28 32" fill="none" xmlns="http://www.w3.org/2000/svg">
 <path  d= "M28 6V22C28 25.2384 24.1485 28 19.8736 28L23.8099 31.1076C24.1816 31.4011 23.9726 32 23.5 32H4.5C4.02637 32 3.81925 31.4004 4.19019 31.1076L8.12638 28C3.86375 28 0 25.2471 0 22V6C0 2.68631 4 0 8 0H20C24.0625 0 28 2.68631 28 6ZM25 14.5V7.5C25 6.67156 24.3284 6 23.5 6H4.5C3.67156 6 3 6.67156 3 7.5V14.5C3 15.3284 3.67156 16 4.5 16H23.5C24.3284 16 25 15.3284 25 14.5ZM14 18.5C12.067 18.5 10.5 20.067 10.5 22C10.5 23.933 12.067 25.5 14 25.5C15.933 25.5 17.5 23.933 17.5 22C17.5 20.067 15.933 18.5 14 18.5Z" fill="#0165E1" /></svg>