<svg width="24" height="32" viewBox="0 0 24 32" fill="none" xmlns="http://www.w3.org/2000/svg">
 <path  d= "M23.25 0H18.3125C17.6437 0 17.3125 0.80625 17.7812 1.28125L18.8375 2.3375L13.7937 7.38125C12.4062 6.50625 10.7625 6 9 6C4.03125 6 0 10.0312 0 15C0 19.2812 2.99375 22.8687 7 23.775V25.5H4.75C4.3375 25.5 4 25.8375 4 26.25V28.75C4 29.1625 4.3375 29.5 4.75 29.5H7V31.25C7 31.6625 7.3375 32 7.75 32H10.25C10.6625 32 11 31.6625 11 31.25V29.5H13.25C13.6625 29.5 14 29.1625 14 28.75V26.25C14 25.8375 13.6625 25.5 13.25 25.5H11V23.775C15.0063 22.8625 18 19.2812 18 15C18 13.2375 17.4937 11.5938 16.6187 10.2063L21.6625 5.1625L22.7188 6.21875C23.1938 6.69375 24 6.35625 24 5.6875V0.75C24 0.3375 23.6625 0 23.25 0ZM9 20C6.24375 20 4 17.7563 4 15C4 12.2437 6.24375 10 9 10C11.7563 10 14 12.2437 14 15C14 17.7563 11.7563 20 9 20Z" fill="#0165E1" /></svg>