<svg width="30" height="32" viewBox="0 0 30 32" fill="none" xmlns="http://www.w3.org/2000/svg">
 <path  d= "M29.25 0H24.3125C23.6437 0 23.3125 0.80625 23.7812 1.28125L24.8375 2.3375L19.7938 7.38125C18.4062 6.50625 16.7625 6 15 6C13.2375 6 11.5938 6.50625 10.2063 7.38125L9.175 6.35L10.4125 5.1125C10.7063 4.81875 10.7063 4.34375 10.4125 4.05L8.64375 2.28125C8.35 1.9875 7.875 1.9875 7.58125 2.28125L6.34375 3.51875L5.15625 2.33125L6.2125 1.275C6.69375 0.80625 6.35625 0 5.6875 0H0.75C0.3375 0 0 0.3375 0 0.75V5.6875C0 6.35625 0.80625 6.6875 1.28125 6.21875L2.3375 5.1625L3.525 6.35L2.2875 7.5875C1.99375 7.88125 1.99375 8.35625 2.2875 8.65L4.05625 10.4187C4.35 10.7125 4.825 10.7125 5.11875 10.4187L6.35625 9.18125L7.3875 10.2125C6.50625 11.5938 6 13.2375 6 15C6 19.2812 8.99375 22.8687 13 23.775V25.5H10.75C10.3375 25.5 10 25.8375 10 26.25V28.75C10 29.1625 10.3375 29.5 10.75 29.5H13V31.25C13 31.6625 13.3375 32 13.75 32H16.25C16.6625 32 17 31.6625 17 31.25V29.5H19.25C19.6625 29.5 20 29.1625 20 28.75V26.25C20 25.8375 19.6625 25.5 19.25 25.5H17V23.775C21.0063 22.8625 24 19.2812 24 15C24 13.2375 23.4937 11.5938 22.6187 10.2063L27.6625 5.1625L28.7188 6.21875C29.1938 6.69375 30 6.35625 30 5.6875V0.75C30 0.3375 29.6625 0 29.25 0ZM15 20C12.2437 20 10 17.7563 10 15C10 12.2437 12.2437 10 15 10C17.7563 10 20 12.2437 20 15C20 17.7563 17.7563 20 15 20Z" fill="#0165E1" /></svg>