<svg width="28" height="32" viewBox="0 0 28 32" fill="none" xmlns="http://www.w3.org/2000/svg">
 <path  d= "M0 5.25V3.5C0 2.66875 0.66875 2 1.5 2H8.5L9.0875 0.83125C9.3375 0.31875 9.85625 0 10.425 0H17.5688C18.1375 0 18.6562 0.31875 18.9125 0.83125L19.5 2H26.5C27.3312 2 28 2.66875 28 3.5V5.25C28 5.6625 27.6625 6 27.25 6H0.75C0.3375 6 0 5.6625 0 5.25ZM25.95 8.79375L24.675 29.1875C24.575 30.7687 23.2625 32 21.6812 32H6.31875C4.7375 32 3.425 30.7687 3.325 29.1875L2.05 8.79375C2.025 8.3625 2.36875 8 2.8 8H25.2062C25.6312 8 25.975 8.3625 25.95 8.79375Z" fill="#0165E1" /></svg>