<svg width="28" height="32" viewBox="0 0 28 32" fill="none" xmlns="http://www.w3.org/2000/svg">
 <path  d= "M0 5.25V3.5C0 2.66875 0.66875 2 1.5 2H8.5L9.0875 0.83125C9.3375 0.31875 9.85625 0 10.425 0H17.5688C18.1375 0 18.6562 0.31875 18.9125 0.83125L19.5 2H26.5C27.3312 2 28 2.66875 28 3.5V5.25C28 5.6625 27.6625 6 27.25 6H0.75C0.3375 6 0 5.6625 0 5.25ZM26 8.75V29C26 30.6562 24.6562 32 23 32H5C3.34375 32 2 30.6562 2 29V8.75C2 8.3375 2.3375 8 2.75 8H25.25C25.6625 8 26 8.3375 26 8.75ZM9 13C9 12.45 8.55 12 8 12C7.45 12 7 12.45 7 13V27C7 27.55 7.45 28 8 28C8.55 28 9 27.55 9 27V13ZM15 13C15 12.45 14.55 12 14 12C13.45 12 13 12.45 13 13V27C13 27.55 13.45 28 14 28C14.55 28 15 27.55 15 27V13ZM21 13C21 12.45 20.55 12 20 12C19.45 12 19 12.45 19 13V27C19 27.55 19.45 28 20 28C20.55 28 21 27.55 21 27V13Z" fill="#0165E1" /></svg>