<svg width="24" height="32" viewBox="0 0 24 32" fill="none" xmlns="http://www.w3.org/2000/svg">
 <path  d= "M23.5831 23.4643L18.3691 18H20.5C21.8135 18 22.492 16.4246 21.5905 15.4701L16.4244 10H18.5C19.8049 10 20.4907 8.43944 19.5992 7.47932L13.0992 0.479133C12.5064 -0.159242 11.4944 -0.16018 10.9008 0.479133L4.4008 7.47932C3.51286 8.43557 4.1898 10 5.49999 10H7.57561L2.40943 15.4701C1.50755 16.4251 2.18705 18 3.49999 18H5.63086L0.416551 23.4643C-0.491824 24.4159 0.182801 26 1.50155 26H8.99999C8.99999 28.0488 8.30074 29.0788 6.8753 30.2191C6.13905 30.8081 6.55711 32 7.49999 32H16.5C17.4429 32 17.861 30.8082 17.1247 30.2191C15.8892 29.2308 15.0002 28.2401 15 26.0006V26H22.4981C23.8137 26 24.4937 24.4182 23.5831 23.4643Z" fill="#0165E1" /></svg>