<svg width="32" height="26" viewBox="0 0 32 26" fill="none" xmlns="http://www.w3.org/2000/svg">
 <path  d= "M2.51003 18.9799C2.62503 19.4049 3.06503 19.6599 3.49002 19.5449L14.31 16.6449C14.735 16.5299 14.99 16.0899 14.875 15.6649L12.39 6.38995C12.275 5.96495 11.835 5.70995 11.41 5.82495L7.55002 6.86495L8.79002 11.4999L5.70002 12.3249L4.46002 7.68995L0.595027 8.72494C0.170027 8.83994 -0.0849726 9.27994 0.0300273 9.70494L2.51003 18.9799ZM19.2 0.199951C18.315 0.199951 17.6 0.914951 17.6 1.79995V17.9799L0.295027 22.6999C0.0800273 22.7599 -0.0449726 22.9799 0.0150273 23.1899L0.645027 25.5049C0.705027 25.7199 0.925027 25.8449 1.13503 25.7849L20.82 20.4149C20.94 23.4049 23.38 25.7999 26.4 25.7999C29.495 25.7999 32 23.2949 32 20.1999V0.199951H19.2ZM26.4 22.5999C25.075 22.5999 24 21.5249 24 20.1999C24 18.8749 25.075 17.7999 26.4 17.7999C27.725 17.7999 28.8 18.8749 28.8 20.1999C28.8 21.5249 27.725 22.5999 26.4 22.5999Z" fill="#0165E1" /></svg>