<svg width="32" height="26" viewBox="0 0 32 26" fill="none" xmlns="http://www.w3.org/2000/svg">
 <path  d= "M31.2 17.8H30.4V12.395C30.4 11.76 30.145 11.15 29.695 10.7L24.7 5.70495C24.25 5.25495 23.64 4.99995 23.005 4.99995H20.8V2.59995C20.8 1.27495 19.725 0.199951 18.4 0.199951H2.4C1.075 0.199951 0 1.27495 0 2.59995V18.6C0 19.925 1.075 21 2.4 21H3.2C3.2 23.65 5.35 25.8 8 25.8C10.65 25.8 12.8 23.65 12.8 21H19.2C19.2 23.65 21.35 25.8 24 25.8C26.65 25.8 28.8 23.65 28.8 21H31.2C31.64 21 32 20.64 32 20.2V18.6C32 18.16 31.64 17.8 31.2 17.8ZM8 23.4C6.675 23.4 5.6 22.325 5.6 21C5.6 19.675 6.675 18.6 8 18.6C9.325 18.6 10.4 19.675 10.4 21C10.4 22.325 9.325 23.4 8 23.4ZM24 23.4C22.675 23.4 21.6 22.325 21.6 21C21.6 19.675 22.675 18.6 24 18.6C25.325 18.6 26.4 19.675 26.4 21C26.4 22.325 25.325 23.4 24 23.4ZM28 13H20.8V7.39995H23.005L28 12.395V13Z" fill="#0165E1" /></svg>