<svg width="32" height="24" viewBox="0 0 32 24" fill="none" xmlns="http://www.w3.org/2000/svg">
 <path  d= "M31.065 11.065L28.14 8.14005C27.54 7.54005 26.725 7.20505 25.875 7.20505H24V2.40005C24 1.51505 23.285 0.800049 22.4 0.800049H1.6C0.715 0.800049 0 1.51505 0 2.40005V19.2C0 21.41 1.79 23.2 4 23.2C5.315 23.2 6.47 22.555 7.2 21.58C7.93 22.56 9.085 23.2 10.4 23.2C12.61 23.2 14.4 21.41 14.4 19.2C14.4 18.925 14.37 18.66 14.32 18.4H22.48C22.425 18.66 22.4 18.925 22.4 19.2C22.4 21.41 24.19 23.2 26.4 23.2C28.61 23.2 30.4 21.41 30.4 19.2C30.4 18.925 30.37 18.66 30.32 18.4H31.2C31.64 18.4 32 18.04 32 17.6V13.325C32 12.475 31.665 11.665 31.065 11.065ZM4 20.8C3.12 20.8 2.4 20.08 2.4 19.2C2.4 18.32 3.12 17.6 4 17.6C4.88 17.6 5.6 18.32 5.6 19.2C5.6 20.08 4.88 20.8 4 20.8ZM10.4 20.8C9.52 20.8 8.8 20.08 8.8 19.2C8.8 18.32 9.52 17.6 10.4 17.6C11.28 17.6 12 18.32 12 19.2C12 20.08 11.28 20.8 10.4 20.8ZM24 9.60005H25.875C26.09 9.60005 26.29 9.68505 26.44 9.83505L28.605 12H24V9.60005ZM26.4 20.8C25.52 20.8 24.8 20.08 24.8 19.2C24.8 18.32 25.52 17.6 26.4 17.6C27.28 17.6 28 18.32 28 19.2C28 20.08 27.28 20.8 26.4 20.8Z" fill="#0165E1" /></svg>