<svg width="32" height="26" viewBox="0 0 32 26" fill="none" xmlns="http://www.w3.org/2000/svg">
 <path  d= "M31.5588 5.02602L21.8251 0.20166C20.8203 1.59148 18.5955 2.56135 16.0009 2.56135C13.4062 2.56135 11.1815 1.59148 10.1767 0.20166L0.442953 5.02602C0.0480053 5.22599 -0.111973 5.70593 0.0830007 6.10088L2.94262 11.8251C3.1426 12.2201 3.62253 12.38 4.01748 12.1851L6.8471 10.8003C7.37703 10.5403 7.99695 10.9252 7.99695 11.5202V24.1985C7.99695 25.0834 8.71186 25.7983 9.59674 25.7983H22.395C23.2799 25.7983 23.9948 25.0834 23.9948 24.1985V11.5152C23.9948 10.9252 24.6148 10.5353 25.1447 10.7953L27.9743 12.1801C28.3693 12.38 28.8492 12.2201 29.0492 11.8201L31.9138 6.10088C32.1138 5.70593 31.9538 5.221 31.5588 5.02602Z" fill="#0165E1" /></svg>