<svg width="32" height="32" viewBox="0 0 32 32" fill="none" xmlns="http://www.w3.org/2000/svg">
 <path  d= "M0.335607 6.48886C8.99386 -2.16939 23.0191 -2.15652 31.6645 6.48886C32.0444 6.86874 32.1066 7.45736 31.8259 7.90642L29.125 12.2275C28.9826 12.4554 28.7647 12.626 28.5093 12.7094C28.2539 12.7929 27.9773 12.7839 27.7278 12.6841L22.3264 10.5235C22.0957 10.4312 21.9012 10.2665 21.7723 10.054C21.6434 9.84154 21.5871 9.59294 21.6118 9.34567L21.9838 5.62499C18.0997 4.22161 13.819 4.25086 10.0161 5.62499L10.3882 9.34574C10.4129 9.59301 10.3566 9.84163 10.2277 10.0541C10.0988 10.2666 9.90429 10.4313 9.67354 10.5236L4.27211 12.6841C4.02263 12.7839 3.74603 12.7929 3.49063 12.7094C3.23523 12.6259 3.01727 12.4554 2.87486 12.2275L0.17417 7.90636C0.0368431 7.68664 -0.0219585 7.42686 0.00736124 7.16942C0.036681 6.91198 0.152391 6.67207 0.335607 6.48886ZM5.99998 19.25V16.75C5.99998 16.3358 5.66417 16 5.24998 16H2.74998C2.33579 16 1.99998 16.3358 1.99998 16.75V19.25C1.99998 19.6642 2.33579 20 2.74998 20H5.24998C5.66417 20 5.99998 19.6642 5.99998 19.25ZM12 19.25V16.75C12 16.3358 11.6642 16 11.25 16H8.74998C8.33579 16 7.99998 16.3358 7.99998 16.75V19.25C7.99998 19.6642 8.33579 20 8.74998 20H11.25C11.6642 20 12 19.6642 12 19.25ZM18 19.25V16.75C18 16.3358 17.6642 16 17.25 16H14.75C14.3358 16 14 16.3358 14 16.75V19.25C14 19.6642 14.3358 20 14.75 20H17.25C17.6642 20 18 19.6642 18 19.25ZM24 19.25V16.75C24 16.3358 23.6642 16 23.25 16H20.75C20.3358 16 20 16.3358 20 16.75V19.25C20 19.6642 20.3358 20 20.75 20H23.25C23.6642 20 24 19.6642 24 19.25ZM30 19.25V16.75C30 16.3358 29.6642 16 29.25 16H26.75C26.3358 16 26 16.3358 26 16.75V19.25C26 19.6642 26.3358 20 26.75 20H29.25C29.6642 20 30 19.6642 30 19.25ZM8.99998 25.25V22.75C8.99998 22.3358 8.66417 22 8.24998 22H5.74998C5.3358 22 4.99998 22.3358 4.99998 22.75V25.25C4.99998 25.6642 5.3358 26 5.74998 26H8.24998C8.66417 26 8.99998 25.6642 8.99998 25.25ZM15 25.25V22.75C15 22.3358 14.6642 22 14.25 22H11.75C11.3358 22 11 22.3358 11 22.75V25.25C11 25.6642 11.3358 26 11.75 26H14.25C14.6642 26 15 25.6642 15 25.25ZM21 25.25V22.75C21 22.3358 20.6642 22 20.25 22H17.75C17.3358 22 17 22.3358 17 22.75V25.25C17 25.6642 17.3358 26 17.75 26H20.25C20.6642 26 21 25.6642 21 25.25ZM27 25.25V22.75C27 22.3358 26.6642 22 26.25 22H23.75C23.3358 22 23 22.3358 23 22.75V25.25C23 25.6642 23.3358 26 23.75 26H26.25C26.6642 26 27 25.6642 27 25.25ZM5.99998 31.25V28.75C5.99998 28.3358 5.66417 28 5.24998 28H2.74998C2.33579 28 1.99998 28.3358 1.99998 28.75V31.25C1.99998 31.6642 2.33579 32 2.74998 32H5.24998C5.66417 32 5.99998 31.6642 5.99998 31.25ZM24 31.25V28.75C24 28.3358 23.6642 28 23.25 28H8.74998C8.33579 28 7.99998 28.3358 7.99998 28.75V31.25C7.99998 31.6642 8.33579 32 8.74998 32H23.25C23.6642 32 24 31.6642 24 31.25ZM30 31.25V28.75C30 28.3358 29.6642 28 29.25 28H26.75C26.3358 28 26 28.3358 26 28.75V31.25C26 31.6642 26.3358 32 26.75 32H29.25C29.6642 32 30 31.6642 30 31.25Z" fill="#0165E1" /></svg>