<svg width="32" height="26" viewBox="0 0 32 26" fill="none" xmlns="http://www.w3.org/2000/svg">
 <path  d= "M29.6 0.199951H2.4C1.075 0.199951 0 1.27495 0 2.59995V18.6C0 19.925 1.075 21 2.4 21H14.655V22.6H6.655C5.77 22.6 5.055 23.315 5.055 24.2C5.055 25.085 5.77 25.8 6.655 25.8H25.855C26.74 25.8 27.455 25.085 27.455 24.2C27.455 23.315 26.74 22.6 25.855 22.6H17.855V21H29.6C30.925 21 32 19.925 32 18.6V2.59995C32 1.27495 30.925 0.199951 29.6 0.199951ZM28.8 17.8H3.2V3.39995H28.8V17.8Z" fill="#0165E1" /></svg>