<svg width="32" height="30" viewBox="0 0 32 30" fill="none" xmlns="http://www.w3.org/2000/svg">
 <path  d= "M30.945 15.6462C28.0877 13.1342 24.9688 13.2185 22.1358 17.3535C21.8414 17.7902 21.3077 17.7515 21.0393 17.3535C20.9014 17.1522 19.2494 13.9753 16 13.9753C13.4574 13.9753 12.081 15.7185 10.9606 17.3535C10.6923 17.7515 10.1586 17.7902 9.86428 17.3535C7.03628 13.2265 3.94134 13.1087 1.05501 15.6462C0.487788 16.1053 -0.106767 15.5846 0.0163438 15.1195C1.7859 8.2541 8.80645 4.36738 16.0001 4.36738C23.1552 4.36738 30.2526 8.2541 31.9837 15.1195C32.1063 15.5818 31.5156 16.108 30.945 15.6462ZM14.2222 15.2779V23.8889C14.2222 24.8692 13.4247 25.6667 12.4444 25.6667C11.4642 25.6667 10.6667 24.8692 10.6667 23.8889C10.6667 22.9071 9.87072 22.1111 8.88889 22.1111C7.90706 22.1111 7.11112 22.9071 7.11112 23.8889C7.11112 26.8298 9.50361 29.2223 12.4444 29.2223C15.3853 29.2223 17.7778 26.8298 17.7778 23.8889V15.2938C16.5647 14.6935 15.2542 14.7529 14.2222 15.2779ZM17.7778 3.55527V2.55561C17.7778 1.57378 16.9818 0.777832 16 0.777832C15.0182 0.777832 14.2222 1.57378 14.2222 2.55561V3.55489C15.4052 3.4529 16.5948 3.45303 17.7778 3.55527Z" fill="#0165E1" /></svg>