<svg width="32" height="26" viewBox="0 0 32 26" fill="none" xmlns="http://www.w3.org/2000/svg">
 <path  d= "M5.76894 7.04516L10.8744 8.90414C12.6339 4.82719 15.1848 1.68972 17.8243 0.219235C13.0304 -0.0252619 8.38541 2.06722 5.39794 5.80918C5.06345 6.22917 5.26494 6.86166 5.76894 7.04516ZM12.3814 9.45314L24.3052 13.7946C26.0932 7.72565 25.2402 2.21171 22.1738 1.09573C21.8038 0.960727 21.4173 0.895728 21.0193 0.895728C18.1183 0.896228 14.6058 4.35419 12.3814 9.45314ZM26.0737 3.2252C26.3847 4.04019 26.6152 4.95518 26.7337 5.98467C27.0207 8.47915 26.6627 11.3961 25.7862 14.3336L30.9172 16.2016C31.4217 16.3851 31.9827 16.0301 31.9957 15.4931C32.1116 10.7086 29.9002 6.12117 26.0737 3.2252ZM27.9997 22.599H16.0528L19.2998 13.6751L16.2928 12.5801L12.6479 22.5985H0.799991C0.357996 22.5985 0 22.9565 0 23.399V24.9995C0 25.4415 0.357996 25.8 0.799991 25.8H27.9997C28.4417 25.8 28.7997 25.4415 28.7997 24.9995V23.399C28.7997 22.957 28.4417 22.599 27.9997 22.599Z" fill="#0165E1" /></svg>