<svg width="28" height="32" viewBox="0 0 28 32" fill="none" xmlns="http://www.w3.org/2000/svg">
 <path  d= "M14.0165 24.265C8.28719 24.265 4.22881 21.0672 4.22881 14.803V4H2.46062C1.90831 4 1.46063 3.55231 1.46063 3V1C1.46063 0.447688 1.90831 0 2.46062 0H11.0475C11.5998 0 12.0475 0.447688 12.0475 1V3C12.0475 3.55231 11.5998 4 11.0475 4H9.24669V14.803C9.24669 18.1592 11.0163 19.7682 14.0165 19.7682C16.9519 19.7682 18.7537 18.1786 18.7537 14.7704V4H16.9856C16.4333 4 15.9856 3.55231 15.9856 3V1C15.9856 0.447688 16.4333 0 16.9856 0H25.5398C26.0921 0 26.5398 0.447688 26.5398 1V3C26.5398 3.55231 26.0921 4 25.5398 4H23.7716V14.803C23.7716 21.0158 19.7166 24.265 14.0165 24.265ZM1 28H27C27.5523 28 28 28.4477 28 29V31C28 31.5523 27.5523 32 27 32H1C0.447688 32 0 31.5523 0 31V29C0 28.4477 0.447688 28 1 28Z" fill="#0165E1" /></svg>