<svg width="32" height="32" viewBox="0 0 32 32" fill="none" xmlns="http://www.w3.org/2000/svg">
 <path  d= "M13.4726 14.2445H0.761402C0.340918 14.2445 0 13.9036 0 13.4831V0.7719C0 0.351416 0.340918 0.010498 0.761402 0.010498H3.80701C4.2275 0.010498 4.56841 0.351416 4.56841 0.7719V5.72812C7.47272 2.50276 11.6913 0.484471 16.3813 0.518544C25.068 0.581613 32.0184 7.60105 32 16.2879C31.9815 24.9628 24.9435 31.9894 16.2644 31.9894C12.1979 31.9894 8.49198 30.4467 5.69929 27.9149C5.37575 27.6217 5.36084 27.1184 5.66966 26.8096L7.82487 24.6544C8.10874 24.3706 8.56482 24.3551 8.86551 24.6211C10.8348 26.3636 13.4248 27.421 16.2644 27.421C22.4361 27.421 27.4316 22.4264 27.4316 16.2537C27.4316 10.0821 22.4371 5.08651 16.2644 5.08651C12.5528 5.08651 9.26709 6.89332 7.23707 9.67606H13.4726C13.8931 9.67606 14.234 10.017 14.234 10.4375V13.4831C14.234 13.9036 13.8931 14.2445 13.4726 14.2445Z" fill="#0165E1" /></svg>