<svg width="32" height="32" viewBox="0 0 32 32" fill="none" xmlns="http://www.w3.org/2000/svg">
 <path  d= "M15.9706 2.60134e-05C11.6952 0.00770343 7.81335 1.69248 4.94742 4.43132L2.64329 2.12719C1.66781 1.1517 0 1.84254 0 3.22203V11.871C0 12.7262 0.693226 13.4194 1.54839 13.4194H10.1974C11.5768 13.4194 12.2677 11.7516 11.2923 10.7761L8.59871 8.08254C10.5899 6.21809 13.1665 5.18532 15.9039 5.1617C21.865 5.11022 26.8899 9.93441 26.8383 16.0934C26.7894 21.9361 22.0526 26.8387 16 26.8387C13.3466 26.8387 10.8389 25.8918 8.86258 24.1577C8.55658 23.8893 8.09445 23.9056 7.80658 24.1934L5.24774 26.7522C4.93342 27.0665 4.94897 27.579 5.27884 27.8769C8.116 30.4396 11.8757 32 16 32C24.8365 32 31.9999 24.8366 32 16.0002C32.0001 7.17377 24.797 -0.0157804 15.9706 2.60134e-05Z" fill="#0165E1" /></svg>