<svg width="32" height="30" viewBox="0 0 32 30" fill="none" xmlns="http://www.w3.org/2000/svg">
 <path  d= "M32 6.46667V7.53334C32 7.67478 31.9438 7.81044 31.8438 7.91046C31.7438 8.01048 31.6081 8.06667 31.4667 8.06667H29.8667V8.86667C29.8667 9.30847 29.5085 9.66667 29.0667 9.66667H2.93333C2.49153 9.66667 2.13333 9.30847 2.13333 8.86667V8.06667H0.533333C0.391885 8.06667 0.256229 8.01048 0.15621 7.91046C0.0561903 7.81044 0 7.67478 0 7.53334V6.46667C7.62762e-07 6.36116 0.0312985 6.25801 0.0899334 6.17029C0.148568 6.08257 0.231905 6.01421 0.3294 5.97387L15.7961 0.107202C15.9266 0.0531334 16.0734 0.0531334 16.2039 0.107202L31.6706 5.97387C31.7681 6.01421 31.8514 6.08257 31.9101 6.17029C31.9687 6.25801 32 6.36116 32 6.46667ZM30.4 26.7333H1.6C0.716333 26.7333 0 27.4497 0 28.3333V29.4C0 29.5415 0.0561903 29.6771 0.15621 29.7771C0.256229 29.8771 0.391885 29.9333 0.533333 29.9333H31.4667C31.6081 29.9333 31.7438 29.8771 31.8438 29.7771C31.9438 29.6771 32 29.5415 32 29.4V28.3333C32 27.4497 31.2837 26.7333 30.4 26.7333ZM5.33333 10.7333V23.5333H2.93333C2.49153 23.5333 2.13333 23.8915 2.13333 24.3333V25.6667H29.8667V24.3333C29.8667 23.8915 29.5085 23.5333 29.0667 23.5333H26.6667V10.7333H22.4V23.5333H18.1333V10.7333H13.8667V23.5333H9.6V10.7333H5.33333Z" fill="#0165E1" /></svg>