<svg width="32" height="32" viewBox="0 0 32 32" fill="none" xmlns="http://www.w3.org/2000/svg">
 <path  d= "M19.0051 25.3691C19.298 25.662 19.298 26.1369 19.0051 26.4298L16.213 29.2219C12.5091 32.9258 6.48227 32.926 2.77803 29.2219C-0.925948 25.5179 -0.925948 19.491 2.77803 15.787L5.57021 12.9948C5.86308 12.7019 6.33795 12.7019 6.63089 12.9948L9.10575 15.4697C9.39863 15.7625 9.39863 16.2374 9.10575 16.5303L6.31358 19.3225C4.55909 21.077 4.55909 23.9318 6.31358 25.6864C8.06807 27.4409 10.9229 27.4409 12.6775 25.6864L15.4697 22.8942C15.7625 22.6014 16.2374 22.6014 16.5303 22.8942L19.0051 25.3691ZM15.4697 9.10569C15.7625 9.39856 16.2374 9.39856 16.5303 9.10569L19.3225 6.31358C21.0769 4.5589 23.9318 4.55902 25.6864 6.31358C27.4409 8.06813 27.4409 10.9229 25.6864 12.6775L22.8942 15.4696C22.6014 15.7625 22.6014 16.2373 22.8942 16.5303L25.3691 19.0051C25.662 19.298 26.1369 19.298 26.4298 19.0051L29.222 16.213C32.926 12.5089 32.926 6.48208 29.222 2.77803C25.5179 -0.925948 19.4911 -0.925948 15.787 2.77803L12.9949 5.57014C12.702 5.86302 12.702 6.33789 12.9949 6.63083L15.4697 9.10569ZM30.1463 31.5606L31.5605 30.1464C32.1463 29.5606 32.1463 28.6108 31.5605 28.0251L3.9749 0.439357C3.38909 -0.146452 2.43935 -0.146452 1.8536 0.439357L0.439357 1.8536C-0.146452 2.43941 -0.146452 3.38916 0.439357 3.9749L28.025 31.5606C28.6108 32.1463 29.5606 32.1463 30.1463 31.5606Z" fill="#0165E1" /></svg>