<svg width="28" height="32" viewBox="0 0 28 32" fill="none" xmlns="http://www.w3.org/2000/svg">
 <path  d= "M25 16H9.49998V9.55629C9.49998 7.0813 11.4812 5.02505 13.9562 5.00005C16.4562 4.97505 18.5 7.0063 18.5 9.50004V10.5C18.5 11.3313 19.1687 12 20 12H22C22.8312 12 23.5 11.3313 23.5 10.5V9.50004C23.5 4.25005 19.2187 -0.0186884 13.9687 6.15323e-05C8.71873 0.0188115 4.49999 4.3438 4.49999 9.59379V16H2.99999C1.34375 16 0 17.3438 0 19V29C0 30.6563 1.34375 32 2.99999 32H25C26.6562 32 27.9999 30.6563 27.9999 29V19C27.9999 17.3438 26.6562 16 25 16ZM16.5 25.5C16.5 26.8813 15.3812 28 14 28C12.6187 28 11.5 26.8813 11.5 25.5V22.5C11.5 21.1188 12.6187 20 14 20C15.3812 20 16.5 21.1188 16.5 22.5V25.5Z" fill="#0165E1" /></svg>