<svg width="32" height="32" viewBox="0 0 32 32" fill="none" xmlns="http://www.w3.org/2000/svg">
 <path  d= "M18.5 23.9978H13.5C12.6687 23.9978 12 23.329 12 22.4978V11.9978H6.51875C5.40625 11.9978 4.85 10.654 5.6375 9.8665L15.1438 0.354004C15.6125 -0.114746 16.3813 -0.114746 16.85 0.354004L26.3625 9.8665C27.15 10.654 26.5938 11.9978 25.4813 11.9978H20V22.4978C20 23.329 19.3312 23.9978 18.5 23.9978ZM32 23.4978V30.4978C32 31.329 31.3312 31.9978 30.5 31.9978H1.5C0.66875 31.9978 0 31.329 0 30.4978V23.4978C0 22.6665 0.66875 21.9978 1.5 21.9978H10V22.4978C10 24.429 11.5688 25.9978 13.5 25.9978H18.5C20.4312 25.9978 22 24.429 22 22.4978V21.9978H30.5C31.3312 21.9978 32 22.6665 32 23.4978ZM24.25 28.9978C24.25 28.3103 23.6875 27.7478 23 27.7478C22.3125 27.7478 21.75 28.3103 21.75 28.9978C21.75 29.6853 22.3125 30.2478 23 30.2478C23.6875 30.2478 24.25 29.6853 24.25 28.9978ZM28.25 28.9978C28.25 28.3103 27.6875 27.7478 27 27.7478C26.3125 27.7478 25.75 28.3103 25.75 28.9978C25.75 29.6853 26.3125 30.2478 27 30.2478C27.6875 30.2478 28.25 29.6853 28.25 28.9978Z" fill="#0165E1" /></svg>