<svg width="32" height="26" viewBox="0 0 32 26" fill="none" xmlns="http://www.w3.org/2000/svg">
 <path  d= "M31.5318 18.446L27.0166 13.9358C26.4165 13.3357 25.6015 13.0007 24.7514 13.0007H20.7862C19.9012 13.0007 19.1861 13.7157 19.1861 14.6008V18.561C19.1861 19.4111 19.5211 20.2211 20.1212 20.8212L24.6364 25.3314C25.2615 25.9565 26.2765 25.9565 26.9016 25.3314L31.5268 20.7062C32.1569 20.0811 32.1569 19.0711 31.5318 18.446ZM22.3913 17.396C21.7263 17.396 21.1912 16.8609 21.1912 16.1959C21.1912 15.5308 21.7263 14.9958 22.3913 14.9958C23.0563 14.9958 23.5914 15.5308 23.5914 16.1959C23.5914 16.8559 23.0563 17.396 22.3913 17.396ZM11.2007 12.9957C14.7359 12.9957 17.601 10.1305 17.601 6.59533C17.601 3.06512 14.7359 0.199951 11.2007 0.199951C7.66545 0.199951 4.80028 3.06512 4.80028 6.60033C4.80028 10.1305 7.66545 12.9957 11.2007 12.9957ZM17.591 18.556V14.9008C16.981 14.7208 16.346 14.5908 15.6809 14.5908H14.8459C13.7358 15.1008 12.5007 15.3908 11.2007 15.3908C9.90058 15.3908 8.67051 15.1008 7.55544 14.5908H6.72039C3.01018 14.5958 0 17.606 0 21.3162V23.3963C0 24.7214 1.07506 25.7964 2.40014 25.7964H20.0012C20.7762 25.7964 21.4563 25.4214 21.8963 24.8514L18.9961 21.9512C18.0911 21.0462 17.591 19.8411 17.591 18.556Z" fill="#0165E1" /></svg>