<svg width="28" height="32" viewBox="0 0 28 32" fill="none" xmlns="http://www.w3.org/2000/svg">
 <path  d= "M19.9623 20.0381L14 26.0003L8.03784 20.0381C3.56931 20.2318 0.000732422 23.8879 0.000732422 28.4002V29.0001C0.000732422 30.6563 1.34442 32 3.00059 32H24.9995C26.6557 32 27.9994 30.6563 27.9994 29.0001V28.4002C27.9994 23.8879 24.4308 20.2318 19.9623 20.0381ZM0.850691 4.98882L1.25067 5.08256V8.73238C0.813193 8.99487 0.500708 9.4511 0.500708 10.0011C0.500708 10.526 0.788194 10.9635 1.19442 11.2323L0.219472 15.1258C0.113227 15.5571 0.350715 16.0008 0.694449 16.0008H3.30682C3.65055 16.0008 3.88804 15.5571 3.7818 15.1258L2.80685 11.2323C3.21308 10.9635 3.50056 10.526 3.50056 10.0011C3.50056 9.4511 3.18808 8.99487 2.7506 8.73238V5.44505L6.8754 6.43875C6.33792 7.5137 6.00044 8.71364 6.00044 10.0011C6.00044 14.4196 9.58151 18.0007 14 18.0007C18.4186 18.0007 21.9997 14.4196 21.9997 10.0011C21.9997 8.71364 21.6684 7.5137 21.1247 6.43875L27.1432 4.98882C28.2806 4.71383 28.2806 3.29515 27.1432 3.02016L15.2437 0.145305C14.4313 -0.0484351 13.5751 -0.0484351 12.7626 0.145305L0.850691 3.01392C-0.280504 3.2889 -0.280504 4.71383 0.850691 4.98882Z" fill="#0165E1" /></svg>