<svg width="28" height="32" viewBox="0 0 28 32" fill="none" xmlns="http://www.w3.org/2000/svg">
 <path  d= "M23.9941 19.2684L25.4879 15.3558C25.7379 14.6995 25.2566 13.9995 24.5503 13.9995H20.894C21.5815 12.8182 22.0065 11.4619 22.0065 9.99937V9.98062C24.4566 9.49311 26.0066 8.78684 26.0066 7.99932C26.0066 7.16804 24.3003 6.43052 21.6252 5.93676C21.0502 3.8867 19.9377 1.82414 19.0877 0.761611C18.4939 0.0178395 17.4689 -0.213417 16.6189 0.211595L14.8938 1.07412C14.3313 1.35538 13.6688 1.35538 13.1063 1.07412L11.3812 0.211595C10.5312 -0.213417 9.50616 0.0178395 8.91239 0.761611C8.06861 1.82414 6.94983 3.8867 6.37482 5.93676C3.70599 6.43052 1.99969 7.16804 1.99969 7.99932C1.99969 8.78684 3.54973 9.49311 5.9998 9.98062V9.99937C5.9998 11.4619 6.42482 12.8182 7.11234 13.9995H3.51848C2.79971 13.9995 2.31845 14.7308 2.59971 15.3933L4.21225 19.1559C1.70593 20.6122 -0.000366211 23.2935 -0.000366211 26.3998V29.1999C-0.000366211 30.7437 1.25592 32 2.79971 32H25.2004C26.7441 32 28.0004 30.7437 28.0004 29.1999V26.3998C28.0004 23.3748 26.3879 20.7497 23.9941 19.2684ZM10.9999 29.9999L8.39987 17.9996L11.5 19.9997L13 22.4997L10.9999 29.9999ZM17.0001 29.9999L15.0001 22.4997L16.5001 19.9997L19.6002 17.9996L17.0001 29.9999ZM19.6064 11.3432C19.3627 12.0869 19.1689 12.8807 18.5752 13.4307C17.9439 14.012 15.5751 14.8308 14.575 11.8682C14.4 11.3432 13.6125 11.3432 13.4313 11.8682C12.3687 15.0058 9.93117 13.8932 9.43115 13.4307C8.83739 12.8807 8.63738 12.0869 8.39987 11.3432C8.34987 11.1869 8.00611 10.9869 8.00611 10.9807V10.3056C9.77491 10.5306 11.8187 10.6681 14.0063 10.6681C16.1938 10.6681 18.2377 10.5369 20.0065 10.3056V10.9807C20.0002 10.9869 19.6564 11.1807 19.6064 11.3432Z" fill="#0165E1" /></svg>