<svg width="32" height="26" viewBox="0 0 32 26" fill="none" xmlns="http://www.w3.org/2000/svg">
 <path  d= "M31.115 13.755L25.355 11.505C25.15 11.425 24.725 11.32 24.245 11.505L18.485 13.755C17.95 13.965 17.6 14.455 17.6 15C17.6 20.58 21.035 24.44 24.245 25.695C24.725 25.88 25.145 25.775 25.355 25.695C27.92 24.695 32 21.225 32 15C32 14.455 31.65 13.965 31.115 13.755ZM24.8 23.32V13.865L29.575 15.73C29.295 20.085 26.53 22.5 24.8 23.32ZM11.2 13C14.735 13 17.6 10.135 17.6 6.59995C17.6 3.06495 14.735 0.199951 11.2 0.199951C7.665 0.199951 4.8 3.06495 4.8 6.59995C4.8 10.135 7.665 13 11.2 13ZM16 15C16 14.875 16.04 14.76 16.055 14.64C15.93 14.635 15.81 14.6 15.68 14.6H14.845C13.735 15.11 12.5 15.4 11.2 15.4C9.9 15.4 8.67 15.11 7.555 14.6H6.72C3.01 14.6 0 17.61 0 21.32V23.4C0 24.725 1.075 25.8 2.4 25.8H20C20.34 25.8 20.665 25.725 20.96 25.6C18.26 23.455 16 19.765 16 15Z" fill="#0165E1" /></svg>