<svg width="32" height="26" viewBox="0 0 32 26" fill="none" xmlns="http://www.w3.org/2000/svg">
 <path  d= "M31.6884 23.1048L19.4784 13.6649C21.6884 12.4349 23.1984 10.1049 23.1984 7.39991C23.1984 3.42493 19.9734 0.199951 15.9984 0.199951C12.6435 0.199951 9.84848 2.50494 9.04848 5.60992L2.27352 0.36995C1.92352 0.0999517 1.42352 0.159951 1.14852 0.50995L0.168527 1.76994C-0.101472 2.11994 -0.0414722 2.61994 0.308526 2.88994L29.7284 25.6248C30.0784 25.8948 30.5784 25.8348 30.8534 25.4848L31.8334 24.2198C32.1034 23.8798 32.0384 23.3748 31.6884 23.1048ZM9.91848 16.1999C6.2085 16.1999 3.19851 19.2099 3.19851 22.9198V23.3998C3.19851 24.7248 4.27351 25.7998 5.5985 25.7998H24.7084L12.2885 16.1999H9.91848Z" fill="#0165E1" /></svg>