<svg width="32" height="26" viewBox="0 0 32 26" fill="none" xmlns="http://www.w3.org/2000/svg">
 <path  d= "M30.5282 18.8657C30.6582 18.1606 30.6582 17.4405 30.5282 16.7355L31.8184 15.9904C31.9684 15.9054 32.0334 15.7304 31.9834 15.5653C31.6483 14.4852 31.0733 13.5051 30.3232 12.695C30.2082 12.57 30.0232 12.54 29.8731 12.625L28.583 13.3701C28.038 12.9051 27.4129 12.545 26.7378 12.305V10.8148C26.7378 10.6448 26.6178 10.4948 26.4528 10.4598C25.3377 10.2098 24.2025 10.2198 23.1424 10.4598C22.9774 10.4948 22.8574 10.6448 22.8574 10.8148V12.305C22.1823 12.545 21.5573 12.9051 21.0122 13.3701L19.7221 12.625C19.5771 12.54 19.387 12.57 19.272 12.695C18.522 13.5051 17.9469 14.4852 17.6119 15.5653C17.5619 15.7304 17.6319 15.9054 17.7769 15.9904L19.067 16.7355C18.937 17.4405 18.937 18.1606 19.067 18.8657L17.7769 19.6108C17.6269 19.6958 17.5619 19.8708 17.6119 20.0358C17.9469 21.1159 18.522 22.091 19.272 22.9061C19.387 23.0311 19.5721 23.0611 19.7221 22.9761L21.0122 22.2311C21.5573 22.6961 22.1823 23.0561 22.8574 23.2962V24.7863C22.8574 24.9563 22.9774 25.1064 23.1424 25.1414C24.2576 25.3914 25.3927 25.3814 26.4528 25.1414C26.6178 25.1064 26.7378 24.9563 26.7378 24.7863V23.2962C27.4129 23.0561 28.038 22.6961 28.583 22.2311L29.8731 22.9761C30.0182 23.0611 30.2082 23.0311 30.3232 22.9061C31.0733 22.096 31.6483 21.1159 31.9834 20.0358C32.0334 19.8708 31.9634 19.6958 31.8184 19.6108L30.5282 18.8657ZM24.8026 20.2258C23.4625 20.2258 22.3774 19.1357 22.3774 17.8006C22.3774 16.4654 23.4675 15.3753 24.8026 15.3753C26.1378 15.3753 27.2279 16.4654 27.2279 17.8006C27.2279 19.1357 26.1428 20.2258 24.8026 20.2258ZM11.2012 13.0001C14.7366 13.0001 17.6019 10.1348 17.6019 6.5994C17.6019 3.06403 14.7366 0.19873 11.2012 0.19873C7.66581 0.19873 4.80051 3.06403 4.80051 6.5994C4.80051 10.1348 7.66581 13.0001 11.2012 13.0001ZM21.2622 24.3263C21.1472 24.2663 21.0322 24.1963 20.9222 24.1313L20.5272 24.3613C20.2271 24.5313 19.8871 24.6263 19.5471 24.6263C19.002 24.6263 18.4769 24.3963 18.1019 23.9962C17.1868 23.0061 16.4867 21.801 16.0917 20.5159C15.8167 19.6308 16.1867 18.6957 16.9868 18.2306L17.3818 18.0006C17.3768 17.8706 17.3768 17.7406 17.3818 17.6106L16.9868 17.3805C16.1867 16.9205 15.8167 15.9804 16.0917 15.0953C16.1367 14.9503 16.2017 14.8053 16.2517 14.6603C16.0617 14.6453 15.8767 14.6002 15.6817 14.6002H14.8466C13.7364 15.1103 12.5013 15.4003 11.2012 15.4003C9.90104 15.4003 8.67091 15.1103 7.5558 14.6002H6.72071C3.01032 14.6002 0 17.6106 0 21.321V23.4012C0 24.7263 1.07511 25.8014 2.40025 25.8014H20.0021C20.5072 25.8014 20.9772 25.6414 21.3623 25.3764C21.3022 25.1864 21.2622 24.9913 21.2622 24.7863V24.3263Z" fill="#0165E1" /></svg>