<svg width="32" height="24" viewBox="0 0 32 24" fill="none" xmlns="http://www.w3.org/2000/svg">
 <path  d= "M30.5282 16.2629C30.6582 15.5578 30.6582 14.8377 30.5282 14.1327L31.8184 13.3876C31.9684 13.3026 32.0334 13.1276 31.9834 12.9626C31.6483 11.8824 31.0733 10.9023 30.3232 10.0922C30.2082 9.96723 30.0232 9.93723 29.8731 10.0222L28.583 10.7673C28.038 10.3023 27.4129 9.94223 26.7378 9.70221V8.21205C26.7378 8.04203 26.6178 7.89202 26.4528 7.85701C25.3377 7.60699 24.2025 7.61699 23.1424 7.85701C22.9774 7.89202 22.8574 8.04203 22.8574 8.21205V9.70221C22.1823 9.94223 21.5573 10.3023 21.0122 10.7673L19.7221 10.0222C19.5771 9.93723 19.387 9.96723 19.272 10.0922C18.522 10.9023 17.9469 11.8824 17.6119 12.9626C17.5619 13.1276 17.6319 13.3026 17.7769 13.3876L19.067 14.1327C18.937 14.8377 18.937 15.5578 19.067 16.2629L17.7769 17.008C17.6269 17.093 17.5619 17.268 17.6119 17.433C17.9469 18.5131 18.522 19.4882 19.272 20.3033C19.387 20.4283 19.5721 20.4583 19.7221 20.3733L21.0122 19.6283C21.5573 20.0933 22.1823 20.4533 22.8574 20.6934V22.1835C22.8574 22.3535 22.9774 22.5036 23.1424 22.5386C24.2576 22.7886 25.3927 22.7786 26.4528 22.5386C26.6178 22.5036 26.7378 22.3535 26.7378 22.1835V20.6934C27.4129 20.4533 28.038 20.0933 28.583 19.6283L29.8731 20.3733C30.0182 20.4583 30.2082 20.4283 30.3232 20.3033C31.0733 19.4932 31.6483 18.5131 31.9834 17.433C32.0334 17.268 31.9634 17.093 31.8184 17.008L30.5282 16.2629ZM24.8026 17.623C23.4625 17.623 22.3774 16.5329 22.3774 15.1978C22.3774 13.8626 23.4675 12.7725 24.8026 12.7725C26.1378 12.7725 27.2279 13.8626 27.2279 15.1978C27.2279 16.5329 26.1428 17.623 24.8026 17.623ZM4.80051 10.3973C6.56569 10.3973 8.00084 8.96213 8.00084 7.19694C8.00084 5.43176 6.56569 3.99661 4.80051 3.99661C3.03532 3.99661 1.60017 5.43176 1.60017 7.19694C1.60017 8.96213 3.03532 10.3973 4.80051 10.3973ZM16.0017 11.9974C16.0967 11.9974 16.1867 11.9724 16.2817 11.9674C16.6968 10.8823 17.3068 9.86222 18.0969 9.00713C18.4669 8.60709 18.992 8.37707 19.5421 8.37707C19.8871 8.37707 20.2271 8.46708 20.5222 8.6421L20.9172 8.87212C20.9572 8.84712 20.9972 8.82712 21.0372 8.80211C21.3873 8.07204 21.5973 7.26195 21.5973 6.40186C21.5973 3.30653 19.092 0.801269 15.9967 0.801269C12.9014 0.801269 10.4011 3.30153 10.4011 6.39686C10.4011 9.49219 12.9064 11.9974 16.0017 11.9974ZM21.2622 21.7235C21.1472 21.6635 21.0322 21.5935 20.9222 21.5285C20.5122 21.7685 20.1571 22.0185 19.5471 22.0185C19.002 22.0185 18.4769 21.7885 18.1019 21.3884C17.1868 20.3983 16.4867 19.1932 16.0917 17.9081C15.5566 16.1829 17.3368 15.4228 17.3818 15.3928C17.3768 15.2628 17.3768 15.1328 17.3818 15.0028L16.9868 14.7727C16.7968 14.6627 16.6368 14.5227 16.4967 14.3677C16.3317 14.3777 16.1717 14.3977 16.0067 14.3977C14.7766 14.3977 13.6264 14.0977 12.5813 13.5976H12.1663C8.98095 13.5976 6.40067 16.1779 6.40067 19.3582V20.7984C6.40067 22.1235 7.47579 23.1986 8.80093 23.1986H21.5723C21.3873 22.8986 21.2622 22.5586 21.2622 22.1835V21.7235ZM8.65591 12.9275C8.07585 12.3525 7.28077 11.9974 6.40067 11.9974H3.20034C1.43515 11.9974 0 13.4326 0 15.1978V16.798C0 17.683 0.715075 18.3981 1.60017 18.3981H4.89552C5.21055 16.0279 6.6407 14.0327 8.65591 12.9275Z" fill="#0165E1" /></svg>