<svg width="32" height="24" viewBox="0 0 32 24" fill="none" xmlns="http://www.w3.org/2000/svg">
 <path  d= "M4.8 10.4C6.565 10.4 8 8.96505 8 7.20005C8 5.43505 6.565 4.00005 4.8 4.00005C3.035 4.00005 1.6 5.43505 1.6 7.20005C1.6 8.96505 3.035 10.4 4.8 10.4ZM27.2 10.4C28.965 10.4 30.4 8.96505 30.4 7.20005C30.4 5.43505 28.965 4.00005 27.2 4.00005C25.435 4.00005 24 5.43505 24 7.20005C24 8.96505 25.435 10.4 27.2 10.4ZM28.8 12H25.6C24.72 12 23.925 12.355 23.345 12.93C25.36 14.035 26.79 16.03 27.1 18.4H30.4C31.285 18.4 32 17.685 32 16.8V15.2C32 13.435 30.565 12 28.8 12ZM16 12C19.095 12 21.6 9.49505 21.6 6.40005C21.6 3.30505 19.095 0.800049 16 0.800049C12.905 0.800049 10.4 3.30505 10.4 6.40005C10.4 9.49505 12.905 12 16 12ZM19.84 13.6H19.425C18.385 14.1 17.23 14.4 16 14.4C14.77 14.4 13.62 14.1 12.575 13.6H12.16C8.98 13.6 6.4 16.18 6.4 19.36V20.8C6.4 22.125 7.475 23.2 8.8 23.2H23.2C24.525 23.2 25.6 22.125 25.6 20.8V19.36C25.6 16.18 23.02 13.6 19.84 13.6ZM8.655 12.93C8.075 12.355 7.28 12 6.4 12H3.2C1.435 12 0 13.435 0 15.2V16.8C0 17.685 0.715 18.4 1.6 18.4H4.895C5.21 16.03 6.64 14.035 8.655 12.93Z" fill="#0165E1" /></svg>