<svg width="32" height="26" viewBox="0 0 32 26" fill="none" xmlns="http://www.w3.org/2000/svg">
 <path  d= "M29.4835 12.1999L31.7637 9.91963C32.0788 9.60459 32.0788 9.09453 31.7637 8.77949L30.6236 7.63936C30.3086 7.32432 29.7985 7.32432 29.4835 7.63936L27.2032 9.91963L24.9229 7.63936C24.6079 7.32432 24.0978 7.32432 23.7828 7.63936L22.6427 8.77949C22.3276 9.09453 22.3276 9.60459 22.6427 9.91963L24.9229 12.1999L22.6427 14.4802C22.3276 14.7952 22.3276 15.3053 22.6427 15.6203L23.7828 16.7604C24.0978 17.0755 24.6079 17.0755 24.9229 16.7604L27.2032 14.4802L29.4835 16.7604C29.7985 17.0755 30.3086 17.0755 30.6236 16.7604L31.7637 15.6203C32.0788 15.3053 32.0788 14.7952 31.7637 14.4802L29.4835 12.1999ZM11.2013 13C14.7367 13 17.6021 10.1347 17.6021 6.59924C17.6021 3.06382 14.7367 0.198486 11.2013 0.198486C7.6659 0.198486 4.80056 3.06382 4.80056 6.59924C4.80056 10.1347 7.6659 13 11.2013 13ZM15.6818 14.6002H14.8467C13.7366 15.1102 12.5015 15.4003 11.2013 15.4003C9.90116 15.4003 8.67102 15.1102 7.55589 14.6002H6.72079C3.01035 14.6002 0 17.6105 0 21.321V23.4012C0 24.7264 1.07513 25.8015 2.40028 25.8015H20.0023C21.3275 25.8015 22.4026 24.7264 22.4026 23.4012V21.321C22.4026 17.6105 19.3923 14.6002 15.6818 14.6002Z" fill="#0165E1" /></svg>