<svg width="28" height="32" viewBox="0 0 28 32" fill="none" xmlns="http://www.w3.org/2000/svg">
 <path  d= "M14 16C18.4188 16 22 12.4187 22 8C22 3.58125 18.4188 0 14 0C9.58125 0 6 3.58125 6 8C6 12.4187 9.58125 16 14 16ZM6.5 26.5C6.5 27.3312 7.16875 28 8 28C8.83125 28 9.5 27.3312 9.5 26.5C9.5 25.6688 8.83125 25 8 25C7.16875 25 6.5 25.6688 6.5 26.5ZM20 18.0375V21.1C22.2812 21.5625 24 23.5875 24 26V28.6063C24 29.0813 23.6625 29.4937 23.1938 29.5875L21.1812 29.9875C20.9125 30.0437 20.65 29.8687 20.5938 29.5938L20.4 28.6125C20.3438 28.3438 20.5188 28.075 20.7938 28.025L22 27.7812V26C22 22.075 16 21.9312 16 26.1187V27.7875L17.2062 28.0312C17.475 28.0875 17.65 28.35 17.6 28.6187L17.4062 29.6C17.35 29.8687 17.0875 30.0437 16.8188 29.9937L14.8687 29.7313C14.375 29.6625 14.0063 29.2437 14.0063 28.7375V26C14.0063 23.5875 15.725 21.5688 18.0063 21.1V18.275C17.8687 18.3188 17.7313 18.3438 17.5938 18.3937C16.4688 18.7875 15.2625 19.0063 14.0063 19.0063C12.75 19.0063 11.5437 18.7875 10.4187 18.3937C9.95625 18.2312 9.4875 18.1313 9.00625 18.0688V23.1688C10.45 23.6 11.5063 24.925 11.5063 26.5063C11.5063 28.4375 9.9375 30.0063 8.00625 30.0063C6.075 30.0063 4.50625 28.4375 4.50625 26.5063C4.50625 24.925 5.5625 23.6 7.00625 23.1688V18.1437C3.03125 18.8125 0 22.2375 0 26.4V29.2C0 30.7438 1.25625 32 2.8 32H25.2C26.7438 32 28 30.7438 28 29.2V26.4C28 21.9 24.45 18.2563 20 18.0375Z" fill="#0165E1" /></svg>