<svg width="32" height="26" viewBox="0 0 32 26" fill="none" xmlns="http://www.w3.org/2000/svg">
 <path  d= "M11.2 12.9999C14.735 12.9999 17.6 10.1349 17.6 6.59995C17.6 3.06495 14.735 0.199951 11.2 0.199951C7.665 0.199951 4.8 3.06495 4.8 6.59995C4.8 10.1349 7.665 12.9999 11.2 12.9999ZM15.68 14.5999H14.845C13.735 15.1099 12.5 15.3999 11.2 15.3999C9.89999 15.3999 8.66999 15.1099 7.555 14.5999H6.72C3.01 14.5999 0 17.6099 0 21.3199V23.3999C0 24.7249 1.075 25.7999 2.4 25.7999H20C21.325 25.7999 22.4 24.7249 22.4 23.3999V21.3199C22.4 17.6099 19.39 14.5999 15.68 14.5999ZM31.83 8.17995L30.44 6.77495C30.21 6.53995 29.835 6.53995 29.6 6.76995L24.36 11.9699L22.085 9.67994C21.855 9.44495 21.48 9.44495 21.245 9.67494L19.84 11.0699C19.605 11.2999 19.605 11.6749 19.835 11.9099L23.92 16.0249C24.15 16.2599 24.525 16.2599 24.76 16.0299L31.825 9.01995C32.055 8.78495 32.06 8.40995 31.83 8.17995Z" fill="#0165E1" /></svg>