<svg width="28" height="32" viewBox="0 0 28 32" fill="none" xmlns="http://www.w3.org/2000/svg">
 <path  d= "M20.3375 18.075L14 24.4125L7.6625 18.075C3.375 18.4563 0 22.0125 0 26.4V29C0 30.6562 1.34375 32 3 32H25C26.6562 32 28 30.6562 28 29V26.4C28 22.0125 24.625 18.4563 20.3375 18.075ZM2 12C3.70625 12 5.2375 11.2812 6.325 10.1438C7.26875 13.5125 10.325 16 14 16C18.4188 16 22 12.4187 22 8C22 3.58125 18.4188 0 14 0C10.85 0 8.15 1.8375 6.84375 4.4875C5.75625 2.9875 4 2 2 2C2 4.0875 3.06875 5.925 4.69375 7C3.06875 8.075 2 9.9125 2 12ZM11 6H17C18.1063 6 19 6.89375 19 8H9C9 6.89375 9.89375 6 11 6Z" fill="#0165E1" /></svg>