<svg width="28" height="32" viewBox="0 0 28 32" fill="none" xmlns="http://www.w3.org/2000/svg">
 <path  d= "M4 14H4.84375C6.3875 17.5312 9.9 20 14 20C18.1 20 21.6125 17.5312 23.1562 14H24C24.55 14 25 13.55 25 13V7C25 6.45 24.55 6 24 6H23.1562C21.6125 2.46875 18.1 0 14 0C9.9 0 6.3875 2.46875 4.84375 6H4C3.45 6 3 6.45 3 7V13C3 13.55 3.45 14 4 14ZM6.5 8.5C6.5 7.11875 7.84375 6 9.5 6H18.5C20.1562 6 21.5 7.11875 21.5 8.5V10C21.5 13.3125 18.8125 16 15.5 16H12.5C9.1875 16 6.5 13.3125 6.5 10V8.5ZM11 13L11.75 10.75L14 10L11.75 9.25L11 7L10.25 9.25L8 10L10.25 10.75L11 13ZM20.475 20.0875C18.6063 21.2937 16.3875 22 14 22C11.6125 22 9.39375 21.2937 7.525 20.0875C3.30625 20.5312 0 24.0625 0 28.4V29C0 30.6562 1.34375 32 3 32H8V28C8 26.8937 8.89375 26 10 26H18C19.1063 26 20 26.8937 20 28V32H25C26.6562 32 28 30.6562 28 29V28.4C28 24.0625 24.6938 20.5312 20.475 20.0875ZM17 28C16.45 28 16 28.45 16 29C16 29.55 16.45 30 17 30C17.55 30 18 29.55 18 29C18 28.45 17.55 28 17 28ZM11 28C10.45 28 10 28.45 10 29V32H12V29C12 28.45 11.55 28 11 28Z" fill="#0165E1" /></svg>