<svg width="32" height="26" viewBox="0 0 32 26" fill="none" xmlns="http://www.w3.org/2000/svg">
 <path  d= "M11.2004 12.9997C14.7356 12.9997 17.6007 10.1346 17.6007 6.59947C17.6007 3.06433 14.7356 0.199219 11.2004 0.199219C7.6653 0.199219 4.80019 3.06433 4.80019 6.59947C4.80019 10.1346 7.6653 12.9997 11.2004 12.9997ZM15.6806 14.5998H14.8456C13.7355 15.1098 12.5005 15.3998 11.2004 15.3998C9.90039 15.3998 8.67034 15.1098 7.5553 14.5998H6.72026C3.01012 14.5998 0 17.6099 0 21.32V23.4001C0 24.7252 1.07504 25.8002 2.40009 25.8002H16.1456C16.0256 25.4602 15.9756 25.1002 16.0156 24.7352L16.3556 21.6901L16.4156 21.135L16.8107 20.74L20.6758 16.8749C19.4508 15.4898 17.6757 14.5998 15.6806 14.5998ZM17.9457 21.8651L17.6057 24.9152C17.5507 25.4252 17.9807 25.8552 18.4857 25.7952L21.5308 25.4552L28.4261 18.5599L24.841 14.9748L17.9457 21.8651ZM31.6512 13.6447L29.7562 11.7497C29.2911 11.2847 28.5311 11.2847 28.0661 11.7497L26.176 13.6397L25.971 13.8448L29.5612 17.4299L31.6512 15.3398C32.1163 14.8698 32.1163 14.1148 31.6512 13.6447Z" fill="#0165E1" /></svg>