<svg width="32" height="26" viewBox="0 0 32 26" fill="none" xmlns="http://www.w3.org/2000/svg">
 <path  d= "M16 16.2C16 15.645 16.155 15.13 16.405 14.675C16.165 14.65 15.93 14.6 15.68 14.6H14.845C13.735 15.11 12.5 15.4 11.2 15.4C9.9 15.4 8.67 15.11 7.555 14.6H6.72C3.01 14.6 0 17.61 0 21.32V23.4C0 24.725 1.075 25.8 2.4 25.8H16.445C16.17 25.325 16 24.785 16 24.2V16.2ZM11.2 13C14.735 13 17.6 10.135 17.6 6.59995C17.6 3.06495 14.735 0.199951 11.2 0.199951C7.665 0.199951 4.8 3.06495 4.8 6.59995C4.8 10.135 7.665 13 11.2 13ZM30.4 14.6H28.8V12.2C28.8 9.98995 27.01 8.19995 24.8 8.19995C22.59 8.19995 20.8 9.98995 20.8 12.2V14.6H19.2C18.315 14.6 17.6 15.315 17.6 16.2V24.2C17.6 25.085 18.315 25.8 19.2 25.8H30.4C31.285 25.8 32 25.085 32 24.2V16.2C32 15.315 31.285 14.6 30.4 14.6ZM26.4 14.6H23.2V12.2C23.2 11.32 23.92 10.6 24.8 10.6C25.68 10.6 26.4 11.32 26.4 12.2V14.6Z" fill="#0165E1" /></svg>