<svg width="32" height="26" viewBox="0 0 32 26" fill="none" xmlns="http://www.w3.org/2000/svg">
 <path  d= "M31.6884 23.1048L18.1134 12.6149C20.6034 11.7349 22.3984 9.3899 22.3984 6.59992C22.3984 3.06494 19.5334 0.199951 15.9984 0.199951C12.6435 0.199951 9.92348 2.78994 9.65348 6.06992L2.27352 0.36995C1.92352 0.0999517 1.42352 0.159951 1.14852 0.50995L0.168527 1.76994C-0.101472 2.11994 -0.0414722 2.61994 0.308526 2.88994L29.7284 25.6248C30.0784 25.8948 30.5784 25.8348 30.8534 25.4848L31.8334 24.2198C32.1034 23.8798 32.0384 23.3748 31.6884 23.1048ZM4.7985 21.3198V23.3998C4.7985 24.7248 5.8735 25.7998 7.19849 25.7998H24.7084L10.3685 14.7149C7.20849 15.2649 4.7985 17.9999 4.7985 21.3198Z" fill="#0165E1" /></svg>