<svg width="26" height="32" viewBox="0 0 26 32" fill="none" xmlns="http://www.w3.org/2000/svg">
 <path  d= "M12.9937 0.950087C13.0437 1.24384 14 6.85632 14 9.00006C14 12.2688 12.2625 14.6 9.69372 15.5375L10.5 30.4188C10.5437 31.275 9.86247 32 8.99998 32H4.99999C4.14374 32 3.45624 31.2813 3.49999 30.4188L4.30624 15.5375C1.73125 14.6 0 12.2626 0 9.00006C0 6.85007 0.956247 1.24384 1.00625 0.950087C1.20625 -0.31866 3.83749 -0.33741 3.99999 1.01884V9.84381C4.08124 10.0563 4.94374 10.0438 4.99999 9.84381C5.08749 8.26257 5.49374 1.14384 5.49999 0.981337C5.70623 -0.31866 8.29373 -0.31866 8.49373 0.981337C8.50623 1.15009 8.90623 8.26257 8.99372 9.84381C9.04998 10.0438 9.91872 10.0563 9.99372 9.84381V1.01884C10.1562 -0.33116 12.7937 -0.31866 12.9937 0.950087ZM20.4437 18.8063L19.5062 30.375C19.4312 31.25 20.1249 32 20.9999 32H24.4999C25.3312 32 25.9999 31.3313 25.9999 30.5V1.50009C25.9999 0.675087 25.3312 8.9299e-05 24.4999 8.9299e-05C19.3437 8.9299e-05 10.6625 11.1563 20.4437 18.8063Z" fill="#0165E1" /></svg>