<svg width="32" height="32" viewBox="0 0 32 32" fill="none" xmlns="http://www.w3.org/2000/svg">
 <path  d= "M32 8V2C32 0.895625 31.1044 0 30 0H24C22.8956 0 22 0.895625 22 2H10C10 0.895625 9.10437 0 8 0H2C0.895625 0 0 0.895625 0 2V8C0 9.10437 0.895625 10 2 10V22C0.895625 22 0 22.8956 0 24V30C0 31.1044 0.895625 32 2 32H8C9.10437 32 10 31.1044 10 30H22C22 31.1044 22.8956 32 24 32H30C31.1044 32 32 31.1044 32 30V24C32 22.8956 31.1044 22 30 22V10C31.1044 10 32 9.10437 32 8ZM26 4H28V6H26V4ZM4 4H6V6H4V4ZM6 28H4V26H6V28ZM28 28H26V26H28V28ZM26 22H24C22.8956 22 22 22.8956 22 24V26H10V24C10 22.8956 9.10437 22 8 22H6V10H8C9.10437 10 10 9.10437 10 8V6H22V8C22 9.10437 22.8956 10 24 10H26V22Z" fill="#0165E1" /></svg>