<svg width="32" height="28" viewBox="0 0 32 28" fill="none" xmlns="http://www.w3.org/2000/svg">
 <path  d= "M18 9C18 4.03125 13.9688 0 9 0C4.03125 0 0 4.03125 0 9C0 13.2812 2.99375 16.8687 7 17.775V21H4.75C4.3375 21 4 21.3375 4 21.75V24.25C4 24.6625 4.3375 25 4.75 25H7V27.25C7 27.6625 7.3375 28 7.75 28H10.25C10.6625 28 11 27.6625 11 27.25V25H13.25C13.6625 25 14 24.6625 14 24.25V21.75C14 21.3375 13.6625 21 13.25 21H11V17.775C15.0063 16.8687 18 13.2812 18 9ZM4 9C4 6.24375 6.24375 4 9 4C11.7563 4 14 6.24375 14 9C14 11.7563 11.7563 14 9 14C6.24375 14 4 11.7563 4 9ZM25 17.775V21H27.25C27.6625 21 28 21.3375 28 21.75V24.25C28 24.6625 27.6625 25 27.25 25H25V27.25C25 27.6625 24.6625 28 24.25 28H21.75C21.3375 28 21 27.6625 21 27.25V25H18.75C18.3375 25 18 24.6625 18 24.25V21.75C18 21.3375 18.3375 21 18.75 21H21V17.775C19.675 17.475 18.4625 16.8813 17.425 16.0688C18.3 15.025 18.9875 13.8188 19.4312 12.5C20.3375 13.425 21.6 14 23 14C25.7563 14 28 11.7563 28 9C28 6.24375 25.7563 4 23 4C21.6063 4 20.3375 4.575 19.4312 5.5C18.9875 4.18125 18.3062 2.975 17.425 1.93125C18.9625 0.725 20.8937 0 23 0C27.9688 0 32 4.03125 32 9C32 13.2812 29.0063 16.8687 25 17.775Z" fill="#0165E1" /></svg>