<svg width="32" height="30" viewBox="0 0 32 30" fill="none" xmlns="http://www.w3.org/2000/svg">
 <path  d= "M31.3333 0.777832H26.9444C26.35 0.777832 26.0556 1.4945 26.4722 1.91672L27.4111 2.85561L24.7056 5.56117C23.4722 4.78339 22.0111 4.33339 20.4444 4.33339C18.5722 4.33339 16.8556 4.97783 15.4889 6.05005C16.2667 6.97783 16.8778 8.05005 17.2722 9.22228C18.0778 8.40005 19.2 7.88894 20.4444 7.88894C22.8944 7.88894 24.8889 9.88339 24.8889 12.3334C24.8889 14.7834 22.8944 16.7778 20.4444 16.7778C19.2056 16.7778 18.0778 16.2667 17.2722 15.4445C16.8778 16.6167 16.2722 17.6889 15.4889 18.6167C16.85 19.6945 18.5722 20.3334 20.4444 20.3334C24.8611 20.3334 28.4444 16.7501 28.4444 12.3334C28.4444 10.7667 27.9944 9.30561 27.2167 8.07228L29.9222 5.36672L30.8611 6.30561C30.9944 6.43894 31.1611 6.50005 31.3278 6.50005C31.6722 6.50005 32 6.23339 32 5.83339V1.4445C32 1.07783 31.7 0.777832 31.3333 0.777832ZM8 4.33339C3.58333 4.33339 0 7.91672 0 12.3334C0 16.1389 2.66111 19.3278 6.22222 20.1334V23.0001H4.22222C3.85556 23.0001 3.55556 23.3001 3.55556 23.6667V25.8889C3.55556 26.2556 3.85556 26.5556 4.22222 26.5556H6.22222V28.5556C6.22222 28.9223 6.52222 29.2223 6.88889 29.2223H9.11111C9.47778 29.2223 9.77778 28.9223 9.77778 28.5556V26.5556H11.7778C12.1444 26.5556 12.4444 26.2556 12.4444 25.8889V23.6667C12.4444 23.3001 12.1444 23.0001 11.7778 23.0001H9.77778V20.1334C13.3389 19.3223 16 16.1389 16 12.3334C16 7.91672 12.4167 4.33339 8 4.33339ZM8 16.7778C5.55 16.7778 3.55556 14.7834 3.55556 12.3334C3.55556 9.88339 5.55 7.88894 8 7.88894C10.45 7.88894 12.4444 9.88339 12.4444 12.3334C12.4444 14.7834 10.45 16.7778 8 16.7778Z" fill="#0165E1" /></svg>