<svg width="32" height="32" viewBox="0 0 32 32" fill="none" xmlns="http://www.w3.org/2000/svg">
 <path  d= "M31.845 11.3438L20.631 0.156474C20.4243 -0.0502049 20.0843 -0.0502049 19.8776 0.156474L17.6108 2.41661C17.4041 2.62329 17.4041 2.96331 17.6108 3.16999L18.3575 3.91003L2.19655 20.0377C-0.39027 22.6178 -0.810295 26.8381 1.56985 29.6049C2.94326 31.205 4.87004 32.005 6.79683 31.9984C8.55693 31.9984 10.317 31.3317 11.6571 29.9916L28.0781 13.6106L28.8248 14.3507C29.0315 14.5573 29.3715 14.5573 29.5782 14.3507L31.845 12.0905C32.0517 11.8905 32.0517 11.5505 31.845 11.3438ZM21.1977 16.0041H10.7304L20.5977 6.15683L25.8313 11.3771L21.1977 16.0041Z" fill="#0165E1" /></svg>