<svg width="32" height="26" viewBox="0 0 32 26" fill="none" xmlns="http://www.w3.org/2000/svg">
 <path  d= "M3.6 3.39995H4.8V15.4C4.8 17.605 6.595 19.4 8.8 19.4C11.005 19.4 12.8 17.605 12.8 15.4V3.39995H14C14.22 3.39995 14.4 3.21995 14.4 2.99995V0.599951C14.4 0.379951 14.22 0.199951 14 0.199951H3.6C3.38 0.199951 3.2 0.379951 3.2 0.599951V2.99995C3.2 3.21995 3.38 3.39995 3.6 3.39995ZM7.2 3.39995H10.4V8.19995H7.2V3.39995ZM31.2 22.6H0.8C0.36 22.6 0 22.96 0 23.4V25C0 25.44 0.36 25.8 0.8 25.8H31.2C31.64 25.8 32 25.44 32 25V23.4C32 22.96 31.64 22.6 31.2 22.6ZM18 3.39995H19.2V15.4C19.2 17.605 20.995 19.4 23.2 19.4C25.405 19.4 27.2 17.605 27.2 15.4V3.39995H28.4C28.62 3.39995 28.8 3.21995 28.8 2.99995V0.599951C28.8 0.379951 28.62 0.199951 28.4 0.199951H18C17.78 0.199951 17.6 0.379951 17.6 0.599951V2.99995C17.6 3.21995 17.78 3.39995 18 3.39995ZM21.6 3.39995H24.8V8.19995H21.6V3.39995Z" fill="#0165E1" /></svg>