<svg width="32" height="26" viewBox="0 0 32 26" fill="none" xmlns="http://www.w3.org/2000/svg">
 <path  d= "M31.6893 23.1053L28.9393 20.9802C29.7093 20.9102 30.3993 20.2952 30.3993 19.4252V6.57486C30.3993 5.29983 28.9443 4.55481 27.8792 5.28483L22.3991 9.06493V15.9251L20.7991 14.6901V5.78984C20.7991 4.46981 19.729 3.39978 18.409 3.39978H6.19369L2.27359 0.369704C1.92358 0.0996968 1.42356 0.159698 1.14856 0.509707L0.168532 1.76974C-0.101475 2.11975 -0.0414735 2.61976 0.308536 2.88977L2.13358 4.2998L20.7991 18.7302L29.7243 25.6304C30.0743 25.9004 30.5743 25.8404 30.8493 25.4903L31.8293 24.2253C32.1044 23.8803 32.0394 23.3753 31.6893 23.1053ZM1.59857 20.2102C1.59857 21.5302 2.6686 22.6003 3.98863 22.6003H18.409C18.969 22.6003 19.479 22.4003 19.889 22.0753L1.59857 7.9349V20.2102Z" fill="#0165E1" /></svg>