<svg width="32" height="32" viewBox="0 0 32 32" fill="none" xmlns="http://www.w3.org/2000/svg">
 <path  d= "M14.4128 15.1898C14.3547 12.8031 13.858 10.4938 12.9485 8.37152C7.09137 11.1066 2.78883 16.267 1.31809 22.3564C2.18247 24.3432 3.44034 26.1171 4.98848 27.5878C6.45276 22.4789 9.77481 18.0538 14.4128 15.1898ZM12.0325 6.5202C11.0649 4.81725 9.80706 3.28846 8.32988 1.95964C2.45985 5.17203 -1.01057 11.8226 0.266649 18.8731C2.42114 13.5126 6.61402 9.06818 12.0325 6.5202ZM24.1338 17.1701C24.6886 10.7324 22.3728 4.43021 17.8445 0.114771C16.8962 0.00511062 14.516 -0.240011 11.4649 0.66307C15.161 4.48827 17.3349 9.57778 17.4962 15.0285C19.5926 16.1703 21.8374 16.8992 24.1338 17.1701ZM16.0899 17.7829C14.0515 19.0279 12.3034 20.6147 10.9166 22.466C16.206 26.1622 22.8179 27.3104 28.8169 25.5494C30.0877 23.8465 31.023 21.8855 31.5391 19.7503C29.8232 20.1761 28.0751 20.4212 26.3206 20.4212C22.7985 20.4148 19.2959 19.5117 16.0899 17.7829ZM9.74901 24.2141C8.76852 25.8913 8.09121 27.7233 7.67837 29.6455C10.1038 31.1292 12.9485 32 16.0061 32C19.9409 32 23.5339 30.5744 26.3206 28.22C19.0378 29.2585 13.2065 26.6202 9.74901 24.2141ZM21.3794 0.953346C24.9466 5.49456 26.7011 11.3517 26.1915 17.312C28.1461 17.3249 30.0941 17.0024 31.9777 16.396C31.9777 16.267 31.9971 16.138 31.9971 16.009C31.9971 9.05528 27.5655 3.1659 21.3794 0.953346Z" fill="#0165E1" /></svg>