<svg width="32" height="28" viewBox="0 0 32 28" fill="none" xmlns="http://www.w3.org/2000/svg">
 <path  d= "M14.2222 4.89156V23.5562C14.2222 24.7472 12.7809 25.3339 11.9461 24.4991L7.00328 19.5573H1.33333C0.596944 19.5573 0 18.9603 0 18.2239V10.2239C0 9.48756 0.596944 8.89061 1.33333 8.89061H7.00328L11.9461 3.94872C12.78 3.11484 14.2222 3.69928 14.2222 4.89156ZM24.3364 0.565113C23.499 0.0528354 22.4046 0.316613 21.8923 1.15422C21.38 1.99184 21.6438 3.08611 22.4814 3.59839C26.0537 5.783 28.4444 9.723 28.4444 14.2239C28.4444 18.3034 26.4402 22.1291 23.0829 24.4576C22.2762 25.0172 22.0758 26.1248 22.6353 26.9316C23.1951 27.7387 24.3029 27.9386 25.1093 27.3792C29.4241 24.3866 32 19.4687 32 14.2239C32 8.48817 28.9678 3.39745 24.3364 0.565113ZM26.6667 14.2239C26.6667 10.4158 24.6583 7.01411 21.5579 5.11834C20.7204 4.60611 19.6261 4.86995 19.1138 5.70761C18.6016 6.54528 18.8654 7.6395 19.7031 8.15172C21.8371 9.45661 23.1111 11.7266 23.1111 14.2239C23.1111 16.5553 21.9656 18.7417 20.0468 20.0726C19.2401 20.6322 19.0397 21.7398 19.5992 22.5466C19.9446 23.0444 20.4984 23.3113 21.0616 23.3113C21.4233 23.3115 21.7763 23.2008 22.0732 22.9942C24.9495 20.9991 26.6667 17.7205 26.6667 14.2239ZM21.3333 14.2239C21.3333 12.3508 20.3786 10.6489 18.7793 9.6715C17.9416 9.15961 16.8474 9.42356 16.3353 10.2613C15.8233 11.099 16.0873 12.1932 16.9251 12.7053C17.4591 13.0316 17.7778 13.5993 17.7778 14.2239C17.7776 14.5116 17.7078 14.7949 17.5742 15.0497C17.4407 15.3044 17.2474 15.523 17.011 15.6868C16.2041 16.2462 16.0034 17.3538 16.5628 18.1607C17.1223 18.9677 18.2299 19.1683 19.0367 18.6089C20.4748 17.6119 21.3333 15.9727 21.3333 14.2239Z" fill="#0165E1" /></svg>