<svg width="32" height="32" viewBox="0 0 32 32" fill="none" xmlns="http://www.w3.org/2000/svg">
 <path  d= "M21.3333 2.0014V29.9984C21.3333 31.7849 19.1714 32.6649 17.9191 31.4127L10.5049 24H2C0.895417 24 0 23.1046 0 22V9.99998C0 8.8954 0.895417 7.99998 2 7.99998H10.5049L17.9192 0.587151C19.17 -0.663683 21.3333 0.212984 21.3333 2.0014ZM32 16C32 13.1902 30.5678 10.6375 28.169 9.17132C26.9124 8.40348 25.2711 8.7994 24.503 10.056C23.7349 11.3126 24.131 12.9539 25.3876 13.722C26.1886 14.2115 26.6667 15.0631 26.6667 16C26.6664 16.4314 26.5617 16.8564 26.3614 17.2386C26.1611 17.6207 25.8712 17.9486 25.5165 18.1943C24.3062 19.0334 24.0052 20.6948 24.8443 21.9052C25.6834 23.1156 27.3449 23.4165 28.5551 22.5774C30.7122 21.0819 32 18.6232 32 16Z" fill="#0165E1" /></svg>