<svg width="20" height="32" viewBox="0 0 20 32" fill="none" xmlns="http://www.w3.org/2000/svg">
 <path  d= "M12.9963 5.99912C14.6523 5.99912 15.9959 4.65557 15.9959 2.99956C15.9959 1.34355 14.6523 0 12.9963 0C11.3403 0 9.99673 1.34355 9.99673 2.99956C9.99673 4.65557 11.3403 5.99912 12.9963 5.99912ZM18.9017 15.3165L17.4456 14.5791L16.8395 12.7419C15.9209 9.95479 13.3587 8.00508 10.4529 7.99883C8.20324 7.99258 6.95967 8.62999 4.62252 9.5736C3.27271 10.1173 2.16663 11.1484 1.51672 12.4607L1.09803 13.3105C0.610604 14.2979 1.0043 15.4977 1.9854 15.9914C2.96026 16.4851 4.14759 16.0851 4.64126 15.0978L5.05995 14.2479C5.27867 13.8105 5.64112 13.4668 6.09105 13.2856L7.76581 12.6107L6.81594 16.4038C6.49099 17.7037 6.84094 19.0847 7.74706 20.0783L11.4903 24.1652C11.9402 24.6589 12.2589 25.2526 12.4214 25.8962L13.565 30.4768C13.8337 31.5454 14.921 32.2015 15.9896 31.9328C17.0582 31.6641 17.7143 30.5768 17.4456 29.5082L16.0583 23.9465C15.8959 23.3028 15.5772 22.7029 15.1272 22.2155L12.2839 19.1097L13.3587 14.8166L13.7024 15.8477C14.0336 16.8538 14.746 17.6849 15.6834 18.1598L17.1394 18.8972C18.1143 19.3909 19.3016 18.991 19.7953 18.0036C20.2765 17.0225 19.8828 15.8102 18.9017 15.3165ZM4.59752 24.109C4.39755 24.6151 4.09759 25.0713 3.71015 25.4525L0.585608 28.5833C-0.195528 29.3644 -0.195528 30.633 0.585608 31.4141C1.36674 32.1953 2.62906 32.1953 3.41019 31.4141L7.12215 27.7022C7.50334 27.321 7.8033 26.8648 8.00952 26.3586L8.85315 24.2464C5.3974 20.4783 6.43475 21.6343 5.89108 20.8907L4.59752 24.109Z" fill="#0165E1" /></svg>