<svg width="32" height="26" viewBox="0 0 32 26" fill="none" xmlns="http://www.w3.org/2000/svg">
 <path  d= "M25.2 17.7994H6.82C6.6 17.7994 6.42 17.9794 6.42 18.1994L6.415 20.5994C6.415 20.8194 6.595 20.9994 6.815 20.9994H25.2C25.42 20.9994 25.6 20.8194 25.6 20.5994V18.1994C25.6 17.9794 25.42 17.7994 25.2 17.7994ZM25.2 22.5994H6.805C6.585 22.5994 6.405 22.7794 6.405 22.9994L6.4 25.3994C6.4 25.6194 6.58 25.7994 6.8 25.7994H25.2C25.42 25.7994 25.6 25.6194 25.6 25.3994V22.9994C25.6 22.7794 25.42 22.5994 25.2 22.5994ZM25.2 12.9994H6.83C6.61 12.9994 6.43 13.1794 6.43 13.3994L6.425 15.7994C6.425 16.0194 6.605 16.1994 6.825 16.1994H25.2C25.42 16.1994 25.6 16.0194 25.6 15.7994V13.3994C25.6 13.1794 25.42 12.9994 25.2 12.9994ZM30.525 6.04944L16.92 0.384437C16.6276 0.263126 16.3141 0.200684 15.9975 0.200684C15.6809 0.200684 15.3674 0.263126 15.075 0.384437L1.475 6.04944C0.585 6.42444 0 7.29444 0 8.26444V25.3994C0 25.6194 0.18 25.7994 0.4 25.7994H4.4C4.62 25.7994 4.8 25.6194 4.8 25.3994V12.9994C4.8 12.1194 5.53 11.3994 6.43 11.3994H25.57C26.47 11.3994 27.2 12.1194 27.2 12.9994V25.3994C27.2 25.6194 27.38 25.7994 27.6 25.7994H31.6C31.82 25.7994 32 25.6194 32 25.3994V8.26444C32 7.29444 31.415 6.42444 30.525 6.04944Z" fill="#0165E1" /></svg>