<svg width="32" height="32" viewBox="0 0 32 32" fill="none" xmlns="http://www.w3.org/2000/svg">
 <path  d= "M31.8926 27.866L27.3282 9.60777C27.0907 8.6584 26.3007 8.00027 25.3988 8.00027H21.6331C21.8563 7.37214 22.0006 6.70527 22.0006 6.00026C22.0006 2.6865 19.3144 0.000244141 16.0006 0.000244141C12.6869 0.000244141 10.0006 2.6865 10.0006 6.00026C10.0006 6.70527 10.1444 7.37214 10.3681 8.00027H6.60247C5.70059 8.00027 4.90996 8.65902 4.67309 9.60777L0.107448 27.866C-0.413179 29.9478 1.0237 31.9997 3.00183 31.9997H28.9988C30.9763 31.9997 32.4132 29.9478 31.8926 27.866ZM16 7.99964C14.8975 7.99964 14 7.10214 14 5.99964C14 4.89713 14.8975 3.99963 16 3.99963C17.1025 3.99963 18 4.89713 18 5.99964C18 7.10214 17.1025 7.99964 16 7.99964Z" fill="#0165E1" /></svg>