<svg width="32" height="32" viewBox="0 0 32 32" fill="none" xmlns="http://www.w3.org/2000/svg">
 <path  d= "M28 4H26.3762C27.4025 5.7675 28 7.81312 28 10C28 16.6169 22.6169 22 16 22C9.38313 22 4 16.6169 4 10C4 7.81312 4.5975 5.7675 5.62375 4H4C1.79437 4 0 5.79437 0 8V28C0 30.2056 1.79437 32 4 32H28C30.2056 32 32 30.2056 32 28V8C32 5.79437 30.2056 4 28 4ZM16 20C21.5231 20 26 15.5231 26 10C26 4.47687 21.5231 0 16 0C10.4769 0 6 4.47687 6 10C6 15.5231 10.4769 20 16 20ZM15.9812 10.5037L18.08 5.60625C18.2987 5.09562 18.8888 4.86125 19.3944 5.08063C19.9019 5.29813 20.1369 5.88625 19.92 6.39313L17.8156 11.3025C18.2331 11.75 18.5 12.3406 18.5 13C18.5 14.3806 17.3806 15.5 16 15.5C14.6194 15.5 13.5 14.3806 13.5 13C13.5 11.6263 14.61 10.5144 15.9812 10.5037Z" fill="#0165E1" /></svg>