<svg width="32" height="24" viewBox="0 0 32 24" fill="none" xmlns="http://www.w3.org/2000/svg">
 <path  d= "M19.2255 20.064C19.2255 21.8454 17.7814 23.2896 16 23.2896C14.2186 23.2896 12.7744 21.8454 12.7744 20.064C12.7744 18.2826 14.2186 16.8385 16 16.8385C17.7814 16.8385 19.2255 18.2826 19.2255 20.064ZM26.113 13.7922C26.4388 13.4664 26.4277 12.9322 26.0846 12.6246C20.3495 7.48467 11.6439 7.49051 5.91537 12.6246C5.5722 12.9322 5.56111 13.4664 5.88694 13.7922L7.60082 15.5061C7.89953 15.8048 8.38019 15.8246 8.69795 15.5462C12.875 11.8868 19.1343 11.8949 23.302 15.5462C23.6198 15.8246 24.1004 15.8049 24.3991 15.5061L26.113 13.7922ZM31.7632 8.06093C32.085 7.73913 32.0784 7.21342 31.7456 6.90311C22.8871 -1.35528 9.10966 -1.35226 0.254392 6.90311C-0.078444 7.21342 -0.0850462 7.73918 0.236752 8.06093L1.94861 9.77279C2.25579 10.08 2.7495 10.0868 3.06868 9.79209C10.3646 3.05534 21.6335 3.05363 28.9313 9.79209C29.2505 10.0868 29.7442 10.08 30.0513 9.77279L31.7632 8.06093Z" fill="#0165E1" /></svg>