<svg width="32" height="28" viewBox="0 0 32 28" fill="none" xmlns="http://www.w3.org/2000/svg">
 <path  d= "M29 0H3C1.34375 0 0 1.34375 0 3V25C0 26.6562 1.34375 28 3 28H29C30.6562 28 32 26.6562 32 25V3C32 1.34375 30.6562 0 29 0ZM23.775 18.1562C24.075 18.4562 24.075 18.9438 23.775 19.2437L21.2437 21.775C20.9438 22.075 20.4562 22.075 20.1562 21.775L16 17.5812L11.8438 21.775C11.5437 22.075 11.0563 22.075 10.7563 21.775L8.225 19.2437C7.925 18.9438 7.925 18.4562 8.225 18.1562L12.4187 14L8.225 9.84375C7.925 9.54375 7.925 9.05625 8.225 8.75625L10.7563 6.225C11.0563 5.925 11.5437 5.925 11.8438 6.225L16 10.4187L20.1562 6.225C20.4562 5.925 20.9438 5.925 21.2437 6.225L23.775 8.75625C24.075 9.05625 24.075 9.54375 23.775 9.84375L19.5812 14L23.775 18.1562Z" fill="#0165E1" /></svg>