<svg width="18" height="32" viewBox="0 0 18 32" fill="none" xmlns="http://www.w3.org/2000/svg">
 <path  d= "M13.5 29H11V21.6756C15.2794 20.6825 18.3781 16.6812 17.9625 12.0406L16.9656 0.909375C16.9194 0.394375 16.4937 0 15.9837 0H2.01623C1.50686 0 1.08061 0.394375 1.03498 0.909375L0.0374846 12.0413C-0.37814 16.6819 2.72061 20.6831 6.99998 21.6763V29H4.49998C3.11936 29 1.99998 30.1194 1.99998 31.5C1.99998 31.7763 2.22373 32 2.49998 32H15.5C15.7762 32 16 31.7763 16 31.5C16 30.1194 14.8806 29 13.5 29ZM3.85936 3H14.1406L14.5887 8H3.41123L3.85936 3Z" fill="#0165E1" /></svg>