<svg width="32" height="26" viewBox="0 0 32 26" fill="none" xmlns="http://www.w3.org/2000/svg">
 <path  d= "M31.3333 9.42517C31.7015 9.42517 32 9.12667 32 8.75851V6.53628C32 6.16812 31.7015 5.86962 31.3333 5.86962H28.6651L29.6969 1.39128C29.7931 0.973618 29.4759 0.574951 29.0473 0.574951H26.4858C26.3331 0.574939 26.185 0.62735 26.0663 0.723417C25.9477 0.819485 25.8656 0.953386 25.8338 1.10273L25.0406 5.86962H18.9355L17.8397 1.09256C17.8059 0.945481 17.7233 0.814197 17.6053 0.720174C17.4872 0.626152 17.3408 0.574954 17.1899 0.574951H14.7461C14.5956 0.574951 14.4495 0.625883 14.3316 0.71946C14.2137 0.813038 14.131 0.943753 14.0968 1.09034L12.9831 5.86962H6.94306L5.97222 1.10845C5.94151 0.957867 5.85972 0.822519 5.74068 0.725311C5.62165 0.628103 5.47268 0.575006 5.319 0.575007H2.97933C2.55233 0.575007 2.23544 0.970784 2.32883 1.38745L3.33333 5.86962H0.666667C0.2985 5.86962 0 6.16812 0 6.53628V8.75851C0 9.12667 0.2985 9.42517 0.666667 9.42517H4.13011L4.5285 11.203H0.666667C0.2985 11.203 0 11.5015 0 11.8696V14.0918C0 14.46 0.2985 14.7585 0.666667 14.7585H5.32533L7.59906 24.9043C7.63218 25.0521 7.71465 25.1842 7.83289 25.2789C7.95112 25.3736 8.09808 25.4252 8.24956 25.4252H11.4033C11.7134 25.4252 11.9826 25.2113 12.0527 24.9092L14.4075 14.7585H17.4678L19.8226 24.9092C19.8567 25.0559 19.9394 25.1868 20.0573 25.2805C20.1752 25.3742 20.3214 25.4252 20.472 25.4252H23.629C23.7798 25.4252 23.9261 25.3741 24.0441 25.2802C24.1621 25.1863 24.2448 25.0551 24.2787 24.9082L26.6171 14.7585H31.3333C31.7015 14.7585 32 14.46 32 14.0918V11.8696C32 11.5015 31.7015 11.203 31.3333 11.203H27.4363L27.8459 9.42517H31.3333ZM7.668 9.42517H12.1545L11.7402 11.203H8.03045L7.668 9.42517ZM10.2122 17.7601C9.86811 19.1952 9.83678 20.3851 9.8055 20.3851H9.74294C9.74294 20.3851 9.64911 19.1601 9.3675 17.7601L8.7555 14.7585H10.9117L10.2122 17.7601ZM15.2323 11.203L15.3432 10.7251C15.4463 10.2827 15.5353 9.83795 15.6101 9.42517H16.2653C16.3401 9.83795 16.429 10.2827 16.5321 10.7251L16.643 11.203H15.2323ZM22.5078 17.7601C22.2263 19.1601 22.1324 20.3851 22.1324 20.3851H22.0698C22.0386 20.3851 22.0073 19.1951 21.6631 17.7601L20.9746 14.7585H23.1472L22.5078 17.7601ZM23.9045 11.203H20.1589L19.7512 9.42517H24.2832L23.9045 11.203Z" fill="#0165E1" /></svg>