<svg width="32" height="32" viewBox="0 0 32 32" fill="none" xmlns="http://www.w3.org/2000/svg">
 <path  d= "M31.7332 6.81864C31.5932 6.25427 30.8869 6.06302 30.4757 6.47426L25.8282 11.1218L21.5857 10.4149L20.8788 6.17239L25.5263 1.5249C25.9401 1.11115 25.7407 0.406156 25.1726 0.264907C22.2113 -0.468841 18.9507 0.321781 16.6364 2.63553C14.1589 5.11302 13.477 8.70426 14.5082 11.8355L1.1714 25.1723C-0.390468 26.7342 -0.390468 29.2667 1.1714 30.8286C2.73327 32.3904 5.26577 32.3904 6.82764 30.8286L20.1532 17.503C23.2857 18.5474 26.8701 17.858 29.3638 15.3642C31.6807 13.0474 32.4701 9.78176 31.7332 6.81864ZM4.00015 29.4998C3.17202 29.4998 2.50015 28.828 2.50015 27.9998C2.50015 27.1711 3.17202 26.4998 4.00015 26.4998C4.82827 26.4998 5.50014 27.1711 5.50014 27.9998C5.50014 28.828 4.82827 29.4998 4.00015 29.4998Z" fill="#0165E1" /></svg>