<svg width="32" height="26" viewBox="0 0 32 26" fill="none" xmlns="http://www.w3.org/2000/svg">
 <path  d= "M12 19.4C11.56 19.4 11.2 19.76 11.2 20.2C11.2 20.64 11.56 21 12 21C12.44 21 12.8 20.64 12.8 20.2C12.8 19.76 12.44 19.4 12 19.4ZM20 21C20.44 21 20.8 20.64 20.8 20.2C20.8 19.76 20.44 19.4 20 19.4C19.56 19.4 19.2 19.76 19.2 20.2C19.2 20.64 19.56 21 20 21ZM31.2 0.199951H0.8C0.36 0.199951 0 0.559951 0 0.999951V2.59995C0 3.03995 0.36 3.39995 0.8 3.39995H31.2C31.64 3.39995 32 3.03995 32 2.59995V0.999951C32 0.559951 31.64 0.199951 31.2 0.199951ZM31.2 22.6H28.8V4.99995H3.2V22.6H0.8C0.36 22.6 0 22.96 0 23.4V25C0 25.44 0.36 25.8 0.8 25.8H31.2C31.64 25.8 32 25.44 32 25V23.4C32 22.96 31.64 22.6 31.2 22.6ZM24 12.6C24 12.82 23.82 13 23.6 13H16.8V14.6H22C22.22 14.6 22.4 14.78 22.4 15V15.8C22.4 16.02 22.22 16.2 22 16.2H16.8V17.8H20C21.325 17.8 22.4 18.875 22.4 20.2C22.4 21.525 21.325 22.6 20 22.6C18.675 22.6 17.6 21.525 17.6 20.2V19.4H14.4V20.2C14.4 21.525 13.325 22.6 12 22.6C10.675 22.6 9.6 21.525 9.6 20.2C9.6 18.875 10.675 17.8 12 17.8H15.2V16.2H10C9.78 16.2 9.6 16.02 9.6 15.8V15C9.6 14.78 9.78 14.6 10 14.6H15.2V13H8.4C8.18 13 8 12.82 8 12.6V11.8C8 11.58 8.18 11.4 8.4 11.4H15.2V9.79995H10C9.78 9.79995 9.6 9.61995 9.6 9.39995V8.59995C9.6 8.37995 9.78 8.19995 10 8.19995H15.2V6.99995C15.2 6.77995 15.38 6.59995 15.6 6.59995H16.4C16.62 6.59995 16.8 6.77995 16.8 6.99995V8.19995H22C22.22 8.19995 22.4 8.37995 22.4 8.59995V9.39995C22.4 9.61995 22.22 9.79995 22 9.79995H16.8V11.4H23.6C23.82 11.4 24 11.58 24 11.8V12.6Z" fill="#0165E1" /></svg>