<svg width="26" height="32" viewBox="0 0 26 32" fill="none" xmlns="http://www.w3.org/2000/svg">
 <path  d= "M24.372 2.62848e-09H19.7093C19.5489 -9.02755e-07 19.3917 0.0450108 19.2556 0.129916C19.1195 0.214821 19.01 0.336213 18.9395 0.480286L14.9831 8.56336C13.9464 11.0422 13.045 13.7014 13.045 13.7014H12.9548C12.9548 13.7014 12.0534 11.0422 11.0168 8.56336L7.06034 0.480286C6.98984 0.336208 6.88031 0.21481 6.74423 0.129902C6.60814 0.0449951 6.45095 -1.25584e-05 6.29055 2.62848e-09H1.62798C0.981053 2.62848e-09 0.567267 0.689286 0.871553 1.26021L6.59441 12H2.42855C1.9552 12 1.57141 12.3838 1.57141 12.8571V15.1429C1.57141 15.6162 1.9552 16 2.42855 16H8.72584L10.1428 18.6591V20.5714H2.42855C1.9552 20.5714 1.57141 20.9552 1.57141 21.4286V23.7143C1.57141 24.1876 1.9552 24.5714 2.42855 24.5714H10.1428V31.1429C10.1428 31.6162 10.5266 32 11 32H15C15.4733 32 15.8571 31.6162 15.8571 31.1429V24.5714H23.5714C24.0448 24.5714 24.4286 24.1876 24.4286 23.7143V21.4286C24.4286 20.9552 24.0448 20.5714 23.5714 20.5714H15.8571V18.6591L17.2741 16H23.5714C24.0448 16 24.4286 15.6162 24.4286 15.1429V12.8571C24.4286 12.3838 24.0448 12 23.5714 12H19.4056L25.1284 1.26021C25.4327 0.689286 25.019 2.62848e-09 24.372 2.62848e-09Z" fill="#0165E1" /></svg>