<svg width="32" height="26" viewBox="0 0 32 26" fill="none" xmlns="http://www.w3.org/2000/svg">
 <path  d= "M29.3333 0.555542H2.66667C1.19444 0.555542 0 1.74999 0 3.22221V22.7778C0 24.25 1.19444 25.4444 2.66667 25.4444H29.3333C30.8056 25.4444 32 24.25 32 22.7778V3.22221C32 1.74999 30.8056 0.555542 29.3333 0.555542ZM29.3333 22.7778H2.66667V3.22221H29.3333V22.7778ZM11.5556 13C13.5167 13 15.1111 11.4055 15.1111 9.44443C15.1111 7.48332 13.5167 5.88888 11.5556 5.88888C9.59444 5.88888 8 7.48332 8 9.44443C8 11.4055 9.59444 13 11.5556 13ZM6.57778 20.1111H16.5333C17.2222 20.1111 17.7778 19.6333 17.7778 19.0444V17.9778C17.7778 16.2111 16.1056 14.7778 14.0444 14.7778C13.4444 14.7778 13.0056 15.2222 11.5556 15.2222C10.0611 15.2222 9.7 14.7778 9.06667 14.7778C7.00556 14.7778 5.33333 16.2111 5.33333 17.9778V19.0444C5.33333 19.6333 5.88889 20.1111 6.57778 20.1111ZM20 16.5555H26.2222C26.4667 16.5555 26.6667 16.3555 26.6667 16.1111V15.2222C26.6667 14.9778 26.4667 14.7778 26.2222 14.7778H20C19.7556 14.7778 19.5556 14.9778 19.5556 15.2222V16.1111C19.5556 16.3555 19.7556 16.5555 20 16.5555ZM20 13H26.2222C26.4667 13 26.6667 12.8 26.6667 12.5555V11.6667C26.6667 11.4222 26.4667 11.2222 26.2222 11.2222H20C19.7556 11.2222 19.5556 11.4222 19.5556 11.6667V12.5555C19.5556 12.8 19.7556 13 20 13ZM20 9.44443H26.2222C26.4667 9.44443 26.6667 9.24443 26.6667 8.99999V8.1111C26.6667 7.86665 26.4667 7.66665 26.2222 7.66665H20C19.7556 7.66665 19.5556 7.86665 19.5556 8.1111V8.99999C19.5556 9.24443 19.7556 9.44443 20 9.44443Z" fill="#0165E1" /></svg>