<svg width="28" height="32" viewBox="0 0 28 32" fill="none" xmlns="http://www.w3.org/2000/svg">
 <path  d= "M27.25 10C27.6625 10 28 9.6625 28 9.25V6.75C28 6.3375 27.6625 6 27.25 6H26V3C26 1.34375 24.6562 0 23 0H3C1.34375 0 0 1.34375 0 3V29C0 30.6562 1.34375 32 3 32H23C24.6562 32 26 30.6562 26 29V26H27.25C27.6625 26 28 25.6625 28 25.25V22.75C28 22.3375 27.6625 22 27.25 22H26V18H27.25C27.6625 18 28 17.6625 28 17.25V14.75C28 14.3375 27.6625 14 27.25 14H26V10H27.25ZM23 29H3V3H23V29ZM13 16C15.2063 16 17 14.2063 17 12C17 9.79375 15.2063 8 13 8C10.7937 8 9 9.79375 9 12C9 14.2063 10.7937 16 13 16ZM7.4 24H18.6C19.375 24 20 23.4625 20 22.8V21.6C20 19.6125 18.1187 18 15.8 18C15.125 18 14.6313 18.5 13 18.5C11.3188 18.5 10.9125 18 10.2 18C7.88125 18 6 19.6125 6 21.6V22.8C6 23.4625 6.625 24 7.4 24Z" fill="#0165E1" /></svg>