<svg width="32" height="32" viewBox="0 0 32 32" fill="none" xmlns="http://www.w3.org/2000/svg">
 <path  d= "M16 0C7.16129 0 0 7.16129 0 16C0 24.8387 7.16129 32 16 32C24.8387 32 32 24.8387 32 16C32 7.16129 24.8387 0 16 0ZM16 28.9032C8.88387 28.9032 3.09677 23.1161 3.09677 16C3.09677 8.88387 8.88387 3.09677 16 3.09677C23.1161 3.09677 28.9032 8.88387 28.9032 16C28.9032 23.1161 23.1161 28.9032 16 28.9032ZM16 19.6129C13.8323 19.6129 11.7935 20.5677 10.4 22.2323C9.85161 22.8903 9.94194 23.8645 10.6 24.4129C11.2581 24.9613 12.2323 24.8774 12.7806 24.2194C14.3806 22.3032 17.6194 22.3032 19.2194 24.2194C19.7419 24.8452 20.7161 24.9871 21.4 24.4129C22.0581 23.8645 22.1419 22.8903 21.6 22.2323C20.2065 20.5677 18.1677 19.6129 16 19.6129ZM12.9032 14.9677C13.5677 14.9677 14.1871 14.5355 14.3871 13.8645C14.6323 13.0452 14.1677 12.1806 13.3484 11.9355L8.1871 10.3871C7.36129 10.1355 6.50323 10.6065 6.25806 11.4258C6.0129 12.2452 6.47742 13.1097 7.29677 13.3548L9.11613 13.9032C8.91613 14.2194 8.77419 14.5742 8.77419 14.9742C8.77419 16.1161 9.69677 17.0387 10.8387 17.0387C11.9806 17.0387 12.9032 16.1097 12.9032 14.9677ZM25.7419 11.4258C25.4968 10.6065 24.6387 10.1419 23.8129 10.3871L18.6516 11.9355C17.8323 12.1806 17.3677 13.0452 17.6129 13.8645C17.8129 14.5355 18.4323 14.9677 19.0968 14.9677C19.0968 16.1097 20.0194 17.0323 21.1613 17.0323C22.3032 17.0323 23.2258 16.1097 23.2258 14.9677C23.2258 14.5677 23.0839 14.2129 22.8839 13.8968L24.7032 13.3484C25.5226 13.1097 25.9871 12.2452 25.7419 11.4258Z" fill="#0165E1" /></svg>