<svg width="32" height="32" viewBox="0 0 32 32" fill="none" xmlns="http://www.w3.org/2000/svg">
 <path  d= "M16 32C24.8387 32 32 24.8387 32 16C32 7.16129 24.8387 0 16 0C7.16129 0 0 7.16129 0 16C0 24.8387 7.16129 32 16 32ZM16 3.09677C23.129 3.09677 28.9032 8.87097 28.9032 16C28.9032 23.129 23.129 28.9032 16 28.9032C8.87097 28.9032 3.09677 23.129 3.09677 16C3.09677 8.87097 8.87097 3.09677 16 3.09677ZM17.2903 24.2581H14.7097C14.2839 24.2581 13.9355 23.9097 13.9355 23.4839V16H9.6129C8.92258 16 8.58065 15.1677 9.06452 14.6774L15.4516 8.29032C15.7548 7.9871 16.2452 7.9871 16.5484 8.29032L22.9355 14.6774C23.4258 15.1677 23.0774 16 22.3871 16H18.0645V23.4839C18.0645 23.9097 17.7161 24.2581 17.2903 24.2581Z" fill="#0165E1" /></svg>