<svg width="32" height="32" viewBox="0 0 32 32" fill="none" xmlns="http://www.w3.org/2000/svg">
 <path  d= "M32 16C32 7.16129 24.8387 0 16 0C7.16129 0 0 7.16129 0 16C0 24.8387 7.16129 32 16 32C24.8387 32 32 24.8387 32 16ZM3.09677 16C3.09677 8.87097 8.87097 3.09677 16 3.09677C23.129 3.09677 28.9032 8.87097 28.9032 16C28.9032 23.129 23.129 28.9032 16 28.9032C8.87097 28.9032 3.09677 23.129 3.09677 16ZM7.74194 17.2903V14.7097C7.74194 14.2839 8.09032 13.9355 8.51613 13.9355H16V9.6129C16 8.92258 16.8323 8.58065 17.3226 9.06452L23.7097 15.4516C24.0129 15.7548 24.0129 16.2452 23.7097 16.5484L17.3226 22.9355C16.8323 23.4258 16 23.0774 16 22.3871V18.0645H8.51613C8.09032 18.0645 7.74194 17.7161 7.74194 17.2903Z" fill="#0165E1" /></svg>