<svg width="32" height="32" viewBox="0 0 32 32" fill="none" xmlns="http://www.w3.org/2000/svg">
 <path  d= "M16 0C7.16129 0 0 7.16129 0 16C0 24.8387 7.16129 32 16 32C24.8387 32 32 24.8387 32 16C32 7.16129 24.8387 0 16 0ZM16 28.9032C8.87097 28.9032 3.09677 23.129 3.09677 16C3.09677 8.87097 8.87097 3.09677 16 3.09677C23.129 3.09677 28.9032 8.87097 28.9032 16C28.9032 23.129 23.129 28.9032 16 28.9032ZM13.9355 8.51613V16H9.6129C8.92258 16 8.58065 16.8323 9.06452 17.3226L15.4516 23.7097C15.7548 24.0129 16.2452 24.0129 16.5484 23.7097L22.9355 17.3226C23.4258 16.8323 23.0774 16 22.3871 16H18.0645V8.51613C18.0645 8.09032 17.7161 7.74194 17.2903 7.74194H14.7097C14.2839 7.74194 13.9355 8.09032 13.9355 8.51613Z" fill="#0165E1" /></svg>