<svg width="32" height="32" viewBox="0 0 32 32" fill="none" xmlns="http://www.w3.org/2000/svg">
 <path  d= "M0 16C0 24.8387 7.16129 32 16 32C24.8387 32 32 24.8387 32 16C32 7.16129 24.8387 0 16 0C7.16129 0 0 7.16129 0 16ZM28.9032 16C28.9032 23.129 23.129 28.9032 16 28.9032C8.87097 28.9032 3.09677 23.129 3.09677 16C3.09677 8.87097 8.87097 3.09677 16 3.09677C23.129 3.09677 28.9032 8.87097 28.9032 16ZM24.2581 14.7097V17.2903C24.2581 17.7161 23.9097 18.0645 23.4839 18.0645H16V22.3871C16 23.0774 15.1677 23.4194 14.6774 22.9355L8.29032 16.5484C7.9871 16.2452 7.9871 15.7548 8.29032 15.4516L14.6774 9.06452C15.1677 8.57419 16 8.92258 16 9.6129V13.9355H23.4839C23.9097 13.9355 24.2581 14.2839 24.2581 14.7097Z" fill="#0165E1" /></svg>