<svg width="28" height="32" viewBox="0 0 28 32" fill="none" xmlns="http://www.w3.org/2000/svg">
 <path  d= "M26.5877 20.6837C25.5259 19.6346 24.4286 18.5498 24.4286 13.4285C24.4286 8.23938 20.6187 3.92388 15.6494 3.13088C15.8783 2.79822 16.0006 2.4038 16 2C16 0.895437 15.1046 0 14 0C12.8955 0 12 0.895437 12 2C11.9994 2.40381 12.1217 2.79824 12.3506 3.13094C7.38133 3.92394 3.57145 8.23944 3.57145 13.4286C3.57145 18.5494 2.47451 19.6343 1.41251 20.6834C-1.59349 23.6526 0.607888 28 4.18245 28H10C10 30.2091 11.7909 32 14 32C16.2091 32 18 30.2091 18 28H23.8175C27.3919 28 29.5935 23.6511 26.5877 20.6837ZM14 29.5C13.1729 29.5 12.5 28.8271 12.5 28H15.5C15.5 28.8271 14.8271 29.5 14 29.5ZM23.8183 25H4.18126C3.13364 25 2.61033 23.7256 3.34789 22.9881C5.13445 21.2015 6.57145 19.5053 6.57145 13.4286C6.57145 9.33244 9.90389 6 14 6C18.0961 6 21.4286 9.33244 21.4286 13.4286C21.4286 19.5317 22.8799 21.2144 24.6516 22.9881C25.3924 23.7288 24.8615 25 23.8183 25Z" fill="#0165E1" /></svg>