<svg width="32" height="30" viewBox="0 0 32 30" fill="none" xmlns="http://www.w3.org/2000/svg">
 <path  d= "M7.27221 23C6.34099 23 5.87582 21.8672 6.53143 21.2116C7.93288 19.8102 9.09221 18.4706 9.34527 14.4627L6.74654 12.1697C6.73578 12.351 6.73029 12.5326 6.7301 12.7143C6.7301 17.2661 5.75504 18.2305 4.81104 19.1631C2.1391 21.8023 4.09587 25.6667 7.27326 25.6667H12.4444C12.4444 27.6303 14.0363 29.2222 16 29.2222C17.9637 29.2222 19.5556 27.6303 19.5556 25.6667H22.0432L19.0209 23H7.27221ZM16 27C15.2648 27 14.6667 26.4019 14.6667 25.6667H17.3333C17.3333 26.4019 16.7352 27 16 27ZM31.7704 27.0307L27.9964 23.7212C28.7244 22.3813 28.6367 20.5924 27.1891 19.1633C26.2453 18.2308 25.2699 17.2665 25.2699 12.7143C25.2699 8.10172 21.8833 4.26572 17.4662 3.56083C17.6696 3.2651 17.7783 2.91449 17.7778 2.55555C17.7778 1.57372 16.9818 0.777771 16 0.777771C15.0182 0.777771 14.2222 1.57372 14.2222 2.55555C14.2217 2.91449 14.3304 3.2651 14.5338 3.56083C12.2299 3.9285 10.2065 5.14811 8.79777 6.88533L2.02548 0.946493C1.74448 0.700049 1.31565 0.726715 1.06771 1.00599L0.16976 2.01738C-0.0781842 2.29666 -0.0514064 2.72288 0.229649 2.96927L29.9746 29.0535C30.2556 29.3 30.6844 29.2733 30.9323 28.994L31.8303 27.9826C32.0782 27.7033 32.0514 27.2771 31.7704 27.0307ZM16 6.11111C19.641 6.11111 22.6032 9.07328 22.6032 12.7143C22.6032 18.1393 23.8932 19.6351 25.4681 21.2116C25.6296 21.3732 25.7221 21.5632 25.7574 21.7578L10.8045 8.64511C12.0143 7.10372 13.893 6.11111 16 6.11111Z" fill="#0165E1" /></svg>