<svg width="28" height="32" viewBox="0 0 28 32" fill="none" xmlns="http://www.w3.org/2000/svg">
 <path  d= "M7.75 20.5C7.3375 20.5 7 20.1625 7 19.75V18.25C7 17.8375 7.3375 17.5 7.75 17.5H20.25C20.6625 17.5 21 17.8375 21 18.25V19.75C21 20.1625 20.6625 20.5 20.25 20.5H7.75ZM28 7V29C28 30.6562 26.6562 32 25 32H3C1.34375 32 0 30.6562 0 29V7C0 5.34375 1.34375 4 3 4H6V0.75C6 0.3375 6.3375 0 6.75 0H9.25C9.6625 0 10 0.3375 10 0.75V4H18V0.75C18 0.3375 18.3375 0 18.75 0H21.25C21.6625 0 22 0.3375 22 0.75V4H25C26.6562 4 28 5.34375 28 7ZM25 28.625V10H3V28.625C3 28.8312 3.16875 29 3.375 29H24.625C24.8312 29 25 28.8312 25 28.625Z" fill="#0165E1" /></svg>