<svg width="28" height="32" viewBox="0 0 28 32" fill="none" xmlns="http://www.w3.org/2000/svg">
 <path  d= "M25 4H22V0.75C22 0.335813 21.6642 0 21.25 0H18.75C18.3358 0 18 0.335813 18 0.75V4H10V0.75C10 0.335813 9.66419 0 9.25 0H6.75C6.33581 0 6 0.335813 6 0.75V4H3C1.34312 4 0 5.34312 0 7V29C0 30.6569 1.34312 32 3 32H25C26.6569 32 28 30.6569 28 29V7C28 5.34312 26.6569 4 25 4ZM24.625 29H3.375C3.27554 29 3.18016 28.9605 3.10983 28.8902C3.03951 28.8198 3 28.7245 3 28.625V10H25V28.625C25 28.7245 24.9605 28.8198 24.8902 28.8902C24.8198 28.9605 24.7245 29 24.625 29ZM21.3219 16.4594L12.4276 25.2824C12.1336 25.5741 11.6587 25.5722 11.3669 25.2782L6.67375 20.547C6.38206 20.2529 6.38394 19.7781 6.678 19.4863L8.09794 18.0778C8.392 17.7861 8.86687 17.788 9.15856 18.0821L11.9151 20.8609L18.8571 13.9746C19.1511 13.6829 19.626 13.6848 19.9177 13.9789L21.3263 15.3988C21.6179 15.6928 21.616 16.1677 21.3219 16.4594Z" fill="#0165E1" /></svg>