<svg width="32" height="32" viewBox="0 0 32 32" fill="none" xmlns="http://www.w3.org/2000/svg">
 <path  d= "M23.0643 19.4286H8.93571C8.17143 19.4286 7.78571 18.5 8.32857 17.9643L15.3929 10.9429C15.7286 10.6071 16.2643 10.6071 16.6 10.9429L23.6643 17.9643C24.2143 18.5 23.8286 19.4286 23.0643 19.4286ZM32 3.42857V28.5714C32 30.4643 30.4643 32 28.5714 32H3.42857C1.53571 32 0 30.4643 0 28.5714V3.42857C0 1.53571 1.53571 0 3.42857 0H28.5714C30.4643 0 32 1.53571 32 3.42857ZM28.5714 28.1429V3.85714C28.5714 3.62143 28.3786 3.42857 28.1429 3.42857H3.85714C3.62143 3.42857 3.42857 3.62143 3.42857 3.85714V28.1429C3.42857 28.3786 3.62143 28.5714 3.85714 28.5714H28.1429C28.3786 28.5714 28.5714 28.3786 28.5714 28.1429Z" fill="#0165E1" /></svg>