<svg width="32" height="32" viewBox="0 0 32 32" fill="none" xmlns="http://www.w3.org/2000/svg">
 <path  d= "M19.4286 8.93571V23.0643C19.4286 23.8286 18.5 24.2143 17.9643 23.6714L10.9429 16.6071C10.6071 16.2714 10.6071 15.7357 10.9429 15.4L17.9643 8.33571C18.5 7.78571 19.4286 8.17143 19.4286 8.93571ZM32 3.42857V28.5714C32 30.4643 30.4643 32 28.5714 32H3.42857C1.53571 32 0 30.4643 0 28.5714V3.42857C0 1.53571 1.53571 0 3.42857 0H28.5714C30.4643 0 32 1.53571 32 3.42857ZM28.5714 28.1429V3.85714C28.5714 3.62143 28.3786 3.42857 28.1429 3.42857H3.85714C3.62143 3.42857 3.42857 3.62143 3.42857 3.85714V28.1429C3.42857 28.3786 3.62143 28.5714 3.85714 28.5714H28.1429C28.3786 28.5714 28.5714 28.3786 28.5714 28.1429Z" fill="#0165E1" /></svg>