<svg width="32" height="24" viewBox="0 0 32 24" fill="none" xmlns="http://www.w3.org/2000/svg">
 <path  d= "M31.25 21C31.6625 21 32 21.3375 32 21.75V23.25C32 23.6625 31.6625 24 31.25 24H0.75C0.3375 24 0 23.6625 0 23.25V0.75C0 0.3375 0.3375 0 0.75 0H2.25C2.6625 0 3 0.3375 3 0.75V21H31.25ZM9 17.25V12.75C9 12.3375 8.6625 12 8.25 12H6.75C6.3375 12 6 12.3375 6 12.75V17.25C6 17.6625 6.3375 18 6.75 18H8.25C8.6625 18 9 17.6625 9 17.25ZM15 17.25V4.75C15 4.3375 14.6625 4 14.25 4H12.75C12.3375 4 12 4.3375 12 4.75V17.25C12 17.6625 12.3375 18 12.75 18H14.25C14.6625 18 15 17.6625 15 17.25ZM21 17.25V8.75C21 8.3375 20.6625 8 20.25 8H18.75C18.3375 8 18 8.3375 18 8.75V17.25C18 17.6625 18.3375 18 18.75 18H20.25C20.6625 18 21 17.6625 21 17.25ZM27 17.25V2.75C27 2.3375 26.6625 2 26.25 2H24.75C24.3375 2 24 2.3375 24 2.75V17.25C24 17.6625 24.3375 18 24.75 18H26.25C26.6625 18 27 17.6625 27 17.25Z" fill="#0165E1" /></svg>