<svg width="32" height="32" viewBox="0 0 32 32" fill="none" xmlns="http://www.w3.org/2000/svg">
 <path  d= "M28.5714 0H3.42857C1.535 0 0 1.535 0 3.42857V28.5714C0 30.465 1.535 32 3.42857 32H28.5714C30.465 32 32 30.465 32 28.5714V3.42857C32 1.535 30.465 0 28.5714 0ZM28.5714 28.5714H3.42857V3.42857H28.5714V28.5714ZM26.0097 11.3054L13.6819 23.5343C13.3459 23.8676 12.8031 23.8655 12.4698 23.5294L5.98543 16.9926C5.65207 16.6565 5.65421 16.1138 5.99036 15.7804L7.61314 14.1706C7.94921 13.8373 8.49193 13.8394 8.82529 14.1756L13.0961 18.4811L23.1927 8.46564C23.5288 8.13229 24.0715 8.13443 24.4049 8.4705L26.0146 10.0932C26.3479 10.4294 26.3458 10.9721 26.0097 11.3054Z" fill="#0165E1" /></svg>