<svg width="24" height="32" viewBox="0 0 24 32" fill="none" xmlns="http://www.w3.org/2000/svg">
 <path  d= "M21 4H16C16 1.79437 14.2056 0 12 0C9.79437 0 8 1.79437 8 4H3C1.34312 4 0 5.34312 0 7V29C0 30.6569 1.34312 32 3 32H21C22.6569 32 24 30.6569 24 29V7C24 5.34312 22.6569 4 21 4ZM20.625 29H3.375C3.27554 29 3.18016 28.9605 3.10983 28.8902C3.03951 28.8198 3 28.7245 3 28.625V7.375C3 7.27554 3.03951 7.18016 3.10983 7.10984C3.18016 7.03951 3.27554 7 3.375 7H6V9.25C6 9.66419 6.33581 10 6.75 10H17.25C17.6642 10 18 9.66419 18 9.25V7H20.625C20.7245 7 20.8198 7.03951 20.8902 7.10984C20.9605 7.18016 21 7.27554 21 7.375V28.625C21 28.7245 20.9605 28.8198 20.8902 28.8902C20.8198 28.9605 20.7245 29 20.625 29ZM12 2.5C12.8284 2.5 13.5 3.17156 13.5 4C13.5 4.82844 12.8284 5.5 12 5.5C11.1716 5.5 10.5 4.82844 10.5 4C10.5 3.17156 11.1716 2.5 12 2.5Z" fill="#0165E1" /></svg>