<svg width="32" height="32" viewBox="0 0 32 32" fill="none" xmlns="http://www.w3.org/2000/svg">
 <path  d= "M16 0C7.16129 0 0 7.16129 0 16C0 24.8387 7.16129 32 16 32C24.8387 32 32 24.8387 32 16C32 7.16129 24.8387 0 16 0ZM16 28.9032C8.87097 28.9032 3.09677 23.129 3.09677 16C3.09677 8.87097 8.87097 3.09677 16 3.09677C23.129 3.09677 28.9032 8.87097 28.9032 16C28.9032 23.129 23.129 28.9032 16 28.9032ZM19.9871 22.1677L14.5097 18.1871C14.3097 18.0387 14.1935 17.8065 14.1935 17.5613V6.96774C14.1935 6.54194 14.5419 6.19355 14.9677 6.19355H17.0323C17.4581 6.19355 17.8065 6.54194 17.8065 6.96774V16.1097L22.1161 19.2452C22.4645 19.4968 22.5355 19.9806 22.2839 20.329L21.071 22C20.8194 22.3419 20.3355 22.4194 19.9871 22.1677Z" fill="#0165E1" /></svg>