<svg width="32" height="32" viewBox="0 0 32 32" fill="none" xmlns="http://www.w3.org/2000/svg">
 <path  d= "M29 0H9C7.34312 0 6 1.34312 6 3V6H3C1.34312 6 0 7.34312 0 9V29C0 30.6569 1.34312 32 3 32H23C24.6569 32 26 30.6569 26 29V26H29C30.6569 26 32 24.6569 32 23V3C32 1.34312 30.6569 0 29 0ZM22.625 29H3.375C3.27554 29 3.18016 28.9605 3.10983 28.8902C3.03951 28.8198 3 28.7245 3 28.625V9.375C3 9.27554 3.03951 9.18016 3.10983 9.10983C3.18016 9.03951 3.27554 9 3.375 9H6V23C6 24.6569 7.34312 26 9 26H23V28.625C23 28.7245 22.9605 28.8198 22.8902 28.8902C22.8198 28.9605 22.7245 29 22.625 29ZM28.625 23H9.375C9.27554 23 9.18016 22.9605 9.10983 22.8902C9.03951 22.8198 9 22.7245 9 22.625V3.375C9 3.27554 9.03951 3.18016 9.10983 3.10983C9.18016 3.03951 9.27554 3 9.375 3H28.625C28.7245 3 28.8198 3.03951 28.8902 3.10983C28.9605 3.18016 29 3.27554 29 3.375V22.625C29 22.7245 28.9605 22.8198 28.8902 22.8902C28.8198 22.9605 28.7245 23 28.625 23Z" fill="#0165E1" /></svg>