<svg width="32" height="24" viewBox="0 0 32 24" fill="none" xmlns="http://www.w3.org/2000/svg">
 <path  d= "M29 0H3C1.34375 0 0 1.34375 0 3V21C0 22.6562 1.34375 24 3 24H29C30.6562 24 32 22.6562 32 21V3C32 1.34375 30.6562 0 29 0ZM28.625 21H3.375C3.16875 21 3 20.8312 3 20.625V3.375C3 3.16875 3.16875 3 3.375 3H28.625C28.8312 3 29 3.16875 29 3.375V20.625C29 20.8312 28.8312 21 28.625 21ZM15.4312 15.6437C15.5375 15.7937 15.525 15.9937 15.4 16.125C12.05 19.675 4.6 18.1313 4.6 11.8813C4.6 5.8 12.2063 4.4125 15.3813 7.5C15.5125 7.625 15.5375 7.7 15.4438 7.85625L14.35 9.7625C14.2313 9.95625 13.9625 10.0125 13.7812 9.86875C11.2312 7.86875 7.86875 8.9375 7.86875 11.8188C7.86875 14.8188 11.0563 16.225 13.6313 13.8563C13.8063 13.7 14.075 13.725 14.2063 13.9125L15.4312 15.6437ZM27.3312 15.6437C27.4375 15.7937 27.425 15.9937 27.3 16.125C23.95 19.6812 16.5 18.1313 16.5 11.8813C16.5 5.8 24.1063 4.4125 27.2812 7.5C27.4125 7.625 27.4375 7.7 27.3438 7.85625L26.25 9.7625C26.1313 9.95625 25.8625 10.0125 25.6812 9.86875C23.1313 7.86875 19.7687 8.9375 19.7687 11.8188C19.7687 14.8188 22.9562 16.225 25.5312 13.8563C25.7062 13.7 25.975 13.725 26.1063 13.9125L27.3312 15.6437Z" fill="#0165E1" /></svg>