<svg width="32" height="28" viewBox="0 0 32 28" fill="none" xmlns="http://www.w3.org/2000/svg">
 <path  d= "M16.0021 0.00183105C7.16572 0.00183105 0.00414748 5.81983 0.00414748 13.0001C0.00414748 15.9748 1.24774 18.6994 3.30997 20.8929C2.37884 23.3551 0.441591 25.4423 0.410345 25.4673C-0.00210172 25.9047 -0.114587 26.5421 0.122882 27.0921C0.360351 27.642 0.904031 27.9982 1.50395 27.9982C5.34721 27.9982 8.37806 26.3922 10.1966 25.1048C12.0026 25.6735 13.9523 25.9985 16.0021 25.9985C24.8384 25.9985 32 20.1805 32 13.0001C32 5.81983 24.8384 0.00183105 16.0021 0.00183105ZM16.0021 22.9989C14.3335 22.9989 12.6838 22.7426 11.1027 22.2427L9.68414 21.7928L8.46555 22.6551C7.57192 23.2863 6.34708 23.9925 4.87227 24.4674C5.32846 23.7113 5.77215 22.8614 6.11586 21.9552L6.77827 20.1992L5.49094 18.8369C4.35983 17.6308 3.00376 15.6373 3.00376 13.0001C3.00376 7.48836 8.83425 3.00144 16.0021 3.00144C23.1699 3.00144 29.0004 7.48836 29.0004 13.0001C29.0004 18.5119 23.1699 22.9989 16.0021 22.9989Z" fill="#0165E1" /></svg>