<svg width="32" height="26" viewBox="0 0 32 26" fill="none" xmlns="http://www.w3.org/2000/svg">
 <path  d= "M29.5524 20.2324C31.08 18.7271 31.9965 16.8384 31.9965 14.7775C31.9965 10.3336 27.747 6.66183 22.2088 6.00635C20.459 2.80674 16.3484 0.557007 11.5545 0.557007C5.17198 0.557007 0.00037413 4.53431 0.00037413 9.44483C0.00037413 11.5001 0.916931 13.3888 2.44453 14.8997C1.59463 16.6051 0.372552 17.9271 0.350332 17.9494C0.00037414 18.3215 -0.0996139 18.8659 0.105917 19.3381C0.305893 19.8103 0.772504 20.1158 1.28355 20.1158C4.25542 20.1158 6.65513 18.9937 8.23827 17.9605C8.74932 18.0771 9.27704 18.166 9.81586 18.2327C11.5601 21.4212 15.6541 23.6653 20.4424 23.6653C21.5978 23.6653 22.7088 23.532 23.7642 23.2876C25.3473 24.3153 27.7415 25.4429 30.7189 25.4429C31.23 25.4429 31.691 25.1374 31.8965 24.6652C32.0965 24.1931 32.0021 23.6487 31.6521 23.2765C31.6299 23.2598 30.4023 21.9378 29.5524 20.2324ZM7.73278 15.1053L6.78289 15.7219C5.99965 16.2273 5.19975 16.6273 4.38874 16.9106C4.53872 16.6495 4.6887 16.3718 4.83313 16.0885L5.69414 14.3609L4.31652 13C3.56661 12.2556 2.66672 11.0391 2.66672 9.44483C2.66672 6.07301 6.73845 3.22335 11.5545 3.22335C16.3706 3.22335 20.4424 6.07301 20.4424 9.44483C20.4424 12.8166 16.3706 15.6663 11.5545 15.6663C10.638 15.6663 9.72143 15.5608 8.83265 15.3552L7.73278 15.1053ZM27.6804 18.3327L26.3083 19.688L27.1693 21.4156C27.3138 21.6989 27.4637 21.9767 27.6137 22.2377C26.8027 21.9544 26.0028 21.5545 25.2196 21.049L24.2697 20.4324L23.1643 20.6879C22.2755 20.8935 21.3589 20.999 20.4424 20.999C17.4427 20.999 14.7653 19.8825 13.1488 18.2382C18.7759 17.6383 23.1087 13.9387 23.1087 9.44483C23.1087 9.25596 23.0865 9.07265 23.0698 8.88934C26.6472 9.6948 29.3302 12.0445 29.3302 14.7775C29.3302 16.3718 28.4303 17.5883 27.6804 18.3327Z" fill="#0165E1" /></svg>