<svg width="32" height="32" viewBox="0 0 32 32" fill="none" xmlns="http://www.w3.org/2000/svg">
 <path  d= "M16 0C7.16342 0 0 7.16342 0 16C0 24.8366 7.16342 32 16 32C24.8366 32 32 24.8366 32 16C32 7.16342 24.8366 0 16 0ZM16 28.9032C8.8689 28.9032 3.09677 23.1322 3.09677 16C3.09677 8.86897 8.86781 3.09677 16 3.09677C23.1311 3.09677 28.9032 8.86781 28.9032 16C28.9032 23.1311 23.1322 28.9032 16 28.9032ZM21.892 8.76574L19.7398 17.6547C19.6698 17.9437 19.5182 18.2063 19.3029 18.4114L12.681 24.7197C11.5775 25.7709 9.74161 24.7477 10.1081 23.2343L12.2603 14.3454C12.3302 14.0564 12.4819 13.7937 12.6972 13.5886L19.3192 7.28032C20.4344 6.21774 22.2543 7.26903 21.892 8.76574ZM16 13.9355C14.8598 13.9355 13.9355 14.8598 13.9355 16C13.9355 17.1402 14.8598 18.0645 16 18.0645C17.1402 18.0645 18.0645 17.1402 18.0645 16C18.0645 14.8598 17.1402 13.9355 16 13.9355Z" fill="#0165E1" /></svg>