<svg width="28" height="32" viewBox="0 0 28 32" fill="none" xmlns="http://www.w3.org/2000/svg">
 <path  d= "M27.1213 4.12131L23.8787 0.878688C23.3161 0.316077 22.553 4.16048e-06 21.7574 0L11 0C9.34313 0 8 1.34312 8 3V6H3C1.34312 6 0 7.34312 0 9V29C0 30.6569 1.34312 32 3 32H17C18.6569 32 20 30.6569 20 29V26H25C26.6569 26 28 24.6569 28 23V6.24263C28 5.44698 27.6839 4.68392 27.1213 4.12131ZM16.625 29H3.375C3.27554 29 3.18016 28.9605 3.10983 28.8902C3.03951 28.8198 3 28.7245 3 28.625V9.375C3 9.27554 3.03951 9.18016 3.10983 9.10983C3.18016 9.03951 3.27554 9 3.375 9H8V23C8 24.6569 9.34313 26 11 26H17V28.625C17 28.7245 16.9605 28.8198 16.8902 28.8902C16.8198 28.9605 16.7245 29 16.625 29ZM24.625 23H11.375C11.2755 23 11.1802 22.9605 11.1098 22.8902C11.0395 22.8198 11 22.7245 11 22.625V3.375C11 3.27554 11.0395 3.18016 11.1098 3.10983C11.1802 3.03951 11.2755 3 11.375 3H18V8.5C18 9.32844 18.6716 10 19.5 10H25V22.625C25 22.7245 24.9605 22.8198 24.8902 22.8902C24.8198 22.9605 24.7245 23 24.625 23ZM25 7H21V3H21.602C21.7014 3 21.7968 3.0395 21.8672 3.10981L24.8902 6.13281C24.925 6.16764 24.9526 6.20898 24.9715 6.25448C24.9903 6.29999 25 6.34875 25 6.398V7Z" fill="#0165E1" /></svg>