<svg width="32" height="32" viewBox="0 0 32 32" fill="none" xmlns="http://www.w3.org/2000/svg">
 <path  d= "M16 0C7.16342 0 0 7.16342 0 16C0 24.8366 7.16342 32 16 32C24.8366 32 32 24.8366 32 16C32 7.16342 24.8366 0 16 0ZM16 28.9032C8.8689 28.9032 3.09677 23.1322 3.09677 16C3.09677 8.86897 8.86781 3.09677 16 3.09677C23.1311 3.09677 28.9032 8.86781 28.9032 16C28.9032 23.1311 23.1322 28.9032 16 28.9032ZM22.9259 22.383C22.3056 23.0095 19.9885 25.0537 16.212 25.0537C10.8939 25.0537 7.14852 21.0908 7.14852 15.9203C7.14852 10.8137 11.0372 6.92671 16.1654 6.92671C19.7481 6.92671 21.8905 8.64413 22.4617 9.17052C22.596 9.29398 22.6822 9.46098 22.705 9.64192C22.7279 9.82287 22.686 10.0061 22.5866 10.159L21.4154 11.9728C21.1675 12.3566 20.6434 12.4426 20.2864 12.1612C19.7319 11.7241 18.2339 10.7072 16.3052 10.7072C13.1889 10.7072 11.2784 12.9865 11.2784 15.8737C11.2784 18.5569 13.0131 21.2732 16.3285 21.2732C18.4354 21.2732 19.9958 20.0449 20.5689 19.5168C20.9089 19.2034 21.4461 19.2562 21.7186 19.6289L23.0002 21.3818C23.1094 21.53 23.162 21.7125 23.1484 21.8961C23.1347 22.0798 23.0558 22.2525 22.9259 22.383Z" fill="#0165E1" /></svg>