<svg width="32" height="26" viewBox="0 0 32 26" fill="none" xmlns="http://www.w3.org/2000/svg">
 <path  d= "M29.3278 0.555542H2.67222C1.19444 0.555542 0 1.74999 0 3.22221V22.7778C0 24.25 1.19444 25.4444 2.67222 25.4444H29.3278C30.8056 25.4444 32 24.25 32 22.7778V3.22221C32 1.74999 30.8056 0.555542 29.3278 0.555542ZM3.00556 3.22221H28.9944C29.1778 3.22221 29.3278 3.37221 29.3278 3.55554V5.88888H2.67222V3.55554C2.67222 3.37221 2.82222 3.22221 3.00556 3.22221ZM28.9944 22.7778H3.00556C2.82222 22.7778 2.67222 22.6278 2.67222 22.4444V13H29.3278V22.4444C29.3278 22.6278 29.1778 22.7778 28.9944 22.7778ZM10.6667 17.2222V19.4444C10.6667 19.8111 10.3667 20.1111 10 20.1111H6C5.63333 20.1111 5.33333 19.8111 5.33333 19.4444V17.2222C5.33333 16.8555 5.63333 16.5555 6 16.5555H10C10.3667 16.5555 10.6667 16.8555 10.6667 17.2222ZM21.3333 17.2222V19.4444C21.3333 19.8111 21.0333 20.1111 20.6667 20.1111H13.1111C12.7444 20.1111 12.4444 19.8111 12.4444 19.4444V17.2222C12.4444 16.8555 12.7444 16.5555 13.1111 16.5555H20.6667C21.0333 16.5555 21.3333 16.8555 21.3333 17.2222Z" fill="#0165E1" /></svg>