<svg width="32" height="32" viewBox="0 0 32 32" fill="none" xmlns="http://www.w3.org/2000/svg">
 <path  d= "M16 0C7.16129 0 0 7.16129 0 16C0 24.8387 7.16129 32 16 32C24.8387 32 32 24.8387 32 16C32 7.16129 24.8387 0 16 0ZM16 28.9032C8.88387 28.9032 3.09677 23.1161 3.09677 16C3.09677 8.88387 8.88387 3.09677 16 3.09677C23.1161 3.09677 28.9032 8.88387 28.9032 16C28.9032 23.1161 23.1161 28.9032 16 28.9032ZM13.8194 14.8452C14.3226 14.3419 14.3226 13.5226 13.8194 13.0194L12.6645 11.871L13.8194 10.7161C14.3226 10.2129 14.3226 9.39355 13.8194 8.89032C13.3161 8.3871 12.4968 8.3871 11.9935 8.89032L10.8387 10.0452L9.69032 8.89677C9.1871 8.39355 8.36774 8.39355 7.86452 8.89677C7.36129 9.4 7.36129 10.2194 7.86452 10.7226L9.01935 11.8774L7.86452 13.0323C7.36129 13.5355 7.36129 14.3548 7.86452 14.8581C8.36774 15.3613 9.1871 15.3613 9.69032 14.8581L10.8387 13.7097L11.9871 14.8581C12.4968 15.3548 13.3097 15.3548 13.8194 14.8452ZM24.1419 8.89677C23.6387 8.39355 22.8194 8.39355 22.3161 8.89677L21.1613 10.0452L20.0129 8.89677C19.5097 8.39355 18.6903 8.39355 18.1871 8.89677C17.6839 9.4 17.6839 10.2194 18.1871 10.7226L19.3419 11.8774L18.1871 13.0323C17.6839 13.5355 17.6839 14.3548 18.1871 14.8581C18.6903 15.3613 19.5097 15.3613 20.0129 14.8581L21.1613 13.7097L22.3097 14.8581C22.8129 15.3613 23.6323 15.3613 24.1355 14.8581C24.6387 14.3548 24.6387 13.5355 24.1355 13.0323L22.9871 11.871L24.1419 10.7161C24.6387 10.2129 24.6387 9.4 24.1419 8.89677ZM16 17.0323C13.7226 17.0323 11.871 18.8839 11.871 21.1613C11.871 23.4387 13.7226 25.2903 16 25.2903C18.2774 25.2903 20.129 23.4387 20.129 21.1613C20.129 18.8839 18.2774 17.0323 16 17.0323Z" fill="#0165E1" /></svg>