<svg width="32" height="32" viewBox="0 0 32 32" fill="none" xmlns="http://www.w3.org/2000/svg">
 <path  d= "M16 3.09677C23.1311 3.09677 28.9032 8.86781 28.9032 16C28.9032 23.1311 23.1322 28.9032 16 28.9032C8.8689 28.9032 3.09677 23.1322 3.09677 16C3.09677 8.8689 8.86781 3.09677 16 3.09677ZM16 0C7.16342 0 0 7.16342 0 16C0 24.8366 7.16342 32 16 32C24.8366 32 32 24.8366 32 16C32 7.16342 24.8366 0 16 0ZM16 10.8387C13.1495 10.8387 10.8387 13.1495 10.8387 16C10.8387 18.8505 13.1495 21.1613 16 21.1613C18.8505 21.1613 21.1613 18.8505 21.1613 16C21.1613 13.1495 18.8505 10.8387 16 10.8387Z" fill="#0165E1" /></svg>