<svg width="32" height="30" viewBox="0 0 32 30" fill="none" xmlns="http://www.w3.org/2000/svg">
 <path  d= "M22.3505 19.9411L24.1283 18.1633C24.4061 17.8855 24.8894 18.0799 24.8894 18.4799V26.5579C24.8894 28.0301 23.695 29.2246 22.2227 29.2246H2.66672C1.19447 29.2246 0 28.0301 0 26.5579V7.00191C0 5.52966 1.19447 4.33519 2.66672 4.33519H17.8615C18.256 4.33519 18.456 4.81298 18.1782 5.09632L16.4004 6.87413C16.317 6.95747 16.2059 7.00191 16.0837 7.00191H2.66672V26.5579H22.2227V20.2522C22.2227 20.1355 22.2671 20.0244 22.3505 19.9411ZM31.0507 8.72973L16.4615 23.3189L11.4391 23.8745C9.98355 24.0356 8.74463 22.8078 8.90575 21.3411L9.46132 16.3188L24.0505 1.72958C25.3228 0.457328 27.3784 0.457328 28.6451 1.72958L31.0451 4.12963C32.3174 5.40188 32.3174 7.46304 31.0507 8.72973ZM25.5617 10.4464L22.3338 7.21859L12.0114 17.5466L11.6058 21.1744L15.2337 20.7689L25.5617 10.4464ZM29.1617 6.01856L26.7617 3.61851C26.5339 3.39072 26.1617 3.39072 25.9394 3.61851L24.2227 5.33521L27.4506 8.56306L29.1673 6.84635C29.3895 6.61302 29.3895 6.24634 29.1617 6.01856Z" fill="#0165E1" /></svg>