<svg width="32" height="32" viewBox="0 0 32 32" fill="none" xmlns="http://www.w3.org/2000/svg">
 <path  d= "M30.9116 10.2823C30.6181 10.0396 23.9289 4.66038 22.4584 3.49119C21.0769 2.38694 18.7148 0 16 0C13.2997 0 10.9602 2.35731 9.54156 3.49119C8.01262 4.70681 1.34969 10.0659 1.09469 10.2755C0.752414 10.5569 0.476735 10.9107 0.287459 11.3114C0.0981839 11.7121 1.25687e-05 12.1497 0 12.5928L0 29C0 30.6569 1.34312 32 3 32H29C30.6569 32 32 30.6569 32 29V12.5943C32 12.1526 31.9024 11.7163 31.7143 11.3166C31.5262 10.9169 31.2521 10.5637 30.9116 10.2823ZM29 28.625C29 28.7245 28.9605 28.8198 28.8902 28.8902C28.8198 28.9605 28.7245 29 28.625 29H3.375C3.27554 29 3.18016 28.9605 3.10983 28.8902C3.03951 28.8198 3 28.7245 3 28.625V12.7717C3 12.6584 3.051 12.5513 3.13913 12.4801C4.131 11.6793 9.93869 7.008 11.4119 5.83681C12.5472 4.93 14.5249 3 16 3C17.4808 3 19.4911 4.96056 20.5881 5.83681C22.0614 7.00812 27.8696 11.6801 28.861 12.4816C28.9044 12.5167 28.9395 12.5611 28.9635 12.6115C28.9876 12.662 29 12.7171 29 12.773V28.625ZM27.0006 16.8935C27.2661 17.2159 27.2171 17.6932 26.8915 17.9548C25.0806 19.41 23.1869 20.9296 22.4584 21.5088C21.0397 22.6427 18.7003 25 16 25C13.2843 25 10.9196 22.6102 9.54156 21.5088C8.83662 20.9483 6.93256 19.4204 5.10862 17.9547C4.783 17.693 4.73406 17.2158 4.99956 16.8934L5.95319 15.7354C6.21431 15.4183 6.68175 15.3702 7.00187 15.6275C8.7905 17.0651 10.6622 18.5672 11.4119 19.1632C12.5089 20.0394 14.5192 22 16 22C17.4751 22 19.4529 20.07 20.5881 19.1632C21.3377 18.5672 23.2096 17.0651 24.9983 15.6277C25.3184 15.3704 25.7859 15.4186 26.0469 15.7356L27.0006 16.8935Z" fill="#0165E1" /></svg>