<svg width="32" height="30" viewBox="0 0 32 30" fill="none" xmlns="http://www.w3.org/2000/svg">
 <path  d= "M15.1501 20.7299C10.6789 20.2293 7.5828 15.9029 8.65402 11.4498L15.1501 20.7299ZM16 22.5555C10.3025 22.5555 5.32825 19.5166 2.66669 14.9999C3.8753 12.949 5.56114 11.2032 7.57469 9.90784L6.04464 7.72212C3.7223 9.23517 1.77341 11.2633 0.369248 13.6461C0.127498 14.0563 0 14.5238 0 15C0 15.4761 0.127498 15.9436 0.369248 16.3538C3.50025 21.6669 9.34114 25.2222 16 25.2222C16.7362 25.2222 17.4717 25.1783 18.2027 25.0907L16.4237 22.5493C16.2825 22.5533 16.1413 22.5553 16 22.5555ZM31.6308 16.3538C29.7846 19.4868 26.9963 22.0061 23.6556 23.5478L26.3287 27.3667C26.5399 27.6683 26.4665 28.084 26.1649 28.2951L25.0128 29.1016C24.7112 29.3128 24.2955 29.2394 24.0844 28.9378L5.67136 2.63323C5.46019 2.33162 5.53358 1.9159 5.83519 1.70479L6.98725 0.898288C7.28886 0.687121 7.70458 0.76051 7.91569 1.06212L11.0005 5.46906C12.5896 5.01901 14.2671 4.77773 16 4.77773C22.6589 4.77773 28.4998 8.33295 31.6308 13.6461C31.8725 14.0563 32 14.5238 32 14.9999C32 15.4761 31.8725 15.9436 31.6308 16.3538ZM29.3334 14.9999C26.8802 10.837 22.4624 7.9294 17.3244 7.49956C16.7801 8.05984 16.4445 8.82384 16.4445 9.66662C16.4445 11.3848 17.8374 12.7777 19.5556 12.7777C21.2738 12.7777 22.6667 11.3848 22.6667 9.66662L22.6666 9.66428C24.3684 12.8463 23.5966 16.9009 20.6151 19.2042L22.0981 21.3228C25.1459 20.0306 27.6838 17.7992 29.3334 14.9999Z" fill="#0165E1" /></svg>