<svg width="32" height="22" viewBox="0 0 32 22" fill="none" xmlns="http://www.w3.org/2000/svg">
 <path  d= "M31.6308 9.64621C28.4983 4.33055 22.6561 0.777832 16 0.777832C9.34112 0.777832 3.50024 4.33305 0.369248 9.64621C0.127498 10.0564 0 10.5239 0 11.0001C0 11.4762 0.127498 11.9437 0.369248 12.3539C3.50174 17.6695 9.3439 21.2222 16 21.2222C22.6589 21.2222 28.4998 17.667 31.6308 12.3539C31.8725 11.9437 32 11.4762 32 11C32 10.5239 31.8725 10.0564 31.6308 9.64621ZM16 18.5556C10.3025 18.5556 5.3283 15.5166 2.66669 11C5.11985 6.8371 9.53762 3.92949 14.6757 3.49966C15.2199 4.05994 15.5556 4.82394 15.5556 5.66671C15.5556 7.38493 14.1627 8.77782 12.4444 8.77782C10.7262 8.77782 9.33334 7.38493 9.33334 5.66671L9.3334 5.66438C8.76635 6.72466 8.44446 7.93582 8.44446 9.22226C8.44446 13.3951 11.8272 16.7778 16 16.7778C20.1728 16.7778 23.5555 13.3951 23.5555 9.22226C23.5555 7.49832 22.9778 5.90955 22.0058 4.6381C25.0947 5.92438 27.6671 8.1726 29.3333 11C26.6718 15.5166 21.6975 18.5556 16 18.5556Z" fill="#0165E1" /></svg>