<svg width="24" height="32" viewBox="0 0 24 32" fill="none" xmlns="http://www.w3.org/2000/svg">
 <path  d= "M23.1213 6.12131L17.8787 0.878688C17.3161 0.316077 16.553 4.16048e-06 15.7574 0H3C1.34312 0 0 1.34312 0 3V29C0 30.6569 1.34312 32 3 32H21C22.6569 32 24 30.6569 24 29V8.24263C24 7.44698 23.6839 6.68392 23.1213 6.12131ZM16 3.24262L20.7574 8H16V3.24262ZM21 29H3V3H7.98212V4H9.98213V3H13V9.5C13 10.3284 13.6716 11 14.5 11H21V29ZM12.0169 6H10.0169V4H12.0169V6ZM10.0169 6V8H8.01688V6H10.0169ZM10.0169 10V12H8.01688V10H10.0169ZM12.0169 10H10.0169V8H12.0169V10ZM12.1362 16.6049C12.1026 16.4344 12.0108 16.281 11.8766 16.1706C11.7424 16.0603 11.5741 16 11.4004 16H10.0169V14H8.01688V16L6.78625 22.0691C6.37431 24.1007 7.92712 26 10 26C12.0658 26 13.6169 24.113 13.2172 22.0863L12.1362 16.6049ZM10.0169 24.3796C8.897 24.3796 7.98912 23.623 7.98912 22.6898C7.98912 21.7566 8.89694 21.0001 10.0169 21.0001C11.1368 21.0001 12.0446 21.7566 12.0446 22.6898C12.0446 23.623 11.1368 24.3796 10.0169 24.3796ZM12.0169 14H10.0169V12H12.0169V14Z" fill="#0165E1" /></svg>