<svg width="24" height="32" viewBox="0 0 24 32" fill="none" xmlns="http://www.w3.org/2000/svg">
 <path  d= "M23.1167 6.1238L17.874 0.881078C17.3116 0.318688 16.5492 0 15.7556 0H3.00186C1.34593 0.00624878 0.00244141 1.34974 0.00244141 3.00566V29.0006C0.00244141 30.6565 1.34593 32 3.00186 32H20.9983C22.6543 32 23.9978 30.6565 23.9978 29.0006V8.24839C23.9978 7.45479 23.6791 6.68619 23.1167 6.1238ZM20.7546 8.00469H15.9993V3.24937L20.7546 8.00469ZM3.00186 29.0006V3.00566H12.9999V9.50439C12.9999 10.3355 13.6685 11.0041 14.4996 11.0041H20.9983V29.0006H3.00186ZM7.50098 25.2513V14.7534C7.50098 14.341 7.83841 14.0035 8.25083 14.0035H12.575C14.8683 14.0035 16.4992 15.6907 16.4992 18.1465C16.4992 22.7893 12.2063 22.3019 10.5316 22.3019V25.2513C10.5316 25.6637 10.1942 26.0012 9.78178 26.0012H8.25083C7.83841 26.0012 7.50098 25.6637 7.50098 25.2513ZM10.5316 19.7899H11.9689C12.4625 19.7899 12.8374 19.6399 13.0999 19.34C13.631 18.7276 13.6248 17.5591 13.1061 16.9779C12.8499 16.6905 12.4875 16.5405 12.0188 16.5405H10.5254V19.7899H10.5316Z" fill="#0165E1" /></svg>