<svg width="24" height="32" viewBox="0 0 24 32" fill="none" xmlns="http://www.w3.org/2000/svg">
 <path  d= "M23.1213 6.12131L17.8787 0.878688C17.3161 0.316077 16.553 4.16048e-06 15.7574 0H3C1.34312 0 0 1.34312 0 3V29C0 30.6569 1.34312 32 3 32H21C22.6569 32 24 30.6569 24 29V8.24263C24 7.44698 23.6839 6.68392 23.1213 6.12131ZM20.7574 8H16V3.24262L20.7574 8ZM3 29V3H13V9.5C13 10.3284 13.6716 11 14.5 11H21V29H3ZM12 24.2485C12 24.9167 11.1921 25.2513 10.7197 24.7788L8.5 22.5304H6.75C6.33581 22.5304 6 22.1946 6 21.7804V18.2804C6 17.8662 6.33581 17.5304 6.75 17.5304H8.5L10.7197 15.2212C11.1922 14.7487 12 15.0833 12 15.7515V24.2485ZM14.5751 21.3029C15.1407 20.7218 15.1413 19.7946 14.5751 19.2129C13.1908 17.7909 15.3398 15.6976 16.7248 17.1204C18.4247 18.8666 18.4256 21.6481 16.7249 23.3954C15.3628 24.7946 13.1657 22.7508 14.5751 21.3029Z" fill="#0165E1" /></svg>