<svg width="24" height="32" viewBox="0 0 24 32" fill="none" xmlns="http://www.w3.org/2000/svg">
 <path  d= "M23.1167 6.1238L17.874 0.881078C17.3116 0.318688 16.5492 0 15.7556 0H3.00186C1.34593 0.00624878 0.00244141 1.34974 0.00244141 3.00566V29.0006C0.00244141 30.6565 1.34593 32 3.00186 32H20.9983C22.6543 32 23.9978 30.6565 23.9978 29.0006V8.24839C23.9978 7.45479 23.6791 6.68619 23.1167 6.1238ZM20.7546 8.00469H15.9993V3.24937L20.7546 8.00469ZM3.00186 29.0006V3.00566H12.9999V9.50439C12.9999 10.3355 13.6685 11.0041 14.4996 11.0041H20.9983V29.0006H3.00186ZM16.7554 16.0031C16.3992 16.0031 16.093 16.2531 16.0243 16.5968C14.7371 22.7018 14.7496 22.5581 14.7121 23.0642C14.6996 22.9893 14.6871 22.9018 14.6683 22.7955C14.6183 22.4769 14.6871 22.808 13.1936 16.578C13.1124 16.2406 12.8124 16.0031 12.4625 16.0031H11.6314C11.2877 16.0031 10.9878 16.2406 10.9003 16.5718C9.37561 22.7581 9.40061 22.5831 9.35062 23.0517C9.34437 22.983 9.33812 22.8955 9.31937 22.7893C9.27563 22.4644 8.43829 18.2089 8.12585 16.603C8.05712 16.2531 7.75093 15.9969 7.3885 15.9969H6.3387C5.8513 15.9969 5.49512 16.453 5.6076 16.9217C6.1075 18.9588 7.27602 23.7641 7.68219 25.42C7.76343 25.7575 8.06337 25.9887 8.4133 25.9887H9.98799C10.3317 25.9887 10.6316 25.7575 10.7128 25.42L11.8314 20.9584C11.9251 20.571 11.9876 20.2086 12.0188 19.8774L12.2001 20.9584C12.2063 20.9834 12.9874 24.114 13.3186 25.42C13.3998 25.7512 13.6998 25.9887 14.0434 25.9887H15.5869C15.9306 25.9887 16.2305 25.7575 16.3118 25.42C17.6115 20.3023 18.1989 17.984 18.4676 16.9217C18.5863 16.4468 18.2301 15.9906 17.7427 15.9906H16.7554V16.0031Z" fill="#0165E1" /></svg>