<svg width="24" height="32" viewBox="0 0 24 32" fill="none" xmlns="http://www.w3.org/2000/svg">
 <path  d= "M23.1213 6.12131L17.8787 0.878688C17.3161 0.316077 16.553 4.16048e-06 15.7574 0H3C1.34312 0 0 1.34312 0 3V29C0 30.6569 1.34312 32 3 32H21C22.6569 32 24 30.6569 24 29V8.24263C24 7.44698 23.6839 6.68392 23.1213 6.12131ZM20.7574 8H16V3.24262L20.7574 8ZM3 29V3H13V9.5C13 10.3284 13.6716 11 14.5 11H21V29H3ZM9.35481 21.8053L7.30337 20L9.35475 18.1947C9.4101 18.146 9.45511 18.0868 9.48709 18.0204C9.51906 17.954 9.53736 17.8818 9.54089 17.8082C9.54441 17.7346 9.5331 17.661 9.50762 17.5919C9.48214 17.5227 9.44301 17.4594 9.39256 17.4057L8.30488 16.2454C8.09338 16.0196 7.74463 16.0166 7.5275 16.2204L3.92375 19.5987C3.69231 19.8159 3.69225 20.1842 3.92381 20.4013L7.5275 23.7797C7.62911 23.8755 7.76358 23.9288 7.90325 23.9285C7.97857 23.9288 8.05313 23.9134 8.12226 23.8835C8.19138 23.8536 8.25358 23.8097 8.30494 23.7546L9.39262 22.5944C9.44308 22.5407 9.48221 22.4774 9.50769 22.4082C9.53317 22.3391 9.54449 22.2655 9.54096 22.1919C9.53743 22.1182 9.51913 22.0461 9.48716 21.9797C9.45518 21.9133 9.41017 21.854 9.35481 21.8053ZM14.6226 13.8147L13.0975 13.3719C13.0281 13.3518 12.9555 13.3455 12.8837 13.3534C12.8119 13.3613 12.7423 13.3833 12.679 13.4181C12.6157 13.4529 12.5599 13.4999 12.5148 13.5563C12.4696 13.6127 12.436 13.6774 12.4159 13.7468L9.0025 25.5038C8.91794 25.7951 9.08612 26.1008 9.37737 26.1854L10.9026 26.6281C11.1951 26.7128 11.4999 26.5435 11.5841 26.2533L14.9974 14.4963C15.082 14.205 14.9138 13.8993 14.6226 13.8147ZM20.0762 19.5987L16.4726 16.2203C16.2522 16.0136 15.9039 16.0225 15.6951 16.2454L14.6074 17.4056C14.557 17.4593 14.5179 17.5226 14.4924 17.5918C14.4669 17.6609 14.4556 17.7345 14.4591 17.8081C14.4627 17.8817 14.481 17.9539 14.5129 18.0203C14.5449 18.0867 14.5899 18.146 14.6453 18.1946L16.6966 20L14.6453 21.8053C14.5899 21.854 14.5449 21.9132 14.5129 21.9796C14.4809 22.046 14.4626 22.1182 14.4591 22.1918C14.4556 22.2654 14.4669 22.339 14.4924 22.4081C14.5179 22.4773 14.557 22.5406 14.6074 22.5943L15.6951 23.7546C15.7445 23.8073 15.8038 23.8497 15.8696 23.8795C15.9354 23.9093 16.0065 23.9259 16.0786 23.9282C16.1508 23.9305 16.2228 23.9186 16.2904 23.8931C16.358 23.8676 16.4199 23.8291 16.4726 23.7796H16.4725L20.0763 20.4012C20.3077 20.1841 20.3077 19.8158 20.0762 19.5987Z" fill="#0165E1" /></svg>