<svg width="24" height="32" viewBox="0 0 24 32" fill="none" xmlns="http://www.w3.org/2000/svg">
 <path  d= "M18 15.5V17.25C18 17.6625 17.6625 18 17.25 18H6.75C6.3375 18 6 17.6625 6 17.25V15.5C6 15.0875 6.3375 14.75 6.75 14.75H17.25C17.6625 14.75 18 15.0875 18 15.5ZM17.25 20H6.75C6.3375 20 6 20.3375 6 20.75V22.5C6 22.9125 6.3375 23.25 6.75 23.25H17.25C17.6625 23.25 18 22.9125 18 22.5V20.75C18 20.3375 17.6625 20 17.25 20ZM24 8.24375V29C24 30.6562 22.6562 32 21 32H3C1.34375 32 0 30.6562 0 29V3C0 1.34375 1.34375 0 3 0H15.7563C16.55 0 17.3125 0.31875 17.875 0.88125L23.1187 6.125C23.6812 6.68125 24 7.45 24 8.24375ZM16 3.24375V8H20.7563L16 3.24375ZM21 29V11H14.5C13.6687 11 13 10.3313 13 9.5V3H3V29H21Z" fill="#0165E1" /></svg>