<svg width="24" height="32" viewBox="0 0 24 32" fill="none" xmlns="http://www.w3.org/2000/svg">
 <path  d= "M23.1213 6.12131L17.8787 0.878688C17.3161 0.316077 16.553 4.16048e-06 15.7574 0H3C1.34312 0 0 1.34312 0 3V29C0 30.6569 1.34312 32 3 32H21C22.6569 32 24 30.6569 24 29V8.24263C24 7.44698 23.6839 6.68392 23.1213 6.12131ZM20.7574 8H16V3.24262L20.7574 8ZM3 29V3H13V9.5C13 10.3284 13.6716 11 14.5 11H21V29H3ZM17.2929 15.7936L14 19.0859V16.75C14 16.0596 13.4404 15.5 12.75 15.5H6.25C5.55963 15.5 5 16.0596 5 16.75V23.25C5 23.9404 5.55963 24.5 6.25 24.5H12.75C13.4404 24.5 14 23.9404 14 23.25V20.9141L17.2929 24.2062C17.919 24.8324 19 24.3925 19 23.4991V16.5007C19 15.6062 17.9182 15.1683 17.2929 15.7936Z" fill="#0165E1" /></svg>