<svg width="24" height="32" viewBox="0 0 24 32" fill="none" xmlns="http://www.w3.org/2000/svg">
 <path  d= "M23.1167 6.1238L17.874 0.881078C17.3116 0.318688 16.5492 0 15.7556 0H3.00186C1.34593 0.00624878 0.00244141 1.34974 0.00244141 3.00566V29.0006C0.00244141 30.6565 1.34593 32 3.00186 32H20.9983C22.6543 32 23.9978 30.6565 23.9978 29.0006V8.24839C23.9978 7.45479 23.6791 6.68619 23.1167 6.1238ZM20.7546 8.00469H15.9993V3.24937L20.7546 8.00469ZM3.00186 29.0006V3.00566H12.9999V9.50439C12.9999 10.3355 13.6685 11.0041 14.4996 11.0041H20.9983V29.0006H3.00186ZM18.6363 20.0211C17.874 19.2712 15.6994 19.4774 14.6121 19.6149C13.5373 18.9588 12.8187 18.0527 12.3125 16.7217C12.5562 15.7157 12.9437 14.1847 12.65 13.2224C12.3875 11.5852 10.2879 11.7477 9.98799 12.8537C9.71305 13.8598 9.963 15.2595 10.4254 17.0467C9.80053 18.5401 8.86946 20.546 8.21334 21.6958C6.96358 22.3394 5.27641 23.3329 5.02646 24.5827C4.82025 25.57 6.65114 28.032 9.78178 22.6331C11.1815 22.1707 12.7062 21.602 14.0559 21.3771C15.237 22.0145 16.6179 22.4394 17.5428 22.4394C19.1362 22.4394 19.2924 20.6772 18.6363 20.0211ZM6.25747 24.8826C6.57616 24.0266 7.78842 23.0393 8.1571 22.6956C6.96983 24.5889 6.25747 24.9264 6.25747 24.8826ZM11.3565 12.9725C11.8189 12.9725 11.7751 14.9783 11.469 15.522C11.194 14.6534 11.2003 12.9725 11.3565 12.9725ZM9.83177 21.5083C10.4379 20.4523 10.9566 19.1963 11.3752 18.0902C11.8939 19.0338 12.5562 19.7899 13.2561 20.3085C11.9564 20.5772 10.8253 21.1271 9.83177 21.5083ZM18.0552 21.1959C18.0552 21.1959 17.7427 21.5708 15.7244 20.7085C17.9177 20.546 18.2801 21.0459 18.0552 21.1959Z" fill="#0165E1" /></svg>