<svg width="24" height="32" viewBox="0 0 24 32" fill="none" xmlns="http://www.w3.org/2000/svg">
 <path  d= "M23.1167 6.1238L17.874 0.881078C17.3116 0.318688 16.5492 0 15.7556 0H3.00186C1.34593 0.00624878 0.00244141 1.34974 0.00244141 3.00566V29.0006C0.00244141 30.6565 1.34593 32 3.00186 32H20.9983C22.6543 32 23.9978 30.6565 23.9978 29.0006V8.24839C23.9978 7.45479 23.6791 6.68619 23.1167 6.1238ZM20.7546 8.00469H15.9993V3.24937L20.7546 8.00469ZM3.00186 29.0006V3.00566H12.9999V9.50439C12.9999 10.3355 13.6685 11.0041 14.4996 11.0041H20.9983V29.0006H3.00186ZM5.00146 26.0012H18.9987V18.0027L17.5303 16.5343C17.2366 16.2406 16.7617 16.2406 16.468 16.5343L11.0003 22.002L8.53203 19.5337C8.23833 19.24 7.76343 19.24 7.46973 19.5337L5.00146 22.002V26.0012ZM8.00088 11.0041C6.34495 11.0041 5.00146 12.3476 5.00146 14.0035C5.00146 15.6594 6.34495 17.0029 8.00088 17.0029C9.65681 17.0029 11.0003 15.6594 11.0003 14.0035C11.0003 12.3476 9.65681 11.0041 8.00088 11.0041Z" fill="#0165E1" /></svg>