<svg width="24" height="32" viewBox="0 0 24 32" fill="none" xmlns="http://www.w3.org/2000/svg">
 <path  d= "M23.1167 6.1238L17.874 0.881078C17.3116 0.318688 16.5492 0 15.7556 0H3.00186C1.34593 0.00624878 0.00244141 1.34974 0.00244141 3.00566V29.0006C0.00244141 30.6565 1.34593 32 3.00186 32H20.9983C22.6543 32 23.9978 30.6565 23.9978 29.0006V8.24839C23.9978 7.45479 23.6791 6.68619 23.1167 6.1238ZM20.7546 8.00469H15.9993V3.24937L20.7546 8.00469ZM3.00186 29.0006V3.00566H12.9999V9.50439C12.9999 10.3355 13.6685 11.0041 14.4996 11.0041H20.9983V29.0006H3.00186ZM16.2493 14.0035H14.4496C14.1747 14.0035 13.9247 14.1535 13.7935 14.3972C12.6687 16.4655 12.4063 17.0467 12.0063 18.0027C11.1378 16.1843 11.5752 16.9217 10.2192 14.3972C10.088 14.1535 9.83177 14.0035 9.55682 14.0035H7.75093C7.16979 14.0035 6.81361 14.6284 7.10106 15.1283L9.99424 20.0023L7.10106 24.8764C6.80736 25.3763 7.16979 26.0012 7.75093 26.0012H9.55682C9.83177 26.0012 10.0817 25.8512 10.2129 25.6075C11.5689 23.108 11.6502 22.7955 12.0001 22.002C12.9312 23.8891 12.3688 22.9955 13.7872 25.6075C13.9185 25.8512 14.1747 26.0012 14.4496 26.0012H16.2493C16.8304 26.0012 17.1866 25.3763 16.8991 24.8764L13.9997 20.0023C14.0434 19.9336 15.8931 16.8467 16.8929 15.1283C17.1866 14.6284 16.8242 14.0035 16.2493 14.0035Z" fill="#0165E1" /></svg>