<svg width="32" height="32" viewBox="0 0 32 32" fill="none" xmlns="http://www.w3.org/2000/svg">
 <path  d= "M21.0109 5C17.9401 5 15.1793 3 10.8913 3C8.935 3 7.24738 3.40513 5.84625 3.948C5.98512 3.53119 6.03081 3.08897 5.98012 2.65257C5.81669 1.22344 4.63544 0.0996283 3.20006 0.00650329C1.45263 -0.106872 0 1.27694 0 3C0 4.11025 0.603562 5.07888 1.5 5.59763V31C1.5 31.5523 1.94769 32 2.5 32H3.5C4.05231 32 4.5 31.5523 4.5 31V25.7848C6.86681 24.705 8.95369 24 12.4891 24C15.5599 24 18.3207 26 22.6087 26C26.2636 26 28.9819 24.5864 30.6429 23.5012C31.4904 22.9476 32 22.0032 32 20.9909V5.99607C32 3.84238 29.796 2.38557 27.8185 3.23875C25.5746 4.20682 23.2276 5 21.0109 5ZM29 21C27.6386 21.9633 25.1985 23 22.6087 23C18.8621 23 16.2336 21 12.4891 21C9.77906 21 6.46544 21.5877 4.5 22.5V8C5.8615 7.03675 8.3015 6 10.8913 6C14.6379 6 17.2664 8 21.0109 8C23.7153 8 27.0309 6.91463 29 6V21Z" fill="#0165E1" /></svg>