<svg width="32" height="32" viewBox="0 0 32 32" fill="none" xmlns="http://www.w3.org/2000/svg">
 <path  d= "M16 0C7.16129 0 0 7.16129 0 16C0 24.8387 7.16129 32 16 32C24.8387 32 32 24.8387 32 16C32 7.16129 24.8387 0 16 0ZM16 28.9032C8.88387 28.9032 3.09677 23.1161 3.09677 16C3.09677 8.88387 8.88387 3.09677 16 3.09677C23.1161 3.09677 28.9032 8.88387 28.9032 16C28.9032 23.1161 23.1161 28.9032 16 28.9032ZM22.1935 8.77419C19.3419 8.77419 17.0323 11.0839 17.0323 13.9355C17.0323 16.7871 19.3419 19.0968 22.1935 19.0968C25.0452 19.0968 27.3548 16.7871 27.3548 13.9355C27.3548 11.0839 25.0452 8.77419 22.1935 8.77419ZM22.1935 17.0323C20.4839 17.0323 19.0968 15.6452 19.0968 13.9355C19.0968 12.2258 20.4839 10.8387 22.1935 10.8387C23.9032 10.8387 25.2903 12.2258 25.2903 13.9355C25.2903 15.6452 23.9032 17.0323 22.1935 17.0323ZM22.1935 12.3871C21.3355 12.3871 20.6452 13.0774 20.6452 13.9355C20.6452 14.7935 21.3355 15.4839 22.1935 15.4839C23.0516 15.4839 23.7419 14.7935 23.7419 13.9355C23.7419 13.0774 23.0516 12.3871 22.1935 12.3871ZM14.9677 13.9355C14.9677 11.0839 12.6581 8.77419 9.80645 8.77419C6.95484 8.77419 4.64516 11.0839 4.64516 13.9355C4.64516 16.7871 6.95484 19.0968 9.80645 19.0968C12.6581 19.0968 14.9677 16.7871 14.9677 13.9355ZM9.80645 17.0323C8.09677 17.0323 6.70968 15.6452 6.70968 13.9355C6.70968 12.2258 8.09677 10.8387 9.80645 10.8387C11.5161 10.8387 12.9032 12.2258 12.9032 13.9355C12.9032 15.6452 11.5161 17.0323 9.80645 17.0323ZM9.80645 12.3871C8.94839 12.3871 8.25806 13.0774 8.25806 13.9355C8.25806 14.7935 8.94839 15.4839 9.80645 15.4839C10.6645 15.4839 11.3548 14.7935 11.3548 13.9355C11.3548 13.0774 10.6645 12.3871 9.80645 12.3871ZM20.129 21.6774H11.871C11.0194 21.6774 10.3226 22.3742 10.3226 23.2258C10.3226 24.0774 11.0194 24.7742 11.871 24.7742H20.129C20.9806 24.7742 21.6774 24.0774 21.6774 23.2258C21.6774 22.3742 20.9806 21.6774 20.129 21.6774Z" fill="#0165E1" /></svg>