<svg width="32" height="22" viewBox="0 0 32 22" fill="none" xmlns="http://www.w3.org/2000/svg">
 <path  d= "M29.3302 9.22215H26.6667V6.55548C26.6667 5.0827 25.4728 3.88881 24 3.88881H15.1111L11.5556 0.333252H2.66667C1.19389 0.333252 0 1.52714 0 2.99992V18.9999C0 20.4727 1.19389 21.6666 2.66667 21.6666H24.8889C25.3412 21.6666 25.786 21.5516 26.1816 21.3323C26.5772 21.1131 26.9105 20.7968 27.1502 20.4133L31.5915 13.3021C32.6997 11.529 31.4227 9.22215 29.3302 9.22215ZM3 2.99992H10.451L14.0066 6.55548H23.6667C23.7551 6.55548 23.8399 6.5906 23.9024 6.65311C23.9649 6.71562 24 6.80041 24 6.88881V9.22215H8.44445C7.98508 9.22215 7.5335 9.34082 7.13347 9.56665C6.73345 9.79249 6.39855 10.1178 6.16123 10.5111L2.66667 16.3027V3.33286C2.66667 3.28911 2.67529 3.24578 2.69205 3.20536C2.70881 3.16494 2.73337 3.12822 2.76432 3.0973C2.79528 3.06638 2.83203 3.04186 2.87247 3.02515C2.91291 3.00844 2.95625 2.99987 3 2.99992ZM24.8889 18.9999H4L8.29078 11.8888H29.3334L24.8889 18.9999Z" fill="#0165E1" /></svg>