<svg width="32" height="24" viewBox="0 0 32 24" fill="none" xmlns="http://www.w3.org/2000/svg">
 <path  d= "M29 4H17L13 0H3C1.34312 0 0 1.34312 0 3V21C0 22.6569 1.34312 24 3 24H29C30.6569 24 32 22.6569 32 21V7C32 5.34312 30.6569 4 29 4ZM28.625 21H3.375C3.16788 21 3 20.8326 3 20.6255V3.3745C3.00001 3.32528 3.00972 3.27654 3.02857 3.23108C3.04743 3.18561 3.07506 3.14431 3.10988 3.10953C3.14471 3.07475 3.18605 3.04717 3.23154 3.02838C3.27703 3.00959 3.32578 2.99994 3.375 3H11.7574L15.7574 7H28.625C28.7245 7 28.8198 7.03951 28.8902 7.10983C28.9605 7.18016 29 7.27554 29 7.375V20.625C29 20.7245 28.9605 20.8198 28.8902 20.8902C28.8198 20.9605 28.7245 21 28.625 21Z" fill="#0165E1" /></svg>