<svg width="32" height="32" viewBox="0 0 32 32" fill="none" xmlns="http://www.w3.org/2000/svg">
 <path  d= "M16 0C7.16129 0 0 7.16129 0 16C0 24.8387 7.16129 32 16 32C24.8387 32 32 24.8387 32 16C32 7.16129 24.8387 0 16 0ZM16 28.9032C8.88387 28.9032 3.09677 23.1161 3.09677 16C3.09677 8.88387 8.88387 3.09677 16 3.09677C23.1161 3.09677 28.9032 8.88387 28.9032 16C28.9032 23.1161 23.1161 28.9032 16 28.9032ZM12.9032 12.9032C12.9032 11.7613 11.9806 10.8387 10.8387 10.8387C9.69677 10.8387 8.77419 11.7613 8.77419 12.9032C8.77419 14.0452 9.69677 14.9677 10.8387 14.9677C11.9806 14.9677 12.9032 14.0452 12.9032 12.9032ZM21.1613 10.8387C20.0194 10.8387 19.0968 11.7613 19.0968 12.9032C19.0968 14.0452 20.0194 14.9677 21.1613 14.9677C22.3032 14.9677 23.2258 14.0452 23.2258 12.9032C23.2258 11.7613 22.3032 10.8387 21.1613 10.8387ZM16 18.0645C13.7032 18.0645 10.271 19.4387 9.81936 22.0129C9.69032 22.7742 10.4 23.4 11.1419 23.1806C13.1548 22.5613 14.9742 22.1935 16 22.1935C17.0258 22.1935 18.8452 22.5613 20.8581 23.1806C21.5935 23.4065 22.3097 22.7742 22.1806 22.0129C21.729 19.4387 18.2968 18.0645 16 18.0645Z" fill="#0165E1" /></svg>