<svg width="32" height="32" viewBox="0 0 32 32" fill="none" xmlns="http://www.w3.org/2000/svg">
 <path  d= "M16 0C7.16129 0 0 7.16129 0 16C0 24.8387 7.16129 32 16 32C24.8387 32 32 24.8387 32 16C32 7.16129 24.8387 0 16 0ZM16 28.9032C8.88387 28.9032 3.09677 23.1161 3.09677 16C3.09677 8.88387 8.88387 3.09677 16 3.09677C23.1161 3.09677 28.9032 8.88387 28.9032 16C28.9032 23.1161 23.1161 28.9032 16 28.9032ZM10.8387 14.9677C11.9806 14.9677 12.9032 14.0452 12.9032 12.9032C12.9032 11.7613 11.9806 10.8387 10.8387 10.8387C9.69677 10.8387 8.77419 11.7613 8.77419 12.9032C8.77419 14.0452 9.69677 14.9677 10.8387 14.9677ZM21.1613 10.8387C20.0194 10.8387 19.0968 11.7613 19.0968 12.9032C19.0968 14.0452 20.0194 14.9677 21.1613 14.9677C22.3032 14.9677 23.2258 14.0452 23.2258 12.9032C23.2258 11.7613 22.3032 10.8387 21.1613 10.8387ZM16 19.0968C13.4065 19.0968 10.9677 20.2387 9.30323 22.2323C8.75484 22.8903 8.84516 23.8645 9.50323 24.4129C10.1613 24.9548 11.1355 24.871 11.6839 24.2129C12.7548 22.929 14.329 22.1871 16 22.1871C17.671 22.1871 19.2452 22.9226 20.3161 24.2129C20.8387 24.8387 21.8065 24.9806 22.4968 24.4129C23.1548 23.8645 23.2387 22.8903 22.6968 22.2323C21.0323 20.2387 18.5935 19.0968 16 19.0968Z" fill="#0165E1" /></svg>