<svg width="32" height="32" viewBox="0 0 32 32" fill="none" xmlns="http://www.w3.org/2000/svg">
 <path  d= "M31.2129 11.0581C29.0193 4.29677 22.7484 0 16.0064 0C14.3677 0 12.7032 0.251613 11.0581 0.787097C2.65805 3.51613 -1.94195 12.5419 0.787083 20.9419C2.98063 27.7032 9.2516 32 15.9935 32C17.6322 32 19.2968 31.7484 20.9419 31.2129C29.3419 28.4839 33.9419 19.4581 31.2129 11.0581ZM26.4064 23.5548L23.0387 23.9677L20.2193 20.0387L21.7935 15.1871L26.3806 13.7613L28.8903 16.1097C28.8774 18.0903 28.4129 20.0516 27.4903 21.8645C27.1871 22.4645 26.8 23.0129 26.4064 23.5548ZM26.4064 8.36774L25.7355 11.7935L21.1742 13.2129L17.0322 10.2129V5.45161L20.0903 3.76129C22.6193 4.6 24.8258 6.2129 26.4064 8.36774ZM11.929 3.76774L14.9677 5.45161V10.2129L10.8258 13.2129L6.27095 11.7935L5.61934 8.40645C7.18708 6.25161 9.35483 4.62581 11.929 3.76774ZM8.96773 23.9677L5.54192 23.5484C4.61289 22.2516 3.13547 19.7032 3.10321 16.1097L5.61934 13.7613L10.2064 15.1935L11.7742 19.9871L8.96773 23.9677ZM12.0774 28.2903L10.6322 25.1871L13.4451 21.2065H18.5161L21.3742 25.1871L19.929 28.2903C19.529 28.4065 16.2129 29.6065 12.0774 28.2903Z" fill="#0165E1" /></svg>