<svg width="32" height="30" viewBox="0 0 32 30" fill="none" xmlns="http://www.w3.org/2000/svg">
 <path  d= "M25.7781 0.776611H6.22189C5.99966 0.776611 5.78854 0.887726 5.66631 1.07662L0.110565 9.25468C-0.0505513 9.49913 -0.0338841 9.82137 0.149456 10.0436L15.4833 28.9776C15.75 29.3054 16.25 29.3054 16.5167 28.9776L31.8505 10.0436C32.0339 9.81581 32.0506 9.49913 31.8894 9.25468L26.3392 1.07662C26.2115 0.887726 26.0059 0.776611 25.7781 0.776611ZM24.7059 3.44337L28.2226 8.77689H24.4225L21.5502 3.44337H24.7059ZM13.4777 3.44337H18.5168L21.3891 8.77689H10.6109L13.4777 3.44337ZM7.29415 3.44337H10.4498L7.57749 8.77689H3.77736L7.29415 3.44337ZM4.90517 11.4436H7.76083L11.5554 20.3328L4.90517 11.4436ZM10.622 11.4436H21.378L16 24.9608L10.622 11.4436ZM20.4446 20.3328L24.2336 11.4436H27.0893L20.4446 20.3328Z" fill="#0165E1" /></svg>