<svg width="32" height="32" viewBox="0 0 32 32" fill="none" xmlns="http://www.w3.org/2000/svg">
 <path  d= "M16 0C7.16129 0 0 7.16129 0 16C0 24.8387 7.16129 32 16 32C24.8387 32 32 24.8387 32 16C32 7.16129 24.8387 0 16 0ZM16 28.9032C8.88387 28.9032 3.09677 23.1161 3.09677 16C3.09677 8.88387 8.88387 3.09677 16 3.09677C23.1161 3.09677 28.9032 8.88387 28.9032 16C28.9032 23.1161 23.1161 28.9032 16 28.9032ZM10.8387 14.9677C11.9806 14.9677 12.9032 14.0452 12.9032 12.9032C12.9032 11.7613 11.9806 10.8387 10.8387 10.8387C9.69677 10.8387 8.77419 11.7613 8.77419 12.9032C8.77419 14.0452 9.69677 14.9677 10.8387 14.9677ZM21.1613 14.9677C22.3032 14.9677 23.2258 14.0452 23.2258 12.9032C23.2258 11.7613 22.3032 10.8387 21.1613 10.8387C20.0194 10.8387 19.0968 11.7613 19.0968 12.9032C19.0968 14.0452 20.0194 14.9677 21.1613 14.9677ZM22.1935 16H9.80645C8.09677 16 6.70968 17.3871 6.70968 19.0968V21.1613C6.70968 22.871 8.09677 24.2581 9.80645 24.2581H22.1935C23.9032 24.2581 25.2903 22.871 25.2903 21.1613V19.0968C25.2903 17.3871 23.9032 16 22.1935 16ZM11.3548 22.1935H9.80645C9.23871 22.1935 8.77419 21.729 8.77419 21.1613V20.6452H11.3548V22.1935ZM11.3548 19.6129H8.77419V19.0968C8.77419 18.529 9.23871 18.0645 9.80645 18.0645H11.3548V19.6129ZM15.4839 22.1935H12.3871V20.6452H15.4839V22.1935ZM15.4839 19.6129H12.3871V18.0645H15.4839V19.6129ZM19.6129 22.1935H16.5161V20.6452H19.6129V22.1935ZM19.6129 19.6129H16.5161V18.0645H19.6129V19.6129ZM23.2258 21.1613C23.2258 21.729 22.7613 22.1935 22.1935 22.1935H20.6452V20.6452H23.2258V21.1613ZM23.2258 19.6129H20.6452V18.0645H22.1935C22.7613 18.0645 23.2258 18.529 23.2258 19.0968V19.6129Z" fill="#0165E1" /></svg>