<svg width="32" height="32" viewBox="0 0 32 32" fill="none" xmlns="http://www.w3.org/2000/svg">
 <path  d= "M0 16C0 24.8387 7.16129 32 16 32C24.8387 32 32 24.8387 32 16C32 7.16129 24.8387 0 16 0C7.16129 0 0 7.16129 0 16ZM12.9032 12.9032C12.9032 14.0452 11.9806 14.9677 10.8387 14.9677C9.69677 14.9677 8.77419 14.0452 8.77419 12.9032C8.77419 11.7613 9.69677 10.8387 10.8387 10.8387C11.9806 10.8387 12.9032 11.7613 12.9032 12.9032ZM23.7419 14.5161L23.129 13.9677C22.1742 13.1161 20.1484 13.1161 19.1935 13.9677L18.5806 14.5161C18.0452 14.9935 17.1871 14.5419 17.3032 13.8194C17.5613 12.1935 19.5097 11.1032 21.1677 11.1032C22.8258 11.1032 24.7742 12.1935 25.0323 13.8194C25.1355 14.529 24.2903 14.9935 23.7419 14.5161ZM8.05806 20.1806C10.0065 20.8064 12.9032 21.1613 16 21.1613C19.0968 21.1613 21.9935 20.8064 23.9419 20.1806C24.671 19.9419 25.4 20.5677 25.2774 21.3355C24.6839 24.8839 19.9097 27.3548 16 27.3548C12.0903 27.3548 7.32258 24.8839 6.72258 21.3355C6.59355 20.5677 7.32258 19.9419 8.05806 20.1806Z" fill="#0165E1" /></svg>