<svg width="32" height="32" viewBox="0 0 32 32" fill="none" xmlns="http://www.w3.org/2000/svg">
 <path  d= "M16 0C7.16129 0 0 7.16129 0 16C0 24.8387 7.16129 32 16 32C24.8387 32 32 24.8387 32 16C32 7.16129 24.8387 0 16 0ZM20.129 25.8065C20.129 28.1032 18.2516 29.9677 15.9419 29.9355C13.6774 29.9032 11.871 28.0129 11.871 25.7419V22.9806L13.0129 22.4129C13.9806 21.929 15.0452 22.5226 15.2645 23.4774L15.4452 24.2581C15.5806 24.8516 16.4258 24.8516 16.5613 24.2581L16.7419 23.4774C16.9613 22.5226 18.0194 21.9226 18.9935 22.4129L20.1355 22.9806V25.8065H20.129ZM21.9484 27.4387C22.0903 26.9161 22.1935 26.3742 22.1935 25.8065V23C23.1097 22.2 23.7677 21.2258 23.9548 20.129C24.0645 19.4903 23.4581 18.9355 22.8129 19.1419C21.1419 19.6774 18.6581 19.9871 16 19.9871C13.3419 19.9871 10.8645 19.6774 9.1871 19.1419C8.54839 18.9419 7.93548 19.4839 8.04516 20.129C8.23226 21.2258 8.89032 22.2 9.80645 23V25.8065C9.80645 26.3742 9.90968 26.9161 10.0516 27.4387C5.92258 25.2839 3.09677 20.9677 3.09677 16C3.09677 8.88387 8.88387 3.09677 16 3.09677C23.1161 3.09677 28.9032 8.88387 28.9032 16C28.9032 20.9677 26.0774 25.2839 21.9484 27.4387ZM24.329 9.30323C24.0839 9.01935 23.6645 8.94839 23.3419 9.14194L18.1806 12.2387C17.9484 12.3806 17.8065 12.6323 17.8065 12.9032C17.8065 13.1742 17.9484 13.4258 18.1806 13.5677L23.3419 16.6645C23.6903 16.871 24.0968 16.7742 24.329 16.5032C24.5742 16.2129 24.5742 15.7935 24.3355 15.5032L22.1677 12.9032L24.3355 10.3032C24.5806 10.0129 24.5742 9.5871 24.329 9.30323ZM13.8194 12.2387L8.65806 9.14194C8.33548 8.94839 7.92258 9.0129 7.67097 9.30323C7.42581 9.59355 7.42581 10.0129 7.66452 10.3032L9.83226 12.9032L7.66452 15.5032C7.41935 15.7935 7.42581 16.2129 7.67097 16.5032C7.90323 16.7742 8.30968 16.871 8.65806 16.6645L13.8194 13.5677C14.0516 13.4258 14.1935 13.1742 14.1935 12.9032C14.1935 12.6323 14.0516 12.3806 13.8194 12.2387Z" fill="#0165E1" /></svg>