<svg width="32" height="32" viewBox="0 0 32 32" fill="none" xmlns="http://www.w3.org/2000/svg">
 <path  d= "M28.1911 10.1576C30.0642 10.1576 31.5754 8.48772 31.5754 6.43048C31.5754 4.8431 29.5626 1.63659 28.6419 0.252393C28.4133 -0.0841312 27.9625 -0.0841312 27.7403 0.252393C26.8196 1.63659 24.8068 4.8431 24.8068 6.43048C24.8068 8.48772 26.318 10.1576 28.1911 10.1576ZM16 25.3965C19.2954 25.3965 23.321 23.3075 23.8289 20.3169C23.9369 19.6883 23.34 19.1422 22.7051 19.3454C21.0606 19.8724 18.616 20.1772 16 20.1772C13.384 20.1772 10.9458 19.8724 9.29489 19.3454C8.67264 19.1486 8.06308 19.6819 8.17103 20.3169C8.67899 23.3075 12.7046 25.3965 16 25.3965ZM24.2734 14.7103C24.502 14.6404 24.6544 14.4245 24.6353 14.1832C24.4258 11.5101 22.5908 9.64968 21.0796 9.64968C19.5684 9.64968 17.7334 11.5101 17.5239 14.1832C17.5048 14.4182 17.6572 14.6404 17.8858 14.7103C18.108 14.7801 18.3557 14.6785 18.4763 14.4753L19.0795 13.3959C19.5684 12.526 20.2986 12.0244 21.0796 12.0244C21.8606 12.0244 22.5908 12.526 23.0797 13.3959L23.6829 14.4753C23.8162 14.7039 24.0766 14.7674 24.2734 14.7103ZM30.9595 11.3514C29.3975 12.3482 28.0387 12.1704 28.0133 12.1704C28.4514 13.453 28.699 14.8245 28.699 16.2532C28.699 23.2567 23.0035 28.9522 16 28.9522C8.99646 28.9522 3.30094 23.2567 3.30094 16.2532C3.30094 9.24967 8.99646 3.55414 16 3.55414C18.5271 3.55414 20.8764 4.30339 22.8575 5.57964C22.9654 4.97644 23.2575 4.04941 23.9496 2.67791C21.613 1.30641 18.9017 0.506374 16 0.506374C7.30114 0.506374 0.253174 7.55434 0.253174 16.2532C0.253174 24.952 7.30114 32 16 32C24.6988 32 31.7468 24.952 31.7468 16.2532C31.7468 14.5388 31.4674 12.8943 30.9595 11.3514ZM10.9204 12.0244C11.7014 12.0244 12.4316 12.526 12.9205 13.3959L13.5237 14.4753C13.657 14.7103 13.9173 14.7737 14.1142 14.7103C14.3428 14.6404 14.4952 14.4245 14.4761 14.1832C14.2666 11.5101 12.4316 9.64968 10.9204 9.64968C9.40918 9.64968 7.57417 11.5101 7.36464 14.1832C7.34559 14.4182 7.49798 14.6404 7.72656 14.7103C7.94879 14.7801 8.19642 14.6785 8.31707 14.4753L8.92027 13.3959C9.40918 12.5197 10.1394 12.0244 10.9204 12.0244Z" fill="#0165E1" /></svg>