<svg width="32" height="32" viewBox="0 0 32 32" fill="none" xmlns="http://www.w3.org/2000/svg">
 <path  d= "M22.8129 19.1355C21.1419 19.671 18.6581 19.9806 16 19.9806C13.3419 19.9806 10.8645 19.671 9.1871 19.1355C8.55484 18.9355 7.93548 19.4774 8.04516 20.1226C8.55484 23.1677 12.6452 25.2839 16 25.2839C19.3548 25.2839 23.4387 23.1613 23.9548 20.1226C24.0581 19.4903 23.4581 18.9355 22.8129 19.1355ZM12.9548 15.9806C13.2452 16.0581 13.5484 15.8839 13.6323 15.5935L14.8839 11.0839C15.2452 9.77419 14.4065 8.43226 13.0258 8.2129C11.8258 8.01935 10.6774 8.84516 10.3484 10.0129L10.2194 10.471L9.76129 10.3484C8.5871 10.0452 7.29677 10.6258 6.86452 11.7677C6.36774 13.071 7.10968 14.471 8.42581 14.8129L12.9548 15.9806ZM25.1355 11.7677C24.7032 10.6323 23.4129 10.0452 22.2387 10.3484L21.7806 10.471L21.6516 10.0129C21.329 8.84516 20.1806 8.01935 18.9742 8.2129C17.5935 8.43226 16.7548 9.77419 17.1161 11.0839L18.3677 15.5935C18.4452 15.8839 18.7484 16.0581 19.0452 15.9806L23.5742 14.8065C24.8903 14.4645 25.6323 13.071 25.1355 11.7677ZM16 0C7.16129 0 0 7.16129 0 16C0 24.8387 7.16129 32 16 32C24.8387 32 32 24.8387 32 16C32 7.16129 24.8387 0 16 0ZM16 28.9032C8.88387 28.9032 3.09677 23.1161 3.09677 16C3.09677 8.88387 8.88387 3.09677 16 3.09677C23.1161 3.09677 28.9032 8.88387 28.9032 16C28.9032 23.1161 23.1161 28.9032 16 28.9032Z" fill="#0165E1" /></svg>