<svg width="32" height="26" viewBox="0 0 32 26" fill="none" xmlns="http://www.w3.org/2000/svg">
 <path  d= "M5.85381 13.005C4.5637 13.19 1.65345 13.69 0.808374 14.5351C-0.286721 15.6302 -0.266719 17.4303 0.853378 18.5504C1.97348 19.6705 3.76863 19.6905 4.86873 18.5954C5.7138 17.7504 6.21385 14.8401 6.39886 13.55C6.43887 13.23 6.16884 12.96 5.85381 13.005ZM31.191 14.5351C30.346 13.69 27.4357 13.19 26.1456 13.005C25.8306 12.96 25.5605 13.23 25.6055 13.545C25.7906 14.8351 26.2906 17.7454 27.1357 18.5904C28.2308 19.6855 30.0309 19.6655 31.151 18.5454C32.2661 17.4303 32.2861 15.6302 31.191 14.5351ZM24.8605 17.6204C23.1903 20.8156 19.845 23.0008 15.9997 23.0008C12.1544 23.0008 8.80907 20.8156 7.13893 17.6204C6.51387 19.4905 5.87882 19.8156 5.7238 19.9456C7.954 23.2359 11.7243 25.401 15.9997 25.401C20.2751 25.401 24.0454 23.2359 26.2756 19.9456C26.1156 19.8106 25.4805 19.4855 24.8605 17.6204ZM6.13384 11.4248C6.89391 6.65941 11.0243 2.99909 15.9997 2.99909C20.9751 2.99909 25.1055 6.65941 25.8656 11.4248C25.9706 11.4148 26.1256 11.3048 28.3408 11.7749C27.7207 5.4993 22.4353 0.598877 15.9997 0.598877C9.56414 0.598877 4.27868 5.4993 3.65862 11.7699C5.88382 11.2998 6.01383 11.4098 6.13384 11.4248ZM15.9997 20.2006C18.5949 20.2006 21.7652 18.5554 22.1652 16.2002C22.2502 15.7052 21.7802 15.2752 21.2802 15.4352C19.985 15.8502 18.0599 16.0902 15.9997 16.0902C13.9395 16.0902 12.0194 15.8502 10.7192 15.4352C10.2292 15.2802 9.74915 15.7002 9.83416 16.2002C10.2342 18.5554 13.4045 20.2006 15.9997 20.2006ZM22.5153 11.7849C22.6953 11.7298 22.8153 11.5598 22.8003 11.3698C22.6353 9.26463 21.1902 7.79951 20 7.79951C18.8099 7.79951 17.3648 9.26463 17.1998 11.3698C17.1848 11.5548 17.3048 11.7298 17.4848 11.7849C17.6598 11.8399 17.8549 11.7599 17.9499 11.5998L18.4249 10.7498C18.8099 10.0647 19.385 9.66967 20 9.66967C20.6151 9.66967 21.1902 10.0647 21.5752 10.7498L22.0502 11.5998C22.1552 11.7799 22.3603 11.8299 22.5153 11.7849ZM11.9994 9.66967C12.6144 9.66967 13.1895 10.0647 13.5745 10.7498L14.0495 11.5998C14.1545 11.7849 14.3596 11.8349 14.5146 11.7849C14.6946 11.7298 14.8146 11.5598 14.7996 11.3698C14.6346 9.26463 13.1895 7.79951 11.9994 7.79951C10.8092 7.79951 9.36412 9.26463 9.19911 11.3698C9.18411 11.5548 9.30412 11.7298 9.48413 11.7849C9.65915 11.8399 9.85416 11.7599 9.94917 11.5998L10.4242 10.7498C10.8092 10.0597 11.3843 9.66967 11.9994 9.66967Z" fill="#0165E1" /></svg>