<svg width="32" height="32" viewBox="0 0 32 32" fill="none" xmlns="http://www.w3.org/2000/svg">
 <path  d= "M7.32109 24.0042C5.70901 24.2354 2.07244 24.8602 1.01647 25.9162C-0.35193 27.2846 -0.326937 29.534 1.0727 30.9336C2.47234 32.3333 4.71551 32.3583 6.09016 30.9899C7.14613 29.9339 7.77097 26.2973 8.00216 24.6853C8.05215 24.2854 7.71474 23.9479 7.32109 24.0042ZM4.74675 21.3986C2.52233 16.7498 3.31587 11.0075 7.16488 7.16478C9.52677 4.80289 12.6635 3.50323 16.0001 3.50323C18.262 3.50323 20.424 4.11557 22.3235 5.23403C22.5609 3.96561 22.8233 2.97836 23.0733 2.21606C20.8613 1.07885 18.4307 0.504 16.0001 0.504C12.0324 0.504 8.0709 2.01611 5.04043 5.04033C0.410373 9.67038 -0.664349 16.4999 1.79127 22.1609C2.55357 21.9047 3.52207 21.6423 4.74675 21.3986ZM26.7598 9.67663C29.5716 14.4629 28.9405 20.73 24.8353 24.8352C22.4734 27.1971 19.3367 28.4968 16.0001 28.4968C14.0943 28.4968 12.2636 28.0594 10.6015 27.2596C10.3578 28.478 10.1016 29.4465 9.83919 30.2088C11.8012 31.0586 13.9006 31.496 16.0063 31.496C19.9741 31.496 23.9356 29.9839 26.966 26.9597C31.846 22.0797 32.7833 14.7503 29.7903 8.92683C29.0217 9.17676 28.0282 9.43295 26.7598 9.67663ZM24.6791 7.99582C26.2912 7.76463 29.9278 7.13979 30.9837 6.08381C32.3521 4.71541 32.3271 2.46599 30.9275 1.06635C29.5279 -0.333284 27.2847 -0.358278 25.91 1.01012C24.8541 2.0661 24.2292 5.70266 23.998 7.31474C23.948 7.71464 24.2855 8.05205 24.6791 7.99582ZM12.9946 14.7628C12.8072 14.5754 12.5447 14.5004 12.2823 14.5629L6.62752 15.9813C6.27136 16.0687 6.03392 16.3999 6.05892 16.7686C6.09016 17.131 6.37758 17.4246 6.73999 17.4559L10.0079 17.7558L10.3078 21.0237C10.3391 21.3861 10.6327 21.6735 10.9951 21.7048H11.0514C11.395 21.7048 11.695 21.4736 11.7824 21.1362L13.1946 15.4814C13.2571 15.219 13.1821 14.9503 12.9946 14.7628ZM15.4752 13.1945L21.13 11.7823C21.4862 11.6949 21.7236 11.3637 21.6986 10.995C21.6674 10.6326 21.38 10.339 21.0176 10.3077L17.7496 10.0078L17.4497 6.73989C17.4185 6.37748 17.1248 6.09006 16.7624 6.05882C16.4125 6.05257 16.0626 6.27126 15.9751 6.62742L14.563 12.2822C14.5005 12.5384 14.5755 12.8071 14.7629 12.9945C15.0753 13.3069 15.469 13.1945 15.4752 13.1945ZM18.7244 18.7243C16.9061 20.5426 14.9941 22.0297 13.482 22.8107C12.9071 23.1107 12.8572 23.9042 13.3758 24.2729C15.8064 26.0037 20.0616 24.6603 22.3547 22.3609C24.6479 20.0615 25.9975 15.8125 24.2667 13.3819C23.9043 12.8696 23.1108 12.907 22.8046 13.4881C22.036 15.0003 20.5427 16.906 18.7244 18.7243Z" fill="#0165E1" /></svg>