<svg width="32" height="32" viewBox="0 0 32 32" fill="none" xmlns="http://www.w3.org/2000/svg">
 <path  d= "M16 0C7.16129 0 0 7.16129 0 16C0 24.8387 7.16129 32 16 32C24.8387 32 32 24.8387 32 16C32 7.16129 24.8387 0 16 0ZM16 28.9032C8.88387 28.9032 3.09677 23.1161 3.09677 16C3.09677 8.88387 8.88387 3.09677 16 3.09677C23.1161 3.09677 28.9032 8.88387 28.9032 16C28.9032 23.1161 23.1161 28.9032 16 28.9032ZM22.8129 19.1355C21.1419 19.671 18.6581 19.9806 16 19.9806C13.3419 19.9806 10.8645 19.671 9.1871 19.1355C8.54839 18.9355 7.93548 19.4839 8.04516 20.1226C8.55484 23.1613 12.6452 25.2839 16 25.2839C19.3548 25.2839 23.4387 23.1613 23.9548 20.1226C24.0581 19.4903 23.4581 18.9355 22.8129 19.1355ZM7.67097 16.5032C7.90323 16.7742 8.30968 16.871 8.65806 16.6645L13.8194 13.5677C14.0516 13.4258 14.1935 13.1742 14.1935 12.9032C14.1935 12.6323 14.0516 12.3806 13.8194 12.2387L8.65806 9.14194C8.32903 8.94839 7.92258 9.01935 7.67097 9.30323C7.42581 9.59355 7.42581 10.0129 7.66452 10.3032L9.83226 12.9032L7.66452 15.5032C7.41935 15.7935 7.42581 16.2194 7.67097 16.5032ZM23.3419 16.6645C23.6903 16.871 24.0968 16.7742 24.329 16.5032C24.5742 16.2129 24.5742 15.7935 24.3355 15.5032L22.1677 12.9032L24.3355 10.3032C24.5806 10.0129 24.5742 9.59355 24.329 9.30323C24.0839 9.01935 23.671 8.95484 23.3419 9.14194L18.1806 12.2387C17.9484 12.3806 17.8065 12.6323 17.8065 12.9032C17.8065 13.1742 17.9484 13.4258 18.1806 13.5677L23.3419 16.6645Z" fill="#0165E1" /></svg>