<svg width="32" height="32" viewBox="0 0 32 32" fill="none" xmlns="http://www.w3.org/2000/svg">
 <path  d= "M12.9226 15.4839C13.7226 14.2774 13.8968 13.0774 13.9355 11.871C13.9032 10.6645 13.7226 9.46452 12.9226 8.25806C12.4065 7.48387 11.3032 7.52258 10.8129 8.25806C10.0129 9.46452 9.83871 10.6645 9.8 11.871C9.83226 13.0774 10.0129 14.2774 10.8129 15.4839C11.3355 16.2581 12.4387 16.2194 12.9226 15.4839ZM21.1806 15.4839C21.9806 14.2774 22.1548 13.0774 22.1935 11.871C22.1613 10.6645 21.9806 9.46452 21.1806 8.25806C20.6645 7.48387 19.5613 7.52258 19.071 8.25806C18.271 9.46452 18.0968 10.6645 18.0581 11.871C18.0903 13.0774 18.271 14.2774 19.071 15.4839C19.5935 16.2581 20.6968 16.2194 21.1806 15.4839ZM16 0C7.16129 0 0 7.16129 0 16C0 24.8387 7.16129 32 16 32C24.8387 32 32 24.8387 32 16C32 7.16129 24.8387 0 16 0ZM16 28.9032C8.88387 28.9032 3.09677 23.1161 3.09677 16C3.09677 8.88387 8.88387 3.09677 16 3.09677C23.1161 3.09677 28.9032 8.88387 28.9032 16C28.9032 23.1161 23.1161 28.9032 16 28.9032ZM22.8129 19.1355C21.1419 19.671 18.6581 19.9806 16 19.9806C13.3419 19.9806 10.8645 19.671 9.1871 19.1355C8.54839 18.9355 7.93548 19.4774 8.04516 20.1226C8.55484 23.1677 12.6452 25.2839 16 25.2839C19.3548 25.2839 23.4387 23.1613 23.9548 20.1226C24.0581 19.4903 23.4581 18.9355 22.8129 19.1355Z" fill="#0165E1" /></svg>