<svg width="32" height="32" viewBox="0 0 32 32" fill="none" xmlns="http://www.w3.org/2000/svg">
 <path  d= "M16 0C7.16129 0 0 7.16129 0 16C0 24.8387 7.16129 32 16 32C24.8387 32 32 24.8387 32 16C32 7.16129 24.8387 0 16 0ZM16 28.9032C8.88387 28.9032 3.09677 23.1161 3.09677 16C3.09677 8.88387 8.88387 3.09677 16 3.09677C23.1161 3.09677 28.9032 8.88387 28.9032 16C28.9032 23.1161 23.1161 28.9032 16 28.9032ZM22.8129 19.1355C21.1419 19.671 18.6581 19.9806 16 19.9806C13.3419 19.9806 10.8645 19.671 9.1871 19.1355C8.55484 18.9355 7.93548 19.4774 8.04516 20.1226C8.55484 23.1613 12.6452 25.2839 16 25.2839C19.3548 25.2839 23.4387 23.1613 23.9548 20.1226C24.0581 19.4903 23.4581 18.9355 22.8129 19.1355ZM7.59355 14.4323C7.81935 14.5032 8.07097 14.4 8.19355 14.1935L8.80645 13.0968C9.30323 12.2129 10.0452 11.7032 10.8387 11.7032C11.6323 11.7032 12.3742 12.2129 12.871 13.0968L13.4839 14.1935C13.6194 14.4323 13.8839 14.4968 14.0839 14.4323C14.3161 14.3613 14.471 14.1419 14.4516 13.8968C14.2387 11.1806 12.3742 9.29032 10.8387 9.29032C9.30323 9.29032 7.43871 11.1806 7.22581 13.8968C7.20645 14.1355 7.36129 14.3613 7.59355 14.4323ZM17.9161 14.4323C18.1419 14.5032 18.3935 14.4 18.5161 14.1935L19.129 13.0968C19.6258 12.2129 20.3677 11.7032 21.1613 11.7032C21.9548 11.7032 22.6968 12.2129 23.1935 13.0968L23.8065 14.1935C23.9419 14.4323 24.2065 14.4968 24.4065 14.4323C24.6387 14.3613 24.7935 14.1419 24.7742 13.8968C24.5613 11.1806 22.6968 9.29032 21.1613 9.29032C19.6258 9.29032 17.7613 11.1806 17.5484 13.8968C17.529 14.1355 17.6839 14.3613 17.9161 14.4323Z" fill="#0165E1" /></svg>