<svg width="32" height="32" viewBox="0 0 32 32" fill="none" xmlns="http://www.w3.org/2000/svg">
 <path  d= "M9.80645 11.0968C8.14839 11.0968 6.2 12.1871 5.94839 13.8129C5.89677 14.1355 6.05806 14.4581 6.34194 14.6129C6.62581 14.7677 6.98065 14.729 7.22581 14.5097L7.83871 13.9613C8.79355 13.1097 10.8194 13.1097 11.7742 13.9613L12.3871 14.5097C12.5484 14.6516 12.9032 14.8129 13.271 14.6129C13.5548 14.4581 13.7161 14.1355 13.6645 13.8129C13.4129 12.1871 11.4645 11.0968 9.80645 11.0968ZM21.1613 7.74194C18.3097 7.74194 16 10.0516 16 12.9032C16 15.7548 18.3097 18.0645 21.1613 18.0645C24.0129 18.0645 26.3226 15.7548 26.3226 12.9032C26.3226 10.0516 24.0129 7.74194 21.1613 7.74194ZM21.1613 16C19.4516 16 18.0645 14.6129 18.0645 12.9032C18.0645 11.1935 19.4516 9.80645 21.1613 9.80645C22.871 9.80645 24.2581 11.1935 24.2581 12.9032C24.2581 14.6129 22.871 16 21.1613 16ZM21.1613 11.3548C20.3032 11.3548 19.6129 12.0452 19.6129 12.9032C19.6129 13.7613 20.3032 14.4516 21.1613 14.4516C22.0194 14.4516 22.7097 13.7613 22.7097 12.9032C22.7097 12.0452 22.0194 11.3548 21.1613 11.3548ZM16 0C7.16129 0 0 7.16129 0 16C0 24.8387 7.16129 32 16 32C24.8387 32 32 24.8387 32 16C32 7.16129 24.8387 0 16 0ZM20.129 25.8065C20.129 28.1032 18.2516 29.9677 15.9419 29.9355C13.6774 29.9032 11.871 28.0129 11.871 25.7419V22.9806L13.0129 22.4129C13.9806 21.929 15.0452 22.5226 15.2645 23.4774L15.4452 24.2581C15.5806 24.8516 16.4258 24.8516 16.5613 24.2581L16.7419 23.4774C16.9613 22.5226 18.0194 21.9226 18.9935 22.4129L20.1355 22.9806V25.8065H20.129ZM21.9484 27.4387C22.0903 26.9161 22.1935 26.3742 22.1935 25.8065V23C23.1097 22.2 23.7677 21.2258 23.9548 20.129C24.0645 19.4903 23.4581 18.9355 22.8129 19.1419C21.1419 19.6774 18.6581 19.9871 16 19.9871C13.3419 19.9871 10.8645 19.6774 9.1871 19.1419C8.54839 18.9419 7.93548 19.4839 8.04516 20.129C8.23226 21.2258 8.89032 22.2 9.80645 23V25.8065C9.80645 26.3742 9.90968 26.9161 10.0516 27.4387C5.92258 25.2839 3.09677 20.9677 3.09677 16C3.09677 8.88387 8.88387 3.09677 16 3.09677C23.1161 3.09677 28.9032 8.88387 28.9032 16C28.9032 20.9677 26.0774 25.2839 21.9484 27.4387Z" fill="#0165E1" /></svg>