<svg width="32" height="32" viewBox="0 0 32 32" fill="none" xmlns="http://www.w3.org/2000/svg">
 <path  d= "M16 0C7.16129 0 0 7.16129 0 16C0 24.8387 7.16129 32 16 32C24.8387 32 32 24.8387 32 16C32 7.16129 24.8387 0 16 0ZM16 28.9032C8.88387 28.9032 3.09677 23.1161 3.09677 16C3.09677 8.88387 8.88387 3.09677 16 3.09677C23.1161 3.09677 28.9032 8.88387 28.9032 16C28.9032 23.1161 23.1161 28.9032 16 28.9032ZM22.8129 19.1355C21.1419 19.671 18.6581 19.9806 16 19.9806C13.3419 19.9806 10.8645 19.671 9.1871 19.1355C8.55484 18.9355 7.93548 19.4774 8.04516 20.1226C8.55484 23.1677 12.6452 25.2839 16 25.2839C19.3548 25.2839 23.4387 23.1613 23.9548 20.1226C24.0581 19.4903 23.4581 18.9355 22.8129 19.1355ZM8.10968 15.4258C8.04516 15.8258 8.45806 16.1355 8.81936 15.9355L10.8387 14.8839L12.8581 15.9355C13.2194 16.1355 13.6323 15.8258 13.5677 15.4258L13.1806 13.1742L14.8194 11.5871C15.1097 11.2968 14.9419 10.8 14.5419 10.7355L12.2903 10.4129L11.2903 8.37419C11.1032 8 10.5806 8 10.3935 8.37419L9.39355 10.4129L7.14194 10.7355C6.74194 10.7935 6.56774 11.2903 6.86452 11.5871L8.50323 13.1742L8.10968 15.4258ZM24.8645 10.7355L22.6129 10.4129L21.6129 8.37419C21.4258 8 20.9032 8 20.7161 8.37419L19.7161 10.4129L17.4645 10.7355C17.0645 10.7935 16.8903 11.2903 17.1871 11.5871L18.8258 13.1742L18.4387 15.4258C18.3742 15.8258 18.7871 16.1355 19.1484 15.9355L21.1677 14.8839L23.1871 15.9355C23.5484 16.1355 23.9613 15.8258 23.8968 15.4258L23.5097 13.1742L25.1484 11.5871C25.4387 11.2903 25.2645 10.8 24.8645 10.7355Z" fill="#0165E1" /></svg>