<svg width="32" height="28" viewBox="0 0 32 28" fill="none" xmlns="http://www.w3.org/2000/svg">
 <path  d= "M26.8 6.6H21.4139C21.5047 6.13887 21.5503 5.66998 21.5499 5.2C21.5499 2.20537 19.3579 0 15.7999 0C12.9678 0 12.2373 3.03356 11.0682 4.924C10.5848 5.69981 10.0061 6.38131 9.45256 7.00231L9.44438 7.01144L9.43631 7.02069C8.47888 8.11294 7.98525 8.5 7.55 8.5H7.38256C7.02338 8.1905 6.53656 8 6.00006 8H2C0.895437 8 0 8.80587 0 9.8V24.2C0 25.1941 0.895437 26 2 26H6C6.5365 26 7.02331 25.8095 7.3825 25.5H7.54994C9.34294 25.5 11.746 28 15.4999 28H16.8311C20.74 28 23.0061 25.5839 23.0774 22.3034C23.8575 21.1901 24.2331 19.7544 24.0764 18.379C24.299 17.942 24.4656 17.4787 24.572 17H26.8C29.6397 17 32 14.651 32 11.8C32 8.98131 29.6187 6.6 26.8 6.6ZM26.8 14H21.1109C21.9132 14.9168 22.0118 16.6766 20.8015 17.8156C21.5032 19.0435 20.9069 20.6671 19.9937 21.1672C20.4014 23.6127 19.3639 25 16.8312 25H15.5C12.6568 25 10.6744 22.7554 8 22.5203V11.4732C9.57744 11.2879 10.6854 10.1468 11.6922 8.99844C12.3969 8.20781 13.05 7.41719 13.6171 6.50625C14.5222 5.0445 15.2504 3 15.8 3C17.2609 3 18.55 3.55 18.55 5.2C18.55 7.4 16.9 8.51719 16.9 9.6H26.8C27.9516 9.6 29 10.6313 29 11.8C29 12.9859 27.9859 14 26.8 14ZM5.5 22C5.5 22.8284 4.82844 23.5 4 23.5C3.17156 23.5 2.5 22.8284 2.5 22C2.5 21.1716 3.17156 20.5 4 20.5C4.82844 20.5 5.5 21.1716 5.5 22Z" fill="#0165E1" /></svg>