<svg width="28" height="32" viewBox="0 0 28 32" fill="none" xmlns="http://www.w3.org/2000/svg">
 <path  d= "M23.2855 7.04007V6.36351C23.2855 3.63776 20.753 1.57033 18.0956 2.26689C16.4938 -0.826849 12.215 -0.698724 10.7218 2.31358C8.14177 1.65352 5.57146 3.62158 5.57146 6.37501V14.2581C4.3244 13.7939 2.86472 13.9414 1.69128 14.8125C-0.143399 16.1748 -0.545835 18.7708 0.781911 20.6346L8.27995 31.1605C8.46491 31.4201 8.70925 31.6318 8.99259 31.7778C9.27593 31.9238 9.59007 32 9.90883 32H23.8399C24.7713 32 25.5795 31.3569 25.7887 30.4492L27.6752 22.2643C27.8908 21.3283 27.9997 20.3708 27.9999 19.4102V11.1875C27.9999 8.64875 25.7797 6.68801 23.2855 7.04007ZM24.9997 19.4102C24.9997 20.1433 24.9163 20.877 24.7519 21.5905L23.0441 28.9999H10.4241L3.22441 18.8939C2.32197 17.627 4.16334 16.2204 5.06153 17.4811L6.75702 19.861C7.31921 20.6502 8.57145 20.254 8.57145 19.2808V6.37501C8.57145 4.7722 10.8571 4.82439 10.8571 6.41819V16C10.8571 16.5523 11.3048 17 11.8571 17H12.2856C12.8379 17 13.2856 16.5523 13.2856 16V4.18751C13.2856 2.58358 15.5713 2.63689 15.5713 4.2307V16C15.5713 16.5523 16.019 17 16.5713 17H16.9998C17.5521 17 17.9998 16.5523 17.9998 16V6.32032C17.9998 4.71582 20.2854 4.7697 20.2854 6.36351V16C20.2854 16.5523 20.7331 17 21.2854 17H21.714C22.2663 17 22.714 16.5523 22.714 16V11.2307C22.714 9.59056 24.9996 9.62819 24.9996 11.1875V19.4102H24.9997Z" fill="#0165E1" /></svg>