<svg width="32" height="28" viewBox="0 0 32 28" fill="none" xmlns="http://www.w3.org/2000/svg">
 <path  d= "M0 11.8C0 14.651 2.36032 17 5.20001 17H7.42795C7.5344 17.4787 7.70091 17.9421 7.92352 18.379C7.76683 19.7544 8.14245 21.1902 8.92258 22.3035C8.99377 25.5839 11.26 28.0001 15.1688 28.0001H16.5C20.254 28.0001 22.657 25.5 24.45 25.5H24.6175C24.9767 25.8096 25.4635 26.0001 26 26.0001H30C31.1046 26.0001 32 25.1942 32 24.2V9.80002C32 8.80589 31.1046 8.00002 30 8.00002H26C25.4635 8.00002 24.9767 8.19052 24.6175 8.50002H24.45C24.0148 8.50002 23.5212 8.11295 22.5636 7.02076L22.5555 7.01151L22.5474 7.00239C21.9939 6.38132 21.4151 5.69982 20.9317 4.92407C19.7627 3.03357 19.0322 0 16.2 0C12.642 0 10.45 2.20538 10.45 5.20001C10.45 5.70164 10.5009 6.16808 10.586 6.60001H5.20001C2.38132 6.60001 0 8.98133 0 11.8ZM3.00001 11.8C3.00001 10.6313 4.04845 9.60002 5.20001 9.60002H15.1C15.1 8.5172 13.45 7.40001 13.45 5.20001C13.45 3.55001 14.7391 3.00001 16.2 3.00001C16.7497 3.00001 17.4778 5.04451 18.3829 6.50626C18.95 7.4172 19.6032 8.20783 20.3079 8.99846C21.3147 10.1468 22.4226 11.288 24 11.4732V22.5202C21.3257 22.7555 19.3432 25 16.5 25H15.1688C12.6361 25 11.5986 23.6127 12.0063 21.1672C11.093 20.6672 10.4968 19.0435 11.1985 17.8157C9.98814 16.6766 10.0868 14.9168 10.8891 14H5.20001C4.01407 14 3.00001 12.986 3.00001 11.8ZM28.0001 20.5C28.8285 20.5 29.5001 21.1716 29.5001 22C29.5001 22.8285 28.8285 23.5 28.0001 23.5C27.1716 23.5 26.5001 22.8285 26.5001 22C26.5001 21.1716 27.1716 20.5 28.0001 20.5Z" fill="#0165E1" /></svg>