<svg width="32" height="32" viewBox="0 0 32 32" fill="none" xmlns="http://www.w3.org/2000/svg">
 <path  d= "M1.31848 23.8618L9.38673 31.4564C9.75773 31.8056 10.248 32 10.7575 32H25.6075C26.4931 32 27.2733 31.4176 27.525 30.5685L29.5134 23.8615C29.7118 23.1925 29.8125 22.4984 29.8125 21.8007V19.4982C29.8125 19.245 29.8422 18.9917 29.9009 18.7454L31.884 10.4073C32.5152 7.75653 30.4892 5.23615 27.7875 5.24946C27.5285 3.69596 26.3785 2.30165 24.6719 1.87496C22.4342 1.31546 20.1577 2.6659 19.5937 4.92184L18.5374 11.5L17.1827 3.25059C16.6649 0.996212 14.4138 -0.410163 12.1637 0.107087C10.3127 0.532337 9.03011 2.1314 8.92111 3.93803C6.25629 3.98996 4.33017 6.47321 4.91667 9.05328L6.85667 17.585C5.15704 16.1778 2.65142 16.3355 1.13904 17.9427C-0.446956 19.6277 -0.367081 22.2755 1.31848 23.8618ZM3.32273 19.9987L3.32286 19.9986C3.77404 19.5191 4.52542 19.4998 5.00136 19.9478L8.31461 23.0662C8.95154 23.6655 9.99998 23.2125 9.99998 22.3378V17.9954C9.99998 17.9208 9.99161 17.8465 9.97517 17.7738L7.84204 8.38803C7.49229 6.84946 9.81092 6.33428 10.1579 7.86171L12.0579 16.2215C12.1081 16.4426 12.232 16.64 12.4092 16.7815C12.5863 16.9229 12.8063 16.9999 13.033 16.9999H13.5708C14.213 16.9999 14.6892 16.402 14.5454 15.776L11.9442 4.4539C11.5927 2.92459 13.906 2.38665 14.2589 3.92215L17.0851 16.2239C17.1358 16.4445 17.2598 16.6413 17.4368 16.7823C17.6138 16.9232 17.8334 17 18.0597 17H18.8858C19.1088 17 19.3254 16.9254 19.5012 16.7882C19.677 16.6509 19.8018 16.4589 19.8559 16.2425L22.5042 5.6494C22.8857 4.12303 25.1893 4.70196 24.8082 6.22546L22.4253 15.7575C22.2677 16.388 22.745 17 23.3954 17H24.0013C24.2262 17 24.4446 16.9241 24.6211 16.7847C24.7977 16.6452 24.922 16.4504 24.9741 16.2315L26.6568 9.16246C27.0206 7.63446 29.3316 8.18203 28.9672 9.71259L26.9825 18.0506C26.8696 18.5249 26.8126 19.0107 26.8125 19.4982V21.8007C26.8125 22.2099 26.7535 22.6163 26.6372 23.0087L24.8609 29H11.154L3.37361 21.6772C2.89679 21.2285 2.87398 20.4754 3.32273 19.9987Z" fill="#0165E1" /></svg>