<svg width="32" height="26" viewBox="0 0 32 26" fill="none" xmlns="http://www.w3.org/2000/svg">
 <path  d= "M30.927 14.919L22.796 2.37938C22.0556 1.23732 20.8009 0.555542 19.4398 0.555542H3.11111C1.39561 0.555542 0 1.95121 0 3.66665V4.1111C0 6.56176 1.99378 8.55554 4.44444 8.55554H15.3357L14.3172 11.2222H8C5.30428 11.2222 3.11111 13.4154 3.11111 16.1111C3.11111 17.8266 4.50672 19.2222 6.22222 19.2222H13.5307C13.6966 19.2222 13.8592 19.2527 14.0138 19.3128L19.5556 21.4677V25.4444H32V18.546C32 17.2558 31.6289 16.0015 30.927 14.919ZM29.3333 22.7778H22.2222V21.4677C22.2222 20.3594 21.5548 19.3839 20.522 18.9823L14.9803 16.8274C14.5182 16.6474 14.0266 16.5552 13.5307 16.5555H6.22222C5.97717 16.5555 5.77778 16.3562 5.77778 16.1111C5.77778 14.8858 6.77467 13.8889 8 13.8889H14.3172C15.4153 13.8889 16.4164 13.1996 16.8083 12.1737L18.1723 8.60254C18.6721 7.29404 17.7041 5.88888 16.3039 5.88888H4.44444C3.46417 5.88888 2.66667 5.09138 2.66667 4.1111V3.66665C2.66667 3.4216 2.86606 3.22221 3.11111 3.22221H19.4398C19.8935 3.22221 20.3117 3.44943 20.5586 3.8301L28.6896 16.3698C29.1102 17.0176 29.3338 17.7736 29.3333 18.546V22.7778Z" fill="#0165E1" /></svg>