<svg width="32" height="28" viewBox="0 0 32 28" fill="none" xmlns="http://www.w3.org/2000/svg">
 <path  d= "M25.554 2.94073C24.1539 0.822106 21.4222 0.298668 19.3782 1.46648C17.5361 -0.500332 14.4316 -0.476832 12.6073 1.46511C9.65981 -0.223644 5.81294 1.78104 5.69037 5.26548C2.80287 4.58792 0 6.75004 0 9.71429V13.2739C0 15.3202 0.8925 17.271 2.44875 18.626L8.55562 23.9435C8.82137 24.1749 8.75 24.2919 8.75 26C8.75 27.1045 9.64544 28 10.75 28H26.5C27.6046 28 28.5 27.1045 28.5 26C28.5 24.5304 28.4366 24.0784 28.7489 23.3519L31.4261 17.1234C31.8069 16.2373 32 15.3001 32 14.3379V7.18517C32 3.88273 28.6054 1.64379 25.554 2.94073ZM29 14.3379C29.0004 14.8884 28.8881 15.4332 28.6699 15.9387L25.9927 22.1671C25.6658 22.9278 25.5 23.7321 25.5 24.5577V25H11.75V24.3571C11.75 23.334 11.3038 22.3585 10.5256 21.681L4.41875 16.3635C3.51712 15.5784 3 14.4522 3 13.2738V9.71423C3 7.63873 6.25 7.61817 6.25 9.75654V12.3333C6.25 12.4762 6.28064 12.6175 6.33986 12.7476C6.39908 12.8777 6.48551 12.9936 6.59331 13.0875L7.03081 13.4684C7.17554 13.5944 7.35348 13.6762 7.54338 13.7038C7.73328 13.7315 7.92713 13.7039 8.1018 13.6244C8.27646 13.5449 8.42456 13.4168 8.52841 13.2554C8.63227 13.0941 8.68749 12.9062 8.6875 12.7143V5.42854C8.6875 3.35998 11.9375 3.32073 11.9375 5.47086V7.14279C11.9375 7.69504 12.3853 8.14279 12.9375 8.14279H13.375C13.9272 8.14279 14.375 7.69504 14.375 7.14279V4.57136C14.375 2.50048 17.625 2.46667 17.625 4.61367V7.14279C17.625 7.69504 18.0727 8.14279 18.625 8.14279H19.0625C19.6148 8.14279 20.0625 7.69504 20.0625 7.14279V5.42848C20.0625 3.36411 23.3125 3.31723 23.3125 5.47079V7.14273C23.3125 7.69498 23.7602 8.14273 24.3125 8.14273H24.75C25.3023 8.14273 25.75 7.69498 25.75 7.14273C25.75 5.07111 29 5.04192 29 7.18504V14.3379Z" fill="#0165E1" /></svg>