<svg width="28" height="32" viewBox="0 0 28 32" fill="none" xmlns="http://www.w3.org/2000/svg">
 <path  d= "M6.60001 5.20001V10.5861C6.13888 10.4953 5.66999 10.4497 5.20001 10.4501C2.20538 10.4501 0 12.6421 0 16.2001C0 19.0322 3.03357 19.7627 4.92401 20.9318C5.69982 21.4152 6.38133 21.9939 7.00233 22.5475L7.01145 22.5557L7.0207 22.5637C8.11295 23.5212 8.50002 24.0148 8.50002 24.45V24.6175C8.19052 24.9767 8.00002 25.4635 8.00002 26V30C8.00002 31.1046 8.80589 32 9.80002 32H24.2C25.1942 32 26.0001 31.1046 26.0001 30V26C26.0001 25.4635 25.8096 24.9767 25.5 24.6175V24.45C25.5 22.657 28.0001 20.254 28.0001 16.5V15.1688C28.0001 11.26 25.5839 8.99383 22.3035 8.92258C21.1902 8.14245 19.7544 7.76689 18.379 7.92352C17.9421 7.70091 17.4787 7.5344 17 7.42795V5.20001C17 2.36032 14.651 0 11.8 0C8.98133 0 6.60001 2.38132 6.60001 5.20001ZM14 5.20001V10.8891C14.9168 10.0868 16.6766 9.98821 17.8157 11.1985C19.0435 10.4968 20.6672 11.0931 21.1672 12.0063C23.6127 11.5986 25 12.6361 25 15.1688V16.5C25 19.3432 22.7555 21.3257 22.5203 24H11.4732C11.288 22.4226 10.1468 21.3147 8.99846 20.3079C8.20783 19.6032 7.4172 18.95 6.50626 18.3829C5.04451 17.4778 3.00001 16.7497 3.00001 16.2C3.00001 14.7391 3.55001 13.45 5.20001 13.45C7.40001 13.45 8.5172 15.1 9.60002 15.1V5.20001C9.60002 4.04845 10.6313 3.00001 11.8 3.00001C12.986 3.00001 14 4.01407 14 5.20001ZM22 26.5001C22.8285 26.5001 23.5 27.1716 23.5 28.0001C23.5 28.8285 22.8285 29.5001 22 29.5001C21.1716 29.5001 20.5 28.8285 20.5 28.0001C20.5 27.1716 21.1716 26.5001 22 26.5001Z" fill="#0165E1" /></svg>