<svg width="28" height="32" viewBox="0 0 28 32" fill="none" xmlns="http://www.w3.org/2000/svg">
 <path  d= "M22.3864 11.2101C21.1681 9.66206 19.0939 9.2135 17.3944 10.0164C16.4489 9.036 15.133 8.611 13.8572 8.78963V4.1875C13.8572 1.8785 11.9987 0 9.71432 0C7.42995 0 5.57145 1.8785 5.57145 4.1875V14.2581C4.32714 13.7949 2.86695 13.9397 1.69126 14.8126C-0.143426 16.1748 -0.545801 18.7709 0.781886 20.6346L7.63807 30.2596C8.41451 31.3494 9.67132 32 11 32H22.1429C24.068 32 25.7413 30.6562 26.1777 28.7627L27.892 21.3253C27.9637 21.0136 27.9999 20.6948 28 20.375V15.125C28 12.1973 25.0859 10.1704 22.3864 11.2101ZM5.06157 17.4811L6.75695 19.861C7.31914 20.6501 8.57139 20.2539 8.57139 19.2808V4.1875C8.57139 2.6175 10.8571 2.615 10.8571 4.1875V15.125C10.8571 15.6772 11.3048 16.125 11.8571 16.125H12.2856C12.8379 16.125 13.2856 15.6772 13.2856 15.125V12.9375C13.2856 11.3675 15.5713 11.365 15.5713 12.9375V15.125C15.5713 15.6772 16.019 16.125 16.5713 16.125H17C17.5523 16.125 18 15.6772 18 15.125V13.8125C18 12.2425 20.2857 12.24 20.2857 13.8125V15.125C20.2857 15.6772 20.7334 16.125 21.2857 16.125H21.7143C22.2666 16.125 22.7143 15.6772 22.7143 15.125C22.7143 13.5549 24.9999 13.5525 24.9999 15.125V20.375C24.9999 20.468 24.9894 20.5611 24.9686 20.6514L23.2542 28.089C23.1306 28.6254 22.6736 29 22.1428 29H11C10.6394 29 10.2961 28.8201 10.0814 28.5189L3.22445 18.8939C2.32407 17.63 4.16157 16.2178 5.06157 17.4811ZM11.0089 25V19C11.0089 18.4477 11.4007 18 11.8839 18H12.2589C12.7422 18 13.1339 18.4477 13.1339 19V25C13.1339 25.5523 12.7422 26 12.2589 26H11.8839C11.4006 26 11.0089 25.5523 11.0089 25ZM15.7232 25V19C15.7232 18.4477 16.115 18 16.5982 18H16.9732C17.4564 18 17.8482 18.4477 17.8482 19V25C17.8482 25.5523 17.4564 26 16.9732 26H16.5982C16.115 26 15.7232 25.5523 15.7232 25ZM20.4375 25V19C20.4375 18.4477 20.8293 18 21.3125 18H21.6875C22.1708 18 22.5625 18.4477 22.5625 19V25C22.5625 25.5523 22.1708 26 21.6875 26H21.3125C20.8293 26 20.4375 25.5523 20.4375 25Z" fill="#0165E1" /></svg>