<svg width="28" height="32" viewBox="0 0 28 32" fill="none" xmlns="http://www.w3.org/2000/svg">
 <path  d= "M11.8 32C14.651 32 17 29.6397 17 26.8V24.5721C17.4787 24.4656 17.942 24.2991 18.379 24.0765C19.7544 24.2332 21.1901 23.8576 22.3034 23.0774C25.5839 23.0063 28 20.7401 28 16.8312V15.5C28 11.7461 25.5 9.343 25.5 7.55V7.38256C25.8095 7.02338 26 6.53656 26 6.00006V2C26 0.895437 25.1941 0 24.2 0H9.8C8.80587 0 8 0.895437 8 2V6C8 6.5365 8.1905 7.02331 8.5 7.3825V7.54994C8.5 7.98519 8.11294 8.47881 7.02075 9.43637L7.0115 9.44444L7.00238 9.45263C6.38131 10.0061 5.69981 10.5849 4.92406 11.0683C3.03356 12.2374 0 12.9679 0 15.8C0 19.358 2.20537 21.55 5.2 21.55C5.70162 21.55 6.16806 21.4991 6.6 21.414V26.8C6.6 29.6187 8.98131 32 11.8 32ZM11.8 29C10.6313 29 9.6 27.9516 9.6 26.8V16.9C8.51719 16.9 7.4 18.55 5.2 18.55C3.55 18.55 3 17.2609 3 15.8C3 15.2504 5.0445 14.5222 6.50625 13.6171C7.41719 13.05 8.20781 12.3969 8.99844 11.6922C10.1468 10.6854 11.288 9.57744 11.4732 8H22.5202C22.7554 10.6744 25 12.6568 25 15.5V16.8312C25 19.3639 23.6127 20.4014 21.1672 19.9937C20.6671 20.907 19.0435 21.5032 17.8156 20.8016C16.6766 22.0119 14.9168 21.9132 14 21.1109V26.8C14 27.9859 12.9859 29 11.8 29ZM20.5 4C20.5 3.17156 21.1716 2.5 22 2.5C22.8284 2.5 23.5 3.17156 23.5 4C23.5 4.82844 22.8284 5.5 22 5.5C21.1716 5.5 20.5 4.82844 20.5 4Z" fill="#0165E1" /></svg>