<svg width="32" height="28" viewBox="0 0 32 28" fill="none" xmlns="http://www.w3.org/2000/svg">
 <path  d= "M16 28L20.375 27.9992C20.6946 27.9992 21.0144 27.9628 21.3252 27.8911L28.7626 26.177C30.66 25.7397 32 24.0638 32 22.1423V9.28596C32 7.79565 31.1856 6.41402 29.8747 5.68033L23.7498 2.25202C21.5992 1.04821 19.5458 1.88802 17.9861 3.79783L8.92813 0.313022C6.56019 -0.598166 3.88987 0.545959 2.9505 2.88808C2.00688 5.24071 3.17769 7.91121 5.57188 8.83258L10.5 10L4.625 9.42871C2.07475 9.42871 0 11.4794 0 14C0 16.5206 2.07475 18.5713 4.625 18.5713H10.1022C9.8725 20.2116 10.6454 21.7773 11.9985 22.6341C11.1661 25.2961 13.1903 28 16 28ZM16 24.9992C14.4275 24.9992 14.43 22.7138 16 22.7138C16.5523 22.7138 17 22.2661 17 21.7138V21.2853C17 20.733 16.5523 20.2853 16 20.2853H14.25C12.6776 20.2853 12.6799 17.9998 14.25 17.9998H16C16.5523 17.9998 17 17.5521 17 16.9998V16.5713C17 16.019 16.5523 15.5713 16 15.5713H4.625C2.47312 15.5713 2.47656 12.4288 4.625 12.4288H16C16.5523 12.4288 17 11.9811 17 11.4288V10.7018C17 10.4997 16.9388 10.3023 16.8244 10.1357C16.71 9.96908 16.5478 9.84104 16.3591 9.76846L6.64931 6.0319C4.67731 5.27315 5.80981 2.32671 7.85069 3.11208L18.26 7.11777C18.4566 7.19341 18.672 7.20505 18.8756 7.15104C19.0791 7.09704 19.2605 6.98014 19.3937 6.81702L20.7539 5.15158C21.1177 4.70615 21.7757 4.58508 22.2844 4.86983L28.4094 8.29821C28.7737 8.50215 29 8.88058 29 9.28602V22.1423C29 22.673 28.6254 23.1301 28.089 23.2537L20.6514 24.9679C20.5608 24.9887 20.468 24.9993 20.375 24.9993H16V24.9992Z" fill="#0165E1" /></svg>