<svg width="32" height="20" viewBox="0 0 32 20" fill="none" xmlns="http://www.w3.org/2000/svg">
 <path  d= "M25.96 3.59502L23.58 1.21502C23.0533 0.692935 22.3416 0.400019 21.6 0.400024H10.26C9.52 0.400024 8.805 0.695025 8.28 1.21502L5.9 3.59502H0V16.38H3.2C4.08 16.38 4.79 15.67 4.795 14.795H5.25L9.48 18.615C11.025 19.87 13.17 19.9 14.76 18.805C15.385 19.345 16.06 19.6 16.815 19.6C17.725 19.6 18.58 19.23 19.255 18.4C20.36 18.835 21.665 18.53 22.455 17.56L23.765 15.945C24.045 15.6 24.22 15.205 24.31 14.795H27.205C27.21 15.67 27.925 16.38 28.8 16.38H32V3.59502H25.96ZM2.4 14.78C1.96 14.78 1.6 14.42 1.6 13.98C1.6 13.54 1.96 13.18 2.4 13.18C2.84 13.18 3.2 13.54 3.2 13.98C3.2 14.425 2.84 14.78 2.4 14.78ZM21.9 14.435L20.595 16.045C20.455 16.215 20.205 16.245 20.03 16.105L18.835 15.135L17.335 16.96C17.035 17.325 16.585 17.2 16.435 17.08L14.595 15.505L13.815 16.465C13.12 17.32 11.855 17.45 11.05 16.795L6.185 12.395H4.8V5.99002H6.895L9.98 2.91002C10.08 2.87002 10.165 2.83502 10.265 2.79502H13.1L11.165 4.57002C9.695 5.91502 9.61 8.18502 10.945 9.63503C11.685 10.445 14.005 11.695 16.02 9.85503L16.43 9.48003L21.84 13.87C22.01 14.01 22.035 14.265 21.9 14.435ZM27.2 12.395H23.74C23.625 12.255 23.495 12.125 23.355 12.01L18.22 7.84002L18.845 7.27002C19.17 6.97002 19.195 6.46502 18.895 6.14002L18.35 5.55503C18.05 5.23002 17.545 5.21002 17.22 5.50502L14.46 8.03502C13.985 8.47002 13.175 8.50502 12.73 8.03502C12.265 7.54002 12.305 6.78003 12.79 6.34002L16.07 3.33502C16.44 2.99502 16.92 2.81002 17.42 2.81002L21.605 2.80002C21.71 2.80002 21.81 2.84002 21.88 2.91502L24.965 5.99502H27.2V12.395ZM29.6 14.78C29.16 14.78 28.8 14.42 28.8 13.98C28.8 13.54 29.16 13.18 29.6 13.18C30.04 13.18 30.4 13.54 30.4 13.98C30.4 14.425 30.04 14.78 29.6 14.78Z" fill="#0165E1" /></svg>