<svg width="32" height="22" viewBox="0 0 32 22" fill="none" xmlns="http://www.w3.org/2000/svg">
 <path  d= "M31.5224 9.86904L25.6846 1.47721C25.439 1.12415 25.1117 0.835735 24.7305 0.636562C24.3493 0.43739 23.9256 0.33337 23.4955 0.333374H8.5045C8.07442 0.33337 7.65072 0.43739 7.26953 0.636562C6.88835 0.835735 6.56099 1.12415 6.31539 1.47721L0.477611 9.86904C0.166671 10.316 6.29189e-07 10.8474 0 11.3919L0 19C0 20.4728 1.19389 21.6667 2.66667 21.6667H29.3333C30.8061 21.6667 32 20.4728 32 19V11.3919C32 10.8474 31.8333 10.316 31.5224 9.86904ZM8.5045 3.00004H23.4955L27.824 9.22226H4.176L8.5045 3.00004ZM29.3333 19H2.66667V11.8889H29.3333V19ZM27.5556 15.4445C27.5556 16.4263 26.7596 17.2223 25.7778 17.2223C24.7959 17.2223 24 16.4263 24 15.4445C24 14.4627 24.7959 13.6667 25.7778 13.6667C26.7596 13.6667 27.5556 14.4627 27.5556 15.4445ZM22.2222 15.4445C22.2222 16.4263 21.4263 17.2223 20.4444 17.2223C19.4626 17.2223 18.6667 16.4263 18.6667 15.4445C18.6667 14.4627 19.4626 13.6667 20.4444 13.6667C21.4263 13.6667 22.2222 14.4627 22.2222 15.4445Z" fill="#0165E1" /></svg>