<svg width="32" height="30" viewBox="0 0 32 30" fill="none" xmlns="http://www.w3.org/2000/svg">
 <path  d= "M28.65 3.01633C25.0375 -0.0211637 19.4562 0.435086 16 3.95383C12.5437 0.435086 6.9625 -0.0274138 3.35 3.01633C-1.34999 6.97258 -0.662492 13.4226 2.68751 16.8413L13.65 28.0101C14.275 28.6476 15.1125 29.0038 16 29.0038C16.8937 29.0038 17.725 28.6538 18.35 28.0163L29.3125 16.8476C32.6562 13.4288 33.3562 6.97883 28.65 3.01633ZM27.175 14.7351L16.2125 25.9038C16.0625 26.0538 15.9375 26.0538 15.7875 25.9038L4.825 14.7351C2.54376 12.4101 2.08126 8.01008 5.28125 5.31633C7.7125 3.27258 11.4625 3.57883 13.8125 5.97258L16 8.20383L18.1875 5.97258C20.55 3.56633 24.3 3.27258 26.7187 5.31008C29.9125 8.00383 29.4375 12.4288 27.175 14.7351Z" fill="#0165E1" /></svg>