<svg width="24" height="32" viewBox="0 0 24 32" fill="none" xmlns="http://www.w3.org/2000/svg">
 <path  d= "M23 3H23.25C23.6642 3 24 2.66419 24 2.25V0.75C24 0.335813 23.6642 0 23.25 0H0.75C0.335813 0 0 0.335813 0 0.75V2.25C0 2.66419 0.335813 3 0.75 3H1C1 8.03525 3.01175 13.3629 7.07375 16C2.99369 18.6488 1 23.9937 1 29H0.75C0.335813 29 0 29.3358 0 29.75V31.25C0 31.6642 0.335813 32 0.75 32H23.25C23.6642 32 24 31.6642 24 31.25V29.75C24 29.3358 23.6642 29 23.25 29H23C23 23.9648 20.9883 18.6371 16.9263 16C21.0064 13.3512 23 8.00625 23 3ZM4 3H20C20 9.35125 16.4183 14.5 12 14.5C7.58169 14.5 4 9.35131 4 3ZM20 29H4C4 22.6488 7.58175 17.5 12 17.5C16.4183 17.5 20 22.6488 20 29Z" fill="#0165E1" /></svg>