<svg width="32" height="26" viewBox="0 0 32 26" fill="none" xmlns="http://www.w3.org/2000/svg">
 <path  d= "M29.3333 0.555542H2.66667C1.19444 0.555542 0 1.74999 0 3.22221V22.7778C0 24.25 1.19444 25.4444 2.66667 25.4444H29.3333C30.8056 25.4444 32 24.25 32 22.7778V3.22221C32 1.74999 30.8056 0.555542 29.3333 0.555542ZM29.3333 22.7778H16.8444C16.8944 22.5278 16.8889 22.9778 16.8889 21.5333C16.8889 19.7667 15.2167 18.3333 13.1556 18.3333C12.5556 18.3333 12.1167 18.7778 10.6667 18.7778C9.17222 18.7778 8.81111 18.3333 8.17778 18.3333C6.11667 18.3333 4.44444 19.7667 4.44444 21.5333C4.44444 22.9778 4.43333 22.5278 4.48889 22.7778H2.66667V6.77776H29.3333V22.7778ZM20 18.3333H26.2222C26.4667 18.3333 26.6667 18.1333 26.6667 17.8889V17C26.6667 16.7555 26.4667 16.5555 26.2222 16.5555H20C19.7556 16.5555 19.5556 16.7555 19.5556 17V17.8889C19.5556 18.1333 19.7556 18.3333 20 18.3333ZM20 14.7778H26.2222C26.4667 14.7778 26.6667 14.5778 26.6667 14.3333V13.4444C26.6667 13.2 26.4667 13 26.2222 13H20C19.7556 13 19.5556 13.2 19.5556 13.4444V14.3333C19.5556 14.5778 19.7556 14.7778 20 14.7778ZM20 11.2222H26.2222C26.4667 11.2222 26.6667 11.0222 26.6667 10.7778V9.88888C26.6667 9.64443 26.4667 9.44443 26.2222 9.44443H20C19.7556 9.44443 19.5556 9.64443 19.5556 9.88888V10.7778C19.5556 11.0222 19.7556 11.2222 20 11.2222ZM10.6667 16.5555C12.6278 16.5555 14.2222 14.9611 14.2222 13C14.2222 11.0389 12.6278 9.44443 10.6667 9.44443C8.70556 9.44443 7.11111 11.0389 7.11111 13C7.11111 14.9611 8.70556 16.5555 10.6667 16.5555Z" fill="#0165E1" /></svg>