<svg width="32" height="26" viewBox="0 0 32 26" fill="none" xmlns="http://www.w3.org/2000/svg">
 <path  d= "M26.6667 21.8889V22.7778C26.6667 24.2505 25.4728 25.4444 24 25.4444H2.66667C1.19389 25.4444 0 24.2505 0 22.7778V8.55554C0 7.08276 1.19389 5.88888 2.66667 5.88888H3.55556V8.55554H3C2.91159 8.55554 2.82681 8.59066 2.7643 8.65317C2.70179 8.71568 2.66667 8.80047 2.66667 8.88888V22.4444C2.66667 22.5328 2.70179 22.6176 2.7643 22.6801C2.82681 22.7426 2.91159 22.7778 3 22.7778H23.6667C23.7551 22.7778 23.8399 22.7426 23.9024 22.6801C23.9649 22.6176 24 22.5328 24 22.4444V21.8889H26.6667ZM29 3.22221H8.33333C8.24493 3.22221 8.16014 3.25733 8.09763 3.31984C8.03512 3.38235 8 3.46714 8 3.55554V17.1111C8 17.1995 8.03512 17.2843 8.09763 17.3468C8.16014 17.4093 8.24493 17.4444 8.33333 17.4444H29C29.0884 17.4444 29.1732 17.4093 29.2357 17.3468C29.2982 17.2843 29.3333 17.1995 29.3333 17.1111V3.55554C29.3333 3.46714 29.2982 3.38235 29.2357 3.31984C29.1732 3.25733 29.0884 3.22221 29 3.22221ZM29.3333 0.555542C30.8061 0.555542 32 1.74943 32 3.22221V17.4444C32 18.9172 30.8061 20.1111 29.3333 20.1111H8C6.52722 20.1111 5.33333 18.9172 5.33333 17.4444V3.22221C5.33333 1.74943 6.52722 0.555542 8 0.555542H29.3333ZM14.6667 6.77776C14.6667 8.00504 13.6717 8.99999 12.4444 8.99999C11.2172 8.99999 10.2222 8.00504 10.2222 6.77776C10.2222 5.55049 11.2172 4.55554 12.4444 4.55554C13.6717 4.55554 14.6667 5.55049 14.6667 6.77776ZM10.6667 12.1111L12.8619 9.91582C13.1223 9.65549 13.5444 9.65549 13.8048 9.91582L16 12.1111L21.7508 6.36026C22.0112 6.09993 22.4333 6.09993 22.6937 6.36026L26.6667 10.3333V14.7778H10.6667V12.1111Z" fill="#0165E1" /></svg>