<svg width="32" height="22" viewBox="0 0 32 22" fill="none" xmlns="http://www.w3.org/2000/svg">
 <path  d= "M29.3333 0.333374H2.66667C1.19389 0.333374 0 1.52726 0 3.00004V19C0 20.4728 1.19389 21.6667 2.66667 21.6667H29.3333C30.8061 21.6667 32 20.4728 32 19V3.00004C32 1.52726 30.8061 0.333374 29.3333 0.333374ZM29.7778 19C29.7778 19.2451 29.5784 19.4445 29.3333 19.4445H2.66667C2.42161 19.4445 2.22222 19.2451 2.22222 19V3.00004C2.22222 2.75499 2.42161 2.5556 2.66667 2.5556H29.3333C29.5784 2.5556 29.7778 2.75499 29.7778 3.00004V19ZM9.44444 11.7778V10.2223C9.44444 9.8541 9.14594 9.5556 8.77778 9.5556H7.22222C6.85406 9.5556 6.55556 9.8541 6.55556 10.2223V11.7778C6.55556 12.146 6.85406 12.4445 7.22222 12.4445H8.77778C9.14594 12.4445 9.44444 12.146 9.44444 11.7778ZM14.7778 11.7778V10.2223C14.7778 9.8541 14.4793 9.5556 14.1111 9.5556H12.5556C12.1874 9.5556 11.8889 9.8541 11.8889 10.2223V11.7778C11.8889 12.146 12.1874 12.4445 12.5556 12.4445H14.1111C14.4793 12.4445 14.7778 12.146 14.7778 11.7778ZM20.1111 11.7778V10.2223C20.1111 9.8541 19.8126 9.5556 19.4444 9.5556H17.8889C17.5207 9.5556 17.2222 9.8541 17.2222 10.2223V11.7778C17.2222 12.146 17.5207 12.4445 17.8889 12.4445H19.4444C19.8126 12.4445 20.1111 12.146 20.1111 11.7778ZM25.4444 11.7778V10.2223C25.4444 9.8541 25.1459 9.5556 24.7778 9.5556H23.2222C22.8541 9.5556 22.5556 9.8541 22.5556 10.2223V11.7778C22.5556 12.146 22.8541 12.4445 23.2222 12.4445H24.7778C25.1459 12.4445 25.4444 12.146 25.4444 11.7778ZM6.77778 16.3334V14.7778C6.77778 14.4097 6.47928 14.1112 6.11111 14.1112H4.55556C4.18739 14.1112 3.88889 14.4097 3.88889 14.7778V16.3334C3.88889 16.7015 4.18739 17 4.55556 17H6.11111C6.47928 17 6.77778 16.7015 6.77778 16.3334ZM28.1111 16.3334V14.7778C28.1111 14.4097 27.8126 14.1112 27.4444 14.1112H25.8889C25.5207 14.1112 25.2222 14.4097 25.2222 14.7778V16.3334C25.2222 16.7015 25.5207 17 25.8889 17H27.4444C27.8126 17 28.1111 16.7015 28.1111 16.3334ZM6.77778 7.22226V5.66671C6.77778 5.29854 6.47928 5.00004 6.11111 5.00004H4.55556C4.18739 5.00004 3.88889 5.29854 3.88889 5.66671V7.22226C3.88889 7.59043 4.18739 7.88893 4.55556 7.88893H6.11111C6.47928 7.88893 6.77778 7.59043 6.77778 7.22226ZM12.1111 7.22226V5.66671C12.1111 5.29854 11.8126 5.00004 11.4444 5.00004H9.88889C9.52072 5.00004 9.22222 5.29854 9.22222 5.66671V7.22226C9.22222 7.59043 9.52072 7.88893 9.88889 7.88893H11.4444C11.8126 7.88893 12.1111 7.59043 12.1111 7.22226ZM17.4444 7.22226V5.66671C17.4444 5.29854 17.1459 5.00004 16.7778 5.00004H15.2222C14.8541 5.00004 14.5556 5.29854 14.5556 5.66671V7.22226C14.5556 7.59043 14.8541 7.88893 15.2222 7.88893H16.7778C17.1459 7.88893 17.4444 7.59043 17.4444 7.22226ZM22.7778 7.22226V5.66671C22.7778 5.29854 22.4793 5.00004 22.1111 5.00004H20.5556C20.1874 5.00004 19.8889 5.29854 19.8889 5.66671V7.22226C19.8889 7.59043 20.1874 7.88893 20.5556 7.88893H22.1111C22.4793 7.88893 22.7778 7.59043 22.7778 7.22226ZM28.1111 7.22226V5.66671C28.1111 5.29854 27.8126 5.00004 27.4444 5.00004H25.8889C25.5207 5.00004 25.2222 5.29854 25.2222 5.66671V7.22226C25.2222 7.59043 25.5207 7.88893 25.8889 7.88893H27.4444C27.8126 7.88893 28.1111 7.59043 28.1111 7.22226ZM22.6667 16V15.1112C22.6667 14.743 22.3682 14.4445 22 14.4445H10C9.63183 14.4445 9.33333 14.743 9.33333 15.1112V16C9.33333 16.3682 9.63183 16.6667 10 16.6667H22C22.3682 16.6667 22.6667 16.3682 22.6667 16Z" fill="#0165E1" /></svg>