<svg width="32" height="32" viewBox="0 0 32 32" fill="none" xmlns="http://www.w3.org/2000/svg">
 <path  d= "M16 0C7.16129 0 0 7.16129 0 16C0 24.8387 7.16129 32 16 32C24.8387 32 32 24.8387 32 16C32 7.16129 24.8387 0 16 0ZM16 29.9355C8.31613 29.9355 2.06452 23.6839 2.06452 16C2.06452 8.31613 8.31613 2.06452 16 2.06452C23.6839 2.06452 29.9355 8.31613 29.9355 16C29.9355 23.6839 23.6839 29.9355 16 29.9355ZM19.6129 19.3548C19.6129 18.1161 17.7548 16.6774 15 16.5161C14.7548 16.4903 14.5226 16.671 14.471 16.9161C14.4129 17.1613 14.5419 17.4129 14.7742 17.5097L15.8645 17.9742C16.7032 18.329 17.2065 18.8452 17.2065 19.3613C17.2065 19.8774 16.7032 20.3935 15.871 20.7484L14.7742 21.2129C14.4065 21.3677 14.3871 22 14.7742 22.1677L15.8645 22.6323C16.7032 22.9871 17.2065 23.5032 17.2065 24.0194C17.2065 24.5355 16.7032 25.0516 15.871 25.4065L14.7742 25.871C14.5419 25.9677 14.4129 26.2194 14.471 26.4645C14.5226 26.6968 14.7355 26.8645 14.9742 26.8645H15.0065C17.7677 26.7032 19.6194 25.2645 19.6194 24.0258C19.6194 23.1871 18.7548 22.2645 17.3484 21.7032C18.7484 21.1161 19.6129 20.1935 19.6129 19.3548ZM10.8387 10.8387C9.69677 10.8387 8.77419 11.7613 8.77419 12.9032C8.77419 14.0452 9.69677 14.9677 10.8387 14.9677C11.9806 14.9677 12.9032 14.0452 12.9032 12.9032C12.9032 11.7613 11.9806 10.8387 10.8387 10.8387ZM21.1613 10.8387C20.0194 10.8387 19.0968 11.7613 19.0968 12.9032C19.0968 14.0452 20.0194 14.9677 21.1613 14.9677C22.3032 14.9677 23.2258 14.0452 23.2258 12.9032C23.2258 11.7613 22.3032 10.8387 21.1613 10.8387Z" fill="#0165E1" /></svg>