<svg width="32" height="32" viewBox="0 0 32 32" fill="none" xmlns="http://www.w3.org/2000/svg">
 <path  d= "M10.8387 9.29032C9.30323 9.29032 7.43871 11.1806 7.22581 13.8968C7.20645 14.1355 7.35484 14.3613 7.5871 14.4323C7.8129 14.4968 8.07097 14.4 8.1871 14.1935L8.8 13.0968C9.29677 12.2129 10.0387 11.7032 10.8323 11.7032C11.6258 11.7032 12.3677 12.2129 12.8645 13.0968L13.4774 14.1935C13.6129 14.4323 13.8774 14.4968 14.0774 14.4323C14.3097 14.3613 14.4581 14.1419 14.4387 13.8968C14.2387 11.1806 12.3742 9.29032 10.8387 9.29032ZM16 0C7.16129 0 0 7.16129 0 16C0 24.8387 7.16129 32 16 32C24.8387 32 32 24.8387 32 16C32 7.16129 24.8387 0 16 0ZM16 28.9032C8.88387 28.9032 3.09677 23.1161 3.09677 16C3.09677 8.88387 8.88387 3.09677 16 3.09677C23.1161 3.09677 28.9032 8.88387 28.9032 16C28.9032 23.1161 23.1161 28.9032 16 28.9032ZM19.6129 19.3548C19.6129 18.1161 17.7548 16.6774 15 16.5161C14.7548 16.4903 14.5226 16.671 14.471 16.9161C14.4129 17.1613 14.5419 17.4129 14.7742 17.5097L15.8645 17.9742C16.7032 18.329 17.2065 18.8452 17.2065 19.3613C17.2065 19.8774 16.7032 20.3935 15.871 20.7484L14.7742 21.2129C14.4065 21.3677 14.3871 22 14.7742 22.1677L15.8645 22.6323C16.7032 22.9871 17.2065 23.5032 17.2065 24.0194C17.2065 24.5355 16.7032 25.0516 15.871 25.4065L14.7742 25.871C14.5419 25.9677 14.4129 26.2194 14.471 26.4645C14.5226 26.6968 14.7355 26.8645 14.9742 26.8645H15.0065C17.7677 26.7032 19.6194 25.2645 19.6194 24.0258C19.6194 23.1871 18.7548 22.2645 17.3484 21.7032C18.7484 21.1161 19.6129 20.1935 19.6129 19.3548ZM21.1613 9.29032C19.6258 9.29032 17.7613 11.1806 17.5484 13.8968C17.529 14.1355 17.6774 14.3613 17.9097 14.4323C18.1355 14.4968 18.3935 14.4 18.5097 14.1935L19.1226 13.0968C19.6194 12.2129 20.3613 11.7032 21.1548 11.7032C21.9484 11.7032 22.6903 12.2129 23.1871 13.0968L23.8 14.1935C23.9355 14.4323 24.2 14.4968 24.4 14.4323C24.6323 14.3613 24.7806 14.1419 24.7613 13.8968C24.5613 11.1806 22.6968 9.29032 21.1613 9.29032Z" fill="#0165E1" /></svg>