<svg width="32" height="32" viewBox="0 0 32 32" fill="none" xmlns="http://www.w3.org/2000/svg">
 <path  d= "M19.3018 19.3334C19.3018 18.1143 17.4732 16.6984 14.7621 16.5397C14.5208 16.5143 14.2922 16.6921 14.2414 16.9333C14.1843 17.1746 14.3113 17.4222 14.5398 17.5175L15.6129 17.9746C16.4383 18.3238 16.9335 18.8318 16.9335 19.3397C16.9335 19.8476 16.4383 20.3556 15.6192 20.7048L14.5398 21.1619C14.1779 21.3143 14.1589 21.9366 14.5398 22.1016L15.6129 22.5588C16.4383 22.908 16.9335 23.4159 16.9335 23.9239C16.9335 24.4318 16.4383 24.9398 15.6192 25.289L14.5398 25.7461C14.3113 25.8414 14.1843 26.089 14.2414 26.3303C14.2922 26.5588 14.5017 26.7239 14.7367 26.7239H14.7684C17.4859 26.5652 19.3081 25.1493 19.3081 23.9302C19.3081 23.1048 18.4573 22.1969 17.0732 21.6445C18.451 21.0667 19.3018 20.1588 19.3018 19.3334ZM23.778 14.0317L24.3812 14.5714C24.6225 14.7809 24.9717 14.8254 25.2511 14.673C25.5304 14.5206 25.6892 14.2031 25.6384 13.8857C25.3844 12.2857 23.4669 11.2126 21.8415 11.2126C20.2161 11.2126 18.2923 12.2857 18.0446 13.8857C17.9938 14.2031 18.1526 14.5206 18.4319 14.673C18.8002 14.8698 19.1431 14.7174 19.3018 14.5714L19.905 14.0317C20.8447 13.1936 22.8383 13.1936 23.778 14.0317ZM8.63501 12.9841C8.63501 14.1079 9.54296 15.0159 10.6668 15.0159C11.7906 15.0159 12.6986 14.1079 12.6986 12.9841C12.6986 11.8603 11.7906 10.9523 10.6668 10.9523C9.54296 10.9523 8.63501 11.8603 8.63501 12.9841ZM31.8162 25.3017C31.3083 23.981 29.8162 23.3017 28.4448 23.6572L27.9114 23.7969L27.7654 23.2636C27.3908 21.9048 26.0511 20.9461 24.6542 21.1683C23.0542 21.4223 22.0764 22.9842 22.4955 24.508L23.9495 29.7525C24.0447 30.089 24.3939 30.2922 24.7368 30.2033L30.0067 28.8382C31.5369 28.4382 32.4004 26.8192 31.8162 25.3017ZM21.2066 27.4477C19.5494 28.2414 17.7018 28.6985 15.7462 28.6985C8.74295 28.6985 3.04765 23.0032 3.04765 16C3.04765 8.99674 8.74295 3.30144 15.7462 3.30144C22.7495 3.30144 28.4448 8.99674 28.4448 16C28.4448 17.4032 28.2098 18.7492 27.7844 20.0127C28.3559 20.4191 28.8638 20.9143 29.2194 21.5302C29.6257 21.5366 30.0194 21.6191 30.4003 21.7143C31.0924 19.9429 31.4861 18.0191 31.4861 16C31.4924 7.30148 24.4447 0.253784 15.7462 0.253784C7.0477 0.253784 0 7.30148 0 16C0 24.6985 7.0477 31.7462 15.7462 31.7462C17.9938 31.7462 20.1209 31.27 22.0574 30.4192C21.8987 29.9557 22.3304 31.5113 21.2066 27.4477Z" fill="#0165E1" /></svg>