<svg width="32" height="32" viewBox="0 0 32 32" fill="none" xmlns="http://www.w3.org/2000/svg">
 <path  d= "M16 0C7.16129 0 0 7.16129 0 16C0 24.8387 7.16129 32 16 32C24.8387 32 32 24.8387 32 16C32 7.16129 24.8387 0 16 0ZM25.1226 25.1226C22.6839 27.5613 19.4452 28.9032 16 28.9032C12.5548 28.9032 9.31613 27.5613 6.87742 25.1226C4.43871 22.6839 3.09677 19.4452 3.09677 16C3.09677 12.5548 4.43871 9.31613 6.87742 6.87742C9.31613 4.43871 12.5548 3.09677 16 3.09677C19.4452 3.09677 22.6839 4.43871 25.1226 6.87742C27.5613 9.31613 28.9032 12.5548 28.9032 16C28.9032 19.4452 27.5613 22.6839 25.1226 25.1226ZM22.1677 12.129L24.3355 9.52903C24.8903 8.86452 24.0903 7.92903 23.3419 8.36774L18.1806 11.4645C17.6774 11.7677 17.6774 12.4903 18.1806 12.7935L23.3419 15.8903C24.0839 16.329 24.8903 15.4 24.3355 14.729L22.1677 12.129ZM8.65806 15.8903L13.8194 12.7935C14.3226 12.4903 14.3226 11.7677 13.8194 11.4645L8.65806 8.36774C7.90968 7.92258 7.10968 8.86452 7.66452 9.52903L9.83226 12.129L7.66452 14.729C7.10323 15.4 7.90968 16.329 8.65806 15.8903ZM23.3806 18.0645H8.61936C8.09032 18.0645 7.68387 18.5161 7.74839 19.0323C8.23226 22.8516 11.5484 25.8065 15.5613 25.8065H16.4387C20.4516 25.8065 23.7677 22.8516 24.2516 19.0323C24.3161 18.5161 23.9097 18.0645 23.3806 18.0645Z" fill="#0165E1" /></svg>