<svg width="32" height="32" viewBox="0 0 32 32" fill="none" xmlns="http://www.w3.org/2000/svg">
 <path  d= "M16 0C7.16129 0 0 7.16129 0 16C0 24.8387 7.16129 32 16 32C24.8387 32 32 24.8387 32 16C32 7.16129 24.8387 0 16 0ZM25.1226 25.1226C22.6839 27.5613 19.4452 28.9032 16 28.9032C12.5548 28.9032 9.31613 27.5613 6.87742 25.1226C4.43871 22.6839 3.09677 19.4452 3.09677 16C3.09677 12.5548 4.43871 9.31613 6.87742 6.87742C9.31613 4.43871 12.5548 3.09677 16 3.09677C19.4452 3.09677 22.6839 4.43871 25.1226 6.87742C27.5613 9.31613 28.9032 12.5548 28.9032 16C28.9032 19.4452 27.5613 22.6839 25.1226 25.1226ZM21.1613 10.0645C19.5032 10.0645 17.5548 11.1548 17.2968 12.7806C17.1871 13.5032 18.0387 13.9548 18.5742 13.4774L19.1871 12.929C20.1419 12.0774 22.1677 12.0774 23.1226 12.929L23.7355 13.4774C24.2839 13.9548 25.129 13.4968 25.0129 12.7806C24.7677 11.1548 22.8194 10.0645 21.1613 10.0645ZM10.8387 13.9355C11.9806 13.9355 12.9032 13.0129 12.9032 11.871C12.9032 10.729 11.9806 9.80645 10.8387 9.80645C9.69677 9.80645 8.77419 10.729 8.77419 11.871C8.77419 13.0129 9.69677 13.9355 10.8387 13.9355ZM23.3806 18.0645H8.61936C8.09032 18.0645 7.68387 18.5161 7.74839 19.0323C8.23226 22.8516 11.5484 25.8065 15.5613 25.8065H16.4387C20.4516 25.8065 23.7677 22.8516 24.2516 19.0323C24.3161 18.5161 23.9097 18.0645 23.3806 18.0645Z" fill="#0165E1" /></svg>