<svg width="32" height="32" viewBox="0 0 32 32" fill="none" xmlns="http://www.w3.org/2000/svg">
 <path  d= "M16 0C7.16129 0 0 7.16129 0 16C0 24.8387 7.16129 32 16 32C24.8387 32 32 24.8387 32 16C32 7.16129 24.8387 0 16 0ZM25.1226 25.1226C22.6839 27.5613 19.4452 28.9032 16 28.9032C12.5548 28.9032 9.31613 27.5613 6.87742 25.1226C4.43871 22.6839 3.09677 19.4452 3.09677 16C3.09677 12.5548 4.43871 9.31613 6.87742 6.87742C9.31613 4.43871 12.5548 3.09677 16 3.09677C19.4452 3.09677 22.6839 4.43871 25.1226 6.87742C27.5613 9.31613 28.9032 12.5548 28.9032 16C28.9032 19.4452 27.5613 22.6839 25.1226 25.1226ZM21.1613 9.29032C19.6258 9.29032 17.7613 11.1806 17.5484 13.8968C17.5032 14.4516 18.2452 14.6645 18.5097 14.1871L19.1226 13.0903C19.6194 12.2065 20.3613 11.6968 21.1548 11.6968C21.9484 11.6968 22.6903 12.2065 23.1871 13.0903L23.8 14.1871C24.0645 14.6645 24.8064 14.4452 24.7613 13.8968C24.5613 11.1806 22.6968 9.29032 21.1613 9.29032ZM8.19355 14.1871L8.80645 13.0903C9.30323 12.2065 10.0452 11.6968 10.8387 11.6968C11.6323 11.6968 12.3742 12.2065 12.871 13.0903L13.4839 14.1871C13.7484 14.6645 14.4903 14.4452 14.4452 13.8968C14.2323 11.1806 12.3677 9.29032 10.8323 9.29032C9.29677 9.29032 7.43226 11.1806 7.21936 13.8968C7.18065 14.4452 7.92258 14.6645 8.19355 14.1871ZM23.3806 18.0645H8.61936C8.09032 18.0645 7.68387 18.5161 7.74839 19.0323C8.23226 22.8516 11.5484 25.8065 15.5613 25.8065H16.4387C20.4516 25.8065 23.7677 22.8516 24.2516 19.0323C24.3161 18.5161 23.9097 18.0645 23.3806 18.0645Z" fill="#0165E1" /></svg>