<svg width="32" height="32" viewBox="0 0 32 32" fill="none" xmlns="http://www.w3.org/2000/svg">
 <path  d= "M30.257 1.74308C28.4993 -0.0145419 26.0068 -0.503542 24.1912 0.554083C21.7253 1.99052 13.969 -2.56942 5.69975 5.69983C-2.57982 13.9795 1.99518 21.717 0.554119 24.1912C-0.503506 26.0068 -0.014631 28.4994 1.74299 30.257C3.50143 32.0155 5.99368 32.5032 7.80906 31.4458C10.273 30.0102 18.0314 34.5689 26.3002 26.3003C34.5798 18.0205 30.0048 10.283 31.4459 7.80896C32.5035 5.99334 32.0146 3.50077 30.257 1.74308ZM28.8567 6.29896C26.4317 10.462 31.7067 16.6512 24.1789 24.179C16.6514 31.7067 10.4617 26.432 6.29912 28.8567C4.88168 29.6821 2.29693 27.1541 3.14331 25.7012C5.56831 21.5381 0.293306 15.349 7.82112 7.82115C15.3483 0.293896 21.5385 5.5679 25.7012 3.14327C27.1218 2.31577 29.7015 4.84877 28.8567 6.29896ZM18.2404 6.84496C18.326 7.52996 17.8401 8.15477 17.1551 8.2404C13.7272 8.66884 8.66887 13.7271 8.24037 17.1551C8.15456 17.8419 7.52793 18.326 6.845 18.2404C6.15993 18.1548 5.67406 17.53 5.75968 16.845C6.33231 12.2646 12.2701 6.33158 16.845 5.75971C17.5296 5.67421 18.1548 6.1599 18.2404 6.84496Z" fill="#0165E1" /></svg>