<svg width="32" height="32" viewBox="0 0 32 32" fill="none" xmlns="http://www.w3.org/2000/svg">
 <path  d= "M16 32C24.8366 32 32 24.8366 32 16C32 7.16342 24.8366 0 16 0C7.16342 0 0 7.16342 0 16C0 24.8366 7.16342 32 16 32ZM9.32916 27.0503L12.775 23.6045C14.827 24.4758 17.1704 24.4768 19.225 23.6045L22.6708 27.0503C18.5923 29.5225 13.4077 29.5225 9.32916 27.0503ZM21.1613 16C21.1613 18.8459 18.8459 21.1613 16 21.1613C13.1541 21.1613 10.8387 18.8459 10.8387 16C10.8387 13.1541 13.1541 10.8387 16 10.8387C18.8459 10.8387 21.1613 13.1541 21.1613 16ZM27.0503 22.6708L23.6045 19.225C24.4757 17.173 24.4768 14.8296 23.6045 12.775L27.0503 9.32916C29.5225 13.4077 29.5225 18.5923 27.0503 22.6708ZM22.6708 4.94968L19.2249 8.39555C17.1729 7.52426 14.8295 7.52316 12.775 8.39555L9.32916 4.94968C13.4077 2.47748 18.5923 2.47748 22.6708 4.94968ZM4.94968 9.32916L8.39555 12.775C7.52419 14.827 7.52316 17.1704 8.39555 19.225L4.94968 22.6708C2.47748 18.5923 2.47748 13.4077 4.94968 9.32916Z" fill="#0165E1" /></svg>