<svg width="24" height="32" viewBox="0 0 24 32" fill="none" xmlns="http://www.w3.org/2000/svg">
 <path  d= "M17.2442 26.75V28.5C17.2442 29.1531 16.8063 29.7084 16.1954 29.9143V30.5C16.1954 31.3284 15.491 32 14.6221 32H9.37798C8.50908 32 7.80473 31.3284 7.80473 30.5V29.9143C7.19378 29.7084 6.75589 29.1531 6.75589 28.5V26.75C6.75589 26.3358 7.1081 26 7.54252 26H16.4576C16.892 26 17.2442 26.3358 17.2442 26.75ZM7.80473 11C7.80473 8.79437 9.68673 7 12.0001 7C12.5793 7 13.0489 6.55225 13.0489 6C13.0489 5.44775 12.5793 5 12.0001 5C8.53006 5 5.70706 7.69156 5.70706 11C5.70706 11.5522 6.17667 12 6.75589 12C7.33511 12 7.80473 11.5522 7.80473 11ZM12.0001 3C16.6368 3 20.3907 6.57837 20.3907 11C20.3907 15.8501 17.9402 14.7798 15.0823 21H8.9178C6.05567 14.7706 3.60939 15.8668 3.60939 11C3.60939 6.57906 7.36251 3 12.0001 3ZM12.0001 0C5.62872 0 0.462891 4.92519 0.462891 11C0.462891 17.3582 3.85174 16.7213 6.3964 23.0421C6.62911 23.6202 7.21384 24 7.8632 24H16.1369C16.7862 24 17.3709 23.6201 17.6037 23.0421C20.1484 16.7213 23.5372 17.3582 23.5372 11C23.5372 4.92519 18.3714 0 12.0001 0Z" fill="#0165E1" /></svg>