<svg width="32" height="26" viewBox="0 0 32 26" fill="none" xmlns="http://www.w3.org/2000/svg">
 <path  d= "M31.1122 0.555542C31.0033 0.555542 30.8911 0.576098 30.7811 0.619986L21.3339 4.1111H21.3333L11.7778 0.737764C11.4151 0.617224 11.0355 0.5557 10.6533 0.555542C10.2817 0.555542 9.91056 0.613875 9.55278 0.729986L1.11778 3.66388C0.787877 3.79583 0.505072 4.02359 0.305839 4.31778C0.106605 4.61198 7.90115e-05 4.95912 0 5.31443L0 24.5544C0 25.065 0.418333 25.4444 0.888333 25.4444C0.997222 25.4444 1.10889 25.4239 1.21944 25.38L10.6667 21.8889L20.2222 25.2617C20.9439 25.5025 21.7238 25.5054 22.4472 25.27L30.8822 22.3361C31.2122 22.2042 31.495 21.9765 31.6943 21.6823C31.8935 21.388 32 21.0409 32 20.6855V1.44554C32 0.934987 31.5817 0.555542 31.1122 0.555542ZM12.4444 3.8011L19.5556 6.31165V22.1989L12.4444 19.6883V3.8011ZM2.66667 22.0028V5.94832L9.77778 3.47443V19.3744L9.74222 19.3872L2.66667 22.0028ZM29.3333 20.0511L22.2222 22.525V6.62554L22.2578 6.61221L29.3333 3.99721V20.0511Z" fill="#0165E1" /></svg>