<svg width="32" height="32" viewBox="0 0 32 32" fill="none" xmlns="http://www.w3.org/2000/svg">
 <path  d= "M16 0C7.16129 0 0 7.16129 0 16C0 24.8387 7.16129 32 16 32C24.8387 32 32 24.8387 32 16C32 7.16129 24.8387 0 16 0ZM16 28.9032C8.88387 28.9032 3.09677 23.1161 3.09677 16C3.09677 8.88387 8.88387 3.09677 16 3.09677C23.1161 3.09677 28.9032 8.88387 28.9032 16C28.9032 23.1161 23.1161 28.9032 16 28.9032ZM21.6774 9.29032C19.1097 9.29032 17.0323 11.3677 17.0323 13.9355C17.0323 16.5032 19.1097 18.5806 21.6774 18.5806C24.2452 18.5806 26.3226 16.5032 26.3226 13.9355C26.3226 11.3677 24.2452 9.29032 21.6774 9.29032ZM21.6774 16.5161C20.2516 16.5161 19.0968 15.3613 19.0968 13.9355C19.0968 13.0581 19.5677 12.3161 20.2387 11.8516C20.1742 12.0194 20.129 12.1935 20.129 12.3871C20.129 13.2452 20.8194 13.9355 21.6774 13.9355C22.5355 13.9355 23.2258 13.2452 23.2258 12.3871C23.2258 12.2 23.1806 12.0194 23.1161 11.8516C23.7871 12.3161 24.2581 13.0581 24.2581 13.9355C24.2581 15.3613 23.1032 16.5161 21.6774 16.5161ZM14.9677 13.9355C14.9677 11.3677 12.8903 9.29032 10.3226 9.29032C7.75484 9.29032 5.67742 11.3677 5.67742 13.9355C5.67742 16.5032 7.75484 18.5806 10.3226 18.5806C12.8903 18.5806 14.9677 16.5032 14.9677 13.9355ZM7.74194 13.9355C7.74194 13.0581 8.2129 12.3161 8.88387 11.8516C8.81936 12.0194 8.77419 12.1935 8.77419 12.3871C8.77419 13.2452 9.46452 13.9355 10.3226 13.9355C11.1806 13.9355 11.871 13.2452 11.871 12.3871C11.871 12.2 11.8258 12.0194 11.7613 11.8516C12.4323 12.3161 12.9032 13.0581 12.9032 13.9355C12.9032 15.3613 11.7484 16.5161 10.3226 16.5161C8.89677 16.5161 7.74194 15.3613 7.74194 13.9355ZM20.129 22.1935H11.871C11.0194 22.1935 10.3226 22.8903 10.3226 23.7419C10.3226 24.5935 11.0194 25.2903 11.871 25.2903H20.129C20.9806 25.2903 21.6774 24.5935 21.6774 23.7419C21.6774 22.8903 20.9806 22.1935 20.129 22.1935Z" fill="#0165E1" /></svg>