<svg width="32" height="20" viewBox="0 0 32 20" fill="none" xmlns="http://www.w3.org/2000/svg">
 <path  d= "M16 4.40002C13.349 4.40002 11.2 6.90702 11.2 10C11.2 13.0925 13.349 15.6 16 15.6C18.65 15.6 20.8 13.0935 20.8 10C20.8 6.90702 18.651 4.40002 16 4.40002ZM18 12.8C18 13.021 17.821 13.2 17.6 13.2H14.4C14.179 13.2 14 13.021 14 12.8V12C14 11.779 14.179 11.6 14.4 11.6H15.2V8.82802L15.1765 8.84352C15.1328 8.87268 15.0838 8.89294 15.0323 8.90314C14.9808 8.91334 14.9277 8.91328 14.8762 8.90298C14.8247 8.89267 14.7758 8.8723 14.7322 8.84306C14.6885 8.81381 14.6511 8.77625 14.622 8.73252L14.178 8.06702C14.1488 8.02334 14.1286 7.97433 14.1184 7.92281C14.1082 7.87129 14.1082 7.81826 14.1186 7.76676C14.1289 7.71526 14.1492 7.6663 14.1785 7.62268C14.2077 7.57905 14.2453 7.54162 14.289 7.51252L15.0555 7.00152C15.2526 6.87012 15.4841 6.80001 15.721 6.80002H16.4C16.621 6.80002 16.8 6.97902 16.8 7.20002V11.6H17.6C17.821 11.6 18 11.779 18 12V12.8ZM30.4 0.400024H1.6C0.7165 0.400024 0 1.11652 0 2.00002V18C0 18.8835 0.7165 19.6 1.6 19.6H30.4C31.2835 19.6 32 18.8835 32 18V2.00002C32 1.11652 31.2835 0.400024 30.4 0.400024ZM29.6 14C27.8325 14 26.4 15.4325 26.4 17.2H5.6C5.6 15.4325 4.1675 14 2.4 14V6.00002C4.1675 6.00002 5.6 4.56752 5.6 2.80002H26.4C26.4 4.56752 27.8325 6.00002 29.6 6.00002V14Z" fill="#0165E1" /></svg>