<svg width="30" height="32" viewBox="0 0 30 32" fill="none" xmlns="http://www.w3.org/2000/svg">
 <path  d= "M16.446 32C21.3683 32 25.8824 29.7623 28.8738 26.0766C30.6407 23.8996 28.7139 20.7189 25.9832 21.239C20.8365 22.2192 16.0912 18.2847 16.0912 13.0645C16.0912 10.038 17.72 7.29625 20.3059 5.82475C22.7274 4.44662 22.1183 0.7755 19.367 0.267312C18.4035 0.0896342 17.4258 0.00015977 16.446 0C7.61104 0 0.446045 7.16094 0.446045 16C0.446045 24.835 7.60705 32 16.446 32ZM16.446 3C17.2576 3 18.0516 3.07506 18.822 3.21738C15.3995 5.16506 13.0912 8.845 13.0912 13.0645C13.0912 20.18 19.5688 25.5145 26.5445 24.186C24.161 27.1228 20.523 29 16.446 29C9.26636 29 3.44604 23.1797 3.44604 16C3.44604 8.82031 9.26636 3 16.446 3Z" fill="#0165E1" /></svg>