<svg width="32" height="22" viewBox="0 0 32 22" fill="none" xmlns="http://www.w3.org/2000/svg">
 <path  d= "M30.6667 0.333252H6.22222C5.06344 0.333252 4.07539 1.07642 3.70844 2.11103H1.33333C0.596944 2.11103 0 2.70797 0 3.44436V18.5555C0 20.2737 1.39289 21.6666 3.11111 21.6666H30.6667C31.4031 21.6666 32 21.0696 32 20.3333V1.66659C32 0.930196 31.4031 0.333252 30.6667 0.333252ZM2.66667 18.5555V4.7777H3.55556V18.5555C3.55556 18.8005 3.35617 18.9999 3.11111 18.9999C2.86606 18.9999 2.66667 18.8005 2.66667 18.5555ZM29.3333 18.9999H6.19011C6.21089 18.8547 6.22222 18.7064 6.22222 18.5555V2.99992H29.3333V18.9999ZM9.55556 12.3333H17.1111C17.4793 12.3333 17.7778 12.0348 17.7778 11.6666V6.33325C17.7778 5.96509 17.4793 5.66659 17.1111 5.66659H9.55556C9.18739 5.66659 8.88889 5.96509 8.88889 6.33325V11.6666C8.88889 12.0348 9.18739 12.3333 9.55556 12.3333ZM11.1111 7.88881H15.5556V10.111H11.1111V7.88881ZM8.88889 15.6666V14.3333C8.88889 13.9651 9.18739 13.6666 9.55556 13.6666H17.1111C17.4793 13.6666 17.7778 13.9651 17.7778 14.3333V15.6666C17.7778 16.0348 17.4793 16.3333 17.1111 16.3333H9.55556C9.18739 16.3333 8.88889 16.0348 8.88889 15.6666ZM19.5556 15.6666V14.3333C19.5556 13.9651 19.8541 13.6666 20.2222 13.6666H26C26.3682 13.6666 26.6667 13.9651 26.6667 14.3333V15.6666C26.6667 16.0348 26.3682 16.3333 26 16.3333H20.2222C19.8541 16.3333 19.5556 16.0348 19.5556 15.6666ZM19.5556 7.66659V6.33325C19.5556 5.96509 19.8541 5.66659 20.2222 5.66659H26C26.3682 5.66659 26.6667 5.96509 26.6667 6.33325V7.66659C26.6667 8.03475 26.3682 8.33325 26 8.33325H20.2222C19.8541 8.33325 19.5556 8.03475 19.5556 7.66659ZM19.5556 11.6666V10.3333C19.5556 9.96509 19.8541 9.66659 20.2222 9.66659H26C26.3682 9.66659 26.6667 9.96509 26.6667 10.3333V11.6666C26.6667 12.0348 26.3682 12.3333 26 12.3333H20.2222C19.8541 12.3333 19.5556 12.0348 19.5556 11.6666Z" fill="#0165E1" /></svg>