<svg width="32" height="28" viewBox="0 0 32 28" fill="none" xmlns="http://www.w3.org/2000/svg">
 <path  d= "M31.25 6C31.6642 6 32 5.66419 32 5.25V0.75C32 0.335813 31.6642 0 31.25 0H26.75C26.3358 0 26 0.335813 26 0.75V1.5H6V0.75C6 0.335813 5.66419 0 5.25 0H0.75C0.335813 0 0 0.335813 0 0.75V5.25C0 5.66419 0.335813 6 0.75 6H1.5V22H0.75C0.335813 22 0 22.3358 0 22.75V27.25C0 27.6642 0.335813 28 0.75 28H5.25C5.66419 28 6 27.6642 6 27.25V26.5H26V27.25C26 27.6642 26.3358 28 26.75 28H31.25C31.6642 28 32 27.6642 32 27.25V22.75C32 22.3358 31.6642 22 31.25 22H30.5V6H31.25ZM28 2H30V4H28V2ZM2 2H4V4H2V2ZM4 26H2V24H4V26ZM30 26H28V24H30V26ZM27.5 22H26.75C26.3358 22 26 22.3358 26 22.75V23.5H6V22.75C6 22.3358 5.66419 22 5.25 22H4.5V6H5.25C5.66419 6 6 5.66419 6 5.25V4.5H26V5.25C26 5.66419 26.3358 6 26.75 6H27.5V22ZM25.25 10H20V6.75C20 6.33575 19.6642 6 19.25 6H6.75C6.33581 6 6 6.33575 6 6.75V17.25C6 17.6642 6.33581 18 6.75 18H12V21.25C12 21.6642 12.3358 22 12.75 22H25.25C25.6642 22 26 21.6642 26 21.25V10.75C26 10.3357 25.6642 10 25.25 10ZM8.5 8.5H17.5V15.5H8.5V8.5ZM23.5 19.5H14.5V18H19.25C19.6642 18 20 17.6642 20 17.25V12.5H23.5V19.5Z" fill="#0165E1" /></svg>