<svg width="32" height="26" viewBox="0 0 32 26" fill="none" xmlns="http://www.w3.org/2000/svg">
 <path  d= "M31.3333 11.2222C31.7015 11.2222 32 10.9237 32 10.5555V6.55554C32 6.18738 31.7015 5.88888 31.3333 5.88888H27.3333C26.9652 5.88888 26.6667 6.18738 26.6667 6.55554V7.22221H21.7778V5.88888H22.4444C22.8126 5.88888 23.1111 5.59038 23.1111 5.22221V1.22221C23.1111 0.854042 22.8126 0.555542 22.4444 0.555542H18.4444C18.0763 0.555542 17.7778 0.854042 17.7778 1.22221V1.88888H5.33333V1.22221C5.33333 0.854042 5.03483 0.555542 4.66667 0.555542H0.666667C0.2985 0.555542 0 0.854042 0 1.22221V5.22221C0 5.59038 0.2985 5.88888 0.666667 5.88888H1.33333V14.7778H0.666667C0.2985 14.7778 0 15.0763 0 15.4444V19.4444C0 19.8126 0.2985 20.1111 0.666667 20.1111H4.66667C5.03483 20.1111 5.33333 19.8126 5.33333 19.4444V18.7778H10.2222V20.1111H9.55556C9.18739 20.1111 8.88889 20.4096 8.88889 20.7778V24.7778C8.88889 25.1459 9.18739 25.4444 9.55556 25.4444H13.5556C13.9237 25.4444 14.2222 25.1459 14.2222 24.7778V24.1111H26.6667V24.7778C26.6667 25.1459 26.9652 25.4444 27.3333 25.4444H31.3333C31.7015 25.4444 32 25.1459 32 24.7778V20.7778C32 20.4096 31.7015 20.1111 31.3333 20.1111H30.6667V11.2222H31.3333ZM19.5556 2.33332H21.3333V4.1111H19.5556V2.33332ZM19.5556 16.5555H21.3333V18.3333H19.5556V16.5555ZM3.55556 18.3333H1.77778V16.5555H3.55556V18.3333ZM3.55556 4.1111H1.77778V2.33332H3.55556V4.1111ZM5.33333 16.1111V15.4444C5.33333 15.0763 5.03483 14.7778 4.66667 14.7778H4V5.88888H4.66667C5.03483 5.88888 5.33333 5.59038 5.33333 5.22221V4.55554H17.7778V5.22221C17.7778 5.59038 18.0763 5.88888 18.4444 5.88888H19.1111V14.7778H18.4444C18.0763 14.7778 17.7778 15.0763 17.7778 15.4444V16.1111H5.33333ZM12.4444 23.6667H10.6667V21.8889H12.4444V23.6667ZM28 20.1111H27.3333C26.9652 20.1111 26.6667 20.4096 26.6667 20.7778V21.4444H14.2222V20.7778C14.2222 20.4096 13.9237 20.1111 13.5556 20.1111H12.8889V18.7778H17.7778V19.4444C17.7778 19.8126 18.0763 20.1111 18.4444 20.1111H22.4444C22.8126 20.1111 23.1111 19.8126 23.1111 19.4444V15.4444C23.1111 15.0763 22.8126 14.7778 22.4444 14.7778H21.7778V9.88888H26.6667V10.5555C26.6667 10.9237 26.9652 11.2222 27.3333 11.2222H28V20.1111ZM30.2222 23.6667H28.4444V21.8889H30.2222V23.6667ZM30.2222 9.44443H28.4444V7.66665H30.2222V9.44443Z" fill="#0165E1" /></svg>