<svg width="32" height="32" viewBox="0 0 32 32" fill="none" xmlns="http://www.w3.org/2000/svg">
 <path  d= "M27.4952 0.406137L1.49717 15.3987C-0.652667 16.6424 -0.446433 19.8234 1.85339 20.7671L8.99659 23.7231V28.9977C8.99659 31.8975 12.6963 33.0911 14.4087 30.785L17.146 27.0916L24.1392 29.9789C24.5079 30.1288 24.8954 30.2038 25.2828 30.2038C25.7953 30.2038 26.3015 30.0726 26.7577 29.8164C27.5577 29.3664 28.1076 28.5665 28.2514 27.6603L31.9636 3.46215C32.3448 0.956094 29.6575 -0.837518 27.4952 0.406137ZM11.9964 28.9977V24.9605L14.2837 25.9042L11.9964 28.9977ZM25.2828 27.2041L15.6711 23.2356L24.4329 10.5929C25.1016 9.62418 23.8392 8.49926 22.9518 9.26795L9.73403 20.7858L2.99705 17.9985L28.995 2.99969L25.2828 27.2041Z" fill="#0165E1" /></svg>