<svg width="32" height="32" viewBox="0 0 32 32" fill="none" xmlns="http://www.w3.org/2000/svg">
 <path  d= "M16 0C7.16129 0 0 7.16129 0 16C0 24.8387 7.16129 32 16 32C24.8387 32 32 24.8387 32 16C32 7.16129 24.8387 0 16 0ZM16 28.9032C8.87097 28.9032 3.09677 23.129 3.09677 16C3.09677 8.87097 8.87097 3.09677 16 3.09677C23.129 3.09677 28.9032 8.87097 28.9032 16C28.9032 23.129 23.129 28.9032 16 28.9032ZM22.1935 10.8387V21.1613C22.1935 21.729 21.729 22.1935 21.1613 22.1935H18.0645C17.4968 22.1935 17.0323 21.729 17.0323 21.1613V10.8387C17.0323 10.271 17.4968 9.80645 18.0645 9.80645H21.1613C21.729 9.80645 22.1935 10.271 22.1935 10.8387ZM14.9677 10.8387V21.1613C14.9677 21.729 14.5032 22.1935 13.9355 22.1935H10.8387C10.271 22.1935 9.80645 21.729 9.80645 21.1613V10.8387C9.80645 10.271 10.271 9.80645 10.8387 9.80645H13.9355C14.5032 9.80645 14.9677 10.271 14.9677 10.8387Z" fill="#0165E1" /></svg>