<svg width="32" height="32" viewBox="0 0 32 32" fill="none" xmlns="http://www.w3.org/2000/svg">
 <path  d= "M23.4645 14.8387L12.1097 7.93548C11.0903 7.36774 9.80645 8.09677 9.80645 9.29032V22.7097C9.80645 23.8968 11.0839 24.6323 12.1097 24.0645L23.4645 17.5484C24.5226 16.9613 24.5226 15.4323 23.4645 14.8387ZM32 16C32 7.16129 24.8387 0 16 0C7.16129 0 0 7.16129 0 16C0 24.8387 7.16129 32 16 32C24.8387 32 32 24.8387 32 16ZM3.09677 16C3.09677 8.87097 8.87097 3.09677 16 3.09677C23.129 3.09677 28.9032 8.87097 28.9032 16C28.9032 23.129 23.129 28.9032 16 28.9032C8.87097 28.9032 3.09677 23.129 3.09677 16Z" fill="#0165E1" /></svg>