<svg width="32" height="32" viewBox="0 0 32 32" fill="none" xmlns="http://www.w3.org/2000/svg">
 <path  d= "M16 0C7.16406 0 0 7.16664 0 16C0 24.8385 7.16406 32 16 32C24.8359 32 32 24.8385 32 16C32 7.16664 24.8359 0 16 0ZM16 28.9032C8.8689 28.9032 3.09677 23.1335 3.09677 16C3.09677 8.87129 8.86916 3.09677 16 3.09677C23.1285 3.09677 28.9032 8.8691 28.9032 16C28.9032 23.131 23.1335 28.9032 16 28.9032ZM22.919 12.4387C22.919 16.7646 18.2466 16.8312 18.2466 18.4299V18.8387C18.2466 19.2663 17.9 19.6129 17.4725 19.6129H14.5275C14.0999 19.6129 13.7533 19.2663 13.7533 18.8387V18.2801C13.7533 15.9739 15.5017 15.0521 16.8229 14.3113C17.9559 13.6761 18.6503 13.2441 18.6503 12.403C18.6503 11.2903 17.231 10.5518 16.0835 10.5518C14.5875 10.5518 13.8968 11.26 12.926 12.4853C12.6643 12.8156 12.1866 12.877 11.8508 12.6223L10.0557 11.2612C9.72619 11.0114 9.65239 10.5472 9.8851 10.2055C11.4094 7.96716 13.351 6.70968 16.3738 6.70968C19.5397 6.70968 22.919 9.1809 22.919 12.4387ZM18.7097 23.2258C18.7097 24.7199 17.4941 25.9355 16 25.9355C14.5059 25.9355 13.2903 24.7199 13.2903 23.2258C13.2903 21.7317 14.5059 20.5161 16 20.5161C17.4941 20.5161 18.7097 21.7317 18.7097 23.2258Z" fill="#0165E1" /></svg>