<svg width="32" height="32" viewBox="0 0 32 32" fill="none" xmlns="http://www.w3.org/2000/svg">
 <path  d= "M16 0C7.16342 0 0 7.16342 0 16C0 24.8366 7.16342 32 16 32C24.8366 32 32 24.8366 32 16C32 7.16342 24.8366 0 16 0ZM16 28.9032C8.8689 28.9032 3.09677 23.1322 3.09677 16C3.09677 8.86897 8.86781 3.09677 16 3.09677C23.1311 3.09677 28.9032 8.86781 28.9032 16C28.9032 23.1311 23.1322 28.9032 16 28.9032ZM23.1253 23.6264C19.703 17.4145 19.8834 17.7252 19.6885 17.4274C21.2541 16.5319 22.2357 14.7459 22.2357 12.7063C22.2357 9.31903 20.2843 7.20619 15.6874 7.20619H10.6121C10.1852 7.20619 9.83794 7.55348 9.83794 7.98039V24C9.83794 24.4269 10.1852 24.7742 10.6121 24.7742H13.1004C13.5273 24.7742 13.8746 24.4269 13.8746 24V18.6024H15.9364L19.0019 24.3639C19.0678 24.4879 19.1662 24.5916 19.2866 24.6639C19.407 24.7362 19.5448 24.7743 19.6853 24.7742H22.4472C23.0369 24.7742 23.4094 24.142 23.1253 23.6264ZM16.0602 14.9617H13.8747V10.8236H15.641C17.7324 10.8236 18.1525 11.6064 18.1525 12.8694C18.1525 14.2186 17.4094 14.9617 16.0602 14.9617Z" fill="#0165E1" /></svg>