<svg width="32" height="32" viewBox="0 0 32 32" fill="none" xmlns="http://www.w3.org/2000/svg">
 <path  d= "M16 0C7.16129 0 0 7.16129 0 16C0 24.8387 7.16129 32 16 32C24.8387 32 32 24.8387 32 16C32 7.16129 24.8387 0 16 0ZM25.2903 24.929V17.5484C25.2903 16.6968 24.5935 16 23.7419 16C22.8903 16 22.1935 16.6968 22.1935 17.5484V27.3161C20.3548 28.3226 18.2452 28.9032 16 28.9032C13.7548 28.9032 11.6452 28.3226 9.80645 27.3161V17.5484C9.80645 16.6968 9.10968 16 8.25806 16C7.40645 16 6.70968 16.6968 6.70968 17.5484V24.929C4.47742 22.6065 3.09677 19.4645 3.09677 16C3.09677 8.88387 8.88387 3.09677 16 3.09677C23.1161 3.09677 28.9032 8.88387 28.9032 16C28.9032 19.4645 27.5226 22.6129 25.2903 24.929ZM13.2774 14.6129C13.5613 14.4581 13.7226 14.1355 13.671 13.8129C13.4129 12.1871 11.4645 11.0968 9.8129 11.0968C8.16129 11.0968 6.20645 12.1871 5.95484 13.8129C5.90323 14.1355 6.06452 14.4581 6.34839 14.6129C6.63226 14.7677 6.9871 14.729 7.23226 14.5097L7.84516 13.9613C8.8 13.1097 10.8258 13.1097 11.7806 13.9613L12.3935 14.5097C12.5548 14.6581 12.9032 14.8194 13.2774 14.6129ZM22.1935 11.0968C20.5355 11.0968 18.5871 12.1871 18.3355 13.8129C18.2839 14.1355 18.4452 14.4581 18.729 14.6129C19.0194 14.7677 19.3677 14.729 19.6129 14.5097L20.2258 13.9613C21.1806 13.1097 23.2065 13.1097 24.1613 13.9613L24.7742 14.5097C24.9355 14.6516 25.2903 14.8129 25.6581 14.6129C25.9419 14.4581 26.1032 14.1355 26.0516 13.8129C25.8 12.1871 23.8516 11.0968 22.1935 11.0968ZM16 17.0323C14.0065 17.0323 12.3871 18.8839 12.3871 21.1613C12.3871 23.4387 14.0065 25.2903 16 25.2903C17.9935 25.2903 19.6129 23.4387 19.6129 21.1613C19.6129 18.8839 17.9935 17.0323 16 17.0323Z" fill="#0165E1" /></svg>