<svg width="32" height="32" viewBox="0 0 32 32" fill="none" xmlns="http://www.w3.org/2000/svg">
 <path  d= "M16 0C7.16129 0 0 7.16129 0 16C0 24.8387 7.16129 32 16 32C24.8387 32 32 24.8387 32 16C32 7.16129 24.8387 0 16 0ZM16 28.9032C8.88387 28.9032 3.09677 23.1161 3.09677 16C3.09677 8.88387 8.88387 3.09677 16 3.09677C23.1161 3.09677 28.9032 8.88387 28.9032 16C28.9032 23.1161 23.1161 28.9032 16 28.9032ZM16.5161 19.0968C15.6645 19.0968 14.9677 19.7935 14.9677 20.6452C14.9677 21.4968 15.6645 22.1935 16.5161 22.1935C18.0516 22.1935 19.5032 22.871 20.4903 24.0516C21.0129 24.6839 21.9871 24.8194 22.671 24.2516C23.329 23.7032 23.4194 22.729 22.871 22.071C21.2903 20.1806 18.9742 19.0968 16.5161 19.0968ZM10.8387 14.9677C11.9806 14.9677 12.9032 14.0452 12.9032 12.9032C12.9032 11.7613 11.9806 10.8387 10.8387 10.8387C9.69677 10.8387 8.77419 11.7613 8.77419 12.9032C8.77419 14.0452 9.69677 14.9677 10.8387 14.9677ZM21.1613 10.8387C20.0194 10.8387 19.0968 11.7613 19.0968 12.9032C19.0968 14.0452 20.0194 14.9677 21.1613 14.9677C22.3032 14.9677 23.2258 14.0452 23.2258 12.9032C23.2258 11.7613 22.3032 10.8387 21.1613 10.8387ZM10.4774 17.2129C9.74193 18.2 8.12903 20.4774 8.12903 21.6065C8.12903 23.071 9.34194 24.2581 10.8387 24.2581C12.3355 24.2581 13.5484 23.071 13.5484 21.6065C13.5484 20.4774 11.9355 18.2 11.2 17.2129C11.0194 16.9742 10.6581 16.9742 10.4774 17.2129Z" fill="#0165E1" /></svg>