<svg width="32" height="32" viewBox="0 0 32 32" fill="none" xmlns="http://www.w3.org/2000/svg">
 <path  d= "M30.9958 6.99579L25.0042 1.00421C24.3612 0.361231 23.4892 4.75483e-06 22.5799 0H3.42857C1.535 0 0 1.535 0 3.42857V28.5714C0 30.465 1.535 32 3.42857 32H28.5714C30.465 32 32 30.465 32 28.5714V9.42014C32 8.51083 31.6388 7.63876 30.9958 6.99579ZM19.4286 3.42857V9.14286H10.2857V3.42857H19.4286ZM28.1429 28.5714H3.85714C3.74348 28.5714 3.63447 28.5263 3.5541 28.4459C3.47372 28.3655 3.42857 28.2565 3.42857 28.1429V3.85714C3.42857 3.74348 3.47372 3.63447 3.5541 3.5541C3.63447 3.47372 3.74348 3.42857 3.85714 3.42857H6.85714V10.8571C6.85714 11.8039 7.62464 12.5714 8.57143 12.5714H21.1429C22.0896 12.5714 22.8571 11.8039 22.8571 10.8571V3.70586L28.4459 9.29464C28.4857 9.33444 28.5173 9.38169 28.5388 9.4337C28.5604 9.4857 28.5714 9.54143 28.5714 9.59771V28.1429C28.5714 28.2565 28.5263 28.3655 28.4459 28.4459C28.3655 28.5263 28.2565 28.5714 28.1429 28.5714ZM16 14.2857C12.5341 14.2857 9.71429 17.1055 9.71429 20.5714C9.71429 24.0374 12.5341 26.8571 16 26.8571C19.4659 26.8571 22.2857 24.0374 22.2857 20.5714C22.2857 17.1055 19.4659 14.2857 16 14.2857ZM16 23.4286C14.4246 23.4286 13.1429 22.1469 13.1429 20.5714C13.1429 18.996 14.4246 17.7143 16 17.7143C17.5754 17.7143 18.8571 18.996 18.8571 20.5714C18.8571 22.1469 17.5754 23.4286 16 23.4286Z" fill="#0165E1" /></svg>