<svg width="32" height="30" viewBox="0 0 32 30" fill="none" xmlns="http://www.w3.org/2000/svg">
 <path  d= "M31.2188 9.55895L23.2189 1.56073C21.5514 -0.10671 18.6667 1.06101 18.6667 3.44629V6.62395C16.3083 6.72839 13.9983 6.98784 11.9578 7.62339C10.0039 8.23173 8.45388 9.15561 7.35166 10.3689C6.01222 11.8445 5.33333 13.7001 5.33333 15.8856C5.33333 19.3132 7.17655 22.1331 10.0483 23.9278C12.1342 25.2338 14.7843 23.225 13.9939 20.8312C13.1319 18.2134 13.0408 16.891 18.6667 16.4556V19.4445C18.6667 21.833 21.5538 22.9952 23.2189 21.33L31.2188 13.3301C32.2604 12.2889 32.2604 10.6001 31.2188 9.55895ZM21.3333 19.4445V13.6756C14.1838 13.7824 9.24955 14.9639 11.4617 21.6667C9.82166 20.6417 7.99999 18.7823 7.99999 15.8856C7.99999 9.8115 15.1744 9.27745 21.3333 9.22728V3.44451L29.3333 11.4445L21.3333 19.4445ZM22.7078 24.1385C23.1183 24.0213 23.5105 23.8473 23.873 23.6217C24.3161 23.3466 24.8889 23.6676 24.8889 24.1892V26.5556C24.8889 28.0284 23.695 29.2223 22.2222 29.2223H2.66666C1.19389 29.2223 0 28.0284 0 26.5556V7.00006C0 5.52728 1.19389 4.3334 2.66666 4.3334H9.99999C10.3682 4.3334 10.6667 4.6319 10.6667 5.00006V5.24928C10.6667 5.52245 10.5007 5.76978 10.2462 5.86884C9.48494 6.16501 8.77971 6.50978 8.13227 6.90134C8.02717 6.96548 7.90651 6.99962 7.78338 7.00006H3C2.91159 7.00006 2.82681 7.03518 2.7643 7.09769C2.70178 7.1602 2.66666 7.24499 2.66666 7.33339V26.2223C2.66666 26.3107 2.70178 26.3955 2.7643 26.458C2.82681 26.5205 2.91159 26.5556 3 26.5556H21.8889C21.9773 26.5556 22.0621 26.5205 22.1246 26.458C22.1871 26.3955 22.2222 26.3107 22.2222 26.2223V24.7797C22.2222 24.4814 22.421 24.2209 22.7078 24.1385Z" fill="#0165E1" /></svg>