<svg width="32" height="32" viewBox="0 0 32 32" fill="none" xmlns="http://www.w3.org/2000/svg">
 <path  d= "M16 0C7.16129 0 0 7.16129 0 16C0 24.8387 7.16129 32 16 32C24.8387 32 32 24.8387 32 16C32 7.16129 24.8387 0 16 0ZM16 28.9032C8.88387 28.9032 3.09677 23.1161 3.09677 16C3.09677 8.88387 8.88387 3.09677 16 3.09677C23.1161 3.09677 28.9032 8.88387 28.9032 16C28.9032 23.1161 23.1161 28.9032 16 28.9032ZM21.4194 19.6516C20.0774 21.2645 18.0968 22.1935 16 22.1935C13.9032 22.1935 11.9226 21.271 10.5806 19.6516C10.0323 18.9935 9.05806 18.9097 8.4 19.4516C7.74194 20 7.65806 20.9742 8.2 21.6323C10.1355 23.9548 12.9806 25.2839 16 25.2839C19.0194 25.2839 21.8645 23.9548 23.8 21.6323C24.3484 20.9742 24.2581 20 23.6 19.4516C22.9419 18.9097 21.9677 18.9935 21.4194 19.6516ZM8.80645 13.0968C9.30323 12.2129 10.0452 11.7032 10.8387 11.7032C11.6323 11.7032 12.3742 12.2129 12.871 13.0968L13.4839 14.1935C13.6194 14.4323 13.8839 14.4968 14.0839 14.4323C14.3161 14.3613 14.471 14.1419 14.4516 13.8968C14.2387 11.1806 12.3742 9.29032 10.8387 9.29032C9.30323 9.29032 7.43871 11.1806 7.22581 13.8968C7.20645 14.1355 7.36129 14.3613 7.59355 14.4323C7.8129 14.5032 8.07097 14.4 8.19355 14.1935L8.80645 13.0968ZM21.1613 9.29032C19.6258 9.29032 17.7613 11.1806 17.5484 13.8968C17.529 14.1355 17.6839 14.3613 17.9161 14.4323C18.1419 14.5032 18.3935 14.4 18.5161 14.1935L19.129 13.0968C19.6258 12.2129 20.3677 11.7032 21.1613 11.7032C21.9548 11.7032 22.6968 12.2129 23.1935 13.0968L23.8065 14.1935C23.9419 14.4323 24.2065 14.4968 24.4065 14.4323C24.6387 14.3613 24.7935 14.1419 24.7742 13.8968C24.5613 11.1806 22.6968 9.29032 21.1613 9.29032Z" fill="#0165E1" /></svg>