<svg width="32" height="32" viewBox="0 0 32 32" fill="none" xmlns="http://www.w3.org/2000/svg">
 <path  d= "M16 0C7.16129 0 0 7.16129 0 16C0 24.8387 7.16129 32 16 32C24.8387 32 32 24.8387 32 16C32 7.16129 24.8387 0 16 0ZM16 28.9032C8.88387 28.9032 3.09677 23.1161 3.09677 16C3.09677 8.88387 8.88387 3.09677 16 3.09677C23.1161 3.09677 28.9032 8.88387 28.9032 16C28.9032 23.1161 23.1161 28.9032 16 28.9032ZM10.8387 14.9677C11.9806 14.9677 12.9032 14.0452 12.9032 12.9032C12.9032 11.7613 11.9806 10.8387 10.8387 10.8387C9.69677 10.8387 8.77419 11.7613 8.77419 12.9032C8.77419 14.0452 9.69677 14.9677 10.8387 14.9677ZM21.1613 14.9677C22.3032 14.9677 23.2258 14.0452 23.2258 12.9032C23.2258 11.7613 22.3032 10.8387 21.1613 10.8387C20.0194 10.8387 19.0968 11.7613 19.0968 12.9032C19.0968 14.0452 20.0194 14.9677 21.1613 14.9677ZM21.4194 19.6516C20.0774 21.2645 18.0968 22.1935 16 22.1935C13.9032 22.1935 11.9226 21.271 10.5806 19.6516C10.0323 18.9935 9.05161 18.9097 8.4 19.4516C7.74194 20 7.65806 20.9742 8.2 21.6323C10.1355 23.9548 12.9806 25.2839 16 25.2839C19.0194 25.2839 21.8645 23.9548 23.8 21.6323C24.3484 20.9742 24.2581 20 23.6 19.4516C22.9484 18.9097 21.9677 18.9935 21.4194 19.6516Z" fill="#0165E1" /></svg>