<svg width="32" height="32" viewBox="0 0 32 32" fill="none" xmlns="http://www.w3.org/2000/svg">
 <path  d= "M16 0C7.16129 0 0 7.16129 0 16C0 24.8387 7.16129 32 16 32C24.8387 32 32 24.8387 32 16C32 7.16129 24.8387 0 16 0ZM16 28.9032C8.88387 28.9032 3.09677 23.1161 3.09677 16C3.09677 8.88387 8.88387 3.09677 16 3.09677C23.1161 3.09677 28.9032 8.88387 28.9032 16C28.9032 23.1161 23.1161 28.9032 16 28.9032ZM23.6 19.4581C22.9419 18.9097 21.9677 19 21.4194 19.6581C20.0774 21.271 18.0968 22.2 16 22.2C13.9032 22.2 11.9226 21.2774 10.5806 19.6581C10.0323 19 9.05161 18.9161 8.4 19.4581C7.74194 20.0065 7.65806 20.9806 8.2 21.6387C10.1355 23.9613 12.9806 25.2903 16 25.2903C19.0194 25.2903 21.8645 23.9613 23.8 21.6387C24.3484 20.9806 24.2581 20.0065 23.6 19.4581ZM10.8387 14.9677C11.9806 14.9677 12.9032 14.0452 12.9032 12.9032C12.9032 11.7613 11.9806 10.8387 10.8387 10.8387C9.69677 10.8387 8.77419 11.7613 8.77419 12.9032C8.77419 14.0452 9.69677 14.9677 10.8387 14.9677ZM21.1613 11.0968C19.5032 11.0968 17.5548 12.1871 17.2968 13.8129C17.1871 14.5355 18.0387 14.9871 18.5742 14.5097L19.1871 13.9613C20.1419 13.1097 22.1677 13.1097 23.1226 13.9613L23.7355 14.5097C24.2839 14.9871 25.129 14.529 25.0129 13.8129C24.7677 12.1871 22.8194 11.0968 21.1613 11.0968Z" fill="#0165E1" /></svg>