<svg width="28" height="32" viewBox="0 0 28 32" fill="none" xmlns="http://www.w3.org/2000/svg">
 <path  d= "M27.3898 22.2454L23.2289 19.8367L26.9444 19.1912C27.3098 19.1053 27.6075 18.8673 27.7856 18.5581C27.9406 18.2889 28.0047 17.9657 27.9433 17.6424C27.8114 16.9478 27.1504 16.515 26.467 16.6758L21.1281 18.6204L15.9946 16L21.1281 13.3796L26.4671 15.3243C27.1506 15.4851 27.8116 15.0523 27.9434 14.3576C28.0753 13.6629 27.628 12.9696 26.9446 12.8088L23.2291 12.1634L27.3899 9.75463C27.9861 9.40944 28.1783 8.62387 27.8191 8C27.4598 7.37612 26.6853 7.15025 26.0891 7.49538L21.9282 9.90413L23.2285 6.35494C23.4314 5.68106 23.0561 4.94606 22.3902 4.71319C21.7243 4.48038 21.0201 4.838 20.8172 5.51188L19.8273 11.1203L15.3009 13.7407V8.5L19.6499 4.83619C20.1305 4.32306 20.0872 3.53269 19.5532 3.07087C19.0191 2.60894 18.1966 2.65069 17.7161 3.16375L15.3008 6.0675V1.25C15.3008 0.559625 14.7184 0 14 0C13.2816 0 12.6992 0.559625 12.6992 1.25V6.0675L10.2839 3.16375C9.80337 2.65062 8.98087 2.609 8.44681 3.07087C7.91281 3.53269 7.86956 4.32306 8.35012 4.83619L12.6992 8.5V13.7408L8.17275 11.1204L7.18287 5.51194C6.97993 4.83806 6.27568 4.48044 5.60981 4.71325C4.94381 4.94606 4.56862 5.68113 4.7715 6.355L6.07181 9.90419L1.911 7.49544C1.31475 7.15025 0.540184 7.37619 0.180996 8.00006C-0.178191 8.62394 0.0139339 9.4095 0.610184 9.75469L4.77106 12.1634L1.0555 12.8089C0.372059 12.9697 -0.0751285 13.6631 0.056684 14.3577C0.188559 15.0524 0.849559 15.4851 1.53306 15.3244L6.87193 13.3797L12.0054 16L6.87187 18.6204L1.53293 16.6757C0.849434 16.5149 0.188496 16.9477 0.0565589 17.6423C-0.0752535 18.3369 0.371934 19.0304 1.05537 19.1911L4.77093 19.8366L0.610059 22.2454C0.0139339 22.5906 -0.178254 23.3761 0.180996 24C0.540246 24.6239 1.31475 24.8498 1.911 24.5046L6.07187 22.0959L4.77156 25.645C4.66312 26.0053 4.71981 26.3828 4.89781 26.6919C5.05281 26.9611 5.29987 27.1784 5.60981 27.2868C6.27575 27.5196 6.98 27.1619 7.18287 26.4881L8.17275 20.8796L12.6992 18.2592V23.5L8.35012 27.1638C7.8695 27.6769 7.91281 28.4672 8.44681 28.9291C8.98081 29.3909 9.80337 29.3493 10.2839 28.8362L12.6992 25.9324V30.75C12.6992 31.4404 13.2816 32 14 32C14.7184 32 15.3008 31.4404 15.3008 30.75V25.9324L17.7161 28.8362C17.973 29.1105 18.3274 29.25 18.6834 29.25C18.9934 29.25 19.3046 29.1441 19.5532 28.9291C20.0872 28.4672 20.1305 27.6769 19.6499 27.1638L15.3008 23.5V18.2592L19.8272 20.8796L20.8171 26.4881C21.02 27.1619 21.7242 27.5196 22.3901 27.2868C23.0559 27.0539 23.4313 26.3188 23.2284 25.645L21.9281 22.0958L26.0889 24.5046C26.6852 24.8498 27.4597 24.6238 27.8189 23.9999C28.1782 23.3761 27.9861 22.5906 27.3898 22.2454Z" fill="#0165E1" /></svg>