<svg width="32" height="32" viewBox="0 0 32 32" fill="none" xmlns="http://www.w3.org/2000/svg">
 <path  d= "M28.5714 0H3.42857C1.53571 0 0 1.53571 0 3.42857V28.5714C0 30.4643 1.53571 32 3.42857 32H28.5714C30.4643 32 32 30.4643 32 28.5714V3.42857C32 1.53571 30.4643 0 28.5714 0ZM28.1429 28.5714H3.85714C3.62143 28.5714 3.42857 28.3786 3.42857 28.1429V3.85714C3.42857 3.62143 3.62143 3.42857 3.85714 3.42857H28.1429C28.3786 3.42857 28.5714 3.62143 28.5714 3.85714V28.1429C28.5714 28.3786 28.3786 28.5714 28.1429 28.5714Z" fill="#0165E1" /></svg>