<svg width="32" height="32" viewBox="0 0 32 32" fill="none" xmlns="http://www.w3.org/2000/svg">
 <path  d= "M32 22.5795V3.42906C32 1.53549 30.465 0.000488281 28.5714 0.000488281H3.42857C1.535 0.000488281 0 1.53549 0 3.42906V28.5711C0 30.4646 1.535 31.9996 3.42857 31.9996H22.5799C23.4892 31.9996 24.3612 31.6384 25.0042 30.9954L30.9958 25.0038C31.6388 24.3609 32 23.4888 32 22.5795ZM22.8571 28.2938V22.8568H28.2941L22.8571 28.2938ZM28.5714 3.42906V19.4282H21.1429C20.1961 19.4282 19.4286 20.1957 19.4286 21.1425V28.5711H3.42857V3.42906H28.5714Z" fill="#0165E1" /></svg>