<svg width="32" height="32" viewBox="0 0 32 32" fill="none" xmlns="http://www.w3.org/2000/svg">
 <path  d= "M13.7572 30.496L12.4939 27.4069C12.4802 27.3733 12.4593 27.343 12.4327 27.3182C12.4061 27.2934 12.3744 27.2748 12.3398 27.2636C12.3052 27.2523 12.2686 27.2488 12.2325 27.2532C12.1965 27.2576 12.1618 27.2698 12.1309 27.2891L9.29316 29.0456C7.45154 30.1856 5.14973 28.5131 5.66479 26.4094L6.45848 23.1678C6.4672 23.1325 6.46811 23.0957 6.46114 23.0601C6.45416 23.0244 6.43948 22.9907 6.41811 22.9612C6.39673 22.9318 6.36919 22.9074 6.33741 22.8898C6.30563 22.8721 6.27037 22.8616 6.2341 22.859L2.90592 22.6121C0.746303 22.452 -0.13357 19.7461 1.52005 18.3466L4.06748 16.1907C4.09528 16.1672 4.11763 16.138 4.13296 16.1051C4.14829 16.0721 4.15623 16.0362 4.15623 15.9998C4.15623 15.9635 4.14829 15.9276 4.13296 15.8946C4.11763 15.8617 4.09528 15.8324 4.06748 15.809L1.51999 13.653C-0.133133 12.254 0.745615 9.54785 2.90586 9.3876L6.23404 9.14067C6.27031 9.13806 6.30556 9.12756 6.33735 9.1099C6.36913 9.09225 6.39667 9.06785 6.41804 9.03844C6.43941 9.00903 6.4541 8.9753 6.46108 8.93961C6.46805 8.90393 6.46714 8.86715 6.45842 8.83186L5.66479 5.59024C5.14986 3.48674 7.4511 1.814 9.29316 2.95406L12.1308 4.71055C12.1617 4.72975 12.1964 4.74198 12.2325 4.74637C12.2686 4.75076 12.3052 4.74722 12.3398 4.73599C12.3743 4.72475 12.406 4.7061 12.4327 4.68134C12.4593 4.65657 12.4801 4.62629 12.4938 4.59261L13.7571 1.50356C14.5769 -0.500874 17.422 -0.501499 18.242 1.50356L19.5053 4.59255C19.519 4.62623 19.5398 4.65651 19.5665 4.68128C19.5931 4.70604 19.6248 4.72469 19.6594 4.73593C19.694 4.74716 19.7306 4.7507 19.7667 4.74631C19.8028 4.74191 19.8374 4.72969 19.8683 4.71049L22.706 2.95399C24.5475 1.81425 26.8496 3.48605 26.3344 5.59017L25.5407 8.83173C25.532 8.86703 25.5311 8.9038 25.5381 8.93947C25.5451 8.97515 25.5597 9.00887 25.5811 9.03828C25.6025 9.06768 25.63 9.09207 25.6618 9.10974C25.6936 9.1274 25.7288 9.13791 25.7651 9.14054L29.0932 9.38748C31.2528 9.54767 32.1328 12.2533 30.4792 13.6528L27.9317 15.8089C27.9039 15.8323 27.8815 15.8615 27.8662 15.8945C27.8509 15.9275 27.8429 15.9634 27.8429 15.9997C27.8429 16.0361 27.8509 16.072 27.8662 16.105C27.8815 16.1379 27.9039 16.1672 27.9317 16.1906L30.4792 18.3466C32.1361 19.7491 31.2493 22.4521 29.0932 22.612L25.7651 22.8589C25.7288 22.8616 25.6935 22.8721 25.6618 22.8897C25.63 22.9074 25.6024 22.9318 25.5811 22.9612C25.5597 22.9906 25.545 23.0244 25.5381 23.0601C25.5311 23.0957 25.532 23.1325 25.5407 23.1678L26.3344 26.4093C26.8494 28.5129 24.5479 30.1856 22.706 29.0456L19.8683 27.2891C19.8374 27.2699 19.8028 27.2576 19.7667 27.2532C19.7306 27.2488 19.694 27.2524 19.6594 27.2636C19.6248 27.2749 19.5931 27.2935 19.5665 27.3183C19.5398 27.343 19.519 27.3733 19.5053 27.407L18.242 30.496C17.4196 32.5071 14.5748 32.4956 13.7572 30.496ZM14.8081 26.4605L15.9996 29.374L17.1911 26.4606C17.8353 24.8856 19.7397 24.2689 21.1843 25.1631L23.8607 26.8198L23.1122 23.7624C22.7075 22.1096 23.8859 20.4912 25.5801 20.3656L28.7192 20.1327L26.3165 18.0992C25.0176 16.9998 25.0198 14.9979 26.3166 13.9005L28.7192 11.867L25.5801 11.634C23.8832 11.5081 22.7083 9.88729 23.1121 8.23723L23.8608 5.1798L21.1843 6.83648C19.7374 7.73192 17.8341 7.11148 17.1911 5.53899L15.9996 2.62556L14.8081 5.53911C14.164 7.11398 12.2595 7.73073 10.8149 6.83661L8.13847 5.17986L8.88703 8.23723C9.29166 9.8901 8.11322 11.5083 6.41904 11.6341L3.28005 11.867L5.68273 13.9005C6.9816 14.9998 6.97941 17.0017 5.68273 18.0991L3.27998 20.1327L6.4191 20.3656C8.11604 20.4915 9.29097 22.1123 8.88703 23.7624L8.13847 26.8198L10.8149 25.1631C12.2642 24.2659 14.1663 24.8911 14.8081 26.4605ZM16 24C11.5887 24 7.99997 20.4112 7.99997 16C7.99997 11.5888 11.5887 8.00004 16 8.00004C20.4111 8.00004 23.9999 11.5888 23.9999 16C23.9999 20.4112 20.4111 24 16 24ZM16 11C13.243 11 11 13.243 11 16C11 18.757 13.243 21 16 21C18.757 21 20.9999 18.757 20.9999 16C20.9999 13.243 18.757 11 16 11Z" fill="#0165E1" /></svg>