<svg width="30" height="32" viewBox="0 0 30 32" fill="none" xmlns="http://www.w3.org/2000/svg">
 <path  d= "M29.1419 14.0819C29.434 12.6664 29.1959 11.2983 28.58 10.145C28.7649 8.65325 28.3287 7.10969 27.4963 5.95813C27.4366 2.46394 25.2573 0 20.4375 0C20 0 19.5 0.000625 19.0487 0.000625C12.5747 0.000625 10.5623 2.5 8 2.5H7.32219C6.96969 2.18906 6.50706 2 6 2H2C0.895437 2 0 2.89544 0 4V19C0 20.1046 0.895437 21 2 21H6C6.74013 21 7.38594 20.5976 7.73175 20H8.1725C9.36912 21.0596 11.0483 23.7908 12.47 25.2125C13.3242 26.0667 13.1046 32 16.955 32C20.5537 32 22.9094 30.004 22.9094 25.4544C22.9094 24.3037 22.6638 23.3463 22.3563 22.5456H24.6362C27.6739 22.5456 30 19.9478 30 17.1969C30 16 29.69 15.01 29.1419 14.0819ZM4 18.5C3.17156 18.5 2.5 17.8284 2.5 17C2.5 16.1716 3.17156 15.5 4 15.5C4.82844 15.5 5.5 16.1716 5.5 17C5.5 17.8284 4.82844 18.5 4 18.5ZM24.6362 19.5456H18.1369C18.1369 21.9094 19.9094 23.0062 19.9094 25.4544C19.9094 26.9387 19.9094 29 16.955 29C15.7731 27.8181 16.3638 24.8638 14.5913 23.0912C12.9313 21.4306 10.455 17 8.6825 17H8V5.36438C11.3507 5.36438 14.2501 3.00062 18.7275 3.00062H21.0912C23.3107 3.00062 24.8925 4.07063 24.4112 7.11938C25.3612 7.62938 26.0675 9.39687 25.2825 10.7175C26.6313 11.9915 26.4512 13.9091 25.6081 14.8188C26.1988 14.8188 27.0056 16.0006 27 17.1819C26.9944 18.3638 25.9556 19.5456 24.6362 19.5456Z" fill="#0165E1" /></svg>