<svg width="30" height="32" viewBox="0 0 30 32" fill="none" xmlns="http://www.w3.org/2000/svg">
 <path  d= "M29.1419 17.9181C29.69 16.99 30 16 30 14.8031C30 12.0522 27.6739 9.45438 24.6362 9.45438H22.3563C22.6638 8.65375 22.9094 7.69625 22.9094 6.54563C22.9094 1.996 20.5537 0 16.955 0C13.1046 0 13.3242 5.93331 12.47 6.7875C11.0483 8.20919 9.36906 10.9404 8.1725 12H2C0.895437 12 0 12.8954 0 14V29C0 30.1046 0.895437 31 2 31H6C6.93081 31 7.713 30.3641 7.93612 29.5031C10.7179 29.5657 12.6274 31.9994 19.0487 31.9994C19.5 31.9994 20 32 20.4375 32C25.2573 32 27.4366 29.5361 27.4963 26.0419C28.3287 24.8903 28.7649 23.3468 28.58 21.855C29.1959 20.7017 29.434 19.3336 29.1419 17.9181ZM25.2825 21.2825C26.0675 22.6031 25.3612 24.3706 24.4112 24.8806C24.8925 27.9294 23.3107 28.9994 21.0912 28.9994H18.7275C14.2501 28.9994 11.3507 26.6356 8 26.6356V15H8.6825C10.455 15 12.9313 10.5694 14.5913 8.90875C16.3638 7.13625 15.7731 4.18188 16.955 3C19.9094 3 19.9094 5.06125 19.9094 6.54563C19.9094 8.99375 18.1369 10.0906 18.1369 12.4544H24.6362C25.9556 12.4544 26.9944 13.6362 27 14.8181C27.0056 15.9994 26.1988 17.1812 25.6081 17.1812C26.4512 18.0909 26.6313 20.0085 25.2825 21.2825ZM5.5 27C5.5 27.8284 4.82844 28.5 4 28.5C3.17156 28.5 2.5 27.8284 2.5 27C2.5 26.1716 3.17156 25.5 4 25.5C4.82844 25.5 5.5 26.1716 5.5 27Z" fill="#0165E1" /></svg>