<svg width="32" height="32" viewBox="0 0 32 32" fill="none" xmlns="http://www.w3.org/2000/svg">
 <path  d= "M16 0C7.16129 0 0 7.16129 0 16C0 24.8387 7.16129 32 16 32C24.8387 32 32 24.8387 32 16C32 7.16129 24.8387 0 16 0ZM16 28.9032C8.87097 28.9032 3.09677 23.129 3.09677 16C3.09677 8.87097 8.87097 3.09677 16 3.09677C23.129 3.09677 28.9032 8.87097 28.9032 16C28.9032 23.129 23.129 28.9032 16 28.9032ZM22.5677 11.9871L18.5548 16L22.5677 20.0129C22.871 20.3161 22.871 20.8065 22.5677 21.1097L21.1097 22.5677C20.8065 22.871 20.3161 22.871 20.0129 22.5677L16 18.5548L11.9871 22.5677C11.6839 22.871 11.1935 22.871 10.8903 22.5677L9.43226 21.1097C9.12903 20.8065 9.12903 20.3161 9.43226 20.0129L13.4452 16L9.43226 11.9871C9.12903 11.6839 9.12903 11.1935 9.43226 10.8903L10.8903 9.43226C11.1935 9.12903 11.6839 9.12903 11.9871 9.43226L16 13.4452L20.0129 9.43226C20.3161 9.12903 20.8065 9.12903 21.1097 9.43226L22.5677 10.8903C22.871 11.1935 22.871 11.6839 22.5677 11.9871Z" fill="#0165E1" /></svg>