<svg width="32" height="32" viewBox="0 0 32 32" fill="none" xmlns="http://www.w3.org/2000/svg">
 <path  d= "M16 0C7.16129 0 0 7.16129 0 16C0 24.8387 7.16129 32 16 32C24.8387 32 32 24.8387 32 16C32 7.16129 24.8387 0 16 0ZM16 28.9032C8.88387 28.9032 3.09677 23.1161 3.09677 16C3.09677 8.88387 8.88387 3.09677 16 3.09677C23.1161 3.09677 28.9032 8.88387 28.9032 16C28.9032 23.1161 23.1161 28.9032 16 28.9032ZM24.329 9.30323C24.0839 9.01935 23.6645 8.95484 23.3419 9.14194L18.1806 12.2387C17.9484 12.3806 17.8065 12.6323 17.8065 12.9032C17.8065 13.1742 17.9484 13.4258 18.1806 13.5677L23.3419 16.6645C23.6903 16.871 24.1032 16.7677 24.329 16.5032C24.5742 16.2129 24.5806 15.7935 24.3355 15.5032L22.1677 12.9032L24.3355 10.3032C24.5806 10.0129 24.5742 9.5871 24.329 9.30323ZM14.1935 12.9032C14.1935 12.6323 14.0516 12.3806 13.8194 12.2387L8.65806 9.14194C8.33548 8.94839 7.91613 9.01935 7.67097 9.30323C7.42581 9.59355 7.41935 10.0129 7.66452 10.3032L9.83226 12.9032L7.66452 15.5032C7.41935 15.7935 7.42581 16.2129 7.67097 16.5032C7.89677 16.7677 8.30968 16.871 8.65806 16.6645L13.8194 13.5677C14.0516 13.4258 14.1935 13.1742 14.1935 12.9032ZM16 17.0323C13.071 17.0323 9.49032 19.5032 9.04516 23.0516C8.94839 23.8129 9.49032 24.4452 10.0452 24.2065C11.5097 23.5806 13.6774 23.2258 16 23.2258C18.3226 23.2258 20.4903 23.5806 21.9548 24.2065C22.5032 24.4452 23.0516 23.8194 22.9548 23.0516C22.5097 19.5032 18.929 17.0323 16 17.0323Z" fill="#0165E1" /></svg>