<svg width="28" height="32" viewBox="0 0 28 32" fill="none" xmlns="http://www.w3.org/2000/svg">
 <path  d= "M12 11.75V25.25C12 25.6642 11.6642 26 11.25 26H9.75C9.33581 26 9 25.6642 9 25.25V11.75C9 11.3358 9.33581 11 9.75 11H11.25C11.6642 11 12 11.3358 12 11.75ZM18.25 11H16.75C16.3358 11 16 11.3358 16 11.75V25.25C16 25.6642 16.3358 26 16.75 26H18.25C18.6642 26 19 25.6642 19 25.25V11.75C19 11.3358 18.6642 11 18.25 11ZM26.5 5C27.3284 5 28 5.67156 28 6.5V7.25C28 7.66419 27.6642 8 27.25 8H26V29C26 30.6569 24.6569 32 23 32H5C3.34312 32 2 30.6569 2 29V8H0.75C0.335813 8 0 7.66419 0 7.25V6.5C0 5.67156 0.671562 5 1.5 5H6.15069L8.27681 1.4565C8.54335 1.01227 8.92039 0.644633 9.37121 0.38939C9.82202 0.134146 10.3313 -4.98411e-06 10.8493 1.38884e-10L17.1507 1.38884e-10C17.6688 -4.98411e-06 18.178 0.134146 18.6289 0.38939C19.0797 0.644633 19.4567 1.01227 19.7232 1.4565L21.8493 5H26.5ZM9.64931 5H18.3507L17.26 3.18206C17.2267 3.12653 17.1796 3.08058 17.1232 3.04867C17.0668 3.01677 17.0032 3 16.9384 3H11.0617C10.9969 3 10.9333 3.01677 10.8769 3.04867C10.8206 3.08058 10.7734 3.12653 10.7401 3.18206L9.64931 5ZM23 8H5V28.625C5 28.7245 5.03951 28.8198 5.10984 28.8902C5.18016 28.9605 5.27554 29 5.375 29H22.625C22.7245 29 22.8198 28.9605 22.8902 28.8902C22.9605 28.8198 23 28.7245 23 28.625V8Z" fill="#0165E1" /></svg>