<svg width="28" height="32" viewBox="0 0 28 32" fill="none" xmlns="http://www.w3.org/2000/svg">
 <path  d= "M19.6 19C17.8062 19 16.9438 20 14 20C11.0562 20 10.2 19 8.4 19C3.7625 19 0 22.7625 0 27.4V29C0 30.6562 1.34375 32 3 32H25C26.6562 32 28 30.6562 28 29V27.4C28 22.7625 24.2375 19 19.6 19ZM25 29H3V27.4C3 24.425 5.425 22 8.4 22C9.3125 22 10.7937 23 14 23C17.2313 23 18.6812 22 19.6 22C22.575 22 25 24.425 25 27.4V29ZM14 18C18.9688 18 23 13.9688 23 9C23 4.03125 18.9688 0 14 0C9.03125 0 5 4.03125 5 9C5 13.9688 9.03125 18 14 18ZM14 3C17.3062 3 20 5.69375 20 9C20 12.3062 17.3062 15 14 15C10.6938 15 8 12.3062 8 9C8 5.69375 10.6938 3 14 3Z" fill="#0165E1" /></svg>