<svg width="32" height="32" viewBox="0 0 32 32" fill="none" xmlns="http://www.w3.org/2000/svg">
 <path  d= "M16 6.19355C12.5806 6.19355 9.80645 8.96774 9.80645 12.3871C9.80645 15.8065 12.5806 18.5806 16 18.5806C19.4194 18.5806 22.1935 15.8065 22.1935 12.3871C22.1935 8.96774 19.4194 6.19355 16 6.19355ZM16 15.4839C14.2903 15.4839 12.9032 14.0968 12.9032 12.3871C12.9032 10.6774 14.2903 9.29032 16 9.29032C17.7097 9.29032 19.0968 10.6774 19.0968 12.3871C19.0968 14.0968 17.7097 15.4839 16 15.4839ZM16 0C7.16129 0 0 7.16129 0 16C0 24.8387 7.16129 32 16 32C24.8387 32 32 24.8387 32 16C32 7.16129 24.8387 0 16 0ZM16 28.9032C12.7935 28.9032 9.86452 27.7226 7.60645 25.7806C8.56774 24.2968 10.2129 23.2903 12.0968 23.2323C13.4387 23.6452 14.7161 23.8516 16 23.8516C17.2839 23.8516 18.5613 23.6516 19.9032 23.2323C21.7871 23.2968 23.4323 24.2968 24.3935 25.7806C22.1355 27.7226 19.2065 28.9032 16 28.9032ZM26.4968 23.4774C24.9226 21.4516 22.4903 20.129 19.7161 20.129C19.0581 20.129 18.0387 20.7484 16 20.7484C13.9677 20.7484 12.9419 20.129 12.2839 20.129C9.51613 20.129 7.08387 21.4516 5.50323 23.4774C3.99355 21.3677 3.09677 18.7871 3.09677 16C3.09677 8.88387 8.88387 3.09677 16 3.09677C23.1161 3.09677 28.9032 8.88387 28.9032 16C28.9032 18.7871 28.0065 21.3677 26.4968 23.4774Z" fill="#0165E1" /></svg>