<svg width="32" height="28" viewBox="0 0 32 28" fill="none" xmlns="http://www.w3.org/2000/svg">
 <path  d= "M29 0H3C1.34375 0 0 1.34375 0 3V25C0 26.6562 1.34375 28 3 28H29C30.6562 28 32 26.6562 32 25V3C32 1.34375 30.6562 0 29 0ZM29 24.625C29 24.8312 28.8312 25 28.625 25H3.375C3.16875 25 3 24.8312 3 24.625V3.375C3 3.16875 3.16875 3 3.375 3H28.625C28.8312 3 29 3.16875 29 3.375V24.625ZM22.2812 10.1625L18.4438 14L22.2812 17.8375C22.5688 18.125 22.5688 18.5938 22.2812 18.8875L20.8875 20.2812C20.6 20.5688 20.1313 20.5688 19.8375 20.2812L16 16.4438L12.1625 20.2812C11.875 20.5688 11.4062 20.5688 11.1125 20.2812L9.71875 18.8875C9.43125 18.6 9.43125 18.1313 9.71875 17.8375L13.5562 14L9.71875 10.1625C9.43125 9.875 9.43125 9.40625 9.71875 9.1125L11.1125 7.71875C11.4 7.43125 11.8688 7.43125 12.1625 7.71875L16 11.5562L19.8375 7.71875C20.125 7.43125 20.5938 7.43125 20.8875 7.71875L22.2812 9.1125C22.575 9.4 22.575 9.86875 22.2812 10.1625Z" fill="#0165E1" /></svg>