<svg width="26" height="32" viewBox="0 0 26 32" fill="none" xmlns="http://www.w3.org/2000/svg">
 <path  d= "M5.19182 21.7307C4.76993 20.809 4.74397 20.5429 5.67213 20.2314C7.33374 19.7121 6.19138 20.8285 8.47609 23.4248H8.49556V17.3301C8.57345 14.0717 11.3515 11.3457 14.8369 11.3457C18.3354 11.3457 21.1783 14.1691 21.1783 17.6286C21.1783 21.7437 17.232 24.976 12.8378 23.6844C12.1563 23.4118 12.7015 21.6269 13.3895 21.8281C16.8296 21.8281 19.1922 21.1725 19.1922 17.6481C19.1922 13.6888 14.1879 11.8325 11.6046 14.7533C10.0793 16.4668 10.4622 17.4858 10.4622 24.9825C13.753 26.9946 18.1407 26.4105 20.8732 23.6779C22.4829 22.0682 23.3721 19.9133 23.3721 17.6416C23.3721 15.3569 22.4764 13.215 20.8538 11.5858C19.2441 9.97614 17.1022 9.08692 14.798 9.08692C12.4938 9.08692 10.3324 9.98263 8.72923 11.5858C8.70976 11.6053 7.69072 12.6568 7.35321 13.1371L7.32076 13.176C7.10656 13.4811 6.91184 13.7667 6.01613 13.572C5.56828 13.4616 5.08797 13.1955 5.08797 12.8061V0.681519C5.08797 0.356986 5.34111 0 5.76949 0H21.4314C21.9702 0 21.9702 0.752916 21.9702 0.980089C21.9702 1.23322 21.9702 1.96018 21.4314 1.96018H6.9443V10.5863H6.96377C13.727 3.45952 25.3193 8.24962 25.3193 17.6546C25.3193 29.2144 9.43022 31.9535 5.19182 21.7307V21.7307ZM9.30041 4.80309C9.26795 5.07569 9.59898 6.3933 10.248 6.14016C18.3484 3.0571 23.4111 8.76239 23.8395 8.76239C24.151 8.76239 25.3193 7.76932 24.7676 7.28252C18.7183 1.50583 9.54705 3.58284 9.30041 4.80309V4.80309ZM23.9953 26.3001C16.8555 33.4334 4.58819 30.2465 2.44627 19.5369C2.44627 18.745 0.473114 19.0566 0.570474 19.7511C2.12823 31.0059 16.5375 36.4256 25.3388 27.6242C25.7867 27.118 24.521 25.7809 23.9953 26.3001V26.3001ZM12.351 19.2837C12.351 19.5434 12.6301 19.7576 12.708 19.8354C12.9027 20.0302 13.1039 20.121 13.2597 20.121C13.5064 20.121 13.4285 20.134 14.7071 18.8554C15.9793 20.1081 15.9468 20.121 16.1545 20.121C16.505 20.121 17.3553 19.446 16.849 18.9397L15.7262 17.8169L16.9075 16.6356C17.3164 16.1942 16.2519 15.2206 15.856 15.6165L14.6941 16.7783C13.4869 15.5581 13.4999 15.5127 13.2987 15.5127C12.9741 15.5127 12.1303 16.2721 12.4938 16.6356L13.6751 17.8169C12.5003 18.9787 12.351 19.0631 12.351 19.2837Z" fill="#0165E1" /></svg>