<svg width="26" height="32" viewBox="0 0 26 32" fill="none" xmlns="http://www.w3.org/2000/svg">
 <path  d= "M25.494 15.988L24.6878 25.8195C24.4815 28.3633 20.6939 28.0133 20.9001 25.5133L21.5252 17.8568L18.9563 18.0005C19.5876 19.2943 19.9439 20.7444 19.9439 22.2819C19.9439 24.857 18.9376 27.2008 17.3 28.9384L14.8437 26.482C18.4626 22.5007 15.6625 16.0317 10.2186 16.0317C8.59978 16.0317 7.12474 16.6505 6.01846 17.6568L3.56213 15.2005C4.93717 13.9067 6.69348 13.0066 8.64978 12.6879L13.3562 7.33147L10.6936 5.78142L7.4685 8.65651C5.59344 10.3316 3.05587 7.50022 4.93717 5.81892L9.1873 2.02506C9.79982 1.47504 10.6936 1.38754 11.4061 1.80005C11.4061 1.80005 20.1126 6.85645 20.1251 6.86895C21.1377 7.50022 21.4189 9.11902 20.5064 10.1566L16.8563 14.3129L23.4877 13.9442C24.644 13.8754 25.5878 14.8442 25.494 15.988ZM21.4377 6.36269C23.194 6.36269 24.619 4.93765 24.619 3.18134C24.619 1.42504 23.194 0 21.4377 0C19.6814 0 18.2563 1.42504 18.2563 3.18134C18.2563 4.93765 19.6814 6.36269 21.4377 6.36269V6.36269ZM10.2248 28.5321C5.18718 28.5321 2.26209 22.8694 5.05593 18.7756L2.5746 16.2942C1.27457 17.938 0.499542 20.0193 0.499542 22.2757C0.499542 30.4447 9.91857 34.8635 16.2125 29.9321L13.7312 27.4508C12.7312 28.1321 11.5249 28.5321 10.2248 28.5321Z" fill="#0165E1" /></svg>