<svg width="32" height="22" viewBox="0 0 32 22" fill="none" xmlns="http://www.w3.org/2000/svg">
 <path  d= "M24.1065 16.8067C23.8215 16.4617 12.4978 1.95338 12.1128 1.47843C11.4279 0.618532 12.1128 0.63853 13.0727 0.63353C13.5577 0.628531 18.3871 0.603534 18.8971 0.603534C20.1019 0.598534 20.3319 0.63353 20.8168 1.24346C20.9218 1.37844 31.0707 13.532 31.1756 13.657C31.4506 13.992 31.9356 14.6119 31.5356 14.8269C31.4156 14.8919 25.8063 17.2116 25.6463 17.2716C25.1413 17.4716 24.7714 17.6116 24.1065 16.8067V16.8067ZM29.8408 16.5267C29.8408 16.5267 24.0915 19.0464 23.9665 19.1064C23.1666 19.4714 22.6216 18.9464 22.1317 18.3765L19.277 14.6769C19.007 14.6319 16.2574 14.197 16.0124 14.212C15.8574 14.222 15.5324 14.252 15.2925 14.357C15.0475 14.4619 8.0333 16.9966 7.78333 17.0916C7.52836 17.1916 7.21339 17.2716 7.22839 17.4716C7.23839 17.5966 7.32838 17.6016 7.45836 17.6466C7.59335 17.6866 22.5016 21.0262 22.8566 21.1012C23.6365 21.2662 24.7814 21.6261 25.5363 21.1862C25.6413 21.1262 31.7256 17.3666 31.8256 17.2966C32.0955 17.0966 32.0405 16.9567 31.7406 16.8867C31.6256 16.8717 30.5107 16.6517 29.8408 16.5267V16.5267ZM13.5427 7.46275C13.5427 7.46275 12.9427 7.54274 12.2928 8.21766C11.8429 8.68261 0.1892 20.1713 0.124208 20.2613C-0.225752 20.7612 0.204199 20.6012 0.909118 20.3463C0.949113 20.3463 6.63346 18.5165 6.63346 18.5165C6.65846 18.4865 6.62846 18.5115 6.66346 18.4865C6.64346 18.2315 6.62346 17.1766 6.61346 17.1016C6.58347 16.8417 6.72345 16.7567 6.96342 16.6567L11.5929 14.9669C11.6229 14.9269 16.0174 10.8824 16.1024 10.8024V10.7524L13.5427 7.46275" fill="#0165E1" /></svg>