<svg width="32" height="28" viewBox="0 0 32 28" fill="none" xmlns="http://www.w3.org/2000/svg">
 <path  d= "M30.1313 0H1.79375C0.3625 0 0 0.36875 0 1.80625V26.1938C0 27.65 0.3625 28 1.79375 28H30.1313C31.6563 28 32 27.675 32 26.1437V1.8875C32 0.35 31.6625 0 30.1313 0V0ZM11.15 11.7688C9.43125 10.5063 6.64375 11.225 5.8875 13.2312C5.61875 13.925 5.30625 13.825 4.79375 13.75C4.1875 13.6562 3.71875 13.55 3.3875 13.4062C1.5875 12.6938 3.925 9.95 4.94375 9.3875C7.5125 8.05 10.1562 8 12.775 9.0875C15.3312 10.1375 14.9312 12.7875 14.9312 17.1187C15.1 18.7312 14.6625 20.7625 15.5125 22.6688C15.6312 22.9438 15.5375 23.1625 15.3438 23.3375C14.8188 23.7562 12.8875 23.475 12.4312 22.875C12.3125 22.7375 12.3187 22.65 12.1875 22.4875C11.9625 22.2437 11.7313 22.35 11.4438 22.55C7.85625 24.825 2.675 23.8875 2.25625 19.8438C2.0625 18.0125 3.03125 16.275 4.73125 15.4062C7.11875 14.1875 11.7437 14.6688 11.8562 13.475C11.925 12.8375 11.7375 12.2188 11.15 11.7688V11.7688ZM29.0688 25.6437C29.0688 26.5875 28.375 26.2625 27.9562 26.2625H3.275C2.8125 26.2625 2.1375 26.5625 2.1625 25.5938C2.1875 24.725 2.81875 25.025 3.23125 25.025C11.5 25 19.7625 25 28.0312 25.025C28.4563 25.025 29.0688 24.75 29.0688 25.6437V25.6437ZM29.3062 4.3625V22.55C29.3062 22.9062 29.2625 23.4188 28.8 23.4188C28.025 23.3938 27.0813 23.8625 26.5438 23.0688C26.1813 22.525 26.0562 22.8187 25.7687 22.9937C22.4312 24.85 17.7625 23.4375 16.7437 17.6688C16.3625 15.5813 16.7 13.475 17.725 11.4187C18.4625 9.925 21.2813 6.6625 26.2313 9.5125V5.075C26.2313 3.4375 26.225 3.4375 27.8563 3.4375C28.05 3.4375 28.2687 3.4625 28.4625 3.4375C29.0937 3.3875 29.3125 3.7125 29.3125 4.33125C29.3062 4.34375 29.3062 4.35 29.3062 4.3625V4.3625ZM26.0875 18.8813C24.8687 21.8563 21.5312 21.5875 20.4625 19.2062C19.5187 17.125 19.4937 14.9438 20.4875 12.8625C21.5062 10.7313 24.2187 10.6313 25.5812 12.5625C26.8687 14.3625 26.5125 17.85 26.0875 18.8813ZM7.6625 21.0875C7.19375 21.0062 5.6 20.8813 5.55625 19.35C5.53125 18.4813 6.04375 17.9125 6.79375 17.7375C8.31875 17.3687 9.875 17.1188 11.4 16.8188C11.9562 16.6938 11.8625 17.0938 11.8875 17.4125C11.975 19.475 10.2562 21.1125 7.6625 21.0875V21.0875Z" fill="#0165E1" /></svg>