<svg width="32" height="28" viewBox="0 0 32 28" fill="none" xmlns="http://www.w3.org/2000/svg">
 <path  d= "M9.98235 11.836C6.77549 16.2681 2.69347 18.7623 0.874369 17.4121C-0.950979 16.0556 0.174235 11.3734 3.38735 6.94134C6.59421 2.50925 10.6762 0.0150208 12.4953 1.36528C14.3144 2.71554 13.1892 7.40393 9.98235 11.836V11.836ZM31.9365 8.25409C27.3232 15.9681 19.9405 19.9876 15.4021 17.2308C13.8393 16.2806 12.8204 14.6553 12.3391 12.6174C10.2387 16.6682 6.53795 19.7313 2.08085 20.944C5.19394 24.651 9.83858 27.0014 15.0208 27.0014C24.3976 27.0014 31.9991 19.3062 31.9991 9.81689C32.0053 9.28554 31.9803 8.76669 31.9365 8.25409V8.25409Z" fill="#0165E1" /></svg>