<svg width="32" height="32" viewBox="0 0 32 32" fill="none" xmlns="http://www.w3.org/2000/svg">
 <path  d= "M16.3821 10.7571C12.8607 10.7571 10.0107 13.6071 10.0107 17.1286C10.0107 20.65 12.8607 23.5 16.3821 23.5C19.9036 23.5 22.7536 20.65 22.7536 17.1286C22.7536 13.6071 19.8964 10.7571 16.3821 10.7571V10.7571ZM20.8607 14.8L16.6536 16.9857C16.525 17.05 16.3821 16.9571 16.3821 16.8214V12.0714C16.3821 11.9643 16.475 11.8786 16.575 11.8857C18.4464 11.9571 20.0679 13.0071 20.9393 14.5357C20.9893 14.6286 20.9536 14.75 20.8607 14.8V14.8ZM27.7964 0H4.21071C1.88928 0 0.00357056 1.88571 0.00357056 4.20714V27.7857C0.00357056 30.1143 1.88928 32 4.21071 32H27.7893C30.1179 32 31.9964 30.1143 31.9964 27.7929V4.20714C32.0036 1.88571 30.1179 0 27.7964 0ZM13.325 6.05C13.325 5.27857 13.9464 4.65714 14.7179 4.65714H17.9536C18.725 4.65714 19.3464 5.27857 19.3464 6.05V7.15C19.3464 7.27857 19.225 7.36429 19.1107 7.32857C18.2321 7.08572 17.3179 6.96429 16.3893 6.96429C15.425 6.96429 14.4821 7.09286 13.575 7.35714C13.4536 7.39286 13.3321 7.3 13.3321 7.17857V6.05H13.325ZM7.29643 8.69286L7.95357 8.03571C8.49643 7.49286 9.375 7.49286 9.91786 8.03571L10.4679 8.58571C10.5464 8.66429 10.5393 8.8 10.4464 8.87143C10.0036 9.19286 9.58214 9.54286 9.18928 9.93572C8.80357 10.3214 8.44643 10.7429 8.13214 11.1786C8.06071 11.2714 7.925 11.2857 7.84643 11.2L7.29643 10.65C6.75357 10.1143 6.75357 9.23571 7.29643 8.69286V8.69286ZM16.3821 26.1786C11.3821 26.1786 7.33928 22.1286 7.33928 17.1357C7.33928 12.1429 11.3893 8.09286 16.3821 8.09286C21.3821 8.09286 25.425 12.1357 25.425 17.1357C25.425 22.1214 21.375 26.1786 16.3821 26.1786V26.1786Z" fill="#0165E1" /></svg>