<svg width="32" height="20" viewBox="0 0 32 20" fill="none" xmlns="http://www.w3.org/2000/svg">
 <path  d= "M0 13.6309C0.120419 13.411 0.272251 13.3744 0.507853 13.5C1.05236 13.7932 1.58639 14.0969 2.14136 14.3744C4.27225 15.4424 6.49738 16.2382 8.81152 16.7984C9.90576 17.0602 11.0052 17.2696 12.1204 17.4162C13.7696 17.6361 15.4293 17.7304 17.0942 17.6885C18.0052 17.6675 18.9162 17.5942 19.822 17.4895C22.7749 17.1388 25.6283 16.4005 28.3717 15.2487C28.5236 15.1859 28.6806 15.144 28.8482 15.1859C29.199 15.2801 29.3194 15.6571 29.0628 15.9136C28.9162 16.0602 28.733 16.1806 28.5602 16.3011C26.9529 17.4058 25.199 18.2068 23.3455 18.8089C22.0576 19.2225 20.7487 19.5314 19.4136 19.7304C18.4921 19.8665 17.5602 19.9607 16.6283 19.9817C16.5864 19.9817 16.5393 19.9922 16.4974 19.9974H15.3927C15.3508 19.9922 15.3037 19.9817 15.2618 19.9817C15.0733 19.9712 14.8848 19.966 14.7016 19.9607C13.8168 19.9241 12.9372 19.8246 12.0628 19.6833C10.6283 19.4477 9.22513 19.0864 7.8534 18.589C5.02094 17.5628 2.48168 16.0445 0.230366 14.034C0.136126 13.9503 0.0732984 13.8351 0 13.7356V13.6309H0ZM8.27225 0.00786011C8.19895 0.0183313 8.12042 0.0288024 8.04712 0.0392736C7.31414 0.128279 6.65445 0.40053 6.05759 0.82985C5.93194 0.918855 5.81675 1.0131 5.68586 1.11257C5.67539 1.08639 5.66492 1.06022 5.66492 1.03927C5.64398 0.897912 5.62304 0.751316 5.59686 0.609954C5.56021 0.369117 5.43979 0.264405 5.19895 0.264405H4.59686C4.2356 0.264405 4.16754 0.332467 4.16754 0.693724V11.6518C4.16754 11.7042 4.16754 11.7566 4.17277 11.8089C4.18325 11.966 4.27749 12.0655 4.42932 12.0707C4.79581 12.0759 5.16754 12.0759 5.53403 12.0707C5.68586 12.0707 5.7801 11.966 5.79581 11.8089C5.80105 11.7566 5.80105 11.7042 5.80105 11.6518V7.86126C5.85864 7.90838 5.89005 7.93456 5.91623 7.96074C6.8534 8.74084 7.93194 8.99739 9.10995 8.76702C10.178 8.5576 10.9215 7.90315 11.4031 6.9398C11.7696 6.21205 11.9215 5.43718 11.9424 4.6309C11.9686 3.73561 11.8796 2.85603 11.5183 2.02357C11.0733 0.997389 10.3351 0.321996 9.2199 0.0916297C9.05236 0.0549805 8.87958 0.0392736 8.70681 0.0130956C8.56021 0.00786003 8.41885 0.00786011 8.27225 0.00786011V0.00786011ZM5.79058 2.20158C5.79058 2.12304 5.81152 2.07592 5.87958 2.0288C6.59686 1.53142 7.38743 1.26964 8.26702 1.3377C9.04712 1.39529 9.68586 1.77749 10.0209 2.69372C10.2251 3.25393 10.2775 3.83509 10.2775 4.42147C10.2775 4.96598 10.2356 5.50001 10.0681 6.02357C9.71204 7.13875 8.89529 7.56283 7.8377 7.51571C7.10471 7.4843 6.46597 7.20158 5.87958 6.78797C5.81675 6.74085 5.79058 6.69896 5.79058 6.61519C5.79581 5.87697 5.79058 5.14399 5.79058 4.40577C5.79058 3.67278 5.79581 2.9398 5.79058 2.20158V2.20158ZM16.5602 0.00786011C16.5079 0.0130957 16.4555 0.023567 16.4084 0.0288026C15.8953 0.0549806 15.3927 0.117808 14.8953 0.243462C14.5759 0.327232 14.267 0.442415 13.9581 0.547127C13.7696 0.609955 13.6754 0.74608 13.6806 0.950269C13.6859 1.12304 13.6754 1.29582 13.6806 1.46859C13.6859 1.7199 13.7906 1.78796 14.0366 1.72514C14.445 1.62043 14.8534 1.50524 15.267 1.42671C15.911 1.30629 16.5602 1.25393 17.2147 1.35341C17.555 1.40577 17.8743 1.50524 18.0942 1.7932C18.288 2.04451 18.3613 2.34294 18.3717 2.65184C18.3874 3.08639 18.3822 3.52095 18.3874 3.9555C18.3874 3.97645 18.3822 4.00262 18.377 4.0288C18.3508 4.02357 18.3298 4.0288 18.3089 4.02357C17.7592 3.89268 17.2042 3.79844 16.6335 3.76702C16.0419 3.73561 15.4555 3.77226 14.8901 3.97121C14.2147 4.20681 13.6702 4.61519 13.3508 5.27488C13.1047 5.78797 13.0681 6.33247 13.1466 6.88221C13.2513 7.61519 13.6178 8.18064 14.267 8.54189C14.8901 8.88744 15.5654 8.92933 16.2513 8.82461C17.0419 8.7042 17.7435 8.36912 18.3613 7.86126C18.3822 7.84032 18.4084 7.82461 18.445 7.80367C18.4764 8.00262 18.5026 8.19111 18.5393 8.37959C18.5707 8.54189 18.6702 8.6466 18.822 8.65184C19.1047 8.65708 19.3927 8.65708 19.6754 8.65184C19.8168 8.6466 19.911 8.55236 19.9267 8.40577C19.9319 8.35865 19.9319 8.30629 19.9319 8.25917V2.70943C19.9319 2.4843 19.9215 2.25917 19.8848 2.03404C19.7853 1.35865 19.4974 0.803672 18.8901 0.442415C18.5393 0.232991 18.1518 0.128279 17.7487 0.0706872C17.5602 0.0445092 17.3717 0.0288026 17.1832 0.00262459C16.9791 0.00786019 16.7696 0.00786011 16.5602 0.00786011V0.00786011ZM18.3927 6.69372C18.3927 6.76179 18.3717 6.80891 18.3141 6.85079C17.7277 7.27488 17.0838 7.5576 16.356 7.6309C16.0576 7.66231 15.7592 7.65184 15.4764 7.53666C15.1466 7.40577 14.9319 7.1754 14.8272 6.84032C14.7225 6.50524 14.7225 6.15969 14.822 5.82461C14.9529 5.39006 15.2618 5.14399 15.6806 5.00786C16.1047 4.87173 16.5445 4.85079 16.9791 4.89268C17.4188 4.92933 17.8482 5.0131 18.288 5.07069C18.3717 5.08116 18.3979 5.12304 18.3979 5.20681C18.3927 5.45812 18.3979 5.7042 18.3979 5.9555C18.3927 6.20158 18.3874 6.44765 18.3927 6.69372ZM32 13.4686C31.9476 13.2068 31.7487 13.1073 31.5236 13.034C31.1675 12.9136 30.7958 12.8613 30.4241 12.8299C29.7382 12.7723 29.0524 12.8037 28.3717 12.9293C27.623 13.0707 26.911 13.3115 26.2775 13.7461C26.2042 13.7984 26.1309 13.856 26.0838 13.9293C26.0471 13.9869 26.0366 14.0759 26.0576 14.1388C26.0785 14.2173 26.1675 14.2382 26.2461 14.233C26.2827 14.233 26.3246 14.233 26.3613 14.2278C26.7696 14.1859 27.1728 14.1388 27.5812 14.0969C28.178 14.0393 28.7801 14.0026 29.377 14.0497C29.6283 14.0655 29.8848 14.123 30.1309 14.1911C30.3979 14.2644 30.5183 14.4634 30.5288 14.7356C30.5497 15.1545 30.4555 15.5576 30.3455 15.9555C30.1309 16.7618 29.822 17.5419 29.5183 18.3168C29.4974 18.3691 29.4764 18.4215 29.466 18.4738C29.4398 18.6257 29.5288 18.7251 29.6806 18.6885C29.7696 18.6675 29.8691 18.6204 29.9319 18.5576C30.1623 18.3325 30.3979 18.1073 30.5969 17.856C31.267 16.9974 31.6597 16.0079 31.8901 14.945C31.9319 14.7566 31.9634 14.5628 32 14.3744V13.4686V13.4686ZM25.0838 7.01833C24.4084 5.14922 23.733 3.27488 23.0576 1.40577C22.9529 1.10734 22.8377 0.814143 22.7277 0.520949C22.6702 0.369117 22.5602 0.26964 22.3927 0.26964C21.9948 0.264405 21.5969 0.259169 21.1937 0.264405C21.0628 0.264405 21 0.369117 21.0262 0.500007C21.0524 0.609954 21.0838 0.714666 21.1257 0.819378C22.1518 3.35865 23.1832 5.90315 24.2199 8.43718C24.3089 8.65184 24.3298 8.83509 24.2304 9.05498C24.0576 9.43718 23.9215 9.84032 23.7435 10.2225C23.5864 10.5628 23.3246 10.8194 22.9476 10.9189C22.6806 10.9922 22.4136 11.0026 22.1414 10.9764C22.0105 10.966 21.8796 10.9346 21.7487 10.9241C21.5707 10.9136 21.4817 10.9922 21.4764 11.1754C21.4712 11.3482 21.4712 11.521 21.4764 11.6937C21.4817 11.9817 21.5812 12.1126 21.8639 12.1597C22.1571 12.212 22.4555 12.2592 22.7487 12.2644C23.644 12.2853 24.356 11.9241 24.8168 11.144C25 10.8351 25.1675 10.5105 25.2984 10.1806C26.5393 7.04974 27.7644 3.91362 28.9948 0.777494C29.0314 0.683253 29.0628 0.589012 29.0785 0.489535C29.0995 0.342939 29.0314 0.259169 28.8848 0.259169C28.5393 0.253934 28.1885 0.259169 27.8429 0.259169C27.6492 0.259169 27.5131 0.342939 27.4398 0.53142C27.4136 0.604719 27.3822 0.672782 27.356 0.74608C26.7487 2.48954 26.1414 4.23299 25.534 5.98168C25.4031 6.35865 25.267 6.74085 25.1309 7.14399C25.1099 7.08639 25.0995 7.05498 25.0838 7.01833V7.01833Z" fill="#0165E1" /></svg>