<svg width="32" height="32" viewBox="0 0 32 32" fill="none" xmlns="http://www.w3.org/2000/svg">
 <path  d= "M18.3715 9.33571C14.8929 9.46429 6.26436 10.4429 6.26436 17.7286C6.26436 25.55 16.1429 25.8714 19.3715 20.8143C19.8358 21.5429 21.9001 23.4929 22.6072 24.1571L26.6644 20.1571C26.6644 20.1571 24.3572 18.35 24.3572 16.3857V5.87857C24.3572 4.07143 22.6072 0 16.3358 0C10.0501 0 6.71436 3.92857 6.71436 7.45L11.9644 7.93572C13.1286 4.4 15.8358 4.4 15.8358 4.4C18.7429 4.39286 18.3715 6.52857 18.3715 9.33571V9.33571ZM18.3715 15.5357C18.3715 21.25 12.3572 20.3929 12.3572 16.7643C12.3572 13.3929 15.9644 12.7143 18.3715 12.6357V15.5357V15.5357ZM28.0858 27.2143C27.5358 27.9286 23.0858 32 15.6215 32C8.15721 32 2.44293 26.8929 0.692928 24.7857C0.207213 24.2357 0.764356 23.9786 1.08578 24.1929C6.3215 27.3714 14.5001 32.6071 27.6929 26.3571C28.2286 26.0929 28.6429 26.5 28.0858 27.2143ZM30.9286 27.3714C30.4644 28.5 29.7858 29.2857 29.4144 29.5857C29.0215 29.9071 28.7358 29.7786 28.9501 29.3143C29.1644 28.85 30.3286 25.9929 29.8572 25.3857C29.3929 24.7929 27.2144 25.0786 26.4286 25.1571C25.6572 25.2286 25.5001 25.3 25.4286 25.1357C25.2644 24.7286 26.9786 24.0286 28.1072 23.8857C29.2286 23.7571 31.0358 23.8286 31.3929 24.2929C31.6572 24.6571 31.3929 26.2286 30.9286 27.3714Z" fill="#0165E1" /></svg>