<svg width="30" height="32" viewBox="0 0 30 32" fill="none" xmlns="http://www.w3.org/2000/svg">
 <path  d= "M16.1448 0C11.7234 0 6.75193 1.20714 2.98765 3.95714C2.62336 4.17857 2.33765 4.61429 2.47336 5.34286C2.55193 5.70714 2.83765 7.3 3.20193 8.17143C3.49479 8.9 4.21622 8.9 4.65193 8.60714C6.97336 7.01429 11.5448 5.2 15.5305 5.2C19.6662 5.2 19.7376 7.22857 19.7376 10.4214V13.1714C13.4948 13.9786 4.58051 15.6429 2.33051 16.5857C-0.205208 17.75 0.159077 23.2643 0.159077 24.5714C0.159077 25.8786 1.24479 32 9.08051 32C12.4948 32 17.2019 30.5214 20.0305 28.9929V30.8071C20.0305 31.0214 20.1805 31.3929 20.4662 31.4571C20.6876 31.5286 24.0876 31.6 24.7448 31.6C25.4019 31.6 29.2091 31.6214 29.4948 31.55C29.7876 31.4786 29.8591 31.1143 29.8591 30.9V9.71429C29.8519 3.97857 25.7234 0 16.1448 0V0ZM9.86622 23.4071C9.86622 22.5357 9.65193 20.3571 11.1734 19.6286C12.9091 18.6857 16.5376 17.5286 19.7305 17.2357V24.8571C18.2019 25.8 16.2519 26.6 14.0805 26.6C10.3091 26.6 9.87336 24.2071 9.86622 23.4071" fill="#0165E1" /></svg>