<svg width="28" height="32" viewBox="0 0 28 32" fill="none" xmlns="http://www.w3.org/2000/svg">
 <path  d= "M4.39646 12.3311V20.6056C4.39646 21.706 3.53185 22.5849 2.43144 22.5849C1.33818 22.5849 0.28064 21.6988 0.28064 20.6056V12.3311C0.28064 11.2521 1.33818 10.3661 2.43144 10.3661C3.51041 10.3661 4.39646 11.2521 4.39646 12.3311ZM5.16817 23.5495C5.16817 24.7214 6.11138 25.6646 7.28324 25.6646H8.7052L8.72664 30.0305C8.72664 32.6672 12.671 32.6458 12.671 30.0305V25.6646H15.3291V30.0305C15.3291 32.6529 19.2949 32.6601 19.2949 30.0305V25.6646H20.7382C21.8958 25.6646 22.839 24.7214 22.839 23.5495V10.7305H5.16817V23.5495V23.5495ZM22.889 10.0374H5.08957C5.08957 6.97908 6.91882 4.32095 9.63412 2.93472L8.26932 0.412353C8.06925 0.0622227 8.57658 -0.159288 8.74807 0.140823L10.1343 2.68463C12.6281 1.57707 15.4934 1.63424 17.8729 2.68463L19.252 0.147969C19.4306 -0.159288 19.9308 0.0693681 19.7307 0.419498L18.3659 2.93472C21.0598 4.32095 22.889 6.97908 22.889 10.0374V10.0374ZM10.6917 6.0716C10.6917 5.66431 10.363 5.32132 9.94137 5.32132C9.53408 5.32132 9.21253 5.66431 9.21253 6.0716C9.21253 6.47889 9.54123 6.82188 9.94137 6.82188C10.363 6.82188 10.6917 6.47889 10.6917 6.0716ZM18.7947 6.0716C18.7947 5.66431 18.466 5.32132 18.0658 5.32132C17.6442 5.32132 17.3155 5.66431 17.3155 6.0716C17.3155 6.47889 17.6442 6.82188 18.0658 6.82188C18.466 6.82188 18.7947 6.47889 18.7947 6.0716ZM25.5686 10.3661C24.4896 10.3661 23.6036 11.2307 23.6036 12.3311V20.6056C23.6036 21.706 24.4896 22.5849 25.5686 22.5849C26.669 22.5849 27.7194 21.6988 27.7194 20.6056V12.3311C27.7194 11.2307 26.6619 10.3661 25.5686 10.3661Z" fill="#0165E1" /></svg>