<svg width="24" height="32" viewBox="0 0 24 32" fill="none" xmlns="http://www.w3.org/2000/svg">
 <path  d= "M19.6906 13.4625C20.4219 11.425 22.5281 5.53125 22.5281 3.64375C22.5281 1.98125 21.5469 0.5875 19.7969 0.5875C17.0094 0.5875 14.5094 8.81875 13.7281 10.7812C13.1219 9 10.2844 0 7.78437 0C5.84062 0 4.92812 1.43125 4.92812 3.23125C4.92812 5.4375 7.06562 11.1562 7.84062 13.3562C7.44687 13.2125 7.02187 13.0875 6.59062 13.0875C5.12812 13.0875 3.57187 14.9062 3.57187 16.375C3.57187 16.9312 3.87812 17.7125 4.07187 18.2313C1.76562 18.8563 0.87812 20.3937 0.87812 22.7125C0.87187 27.225 5.14687 32 11.1594 32C18.5344 32 23.1219 26.4625 23.1219 19.3188C23.1219 16.625 22.6906 14.1937 19.6906 13.4625V13.4625ZM17.4781 6.75C17.7281 5.98125 18.7969 2.73125 19.7969 2.73125C20.3344 2.73125 20.4781 3.2875 20.4781 3.73125C20.4781 4.925 18.0656 11.5187 17.5344 12.9812L15.4094 12.6062L17.4781 6.75V6.75ZM6.89062 3.01875C6.89062 2.275 7.79687 0.1625 9.78437 5.9625L11.9469 12.2312C10.9719 12.15 10.2156 12.0438 9.73437 12.3188C9.05312 10.5188 6.89062 4.8375 6.89062 3.01875V3.01875ZM6.74687 15.25C8.57812 15.25 10.9406 21.1625 10.9406 21.9625C10.9406 22.2812 10.6344 22.675 10.2781 22.675C8.97187 22.675 5.47187 17.8688 5.47187 16.5688C5.47812 16.0875 6.26562 15.25 6.74687 15.25V15.25ZM18.2656 26.8937C16.4469 28.8937 14.1219 29.9312 11.4094 29.9312C7.69687 29.9312 4.76562 27.8938 3.35312 24.4125C2.28437 21.7 3.59062 20.1437 4.64062 20.1437C5.35312 20.1437 8.03437 23.9125 8.03437 24.7125C8.03437 25.0187 7.55312 25.2313 7.30312 25.2313C6.29687 25.2313 5.90312 24.2625 4.10937 22.0187C2.25312 23.875 5.39062 27.45 7.75312 27.45C9.38437 27.45 10.4469 25.9375 10.1281 24.825C10.3594 24.825 10.6469 24.8438 10.8594 24.7875C10.9281 26.4813 11.4281 28.5 13.4656 28.6437C13.4656 28.5875 13.5906 28.2 13.5906 28.1812C13.5906 27.0937 12.9281 26.1438 12.9281 25.0375C12.9281 23.2688 14.2844 21.5562 15.6594 20.5562C16.1594 20.1812 16.7656 19.95 17.3531 19.7375C17.9594 19.5062 18.6031 19.2375 19.0656 18.775C18.9969 18.075 18.7094 17.4562 18.0094 17.4562C16.2781 17.4562 10.4719 17.7063 10.4719 14.975C10.4719 14.5563 10.4781 14.1562 11.5594 14.1562C13.5781 14.1562 18.7031 14.6563 20.2031 15.975C21.3344 16.9813 21.7219 23.05 18.2656 26.8937V26.8937ZM12.1031 19.0187C12.7094 19.2125 13.3344 19.2687 13.9594 19.3937C13.4969 19.7312 13.0844 20.1437 12.6906 20.5875C12.5156 20.0562 12.3031 19.5375 12.1031 19.0187V19.0187Z" fill="#0165E1" /></svg>