<svg width="32" height="16" viewBox="0 0 32 16" fill="none" xmlns="http://www.w3.org/2000/svg">
 <path  d= "M32 7.10698L31.84 8.51704L30.1149 8.63204L30.0149 9.53708L31.74 9.42207L31.58 10.8321L29.8599 10.9421L29.7449 11.9472L31.465 11.8372L31.315 13.1422L28.0798 13.3472L28.7149 7.687L26.3498 13.4572L24.7547 13.5572L23.5647 7.667L25.0797 7.567L25.7598 11.5372L27.3448 7.41699L32 7.10698V7.10698ZM21.3396 13.7722L22.7546 13.6822L23.3997 7.677L21.9796 7.77201L21.3396 13.7722ZM8.09905 14.6023L7.12901 12.8022L6.954 14.6723L5.54395 14.7573L5.67895 13.3022C5.12893 14.2023 4.07889 15.0173 2.83384 15.0923C1.19378 15.1923 -0.151279 14.0473 0.0137279 12.1822C0.143733 10.7171 1.34878 9.04206 3.38886 8.91205C5.27394 8.79205 5.76896 10.0721 5.95396 10.3521L6.09397 8.81205L8.03905 8.68704C9.04409 8.62204 9.97412 8.87205 10.1641 9.87209L10.2941 8.54204L13.5343 8.33203L13.3993 9.72708L11.5792 9.84709L11.4942 10.7421L13.3143 10.6271L13.1793 12.0222L11.3592 12.1372L11.2642 13.1322L13.0792 13.0172L12.9742 14.0573L15.7244 8.19702L16.9144 8.11702L18.5195 13.6472L18.9645 9.36707L17.8494 9.43707L17.9944 8.04202L21.7446 7.79701L21.5946 9.19706L20.3795 9.27707L19.8945 13.8722L16.9944 14.0573L16.7794 13.2772L14.8093 13.4022L14.4093 14.2173L8.09905 14.6023V14.6023ZM5.88396 11.0921L4.56391 11.1771C4.2289 10.5571 3.84388 10.3471 3.24886 10.3871C2.29882 10.4471 1.58379 11.2621 1.51879 12.0522C1.44878 12.8522 1.8838 13.6772 2.95384 13.6122C3.59387 13.5722 4.01889 13.1822 4.3989 12.6672L5.74896 12.5822L5.88396 11.0921ZM8.68907 10.7071C8.74908 10.0621 8.30906 10.0271 7.38402 10.0871L7.24902 11.5122C7.95904 11.4672 8.62407 11.4072 8.68907 10.7071V10.7071ZM9.74411 14.2473L10.0341 11.2471C9.78412 11.9222 9.2991 12.3022 8.63907 12.5772L9.74411 14.2473ZM16.5144 11.9972L16.1194 10.1071L15.3293 12.0722L16.5144 11.9972ZM8.00905 8.26703L7.79404 7.39199L5.81396 7.522L5.40894 8.43203L3.81388 8.53704L6.66399 2.44179L7.85904 2.36179L9.3941 7.46199L9.88912 2.22679L11.2392 2.13678L13.1293 5.31691L13.4543 1.98678L14.8793 1.89177L14.6793 3.95185C15.0493 3.27683 15.8244 1.71677 17.8594 1.57676C19.8845 1.43675 20.4795 3.04182 20.5295 3.09182L20.6946 1.49176L22.6596 1.35675C23.2947 1.31175 24.0497 1.37175 24.4747 1.84177L24.2547 1.24675L25.8648 1.13674L26.5098 3.29683L27.6598 1.01174L29.2099 0.901733L27.0298 4.82189L26.7898 7.03698L25.3697 7.13198L25.6097 4.91689L24.8197 2.76681C24.8697 3.88185 24.3597 4.77189 23.2197 5.24691L24.4797 7.18698L22.6596 7.30699L21.6996 5.46691L21.4996 7.38199L20.0795 7.47699L20.2445 5.90193C19.9095 6.36695 19.2595 7.672 17.2644 7.80201C15.9544 7.88701 14.9843 7.28699 14.4943 5.84193L14.2943 7.85701L13.0442 7.93701L11.1642 4.77189L10.8492 8.08202L8.00905 8.26703V8.26703ZM21.8396 4.16186C22.3496 4.12686 22.7146 4.05686 22.9196 3.94685C23.1446 3.82685 23.2697 3.62684 23.2997 3.34183C23.3297 3.07682 23.2697 2.90181 23.1296 2.82181C22.9496 2.71681 22.5996 2.6818 21.9846 2.72181L21.8396 4.16186V4.16186ZM16.3844 5.89693C16.6644 6.19194 17.0194 6.32195 17.4494 6.29195C17.6844 6.27695 17.9044 6.20194 18.1144 6.08694C18.3895 5.93693 18.6445 5.68692 18.8695 5.37191L17.1594 5.48692L17.2794 4.29187L20.4345 4.07686L20.4945 3.47684L18.9345 3.58184C18.7295 3.39683 18.5445 3.25183 18.3795 3.17682C18.1795 3.09182 17.9744 3.03682 17.7694 3.05182C17.3694 3.07682 17.0044 3.23183 16.6694 3.51184C16.2844 3.83185 16.0694 4.23687 16.0244 4.73189C15.9694 5.2119 16.0944 5.59692 16.3844 5.89693V5.89693ZM6.31898 6.30695L7.50903 6.22695L7.09401 4.34687L6.31898 6.30695Z" fill="#0165E1" /></svg>