<svg width="32" height="32" viewBox="0 0 32 32" fill="none" xmlns="http://www.w3.org/2000/svg">
 <path  d= "M28.5714 0H3.42857C1.53571 0 0 1.53571 0 3.42857V28.5714C0 30.4643 1.53571 32 3.42857 32H28.5714C30.4643 32 32 30.4643 32 28.5714V3.42857C32 1.53571 30.4643 0 28.5714 0ZM9.07143 25.1786C8.67857 25.8643 7.8 26.0929 7.12143 25.7C6.43571 25.3071 6.20714 24.4286 6.6 23.75L7.62143 21.9857C8.77143 21.6357 9.71429 21.9071 10.45 22.8L9.07143 25.1786ZM18.9929 21.3286H6C5.21429 21.3286 4.57143 20.6857 4.57143 19.9C4.57143 19.1143 5.21429 18.4714 6 18.4714H9.64286L14.3143 10.3857L12.85 7.85714C12.4571 7.17143 12.6929 6.3 13.3714 5.90714C14.0571 5.51429 14.9286 5.75 15.3214 6.42857L15.9571 7.52857L16.5929 6.42857C16.9857 5.74286 17.8643 5.51429 18.5429 5.90714C19.2286 6.3 19.4571 7.17857 19.0643 7.85714L12.9357 18.4714H17.3714C18.8143 18.4714 19.6214 20.1643 18.9929 21.3286V21.3286ZM26 21.3286H23.9286L25.3286 23.75C25.7214 24.4357 25.4857 25.3071 24.8071 25.7C24.1214 26.0929 23.25 25.8571 22.8571 25.1786C20.5071 21.1143 18.75 18.0571 17.5714 16.0286C16.3786 13.9571 17.2286 11.8857 18.0786 11.1857C19.0143 12.8071 20.4143 15.2357 22.2857 18.4714H26C26.7857 18.4714 27.4286 19.1143 27.4286 19.9C27.4286 20.6929 26.7857 21.3286 26 21.3286V21.3286Z" fill="#0165E1" /></svg>