<svg width="32" height="32" viewBox="0 0 32 32" fill="none" xmlns="http://www.w3.org/2000/svg">
 <path  d= "M15.9935 7.28387L16.5806 6.27097C16.9419 5.63871 17.7484 5.42581 18.3806 5.7871C19.0129 6.14839 19.2258 6.95484 18.8645 7.5871L13.2194 17.3613H17.3032C18.6258 17.3613 19.3677 18.9161 18.7935 19.9935H6.82581C6.09677 19.9935 5.50968 19.4065 5.50968 18.6774C5.50968 17.9484 6.09677 17.3613 6.82581 17.3613H10.1806L14.4774 9.91613L13.1355 7.5871C12.7742 6.95484 12.9871 6.15484 13.6194 5.7871C14.2516 5.42581 15.0516 5.63871 15.4194 6.27097L15.9935 7.28387V7.28387ZM10.9161 21.3484L9.65161 23.5419C9.29032 24.1742 8.48387 24.3871 7.85161 24.0258C7.21935 23.6645 7.00645 22.8581 7.36774 22.2258L8.30968 20.6C9.36774 20.271 10.2323 20.5226 10.9161 21.3484V21.3484ZM21.8129 17.3677H25.2387C25.9677 17.3677 26.5548 17.9548 26.5548 18.6839C26.5548 19.4129 25.9677 20 25.2387 20H23.3355L24.6194 22.2258C24.9806 22.8581 24.7677 23.6581 24.1355 24.0258C23.5032 24.3871 22.7032 24.1742 22.3355 23.5419C20.1742 19.7935 18.5484 16.9871 17.471 15.1161C16.3677 13.2129 17.1548 11.3032 17.9355 10.6581C18.8 12.1419 20.0903 14.3806 21.8129 17.3677V17.3677ZM16 0C7.16129 0 0 7.16129 0 16C0 24.8387 7.16129 32 16 32C24.8387 32 32 24.8387 32 16C32 7.16129 24.8387 0 16 0ZM29.9355 16C29.9355 23.6581 23.7355 29.9355 16 29.9355C8.34194 29.9355 2.06452 23.7355 2.06452 16C2.06452 8.34194 8.26452 2.06452 16 2.06452C23.6581 2.06452 29.9355 8.26452 29.9355 16Z" fill="#0165E1" /></svg>