<svg width="32" height="10" viewBox="0 0 32 10" fill="none" xmlns="http://www.w3.org/2000/svg">
 <path  d= "M2.10566 3.12191C3.21601 3.12191 3.55611 3.26195 3.78118 3.85214H3.82119V2.70678C3.82119 2.1416 3.58112 1.93654 2.92591 1.93654C2.36074 1.93654 2.20569 2.06158 2.17068 2.57674H0.240075C0.25508 1.88152 0.315098 1.62144 0.530166 1.35636C0.89528 0.916221 1.47546 0.766174 2.83589 0.766174C4.4864 0.766174 5.19162 1.01625 5.53173 1.71147C5.63176 1.92654 5.73179 2.49171 5.73179 2.89684V6.71303H3.81619L3.88121 5.75773H3.8312C3.56611 6.53798 3.15098 6.77805 2.05564 6.77805C0.540169 6.77805 0 6.2729 0 4.91247C0 3.65208 0.615192 3.12191 2.10566 3.12191V3.12191ZM2.96093 5.52766C3.61613 5.52766 3.80619 5.37761 3.80619 4.85745C3.80619 4.40231 3.59112 4.27727 2.82588 4.27727C2.17068 4.27727 1.9306 4.42732 1.9306 4.88246C1.9256 5.40262 2.11566 5.52766 2.96093 5.52766V5.52766ZM6.85214 0.781179H8.76774L8.69272 1.8115H8.73273C9.18787 0.956233 9.52798 0.766174 10.6083 0.766174C11.3285 0.766174 11.8437 0.916222 12.1838 1.22132C12.674 1.65145 12.824 2.24164 12.824 3.62707C12.824 5.12754 12.674 5.78274 12.2188 6.2729C11.8787 6.63801 11.3986 6.77805 10.5583 6.77805C9.53798 6.77805 9.09784 6.50297 8.86777 5.71772H8.82776V9.23382H6.85214V0.781179V0.781179ZM10.8984 3.81713C10.8984 2.4417 10.7334 2.19162 9.86308 2.19162C9.01782 2.19162 8.82776 2.4417 8.82776 3.62707C8.82776 5.02751 9.00281 5.30259 9.88809 5.30259C10.7083 5.30259 10.8984 5.0225 10.8984 3.81713ZM13.7943 0.781179H15.7099L15.6349 1.8115H15.6749C16.13 0.956233 16.4701 0.766174 17.5505 0.766174C18.2707 0.766174 18.7859 0.916222 19.126 1.22132C19.6161 1.65145 19.7662 2.24164 19.7662 3.62707C19.7662 5.12754 19.6161 5.78274 19.161 6.2729C18.8209 6.63801 18.3407 6.77805 17.4955 6.77805C16.4751 6.77805 16.035 6.50297 15.8049 5.71772H15.7649V9.23382H13.7893V0.781179H13.7943ZM17.8406 3.81713C17.8406 2.4417 17.6755 2.19162 16.8053 2.19162C15.96 2.19162 15.7699 2.4417 15.7699 3.62707C15.7699 5.02751 15.945 5.30259 16.8303 5.30259C17.6505 5.30259 17.8406 5.0225 17.8406 3.81713ZM20.5314 3.62707C20.5314 2.35667 20.6965 1.73648 21.1466 1.33635C21.5867 0.931226 22.257 0.771176 23.4023 0.771176C25.543 0.771176 26.1882 1.41138 26.1882 3.55705V4.11222H22.422C22.407 4.21225 22.407 4.31228 22.407 4.3523C22.407 5.19756 22.6321 5.44764 23.4123 5.44764C24.1075 5.44764 24.3076 5.29759 24.3076 4.75242H26.1832V4.86746C26.1832 5.35761 26.0581 5.81275 25.8431 6.10284C25.478 6.593 24.8628 6.78305 23.6274 6.78305C22.252 6.78305 21.5467 6.618 21.0966 6.16786C20.6715 5.74273 20.5314 5.10253 20.5314 3.62707V3.62707ZM24.3526 3.04689C24.3376 2.95686 24.3376 2.88184 24.3376 2.85683C24.3376 2.24164 24.1726 2.1266 23.3573 2.1266C22.6371 2.1266 22.502 2.27665 22.452 2.88184L22.437 3.04689H24.3526V3.04689ZM27.1335 0.781179H29.0491L28.9591 1.77649H28.9941C29.3342 1.03126 29.7143 0.766174 30.4795 0.766174C31.0197 0.766174 31.4348 0.931226 31.6499 1.23132C31.915 1.59643 31.99 1.95154 31.99 2.93185C31.99 3.00687 31.99 3.18193 32 3.397H30.2495C30.2645 3.30697 30.2645 3.23195 30.2645 3.19693C30.2645 2.42669 30.1644 2.22663 29.7493 2.22663C29.4342 2.22663 29.2091 2.39168 29.0941 2.69178C29.0441 2.84182 29.0441 2.90684 29.0441 3.30697V6.70803H27.1285V0.781179H27.1335Z" fill="#0165E1" /></svg>