<svg width="32" height="14" viewBox="0 0 32 14" fill="none" xmlns="http://www.w3.org/2000/svg">
 <path  d= "M5.84715 2.12291C5.47218 2.56787 4.87223 2.91784 4.27228 2.86784C4.19729 2.26789 4.49226 1.62795 4.83723 1.23798C5.2122 0.783016 5.86715 0.458042 6.40211 0.433044C6.4621 1.05299 6.21712 1.66794 5.84715 2.12291ZM6.39211 2.98283C5.52218 2.93284 4.77724 3.47779 4.36727 3.47779C3.94731 3.47779 3.31736 3.00783 2.62742 3.02283C1.73249 3.03783 0.902558 3.54279 0.447595 4.34772C-0.492328 5.96259 0.202615 8.34739 1.11254 9.66228C1.5575 10.3122 2.08746 11.0272 2.7874 11.0022C3.45235 10.9772 3.71233 10.5722 4.51226 10.5722C5.31719 10.5722 5.55218 11.0022 6.25212 10.9922C6.97706 10.9772 7.43202 10.3422 7.87698 9.69228C8.38194 8.95234 8.59193 8.2374 8.60192 8.19741C8.58693 8.18241 7.20204 7.65245 7.18704 6.05258C7.17204 4.71269 8.28195 4.07774 8.33195 4.03775C7.707 3.10782 6.73208 3.00783 6.39211 2.98283V2.98283ZM11.4117 1.17298V10.9172H12.9266V7.58746H15.0214C16.9362 7.58746 18.2761 6.27256 18.2761 4.37272C18.2761 2.47288 16.9562 1.17298 15.0714 1.17298H11.4117V1.17298ZM12.9266 2.44788H14.6714C15.9863 2.44788 16.7363 3.14782 16.7363 4.37772C16.7363 5.60762 15.9863 6.31756 14.6664 6.31756H12.9266V2.44788ZM21.0359 10.9922C21.9858 10.9922 22.8658 10.5122 23.2657 9.74728H23.2957V10.9172H24.6956V6.06758C24.6956 4.6627 23.5707 3.75277 21.8408 3.75277C20.236 3.75277 19.0461 4.6727 19.0011 5.93259H20.366C20.4809 5.33264 21.0359 4.93767 21.7958 4.93767C22.7208 4.93767 23.2407 5.36764 23.2407 6.16257V6.70253L21.3509 6.81752C19.596 6.92251 18.6461 7.64245 18.6461 8.89235C18.6511 10.1522 19.631 10.9922 21.0359 10.9922ZM21.4459 9.83727C20.6409 9.83727 20.126 9.4473 20.126 8.85735C20.126 8.2424 20.6209 7.88743 21.5659 7.83244L23.2457 7.72744V8.2774C23.2457 9.18732 22.4708 9.83727 21.4459 9.83727V9.83727ZM26.5704 13.567C28.0453 13.567 28.7403 13.002 29.3452 11.2972L32 3.84776H30.4601L28.6803 9.60229H28.6503L26.8704 3.84776H25.2906L27.8503 10.9422L27.7104 11.3721C27.4804 12.1021 27.1054 12.3871 26.4355 12.3871C26.3155 12.3871 26.0855 12.3721 25.9905 12.3621V13.532C26.0805 13.552 26.4555 13.567 26.5704 13.567V13.567Z" fill="#0165E1" /></svg>