<svg width="28" height="32" viewBox="0 0 28 32" fill="none" xmlns="http://www.w3.org/2000/svg">
 <path  d= "M23.0374 16.9102C23.0231 14.2883 24.209 12.3094 26.6094 10.852C25.2663 8.9302 23.2374 7.87286 20.5583 7.66568C18.0222 7.46564 15.2502 9.14452 14.2358 9.14452C13.1641 9.14452 10.7065 7.73712 8.77763 7.73712C4.79119 7.80142 0.554703 10.9163 0.554703 17.2531C0.554703 19.1249 0.897622 21.061 1.58346 23.0542C2.49791 25.6761 5.79851 32.1058 9.242 31.9987C11.0423 31.9558 12.314 30.7199 14.6573 30.7199C16.9291 30.7199 18.1079 31.9987 20.1154 31.9987C23.5875 31.9487 26.5737 26.1047 27.4453 23.4757C22.7873 21.2824 23.0374 17.046 23.0374 16.9102V16.9102ZM18.9938 5.17951C20.9441 2.86481 20.7655 0.757281 20.7084 0C18.9866 0.100018 16.9934 1.17164 15.8575 2.49331C14.6073 3.90785 13.8714 5.65817 14.0286 7.62996C15.8932 7.77284 17.5935 6.81553 18.9938 5.17951V5.17951Z" fill="#0165E1" /></svg>