<svg width="32" height="24" viewBox="0 0 32 24" fill="none" xmlns="http://www.w3.org/2000/svg">
 <path  d= "M28.7496 14.954C30.9051 12.7318 31.9773 10.5096 31.9996 8.50406C32.044 4.86522 28.6996 1.93748 22.5886 1.00416C15.4387 -0.0902669 6.56102 1.86526 0 5.58188C2.88885 4.10968 6.14436 2.90414 9.4832 2.34859C13.622 1.20972 17.9831 0.937497 21.7775 1.52638C30.2496 2.84858 32.7107 8.60962 27.2663 14.3984C26.6996 14.9984 26.0441 15.5706 25.3219 16.0984L16.9387 3.5208L6.37213 19.3817C2.72774 17.7484 2.12219 14.3706 5.31104 10.9818C6.46658 9.74849 7.99434 8.65406 9.72765 7.75407C10.8387 7.0763 11.9332 6.49853 13.172 6.04854C9.55543 7.1763 6.35547 8.98739 4.19439 11.2096C2.65552 12.7984 1.89442 14.3818 1.87775 15.8151C1.84997 17.765 3.17773 19.4317 5.6777 20.4261L3.76106 23.2983H9.40543L10.6276 21.3872C11.8609 21.4428 13.1443 21.3872 14.4387 21.2372L13.172 23.2983H20.6997L18.8886 20.3483C19.9219 20.0539 20.9386 19.7095 21.9164 19.3095L24.4663 23.2983H30.1107L26.033 17.1651C27.0607 16.4928 27.9774 15.7484 28.7496 14.954ZM18.3275 19.4261L16.9387 17.1706L15.122 20.1317C13.822 20.3261 12.5276 20.415 11.2776 20.3761L16.9387 11.5262L21.3108 18.3595C20.3553 18.7706 19.3497 19.1317 18.3275 19.4261V19.4261Z" fill="#0165E1" /></svg>