<svg width="32" height="20" viewBox="0 0 32 20" fill="none" xmlns="http://www.w3.org/2000/svg">
 <path  d= "M32 7.19498V9.89498L16 19.895L0 9.89998V7.19998L16 17.2L32 7.19498ZM22.275 10.795L24.63 9.32498C22.77 6.53498 19.595 4.69498 15.995 4.69498C12.395 4.69498 9.22 6.52998 7.365 9.31498H7.38C7.505 9.19998 7.635 9.08998 7.765 8.97998C12.25 5.25998 18.735 6.07498 22.275 10.795ZM11.27 11.735C12.115 11.14 13.095 10.8 14.14 10.8C15.86 10.8 17.4 11.72 18.46 13.18L20.73 11.76C19.685 10.265 17.95 9.28498 15.99 9.28498C14.045 9.28498 12.32 10.255 11.27 11.735V11.735ZM5.18 5.25498C11.77 0.0399807 21.09 1.43498 26.055 8.35998L26.09 8.40998L28.53 6.88998C25.855 2.80498 21.24 0.10498 15.995 0.10498C10.82 0.10498 6.165 2.77998 3.47 6.88498C3.965 6.35998 4.605 5.70998 5.18 5.25498V5.25498Z" fill="#0165E1" /></svg>