<svg width="32" height="12" viewBox="0 0 32 12" fill="none" xmlns="http://www.w3.org/2000/svg">
 <path  d= "M5.36 7.37499L4.41 5.28499H1.805L0.855 7.37499H0L3.11 0.804988L6.22 7.37499H5.36ZM3.11 2.46999L2.13 4.59499H4.09L3.11 2.46999V2.46999ZM8.745 7.58999L5.635 1.01999H6.49L8.745 5.81999L11 1.01999H11.85L8.745 7.58999ZM12.775 7.37499V1.01999H13.55V7.37499H12.775ZM23.23 1.59499V7.37499H22.365V1.59499H20.305V1.01999H25.285V1.59499H23.23ZM32 4.13999C32 4.59999 31.915 5.02999 31.745 5.42999C31.575 5.82999 31.335 6.18499 31.035 6.48499C30.735 6.78499 30.38 7.02499 29.98 7.19499C29.58 7.36499 29.15 7.44999 28.69 7.44999C28.23 7.44999 27.8 7.36499 27.4 7.19499C27 7.02499 26.645 6.78499 26.345 6.48499C26.045 6.18499 25.805 5.83499 25.635 5.42999C25.465 5.02999 25.38 4.59999 25.38 4.13999C25.38 3.67999 25.465 3.24999 25.635 2.84999C25.805 2.44999 26.045 2.09499 26.345 1.79499C26.645 1.49499 26.995 1.37499 27.4 1.19999C27.8 1.02999 28.23 0.944987 28.69 0.944987C29.15 0.944987 29.58 1.02999 29.98 1.19999C30.38 1.36999 30.735 1.48999 31.035 1.79499C31.335 2.09499 31.57 2.44999 31.745 2.84999C31.915 3.24999 32 3.67999 32 4.13999V4.13999ZM31.225 4.13999C31.225 3.77499 31.16 3.43999 31.03 3.12499C30.9 2.80999 30.72 2.53999 30.49 2.30999C30.26 2.07999 29.99 1.89999 29.68 1.76499C29.37 1.62999 29.04 1.56499 28.69 1.56499C28.34 1.56499 28.01 1.62999 27.7 1.76499C27.39 1.89999 27.12 2.07999 26.89 2.30999C26.66 2.53999 26.48 2.80999 26.35 3.12499C26.22 3.43999 26.155 3.77999 26.155 4.13999C26.155 4.50499 26.22 4.83999 26.35 5.15499C26.48 5.46999 26.66 5.73999 26.89 5.96999C27.12 6.19999 27.39 6.37999 27.7 6.51499C28.01 6.64999 28.34 6.71499 28.69 6.71499C29.04 6.71499 29.37 6.64999 29.68 6.51499C29.99 6.37999 30.26 6.19999 30.49 5.96999C30.72 5.73999 30.9 5.46999 31.03 5.15499C31.16 4.83999 31.225 4.49999 31.225 4.13999V4.13999ZM26.485 8.97499V8.65999L30.93 8.15999L18.785 8.82999C18.815 8.71999 18.84 8.59999 18.855 8.46999C18.87 8.36999 18.88 8.25999 18.885 8.14499L22.125 7.73999L18.88 7.83499C18.88 7.81499 18.875 7.79999 18.875 7.77999C18.735 6.91999 17.6 6.59499 17.6 6.59499L17.545 5.27999H18.735L19.685 7.36999H20.54L17.43 0.799988L14.32 7.36999H15.175L16.125 5.27999H17.305L17.25 6.59999C17.25 6.59999 16.115 6.92499 15.975 7.78499C15.97 7.79999 15.97 7.81999 15.97 7.83999L12.725 7.74499L15.965 8.14999C15.97 8.26499 15.98 8.36999 15.995 8.47499C16.01 8.60499 16.035 8.72499 16.065 8.83499L3.92 8.15999L8.365 8.65999V8.97499C8.07 9.01999 7.84 9.27499 7.84 9.58499C7.84 9.92499 8.12 10.205 8.46 10.205C8.8 10.205 9.08 9.92499 9.08 9.58499C9.08 9.27499 8.85 9.01999 8.555 8.97499V8.68499L12.57 9.13499V9.40499C12.285 9.45999 12.075 9.71499 12.075 10.01C12.075 10.35 12.355 10.52 12.695 10.52C13.035 10.52 13.315 10.35 13.315 10.01C13.315 9.70999 13.1 9.45999 12.82 9.40499V9.15999L14.24 9.31999V10.505H13.945V11.2H14.24V10.87H14.49V11.2H14.785V10.51H14.49V9.34999L16.405 9.56499C16.81 10.135 17.355 10.245 17.355 10.245L17.35 10.58L17.095 10.59L17.09 11.195H17.295L17.3 10.945H17.56L17.565 11.195H17.77L17.765 10.59L17.51 10.58L17.505 10.245C17.505 10.245 18.05 10.14 18.455 9.56499L20.37 9.34999V10.51H20.075V11.2H20.37V10.87H20.62V11.2H20.915V10.51H20.62V9.32499L22.04 9.16499V9.40999C21.755 9.46499 21.545 9.71999 21.545 10.015C21.545 10.355 21.825 10.525 22.165 10.525C22.505 10.525 22.785 10.355 22.785 10.015C22.785 9.71499 22.57 9.46499 22.29 9.40999V9.13999L26.305 8.68999V8.97999C26.01 9.02499 25.78 9.27999 25.78 9.58999C25.78 9.92999 26.06 10.21 26.4 10.21C26.74 10.21 27.02 9.92999 27.02 9.58999C27.01 9.27499 26.785 9.01999 26.485 8.97499V8.97499ZM16.445 4.59499L17.425 2.46999L18.405 4.59499H17.51L17.425 2.57999L17.34 4.59499H16.445V4.59499Z" fill="#0165E1" /></svg>