<svg width="32" height="28" viewBox="0 0 32 28" fill="none" xmlns="http://www.w3.org/2000/svg">
 <path  d= "M28.3161 0.000549316H8.81684C6.38569 0.000549316 4.05454 1.95047 3.6108 4.35662L0.0734468 23.6433C-0.370285 26.0495 1.24215 27.9994 3.67955 27.9994H23.1788C25.6099 27.9994 27.9411 26.0495 28.3848 23.6433L31.9284 4.36287C32.3659 1.95047 30.7535 0.000549316 28.3161 0.000549316V0.000549316ZM24.6787 21.7059L22.6788 22.5496L15.4666 15.6749C14.5479 16.2999 13.6416 16.8936 12.8604 17.3686L14.2416 21.3809L13.1229 22.1747L10.5855 18.3623L7.31066 15.3562L8.29187 14.3937L11.9167 16.3374C12.4979 15.6812 13.2167 14.9249 13.9666 14.1562L12.6854 12.3063L8.38561 6.06906L9.56056 4.26288L10.1168 3.96289L16.5603 10.9876L16.8665 11.2688C18.079 10.0939 18.9789 9.24393 18.9789 9.24393C19.4602 8.83769 20.3226 9.06268 20.8976 9.73766C21.4601 10.3939 21.5601 11.2813 21.0664 11.6938C20.9539 11.7751 20.0976 12.4063 18.8602 13.2938L19.1414 13.75L25.0724 21.2122L24.6787 21.7059V21.7059Z" fill="#0165E1" /></svg>