<svg width="32" height="22" viewBox="0 0 32 22" fill="none" xmlns="http://www.w3.org/2000/svg">
 <path  d= "M16.3312 3.51075C15.4564 7.10364 15.5127 6.90994 14.7191 10.1966C14.6191 10.6028 14.4629 10.7215 14.0505 10.7278H13.1507C12.7883 10.7215 12.6384 10.6278 12.5321 10.2716C11.7636 7.80972 10.7326 4.39179 10.039 2.10484C9.78279 1.26129 9.9515 1.28004 10.6201 1.29879C10.8513 1.30503 11.0762 1.29879 11.3074 1.29879C11.6261 1.30503 11.7886 1.42376 11.876 1.74243C12.101 2.54848 12.2509 3.16709 13.5381 8.24711C13.5631 8.34709 13.5944 8.44082 13.6256 8.53454H13.6943C13.7256 8.40957 13.7631 8.29085 13.7943 8.16588C14.2817 6.11013 14.7628 4.04812 15.2502 1.99237C15.4002 1.35502 15.6689 1.29254 16.3125 1.29254H16.7874C17.2185 1.29879 17.3497 1.38626 17.4559 1.81116C17.8309 3.27331 18.9243 8.17213 19.1243 8.7095C19.443 7.56603 19.0118 9.20313 20.9051 1.89864C21.0363 1.39251 21.1613 1.29254 21.6737 1.29254H22.4672C22.8047 1.29879 22.9046 1.40501 22.8234 1.73618C22.6734 2.32979 22.6422 2.35478 20.2428 10.0404C20.0491 10.659 19.9803 10.7153 19.3305 10.7153H18.6682C18.212 10.7153 18.0933 10.634 17.9808 10.1904C17.7121 9.17814 16.5249 4.21058 16.3312 3.51075V3.51075ZM7.84576 10.4591C8.10819 10.8215 8.35189 10.8527 8.72679 10.609L9.12045 10.3466C9.54535 10.0654 9.57659 9.95295 9.3454 9.50306C9.07671 8.97819 8.94549 8.42207 8.95174 7.82222C8.95174 7.62851 8.98923 4.3418 8.8955 3.64822C8.72679 2.44226 8.11444 1.59871 6.91473 1.23005C6.24614 1.0176 5.55881 1.02385 4.87147 1.0426C3.92795 1.06759 3.03442 1.33003 2.19712 1.75493C2.08464 1.81116 1.96592 1.94863 1.94093 2.0611C1.89094 2.30479 1.87219 2.56723 1.89719 2.81717C1.93468 3.18583 2.05965 3.25456 2.40957 3.13584C2.72824 3.02962 3.03442 2.89215 3.35309 2.79842C4.25912 2.52349 5.17765 2.39852 6.10867 2.6922C6.55232 2.82967 6.83975 3.12335 7.00221 3.55449C7.18966 4.04812 7.15217 4.5605 7.15217 5.06663C7.15217 5.4103 7.14593 5.4103 6.80851 5.34781C5.93997 5.18535 5.07767 5.03539 4.19039 5.15411C3.24062 5.28533 2.40332 5.61025 1.80346 6.40381C1.23485 7.15363 1.17861 8.00342 1.34107 8.87196C1.51603 9.80924 2.0784 10.4778 2.99068 10.7715C4.27787 11.1902 5.49632 10.9777 6.59606 10.1779C6.8335 10.0029 7.04595 9.79049 7.28964 9.58429C7.48334 9.89672 7.65205 10.1904 7.84576 10.4591ZM6.88974 6.61001C7.07719 6.635 7.17092 6.72873 7.15842 6.92868C7.14593 7.16612 7.16467 7.40357 7.13968 7.64101C7.06469 8.37208 6.65854 8.87196 6.0212 9.19688C5.50882 9.45932 4.9652 9.5593 4.39034 9.50931C3.44057 9.42808 3.07815 8.69076 3.16563 7.86596C3.24686 7.07864 3.69676 6.64125 4.50906 6.50378C5.37135 6.35382 5.50882 6.43505 6.88974 6.61001V6.61001ZM28.6845 10.6778C30.0154 10.1404 30.7402 9.04067 30.5091 7.55353C30.3716 6.64125 29.7717 6.04139 28.9344 5.71022C28.0159 5.34156 26.8224 5.06663 25.9289 4.573C25.654 4.42303 25.4665 4.17934 25.454 3.82943C25.429 3.13584 25.7165 2.75469 26.4163 2.59222C26.9974 2.46101 27.591 2.45476 28.1721 2.56723C28.6283 2.65471 29.0656 2.82967 29.5093 2.96089C29.6843 3.01712 29.878 3.0921 29.9967 2.86091C30.2341 2.40477 30.0217 1.69244 29.5405 1.49874C28.1346 0.936373 26.6975 0.773912 25.2791 1.39876C24.3668 1.79867 23.7419 2.486 23.6545 3.53575C23.5545 4.74171 24.0856 5.62274 25.1603 6.14137C25.6415 6.37256 26.1663 6.51003 26.6725 6.69749C27.1786 6.88494 27.6847 7.0599 28.1784 7.2661C28.9469 7.59727 28.9032 8.77824 28.2533 9.14065C26.5225 10.0967 24.1981 8.99068 23.9294 8.9032C23.7232 8.83447 23.5982 8.9157 23.5357 9.1344C23.3483 9.84048 23.5795 10.3091 24.2606 10.5528C25.6165 11.0464 27.3598 11.2089 28.6845 10.6778ZM18.5057 20.8441C21.6799 20.4817 24.673 19.5444 27.4223 17.9073C27.9222 17.6136 28.3908 17.2637 28.8657 16.9263C29.3218 16.6014 29.0656 15.7766 28.1596 16.164C24.7604 17.6136 21.2113 18.4197 17.5247 18.5946C15.6189 18.6884 13.7256 18.5759 11.8323 18.3009C7.8895 17.7261 4.18414 16.4764 0.734968 14.4769C0.60375 14.4019 0.472532 14.3207 0.328816 14.2894C0.0226399 14.2207 -0.152318 14.5831 0.178852 14.8955C1.67849 16.2764 3.32185 17.4449 5.12141 18.3759C8.47686 20.1068 12.026 21.044 15.8188 21.0003C16.7186 20.9503 17.6184 20.9441 18.5057 20.8441ZM29.4218 15.083C30.3466 15.133 30.634 15.4516 30.4028 16.3452C30.1654 17.2699 29.8217 18.1697 29.5343 19.082C29.4781 19.2632 29.2719 19.4757 29.4843 19.6319C29.7155 19.7943 29.8905 19.5694 30.0467 19.4257C30.684 18.8321 31.1339 18.1135 31.4526 17.3137C31.79 16.4764 32.0337 15.6141 31.9962 14.6956C31.9837 14.3082 31.8837 14.1457 31.5088 14.0395C31.1714 13.9457 30.8215 13.8645 30.4778 13.8395C29.1281 13.727 27.8222 13.8708 26.6037 14.5019C26.41 14.6018 26.2288 14.7331 26.0601 14.8705C25.9914 14.9268 25.8602 15.2017 26.2101 15.2517C26.3288 15.2704 26.4538 15.2454 26.5787 15.2329C27.6347 15.133 28.3658 15.0267 29.4218 15.083V15.083Z" fill="#0165E1" /></svg>