<svg width="32" height="22" viewBox="0 0 32 22" fill="none" xmlns="http://www.w3.org/2000/svg">
 <path  d= "M12.8889 9.95837C14.6556 9.11393 15.5778 7.83615 15.5778 5.84726C15.5778 1.92504 12.6556 0.969483 9.28333 0.969483H0V20.6584H9.54444C13.1222 20.6584 16.4833 18.9417 16.4833 14.9417C16.4833 12.4695 15.3111 10.6417 12.8889 9.95837V9.95837ZM4.32778 4.33059H8.38889C9.95 4.33059 11.3556 4.76948 11.3556 6.58059C11.3556 8.25282 10.2611 8.92504 8.71667 8.92504H4.32778V4.33059V4.33059ZM8.95556 17.3139H4.32778V11.8917H9.04444C10.95 11.8917 12.1556 12.6861 12.1556 14.7028C12.1556 16.6917 10.7167 17.3139 8.95556 17.3139V17.3139ZM28.8722 3.9417H20.8889V2.00282H28.8722V3.9417V3.9417ZM32 13.7362C32 9.51948 29.5333 6.00282 25.0611 6.00282C20.7167 6.00282 17.7667 9.26948 17.7667 13.5473C17.7667 17.9861 20.5611 21.0306 25.0611 21.0306C28.4667 21.0306 30.6722 19.4973 31.7333 16.2362H28.2778C27.9056 17.4528 26.3722 18.0973 25.1833 18.0973C22.8889 18.0973 21.6833 16.7528 21.6833 14.4695H31.9667C31.9833 14.2361 32 13.9862 32 13.7362ZM21.6889 12.0028C21.8167 10.1306 23.0611 8.95837 24.9389 8.95837C26.9056 8.95837 27.8944 10.1139 28.0611 12.0028H21.6889Z" fill="#0165E1" /></svg>