<svg width="32" height="32" viewBox="0 0 32 32" fill="none" xmlns="http://www.w3.org/2000/svg">
 <path  d= "M29.7143 0H2.28571C1.02857 0 0 1.02857 0 2.28571V29.7143C0 30.9714 1.02857 32 2.28571 32H29.7143C30.9714 32 32 30.9714 32 29.7143V2.28571C32 1.02857 30.9714 0 29.7143 0ZM25.1429 18.3857C25.1429 21.9143 24.3286 24.2857 17.7286 24.2857H16.5214C13.3714 24.2857 12.0643 23.2214 11.4929 21.5143H11.4286V24H6.85714V7.42857H11.4286V12.7643H11.5071C11.8357 10.5857 14.3429 9.99286 16.4857 9.99286H17.7214C24.3214 9.99286 25.1357 12.3571 25.1357 15.8857V18.3857H25.1429ZM20.5714 16.3214V17.9571C20.5714 19.5071 20.3286 20.3714 17.8286 20.3714H14.5929C12.5286 20.3714 11.4429 19.9071 11.4429 17.8214V16.4643C11.4429 14.3714 12.5286 13.9143 14.5929 13.9143H17.8286C20.3286 13.9 20.5714 14.7714 20.5714 16.3214Z" fill="#0165E1" /></svg>