<svg width="32" height="32" viewBox="0 0 32 32" fill="none" xmlns="http://www.w3.org/2000/svg">
 <path  d= "M32 16C32 24.8366 24.8366 32 16 32C7.16342 32 0 24.8366 0 16C0 7.16342 7.16342 0 16 0C24.8366 0 32 7.16342 32 16ZM22.8612 13.7206C23.1797 11.5917 21.5586 10.4472 19.3419 9.68368L20.061 6.79968L18.3053 6.36219L17.6052 9.17019C17.1437 9.05516 16.6696 8.94671 16.1986 8.83923L16.9037 6.01277L15.149 5.57529L14.4294 8.45826C14.0474 8.37123 13.6723 8.28523 13.3083 8.19477L13.3103 8.18574L10.889 7.58123L10.422 9.45619C10.422 9.45619 11.7246 9.75471 11.6972 9.77316C12.4083 9.95064 12.5368 10.4212 12.5152 10.7941L11.6961 14.0796C11.7452 14.0921 11.8086 14.1101 11.8786 14.1381C11.8201 14.1236 11.7576 14.1076 11.6931 14.0921L10.545 18.6946C10.4579 18.9106 10.2374 19.2346 9.74039 19.1116C9.75787 19.1371 8.46426 18.7931 8.46426 18.7931L7.59264 20.8026L9.87742 21.3721C10.3025 21.4786 10.719 21.5901 11.129 21.695L10.4025 24.612L12.1561 25.0495L12.8757 22.1635C13.3407 22.2895 13.8072 22.4105 14.2748 22.5265L13.5577 25.399L15.3134 25.8365L16.04 22.925C19.0338 23.4915 21.2851 23.263 22.2326 20.5555C22.9963 18.3755 22.1946 17.118 20.6195 16.298C21.7666 16.0336 22.6307 15.2792 22.8612 13.7206V13.7206ZM18.8498 19.3451C18.3072 21.5251 14.6364 20.3466 13.4463 20.0511L14.4104 16.1866C15.6005 16.4836 19.4168 17.0716 18.8498 19.3451ZM19.3928 13.6892C18.8978 15.6721 15.8425 14.6646 14.8514 14.4177L15.7254 10.9127C16.7166 11.1597 19.9084 11.6206 19.3928 13.6892Z" fill="#0165E1" /></svg>