<svg width="32" height="32" viewBox="0 0 32 32" fill="none" xmlns="http://www.w3.org/2000/svg">
 <path  d= "M5.05871 4.64244C11.2123 -1.11125 20.933 -1.24026 27.1898 4.88755C28.1122 5.79705 26.777 7.28062 25.7449 6.27437C20.275 0.959302 11.8251 1.09476 6.46488 6.06796C5.41348 7.04196 4.11052 5.53258 5.05871 4.64244V4.64244ZM11.4381 31.6435C12.683 32.0112 13.328 30.1212 11.9477 29.7084C4.7104 27.5217 0.607991 20.0523 2.43343 12.8731C2.75595 11.6088 0.827302 11.0605 0.485434 12.4151C-1.58512 20.6328 3.13652 29.173 11.4381 31.6435V31.6435ZM20.991 31.5145C28.854 28.9215 33.4337 20.7489 31.5953 12.744C31.3051 11.4733 29.3442 11.8539 29.6603 13.2536C31.2212 20.2006 27.2672 27.3089 20.4234 29.5987C19.0559 30.0503 19.7526 31.9209 20.991 31.5145ZM16.9338 26.4187L16.9467 21.7874C16.9467 21.2585 16.5209 20.8328 15.992 20.8328C15.4631 20.8328 15.0374 21.2649 15.0374 21.7874L15.0245 26.4187C15.0245 26.9477 15.4502 27.3734 15.9791 27.3734C16.508 27.3734 16.9338 26.9477 16.9338 26.4187ZM21.5135 9.06736C21.6489 14.9307 21.8167 17.5753 15.9985 17.614C10.0319 17.5689 10.3931 14.7565 10.4834 9.06736C10.4834 7.66119 8.38708 7.8031 8.38708 9.06736V13.6858C8.38708 18.1559 12.3024 19.5491 15.9985 19.4975C19.6945 19.5491 23.6098 18.1559 23.6098 13.6858V9.06736C23.6098 7.8031 21.5135 7.66119 21.5135 9.06736Z" fill="#0165E1" /></svg>