<svg width="32" height="24" viewBox="0 0 32 24" fill="none" xmlns="http://www.w3.org/2000/svg">
 <path  d= "M10.377 3.30461C10.377 4.76739 9.35181 6.37395 5.84488 6.37395H1.46278L2.77554 0.822876H7.01386C9.64562 0.822876 10.377 2.27941 10.377 3.30461ZM18.266 0.822876H14.0277L12.8587 6.37395H17.2408C20.604 6.37395 21.6229 4.76739 21.6229 3.30461C21.6292 2.27941 20.8978 0.822876 18.266 0.822876ZM5.55108 9.00572H1.31275L0 14.5568H4.3821C7.88903 14.5568 8.91423 13.094 8.91423 11.4874C8.91423 10.4685 8.18284 9.00572 5.55108 9.00572V9.00572ZM16.8095 9.00572H12.5712L11.4022 14.5568H15.7843C19.1475 14.5568 20.1664 13.094 20.1664 11.4874C20.1664 10.4685 19.435 9.00572 16.8095 9.00572V9.00572ZM28.6431 5.64256H24.4047L23.2358 11.1936H27.6179C30.981 11.1936 32 9.73086 32 8.12429C32.0062 7.10535 31.2748 5.64256 28.6431 5.64256ZM26.8927 14.263H22.6544L21.4854 19.8141H25.8675C29.3744 19.8141 30.2496 18.3513 30.2496 16.7447C30.2496 15.7258 29.5245 14.263 26.8927 14.263V14.263ZM15.0529 17.6261H10.8146L9.64562 23.1772H14.0277C17.5347 23.1772 18.4098 21.5707 18.4098 20.1079C18.4161 19.0889 17.6847 17.6261 15.0529 17.6261Z" fill="#0165E1" /></svg>