<svg width="32" height="32" viewBox="0 0 32 32" fill="none" xmlns="http://www.w3.org/2000/svg">
 <path  d= "M31.9001 13.618C31.7715 13.0465 31.4143 12.5179 31.0071 12.2965C30.8786 12.225 30.0785 12.1393 29.2213 12.1036C27.7855 12.0393 27.6284 12.0107 27.1712 11.7464C26.4497 11.325 26.2568 10.8678 26.2497 9.63916C26.2426 7.28187 25.2639 5.08888 23.3281 3.11732C21.9494 1.71009 20.4065 0.760033 18.6492 0.224285C18.2278 0.0957058 17.2848 0.0528458 14.1275 0.0171293C9.17005 -0.0400172 8.06998 0.0599891 6.38416 0.73146C3.27682 1.96011 1.04811 4.57456 0.233771 7.91763C0.0837611 8.54624 0.0480446 9.55345 0.012328 15.3395C-0.0305318 22.59 0.0194713 23.6543 0.4695 25.0901C1.58386 28.6332 4.74834 31.2548 7.92711 31.8263C8.98432 32.0191 22.0209 32.062 23.3567 31.8834C25.6782 31.5691 27.4998 30.6333 29.207 28.8904C30.4428 27.626 31.2143 26.2616 31.7215 24.4544C32.0715 23.1972 32.0429 14.2537 31.9001 13.618V13.618ZM8.89146 9.07484C9.44864 8.51052 9.60579 8.48909 13.0917 8.48909C16.2276 8.48909 16.3348 8.49624 16.792 8.73196C17.4563 9.0677 17.7492 9.53916 17.7492 10.2963C17.7492 10.975 17.4777 11.4536 16.8705 11.8393C16.5419 12.0465 16.3491 12.0607 13.2774 12.075C11.3845 12.0893 9.87009 12.0465 9.64865 11.9893C8.46286 11.6536 8.01998 9.95347 8.89146 9.07484V9.07484ZM22.5923 23.3472L21.528 23.5186L15.9919 23.5829C11.1273 23.64 9.7558 23.5543 9.49864 23.44C8.99147 23.2186 8.51286 22.6043 8.43429 22.0542C8.35571 21.5328 8.62001 20.8184 9.02004 20.4541C9.52721 19.997 9.74866 19.9827 15.9705 19.9755C22.3709 19.9684 22.3352 19.9684 22.9423 20.5327C23.8067 21.3399 23.621 22.7614 22.5923 23.3472V23.3472Z" fill="#0165E1" /></svg>