<svg width="32" height="32" viewBox="0 0 32 32" fill="none" xmlns="http://www.w3.org/2000/svg">
 <path  d= "M11.6007 11.7152C11.9436 11.3652 12.0436 11.3509 14.2008 11.3509C16.1438 11.3509 16.2081 11.358 16.4938 11.5009C16.9081 11.7081 17.0867 12.0009 17.0867 12.4724C17.0867 12.8938 16.9153 13.1867 16.5438 13.4296C16.3438 13.5582 16.2224 13.5653 14.3223 13.5796C13.1508 13.5867 12.215 13.5653 12.0721 13.5225C11.3364 13.3153 11.0649 12.2581 11.6007 11.7152V11.7152ZM15.9867 18.4656C12.1364 18.4656 12.0007 18.4799 11.6864 18.7585C11.4364 18.9799 11.2792 19.43 11.3221 19.7514C11.3721 20.0871 11.665 20.4729 11.9793 20.6086C12.1364 20.68 12.9865 20.73 16.0009 20.6943L19.4226 20.6515L20.0798 20.5443C20.7227 20.18 20.8298 19.3014 20.3012 18.8013C19.9226 18.4656 19.944 18.4656 15.9867 18.4656V18.4656ZM31.9447 27.759C31.6947 29.7877 30.3018 31.3592 28.2945 31.8664C27.7802 31.995 27.6016 32.0021 15.9438 31.995C4.6717 31.995 4.0931 31.9878 3.65736 31.8664C3.05732 31.7092 2.54301 31.4735 2.06441 31.1521C1.66438 30.8806 1.07149 30.3092 0.85005 29.9806C0.578606 29.5806 0.264301 28.8877 0.135722 28.4091C0.00714328 27.9305 0 27.7376 0 16.0226C0 4.37191 0 4.1219 0.128579 3.61473C0.578606 1.85034 1.97869 0.500259 3.78594 0.100235C4.3074 -0.0140573 27.5088 -0.0354874 28.0731 0.0788051C29.5875 0.385966 30.7804 1.30031 31.4733 2.67896C32.0233 3.77188 31.9733 2.57181 31.9947 15.5797C32.009 23.8516 31.9947 27.3304 31.9447 27.759ZM25.8444 14.5297C25.7658 14.1725 25.5444 13.8439 25.2944 13.7082C25.2158 13.6653 24.7229 13.6153 24.1871 13.5867C23.3014 13.5439 23.2014 13.5296 22.9156 13.3653C22.4728 13.1081 22.3513 12.8224 22.3442 12.0581C22.3442 10.6009 21.737 9.24363 20.5369 8.02213C19.6797 7.15065 18.7297 6.55776 17.6368 6.22917C17.3796 6.15059 16.7938 6.12202 14.8366 6.10059C11.7721 6.06487 11.0864 6.12916 10.0435 6.54347C8.11477 7.3078 6.73611 8.92933 6.22894 11.0009C6.13608 11.3866 6.11465 12.0152 6.09322 15.594C6.06464 20.08 6.09322 20.7443 6.37895 21.6301C7.07185 23.8231 9.0291 25.4446 10.9935 25.8018C11.6507 25.9232 19.7226 25.9518 20.5441 25.8375C21.9799 25.6446 23.1085 25.066 24.1657 23.9874C24.93 23.2087 25.4086 22.3587 25.7229 21.2372C25.9515 20.4586 25.9301 14.9225 25.8444 14.5297V14.5297Z" fill="#0165E1" /></svg>