<svg width="24" height="32" viewBox="0 0 24 32" fill="none" xmlns="http://www.w3.org/2000/svg">
 <path  d= "M16.2875 10.6938L13.6062 13.375L13.5875 8L16.2875 10.6938V10.6938ZM13.5875 24.4312L16.2812 21.7375L13.6 19.0562L13.5875 24.4312V24.4312ZM24 16.2125C24 29.0625 19.5062 32 12.4312 32C5.35625 32 0 29.0625 0 16.2125C0 3.3625 5.2125 0 12.2875 0C19.3625 0 24 3.36875 24 16.2125ZM14.0938 16.2125L19.0562 10.675L11.2375 2.28125V13.3375L6.625 8.725L4.9375 10.4062L10.7312 16.2188L4.9375 22.0312L6.61875 23.7125L11.2312 19.1L11.375 29.725L19.3375 21.7563L14.0938 16.2125Z" fill="#0165E1" /></svg>