<svg width="24" height="32" viewBox="0 0 24 32" fill="none" xmlns="http://www.w3.org/2000/svg">
 <path  d= "M19.3878 15.1649C21.1209 14.2786 22.2238 12.703 21.9678 10.0836C21.6329 6.49919 18.6891 5.29781 14.7896 4.96306V0H11.7566V4.82519C10.9688 4.82519 10.1613 4.84488 9.35388 4.86456V0H6.32089V4.96306C5.20576 4.99675 3.90701 4.98031 0.23526 4.96306V8.19294C2.62988 8.15056 3.88632 7.99669 4.1742 9.53213V23.1214C3.99139 24.3397 3.01645 24.1643 0.84576 24.1259L0.235323 27.73C5.76539 27.73 6.32095 27.7497 6.32095 27.7497V32H9.35395V27.8088C10.1811 27.8284 10.9886 27.8284 11.7567 27.8284V32H14.7897V27.7497C19.8709 27.4739 23.2676 26.1938 23.7206 21.408C24.0751 17.5676 22.2631 15.8541 19.3878 15.1649V15.1649ZM9.41301 8.40956C11.1264 8.40956 16.4834 7.87787 16.4834 11.4426C16.4834 14.8497 11.1265 14.4558 9.41301 14.4558V8.40956V8.40956ZM9.41301 24.1456V17.4888C11.4613 17.4888 17.7334 16.9177 17.7334 20.8172C17.7334 24.5789 11.4613 24.1456 9.41301 24.1456Z" fill="#0165E1" /></svg>