<svg width="32" height="32" viewBox="0 0 32 32" fill="none" xmlns="http://www.w3.org/2000/svg">
 <path  d= "M0 0V9.14286H9.14286V0H0ZM8.57143 8.57143H0.571429V0.571429H8.57143V8.57143ZM11.4286 0V9.14286H20.5714V0H11.4286ZM20 8.57143H12V0.571429H20V8.57143ZM22.8571 0V9.14286H32V0H22.8571ZM31.4286 8.57143H23.4286V0.571429H31.4286V8.57143ZM0 11.4286V20.5714H9.14286V11.4286H0ZM8.57143 20H0.571429V12H8.57143V20ZM11.4286 11.4286V20.5714H20.5714V11.4286H11.4286ZM20 20H12V12H20V20ZM22.8571 11.4286V20.5714H32V11.4286H22.8571ZM31.4286 20H23.4286V12H31.4286V20ZM0 22.8571V32H9.14286V22.8571H0ZM8.57143 31.4286H0.571429V23.4286H8.57143V31.4286ZM11.4286 22.8571V32H20.5714V22.8571H11.4286ZM20 31.4286H12V23.4286H20V31.4286ZM22.8571 22.8571V32H32V22.8571H22.8571Z" fill="#0165E1" /></svg>