<svg width="32" height="26" viewBox="0 0 32 26" fill="none" xmlns="http://www.w3.org/2000/svg">
 <path  d= "M6.92778 9.98888C6.93333 9.33332 6.92778 8.68332 6.92778 8.02776V6.06665C6.92778 5.99443 6.95 5.95554 7.00556 5.91665C7.64444 5.47221 8.34444 5.24443 9.12778 5.29999C9.82222 5.34999 10.3889 5.68888 10.6889 6.50554C10.8722 6.99999 10.9167 7.51665 10.9167 8.04443C10.9167 8.52776 10.8778 9.00554 10.7278 9.46665C10.4111 10.4555 9.68889 10.8389 8.74444 10.7944C8.09444 10.7667 7.52778 10.5167 7 10.1444C6.95 10.1 6.92222 10.0555 6.92778 9.98888V9.98888ZM15.5333 10.8C15.7889 10.9 16.05 10.9111 16.3167 10.8833C16.9611 10.8167 17.5333 10.5667 18.0556 10.1889C18.1056 10.1555 18.1278 10.1167 18.1278 10.05C18.1222 9.83332 18.1278 9.6111 18.1278 9.39443C18.1278 9.17221 18.1222 8.94999 18.1278 8.72776C18.1278 8.64999 18.1056 8.61665 18.0278 8.60554C17.6389 8.55554 17.2556 8.48332 16.8667 8.44443C16.4778 8.4111 16.0889 8.42776 15.7111 8.54999C15.3389 8.67221 15.0611 8.89443 14.95 9.27776C14.8611 9.57776 14.8611 9.87776 14.9556 10.1778C15.0444 10.4833 15.2444 10.6889 15.5333 10.8V10.8ZM32 3.22221V22.7778C32 24.25 30.8056 25.4444 29.3333 25.4444H2.66667C1.19444 25.4444 0 24.25 0 22.7778V3.22221C0 1.74999 1.19444 0.555542 2.66667 0.555542H29.3333C30.8056 0.555542 32 1.74999 32 3.22221ZM20.4722 4.54999C20.4944 4.64443 20.5222 4.73888 20.5611 4.83332C21.4778 7.08888 22.3889 9.34999 23.3111 11.6055C23.3889 11.8 23.4056 11.9611 23.3222 12.1555C23.1667 12.5 23.05 12.8555 22.8889 13.1944C22.7444 13.5 22.5167 13.7222 22.1833 13.8167C21.95 13.8778 21.7111 13.8889 21.4667 13.8667C21.35 13.8555 21.2333 13.8278 21.1167 13.8222C20.9611 13.8111 20.8833 13.8833 20.8778 14.0444C20.8722 14.2 20.8722 14.3555 20.8778 14.5055C20.8833 14.7611 20.9667 14.8778 21.2222 14.9222C21.4833 14.9667 21.7444 15.0111 22.0111 15.0167C22.8056 15.0333 23.4389 14.7167 23.85 14.0222C24.0111 13.75 24.1611 13.4611 24.2778 13.1667C25.3778 10.3833 26.4722 7.59443 27.5667 4.80554C27.6 4.72221 27.6278 4.63888 27.6389 4.54999C27.6611 4.41665 27.6 4.34999 27.4667 4.34443C27.1556 4.33888 26.85 4.34443 26.5389 4.34443C26.3667 4.34443 26.2444 4.42221 26.1833 4.58332C26.1611 4.64443 26.1333 4.7111 26.1111 4.77221L24.4944 9.42221C24.3778 9.7611 24.2611 10.0944 24.1333 10.4555C24.1111 10.4055 24.1 10.3778 24.0889 10.35C23.4889 8.68888 22.8889 7.02221 22.2889 5.3611C22.1944 5.09999 22.0944 4.83332 21.9944 4.57221C21.9444 4.43332 21.8444 4.34999 21.6944 4.34999C21.3389 4.34443 20.9833 4.33888 20.6278 4.34443C20.5056 4.34443 20.4444 4.43332 20.4722 4.54999V4.54999ZM13.4667 10.2222C13.5611 10.8722 13.8889 11.3778 14.4667 11.7C15.0167 12.0055 15.6167 12.0444 16.2278 11.9555C16.9333 11.85 17.5556 11.55 18.1056 11.0944C18.1278 11.0778 18.15 11.0611 18.1833 11.0389C18.2111 11.2167 18.2333 11.3833 18.2667 11.55C18.2944 11.6944 18.3833 11.7889 18.5167 11.7944C18.7722 11.8 19.0222 11.8 19.2778 11.7944C19.4056 11.7889 19.4889 11.7055 19.5 11.5778C19.5056 11.5333 19.5056 11.4889 19.5056 11.45V6.51665C19.5056 6.31665 19.4944 6.11665 19.4667 5.91665C19.3778 5.31665 19.1222 4.82221 18.5833 4.50554C18.2722 4.32221 17.9278 4.22776 17.5722 4.17776C17.4056 4.15554 17.2389 4.13888 17.0667 4.11665H16.5111C16.4667 4.12221 16.4222 4.13332 16.3722 4.13332C15.9167 4.15554 15.4667 4.2111 15.0278 4.32776C14.7444 4.39999 14.4722 4.50554 14.1944 4.59999C14.0278 4.65554 13.9444 4.77776 13.95 4.9611C13.9556 5.11665 13.9444 5.27221 13.95 5.42221C13.9556 5.64999 14.05 5.7111 14.2667 5.64999C14.6278 5.55554 14.9944 5.45554 15.3611 5.38332C15.9333 5.27776 16.5111 5.23332 17.0889 5.31665C17.3889 5.3611 17.6722 5.44999 17.8722 5.70554C18.0444 5.92776 18.1056 6.19443 18.1167 6.46665C18.1333 6.84999 18.1278 7.23888 18.1333 7.62221C18.1333 7.64443 18.1278 7.6611 18.1222 7.68888C18.1 7.68888 18.0778 7.68888 18.0611 7.68332C17.5722 7.56665 17.0778 7.48332 16.5722 7.45554C16.0444 7.42776 15.5222 7.4611 15.0222 7.63332C14.4222 7.84443 13.9389 8.20554 13.6556 8.78888C13.4278 9.24999 13.4 9.73332 13.4667 10.2222V10.2222ZM5.48333 4.71665V14.4555C5.48333 14.5 5.48333 14.55 5.48889 14.5944C5.5 14.7333 5.58333 14.8222 5.71667 14.8278C6.04444 14.8333 6.37222 14.8333 6.7 14.8278C6.83889 14.8278 6.92222 14.7333 6.92778 14.6C6.93333 14.5555 6.93333 14.5055 6.93333 14.4611V11.0889C6.98333 11.1278 7.01111 11.1555 7.03889 11.1778C7.87222 11.8722 8.82778 12.1 9.87778 11.8944C10.8278 11.7055 11.4833 11.1222 11.9167 10.2722C12.2389 9.62776 12.3778 8.93332 12.4 8.21665C12.4278 7.42221 12.3444 6.63888 12.0222 5.89999C11.6278 4.98888 10.9722 4.38332 9.98333 4.18332C9.83333 4.14999 9.67778 4.13888 9.52778 4.11665H9.13889C9.07222 4.12776 9.00556 4.13332 8.93889 4.14443C8.28889 4.22221 7.7 4.46665 7.17222 4.84999C7.06111 4.92776 6.95556 5.01665 6.84444 5.09999C6.83889 5.07221 6.82778 5.05554 6.82222 5.03332C6.8 4.90554 6.78333 4.77776 6.76111 4.64999C6.72778 4.43332 6.62222 4.34443 6.40556 4.33888H5.86667C5.53889 4.33332 5.48333 4.39443 5.48333 4.71665V4.71665ZM27.4222 17.6111C27.2722 17.5722 27.1389 17.6111 27 17.6667C24.5611 18.6889 22.0278 19.3444 19.4 19.6555C18.5944 19.75 17.7833 19.8111 16.9722 19.8333C15.4944 19.8722 14.0167 19.7889 12.55 19.5944C11.5611 19.4611 10.5778 19.2778 9.60556 19.0444C7.55 18.55 5.56667 17.8389 3.67778 16.8889C3.18889 16.6444 2.71111 16.3722 2.22778 16.1111C2.01667 15.9944 1.88333 16.0278 1.77222 16.2278V16.3222C1.83889 16.4111 1.89444 16.5111 1.97778 16.5889C3.97778 18.3778 6.23333 19.7278 8.75556 20.6389C9.97222 21.0778 11.2222 21.4 12.4944 21.6111C13.2722 21.7389 14.05 21.8222 14.8389 21.8611C15.0056 21.8667 15.1722 21.8722 15.3389 21.8833C15.3778 21.8833 15.4167 21.8944 15.4556 21.9H16.4389C16.4778 21.8944 16.5167 21.8833 16.5556 21.8833C17.3833 21.8611 18.2111 21.7833 19.0333 21.6611C20.2222 21.4833 21.3889 21.2111 22.5278 20.8444C24.1722 20.3111 25.7333 19.6 27.1611 18.6167C27.3167 18.5111 27.4778 18.4055 27.6056 18.2722C27.8444 18.0278 27.7333 17.6944 27.4222 17.6111V17.6111ZM30.2222 16.0722C30.1778 15.8389 30 15.75 29.8 15.6833C29.4833 15.5778 29.1556 15.5278 28.8222 15.5C28.2111 15.45 27.6 15.4778 27 15.5889C26.3333 15.7111 25.7 15.9278 25.1389 16.3167C25.0722 16.3611 25.0056 16.4167 24.9667 16.4833C24.9333 16.5333 24.9278 16.6111 24.9389 16.6722C24.9556 16.7444 25.0333 16.7611 25.1056 16.7555C25.1389 16.7555 25.1722 16.7555 25.2056 16.75L26.2889 16.6333C26.8222 16.5833 27.3556 16.55 27.8889 16.5889C28.1167 16.6055 28.3389 16.6555 28.5556 16.7111C28.7944 16.7722 28.9 16.9555 28.9111 17.1944C28.9278 17.5667 28.8444 17.9222 28.75 18.2778C28.5556 18.9944 28.2889 19.6889 28.0111 20.3778C27.9944 20.4222 27.9722 20.4722 27.9667 20.5167C27.9444 20.6555 28.0222 20.7389 28.1556 20.7111C28.2333 20.6944 28.3222 20.65 28.3778 20.5944C28.5833 20.3944 28.7944 20.1944 28.9667 19.9722C29.5611 19.2055 29.9111 18.3278 30.1167 17.3833C30.1556 17.2167 30.1833 17.0444 30.2111 16.8778C30.2222 16.6167 30.2222 16.3444 30.2222 16.0722V16.0722Z" fill="#0165E1" /></svg>