<svg width="32" height="26" viewBox="0 0 32 26" fill="none" xmlns="http://www.w3.org/2000/svg">
 <path  d= "M16.7889 10.9667C16.7889 11.9222 16.2056 12.4722 15.1778 12.4722H13.8278V9.4611H15.1833C16.2056 9.4611 16.7889 10.0055 16.7889 10.9667V10.9667ZM19.4278 14.4444C19.4278 14.9055 19.8278 15.2055 20.4556 15.2055C21.2556 15.2055 21.8556 14.7 21.8556 13.9889V13.5611L20.55 13.6444C19.8111 13.6944 19.4278 13.9667 19.4278 14.4444ZM32 3.22221V22.7778C32 24.25 30.8056 25.4444 29.3333 25.4444H2.66667C1.19444 25.4444 0 24.25 0 22.7778V3.22221C0 1.74999 1.19444 0.555542 2.66667 0.555542H29.3333C30.8056 0.555542 32 1.74999 32 3.22221ZM7.1 9.78888C7.56667 9.82776 8.03333 9.55554 8.32778 9.2111C8.61667 8.85554 8.80556 8.37776 8.75556 7.89443C8.34444 7.9111 7.83333 8.16665 7.53889 8.52221C7.27222 8.82776 7.04444 9.32221 7.1 9.78888V9.78888ZM10.4667 13.9278C10.4556 13.9167 9.37778 13.5055 9.36667 12.2611C9.35556 11.2222 10.2167 10.7222 10.2556 10.6944C9.76667 9.97221 9.01111 9.89443 8.75 9.87776C8.07222 9.83888 7.49444 10.2611 7.17222 10.2611C6.84444 10.2611 6.35556 9.89443 5.82222 9.90554C5.12778 9.91665 4.47778 10.3111 4.12778 10.9389C3.4 12.1944 3.93889 14.05 4.64444 15.0722C4.98889 15.5778 5.40556 16.1333 5.95 16.1111C6.46667 16.0889 6.67222 15.7778 7.29444 15.7778C7.92222 15.7778 8.1 16.1111 8.64444 16.1055C9.21111 16.0944 9.56111 15.6 9.91111 15.0944C10.2944 14.5167 10.4556 13.9611 10.4667 13.9278ZM17.9889 10.9611C17.9889 9.48332 16.9611 8.47221 15.4944 8.47221H12.65V16.05H13.8278V13.4611H15.4556C16.9444 13.4611 17.9889 12.4389 17.9889 10.9611V10.9611ZM22.9889 12.2778C22.9889 11.1833 22.1111 10.4778 20.7667 10.4778C19.5167 10.4778 18.5944 11.1944 18.5611 12.1722H19.6222C19.7111 11.7055 20.1444 11.4 20.7333 11.4C21.4556 11.4 21.8556 11.7333 21.8556 12.3555V12.7722L20.3889 12.8611C19.0222 12.9444 18.2833 13.5055 18.2833 14.4778C18.2833 15.4611 19.0444 16.1111 20.1389 16.1111C20.8778 16.1111 21.5611 15.7389 21.8722 15.1444H21.8944V16.0555H22.9833V12.2778H22.9889ZM28.6667 10.55H27.4722L26.0889 15.0278H26.0667L24.6833 10.55H23.4444L25.4389 16.0667L25.3333 16.4C25.1556 16.9667 24.8611 17.1889 24.3389 17.1889C24.2444 17.1889 24.0667 17.1778 23.9944 17.1722V18.0833C24.0611 18.1055 24.3556 18.1111 24.4444 18.1111C25.5944 18.1111 26.1333 17.6722 26.6056 16.3444L28.6667 10.55Z" fill="#0165E1" /></svg>