<svg width="32" height="26" viewBox="0 0 32 26" fill="none" xmlns="http://www.w3.org/2000/svg">
 <path  d= "M31.9944 12.9667C29.89 12.9556 29.5402 12.9167 28.9682 13.2443V12.9667C26.4529 12.9667 25.9976 12.8723 25.3646 13.2554V12.9667H21.0224V13.2498C20.3894 12.8889 19.8341 12.9667 16.819 12.9667V13.2776C16.4692 13.0722 16.0139 12.9667 15.4697 12.9667H12.2492C12.0548 13.1777 11.5551 13.7274 11.3774 13.9217C10.6722 13.1388 10.7944 13.2776 10.5167 12.9667H5.90248V18.0918H10.4557C10.6389 17.8974 11.172 17.3199 11.3496 17.1256C12.0548 17.9196 11.9216 17.7753 12.2048 18.0918H14.92C14.92 17.2755 14.9256 17.6309 14.9256 16.8147C15.5641 16.8258 16.2749 16.8036 16.8301 16.4704C16.8301 17.2422 16.8246 17.4199 16.8246 18.0918H19.0234C19.0234 17.0645 19.029 17.6809 19.029 16.6869C19.3732 16.6869 19.4565 16.6869 19.5509 16.6925C19.5565 16.7647 19.5509 16.6925 19.5509 18.0918C28.0354 18.0918 27.6523 18.1529 28.252 17.8419V18.0918C30.1843 18.0918 31.2948 18.2139 32 17.7531V22.7727C32 24.2441 30.8062 25.4379 29.3347 25.4379H2.67638C1.20493 25.4379 0.0111053 24.2441 0.0111053 22.7727V11.4619H1.48811C1.72133 10.9011 1.61027 11.1676 1.84348 10.6123H2.9096C3.14281 11.1676 3.03175 10.9011 3.26497 11.4619H6.20233V10.8289C6.32448 11.1065 6.2634 10.9677 6.48551 11.4619H8.12355C8.25681 11.1565 8.26792 11.1398 8.40673 10.8289V11.4619H15.9306V10.0682C16.286 10.0682 16.3748 10.0626 16.4748 10.0793C16.4748 10.0793 16.4636 10.6845 16.4803 11.4563H20.1728V10.9622C20.5837 11.2898 21.139 11.4563 21.822 11.4563H23.3101C23.5433 10.8955 23.4322 11.162 23.6655 10.6068H24.7205C25.0814 11.4397 24.7316 10.6345 25.0869 11.4563H28.0187V10.2403C28.674 11.3342 28.4518 10.9566 28.7517 11.4563H31.0616V6.34789H28.8461V7.36958C28.1687 6.24794 28.4963 6.7921 28.2242 6.34789H25.8199V7.49174C25.4756 6.68105 25.5645 6.89205 25.3313 6.34789H23.5322C23.51 6.34789 23.4045 6.35899 23.4045 6.33123H21.8719C21.1612 6.33123 20.5893 6.50891 20.1673 6.84763V6.33123H17.9518V6.62552C17.3521 6.28681 16.8024 6.34233 14.3758 6.33123C14.3703 6.33123 13.7317 6.32568 13.7317 6.33123H8.01249C7.87368 6.66994 7.63491 7.24187 7.31286 7.99703C7.15738 7.66387 6.70206 6.67549 6.54104 6.33123H3.98681V7.50284C3.57592 6.53668 3.72584 6.89205 3.48707 6.33123H1.28267C1.09387 6.76989 0.52195 8.10808 -1.65482e-10 9.32412V3.22729C-1.65482e-10 1.75583 1.19382 0.562012 2.66528 0.562012H29.3181C30.7895 0.562012 31.9833 1.75583 31.9833 3.22729V12.9667H31.9944ZM21.6332 8.49122C21.6165 8.50232 21.5554 8.61337 21.5554 8.91322C21.5554 9.24638 21.6054 9.34077 21.6165 9.35188C21.6276 9.35743 21.6776 9.37964 21.8053 9.37964L22.2107 8.44124C22.1496 8.44124 22.0941 8.43569 22.0385 8.43569C21.7276 8.43569 21.6498 8.47456 21.6332 8.49122ZM20.5282 15.7597C21.039 15.9429 21.139 16.2872 21.139 16.7813L21.1334 17.5476H20.2117L20.2172 16.9091C20.2172 16.2538 20.0062 16.1428 19.3955 16.1428H18.4182L18.4126 17.5476H17.4909L17.4964 13.6996H19.6842C20.406 13.6996 21.189 13.8273 21.189 14.738C21.1834 15.16 20.9558 15.5875 20.5282 15.7597V15.7597ZM20.1784 14.9045C20.1784 14.5492 19.8674 14.4936 19.5842 14.4936H18.4182V15.3599H19.5676C19.8785 15.3599 20.1784 15.2877 20.1784 14.9045V14.9045ZM30.2676 14.5103H31.9389V13.6996H30.1121C29.4014 13.6996 28.7906 14.0661 28.7906 14.849C28.7906 16.6814 31.1615 15.5598 31.1615 16.3704C31.1615 16.6536 30.9228 16.7258 30.6951 16.7258H28.9183L28.9127 17.5476H30.6896C31.156 17.5476 31.6668 17.4477 31.9389 17.0534V15.6208C31.3559 14.8546 29.7567 15.5487 29.7567 14.8712C29.7567 14.5492 30.0121 14.5103 30.2676 14.5103V14.5103ZM24.7593 14.4936V13.6996H21.6943L21.6887 17.5476H24.7538L24.7593 16.7536L22.616 16.7369V15.9707H24.7205V15.1877H22.6216V14.4936H24.7593V14.4936ZM27.1026 16.7203H25.3146L25.309 17.5421H27.097C27.9188 17.5421 28.5518 17.2311 28.5518 16.3205C28.5518 14.477 26.1697 15.6986 26.1697 14.8601C26.1697 14.5492 26.4418 14.5048 26.6805 14.5048H28.3686V13.6941H26.5251C25.8143 13.6941 25.2202 14.0605 25.2202 14.8435C25.2202 16.6758 27.5912 15.5375 27.5912 16.3649C27.5856 16.6647 27.3302 16.7203 27.1026 16.7203V16.7203ZM22.7659 7.90819C21.7998 7.89153 20.9224 7.68053 20.9224 9.00206C20.9224 9.65727 21.0779 10.107 21.8164 10.107H22.2273L23.5322 7.08084H24.9092L26.4584 10.7123V7.08084H27.8633L29.4791 9.75167V7.08084H30.4175V10.9122H29.1071L27.3746 8.03034V10.9122H25.5034L25.1369 10.0626H23.2323L22.877 10.9122H21.8109C20.5449 10.9122 19.9785 10.257 19.9785 9.02427C19.9785 7.7305 20.5615 7.06418 21.8664 7.06418H22.7604V7.90819H22.7659ZM23.56 9.26859H24.826L24.2041 7.73605L23.56 9.26859ZM19.5287 7.06973H18.5903V10.9177H19.5287V7.06973V7.06973ZM17.4132 9.14088C17.9407 9.32411 18.0239 9.65172 18.0239 10.1626V10.9122H17.1022C17.0855 10.0904 17.3021 9.51846 16.2804 9.51846H15.2809V10.9122H14.3703V7.06418L16.5414 7.08084C17.2799 7.08084 18.0628 7.19189 18.0628 8.10253C18.0684 8.54674 17.8241 8.9743 17.4132 9.14088V9.14088ZM17.0411 8.29132C17.0411 7.93595 16.7302 7.88042 16.447 7.88042H15.2809V8.72998H16.4303C16.7468 8.72998 17.0411 8.6578 17.0411 8.29132ZM13.7373 7.88042V7.06973H10.6556V10.9177H13.7373V10.1237H11.5773V9.35743H13.6762V8.57451H11.5773V7.88042H13.7373V7.88042ZM9.03974 10.9177V7.90819L7.7071 10.9177H6.89641L5.56377 7.90819V10.9177H3.68697L3.3316 10.0682H1.41593L1.06056 10.9177H0.066632L1.71577 7.06973H3.07618L4.63647 10.7178V7.06973H6.14125L7.34617 9.67949L8.44005 7.06973H9.97258V10.9177H9.03974V10.9177ZM3.00399 9.26859L2.36543 7.73605L1.74354 9.26859H3.00399ZM17.0522 14.9601C17.0522 16.5093 15.3642 16.2538 14.3148 16.2538L14.3092 17.5476H12.5213L11.3885 16.2705L10.2058 17.5476H6.57435L6.57991 13.6996H10.2724L11.4107 14.9656L12.5768 13.6996H15.503C16.3693 13.6996 17.0522 13.9995 17.0522 14.9601ZM10.7944 15.6153L9.80045 14.4936H7.48499V15.1877H9.50061V15.9707H7.48499V16.7369H9.73937L10.7944 15.6153V15.6153ZM13.393 14.1105L11.9882 15.6319L13.393 17.1922V14.1105ZM16.075 14.9601C16.075 14.6214 15.8195 14.4936 15.5086 14.4936H14.3148V15.4709H15.4919C15.8195 15.4709 16.075 15.3154 16.075 14.9601V14.9601Z" fill="#0165E1" /></svg>