<svg width="32" height="26" viewBox="0 0 32 26" fill="none" xmlns="http://www.w3.org/2000/svg">
 <path  d= "M13.3167 3.21665C7.93333 3.21665 3.55 7.58332 3.55 12.9833C3.55 18.3667 7.93333 22.75 13.3167 22.75C18.7167 22.75 23.0833 18.3667 23.0833 12.9833C23.0833 7.58332 18.7167 3.21665 13.3167 3.21665V3.21665ZM11.1 18.75C8.78333 17.8667 7.13333 15.6167 7.13333 12.9833C7.13333 10.35 8.78333 8.09999 11.1 7.19999V18.75ZM15.5333 18.7667V7.19999C17.85 8.09999 19.5 10.35 19.5 12.9833C19.5 15.6167 17.85 17.8667 15.5333 18.7667V18.7667ZM29.3333 0.555542H2.66667C1.19444 0.555542 0 1.74999 0 3.22221V22.7778C0 24.25 1.19444 25.4444 2.66667 25.4444H29.3333C30.8056 25.4444 32 24.25 32 22.7778V3.22221C32 1.74999 30.8056 0.555542 29.3333 0.555542ZM18.3167 23.6667H13.3C7.4 23.6667 2.53333 18.9167 2.53333 13.1C2.53333 6.73332 7.4 2.33332 13.3 2.33332H18.3167C24.15 2.33332 29.4667 6.73332 29.4667 13.1C29.4667 18.9167 24.15 23.6667 18.3167 23.6667Z" fill="#0165E1" /></svg>