<svg width="32" height="26" viewBox="0 0 32 26" fill="none" xmlns="http://www.w3.org/2000/svg">
 <path  d= "M4.61111 10.5611C4.61111 11 4.43333 11.4222 4.11667 11.7111C3.84444 11.9555 3.47222 12.0667 2.9 12.0667H2.66667V9.05554H2.9C3.47222 9.05554 3.82778 9.14999 4.11667 9.42221C4.43333 9.69999 4.61111 10.1222 4.61111 10.5611ZM28.0444 8.99999H27.7722V10.3833H28.0333C28.6056 10.3833 28.9111 10.1389 28.9111 9.67221C28.9111 9.23332 28.6056 8.99999 28.0444 8.99999V8.99999ZM32 3.22221V22.7778C32 24.25 30.8056 25.4444 29.3333 25.4444H2.66667C1.19444 25.4444 0 24.25 0 22.7778V3.22221C0 1.74999 1.19444 0.555542 2.66667 0.555542H29.3333C30.8056 0.555542 32 1.74999 32 3.22221ZM23.7778 12.8333H26.2944V12.0667H24.6667V10.8333H26.2389V10.0667H24.6667V9.05554H26.2944V8.27776H23.7778V12.8333ZM18.9889 8.27776L20.9333 12.9555H21.4111L23.3833 8.27776H22.4111L21.1778 11.3444L19.9611 8.27776H18.9889V8.27776ZM14.3778 10.5889C14.3778 11.9555 15.4833 13.0667 16.8556 13.0667C18.2222 13.0667 19.3333 11.9611 19.3333 10.5889C19.3333 9.22221 18.2278 8.1111 16.8556 8.1111C15.4889 8.1111 14.3778 9.21665 14.3778 10.5889ZM10.6 10.5611C10.6 12.3667 12.4667 13.4778 14.1167 12.6833V11.6278C13.0444 12.7 11.5167 11.95 11.5167 10.5611C11.5167 9.24443 13 8.38888 14.1167 9.50554V8.44999C12.4389 7.61665 10.6 8.82776 10.6 10.5611V10.5611ZM8.71667 12.1333C8.29444 12.1333 7.95 11.9278 7.74444 11.5333L7.17222 12.0833C8.16111 13.5333 10.3167 13.0944 10.3167 11.4555C10.3167 10.7278 10.0167 10.4 9.00556 10.0333C8.47222 9.84443 8.32222 9.70554 8.32222 9.4611C8.32222 8.97776 9.12778 8.67776 9.70556 9.32221L10.1722 8.72221C9.11111 7.77221 7.41111 8.22776 7.41111 9.51665C7.41111 10.1444 7.7 10.4722 8.53333 10.7778C9.96111 11.2833 9.35 12.1333 8.71667 12.1333V12.1333ZM5.52778 10.5611C5.52778 9.22221 4.52778 8.27776 3.07778 8.27776H1.77778V12.8333H3.07778C4.79444 12.8333 5.52778 11.5889 5.52778 10.5611ZM6.82778 8.27776H5.93889V12.8333H6.82778V8.27776ZM30.2222 14.7778C28.3722 15.9333 17.6444 21.6889 7.11111 23.6667H29.3889C29.8444 23.6667 30.2222 23.2889 30.2222 22.8333V14.7778ZM30.2222 12.8333L28.7833 10.9167C29.4556 10.7778 29.8222 10.3278 29.8222 9.62776C29.8222 8.04443 28.1389 8.27221 26.8833 8.27221V12.8278H27.7722V11.0055H27.8944L29.1278 12.8278H30.2222V12.8333Z" fill="#0165E1" /></svg>