<svg width="32" height="26" viewBox="0 0 32 26" fill="none" xmlns="http://www.w3.org/2000/svg">
 <path  d= "M23.9722 12.35V10.5555C26.2611 10.5555 26.1111 10.5667 26.1111 10.5667C26.5167 10.6389 26.85 10.9722 26.85 11.4555C26.85 11.9444 26.5167 12.2611 26.1111 12.3333C26.0444 12.3555 25.9278 12.35 23.9722 12.35ZM26.35 13.4722C26.1944 13.4333 26.1667 13.4444 23.9722 13.4444V15.3889C26.1722 15.3889 26.1944 15.4 26.35 15.3611C26.7667 15.2778 27.1 14.9167 27.1 14.4167C27.1 13.9333 26.7667 13.5555 26.35 13.4722ZM32 3.22221V22.7778C32 24.25 30.8056 25.4444 29.3333 25.4444H2.66667C1.19444 25.4444 0 24.25 0 22.7778V3.22221C0 1.74999 1.19444 0.555542 2.66667 0.555542H29.3333C30.8056 0.555542 32 1.74999 32 3.22221ZM10.1111 9.4611H6.94444C6.94444 13.1889 7.53889 15.5555 4.95556 15.5555C3.87222 15.5555 2.8 15.2389 1.77778 14.7333V16.2889C3.44444 16.75 5.55556 16.75 5.55556 16.75C10.9944 16.75 10.1111 14.1 10.1111 9.4611ZM20.0278 9.7111C16.5056 8.82221 10.8611 8.88332 10.8611 13.0055C10.8611 17.2889 16.8722 17.0944 20.0278 16.2944V14.7222C17.3833 16.0944 14.0556 15.9444 14.0556 13C14.0556 10.0555 17.3778 9.9111 20.0278 11.2667V9.7111ZM30.2222 14.6944C30.2222 13.6667 29.3056 13 28.1111 12.9167V12.8722C29.1944 12.7222 29.7944 12.0111 29.7944 11.1944C29.7944 10.1389 28.9222 9.52776 27.7389 9.47221C27.7389 9.47221 28.0889 9.45554 21.0556 9.45554V16.5389H27.8722C29.2222 16.5444 30.2222 15.8222 30.2222 14.6944V14.6944Z" fill="#0165E1" /></svg>