<svg width="32" height="26" viewBox="0 0 32 26" fill="none" xmlns="http://www.w3.org/2000/svg">
 <path  d= "M26.8278 21.5167C26.8278 21.8944 26.5722 22.1667 26.2056 22.1667C25.8278 22.1667 25.5833 21.8778 25.5833 21.5167C25.5833 21.1555 25.8278 20.8667 26.2056 20.8667C26.5722 20.8667 26.8278 21.1555 26.8278 21.5167ZM9.56111 20.8667C9.16667 20.8667 8.93889 21.1555 8.93889 21.5167C8.93889 21.8778 9.16667 22.1667 9.56111 22.1667C9.92222 22.1667 10.1667 21.8944 10.1667 21.5167C10.1611 21.1555 9.92222 20.8667 9.56111 20.8667ZM16.0889 20.85C15.7889 20.85 15.6056 21.0444 15.5611 21.3333H16.6222C16.5722 21.0167 16.3778 20.85 16.0889 20.85ZM22.0778 20.8667C21.7 20.8667 21.4722 21.1555 21.4722 21.5167C21.4722 21.8778 21.7 22.1667 22.0778 22.1667C22.4556 22.1667 22.7 21.8944 22.7 21.5167C22.7 21.1555 22.4556 20.8667 22.0778 20.8667ZM27.9611 22.3167C27.9611 22.3333 27.9778 22.3444 27.9778 22.3778C27.9778 22.3944 27.9611 22.4055 27.9611 22.4389C27.9444 22.4555 27.9444 22.4667 27.9333 22.4833C27.9167 22.5 27.9056 22.5111 27.8722 22.5111C27.8556 22.5278 27.8444 22.5278 27.8111 22.5278C27.7944 22.5278 27.7833 22.5278 27.75 22.5111C27.7333 22.5111 27.7222 22.4944 27.7056 22.4833C27.6889 22.4667 27.6778 22.4555 27.6778 22.4389C27.6611 22.4111 27.6611 22.3944 27.6611 22.3778C27.6611 22.35 27.6611 22.3333 27.6778 22.3167C27.6778 22.2889 27.6944 22.2722 27.7056 22.2555C27.7222 22.2389 27.7333 22.2389 27.75 22.2278C27.7778 22.2111 27.7944 22.2111 27.8111 22.2111C27.8389 22.2111 27.8556 22.2111 27.8722 22.2278C27.9 22.2444 27.9167 22.2444 27.9333 22.2555C27.95 22.2667 27.9444 22.2889 27.9611 22.3167ZM27.8389 22.3944C27.8667 22.3944 27.8667 22.3778 27.8833 22.3778C27.9 22.3611 27.9 22.35 27.9 22.3333C27.9 22.3167 27.9 22.3055 27.8833 22.2889C27.8667 22.2889 27.8556 22.2722 27.8222 22.2722H27.7333V22.4667H27.7778V22.3889H27.7944L27.8556 22.4667H27.9L27.8389 22.3944V22.3944ZM32 3.22221V22.7778C32 24.25 30.8056 25.4444 29.3333 25.4444H2.66667C1.19444 25.4444 0 24.25 0 22.7778V3.22221C0 1.74999 1.19444 0.555542 2.66667 0.555542H29.3333C30.8056 0.555542 32 1.74999 32 3.22221ZM3.55556 10.9778C3.55556 15.2278 7.00556 18.6722 11.25 18.6722C12.7611 18.6722 14.2444 18.2167 15.5 17.3889C11.45 14.0944 11.4778 7.87776 15.5 4.58332C14.2444 3.74999 12.7611 3.29999 11.25 3.29999C7.00556 3.29443 3.55556 6.74443 3.55556 10.9778ZM16 17.0222C19.9167 13.9667 19.9 8.0111 16 4.93888C12.1 8.0111 12.0833 13.9722 16 17.0222ZM8.09444 21.2611C8.09444 20.7778 7.77778 20.4611 7.27778 20.4444C7.02222 20.4444 6.75 20.5222 6.56667 20.8055C6.43333 20.5778 6.20556 20.4444 5.88889 20.4444C5.67778 20.4444 5.46667 20.5222 5.3 20.7444V20.5H4.84444V22.5389H5.3C5.3 21.4889 5.16111 20.8611 5.8 20.8611C6.36667 20.8611 6.25556 21.4278 6.25556 22.5389H6.69444C6.69444 21.5222 6.55556 20.8611 7.19444 20.8611C7.76111 20.8611 7.65 21.4167 7.65 22.5389H8.10556V21.2611H8.09444ZM10.5889 20.5H10.15V20.7444C10 20.5611 9.78889 20.4444 9.5 20.4444C8.92778 20.4444 8.48889 20.9 8.48889 21.5167C8.48889 22.1389 8.92778 22.5889 9.5 22.5889C9.78889 22.5889 10 22.4833 10.15 22.2889V22.5444H10.5889V20.5ZM12.8389 21.9222C12.8389 21.0889 11.5667 21.4667 11.5667 21.0778C11.5667 20.7611 12.2278 20.8111 12.5944 21.0167L12.7778 20.6555C12.2556 20.3167 11.1 20.3222 11.1 21.1111C11.1 21.9055 12.3722 21.5722 12.3722 21.9444C12.3722 22.2944 11.6222 22.2667 11.2222 21.9889L11.0278 22.3389C11.65 22.7611 12.8389 22.6722 12.8389 21.9222V21.9222ZM14.8056 22.4389L14.6833 22.0611C14.4722 22.1778 14.0056 22.3055 14.0056 21.8333V20.9111H14.7333V20.5H14.0056V19.8778H13.55V20.5H13.1278V20.9055H13.55V21.8333C13.55 22.8111 14.5111 22.6333 14.8056 22.4389V22.4389ZM15.5444 21.6944H17.0722C17.0722 20.7944 16.6611 20.4389 16.1056 20.4389C15.5167 20.4389 15.0944 20.8778 15.0944 21.5111C15.0944 22.65 16.35 22.8389 16.9722 22.3L16.7611 21.9667C16.3278 22.3222 15.6722 22.2889 15.5444 21.6944V21.6944ZM18.8278 20.5C18.5722 20.3889 18.1833 20.4 17.9833 20.7444V20.5H17.5278V22.5389H17.9833V21.3889C17.9833 20.7444 18.5111 20.8278 18.6944 20.9222L18.8278 20.5V20.5ZM19.4167 21.5167C19.4167 20.8833 20.0611 20.6778 20.5667 21.05L20.7778 20.6889C20.1333 20.1833 18.9611 20.4611 18.9611 21.5222C18.9611 22.6222 20.2056 22.8444 20.7778 22.3555L20.5667 21.9944C20.0556 22.3555 19.4167 22.1389 19.4167 21.5167ZM23.1222 20.5H22.6667V20.7444C22.2056 20.1333 21.0056 20.4778 21.0056 21.5167C21.0056 22.5833 22.25 22.8889 22.6667 22.2889V22.5444H23.1222V20.5V20.5ZM24.9944 20.5C24.8611 20.4333 24.3833 20.3389 24.15 20.7444V20.5H23.7111V22.5389H24.15V21.3889C24.15 20.7778 24.65 20.8167 24.8611 20.9222L24.9944 20.5V20.5ZM27.2333 19.6722H26.7944V20.7444C26.3389 20.1389 25.1333 20.4611 25.1333 21.5167C25.1333 22.5944 26.3833 22.8833 26.7944 22.2889V22.5444H27.2333V19.6722ZM27.6556 15.5V15.7555H27.7V15.5H27.8056V15.4555H27.55V15.5H27.6556V15.5ZM28.0222 22.3778C28.0222 22.35 28.0222 22.3167 28.0056 22.2889C27.9889 22.2722 27.9778 22.2444 27.9611 22.2278C27.9444 22.2111 27.9167 22.2 27.9 22.1833C27.8722 22.1833 27.8389 22.1667 27.8111 22.1667C27.7944 22.1667 27.7667 22.1833 27.7333 22.1833C27.7056 22.2 27.6889 22.2111 27.6722 22.2278C27.6444 22.2444 27.6278 22.2722 27.6278 22.2889C27.6111 22.3167 27.6111 22.35 27.6111 22.3778C27.6111 22.3944 27.6111 22.4222 27.6278 22.4555C27.6278 22.4722 27.6444 22.5 27.6722 22.5167C27.6889 22.5333 27.7 22.5444 27.7333 22.5611C27.7611 22.5778 27.7944 22.5778 27.8111 22.5778C27.8389 22.5778 27.8722 22.5778 27.9 22.5611C27.9167 22.5444 27.9444 22.5333 27.9611 22.5167C27.9778 22.5 27.9889 22.4722 28.0056 22.4555C28.0222 22.4222 28.0222 22.3944 28.0222 22.3778ZM28.2 15.45H28.1222L28.0333 15.6444L27.9444 15.45H27.8667V15.75H27.9111V15.5222L28 15.7167H28.0611L28.1389 15.5222V15.75H28.2V15.45V15.45ZM28.4444 10.9778C28.4444 6.74443 24.9944 3.29443 20.75 3.29443C19.2389 3.29443 17.7556 3.74999 16.5 4.57776C20.5056 7.87221 20.5667 14.1055 16.5 17.3833C17.7556 18.2167 19.25 18.6667 20.75 18.6667C24.9944 18.6722 28.4444 15.2278 28.4444 10.9778V10.9778Z" fill="#0165E1" /></svg>