<svg width="32" height="26" viewBox="0 0 32 26" fill="none" xmlns="http://www.w3.org/2000/svg">
 <path  d= "M10.35 13.3327C10.35 14.0104 9.81111 14.5271 9.12778 14.5271C8.61667 14.5271 8.23889 14.2382 8.23889 13.6938C8.23889 13.016 8.76667 12.4715 9.44444 12.4715C9.96111 12.4715 10.35 12.7882 10.35 13.3327ZM4.47222 10.6382H4.21111C4.12778 10.6382 4.04444 10.6938 4.03333 10.7882L3.79444 12.2715L4.25 12.2549C4.86111 12.2549 5.33333 12.1715 5.44444 11.466C5.57222 10.7215 5.1 10.6382 4.47222 10.6382V10.6382ZM20.25 10.6382H20C19.9 10.6382 19.8333 10.6938 19.8222 10.7882L19.5889 12.2715L20.0333 12.2549C20.7556 12.2549 21.2556 12.0882 21.2556 11.2549C21.25 10.666 20.7222 10.6382 20.25 10.6382V10.6382ZM32 3.43266V22.9882C32 24.4604 30.8056 25.6549 29.3333 25.6549H2.66667C1.19444 25.6549 0 24.4604 0 22.9882V3.43266C0 1.96044 1.19444 0.765991 2.66667 0.765991H29.3333C30.8056 0.765991 32 1.96044 32 3.43266ZM7.12778 10.9549C7.12778 9.78821 6.22778 9.39932 5.2 9.39932H2.97778C2.83889 9.39932 2.7 9.51044 2.68889 9.66044L1.77778 15.3327C1.76111 15.4438 1.84444 15.5549 1.95556 15.5549H3.01111C3.16111 15.5549 3.3 15.3938 3.31667 15.2382L3.56667 13.7604C3.62222 13.3604 4.3 13.4993 4.56667 13.4993C6.15556 13.4993 7.12778 12.5549 7.12778 10.9549V10.9549ZM11.8056 11.4438H10.75C10.5389 11.4438 10.5278 11.7493 10.5167 11.8993C10.1944 11.4271 9.72778 11.3438 9.2 11.3438C7.83889 11.3438 6.8 12.5382 6.8 13.8549C6.8 14.9382 7.47778 15.6438 8.56111 15.6438C9.06111 15.6438 9.68333 15.3715 10.0333 14.9827C10.0056 15.066 9.97778 15.2438 9.97778 15.3271C9.97778 15.4549 10.0333 15.5493 10.1556 15.5493H11.1111C11.2611 15.5493 11.3889 15.3882 11.4167 15.2327L11.9833 11.6604C12 11.5549 11.9167 11.4438 11.8056 11.4438ZM14.0556 16.8827L17.5944 11.7382C17.6222 11.7104 17.6222 11.6827 17.6222 11.6438C17.6222 11.5493 17.5389 11.4493 17.4444 11.4493H16.3778C16.2833 11.4493 16.1833 11.5049 16.1278 11.5882L14.6556 13.7549L14.0444 11.6715C14 11.5493 13.8778 11.4493 13.7389 11.4493H12.7C12.6056 11.4493 12.5222 11.5493 12.5222 11.6438C12.5222 11.7104 13.6056 14.7993 13.7 15.0938C13.55 15.3049 12.5611 16.6827 12.5611 16.8493C12.5611 16.9493 12.6444 17.0271 12.7389 17.0271H13.8056C13.9056 17.0215 14 16.966 14.0556 16.8827V16.8827ZM22.9056 10.9549C22.9056 9.78821 22.0056 9.39932 20.9778 9.39932H18.7722C18.6222 9.39932 18.4833 9.51044 18.4667 9.66044L17.5667 15.3271C17.5556 15.4382 17.6389 15.5493 17.7444 15.5493H18.8833C18.9944 15.5493 19.0778 15.466 19.1056 15.3715L19.3556 13.7604C19.4111 13.3604 20.0889 13.4993 20.3556 13.4993C21.9333 13.4993 22.9056 12.5549 22.9056 10.9549ZM27.5833 11.4438H26.5278C26.3167 11.4438 26.3056 11.7493 26.2889 11.8993C25.9833 11.4271 25.5111 11.3438 24.9722 11.3438C23.6111 11.3438 22.5722 12.5382 22.5722 13.8549C22.5722 14.9382 23.25 15.6438 24.3333 15.6438C24.85 15.6438 25.4722 15.3715 25.8056 14.9827C25.7889 15.066 25.75 15.2438 25.75 15.3271C25.75 15.4549 25.8056 15.5493 25.9278 15.5493H26.8889C27.0389 15.5493 27.1667 15.3882 27.1944 15.2327L27.7611 11.6604C27.7778 11.5549 27.6944 11.4438 27.5833 11.4438V11.4438ZM30.2222 9.59377C30.2222 9.48266 30.1389 9.39932 30.0444 9.39932H29.0167C28.9333 9.39932 28.85 9.46599 28.8389 9.54932L27.9389 15.3271L27.9222 15.3549C27.9222 15.4549 28.0056 15.5493 28.1167 15.5493H29.0333C29.1722 15.5493 29.3111 15.3882 29.3222 15.2327L30.2222 9.61044V9.59377V9.59377ZM25.2222 12.4715C24.5444 12.4715 24.0167 13.0104 24.0167 13.6938C24.0167 14.2327 24.4056 14.5271 24.9167 14.5271C25.5833 14.5271 26.1222 14.016 26.1222 13.3327C26.1278 12.7882 25.7389 12.4715 25.2222 12.4715Z" fill="#0165E1" /></svg>