<svg width="32" height="26" viewBox="0 0 32 26" fill="none" xmlns="http://www.w3.org/2000/svg">
 <path  d= "M22.05 13.2952C22.05 14.3563 21.5611 15.1508 20.8333 15.1508C20.3722 15.1508 20.0944 14.9841 19.9 14.7786L19.8889 11.8452C20.0944 11.6174 20.3778 11.4563 20.8333 11.4563C21.55 11.4508 22.05 12.2619 22.05 13.2952ZM32 3.48966V23.0452C32 24.5174 30.8056 25.7119 29.3333 25.7119H2.66667C1.19444 25.7119 0 24.5174 0 23.0452V3.48966C0 2.01744 1.19444 0.822998 2.66667 0.822998H29.3333C30.8056 0.822998 32 2.01744 32 3.48966ZM6.78889 14.6619C6.78889 12.3119 3.77222 12.7341 3.77222 11.8452C3.77222 11.5397 4.02778 11.4174 4.44444 11.4174C5.04444 11.4174 5.80556 11.6008 6.40556 11.923V10.0674C5.75 9.80633 5.1 9.70633 4.44444 9.70633C2.84444 9.70633 1.77778 10.5397 1.77778 11.9397C1.77778 14.123 4.77778 13.7674 4.77778 14.7119C4.77778 15.0786 4.46111 15.1952 4.02222 15.1952C3.36667 15.1952 2.52778 14.923 1.86111 14.5674V16.4508C2.59444 16.7674 3.33889 16.9008 4.01667 16.9008C5.66111 16.8897 6.78889 16.0841 6.78889 14.6619V14.6619ZM10.6167 9.83411H9.11667V8.123L7.18889 8.53411L7.17778 14.8619C7.17778 16.0286 8.05556 16.8897 9.22778 16.8897C9.87222 16.8897 10.35 16.773 10.6111 16.6286V15.023C10.3611 15.123 9.11111 15.4841 9.11111 14.323V11.5174H10.6111V9.83411H10.6167ZM14.7167 9.83411C14.4556 9.73966 13.5333 9.56744 13.0722 10.4174L12.95 9.83411H11.2444V16.7508H13.2167V12.0619C13.6833 11.4508 14.4722 11.5674 14.7222 11.6508V9.83411H14.7167ZM17.1722 9.83411H15.1889V16.7508H17.1722V9.83411V9.83411ZM17.1722 7.20633L15.1889 7.62855V9.23411L17.1722 8.81189V7.20633ZM23.9889 13.2508C23.9889 10.9563 22.6833 9.70633 21.3 9.70633C20.5278 9.70633 20.0278 10.073 19.7556 10.323L19.6556 9.83411H17.9167V19.0452L19.8889 18.6286L19.8944 16.3952C20.1778 16.6008 20.6 16.8952 21.2889 16.8952C22.7 16.8897 23.9889 15.7563 23.9889 13.2508V13.2508ZM30.2222 13.3174C30.2222 11.2952 29.2444 9.70078 27.3722 9.70078C25.4944 9.70078 24.3556 11.2952 24.3556 13.3063C24.3556 15.6841 25.7 16.8897 27.6222 16.8897C28.5667 16.8897 29.2722 16.673 29.8111 16.3786V14.7897C29.2722 15.0619 28.6556 15.2286 27.8722 15.2286C27.1056 15.2286 26.4278 14.9563 26.3389 14.0341H30.2C30.2056 13.923 30.2222 13.5119 30.2222 13.3174ZM27.3556 11.3119C26.8611 11.3119 26.3167 11.6841 26.3167 12.573H28.3556C28.3556 11.6841 27.8389 11.3119 27.3556 11.3119Z" fill="#0165E1" /></svg>