<svg width="32" height="26" viewBox="0 0 32 26" fill="none" xmlns="http://www.w3.org/2000/svg">
 <path  d= "M26.1167 11.6752C26.1167 11.6752 26.5389 13.7419 26.6333 14.1752H24.7778C24.9611 13.6808 25.6667 11.7586 25.6667 11.7586C25.6556 11.7752 25.85 11.253 25.9611 10.9308L26.1167 11.6752ZM32 3.26969V22.8252C32 24.2975 30.8056 25.4919 29.3333 25.4919H2.66667C1.19444 25.4919 0 24.2975 0 22.8252V3.26969C0 1.79747 1.19444 0.603027 2.66667 0.603027H29.3333C30.8056 0.603027 32 1.79747 32 3.26969ZM8.47222 17.2253L11.9833 8.60303H9.62222L7.43889 14.4919L7.2 13.2975L6.42222 9.33081C6.29444 8.78081 5.9 8.62525 5.41111 8.60303H1.81667L1.77778 8.77525C2.65556 8.99747 3.43889 9.31969 4.12222 9.72525L6.11111 17.2253H8.47222ZM13.7167 17.2364L15.1167 8.60303H12.8833L11.4889 17.2364H13.7167V17.2364ZM21.4889 14.4141C21.5 13.4308 20.9 12.6808 19.6167 12.0641C18.8333 11.6697 18.3556 11.403 18.3556 10.9975C18.3667 10.6308 18.7611 10.253 19.6389 10.253C20.3667 10.2364 20.9 10.4086 21.3 10.5808L21.5 10.6752L21.8056 8.80858C21.3667 8.63636 20.6667 8.44192 19.8056 8.44192C17.6 8.44192 16.05 9.61969 16.0389 11.2975C16.0222 12.5364 17.15 13.2253 17.9944 13.6419C18.8556 14.0641 19.15 14.3419 19.15 14.7141C19.1389 15.2919 18.45 15.5586 17.8111 15.5586C16.9222 15.5586 16.4444 15.4197 15.7167 15.0975L15.4222 14.9586L15.1111 16.8975C15.6333 17.1364 16.6 17.3475 17.6 17.3586C19.9444 17.3641 21.4722 16.203 21.4889 14.4141ZM29.3333 17.2364L27.5333 8.60303H25.8056C25.2722 8.60303 24.8667 8.75858 24.6389 9.31969L21.3222 17.2364H23.6667C23.6667 17.2364 24.05 16.1697 24.1333 15.9419H27C27.0667 16.2475 27.2667 17.2364 27.2667 17.2364H29.3333Z" fill="#0165E1" /></svg>