<svg width="32" height="33" viewBox="0 0 32 33" fill="none" xmlns="http://www.w3.org/2000/svg">
 <path  d= "M20.7202 16.8627C20.4751 19.133 18.4371 20.7712 16.1668 20.5261C13.8966 20.281 12.2584 18.2429 12.5035 15.9727C12.7486 13.7025 14.7866 12.0643 17.0569 12.3094C19.3207 12.5544 20.9653 14.5925 20.7202 16.8627ZM15.1865 32.0256C5.72503 31.529 -1.04053 23.1123 0.139733 14.0056C0.862081 8.42029 4.38353 3.88626 9.11104 1.62247C19.4948 -3.35012 31.6651 4.0346 31.9875 15.5922C32.252 25.073 24.3513 32.5029 15.1865 32.0256ZM26.7892 20.4164C28.5886 12.806 16.4377 7.13683 11.4909 5.31161C7.78244 8.9427 7.03429 17.4754 9.31098 27.5238C13.7483 28.5428 20.2171 25.8211 26.7892 20.4164Z" fill="#0165E1" /></svg>