<svg width="32" height="33" viewBox="0 0 32 33" fill="none" xmlns="http://www.w3.org/2000/svg">
 <path  d= "M8.484 14.2827L3.55489 6.70841C6.6259 2.889 11.2324 0.785739 15.9422 0.766383C18.6712 0.747028 21.4584 1.44381 23.9939 2.90835C26.7939 4.53418 28.923 6.8697 30.2779 9.55361L17.0325 8.85682C13.2841 8.63747 9.71627 10.7472 8.484 14.2827ZM10.6066 16.7666C10.6066 19.7473 13.0195 22.1602 16.0002 22.1602C18.9809 22.1602 21.3939 19.7473 21.3939 16.7666C21.3939 13.7859 18.9809 11.373 16.0002 11.373C13.0195 11.373 10.6066 13.7795 10.6066 16.7666V16.7666ZM30.923 11.0117L21.91 11.4762C24.3552 14.3343 24.3939 18.457 22.3358 21.6183L15.1034 32.741C18.1035 32.9023 21.1939 32.2443 23.9939 30.6184C30.923 26.6184 33.7295 18.2312 30.923 11.0117V11.0117ZM8.62593 19.8376L2.60649 7.99875C0.961305 10.5149 0 13.5343 0 16.7666C0 24.7667 5.85815 31.3926 13.5163 32.5668L17.6261 24.5151C13.9099 25.2119 10.3227 23.1732 8.62593 19.8376V19.8376Z" fill="#0165E1" /></svg>