<svg width="32" height="21" viewBox="0 0 32 21" fill="none" xmlns="http://www.w3.org/2000/svg">
 <path  d= "M7.71995 13.1727C8.14595 16.7314 11.2215 19.1731 15.3048 18.9549C17.9647 21.2044 22.4117 21.3343 24.9885 18.664C28.5835 18.7211 31.1447 16.347 31.8201 13.4948C32.589 10.2479 30.8746 6.61131 27.0354 5.43721C25.321 0.86031 20.209 0.164164 17.3465 1.02136C14.3697 1.92011 12.967 3.78516 12.1877 6.7204C11.7825 6.86067 10.811 7.18277 9.84994 7.97243C10.4578 7.97243 10.6396 8.43479 10.6396 8.98547V10.0453C10.6396 10.6012 10.1876 11.0583 9.62655 11.0583H8.57714C8.02126 11.0583 7.56409 10.7466 7.56409 10.1907V9.84786H5.13278C4.93536 9.84786 4.5717 10.0713 4.5717 10.4661V12.5649C4.5717 12.8974 4.84705 13.1779 5.17953 13.1779H7.71995V13.1727ZM19.5336 13.5883C18.9778 15.9937 20.661 17.3496 22.4065 18.0977C16.8374 19.8537 13.4917 15.4586 15.3775 12.3415C13.6528 13.4637 13.6268 16.0404 13.8606 17.1678C12.9306 16.5236 11.0656 15.4846 10.8786 13.0221C10.7227 10.9492 11.9955 9.08938 13.8398 8.14386C15.4295 7.32304 19.2167 7.70228 20.7805 10.2635C20.048 7.76982 17.9855 6.6217 15.4918 6.37752C17.0971 4.78262 18.8375 3.76438 21.4247 4.10726C25.0509 4.5904 28.3446 8.40882 24.9418 11.9259C26.7601 11.0791 27.4718 9.09977 27.4094 7.93087L27.9549 8.94911C28.568 10.092 28.7446 11.422 28.4433 12.6896C27.9653 14.7157 26.3341 16.2638 24.3028 16.6639C22.6351 16.9912 19.9856 16.3989 19.5336 13.5883V13.5883ZM6.64975 8.18543H4.58209C4.11973 8.18543 3.74049 7.80618 3.74049 7.34382V5.28655C3.74049 4.82418 4.11973 4.44494 4.58209 4.44494H6.64975C7.11212 4.44494 7.49136 4.82418 7.49136 5.28655V7.34382C7.49136 7.80618 7.11212 8.18543 6.64975 8.18543V8.18543ZM0.524707 6.10738C0.23378 6.10738 0 5.8736 0 5.58267V4.13843C0 3.8475 0.23378 3.61372 0.524707 3.61372H1.96375C2.24949 3.61372 2.48846 3.8475 2.48846 4.13843V5.58267C2.48846 5.8736 2.25468 6.10738 1.96375 6.10738H0.524707ZM8.7278 4.79301V3.68126C8.7278 3.41631 8.94599 3.19811 9.21094 3.19811H10.3227C10.5877 3.19811 10.8058 3.41631 10.8058 3.68126V4.79301C10.8058 5.05796 10.5877 5.27616 10.3227 5.27616H9.21094C8.94599 5.27616 8.7278 5.05796 8.7278 4.79301ZM2.90927 9.61408V10.9129C2.90927 11.2402 2.64432 11.5103 2.31702 11.5103H1.00785C0.68056 11.5103 0.415609 11.2402 0.415609 10.9129V9.61408C0.415609 9.28679 0.68056 9.01664 1.00785 9.01664H2.31183C2.64432 9.01664 2.90927 9.28679 2.90927 9.61408Z" fill="#0165E1" /></svg>