<svg width="32" height="33" viewBox="0 0 32 33" fill="none" xmlns="http://www.w3.org/2000/svg">
 <path  d= "M22.7214 8.98174L22.05 9.5246C20.4429 8.14603 18.3714 7.1246 16.1 7.1246C10.9857 7.1246 6.85714 11.4675 6.85714 16.5746C6.85714 17.046 6.88571 17.5103 6.95714 17.9603C6.81429 13.9603 9.94286 11.0032 13.5714 11.0032C15.3 11.0032 16.8714 11.6746 18.0429 12.7675L16.2429 14.2246C15.65 14.1603 15.0429 14.3532 14.5929 14.8032C13.8 15.5889 13.8 16.8675 14.5929 17.6603C15.3857 18.446 16.6571 18.446 17.45 17.6603C17.9 17.2103 18.0929 16.596 18.0286 16.0103L23.4 9.66746C23.85 9.20317 23.1643 8.53174 22.7214 8.98174V8.98174ZM16.7357 16.946C16.3357 17.3389 15.6929 17.3389 15.2929 16.946C14.8929 16.546 14.8929 15.9032 15.2929 15.5032C15.6929 15.1032 16.3357 15.1032 16.7357 15.5032C17.1357 15.9032 17.1357 16.5532 16.7357 16.946ZM16 0.267456C7.17857 0.267456 0 7.44603 0 16.2675C0 25.0889 7.17857 32.2675 16 32.2675C24.8214 32.2675 32 25.0889 32 16.2675C32 7.44603 24.8214 0.267456 16 0.267456ZM16 27.696C9.7 27.696 4.57143 22.5675 4.57143 16.2675C4.57143 9.96746 9.7 4.83888 16 4.83888C22.3 4.83888 27.4286 9.96746 27.4286 16.2675C27.4286 22.5675 22.3 27.696 16 27.696Z" fill="#0165E1" /></svg>