<svg width="22" height="33" viewBox="0 0 22 33" fill="none" xmlns="http://www.w3.org/2000/svg">
 <path  d= "M21.7097 27.3402C21.7097 30.3337 19.2839 32.766 16.2903 32.766C13.2968 32.766 10.871 30.3337 10.871 27.3402C10.871 24.3466 13.2968 21.9208 16.2903 21.9208C19.2839 21.9208 21.7097 24.3466 21.7097 27.3402ZM16.2903 11.6047C19.2839 11.6047 21.4516 9.17889 21.4516 6.18535C21.4516 3.1918 19.2839 0.765991 16.2903 0.765991C13.2968 0.765991 10.6129 3.1918 10.6129 6.18535C10.6129 9.17889 8.70322 11.0886 5.70967 11.0886C2.71612 11.0886 0.290314 13.7724 0.290314 16.766C0.290314 19.7595 2.71612 21.9273 5.70967 21.9273C8.70322 21.9273 11.129 19.7595 11.129 16.766C11.129 13.7724 13.2968 11.6047 16.2903 11.6047V11.6047Z" fill="#0165E1" /></svg>