<svg width="32" height="33" viewBox="0 0 32 33" fill="none" xmlns="http://www.w3.org/2000/svg">
 <path  d= "M31.3928 10.6614L16.7678 0.911378C16.2686 0.604191 15.7358 0.601378 15.2321 0.911378L0.607124 10.6614C0.232125 10.9113 0 11.3578 0 11.8042V21.5541C0 22.0005 0.232125 22.447 0.607186 22.697L15.2322 32.4483C15.7313 32.7555 16.2641 32.7583 16.7678 32.4483L31.3928 22.697C31.7678 22.447 32 22.0005 32 21.5541V11.8042C31.9999 11.3578 31.7678 10.9113 31.3928 10.6614V10.6614ZM17.375 4.62556L28.1428 11.8042L23.3393 15.0185L17.375 11.0363V4.62556ZM14.625 4.62556V11.0363L8.66067 15.0185L3.85712 11.8042L14.625 4.62556ZM2.74999 14.3756L6.19643 16.6792L2.74999 18.9827V14.3756ZM14.625 28.7328L3.85712 21.5542L8.66067 18.3398L14.625 22.322V28.7328ZM16 19.9292L11.1428 16.6792L16 13.4292L20.8571 16.6792L16 19.9292ZM17.375 28.7328V22.322L23.3393 18.3398L28.1428 21.5542L17.375 28.7328ZM29.2499 18.9827L25.8035 16.6792L29.2499 14.3756V18.9827Z" fill="#0165E1" /></svg>