<svg width="32" height="32" viewBox="0 0 32 32" fill="none" xmlns="http://www.w3.org/2000/svg">
 <path  d= "M28.0322 12.5742C30.0129 12.5742 30.1935 16 28.0129 16H27.3161V18.8581H25.6V12.5742H28.0322V12.5742ZM31.2258 22.2323C28.5097 28.1613 23.3806 32 16.7742 32C7.93546 32 0.77417 24.8387 0.77417 16C0.77417 7.16129 7.93546 0 16.7742 0C23.058 0 27.9226 3.46452 30.8516 8.92903L18.8516 15.9484L31.2258 22.2323ZM28.7419 23.0387L24.8516 21.0581C23.1032 23.9161 20.3097 25.6645 16.9548 25.6645C11.6322 25.6645 7.32901 21.3613 7.32901 16.0581C7.32901 10.7355 11.6322 6.43226 16.9548 6.43226C20.0774 6.43226 22.6903 7.94839 24.4968 10.5226L28.3355 8.29032C25.7097 4.25161 21.5806 1.83871 16.7742 1.83871C8.95482 1.83871 2.61288 8.18065 2.61288 16C2.61288 23.8194 8.95482 30.1613 16.7742 30.1613C21.8451 30.1613 26.2258 27.4452 28.7419 23.0387Z" fill="#0165E1" /></svg>