<svg width="32" height="29" viewBox="0 0 32 29" fill="none" xmlns="http://www.w3.org/2000/svg">
 <path  d= "M31.3124 13.3354L28.3905 8.27294C28.453 8.14799 28.4999 8.00735 28.4999 7.85107C28.4999 7.38231 28.1093 6.99166 27.6405 6.97602L24.4062 1.3823C24.4374 1.28856 24.4686 1.19482 24.4686 1.10108C24.4686 0.601105 24.0624 0.210449 23.578 0.210449C23.2968 0.210449 23.0624 0.335457 22.8905 0.538572H16.6718C16.5156 0.335515 16.2812 0.210508 16 0.210508C15.7187 0.210508 15.4844 0.335515 15.3281 0.53863H9.14066C8.96875 0.335515 8.73443 0.210508 8.45315 0.210508C7.96881 0.210508 7.56252 0.601105 7.56252 1.10114C7.56252 1.19488 7.59378 1.30425 7.62505 1.38236L4.3594 7.05425C4.04697 7.19483 3.82816 7.49174 3.82816 7.85113C3.82816 7.88234 3.84379 7.91361 3.84379 7.94487L0.734412 13.3198C0.312548 13.398 1.73568e-08 13.7573 1.73568e-08 14.1948C1.73568e-08 14.6167 0.296856 14.9761 0.703145 15.0698L3.9219 20.6324C3.89063 20.7261 3.875 20.8042 3.875 20.9136C3.875 21.3354 4.17186 21.6948 4.57815 21.7729L7.59378 27.0073C7.56252 27.101 7.53131 27.2104 7.53131 27.3198C7.53131 27.8197 7.93754 28.2104 8.42194 28.2104C8.70316 28.2104 8.93754 28.0854 9.09382 27.8979H15.3281C15.4844 28.0853 15.7344 28.2103 16 28.2103C16.2656 28.2103 16.5156 28.0853 16.6718 27.8978H22.9218C23.078 28.0697 23.3124 28.1791 23.5624 28.1791C24.0624 28.1791 24.4531 27.7728 24.4531 27.2884C24.4531 27.1947 24.4375 27.1166 24.4062 27.0385L27.4219 21.7729C27.8281 21.6948 28.125 21.3354 28.125 20.9135C28.125 20.8198 28.1094 20.726 28.0781 20.6323L31.2812 15.0698C31.6875 14.9917 32 14.6323 32 14.1948C31.9999 13.7729 31.703 13.4135 31.3124 13.3354V13.3354ZM8.15623 25.5697L5.60941 21.1479H8.15623V25.5697ZM8.15623 20.6791H5.60941C5.59378 20.6167 5.56251 20.5542 5.53131 20.4917L8.15623 17.7261V20.6791ZM8.15623 17.0385L5.21876 20.1479C5.14065 20.1166 5.06248 20.0697 4.98438 20.0542L1.73447 14.4292C1.76568 14.3511 1.76568 14.2729 1.76568 14.1948C1.76568 14.1167 1.76568 14.0542 1.75005 13.9917L4.78132 8.7417C4.93759 8.72607 5.09381 8.67917 5.23445 8.58543L8.15629 11.6167V17.0385H8.15623ZM8.15623 11.0698L5.48441 8.30421C5.56251 8.1792 5.60941 8.02298 5.60941 7.85113C5.60941 7.8355 5.59378 7.80423 5.59378 7.7886L8.15623 6.86671V11.0698ZM8.15623 6.36668L5.60941 7.28857L8.15623 2.88233V6.36668ZM27.203 8.64796L27.2499 8.72607L25.1874 18.476L21.4687 14.5542L27.1874 8.63233L27.203 8.64796ZM16.2187 19.9916L16.8906 20.6791H15.5625L16.2187 19.9916ZM16.2031 19.3354L11.3438 14.3511L15.9843 9.42921L20.8281 14.5385L16.2031 19.3354V19.3354ZM16.5156 19.6791L21.1406 14.8823L25.078 19.0385L24.7343 20.6791H17.4999L16.5156 19.6791V19.6791ZM23.1406 1.86676C23.203 1.89802 23.2655 1.92929 23.3437 1.94492L26.7187 7.81987V7.85113C26.7187 8.02298 26.7655 8.1792 26.8437 8.30421L21.1562 14.2104L16.3125 9.10109L23.1406 1.86676ZM22.6093 1.74175L15.9843 8.75734L12.6562 5.24172L22.3593 1.74175H22.6093V1.74175ZM15.4062 1.74175C15.5624 1.89796 15.7655 1.9917 16 1.9917C16.2344 1.9917 16.4375 1.89796 16.5937 1.74175H20.9687L12.3125 4.8667L9.34377 1.74175H15.4062V1.74175ZM8.62505 2.06987L8.68753 1.94492C8.74024 1.93145 8.79238 1.9158 8.8438 1.89802L11.8282 5.03867L8.62505 6.19489V2.06987ZM8.62505 6.69486L12.1719 5.41363L15.6562 9.10109L11.0157 14.0073L8.62505 11.5542V6.69486ZM8.62505 12.101L10.75 14.3042L8.62505 16.5385V12.101V12.101ZM8.62505 17.2261L11.0781 14.6323L15.9062 19.6479L14.9062 20.6791H8.62505V17.2261V17.2261ZM9.03128 26.6791C8.93754 26.5853 8.82817 26.5229 8.68753 26.476L8.62505 26.3822V21.1479H14.4531L9.10939 26.6791H9.03128ZM16.6094 26.6791C16.4531 26.5385 16.2344 26.4291 16 26.4291C15.7655 26.4291 15.5469 26.5385 15.3906 26.6791H9.76558L15.1093 21.1479H17.3437L22.6874 26.6791H16.6094ZM23.6093 25.9916L23.3593 26.4291C23.2812 26.4447 23.2187 26.4759 23.1562 26.5072L17.9531 21.1478H24.625L23.6093 25.9916V25.9916ZM24.3593 24.6947L25.1093 21.1479H26.3905L24.3593 24.6947ZM26.3905 20.6791H25.203L25.4686 19.4448L26.4686 20.5073C26.4374 20.5541 26.4062 20.6166 26.3905 20.6791V20.6791ZM30.2499 14.4135L27.0155 20.0542C26.9374 20.0854 26.8592 20.1166 26.7811 20.1635L25.578 18.8822L27.5936 9.31984L30.2655 13.9448C30.2499 14.0229 30.2186 14.101 30.2186 14.1948C30.2186 14.2729 30.2343 14.3354 30.2499 14.4135Z" fill="#0165E1" /></svg>