<svg width="32" height="29" viewBox="0 0 32 29" fill="none" xmlns="http://www.w3.org/2000/svg">
 <path  d= "M2.8375 17.7424C3.7375 21.9362 4.4875 25.8049 7.1 28.6799H2.125C0.95625 28.6799 0 27.7299 0 26.5549V2.80493C0 1.63618 0.95 0.679932 2.125 0.679932H5.73125C4.86875 1.46743 4.1 2.37993 3.425 3.40493C0.5875 7.77993 1.7375 12.5799 2.8375 17.7424ZM29.875 0.679932H24.2375C25.575 2.01743 26.6875 3.77368 27.5312 5.93618L18.9625 7.76743C18.0312 5.95493 16.6 4.43618 13.8 5.02368C12.2625 5.35493 11.2375 6.22993 10.7812 7.18618C10.2312 8.35493 9.95625 9.67368 11.2937 15.9549C12.6125 22.2174 13.4 23.3112 14.3875 24.1549C15.1937 24.8487 16.475 25.2174 18.0312 24.8862C20.8125 24.2987 21.5125 22.3424 21.6187 20.3112L30.2062 18.4612C30.4062 22.9299 29.0375 26.2862 26.6187 28.6862H29.875C31.0438 28.6862 32 27.7362 32 26.5612V2.80493C32 1.62993 31.05 0.679932 29.875 0.679932Z" fill="#0165E1" /></svg>