<svg width="32" height="8" viewBox="0 0 32 8" fill="none" xmlns="http://www.w3.org/2000/svg">
 <path  d= "M2.64644 1.9458H4.64684L4.33677 3.12603C4.24176 3.4511 3.9667 3.67114 3.62163 3.67114H2.69145C1.4462 3.67114 1.4562 5.54152 2.69145 5.54152H3.25656C3.4666 5.54152 3.63663 5.73655 3.57662 5.9566L3.22155 7.26186H2.60143C0.926093 7.26186 -0.349162 5.69154 0.0859249 4.00121C0.450998 2.65094 1.50121 1.9458 2.64644 1.9458V1.9458ZM3.65664 7.26186L5.40199 0.755558C5.49201 0.435494 5.76206 0.210449 6.11713 0.210449H7.9675C9.17274 0.210449 10.238 1.03061 10.518 2.27086C10.8481 3.72615 9.79287 5.53651 7.93249 5.53651H6.33217L6.65224 4.34628C6.74226 4.03621 7.01731 3.80617 7.36738 3.80617H7.88248C8.50261 3.80617 8.92269 3.22105 8.79767 2.67594C8.69265 2.21585 8.30257 1.93579 7.88248 1.93579H6.89229L5.60203 6.72175C5.50701 7.03181 5.23195 7.25686 4.89189 7.25686L3.65664 7.26186ZM14.6888 3.79117C14.7038 3.74116 14.7839 3.52611 14.5838 3.52611H11.7082C11.2232 3.52611 10.8781 3.08102 10.9981 2.60093L11.1731 1.93079H15.0689C16.0091 1.93079 16.7343 2.81097 16.4942 3.77116L15.7941 6.36168C15.654 6.89178 15.1839 7.25186 14.6238 7.25186L11.7483 7.24185C9.60283 7.24185 9.82287 4.05122 11.7833 4.05122H14.2037L14.0287 4.71135C13.9337 5.02141 13.6586 5.25146 13.3186 5.25146H12.2384C11.9733 5.25146 11.9733 5.64654 12.2384 5.64654H13.9837C14.2137 5.64654 14.2388 5.4515 14.2588 5.38148L14.6888 3.79117V3.79117ZM19.8449 1.9458C21.5652 1.9458 22.8105 3.56112 22.3604 5.21645L21.9203 6.87178C21.8603 7.11683 21.6352 7.26186 21.4052 7.26186H20.45C20.225 7.26186 20.0699 7.06182 20.1299 6.84678L20.66 4.84638C20.8251 4.26626 20.38 3.67614 19.7549 3.67614H18.7647L17.9045 6.87678C17.8445 7.11683 17.6244 7.26686 17.3844 7.26686H16.4392C16.2292 7.26686 16.0591 7.07182 16.1191 6.85178L17.4294 1.9508H19.8449V1.9458ZM24.9059 3.84118L24.5058 5.34148C24.4608 5.50651 24.5808 5.67654 24.7609 5.67654H28.4266L28.1415 6.72675C28.0465 7.03681 27.7715 7.26186 27.4314 7.26186H24.0957C23.0955 7.26186 22.4304 6.31167 22.6804 5.42649L23.2205 3.42609C23.4606 2.54592 24.2558 1.9458 25.1509 1.9458H27.5164C28.4666 1.9458 29.1767 2.83097 28.9317 3.78616L28.7717 4.38628C28.6266 4.93639 28.1365 5.26646 27.6114 5.26646H24.9409L25.1159 4.61633C25.1959 4.30627 25.476 4.07622 25.8261 4.07622H26.9063C27.0063 4.07622 27.0713 4.02621 27.1013 3.92619L27.1363 3.79617C27.1713 3.66114 27.0713 3.54112 26.9413 3.54112H25.296C25.0909 3.54112 24.9509 3.64614 24.9059 3.84118V3.84118ZM28.4166 7.26186L30.1969 0.605528C30.257 0.370481 30.472 0.210449 30.717 0.210449H31.6622C31.8873 0.210449 32.0473 0.410489 31.9873 0.625532L30.662 5.53651C30.407 6.57172 29.4518 7.26186 28.4166 7.26186Z" fill="#0165E1" /></svg>