<svg width="32" height="32" viewBox="0 0 32 32" fill="none" xmlns="http://www.w3.org/2000/svg">
 <path  d= "M15.9742 0C25.1226 0 32 7.10323 32 16C32 25.4903 24.3548 32 15.9742 32C7.32903 32 0 24.9355 0 16C0 7.42581 6.75484 0 15.9742 0ZM16.0258 2.88387C8.4 2.88387 2.88387 9.2 2.88387 16C2.88387 23.0839 8.76774 29.0839 16.0258 29.0839C22.6839 29.0839 29.1097 23.8516 29.1097 16C29.1161 8.65806 23.2903 2.88387 16.0258 2.88387V2.88387ZM22.0903 12.1935V14.9355H10.4581V12.1935H22.0903ZM22.0903 17.3419V20.0839H10.4581V17.3419H22.0903Z" fill="#0165E1" /></svg>