<svg width="32" height="32" viewBox="0 0 32 32" fill="none" xmlns="http://www.w3.org/2000/svg">
 <path  d= "M15.9742 0C24.9935 0 32 6.96129 32 16C32 25.4968 24.3548 32 15.9742 32C7.29677 32 0 24.8516 0 16C0 7.42581 6.75484 0 15.9742 0ZM3.6 11.6839C3.12258 13 2.88387 14.4387 2.88387 16C2.88387 23.1548 8.82581 29.0581 16.0258 29.0581C23.9226 29.0581 27.4581 22.4903 27.5419 22.3419L21.5161 19.6581C21.0194 22.0516 18.8581 23.0774 17.1161 23.2323V25.6903H15.2581V23.2258C13.4839 23.2065 11.8645 22.5677 10.4 21.3097L12.6 19.0839C14.6452 20.9806 18.1742 21.1355 18.1742 18.9419C18.1742 18.5419 18.0323 18.2194 17.7484 17.9677C16.8323 17.5806 17.6323 17.9613 3.6 11.6839V11.6839ZM16.0258 2.85806C13.5484 2.85806 8.77419 3.41935 5.02581 8.85806L11.1419 11.6C11.7871 9.58065 13.7484 8.83226 15.2581 8.74194V6.28387H17.1161V8.74194C18.5806 8.81935 19.9161 9.31613 21.1161 10.2258L19.0323 12.3677C16.2774 10.4387 13.6452 11.8516 14.5161 13.0839C17.9613 14.6387 17.3419 14.3613 20.5161 15.7677L28.7161 19.4258C28.9806 18.3032 29.1161 17.1613 29.1161 16C29.1161 12.3226 27.8387 9.22581 25.2903 6.71613C22.7548 4.14194 19.6645 2.85806 16.0258 2.85806V2.85806Z" fill="#0165E1" /></svg>