<svg width="32" height="32" viewBox="0 0 32 32" fill="none" xmlns="http://www.w3.org/2000/svg">
 <path  d= "M15.9742 0C25.1226 0 32 7.10323 32 16C32 25.4903 24.3548 32 15.9742 32C7.32903 32 0 24.9355 0 16C0 7.42581 6.75484 0 15.9742 0ZM16.0258 2.88387C8.4 2.88387 2.88387 9.2 2.88387 16C2.88387 23.0839 8.76774 29.0839 16.0258 29.0839C22.6839 29.0839 29.1097 23.8516 29.1097 16C29.1161 8.65806 23.2903 2.88387 16.0258 2.88387V2.88387ZM22.5419 11.4258C23.0452 11.4258 23.4258 11.8194 23.4258 12.3097V24.0839C23.4258 24.5806 23.0323 24.9677 22.5419 24.9677H13.8258C13.329 24.9677 12.9419 24.5806 12.9419 24.0839V20.6H9.45806C8.95484 20.6 8.57419 20.2129 8.57419 19.7161V7.94194C8.57419 7.4129 9 7.12258 9.37419 7.05806H18.1742C18.671 7.05806 19.0581 7.44516 19.0581 7.94194V11.4258H22.5419V11.4258ZM10.3161 18.8581H12.9419V12.3161C12.9419 11.8387 13.3161 11.5032 13.7161 11.4323H17.3161V8.83226H10.3161V18.8581V18.8581ZM21.6839 13.1742H14.6839V23.2H21.6839V13.1742V13.1742Z" fill="#0165E1" /></svg>