<svg width="32" height="32" viewBox="0 0 32 32" fill="none" xmlns="http://www.w3.org/2000/svg">
 <path  d= "M15.9742 0C25.1226 0 32 7.10323 32 16C32 25.4903 24.3548 32 15.9742 32C7.32903 32 0 24.9355 0 16C0 7.42581 6.75484 0 15.9742 0ZM16.0258 2.88387C8.4 2.88387 2.88387 9.2 2.88387 16C2.88387 23.0839 8.76774 29.0839 16.0258 29.0839C22.6839 29.0839 29.1097 23.8516 29.1097 16C29.1161 8.65806 23.2903 2.88387 16.0258 2.88387V2.88387ZM8.74194 20.3419V11.4839H13.1419C15.3161 11.4839 16.4 12.4839 16.4 14.4839C16.4 15.0645 16.2065 17.4839 12.7161 17.4839H10.9742V20.3419H8.74194ZM10.9419 13.1419V15.8258H12.8258C14.6258 15.8258 14.7613 13.1419 12.7677 13.1419H10.9419V13.1419ZM17 20.3419V11.4839H20.4323C21.8129 11.4839 24.9484 11.8194 24.9484 15.9097C24.9484 20.0065 21.8129 20.3355 20.4323 20.3355H17V20.3419ZM19.2 13.3419V18.4839H20.4839C22.0323 18.4839 22.7097 17.4968 22.7097 15.9097C22.7097 13.2 20.6968 13.3355 20.4516 13.3355L19.2 13.3419V13.3419Z" fill="#0165E1" /></svg>