<svg width="32" height="33" viewBox="0 0 32 33" fill="none" xmlns="http://www.w3.org/2000/svg">
 <path  d= "M15.9806 0.0473633C6.68387 0.0473633 0 7.58285 0 16.0474C0 24.8409 7.20645 32.0474 15.9806 32.0474C24.3806 32.0474 32 25.5377 32 16.0474C32 7.07962 25.0581 0.0473633 15.9806 0.0473633ZM16.0194 29.1248C8.79355 29.1248 2.88387 23.157 2.88387 16.0474C2.88387 14.5506 3.12258 13.1312 3.5871 11.7893L7.82581 13.6667H7.52258V15.5699H9.02581C9.02581 15.9699 9 15.7764 9 16.828H7.52903V18.7312H9.27097C10.0065 23.0538 13.6065 25.2667 17.3097 25.2667C19.0258 25.2667 20.5742 24.757 21.4903 24.2474L20.8452 21.2732C20.2839 21.5699 19.0258 21.9699 17.7935 21.9699C15.9742 21.9699 14.0452 21.2667 13.4516 18.7312H19.2774L27.5548 22.3957C27.4581 22.5312 23.929 29.1248 16.0194 29.1248V29.1248ZM14.9419 16.828L14.9097 16.8022L14.9677 16.828H14.9419ZM19.9226 15.5699H20.1613V13.6667H15.6258L13.7806 12.8538C13.9419 12.499 14.129 12.1764 14.3484 11.9312C15.1806 10.9119 16.3548 10.4861 17.6452 10.4861C18.8258 10.4861 19.9226 10.8345 20.6194 11.1312L21.3677 8.07962C20.4 7.65381 18.9806 7.27962 17.3484 7.27962C14.8323 7.27962 12.6903 8.29898 11.1613 10.0087C10.8194 10.4022 10.529 10.8409 10.2645 11.3054L5 8.97639C9.16774 2.73123 15.1742 2.93769 16.0129 2.93769C23.3032 2.93769 29.1097 8.75704 29.1097 16.0603C29.1097 17.2667 28.9742 18.4022 28.7032 19.4732L19.9226 15.5699V15.5699Z" fill="#0165E1" /></svg>