<svg width="32" height="32" viewBox="0 0 32 32" fill="none" xmlns="http://www.w3.org/2000/svg">
 <path  d= "M15.9742 0C25.1226 0 32 7.10323 32 16C32 25.4903 24.3548 32 15.9742 32C7.32903 32 0 24.9355 0 16C0 7.42581 6.75484 0 15.9742 0ZM16.0258 2.88387C8.4 2.88387 2.88387 9.2 2.88387 16C2.88387 23.0839 8.76774 29.0839 16.0258 29.0839C22.6839 29.0839 29.1097 23.8516 29.1097 16C29.1161 8.65806 23.2903 2.88387 16.0258 2.88387V2.88387ZM16.2581 6.31613C16.4387 6.29677 17 6.38065 17 7.05806L17.4258 13.9742L17.7419 10.1484C17.7419 9.76129 18.0452 9.46452 18.4258 9.46452C18.8065 9.46452 19.1097 9.76774 19.1097 10.1484C19.1097 10.3097 19.0774 9.78065 19.4774 15.4065L19.8516 11.2645C19.871 11.0774 20.0387 10.6645 20.5097 10.6645C20.7548 10.6645 21.1484 10.8129 21.1935 11.2387L21.9355 17.4645L22.2774 16.6387C22.3935 16.3548 22.6129 16.2129 22.9355 16.2129H26.6774V17.5871H23.3935L22.2194 20.4452C21.9677 21.0839 20.9613 21.0323 20.8774 20.2452L20.6194 18.1871L20.1355 24.1613C20.1161 24.3548 19.9419 24.7613 19.4774 24.7613C19.2839 24.7613 18.8452 24.6258 18.7935 24.1613C18.7935 24.0387 18.8323 24.5355 18.3935 19.1355L18.0516 23.7935C17.9806 24.1032 17.7419 24.3935 17.3677 24.3935C17.1806 24.3935 16.7355 24.2645 16.6839 23.7935C16.6839 23.671 16.7161 24.2258 16.3097 18.1355L15.9355 24.2516C15.9355 24.6581 15.7032 25.0516 15.2516 25.0516C14.9161 25.0516 14.5677 24.7871 14.5677 24.2774L14.1935 18.6194C13.8194 24.5871 13.8516 24.0387 13.8516 24.1613C13.7806 24.471 13.5419 24.7613 13.1677 24.7613C12.9742 24.7613 12.5355 24.6258 12.4839 24.1613C12.4839 24.1161 12.4581 24.0903 12.4581 23.9935L12.0581 18.2774L11.7419 21.9355C11.6968 22.3548 11.3097 22.5355 11.0581 22.5355C10.6839 22.5355 10.4387 22.271 10.3742 21.9613L9.65806 17.0323C9.52903 17.2903 9.43226 17.5742 8.94194 17.5742H5.62581V16.2H8.51613L9.4 14.4C9.68387 13.7613 10.5742 13.9355 10.6839 14.5742L10.8839 15.8903L11.4258 9.57419C11.4258 9.1871 11.7355 8.89032 12.1097 8.89032C12.1419 8.89032 12.7935 8.87742 12.7935 9.69032L13.1097 14.1484L13.5355 8.17419C13.5355 7.52258 14.1484 7.49032 14.1935 7.49032C14.2323 7.49032 14.8774 7.53548 14.8774 8.17419L15.2194 13.3742L15.6194 7.05806C15.6258 6.9871 15.5806 6.39355 16.2581 6.31613V6.31613Z" fill="#0165E1" /></svg>