<svg width="32" height="33" viewBox="0 0 32 33" fill="none" xmlns="http://www.w3.org/2000/svg">
 <path  d= "M15.9806 0.210449C6.68387 0.210449 0 7.74593 0 16.2104C0 25.0104 7.2129 32.2104 15.9806 32.2104C24.3806 32.2104 32 25.7072 32 16.2104C32 7.25561 25.0645 0.210449 15.9806 0.210449ZM16.0194 29.2879C8.79355 29.2879 2.88387 23.3201 2.88387 16.2104C2.88387 14.8492 3.07742 13.5524 3.46452 12.3201L11.6581 15.9653H9.85806V18.4556H13.6065L13.9742 19.2169V20.4234H9.85806V22.9201H13.9742V26.533H17.9548V22.9201H22.0968V20.6169L27.3226 22.9459C27.2258 23.0879 23.6387 29.2879 16.0194 29.2879V29.2879ZM21.671 20.4298H17.9548V19.2234L18.1419 18.8621L21.671 20.4298V20.4298ZM22.0903 17.1137V15.9653H19.6L23.6645 8.48142H19.4194L16.6194 14.675L15.1355 14.0169L12.5806 8.48787H8.33548L10.0968 11.7782L4.8129 9.42335C6.60645 6.57819 10.1419 3.09432 16.0194 3.09432C23.2968 3.09432 29.1161 8.90077 29.1161 16.2169C29.1161 17.5717 28.9419 18.8363 28.6065 20.0234L22.0903 17.1137V17.1137Z" fill="#0165E1" /></svg>