<svg width="32" height="32" viewBox="0 0 32 32" fill="none" xmlns="http://www.w3.org/2000/svg">
 <path  d= "M15.9742 0C25.1226 0 32 7.10323 32 16C32 25.4903 24.3548 32 15.9742 32C7.32903 32 0 24.9355 0 16C0 7.42581 6.75484 0 15.9742 0ZM16.0258 2.88387C8.4 2.88387 2.88387 9.2 2.88387 16C2.88387 23.0839 8.76774 29.0839 16.0258 29.0839C22.6839 29.0839 29.1097 23.8516 29.1097 16C29.1161 8.65806 23.2903 2.88387 16.0258 2.88387V2.88387ZM22.929 16.1484C22.6258 16.1484 22.3484 16.329 22.2387 16.6129L21.9806 17.2258L21.271 11.2387C21.1613 10.3419 19.8516 10.3742 19.7806 11.2645L19.5032 14.5806L19.1677 10.1419C19.0968 9.21935 17.7419 9.22581 17.671 10.1419L17.4452 13.0387L17.0645 6.95484C17.0065 6.01935 15.6258 6.02581 15.5677 6.95484L15.2387 12.3548L14.9613 8.07742C14.9032 7.14839 13.529 7.14839 13.4645 8.07742L13.1226 13.2516L12.8581 9.57419C12.7871 8.65161 11.4387 8.65161 11.3613 9.56129L10.8645 15.3548L10.7484 14.5677C10.6387 13.8323 9.64516 13.6903 9.32903 14.3548L8.47742 16.1419H5.64516V17.6387H8.95484C9.23871 17.6387 9.49677 17.4774 9.62581 17.2258L10.3161 21.9419C10.4452 22.8129 11.729 22.7806 11.8065 21.8968L12.0516 19.0839L12.4194 24.1355C12.4903 25.0645 13.8581 25.0516 13.9161 24.129L14.2129 19.5871L14.5226 24.3161C14.5806 25.2452 15.9613 25.2452 16.0194 24.3097L16.3355 19.1161L16.6258 23.7484C16.6839 24.671 18.0516 24.6839 18.1226 23.7613L18.4194 19.9806L18.7355 24.1355C18.8065 25.0581 20.1548 25.0516 20.2258 24.1419L20.6645 18.7871L20.8387 20.2258C20.929 20.9871 21.9806 21.1355 22.2774 20.4258L23.4387 17.6258H26.6968V16.129L22.929 16.1484V16.1484ZM17.8968 16.4839H16.4839V17.8968C16.4839 18.1613 16.271 18.3806 16 18.3806C15.7355 18.3806 15.5161 18.1677 15.5161 17.8968V16.4839H14.1032C13.8387 16.4839 13.6194 16.271 13.6194 16C13.6194 15.7355 13.8387 15.5161 14.1032 15.5161H15.5161V14.1032C15.5161 13.8387 15.7355 13.6194 16 13.6194C16.2645 13.6194 16.4839 13.8323 16.4839 14.1032V15.5161H17.8968C18.1613 15.5161 18.3806 15.729 18.3806 16C18.3806 16.2645 18.1613 16.4839 17.8968 16.4839Z" fill="#0165E1" /></svg>