<svg width="32" height="32" viewBox="0 0 32 32" fill="none" xmlns="http://www.w3.org/2000/svg">
 <path  d= "M15.9742 0C25.1226 0 32 7.10323 32 16C32 25.4903 24.3548 32 15.9742 32C7.32903 32 0 24.9355 0 16C0 7.42581 6.75484 0 15.9742 0ZM16.0258 2.88387C8.4 2.88387 2.88387 9.2 2.88387 16C2.88387 23.0839 8.76774 29.0839 16.0258 29.0839C22.6839 29.0839 29.1097 23.8516 29.1097 16C29.1161 8.65806 23.2903 2.88387 16.0258 2.88387V2.88387ZM8.88387 13.7419C9.72258 8.32903 14.0774 7.56774 15.9097 7.56774C22.3484 7.56774 24.1355 12.8903 24.1355 16.2258C24.1355 20.329 21.4903 24.8 15.8194 24.8C13.3097 24.8 9.42581 23.5097 8.76129 18.5419H12.7935C12.8903 20.4839 14.0581 21.4581 16.3097 21.4581C17.8129 21.4581 20.0516 20.2839 20.0516 16.1161C20.0516 10.7935 16.8839 10.9161 16.3935 10.9161C14.2581 10.9161 13.0581 11.8581 12.7935 13.7419H13.9677L10.7935 16.9161L7.63226 13.7419H8.88387V13.7419Z" fill="#0165E1" /></svg>