<svg width="32" height="32" viewBox="0 0 32 32" fill="none" xmlns="http://www.w3.org/2000/svg">
 <path  d= "M15.9742 0C25.1226 0 32 7.10323 32 16C32 25.4903 24.3548 32 15.9742 32C7.32903 32 0 24.9355 0 16C0 7.42581 6.75484 0 15.9742 0ZM16.0258 2.88387C8.4 2.88387 2.88387 9.2 2.88387 16C2.88387 23.0839 8.76774 29.0839 16.0258 29.0839C22.6839 29.0839 29.1097 23.8516 29.1097 16C29.1161 8.65806 23.2903 2.88387 16.0258 2.88387V2.88387ZM26.4581 16.2839L26.7742 16.4258V20.9419C26.3097 21.1742 22.6839 22.7161 22.4323 22.8C22.0129 22.6839 15.0968 19.7806 13.5742 19.1742L9.43226 20.8903L5.34839 19.1161V15L9.17419 13.4C9.12903 13.3548 9.14839 13.7226 9.14839 8.85806L13.4903 6.94194L23.2903 11V14.9742L26.4581 16.2839ZM21.9161 21.5419V18.7161H21.8903V18.6L14.5484 15.6V18.5161L21.8903 21.5419V21.5161L21.9161 21.5419ZM22.4 17.8258L24.9742 16.7677L22.6 15.7677L20.0839 16.8258L22.4 17.8258V17.8258ZM25.7742 20.2839V17.5097L22.9161 18.7097V21.5097L25.7742 20.2839V20.2839Z" fill="#0165E1" /></svg>