<svg width="32" height="32" viewBox="0 0 32 32" fill="none" xmlns="http://www.w3.org/2000/svg">
 <path  d= "M16.4387 13.3419L14.2968 14.4581C13.6903 13.1935 12.671 13.1742 12.5226 13.1742C11.0968 13.1742 10.3806 14.1161 10.3806 16C10.3806 17.5226 10.9742 18.8258 12.5226 18.8258C13.4581 18.8258 14.1161 18.3677 14.4968 17.4516L16.471 18.4516C16.071 19.1935 14.8129 20.9677 12.271 20.9677C10.8129 20.9677 7.49677 20.3032 7.49677 15.9935C7.49677 12.2065 10.271 11.0194 12.1806 11.0194C14.1677 11.0323 15.5806 11.8 16.4387 13.3419ZM25.671 13.3419L23.5548 14.4581C22.9419 13.1806 21.8968 13.1742 21.7548 13.1742C20.329 13.1742 19.6129 14.1161 19.6129 16C19.6129 17.5226 20.2065 18.8258 21.7548 18.8258C22.6903 18.8258 23.3419 18.3677 23.7226 17.4516L25.7226 18.4516C25.5871 18.6903 24.3419 20.9677 21.5226 20.9677C20.0581 20.9677 16.7484 20.329 16.7484 15.9935C16.7484 12.2065 19.5226 11.0194 21.4323 11.0194C23.4194 11.0323 24.8323 11.8 25.671 13.3419V13.3419ZM15.9742 0C25.1226 0 32 7.10323 32 16C32 25.4903 24.3548 32 15.9742 32C7.32903 32 0 24.9355 0 16C0 7.42581 6.75484 0 15.9742 0ZM16.0258 2.88387C8.4 2.88387 2.88387 9.2 2.88387 16C2.88387 23.0839 8.76774 29.0839 16.0258 29.0839C22.6839 29.0839 29.1097 23.8516 29.1097 16C29.1161 8.65806 23.2903 2.88387 16.0258 2.88387V2.88387Z" fill="#0165E1" /></svg>