<svg width="32" height="32" viewBox="0 0 32 32" fill="none" xmlns="http://www.w3.org/2000/svg">
 <path  d= "M20.3161 12.0258V18.5677H18.4903V26.3419H13.5161V18.5742H11.6903V12.0258C11.6903 11.7419 11.7935 11.4968 11.9871 11.2968C12.1871 11.0968 12.4323 10.9935 12.7161 10.9935H19.2903C19.5548 10.9935 19.7935 11.0968 20.0065 11.2968C20.2065 11.5032 20.3161 11.7419 20.3161 12.0258V12.0258ZM13.7677 7.91613C13.7677 6.4129 14.5097 5.65806 15.9935 5.65806C17.4774 5.65806 18.2194 6.4129 18.2194 7.91613C18.2194 9.4 17.4774 10.1419 15.9935 10.1419C14.5097 10.1419 13.7677 9.4 13.7677 7.91613ZM15.9742 0C25.1226 0 32 7.10323 32 16C32 25.4903 24.3548 32 15.9742 32C7.32903 32 0 24.9355 0 16C0 7.42581 6.75484 0 15.9742 0ZM16.0258 2.88387C8.4 2.88387 2.88387 9.2 2.88387 16C2.88387 23.0839 8.76774 29.0839 16.0258 29.0839C22.6839 29.0839 29.1097 23.8516 29.1097 16C29.1161 8.65806 23.2903 2.88387 16.0258 2.88387V2.88387Z" fill="#0165E1" /></svg>