<svg width="28" height="32" viewBox="0 0 28 32" fill="none" xmlns="http://www.w3.org/2000/svg">
 <path  d= "M22.2903 19.1935C21.1613 21.2323 18.5871 22.7097 16.0968 22.7097C12.4452 22.7097 9.38712 19.6516 9.38712 16C9.38712 12.3484 12.4452 9.29032 16.0968 9.29032C18.5871 9.29032 21.1613 10.7677 22.2903 12.8065C23.1742 9.52258 24.9807 6.7871 27.9033 5.20645C24.9807 2.00645 20.7742 0 16.0968 0C7.25809 0 0.0968018 7.16129 0.0968018 16C0.0968018 24.8387 7.25809 32 16.0968 32C20.7742 32 24.9807 29.9935 27.9033 26.7935C24.9807 25.2129 23.1742 22.4774 22.2903 19.1935Z" fill="#0165E1" /></svg>