<svg width="32" height="32" viewBox="0 0 32 32" fill="none" xmlns="http://www.w3.org/2000/svg">
 <path  d= "M3.63513 6.53779C3.59902 5.50261 3.7555 4.50356 4.39947 3.6369C4.41753 4.08227 4.47169 4.50957 4.65225 4.93688C5.00734 3.28181 5.83788 1.9698 7.19804 0.99481C7.08369 1.3499 6.9874 1.70498 7.01749 2.06007C7.54109 1.61471 8.14896 0.988791 9.68967 0.693888C10.5744 0.525372 11.4771 0.57352 12.2234 0.754072C14.5405 1.31379 15.8947 2.81839 16.4183 5.1054C16.7373 6.49566 16.4604 7.81369 15.9188 9.10164C15.6058 9.84792 15.1965 10.5701 14.6729 11.2141C14.5526 11.0998 14.4382 10.9854 14.3239 10.8771C11.748 8.42155 12.7109 9.36043 12.073 8.62618C12.0068 8.55396 12.0128 8.49377 12.067 8.40952C12.5665 7.59703 12.7771 6.71232 12.6688 5.76141C12.6026 5.1716 12.41 4.62392 11.9887 4.18458C11.116 3.26376 9.62949 3.28181 8.76885 4.22069C8.08275 4.97299 7.92026 5.86974 8.11284 6.84473C8.12488 6.92296 8.13692 7.00722 8.11284 7.07944C7.90822 7.90397 7.836 8.74053 7.96238 9.58311C7.9684 9.6132 7.9684 9.64931 7.9684 9.67941C7.9684 9.69746 7.96238 9.7095 7.95637 9.74561C6.64435 9.08358 5.78973 8.04239 5.3564 6.60399C4.85687 7.67527 4.68836 8.74053 4.95919 9.85996C4.02031 8.94516 3.67726 7.79564 3.63513 6.53779V6.53779ZM31.8977 13.9525C31.1995 13.2544 30.3931 12.7247 29.4843 12.3516C28.7139 12.0386 27.9195 11.8761 27.0829 11.9243C26.4811 11.9604 25.9033 12.1109 25.3376 12.3095C25.1871 12.3636 25.0307 12.4058 24.8742 12.4419C24.5793 12.5141 24.4348 12.2553 24.5913 12.0326C24.7839 11.7558 24.7959 11.7798 25.4941 11.3104C25.5302 11.2863 25.5663 11.2623 25.6265 11.2201H25.476C25.4399 11.2201 25.4038 11.2322 25.3617 11.2382C24.2001 11.4368 23.514 12.171 22.4187 13.0196C21.7927 13.5071 21.5881 13.2483 21.6964 12.9895C21.7807 12.7789 21.8951 12.5863 22.0034 12.3877C22.0636 12.2794 22.1418 12.1831 22.214 12.0808C22.202 12.0687 22.1839 12.0627 22.1719 12.0507C20.5469 13.152 19.3613 14.6025 18.6993 16.4622C18.7173 16.4802 18.7414 16.4983 18.7594 16.5163C18.7775 16.4802 18.7895 16.4441 18.8136 16.414C19.4395 15.6858 20.1858 15.102 21.0164 14.6205C22.1117 13.9826 23.2733 13.5192 24.5492 13.4048C24.808 13.3807 25.0728 13.3988 25.3376 13.3988C25.2293 13.4409 25.127 13.453 25.0186 13.465C23.9052 13.6094 22.8821 14.0067 21.9191 14.5784C20.1016 15.6557 18.6391 17.1182 17.3993 18.8154C17.3812 18.8395 17.3752 18.8696 17.3572 18.8936C18.2298 19.2126 18.8016 19.9348 19.5298 20.4343C19.5418 20.4283 19.5479 20.4223 19.5539 20.4103L19.6261 20.2478C20.3604 18.6288 21.2511 17.1001 22.4367 15.764C23.4418 14.6326 24.7237 14.2414 26.1982 14.5604C26.5533 14.6386 26.8843 14.8252 27.2334 14.9696C27.3718 14.8853 27.5403 14.777 27.7149 14.6867C28.2204 14.4279 28.7621 14.2655 29.3218 14.1451C30.2065 13.9585 31.0972 13.8502 32 14.0668V14.0368C31.9699 14.0127 31.9278 13.9886 31.8977 13.9525V13.9525ZM17.7303 24.5148C15.359 22.5288 16.3581 23.3412 15.1604 22.3723C15.1123 22.4264 15.1604 22.3602 15.0461 22.5528C14.372 23.7024 13.5114 24.6773 12.398 25.4176C11.7781 25.8269 11.104 26.1278 10.3457 26.1278C9.0457 26.1278 8.04664 25.556 7.37258 24.4547C6.65037 23.2811 6.57213 22.0052 6.87907 20.6871C7.3485 18.6529 8.69061 17.3649 9.20218 16.8173C8.07673 16.4441 7.2161 16.9196 6.40963 17.6538C6.45778 16.8173 6.66842 16.077 7.1198 15.409C5.65733 16.0469 4.35734 16.9136 3.21986 18.051C3.20181 17.702 3.54486 15.421 3.55689 15.3608C3.57495 15.1983 3.52078 15.0418 3.37634 14.9154C1.91988 16.402 0.698138 18.033 2.29585e-08 20.007C0.445364 19.6519 0.896746 19.3209 1.42035 19.032C0.92082 20.3742 0.240737 22.2098 0.950912 25.1167C1.22776 26.2602 1.66711 27.3315 2.40135 28.2643C2.57589 28.487 2.78052 28.6796 2.97311 28.8842C2.98514 28.8722 2.99718 28.8662 3.00922 28.8541C2.92496 28.4328 2.87681 28.0055 2.91894 27.5361C3.05134 27.7287 3.15366 27.8972 3.27403 28.0537C4.03235 29.0166 5.00132 29.7027 6.11473 30.1962C7.61933 30.8763 9.19014 30.9967 10.8031 30.7138C14.1072 30.13 16.2618 27.7889 17.7845 24.7676C17.8446 24.6593 17.8206 24.5931 17.7303 24.5148V24.5148ZM28.082 21.7223C27.5103 21.5357 26.7459 21.4695 26.3547 21.5478C26.9505 21.7885 27.2033 21.945 27.4862 22.27C28.2445 23.1366 28.1121 24.3584 27.1612 25.0144C26.457 25.5019 25.6626 25.6463 24.82 25.562C24.7478 25.556 24.6816 25.538 24.6395 25.5259C24.808 25.3033 25.0006 25.1046 25.127 24.8759C25.6927 23.8648 25.4519 22.3422 24.6033 21.4996C24.477 21.3732 24.3265 21.2649 24.1821 21.1445C24.164 21.2228 24.176 21.2709 24.1881 21.313C24.4408 22.3121 23.7006 23.263 22.6955 23.2269C22.2381 23.2088 21.8589 22.9982 21.5159 22.7153C20.3423 21.7464 19.1627 20.7834 17.9951 19.8084C17.64 19.5135 17.2428 19.3209 16.7854 19.2848C16.5086 19.2607 16.2257 19.2487 15.9488 19.2307C15.5938 19.2066 15.4192 19.0621 15.3229 18.7251C15.2688 18.5205 15.2326 18.3159 15.1905 18.1112C15.1002 17.6237 14.8174 17.3288 14.3299 17.2566C14.0651 17.2145 13.7942 17.1964 13.5294 17.1663C12.747 17.0821 12.3378 16.721 12.1693 15.9446C11.8683 16.6066 12.073 17.2927 12.6086 17.7441C12.8794 17.9728 13.1683 18.1834 13.4392 18.4182C13.716 18.6469 13.8845 18.9418 13.9146 19.3089C13.9387 19.5918 13.9628 19.8806 14.0229 20.1575C14.1554 20.7954 14.5586 21.2649 15.0461 21.6681C16.0391 22.4926 17.0322 23.3112 18.0252 24.1417C19.1025 25.0445 18.8618 26.1157 18.8076 27.512C18.7534 28.8902 19.5418 30.0939 20.8238 30.5935C20.884 30.6175 20.9441 30.6296 21.0404 30.6597C20.0955 29.5643 20.4326 28.0055 21.0826 27.512C21.1006 27.6444 21.1066 27.7708 21.1367 27.8972C21.7025 30.5513 23.8691 31.761 26.2524 31.3217C27.2153 31.1472 28.094 30.786 28.8343 30.13C28.9547 30.0217 29.057 29.8833 29.1894 29.7388C28.0278 30.0157 27.0348 29.7449 26.126 29.1009C26.1681 29.0828 26.2043 29.0828 26.2404 29.0828C27.5223 29.1912 28.6838 28.8782 29.6709 28.0356C30.8445 27.0366 31.2718 25.4537 30.7181 24.0635C30.2185 22.8538 29.2977 22.1195 28.082 21.7223V21.7223ZM4.65225 11.3766C4.33327 10.8229 3.85781 10.4377 3.32217 10.0947C4.1467 10.0646 4.92308 10.1067 5.70547 10.3174C5.28418 9.58311 5.19391 8.83081 5.40455 7.98823C5.72353 8.70442 6.22908 9.19793 6.8249 9.60117C8.01053 10.3956 8.97348 10.7808 9.63551 11.4187C9.84013 11.6173 10.0147 11.846 10.2133 12.0747C10.1651 11.9484 10.129 11.828 10.0809 11.7136C9.77995 11.0757 9.29848 10.5942 8.72071 10.209C8.61238 10.1368 8.55219 10.0586 8.51608 9.9382C8.31747 9.18589 8.33553 8.42757 8.47395 7.67527C8.53414 7.34426 8.64247 7.01926 8.74478 6.69426C8.79293 6.54982 8.8832 6.41742 8.98552 6.29705C9.02163 6.71232 8.98552 7.83175 10.1651 9.06553C10.8151 9.74561 11.5133 10.3836 12.2054 11.0336C12.747 11.5451 13.3068 12.0386 13.7401 12.6465C13.8063 12.7428 13.8725 12.8451 13.9688 12.9294C13.6679 12.147 13.1142 11.4789 12.5123 10.8951C11.9345 10.3354 11.3447 9.78774 10.7549 9.24608C10.5563 9.06553 10.4781 8.84284 10.448 8.59007C10.3758 7.96415 10.448 7.35027 10.7068 6.7725C10.7369 6.71232 10.773 6.65214 10.8211 6.5739C10.8512 6.82667 10.8573 7.04935 10.9054 7.27203C11.1943 8.66229 12.1332 9.45672 13.8725 11.0937C14.4743 11.6595 15.034 12.2493 15.4132 12.9956C15.7021 13.5553 15.8525 14.1391 15.7563 14.777C15.7502 14.8131 15.7863 14.8793 15.8225 14.8974C16.1956 15.0539 16.4243 15.3127 16.4062 15.758C16.8697 15.6015 17.1585 15.2765 17.3933 14.8853C17.646 16.1011 16.8456 17.9126 15.7563 18.4182C15.7803 18.1473 16.0572 17.0099 14.7632 16.7511C14.354 16.6728 13.9929 16.6728 13.385 16.6247C13.6679 16.083 14.0109 15.3849 13.4151 15.2765C11.9165 14.9997 10.2374 15.3909 9.93643 15.5534C10.4299 15.5775 10.9174 15.6136 11.3508 15.752C11.2304 16.1432 11.11 16.5163 11.0017 16.8895C10.8873 17.2807 11.1281 17.7682 11.5614 17.4673C11.6336 17.4131 11.6998 17.3529 11.76 17.3048C11.5734 18.3821 11.5855 18.2617 11.5915 18.4061C11.6096 19.02 12.1632 18.8756 12.5364 18.8455C12.3859 19.5557 10.761 20.4885 9.80402 20.3982C10.2253 20.1154 10.5684 19.7783 10.761 19.3209C10.3698 19.3691 9.98458 19.4172 9.60542 19.4654L9.58736 19.4112C9.87023 19.2066 10.0688 18.9418 10.2012 18.6228C10.7248 17.3529 9.98458 16.3358 8.69663 16.2214C8.14896 16.1733 7.62535 16.2696 7.13786 16.5525C7.511 15.6136 8.17303 14.9516 9.09987 14.4761C8.18507 14.2173 8.56423 14.3136 7.61933 14.0969C8.49803 13.5372 9.4369 13.3025 10.4179 13.2182C10.1049 13.0257 7.52304 13.0016 6.19297 14.4761C6.66842 14.5604 7.12582 14.6446 7.58924 14.7289C6.15686 15.1502 4.94113 15.9145 3.83374 16.8714C3.89994 16.5825 3.99624 16.2997 4.03235 16.0108C4.06846 15.74 4.0805 15.4571 4.03837 15.1923C3.94809 14.6266 3.50273 14.2835 2.85274 14.2113C2.37728 14.1571 1.91386 14.2173 1.45044 14.2895C1.39628 14.2955 1.34813 14.3076 1.27591 14.2895C2.22682 13.3988 3.44254 12.9835 4.47169 12.2733C4.8328 12.0025 4.88095 11.7798 4.65225 11.3766V11.3766ZM12.3799 12.9895C12.5785 13.9525 13.1382 14.5242 13.8123 14.452C13.5355 13.7719 13.0841 13.2784 12.3799 12.9895Z" fill="#0165E1" /></svg>