<svg width="32" height="32" viewBox="0 0 32 32" fill="none" xmlns="http://www.w3.org/2000/svg">
 <path  d= "M31.8857 2.56728C31.8572 2.46016 31.8215 2.35304 31.7858 2.24592C31.7215 2.06739 31.6429 1.90314 31.5501 1.73889C31.4501 1.5675 31.3359 1.39611 31.2145 1.24614C31.0645 1.06761 30.9002 0.903364 30.7217 0.760539C30.6432 0.696267 30.5646 0.639137 30.4861 0.582007C30.3932 0.517736 30.3004 0.460606 30.2004 0.410617C30.0719 0.339204 29.9433 0.282074 29.8076 0.232085C29.6862 0.182096 29.5577 0.139249 29.422 0.110684C29.1506 0.0392711 28.8578 0.00356474 28.5651 0.00356474H3.42781C1.53537 -0.00357652 0 1.5318 0 3.42423V28.5615C0 28.8543 0.0357063 29.1471 0.107119 29.4184C0.249944 29.9683 0.521312 30.4611 0.892658 30.8681C0.964071 30.9467 1.04262 31.0252 1.12832 31.1038C1.53537 31.4751 2.02812 31.7465 2.578 31.8893C2.84936 31.9607 3.14216 31.9964 3.43495 31.9964H28.5722C30.4646 31.9964 32 30.4611 32 28.5686V3.42423C31.9929 3.13144 31.9572 2.83865 31.8857 2.56728ZM29.7077 28.5615C29.7077 29.1899 29.1935 29.7041 28.5651 29.7041H15.9964V15.9929H2.2852V3.42423C2.2852 2.7958 2.79938 2.28163 3.42781 2.28163H15.9964V15.9929H29.7077V28.5615Z" fill="#0165E1" /></svg>