<svg width="32" height="24" viewBox="0 0 32 24" fill="none" xmlns="http://www.w3.org/2000/svg">
 <path  d= "M23.8875 4.5H27.1187V19.475H23.8875V18.1812C22.65 19.7312 20.5875 19.6875 19.275 19.1C17.6375 18.3688 16.5063 16.7187 16.5063 14.6125C16.5063 12.75 17.4312 10.9937 19.2125 10.1875C20.475 9.61875 22.5063 9.525 23.8875 10.9937V4.5ZM19.8438 14.6125C19.8438 15.75 20.6938 16.7062 21.9188 16.7062C23.1563 16.7062 23.9937 15.6812 23.9937 14.65C23.9937 13.5812 23.1375 12.575 21.9188 12.575C20.6938 12.575 19.8438 13.6 19.8438 14.6125V14.6125ZM11.7812 4.5H15.0125V19.475H11.7812V18.1812C10.5438 19.7312 8.48125 19.6875 7.16875 19.1C5.53125 18.3688 4.4 16.7187 4.4 14.6125C4.4 12.75 5.325 10.9937 7.10625 10.1875C8.36875 9.61875 10.4 9.525 11.7812 10.9937V4.5ZM7.7375 14.6125C7.7375 15.75 8.5875 16.7062 9.8125 16.7062C11.05 16.7062 11.8875 15.6812 11.8875 14.65C11.8875 13.5812 11.0312 12.575 9.8125 12.575C8.58125 12.575 7.7375 13.6 7.7375 14.6125V14.6125ZM28 2C29.0938 2 30 2.9 30 4V20C30 21.0938 29.1 22 28 22H4C2.90625 22 2 21.1 2 20V4C2 2.90625 2.9 2 4 2H28ZM28 0H4C1.8 0 0 1.8 0 4V20C0 22.2 1.8 24 4 24H28C30.2 24 32 22.2 32 20V4C32 1.8 30.2 0 28 0Z" fill="#0165E1" /></svg>