<svg width="32" height="32" viewBox="0 0 32 32" fill="none" xmlns="http://www.w3.org/2000/svg">
 <path  d= "M13.8724 31.9981L15.8163 29.5979C16.5852 29.5854 17.4165 29.5104 18.0978 29.1853C20.5293 28.0227 20.4981 25.3162 20.4918 25.1974C20.4856 24.8849 20.4418 24.9224 18.6854 22.8597H23.6297C23.6172 25.9912 23.1734 27.1414 22.9921 27.5914C22.4045 29.0728 20.248 31.5168 17.0415 31.9294C16.4977 31.9981 14.9912 32.0044 13.8724 31.9981V31.9981ZM26.3987 21.5158C28.8115 21.5158 30.0553 20.6657 31.0054 19.5843L20.0355 19.5656L18.9479 21.522L26.3987 21.5158ZM23.6734 7.52054V18.0404H19.0792L17.0352 21.5095H16.6289C13.3598 21.5095 12.9973 17.9779 12.9848 17.8279C12.9098 17.0028 11.6534 17.1028 11.7284 17.9404C11.8159 18.928 12.2785 20.4407 13.3786 21.5095H7.69047C6.09655 21.5095 0.764733 19.8343 1.00226 14.3838V1.0511C1.00226 0.0509959 1.60857 0.0134919 1.93986 0.000990588H7.0654C7.0779 0.000990588 7.08415 0.00724125 7.09665 0.00724125C7.36543 -0.0177614 10.2282 -0.124023 10.2282 2.73878C10.2282 3.57012 11.4909 3.57637 11.4909 2.73878C11.4909 1.60116 11.1471 0.688563 10.5033 0.00724125H15.7663C22.5608 -0.0177614 23.6734 4.97027 23.6734 7.52054ZM15.3913 11.0209L19.3917 12.8524C20.223 10.0083 16.7539 8.37063 15.3913 11.0209Z" fill="#0165E1" /></svg>