<svg width="32" height="20" viewBox="0 0 32 20" fill="none" xmlns="http://www.w3.org/2000/svg">
 <path  d= "M5.10625 4.76875H0V15.6688H8.29375V0H5.10625V4.76875V4.76875ZM5.10625 13.1063H3.18125V7.3375H5.10625V13.1063ZM23.6812 4.76875V15.6688H28.7938V17.45H23.6812V20H32V4.76875H23.6812V4.76875ZM28.7938 13.1063H26.8687V7.3375H28.7938V13.1063ZM14.0688 15.6688H19.2V17.45H14.0688V20H22.4V4.76875H14.0688V15.6688ZM17.2687 7.3375H19.1938V13.1063H17.2687V7.3375ZM9.58125 0H12.7875V3.1875H9.58125V0ZM9.58125 4.76875H12.7875V15.6688H9.58125V4.76875Z" fill="#0165E1" /></svg>