<svg width="32" height="32" viewBox="0 0 32 32" fill="none" xmlns="http://www.w3.org/2000/svg">
 <path  d= "M16.0018 32V25.7998C22.5697 25.7998 27.6666 19.29 25.144 12.3801C24.2213 9.8252 22.1697 7.77353 19.6083 6.85092C12.6985 4.34763 6.18214 9.42519 6.18214 15.9931H0.00132751C0.00132751 5.52831 10.1242 -2.63321 21.0987 0.792693C25.8859 2.29596 29.7183 6.10897 31.2022 10.8962C34.6345 21.8836 26.4924 32 16.0018 32ZM16.0211 19.6513H9.85321V25.8192H16.0211V19.6513ZM9.85321 25.8192H5.09824V30.5677H9.85321V25.8192V25.8192ZM5.09824 21.8449H1.12394V25.8192H5.09824V21.8449Z" fill="#0165E1" /></svg>