<svg width="32" height="32" viewBox="0 0 32 32" fill="none" xmlns="http://www.w3.org/2000/svg">
 <path  d= "M16.1357 0C7.37857 0 0 7.03572 0 15.7214C0 16 0.00714286 32 0.00714286 32L16.1357 31.9857C24.9 31.9857 32 24.6786 32 15.9929C32 7.30714 24.9 0 16.1357 0ZM16 25.1429C14.6143 25.1429 13.2929 24.8357 12.1143 24.2786L6.32143 25.7143L7.95714 20.3571C7.25714 19.0643 6.85714 17.5786 6.85714 16C6.85714 10.95 10.95 6.85714 16 6.85714C21.05 6.85714 25.1429 10.95 25.1429 16C25.1429 21.05 21.05 25.1429 16 25.1429Z" fill="#0165E1" /></svg>