<svg width="32" height="24" viewBox="0 0 32 24" fill="none" xmlns="http://www.w3.org/2000/svg">
 <path  d= "M17.496 11.0126H14.1912V8.04285H17.496V11.0126ZM17.496 0.79834H14.1912V3.83313H17.496V0.79834ZM21.4057 8.03785H18.1009V11.0076H21.4057V8.03785V8.03785ZM13.5913 4.43309H10.2865V7.43789H13.5913V4.43309ZM17.496 4.43309H14.1912V7.43789H17.496V4.43309ZM31.335 9.43275C30.6151 8.94778 28.9552 8.7728 27.6803 9.01278C27.5153 7.81286 26.8454 6.76793 25.6254 5.828L24.9255 5.36303L24.4605 6.06298C23.5406 7.45289 23.2906 9.74273 24.2755 11.2526C23.8406 11.4876 22.9856 11.8076 21.8557 11.7876H0.122171C-0.312799 14.3274 0.412152 17.6272 2.32202 19.892C4.1769 22.0869 6.95671 23.2018 10.5915 23.2018C18.4609 23.2018 24.2855 19.5771 27.0103 12.9925C28.0803 13.0125 30.3901 12.9975 31.575 10.7327C31.65 10.6077 31.905 10.0727 32 9.87772L31.335 9.43275V9.43275ZM5.78179 8.03785H2.48201V11.0076H5.78679V8.03785H5.78179ZM9.68652 8.03785H6.38174V11.0076H9.68652V8.03785ZM13.5913 8.03785H10.2865V11.0076H13.5913V8.03785ZM9.68652 4.43309H6.38174V7.43789H9.68652V4.43309Z" fill="#0165E1" /></svg>