<svg width="32" height="30" viewBox="0 0 32 30" fill="none" xmlns="http://www.w3.org/2000/svg">
 <path  d= "M24.66 26.2941V22.6674L27.8 24.4808L24.66 26.2941ZM5.49333 23.3074C7.19333 21.4874 12.0067 16.3274 15.5533 11.9741C17.8933 9.10075 18.24 6.48075 17.4467 4.46075C16.9533 3.20742 16.28 2.44742 15.8267 2.08075C18.8467 2.22075 20.36 3.64075 21.3067 4.63409C21.3067 4.63409 24.1333 7.84742 21.6933 12.1874C19.2267 16.5808 14.3 22.0208 13.1267 23.3008H5.49333V23.3074ZM8.94667 8.69409C8.94667 9.52075 8.28 10.1874 7.45333 10.1874C6.62667 10.1874 5.96 9.52075 5.96 8.69409C5.96 7.86742 6.62667 7.20075 7.45333 7.20075C8.28 7.20075 8.94667 7.87409 8.94667 8.69409ZM22.4 18.9941V23.3074H16.3133C18.3667 20.9741 21.7667 16.9141 23.7667 13.3541C26.1133 9.18075 24.84 5.12742 22.9133 3.13409C22.62 2.82742 18.7667 -1.05925 11.8467 0.387421C7.90667 1.21409 5.88667 3.28075 4.89333 4.87409C4.02 6.26742 3.76 7.52742 3.68 8.05409C3.31333 10.2541 4.97333 12.5274 7.46 12.5274C9.57333 12.5274 11.28 10.8141 11.28 8.70075C11.28 6.89409 9.96667 5.22742 8.08 4.91409C8.2 4.42742 9.26 3.50742 9.83333 3.26742C12.5733 2.11409 15.0333 3.61409 15.3867 5.50075C15.94 8.45409 12.9133 11.5274 10.74 14.0074C5.63333 19.8074 1.22 24.3874 0 25.6608L22.4 25.6541V29.9341L32 24.4741L22.4 18.9941V18.9941Z" fill="#0165E1" /></svg>