<svg width="32" height="32" viewBox="0 0 32 32" fill="none" xmlns="http://www.w3.org/2000/svg">
 <path  d= "M16 0C7.17755 0 0 7.17755 0 16C0 24.8225 7.17755 32 16 32C24.8225 32 32 24.8225 32 16C32 7.17755 24.8225 0 16 0ZM26.5787 7.37845C28.4821 9.704 29.6348 12.666 29.6648 15.8917C29.2143 15.7964 24.6959 14.8799 20.1486 15.4518C19.7775 14.5459 19.4272 13.749 18.9475 12.767C24.0005 10.704 26.2906 7.76819 26.5787 7.37845V7.37845ZM25.0594 5.79806C24.8136 6.14819 22.7564 8.91329 17.8968 10.7348C15.6573 6.62019 13.1752 3.24006 12.7974 2.73426C17.1314 1.68955 21.6985 2.81619 25.0594 5.79806V5.79806ZM10.1897 3.6529C10.5501 4.14703 12.9922 7.53135 15.2566 11.5567C8.86394 13.2543 3.23342 13.2299 2.62219 13.2218C3.50839 8.98097 6.36632 5.45632 10.1897 3.6529ZM2.33355 16.0208C2.33355 15.8811 2.33632 15.742 2.34052 15.6032C2.93845 15.6155 9.56116 15.7008 16.3861 13.6583C16.7773 14.424 17.151 15.2012 17.4941 15.9776C12.5522 17.3695 8.06219 21.3665 5.8469 25.1586C3.66413 22.7358 2.33355 19.531 2.33355 16.0208ZM7.61142 26.8023C9.03897 23.8841 12.9132 20.117 18.423 18.2374C20.3417 23.2234 21.1352 27.4021 21.3384 28.6012C16.9441 30.473 11.66 29.9594 7.61142 26.8023V26.8023ZM23.6359 27.35C23.4959 26.5186 22.7685 22.5179 20.981 17.6059C25.2635 16.9204 29.0261 18.0426 29.4937 18.1901C28.8845 21.9928 26.7019 25.2768 23.6359 27.35Z" fill="#0165E1" /></svg>