<svg width="28" height="32" viewBox="0 0 28 32" fill="none" xmlns="http://www.w3.org/2000/svg">
 <path  d= "M20.8352 5.85462C19.2463 4.85261 17.7218 4.45896 16.2044 3.45694C15.274 2.82711 13.9642 1.30977 12.8763 1.09211e-07C12.6831 2.09707 12.0532 2.94878 11.3017 3.54283C9.77724 4.75956 8.81101 5.13174 7.47261 5.85462C6.34177 6.44867 0.258118 10.6357 0.258118 18.437C0.258118 26.2527 6.82846 32 14.1288 32C21.4077 32 27.7419 26.7036 27.7419 18.6875C27.7419 10.65 21.8014 6.44867 20.8352 5.85462V5.85462ZM21.0141 29.1586C19.5755 30.5972 14.5654 31.2127 12.6616 29.4592C12.3181 29.1156 12.6831 28.6003 13.1268 28.6003C13.1268 28.6003 14.3436 29.5522 16.8128 29.5522C18.7453 29.5522 20.1051 29.0011 20.7135 28.5502C21.1501 28.221 21.3147 28.858 21.0141 29.1586ZM17.1134 25.3939C17.7361 25.1362 19.189 25.1219 19.7473 25.4869C20.0407 25.6873 20.8996 26.8325 20.191 27.1832C19.5898 27.4838 20.1051 26.0595 18.2944 26.0595C17.2422 26.0595 16.8987 26.4317 16.3834 26.8468C15.8824 27.2762 15.682 27.4194 15.5102 27.1832C15.0808 26.5963 16.6482 25.5871 17.1134 25.3939ZM23.7339 26.6321C22.646 26.5605 20.4773 23.1393 19.0816 23.0892C16.8701 23.0248 11.631 28.8651 7.53703 26.0953C4.76002 24.1915 6.49207 18.5945 11.2445 18.5659C14.7873 18.5301 17.2422 22.0729 19.0101 22.0371C20.5346 22.0157 23.4332 19.0454 24.8647 19.0454C28.3503 19.0454 26.5323 26.8683 23.7339 26.6321Z" fill="#0165E1" /></svg>