<svg width="32" height="32" viewBox="0 0 32 32" fill="none" xmlns="http://www.w3.org/2000/svg">
 <path  d= "M20.7249 2.55287C20.8023 1.71436 22.0987 1.64986 23.0856 1.99172C23.1436 2.01107 24.7755 2.61737 24.3111 2.97212C22.5115 2.49482 20.6733 4.14604 20.7249 2.55287ZM7.76024 2.99793C9.74041 2.47547 11.7593 4.28794 11.7012 2.53997C11.6174 1.62406 10.1919 1.55311 9.10831 1.92077C9.04381 1.94012 7.25714 2.59802 7.76024 2.99793V2.99793ZM21.1248 9.80918C20.5572 9.80918 20.0928 10.2736 20.0928 10.8412C20.0928 11.4088 20.5572 11.8732 21.1248 11.8732C21.6924 11.8732 22.1568 11.4088 22.1568 10.8412C22.1568 10.2736 21.6924 9.80918 21.1248 9.80918ZM10.824 9.80918C10.2564 9.80918 9.79201 10.2736 9.79201 10.8412C9.79201 11.4088 10.2564 11.8732 10.824 11.8732C11.3916 11.8732 11.856 11.4088 11.856 10.8412C11.856 10.2736 11.3916 9.80918 10.824 9.80918ZM31.3675 20.3357C30.7289 21.8837 28.7423 21.0452 27.2459 20.2583C26.3751 24.7153 23.4984 27.4436 19.0994 28.2692C19.1188 28.3273 18.9704 28.2628 20.6475 28.3337C22.8147 28.4241 24.7626 28.1338 26.9298 27.8177C25.6527 26.9276 26.1945 25.4248 26.2977 25.3603C26.388 25.3022 27.2459 25.4699 27.6909 26.102C28.2456 25.2958 29.5227 25.1474 29.6388 25.2248C29.742 25.2958 30.0645 26.5729 29.1938 27.4565C29.4969 27.3985 29.7227 27.3533 29.8259 27.3211C29.9936 27.2695 30.9676 28.0499 30.0258 28.1789C29.1035 28.3273 28.5681 28.5079 26.9879 28.8756C24.0273 29.5657 21.4473 29.6367 19.3961 29.7012L19.4606 30.4494C19.7058 31.6168 17.9513 32.0167 17.6804 30.8493C17.732 32.0038 15.9325 32.2554 15.8486 30.7848L15.8164 31.1266C15.7712 32.3134 13.9845 32.2812 13.991 31.0879C13.5072 31.9587 12.1785 31.5265 12.2882 30.5397L12.3656 29.7399C9.99841 29.7979 8.5149 29.9398 8.37945 29.9398C7.03139 29.9398 7.03139 27.9016 8.37945 27.9016C8.53425 27.9016 10.1661 27.9854 12.4559 28.0822C8.5149 27.0824 5.76718 24.5347 5.04477 20.4582C3.43225 21.2838 1.33599 22.1868 0.64583 20.5098C-0.0314264 18.8715 2.03259 17.7621 4.95447 15.7755C4.99962 15.3498 5.05767 14.9176 5.12862 14.4984C4.19981 13.2342 4.38041 12.157 4.09016 10.6025C3.00655 10.7573 2.59375 10.0156 2.56795 9.11258C2.5873 8.64172 2.7034 8.15152 2.72275 8.11927C2.7937 8.00317 3.3742 7.99027 3.54191 7.95157C3.92891 5.9069 6.80563 5.81015 9.40501 5.7263C10.6757 4.32019 12.3204 3.04953 14.6231 2.61092C13.6362 1.35961 14.4038 0.0373489 14.4683 0.00509864C14.578 -0.0465018 15.8357 0.282451 16.1647 1.50151C16.5001 0.933907 17.345 0.766205 17.4289 0.811356C17.4998 0.850056 17.8417 1.77886 17.1128 2.48192C19.7122 2.70767 21.7698 4.07508 23.3049 5.7521C25.6334 5.84885 27.936 6.13265 28.2779 7.94512C28.452 7.98382 29.0261 7.99672 29.097 8.11282C29.1164 8.14507 29.2325 8.63527 29.2518 9.10613C29.2196 10.0027 28.8132 10.7444 27.7296 10.5961C27.5232 11.712 27.5555 12.7182 27.1685 13.6728C27.3233 14.4274 27.4265 15.2079 27.4781 16.0206C29.8646 17.6589 32.0125 18.7619 31.3675 20.3357V20.3357ZM13.9007 9.80273C13.9587 6.96471 11.4561 7.08081 8.83095 7.20336C7.43129 7.26786 6.32188 7.32591 5.89618 8.09992C5.16087 9.44798 6.27673 14.092 7.39259 14.6274C8.0247 14.9305 12.1269 15.1369 12.959 14.1694C13.4879 13.5631 13.9265 10.9831 13.9007 9.80273V9.80273ZM17.2547 13.5631C16.9774 12.7633 16.8677 11.6217 16.2679 11.4539C16.1389 11.4217 15.6874 11.4217 15.5584 11.4539C14.9134 11.6346 14.8618 12.8794 14.4619 13.8534C15.4552 13.8534 15.7067 14.479 15.9905 14.479C16.2679 14.479 16.3969 13.7502 17.2547 13.5631ZM26.0075 8.09992C25.5818 7.31946 24.4078 7.26786 23.0082 7.20336C20.4153 7.08081 17.9642 6.95826 18.0223 9.80273C17.99 10.9831 18.3448 13.5631 18.8737 14.1759C19.7122 15.1369 23.8144 14.937 24.4401 14.6338C25.4592 14.1436 26.7944 9.54473 26.0075 8.09992Z" fill="#0165E1" /></svg>