<svg width="32" height="14" viewBox="0 0 32 14" fill="none" xmlns="http://www.w3.org/2000/svg">
 <path  d= "M20.2582 7.38749C18.8029 7.43249 17.8978 7.69754 17.8978 8.65269C17.8978 9.27278 18.3929 9.94289 19.6481 9.94289C21.3333 9.94289 22.2285 9.02274 22.2285 7.52251V7.35748C21.6384 7.35748 20.9133 7.36248 20.2582 7.38749V7.38749ZM23.8337 9.3728C23.8337 9.83787 23.8487 10.3029 23.8837 10.713H22.3935C22.3535 10.368 22.3385 10.0329 22.3385 9.70285C21.5334 10.693 20.5732 10.978 19.243 10.978C17.2677 10.978 16.2125 9.93289 16.2125 8.7277C16.2125 6.97742 17.6528 6.36233 20.1431 6.30732C20.8283 6.29232 21.5934 6.28732 22.2285 6.28732V6.11729C22.2285 4.94711 21.4784 4.46703 20.1782 4.46703C19.213 4.46703 18.4979 4.86709 18.4279 5.5572H16.7426C16.9226 3.83693 18.7279 3.40187 20.3182 3.40187C22.2235 3.40187 23.8337 4.07697 23.8337 6.09229V9.3728V9.3728ZM6.381 6.53235C6.26598 3.79693 2.00531 3.70191 1.66026 6.53235H6.381ZM1.63025 7.60252C1.80528 10.518 5.59087 10.473 6.19097 8.68269H7.84623C7.52618 10.403 5.69589 10.9881 4.12564 10.9881C1.2652 10.9881 0 9.4128 0 7.28747C0 4.94711 1.3102 3.40687 4.15065 3.40687C6.416 3.40687 8.07126 4.59205 8.07126 7.17746V7.60252H1.63025V7.60252ZM12.1819 9.88788C13.6721 9.88788 14.6923 8.81271 14.6923 7.19746C14.6923 5.57721 13.6721 4.50704 12.1819 4.50704C10.7017 4.50704 9.67151 5.57721 9.67151 7.19746C9.67151 8.81271 10.7017 9.88788 12.1819 9.88788ZM8.07126 0.586426H9.67651V4.61706C10.4616 3.68191 11.5468 3.40687 12.612 3.40687C14.3972 3.40687 16.3826 4.61205 16.3826 7.21746C16.3826 9.3978 14.8073 10.9881 12.582 10.9881C11.4168 10.9881 10.3266 10.573 9.64651 9.74286C9.64651 10.0729 9.6265 10.403 9.5915 10.718H8.01625C8.04126 10.2079 8.07126 9.57783 8.07126 9.06275V0.586426V0.586426ZM32 3.67191L27.0392 13.4134H25.2439L26.6692 10.708L22.9386 3.67191H24.8139L27.5593 9.16777L30.2997 3.67191H32Z" fill="#0165E1" /></svg>