<svg width="30" height="32" viewBox="0 0 30 32" fill="none" xmlns="http://www.w3.org/2000/svg">
 <path  d= "M0.142761 14.2041C0.149923 14.1936 0.1576 14.1832 0.164826 14.1728C0.163471 14.1832 0.161923 14.1936 0.160632 14.2041H0.142761V14.2041ZM29.8571 15.2046C29.8571 12.3638 29.3569 9.75522 27.999 7.30747C25.3547 2.57281 20.6717 3.51428e-05 15.1866 3.51428e-05C6.15877 -0.0178359 1.10425 6.78798 0.164826 14.1728C2.90219 10.2172 7.71794 6.34211 14.3826 6.1105C14.3826 6.1105 21.4578 6.1105 20.7967 12.8819H9.45136C9.86226 10.4699 10.6484 9.07638 11.6668 7.78992C6.82497 10.0411 3.80548 13.9897 3.87696 19.9393C3.93051 24.5489 7.11078 29.2836 11.6668 31.0346C17.0447 33.0892 24.104 31.4991 27.1593 29.6588V22.9231C21.9422 26.5678 9.68368 26.8537 9.59439 18.5636H29.8572V15.2046H29.8571Z" fill="#0165E1" /></svg>