<svg width="32" height="14" viewBox="0 0 32 14" fill="none" xmlns="http://www.w3.org/2000/svg">
 <path  d= "M31.9936 9.78462C31.9387 9.24965 31.4587 9.44464 31.4587 9.44464C31.4587 9.44464 30.6787 10.0496 29.9938 9.97961C29.3088 9.91462 29.5238 8.3797 29.5238 8.3797C29.5238 8.3797 29.6738 6.97478 29.2688 6.85978C28.8638 6.73979 28.3688 7.22476 28.3688 7.22476C28.3688 7.22476 27.7489 7.90973 27.4539 8.78468L27.3739 8.80968C27.3739 8.80968 27.4689 7.27976 27.3589 6.92978C27.2789 6.75479 26.5389 6.76979 26.4189 7.07977C26.299 7.38975 25.709 9.53964 25.669 10.4396C25.669 10.4396 24.514 11.4195 23.5041 11.5795C22.4942 11.7395 22.2542 11.1096 22.2542 11.1096C22.2542 11.1096 24.994 10.3446 24.899 8.15471C24.804 5.96483 22.6891 6.77479 22.4492 6.95478C22.2192 7.12977 20.9792 7.87473 20.6193 9.93962C20.6093 10.0096 20.5843 10.3146 20.5843 10.3146C20.5843 10.3146 19.5243 11.0246 18.9344 11.2145C18.9344 11.2145 20.5843 8.4347 18.5694 7.16977C17.6544 6.6198 16.9295 7.77473 16.9295 7.77473C16.9295 7.77473 19.6543 4.7399 19.0543 2.17504C18.7644 0.955103 18.1544 0.82011 17.5944 1.0201C16.7445 1.35508 16.4195 1.85505 16.4195 1.85505C16.4195 1.85505 15.3195 3.45497 15.0646 5.82984C14.8096 8.20471 14.4346 11.0846 14.4346 11.0846C14.4346 11.0846 13.9096 11.5945 13.4246 11.6195C12.9397 11.6445 13.1547 10.1846 13.1547 10.1846C13.1547 10.1846 13.5296 7.95472 13.5046 7.57974C13.4796 7.20476 13.4496 6.99978 13.0097 6.86978C12.5647 6.73479 12.0847 7.29976 12.0847 7.29976C12.0847 7.29976 10.8098 9.23465 10.6998 9.52964L10.6348 9.64963L10.5698 9.56964C10.5698 9.56964 11.4698 6.93478 10.6098 6.89478C9.74985 6.85478 9.18488 7.83473 9.18488 7.83473C9.18488 7.83473 8.20493 9.47464 8.16493 9.65963L8.09994 9.57964C8.09994 9.57964 8.50492 7.66974 8.41992 7.19976C8.33992 6.72979 7.89495 6.82478 7.89495 6.82478C7.89495 6.82478 7.32998 6.75979 7.18499 7.11977C7.04 7.47975 6.50002 9.88462 6.43503 10.6546C6.43503 10.6546 5.0251 11.6645 4.09516 11.6745C3.17021 11.6895 3.2602 11.0846 3.2602 11.0846C3.2602 11.0846 6.66002 9.91962 5.73007 7.62474C5.31509 7.03477 4.83012 6.84978 4.14515 6.85978C3.46019 6.87478 2.63023 7.28976 2.08026 8.52469C1.81528 9.11466 1.74028 9.67463 1.69029 10.0996C1.69029 10.0996 1.07532 10.2196 0.750336 9.95462C0.425354 9.68963 0.250363 9.95462 0.250363 9.95462C0.250363 9.95462 -0.309606 10.6546 0.245364 10.8696C0.800334 11.0846 1.65029 11.1745 1.65029 11.1745C1.73028 11.5495 1.96027 12.1495 2.63023 12.6595C3.64018 13.4244 5.57008 12.5945 5.57008 12.5945L6.36503 12.1545C6.36503 12.1545 6.39003 12.8845 6.97 12.9895C7.54997 13.0944 7.78995 13.0394 8.7949 10.5946C9.38487 9.34465 9.42487 9.41464 9.42487 9.41464L9.48986 9.39965C9.48986 9.39965 9.03489 11.7395 9.20988 12.3845C9.38487 13.0244 10.1498 12.9545 10.1498 12.9545C10.1498 12.9545 10.5648 13.0744 10.8998 11.8945C11.2348 10.7146 11.8797 9.39965 11.8797 9.39965H11.9597C11.9597 9.39965 11.6797 11.8045 12.1097 12.5845C12.5397 13.3644 13.6546 12.8495 13.6546 12.8495C13.6546 12.8495 14.4346 12.4595 14.5546 12.3395C14.5546 12.3395 15.4795 13.1294 16.7845 12.9845C19.6993 12.4095 20.7393 11.6895 20.7393 11.6895C20.7393 11.6895 21.2392 12.9095 22.7941 13.0244C24.569 13.1594 25.534 12.0945 25.534 12.0945C25.534 12.0945 25.519 12.7695 26.139 13.0244C26.7589 13.2794 27.1739 11.8845 27.1739 11.8845L28.2089 9.02467H28.3038C28.3038 9.02467 28.3588 10.8896 29.3788 11.1845C30.3987 11.4795 31.7287 10.4996 31.7287 10.4996C31.7287 10.4996 32.0486 10.3246 31.9936 9.78462V9.78462ZM3.09521 10.0496C3.13521 8.4497 4.18515 7.75473 4.54513 8.09972C4.91011 8.4497 4.77512 9.19966 4.09016 9.66963C3.40519 10.1446 3.09521 10.0496 3.09521 10.0496V10.0496ZM16.7345 3.85995C16.7345 3.85995 17.6894 1.37508 17.9144 2.58501C18.1394 3.79495 15.9145 7.39475 15.9145 7.39475C15.9395 6.5848 16.7345 3.85995 16.7345 3.85995ZM17.8744 10.7796C17.2444 12.4295 15.7095 11.7595 15.7095 11.7595C15.7095 11.7595 15.5345 11.1695 16.0295 9.51464C16.5245 7.85973 17.6944 8.50469 17.6944 8.50469C17.6944 8.50469 18.5044 9.12466 17.8744 10.7796ZM22.1042 10.0496C22.1042 10.0496 21.9542 9.52464 22.5092 8.51969C23.0591 7.50975 23.4891 8.06472 23.4891 8.06472C23.4891 8.06472 23.9591 8.57469 23.4241 9.33965C22.8891 10.1046 22.1042 10.0496 22.1042 10.0496V10.0496Z" fill="#0165E1" /></svg>