<svg width="32" height="32" viewBox="0 0 32 32" fill="none" xmlns="http://www.w3.org/2000/svg">
 <path  d= "M18.5548 2.98065C17.8581 2.83871 17.129 2.76774 16.3935 2.74839V1.57419C21.4323 1.71613 25.8194 4.4129 28.3032 8.45161L27.2839 9.03871C26.8903 8.4129 26.4645 7.82581 25.9806 7.29032L24.8194 8.29032C23.1419 6.38064 20.8581 5.01935 18.2452 4.52258L18.5548 2.98065V2.98065ZM3.44516 20.2839L4.92903 19.7871C4.51613 18.6065 4.28387 17.3226 4.28387 16C4.28387 14.6774 4.49677 13.3935 4.90968 12.2129L3.44516 11.7161C3.67742 11.0194 3.98065 10.3419 4.32258 9.71613L3.30323 9.12903C2.19355 11.1613 1.55484 13.5161 1.55484 16C1.55484 18.4839 2.2 20.8387 3.30323 22.8774L4.32258 22.2903C3.98065 21.6452 3.69677 20.9806 3.44516 20.2839ZM13.7484 27.4839C11.1419 26.9677 8.85806 25.6065 7.17419 23.6968L6.0129 24.7161C5.52903 24.1613 5.08387 23.5742 4.70968 22.9484L3.67742 23.5548C6.16129 27.5742 10.5677 30.2839 15.6065 30.4323V29.2516C14.8774 29.2323 14.1419 29.1419 13.4452 29.0194L13.7484 27.4839V27.4839ZM6.01935 7.28387L7.18065 8.28387C8.85806 6.37419 11.1419 5.0129 13.7548 4.51613L13.4516 2.98065C14.1484 2.83871 14.8774 2.76774 15.6129 2.74839V1.57419C10.5742 1.71613 6.1871 4.4129 3.70323 8.45161L4.72258 9.03871C5.10968 8.4129 5.53548 7.81935 6.01935 7.28387V7.28387ZM25.9806 24.7161L24.8194 23.6968C23.1419 25.6065 20.8581 26.9677 18.2452 27.4839L18.5484 29.0194C17.8516 29.1419 17.1226 29.2323 16.3871 29.2516V30.4323C21.4258 30.2903 25.8323 27.5742 28.3161 23.5548L27.2774 22.9484C26.9097 23.5742 26.4645 24.1613 25.9806 24.7161V24.7161ZM32 16C32 24.8387 24.8387 32 16 32C7.16129 32 0 24.8387 0 16C0 7.16129 7.16129 0 16 0C24.8387 0 32 7.16129 32 16ZM31.2129 16C31.2129 7.60645 24.3935 0.787097 16 0.787097C7.60645 0.787097 0.787097 7.60645 0.787097 16C0.787097 24.3935 7.60645 31.2129 16 31.2129C24.3935 31.2129 31.2129 24.3935 31.2129 16ZM28.6968 9.12258L27.6774 9.70968C28.0194 10.3355 28.3226 11.0129 28.5548 11.7097L27.0903 12.2065C27.5032 13.3871 27.7161 14.671 27.7161 15.9935C27.7161 17.3161 27.4839 18.6 27.071 19.7806L28.5548 20.2774C28.3032 20.9742 28.0194 21.6323 27.6774 22.2774L28.6968 22.8645C29.8064 20.8387 30.4452 18.4839 30.4452 16C30.4452 13.5161 29.8064 11.1613 28.6968 9.12258V9.12258ZM16.8903 20.5871C17.9419 20.3742 18.8516 19.8387 19.5161 19.071L22.8194 21.9613C23.5871 21.0839 24.1935 20.071 24.5677 18.9419L20.4258 17.5161C20.5871 17.0323 20.6774 16.5355 20.6774 16C20.6774 15.4645 20.5871 14.9613 20.4258 14.4839L24.5871 13.0581C24.1935 11.9355 23.5871 10.9161 22.8194 10.0387L19.5161 12.929C18.8581 12.1613 17.9419 11.6065 16.8903 11.3935L17.7484 7.10968C17.1935 6.9871 16.6065 6.92903 16 6.92903C15.3935 6.92903 14.8065 6.98064 14.2516 7.10968L15.1097 11.3935C14.0581 11.6065 13.1484 12.1613 12.4839 12.929L9.18065 10.0387C8.4129 10.9161 7.80645 11.929 7.4129 13.0581L11.5742 14.4839C11.4129 14.9677 11.3226 15.4645 11.3226 16C11.3226 16.5355 11.4129 17.0387 11.5742 17.5161L7.43226 18.9419C7.80645 20.0645 8.4129 21.0839 9.18065 21.9613L12.4839 19.071C13.1419 19.8387 14.0581 20.3742 15.1097 20.5871L14.2516 24.8903C14.8065 25 15.3935 25.071 16 25.071C16.6065 25.071 17.1935 25 17.7484 24.8903L16.8903 20.5871V20.5871Z" fill="#0165E1" /></svg>