<svg width="32" height="32" viewBox="0 0 32 32" fill="none" xmlns="http://www.w3.org/2000/svg">
 <path  d= "M0 0C34.1143 0 26.1857 22.6643 26.2214 26.1643L32 32H30.1429L25.1143 26.9143C22.3286 27.2143 16.2286 29.3786 9.8 24.2714C3.35714 19.1643 3.71429 13.05 0 0ZM5.69286 3.28571C2.14286 1.60714 5.32143 3.94286 5.32143 3.94286C8.55 6.17143 10.0357 9.20714 11.7643 12.5071C14.0143 16.8071 17.4071 22.4857 22.0643 24.4857C26.7071 26.4857 24.5071 25.3786 22.4929 23.8786C20.4786 22.3643 17.6214 17.6643 15.9929 14.5786C13.7286 10.2929 11.6357 6.10714 5.69286 3.28571V3.28571Z" fill="#0165E1" /></svg>