<svg width="32" height="22" viewBox="0 0 32 22" fill="none" xmlns="http://www.w3.org/2000/svg">
 <path  d= "M1.085 10.5176C1.08 14.8576 2.535 18.4926 5.02 21.1226H0V0.872559H4.36C2.285 3.38256 1.08 6.68256 1.085 10.5176V10.5176ZM32 0.877559H27.82C29.39 3.01256 30.255 5.75256 30.13 9.01256C30.155 9.31256 30.155 9.59756 30.13 10.2176H11.51C11.5 15.7026 13.455 19.9626 18.44 19.9826C21.865 19.9676 24.34 17.4326 26.035 14.6776L30.855 17.0876C29.985 18.6326 29.03 19.9776 27.96 21.1276H32V0.877559V0.877559ZM27.96 21.1276C27.96 21.1276 27.96 21.1226 27.96 21.1276H27.95H27.96ZM27.805 0.877559H27.82L27.815 0.872559L27.805 0.877559V0.877559ZM16.27 1.35756C13.975 1.36256 12.015 3.03256 11.81 5.51756H20.305C20.25 3.03256 18.58 1.36256 16.27 1.35756V1.35756Z" fill="#0165E1" /></svg>