<svg width="28" height="32" viewBox="0 0 28 32" fill="none" xmlns="http://www.w3.org/2000/svg">
 <path  d= "M27.7143 22.5714C27.5893 23.3393 26.7321 30.4286 26.6071 32C18.1872 31.6929 10.9003 31.6612 0.285706 32V30.1786C3.53263 29.5394 4.61621 29.6058 4.64285 27.6607C4.77092 22.4949 4.89456 10.2219 4.64285 4.66071C4.56935 2.62786 3.77642 2.74893 0.285706 2.08929V0.267857C5.56328 0.436286 18.5666 0.878643 26.2142 0C25.9642 2.73214 25.6606 9.03571 25.6606 9.03571H24C23.2105 5.97607 22.6601 2.57143 20.0893 2.57143H10.3036C9.57142 2.57143 9.53571 2.82143 9.53571 3.26786V14.9643C13.6786 15 15.8571 14.7857 15.8571 14.7857C17.9836 14.7178 17.8257 14.1784 18.7678 10.1249H20.6071C20.2923 17.3643 20.3278 14.5413 20.4821 21.5714H18.6428C17.9889 18.7081 17.9953 17.211 15.8213 17.1785C15.8213 17.1785 14.2856 17.0356 9.53563 17.0356V26.9642C9.53563 28.8214 10.5535 29.6964 12.6963 29.6964H19.0714C23.6168 29.6964 23.826 27.9109 26.1251 22.5714H27.7143V22.5714Z" fill="#0165E1" /></svg>