<svg width="32" height="32" viewBox="0 0 32 32" fill="none" xmlns="http://www.w3.org/2000/svg">
 <path  d= "M16 2.28387C8.42581 2.28387 2.28387 8.42581 2.28387 16C2.28387 23.5742 8.42581 29.7161 16 29.7161C23.5742 29.7161 29.7161 23.5742 29.7161 16C29.7161 8.42581 23.5742 2.28387 16 2.28387ZM9.71613 10.8581C9.71613 7.39355 12.5355 4.57419 16 4.57419C19.4645 4.57419 22.2839 7.39355 22.2839 10.8581V12.5742C22.2839 12.8968 22.0323 13.1484 21.7097 13.1484H20.5677C20.2452 13.1484 19.9935 12.8968 19.9935 12.5742V10.8581C19.9935 5.56129 11.9935 5.56129 11.9935 10.8581V12.5742C11.9935 12.8968 11.7419 13.1484 11.4194 13.1484H10.2774C9.95484 13.1484 9.70323 12.8968 9.70323 12.5742V10.8581H9.71613ZM25.1419 24C25.1419 24.6258 24.6258 25.1419 24 25.1419H8C7.37419 25.1419 6.85806 24.6258 6.85806 24V14.8581C6.85806 14.2323 7.37419 13.7161 8 13.7161H24C24.6258 13.7161 25.1419 14.2323 25.1419 14.8581V24ZM9.14194 15.1419V23.7161C9.14194 23.8774 9.01935 24 8.85806 24H8.28387C8.12258 24 8 23.8774 8 23.7161V15.1419C8 14.9806 8.12258 14.8581 8.28387 14.8581H8.85806C9.01935 14.8581 9.14194 14.9806 9.14194 15.1419ZM18.2839 18.2839C18.2839 19.1226 17.8194 19.8581 17.1419 20.2452V22.2839C17.1419 22.6065 16.8903 22.8581 16.5677 22.8581H15.4258C15.1032 22.8581 14.8516 22.6065 14.8516 22.2839V20.2452C14.1742 19.8516 13.7097 19.1226 13.7097 18.2839C13.7097 17.0129 14.729 16 15.9935 16C17.2581 16 18.2839 17.0194 18.2839 18.2839V18.2839ZM16 0C7.16129 0 0 7.16129 0 16C0 24.8387 7.16129 32 16 32C24.8387 32 32 24.8387 32 16C32 7.16129 24.8387 0 16 0ZM16 30.8581C7.80645 30.8581 1.14194 24.1935 1.14194 16C1.14194 7.80645 7.80645 1.14194 16 1.14194C24.1935 1.14194 30.8581 7.80645 30.8581 16C30.8581 24.1935 24.1935 30.8581 16 30.8581Z" fill="#0165E1" /></svg>