<svg width="32" height="32" viewBox="0 0 32 32" fill="none" xmlns="http://www.w3.org/2000/svg">
 <path  d= "M31.3923 14.623C31.3471 14.3321 31.3018 14.164 31.3018 14.164C31.3018 14.164 31.1855 14.2933 30.998 14.5455C30.9398 13.8537 30.817 13.1749 30.623 12.5026C30.3839 11.6687 30.0736 10.8606 29.6857 10.0848C29.44 9.56768 29.1556 9.07636 28.8259 8.61091C28.7095 8.43636 28.5867 8.26182 28.4639 8.1002C27.895 7.16929 27.2356 6.59394 26.4792 5.51434C25.9879 4.68687 25.6453 3.77535 25.4837 2.82505C25.2768 3.4004 25.1152 3.98869 25.0053 4.5899C24.223 3.80121 23.5507 3.24525 23.137 2.86384C21.1329 0.976162 21.3657 2.46607e-08 21.3657 2.46607e-08C21.3657 2.46607e-08 17.5968 4.20848 19.2259 8.59152C19.7883 10.0784 20.7645 11.3778 22.0315 12.3345C23.6089 13.6404 25.3156 14.6618 26.2142 17.2865C25.4901 15.9095 24.3976 14.7523 23.0594 13.9572C23.4602 14.9075 23.6671 15.9354 23.6606 16.9632C23.6606 20.9067 20.4542 24.1067 16.5107 24.1002C15.9742 24.1002 15.4441 24.042 14.9269 23.9192C14.3127 23.8028 13.718 23.6024 13.1556 23.318C12.3216 22.8137 11.6041 22.1479 11.0352 21.3592L11.0222 21.3398L11.1515 21.3851C11.4489 21.4885 11.7463 21.5661 12.0566 21.6242C13.2655 21.8828 14.5325 21.7341 15.6509 21.1976C16.7822 20.5705 17.461 20.1051 18.017 20.2925H18.0299C18.5729 20.4671 18.9996 19.937 18.6117 19.3875C17.9394 18.5212 16.8404 18.0945 15.7544 18.2885C14.623 18.4501 13.5887 19.2582 12.1083 18.476C12.0113 18.4242 11.9208 18.3725 11.8303 18.3143C11.7269 18.2562 12.1471 18.3984 12.0501 18.3337C11.7269 18.1721 11.4166 17.9846 11.1192 17.7778C11.0998 17.7584 11.3455 17.8489 11.3196 17.8295C10.9382 17.5709 10.6085 17.2347 10.3499 16.8469C10.0849 16.3685 10.059 15.7867 10.2853 15.2889C10.421 15.0432 10.6344 14.8428 10.8865 14.7265C11.0804 14.8234 11.1968 14.8945 11.1968 14.8945C11.1968 14.8945 11.1127 14.7329 11.061 14.6489C11.0804 14.6424 11.0933 14.6489 11.1127 14.636C11.2808 14.7071 11.6493 14.8945 11.8497 15.0109C11.9855 15.082 12.0954 15.1855 12.1859 15.3147C12.1859 15.3147 12.2505 15.2824 12.2053 15.1402C12.1342 14.9657 12.0178 14.817 11.8562 14.7135H11.8691C12.0178 14.7911 12.16 14.8816 12.2958 14.9786C12.4186 14.6941 12.4768 14.3838 12.4639 14.0735C12.4768 13.9055 12.4509 13.7309 12.3927 13.5693C12.341 13.4659 12.4251 13.4271 12.5156 13.537C12.5026 13.4529 12.4703 13.3754 12.438 13.2978V13.2913C12.438 13.2913 12.4897 13.2202 12.5156 13.1943C12.5802 13.1297 12.6513 13.0715 12.7354 13.0198C13.2008 12.7289 13.6921 12.4768 14.2028 12.2699C14.6166 12.0889 14.9592 11.9531 15.0303 11.9079C15.1338 11.8432 15.2307 11.7657 15.3212 11.6816C15.6639 11.3907 15.903 10.9834 15.9806 10.5374C15.9871 10.4792 15.9936 10.421 16 10.3564V10.2594C15.9418 10.0331 15.554 9.86505 13.5176 9.67111C12.8 9.55475 12.2247 9.01818 12.063 8.30707V8.31354C12.0372 8.38465 12.0049 8.46222 11.979 8.5398C12.0049 8.46222 12.0307 8.39111 12.063 8.31354V8.30061C12.4509 7.28566 13.1491 6.41939 14.0542 5.82465C14.1059 5.77939 13.8473 5.83758 13.899 5.79232C14.0736 5.70828 14.2481 5.63071 14.4291 5.56606C14.5196 5.52727 14.0412 5.34626 13.6146 5.39152C13.356 5.40444 13.0974 5.46909 12.8582 5.57253C12.9616 5.48849 13.259 5.37212 13.1879 5.37212C12.6449 5.47556 12.1212 5.67596 11.6428 5.95394C11.6428 5.90222 11.6493 5.85697 11.6752 5.81172C11.2938 5.97333 10.9641 6.23192 10.7055 6.55515C10.7119 6.49697 10.7184 6.43879 10.7184 6.38061C10.5439 6.5099 10.3822 6.65859 10.2465 6.82667L10.24 6.83313C9.11517 6.4 7.89335 6.29657 6.71032 6.52929L6.69739 6.52283H6.71032C6.46466 6.32242 6.25133 6.0897 6.08325 5.81818L6.07032 5.82465L6.04446 5.81172C5.96688 5.69535 5.88931 5.56606 5.80527 5.42384C5.74709 5.3204 5.6889 5.20404 5.63072 5.08768C5.63072 5.08121 5.62426 5.07475 5.61779 5.07475C5.59193 5.07475 5.579 5.18465 5.55961 5.15879V5.15232C5.35274 4.61576 5.25577 4.0404 5.27517 3.45859L5.26224 3.46505C4.93254 3.69131 4.68042 4.02101 4.54466 4.40242C4.48648 4.53818 4.44123 4.61576 4.40244 4.69333V4.66101C4.4089 4.5899 4.44123 4.44768 4.43476 4.46061C4.4283 4.47354 4.42183 4.48 4.41537 4.48646C4.3184 4.59636 4.22789 4.72566 4.16325 4.86141C4.10507 4.98424 4.05335 5.11354 4.01456 5.24283C4.0081 5.26222 4.01456 5.22343 4.01456 5.17818C4.01456 5.13293 4.02102 5.04889 4.01456 5.06828L3.99517 5.11354C3.56204 6.07677 3.29052 7.10465 3.19355 8.15838C3.16769 8.33939 3.15476 8.5204 3.16123 8.69495V8.70788C2.85092 9.04404 2.57941 9.41899 2.34022 9.81333C1.55799 11.1321 0.976176 12.5608 0.607692 14.0541C0.866277 13.4853 1.17658 12.9422 1.53214 12.4315C0.840419 14.1834 0.484863 16.0517 0.484863 17.9394C0.601227 17.3834 0.756378 16.8404 0.937389 16.3038C0.82749 18.5341 1.25416 20.758 2.19153 22.7879C3.44567 25.6 5.52729 27.9596 8.1584 29.5564C9.23153 30.2804 10.4016 30.8428 11.6364 31.2242C11.798 31.2824 11.9661 31.3406 12.1342 31.3988C12.0824 31.3794 12.0307 31.3535 11.979 31.3341C13.44 31.7737 14.9657 32 16.4913 32C21.9022 32 23.6865 29.9378 23.8481 29.7374C24.1131 29.4982 24.3329 29.2073 24.4881 28.8776C24.5915 28.8323 24.695 28.7871 24.8049 28.7418L24.8695 28.7095L24.9923 28.6513C25.8069 28.2699 26.5762 27.7851 27.2744 27.2226C28.3281 26.4663 29.078 25.3673 29.4012 24.1131C29.5952 23.6541 29.6016 23.1434 29.4271 22.678C29.4853 22.5875 29.537 22.497 29.6016 22.4C30.7653 20.5317 31.4247 18.3984 31.5152 16.2004V16.0194C31.5152 15.5475 31.4764 15.082 31.3923 14.623V14.623Z" fill="#0165E1" /></svg>