<svg width="32" height="32" viewBox="0 0 32 32" fill="none" xmlns="http://www.w3.org/2000/svg">
 <path  d= "M16 0C7.16323 0 0 7.16323 0 16C0 24.8368 7.16323 32 16 32C24.8368 32 32 24.8368 32 16C32 7.16323 24.8368 0 16 0ZM16 31.4974C7.44129 31.4974 0.502581 24.5587 0.502581 16C0.502581 7.44129 7.44129 0.502581 16 0.502581C24.5587 0.502581 31.4974 7.44129 31.4974 16C31.4974 24.5587 24.5587 31.4974 16 31.4974ZM16 1.82516C8.17161 1.82516 1.82516 8.17161 1.82516 16C1.82516 23.8284 8.17161 30.1748 16 30.1748C23.8284 30.1748 30.1748 23.8284 30.1748 16C30.1748 8.17161 23.8284 1.82516 16 1.82516V1.82516ZM16 29.6458C8.46387 29.6458 2.35419 23.5368 2.35419 16C2.35419 8.46323 8.46387 2.35419 16 2.35419C23.5361 2.35419 29.6458 8.46387 29.6458 16C29.6458 23.5361 23.5361 29.6458 16 29.6458ZM28.0148 19.131C27.7286 20.2329 27.2916 21.29 26.7161 22.2723L21.9335 19.9574L25.9 23.4942C25.2134 24.4018 24.4059 25.2112 23.5 25.9L19.9645 21.9277L22.2794 26.7194C21.2989 27.2972 20.243 27.7365 19.1419 28.0245L17.3813 22.9619L17.6903 28.3123C17.1348 28.3884 16.5677 28.4284 15.9916 28.4284C15.4155 28.4284 14.8484 28.3884 14.2929 28.3123L14.6 22.9923L12.8484 28.0265C11.7471 27.7388 10.6908 27.3002 9.70968 26.7232L12.0277 21.9271L8.48774 25.9039C7.5816 25.2152 6.77371 24.406 6.08645 23.4987L10.06 19.9568L5.26903 22.2748C4.69334 21.2926 4.25609 20.2355 3.96968 19.1335L8.99161 17.3845L3.68645 17.6916C3.61161 17.1387 3.57161 16.5742 3.57161 16.0006C3.57161 15.42 3.61226 14.8497 3.68903 14.2903L9.00387 14.5981L3.97548 12.8458C4.26391 11.744 4.70311 10.6874 5.28064 9.70581L10.069 12.0232L6.1 8.48387C6.78872 7.57773 7.59791 6.76984 8.50516 6.08258L12.0381 10.0523L9.72645 5.2671C10.7079 4.69174 11.7641 4.25471 12.8652 3.96839L14.5987 8.95226L14.2948 3.6871C14.8503 3.61097 15.4168 3.57097 15.9929 3.57097C16.569 3.57097 17.1355 3.61097 17.691 3.6871L17.3852 8.98774L19.1303 3.97097C20.2445 4.26129 21.2981 4.70323 22.2677 5.27226L19.9568 10.0542L23.4871 6.08839C24.3939 6.77559 25.2022 7.58374 25.8897 8.49032L21.9252 12.0239L26.7071 9.71032C27.284 10.6915 27.7226 11.7478 28.0103 12.849L22.9903 14.5974L28.2961 14.291C28.3729 14.8497 28.4135 15.42 28.4135 16C28.4135 16.5729 28.3742 17.1374 28.2987 17.6897L23.0006 17.3832L28.0148 19.131V19.131Z" fill="#0165E1" /></svg>