<svg width="28" height="32" viewBox="0 0 28 32" fill="none" xmlns="http://www.w3.org/2000/svg">
 <path  d= "M0.806256 14.325C0.812506 14.3187 0.818756 14.3063 0.825006 14.3C0.825006 14.3063 0.825006 14.3187 0.818756 14.325H0.806256V14.325ZM14 6.0375C13.5563 6.0375 13.0875 6.075 12.6625 6.14375L12.8938 10.3562L11.5188 6.35625C10.625 6.5875 9.78751 6.94375 9.01876 7.39375L10.8563 11.2312L8.03751 8.05C7.32501 8.60625 6.68126 9.24375 6.12501 9.98125L9.28751 12.8188L5.46876 10.9625C5.02501 11.7312 4.66251 12.5687 4.43126 13.4625L8.45001 14.875L4.20001 14.625C4.14376 15.0687 4.11251 15.5375 4.11251 16C4.11251 16.4625 4.15001 16.9125 4.20001 17.3563L8.43126 17.1063L4.43126 18.5187C4.66251 19.4125 5.01876 20.25 5.46876 21.0375L9.28751 19.1812L6.10626 22C6.66251 22.7312 7.30001 23.3937 8.03751 23.9312L10.8438 20.75L9.00001 24.5875C9.76876 25.05 10.6063 25.4062 11.5 25.6437L12.8938 21.6063L12.6438 25.8563C13.0875 25.925 13.5563 25.9625 14 25.9625C14.4625 25.9625 14.9125 25.925 15.3563 25.8563L15.1063 21.5688L16.5188 25.6375C17.4125 25.3875 18.25 25.05 19.0188 24.5812L17.1813 20.75L19.9875 23.9312C20.7188 23.375 21.3625 22.7375 21.9 22L18.7375 19.1812L22.5563 21.0187C23 20.25 23.3625 19.4125 23.5938 18.5L19.5938 17.1063L23.8063 17.3563C23.875 16.9125 23.8938 16.4625 23.8938 16C23.8938 15.5375 23.875 15.0687 23.8063 14.625L19.575 14.875L23.575 13.4812C23.3438 12.5875 23.0063 11.7312 22.5375 10.9625L18.7313 12.8188L21.8938 9.98125C21.3375 9.25 20.7 8.60625 19.9813 8.05L17.1625 11.2312L19 7.4125C18.2313 6.95 17.3938 6.59375 16.5 6.35625L15.1063 10.375L15.3563 6.14375C14.9125 6.06875 14.4625 6.0375 14 6.0375ZM27.7125 8V24L14 32L0.287506 24V8L14 0L27.7125 8ZM26.6438 8.64375L14 1.30625L1.35626 8.64375V23.3375L14 30.6938L26.6438 23.3375V8.64375V8.64375ZM14 2.31875L25.7313 9.15625V22.8375L14 29.6812L2.26876 22.8375V9.1625L14 2.31875ZM14 5.5C8.23126 5.5 3.56876 10.1937 3.56876 16C3.56876 21.7875 8.23126 26.4813 14 26.4813C19.75 26.4813 24.4313 21.7875 24.4313 16C24.4313 10.1937 19.75 5.5 14 5.5V5.5Z" fill="#0165E1" /></svg>