<svg width="22" height="32" viewBox="0 0 22 32" fill="none" xmlns="http://www.w3.org/2000/svg">
 <path  d= "M11.3698 26.7375C12.1761 27.4688 13.476 28.8188 13.4448 29.9062C13.4448 29.9562 13.4385 30.0062 13.4385 30.0625C13.326 31.3 12.2636 32.0062 10.9948 32C9.43234 31.9937 8.5011 30.95 8.5761 29.7625C8.6386 28.75 9.85733 27.4688 10.6011 26.7875C10.7448 26.6563 10.7698 26.6188 10.9511 26.5625C11.1636 26.5625 11.1948 26.5813 11.3698 26.7375V26.7375ZM19.751 4.20658C18.7322 2.60035 17.3385 1.66911 15.7948 0.950369C14.201 0.281628 12.3823 -0.0121178 11.0073 0.000382066C8.2511 0.000382066 6.55738 0.825371 5.93863 1.08162C2.58868 2.82534 0.663705 5.45031 0.757454 9.91275C1.2012 15.0502 6.81987 20.9126 10.4948 24.5251C10.6011 24.6251 10.7761 24.8063 10.8823 24.8438L11.0886 24.8501C11.2198 24.8063 11.2011 24.8188 11.3073 24.7188C14.576 21.6438 20.1009 15.6064 21.0509 11.2377C21.4884 8.78777 21.2447 6.70654 19.751 4.20658V4.20658ZM10.6823 21.9938C8.93235 18.8001 6.60738 13.8252 6.35113 10.1815C6.13863 7.21279 7.06362 1.98161 10.6823 1.63786V21.9938ZM19.551 11.2502C18.526 14.8002 14.7198 19.2501 12.1198 21.8938C13.8573 18.6501 16.1947 13.5627 16.3197 9.90025C16.4197 7.03154 15.7073 3.28784 13.3198 1.68786C18.8697 2.83159 20.5384 7.81903 19.551 11.2502Z" fill="#0165E1" /></svg>