<svg width="32" height="6" viewBox="0 0 32 6" fill="none" xmlns="http://www.w3.org/2000/svg">
 <path  d= "M3.64409 0.947876H0.46012C0.207615 0.947876 0 1.15549 0 1.408V4.59277C0 4.84447 0.207615 5.05208 0.46012 5.05208H3.64489C3.89659 5.05208 4.10501 4.84447 4.10501 4.59196V1.408C4.10421 1.15549 3.89659 0.947876 3.64409 0.947876ZM3.17194 3.55228C3.17194 3.59076 3.13908 3.6076 3.1006 3.62363C2.94669 3.68856 2.78236 3.74948 2.60762 3.74948C2.28297 3.74948 2.05691 3.39036 1.2994 3.76952V4.18475C1.2994 4.42764 0.933066 4.42683 0.933066 4.18475V2.18074C0.860922 2.12463 0.812826 2.03725 0.812826 1.93786C0.812826 1.76952 0.9499 1.63164 1.11904 1.63164C1.28737 1.63164 1.42525 1.76872 1.42525 1.93786C1.42525 2.03565 1.37876 2.12383 1.30581 2.17994V2.34828C1.60321 2.25208 1.83086 2.07253 2.47695 2.32102C2.69018 2.41241 3.02766 2.19517 3.09018 2.19517C3.13427 2.19517 3.17275 2.22804 3.17275 2.26651V3.55228H3.17194ZM6.64208 2.15589H5.54389V2.71782H6.61323C6.93226 2.71782 6.93707 3.21641 6.61323 3.21641H5.54389V4.06291C5.54389 4.42764 4.97715 4.43485 4.97715 4.06291V1.97633C4.97715 1.79998 5.12144 1.65729 5.29619 1.65729H6.64128C6.95872 1.65729 6.96593 2.15589 6.64208 2.15589V2.15589ZM8.17395 2.34347C6.81683 2.34347 6.81844 4.36671 8.17395 4.36671C9.53587 4.36671 9.53587 2.34347 8.17395 2.34347ZM8.17395 3.91541C7.51984 3.91541 7.51583 2.79477 8.17395 2.79477C8.83527 2.79477 8.83447 3.91541 8.17395 3.91541ZM11.1591 4.34347C11.0188 4.34347 10.9074 4.23204 10.9074 4.09176V3.15389C10.9074 2.65369 10.3255 2.73305 10.113 3.02243V4.09176C10.113 4.42443 9.60561 4.42683 9.60561 4.09176V2.61521C9.60561 2.29457 10.1114 2.28174 10.1114 2.61521V2.64247C10.4585 2.22884 11.4132 2.1583 11.4132 2.9575V4.09176C11.4156 4.33545 11.1607 4.34347 11.1591 4.34347ZM12.5996 4.36671C12.2445 4.36671 12.0521 4.18315 12.0521 3.83926V2.83325H11.9279C11.6425 2.83325 11.6337 2.38996 11.9279 2.38996H12.0521V2.09096C12.0521 1.7599 12.5635 1.75349 12.5635 2.09096V2.39156H12.7631C13.0469 2.39156 13.0493 2.83485 12.7631 2.83485H12.5635V3.70459C12.5635 3.94186 12.7727 3.91541 12.7832 3.91541C13.0349 3.91541 13.2048 4.36671 12.5996 4.36671V4.36671ZM15.9679 1.93385C15.8116 1.53144 15.2024 1.53305 15.0501 1.93385C14.19 4.14387 14.2525 3.9595 14.2525 4.04046C14.2525 4.38355 14.7198 4.45088 14.8305 4.15589L14.9387 3.86812H16.0802L16.1844 4.15589C16.2982 4.4581 16.7623 4.37393 16.7623 4.04046C16.7623 3.9595 16.8048 4.09497 15.9679 1.93385ZM15.095 3.36952L15.5094 2.22403L15.9246 3.36952H15.095ZM19.8349 2.68335L19.4044 4.09657C19.305 4.42683 18.8273 4.42523 18.7311 4.09657L18.392 3.00719L18.0529 4.09657C17.9535 4.42443 17.4758 4.42683 17.3756 4.09657L16.9411 2.68335C16.8409 2.36752 17.3403 2.23365 17.4236 2.54788L17.7395 3.68936L18.1026 2.57112C18.19 2.309 18.5804 2.29297 18.6733 2.57112L19.0365 3.68936L19.3515 2.54788C19.4341 2.24086 19.9335 2.35709 19.8349 2.68335V2.68335ZM22.0425 3.28535C22.0425 2.94547 21.7707 2.34347 21.0846 2.34347C20.4978 2.34347 20.0874 2.79477 20.0874 3.35349C20.0874 3.97232 20.5307 4.36671 21.1174 4.36671C21.3715 4.36671 21.8629 4.27453 21.8629 4.04768C21.8629 3.90098 21.6938 3.79517 21.5479 3.86812C21.1519 4.07814 20.6741 3.93545 20.6188 3.51701H21.8076C21.9383 3.51701 22.0425 3.4096 22.0425 3.28535ZM20.6092 3.17393C20.6854 2.58555 21.5222 2.62403 21.5599 3.17393H20.6092ZM23.1479 4.36671C22.8962 4.36671 22.4938 4.28255 22.3735 4.111C22.2741 3.97473 22.3936 3.79196 22.5483 3.79196C22.679 3.79196 22.8433 3.97553 23.1711 3.97553C23.3908 3.97553 23.495 3.88735 23.495 3.76872C23.495 3.44968 22.3495 3.7094 22.3495 2.95108C22.3495 2.62723 22.6325 2.34427 23.1399 2.34427C23.3916 2.34427 23.7339 2.42363 23.8421 2.57994C23.9287 2.69858 23.8309 2.87012 23.6745 2.87012C23.5535 2.87012 23.4605 2.73144 23.1439 2.73144C22.9603 2.73144 22.8409 2.81561 22.8409 2.92222C22.8409 3.21 23.9824 2.97032 23.9824 3.74868C23.9816 4.09898 23.6826 4.36671 23.1479 4.36671ZM25.2866 2.34347C23.9295 2.34347 23.9311 4.36671 25.2866 4.36671C26.6501 4.36671 26.6461 2.34347 25.2866 2.34347ZM25.2866 3.91541C24.6309 3.91541 24.6293 2.79477 25.2866 2.79477C25.9479 2.79477 25.9471 3.91541 25.2866 3.91541ZM29.1094 4.09176V3.10178C29.1094 2.67052 28.6172 2.73465 28.4224 3.01762V4.09176C28.4224 4.42283 27.911 4.42924 27.911 4.09176V3.10178C27.911 2.68415 27.4341 2.72182 27.224 3.02082V4.09176C27.224 4.42443 26.7166 4.42683 26.7166 4.09176V2.61521C26.7166 2.29457 27.2224 2.28174 27.2224 2.61521V2.64247C27.3018 2.52703 27.5575 2.34347 27.8525 2.34347C28.1355 2.34347 28.315 2.47493 28.3872 2.69457C28.4986 2.51982 28.7543 2.34347 29.0493 2.34347C29.4044 2.34347 29.616 2.53104 29.616 2.92623V4.09096C29.62 4.22964 29.5078 4.34267 29.3603 4.34267C29.3884 4.34347 29.1094 4.35148 29.1094 4.09176V4.09176ZM32 3.28535C32 2.94547 31.7403 2.34347 31.0549 2.34347C30.4681 2.34347 30.0329 2.79477 30.0329 3.35349C30.0329 3.97232 30.5002 4.36671 31.0878 4.36671C31.3419 4.36671 31.8212 4.27453 31.8212 4.04768C31.8212 3.90098 31.6521 3.79517 31.5062 3.86812C31.1102 4.07814 30.6204 3.93545 30.5643 3.51701H31.7651C31.8958 3.51701 31.9984 3.4096 32 3.28535ZM30.5531 3.17393C30.6309 2.57754 31.4822 2.62643 31.5158 3.17393H30.5531Z" fill="#0165E1" /></svg>