<svg width="32" height="32" viewBox="0 0 32 32" fill="none" xmlns="http://www.w3.org/2000/svg">
 <path  d= "M28.4143 2.55714C28.9714 2.55714 29.4357 3.02857 29.4357 3.57857V28.4071C29.4357 28.9643 28.9643 29.4286 28.4143 29.4286H3.58571C3.02857 29.4286 2.56429 28.9571 2.56429 28.4071V3.58571C2.56429 3.02857 3.03571 2.56429 3.58571 2.56429H28.4143V2.55714ZM28.4143 0H3.58571C1.62143 0 0 1.62143 0 3.58571V28.4143C0 30.3786 1.62143 32 3.58571 32H28.4143C30.3786 32 32 30.3786 32 28.4143V3.58571C32 1.62143 30.3786 0 28.4143 0V0ZM24.2357 9.94286C23.8071 9.94286 22.1 11.05 20.4786 11.05C20.1786 11.05 19.8786 11.0071 19.5857 10.8786C18.1786 10.3214 16.9429 9.9 15.3643 9.9C13.9143 9.9 12.3786 10.3714 11.1 10.8786C10.9714 10.9214 10.8429 10.9643 10.7571 11.0071V9.72857C11.3143 9.3 11.65 8.66429 11.65 7.89286C11.65 6.61429 10.6286 5.58571 9.34286 5.58571C8.05714 5.58571 7.03571 6.60714 7.03571 7.89286C7.03571 8.62143 7.37857 9.3 7.92857 9.72857V24.8786C7.92857 25.65 8.57143 26.2857 9.33571 26.2857C9.97857 26.2857 10.4857 25.8571 10.6571 25.3071V25.2143C10.7 25.0857 10.7 25 10.7 24.8714V21.7143C10.7857 21.7143 10.8714 21.6714 10.9143 21.6286C12.3214 21.0286 13.9857 20.4357 15.6071 20.4357C17.8286 20.4357 18.6786 21.5857 20.5571 21.5857C21.8786 21.5857 23.1571 21.1143 24.2714 20.6071C24.5714 20.4786 24.7857 20.35 24.7857 20.05V10.45C24.9143 10.1571 24.6214 9.94286 24.2357 9.94286V9.94286Z" fill="#0165E1" /></svg>