<svg width="30" height="32" viewBox="0 0 30 32" fill="none" xmlns="http://www.w3.org/2000/svg">
 <path  d= "M9.25185 12.8148H16.0963L14.9704 16.6074H9.3111V28.2963C9.3111 28.8889 9.1037 28.9778 9.63703 29.037L14.0518 29.4519V32H0.777771V29.3926L2.94073 29.1852C3.47407 29.1259 3.62222 28.9481 3.62222 28.3852V16.8444C3.62222 16.6074 3.32592 16.6074 3.02962 16.6074H0.777771V12.8148H3.62222V10.6815C3.62222 5.64444 6.31851 3.57037 11.4741 3.57037C14.9407 3.57037 18.0518 4.4 18.0518 8.93333L12.8963 9.55556C12.9259 7.65926 12.4518 7.21481 11.237 7.21481C9.37036 7.21481 9.3111 8.22222 9.3111 10V12.3704C9.3111 12.6074 8.95555 12.8148 9.25185 12.8148V12.8148ZM29.2222 32H18.7926V29.4519L20.8667 29.1852C21.4 29.1259 21.637 29.0074 21.637 28.4444V17.4815C21.637 17.0667 21.3407 16.8 20.9555 16.6815L18.4963 16.0296L19.1778 13.037H27.3259V28.4444C27.3259 29.037 27.0593 29.0963 27.6222 29.1852L29.2222 29.4519V32ZM27 6.28148L27.9185 9.65926L27.1778 10.4L24.0074 8.71111L20.837 10.4L20.0963 9.65926L21.0148 6.28148L18.7926 3.58519L19.1481 2.84444H21.963L23.5333 0H24.4815L26.0518 2.84444H28.8667L29.2222 3.82222L27 6.28148Z" fill="#0165E1" /></svg>