<svg width="32" height="32" viewBox="0 0 32 32" fill="none" xmlns="http://www.w3.org/2000/svg">
 <path  d= "M0 0V32H32V0H0ZM11.9571 14H16.7714L15.9786 16.6643H12V24.7286C12 25.1429 11.8571 25.2071 12.2286 25.25L15.3357 25.5429V27.3357H6V25.5L7.52143 25.3571C7.89286 25.3143 8 25.1929 8 24.7929V16.8357C8 16.6714 7.79286 16.6714 7.58571 16.6714H6V14H8V12.5C8 8.95714 9.89286 7.5 13.5214 7.5C15.9571 7.5 18.1429 8.08571 18.1429 11.2714L14.5214 11.7071C14.5429 10.3714 14.2071 10.0643 13.3571 10.0643C12.0429 10.0643 12 10.7714 12 12.0214V13.6857C12 13.8571 11.75 14 11.9571 14V14ZM26 27.3357H18.6643V25.5429L20.1214 25.3571C20.4929 25.3143 20.6643 25.2357 20.6643 24.8357V17.1286C20.6643 16.8357 20.4571 16.65 20.1857 16.5643L18.4571 16.1071L18.9357 14H24.6643V24.8357C24.6643 25.25 24.4786 25.2929 24.8714 25.3571L25.9929 25.5429V27.3357H26ZM24.4357 9.08571L25.0786 11.4571L24.5571 11.9786L22.3286 10.7929L20.1 11.9786L19.5786 11.4571L20.2214 9.08571L18.6643 7.35714L18.9143 6.67143H20.8929L22 4.67143H22.6643L23.7714 6.67143H25.75L26 7.35714L24.4357 9.08571Z" fill="#0165E1" /></svg>