<svg width="28" height="32" viewBox="0 0 28 32" fill="none" xmlns="http://www.w3.org/2000/svg">
 <path  d= "M27.792 22.464C27.792 22.912 27.408 23.104 26.96 23.296C25.168 24.064 23.248 24.768 21.2 24.768C18.32 24.768 16.976 22.976 13.52 22.976C11.024 22.976 8.40001 23.872 6.28801 24.832C6.16001 24.896 6.03201 24.896 5.90401 24.96V29.824C5.90401 31.1618 4.89638 32 3.79201 32C2.57601 32 1.61601 31.04 1.61601 29.824V6.4C0.784008 5.76 0.208008 4.736 0.208008 3.584C0.208008 1.6 1.80801 0 3.79201 0C5.77601 0 7.37601 1.6 7.37601 3.584C7.37601 4.736 6.86401 5.76 5.96801 6.4V8.384C6.22576 8.29812 9.64101 6.592 13.136 6.592C17.2154 6.592 19.2408 8.32 21.072 8.32C23.504 8.32 26.192 6.592 26.832 6.592C27.344 6.592 27.792 6.976 27.792 7.424V22.464V22.464Z" fill="#0165E1" /></svg>