<svg width="32" height="32" viewBox="0 0 32 32" fill="none" xmlns="http://www.w3.org/2000/svg">
 <path  d= "M28.4143 0H3.58571C1.62143 0 0 1.62143 0 3.58571V28.4143C0 30.3786 1.62143 32 3.58571 32H28.4143C30.3786 32 32 30.3786 32 28.4143V3.58571C32 1.62143 30.3786 0 28.4143 0ZM25.1714 20.3071C25.1714 20.6071 24.9143 20.7357 24.6143 20.8643C23.4214 21.3786 22.1429 21.8429 20.7714 21.8429C18.85 21.8429 17.9571 20.65 15.65 20.65C13.9857 20.65 12.2357 21.25 10.8286 21.8857C10.7429 21.9286 10.6571 21.9286 10.5714 21.9714V25.2143C10.5714 25.3429 10.5714 25.4714 10.5286 25.5571V25.6429C10.3571 26.2429 9.8 26.6643 9.16429 26.6643C8.35714 26.6643 7.71429 26.0214 7.71429 25.2143V9.6C7.15714 9.17143 6.77857 8.49286 6.77857 7.72143C6.77857 6.4 7.84286 5.32857 9.17143 5.32857C10.4929 5.32857 11.5643 6.39286 11.5643 7.72143C11.5643 8.49286 11.2214 9.17143 10.6286 9.6V10.9214C10.7571 10.8786 10.8857 10.8357 11.0143 10.75C12.3357 10.1929 13.9143 9.72857 15.4071 9.72857C17.0286 9.72857 18.3071 10.1571 19.7571 10.7071C20.0571 10.8357 20.3571 10.8786 20.6929 10.8786C22.3143 10.8786 24.1071 9.72857 24.5357 9.72857C24.8786 9.72857 25.1786 9.98571 25.1786 10.2857V20.3071H25.1714Z" fill="#0165E1" /></svg>