<svg width="32" height="32" viewBox="0 0 32 32" fill="none" xmlns="http://www.w3.org/2000/svg">
 <path  d= "M13.1322 15.0387V18.3742C13.1322 18.5097 13.029 18.6129 12.8935 18.6129H11.4613C11.3258 18.6129 11.2225 18.5097 11.2225 18.3742V15.0387C11.2225 14.9032 11.3258 14.8 11.4613 14.8H12.8935C13.029 14.8 13.1322 14.9032 13.1322 15.0387V15.0387ZM20.5193 14.8H19.0871C18.9516 14.8 18.8484 14.9032 18.8484 15.0387V18.3742C18.8484 18.5097 18.9516 18.6129 19.0871 18.6129H20.5193C20.6548 18.6129 20.758 18.5097 20.758 18.3742V15.0387C20.7516 14.9032 20.6484 14.8 20.5193 14.8V14.8ZM18.6419 31.7806C18.5838 31.7871 18.5322 31.8 18.4742 31.8065C18.4096 31.8194 18.3387 31.8258 18.2742 31.8387C18.2161 31.8452 18.158 31.8581 18.0935 31.8645C18.029 31.871 17.9645 31.8839 17.9 31.8903C17.8355 31.8968 17.7709 31.9032 17.7129 31.9097C17.6484 31.9161 17.5903 31.9226 17.5258 31.929C17.4613 31.9355 17.3903 31.9419 17.3258 31.9484C17.2677 31.9548 17.2096 31.9613 17.1516 31.9613C17.0806 31.9677 17.0032 31.9677 16.9322 31.9742C16.8806 31.9742 16.8225 31.9806 16.7709 31.9806C16.6871 31.9871 16.6032 31.9871 16.5193 31.9871C16.4742 31.9871 16.429 31.9935 16.3838 31.9935C16.2548 31.9935 16.1258 32 15.9967 32C15.8677 32 15.7387 32 15.6096 31.9935C15.5645 31.9935 15.5193 31.9935 15.4742 31.9871C15.3903 31.9871 15.3064 31.9806 15.2225 31.9806C15.1709 31.9806 15.1129 31.9742 15.0613 31.9742C14.9903 31.9677 14.9129 31.9677 14.8419 31.9613C14.7838 31.9548 14.7258 31.9548 14.6677 31.9484C14.6032 31.9419 14.5322 31.9355 14.4677 31.929C14.4032 31.9226 14.3451 31.9161 14.2806 31.9097C14.2161 31.9032 14.1516 31.8968 14.0935 31.8903C14.029 31.8839 13.9645 31.8774 13.9 31.8645C13.8419 31.8581 13.7838 31.8452 13.7193 31.8387C13.6548 31.8323 13.5838 31.8194 13.5193 31.8065C13.4613 31.8 13.4096 31.7871 13.3516 31.7806C9.11932 31.0774 5.44835 28.7032 3.029 25.3677C3.0161 25.3548 3.00964 25.3355 2.99674 25.3226C2.94513 25.2516 2.89351 25.1806 2.84835 25.1097C2.829 25.0839 2.80964 25.0581 2.79674 25.0323C2.75158 24.9613 2.70642 24.8968 2.66126 24.8258C2.6419 24.7935 2.62255 24.7677 2.60319 24.7355C2.55803 24.6645 2.51287 24.6 2.47416 24.529C2.4548 24.4968 2.43545 24.471 2.4161 24.4387C2.37093 24.3677 2.33222 24.2968 2.28706 24.2258C2.27416 24.2 2.2548 24.1742 2.2419 24.1484C2.08706 23.8903 1.94513 23.6258 1.80319 23.3613C1.79674 23.3484 1.79029 23.3419 1.78384 23.329C1.74513 23.2581 1.71287 23.1871 1.67416 23.1161C1.6548 23.0774 1.63545 23.0452 1.62255 23.0065C1.59029 22.9419 1.55803 22.871 1.52577 22.8065C1.50642 22.7613 1.48706 22.7226 1.46771 22.6774C1.43545 22.6129 1.40964 22.5484 1.37739 22.4839L1.31932 22.3484C1.29351 22.2839 1.26126 22.2194 1.23545 22.1548C1.2161 22.1097 1.19674 22.0581 1.17739 22.0129L1.09997 21.8194C1.08061 21.7677 1.06126 21.7226 1.0419 21.671C1.0161 21.6065 0.990289 21.5419 0.970934 21.4774C0.951579 21.4194 0.932224 21.3613 0.906418 21.2968C0.867708 21.1935 0.83545 21.0839 0.79674 20.9806C0.777385 20.9226 0.758031 20.8645 0.738676 20.8C0.719321 20.7419 0.706418 20.6839 0.687063 20.6258C0.667708 20.5677 0.648353 20.5032 0.63545 20.4452C0.616095 20.3871 0.603192 20.329 0.583837 20.271C0.564482 20.2065 0.551579 20.1484 0.532224 20.0839C0.519321 20.0258 0.499966 19.9677 0.487063 19.9097C0.467708 19.8452 0.454805 19.7806 0.441902 19.7161C0.428998 19.6581 0.416095 19.6065 0.403192 19.5484C0.390289 19.4774 0.370934 19.4065 0.358031 19.3419C0.345127 19.2903 0.338676 19.2387 0.325773 19.1871C0.306418 19.1032 0.293514 19.0129 0.27416 18.929C0.267708 18.8903 0.261256 18.8581 0.254805 18.8194L0.19674 18.4516C0.190289 18.4129 0.183837 18.3677 0.177385 18.329C0.164482 18.2452 0.151579 18.1613 0.145127 18.0774C0.138676 18.0258 0.132224 17.9806 0.125773 17.929C0.119321 17.8516 0.106418 17.7742 0.0999661 17.6968C0.0935145 17.6452 0.0870629 17.5935 0.0870629 17.5419C0.0806113 17.4645 0.0741597 17.3871 0.0677081 17.3161C0.0612564 17.2645 0.0612565 17.2129 0.0548048 17.1613C0.0483532 17.0839 0.0419016 17.0065 0.0419016 16.9226C0.0419016 16.871 0.03545 16.8258 0.03545 16.7742C0.0289984 16.6903 0.0289984 16.6 0.0225468 16.5161C0.0225468 16.471 0.0225468 16.4323 0.0160951 16.3871C0.0160951 16.2581 0.00964357 16.129 0.00964357 16C0.00964357 12.5484 1.09997 9.35484 2.96448 6.73548C3.11287 6.52903 3.26771 6.32258 3.42255 6.12258C3.73868 5.72258 4.07416 5.32903 4.429 4.96129C4.60319 4.77419 4.78384 4.59355 4.97093 4.41935C5.15803 4.24516 5.34513 4.07097 5.53868 3.90323C5.829 3.65161 6.12577 3.4129 6.43545 3.18065C6.53868 3.10323 6.6419 3.02581 6.74513 2.95484C8.50642 1.69032 10.5516 0.780645 12.7645 0.322581C13.8032 0.109677 14.8871 0 15.9903 0C17.0935 0 18.1709 0.109677 19.2161 0.322581C21.429 0.774194 23.4742 1.68387 25.2548 2.94839C25.358 3.02581 25.4613 3.09677 25.5645 3.17419C25.8742 3.40645 26.1709 3.64516 26.4613 3.89677C27.2354 4.56774 27.9451 5.30968 28.5774 6.11613C28.7387 6.31613 28.8871 6.52258 29.0355 6.72903C30.9 9.35484 31.9903 12.5484 31.9903 16C31.9903 16.129 31.9903 16.2581 31.9838 16.3871C31.9838 16.4323 31.9838 16.471 31.9774 16.5161C31.9774 16.6 31.9709 16.6903 31.9645 16.7742C31.9645 16.8258 31.958 16.871 31.958 16.9226C31.9516 17 31.9516 17.0774 31.9451 16.9677C31.9387 17.0194 31.9387 17.071 31.9322 17.1226C31.9258 17.2 31.9193 17.2774 31.9129 17.3484C31.9064 17.4 31.9 17.4516 31.9 17.5032C31.8935 17.5806 31.8806 17.6581 31.8742 17.7355C31.8677 17.7871 31.8613 17.8323 31.8548 17.8839C31.8419 17.9677 31.829 18.0516 31.8225 18.1355C31.8161 18.1742 31.8096 18.2194 31.8032 18.2581L31.7451 18.6258C31.7387 18.6645 31.7322 18.6968 31.7258 18.7355C31.7129 18.8194 31.6935 18.9097 31.6742 18.9935C31.6613 19.0452 31.6548 19.0968 31.6419 19.1484C31.629 19.2194 31.6096 19.2903 31.5967 19.3548C31.5838 19.4129 31.5709 19.4645 31.558 19.5226C31.5451 19.5871 31.5258 19.6516 31.5129 19.7161C31.5 19.7742 31.4806 19.8323 31.4677 19.8903C31.4484 19.9548 31.4355 20.0129 31.4161 20.0774C31.4032 20.1355 31.3838 20.1935 31.3645 20.2516C31.3451 20.3097 31.3258 20.3742 31.3129 20.4323C31.2935 20.4903 31.2806 20.5484 31.2613 20.6065C31.2419 20.6645 31.2225 20.7226 31.2032 20.7871C31.1709 20.8903 31.1322 21 31.0935 21.1032C31.0742 21.1613 31.0548 21.2194 31.029 21.2839C31.0032 21.3484 30.9838 21.4129 30.958 21.4774C30.9387 21.529 30.9193 21.5742 30.9 21.6258L30.8225 21.8194C30.8032 21.8645 30.7838 21.9161 30.7645 21.9613C30.7387 22.0258 30.7129 22.0903 30.6806 22.1548L30.6225 22.2903C30.5967 22.3548 30.5645 22.4194 30.5322 22.4839C30.5129 22.529 30.4935 22.5677 30.4742 22.6129C30.4419 22.6774 30.4096 22.7484 30.3774 22.8129C30.358 22.8516 30.3387 22.8839 30.3258 22.9226C30.2871 22.9935 30.2548 23.0645 30.2161 23.1355C30.2096 23.1484 30.2032 23.1548 30.1967 23.1677C30.0548 23.4323 29.9129 23.6968 29.758 23.9548C29.7451 23.9806 29.7258 24.0065 29.7129 24.0323C29.6677 24.1032 29.629 24.1742 29.5838 24.2452C29.5645 24.2774 29.5451 24.3032 29.5258 24.3355C29.4806 24.4065 29.4354 24.471 29.3967 24.5419C29.3774 24.5742 29.358 24.6 29.3387 24.6323C29.2935 24.7032 29.2484 24.7677 29.2032 24.8387C29.1838 24.8645 29.1645 24.8903 29.1516 24.9161C29.1 24.9871 29.0548 25.0581 29.0032 25.129C28.9903 25.1419 28.9838 25.1613 28.9709 25.1742C26.5451 28.7032 22.8742 31.071 18.6419 31.7806V31.7806ZM26.2096 26.2194C27.0484 25.3806 27.7709 24.4516 28.3774 23.4516V18.8516C28.3774 18.7161 28.2742 18.6129 28.1387 18.6129H26.7064C26.5709 18.6129 26.4677 18.7161 26.4677 18.8516V20.5161H24.5645V11.2258C24.5645 11.0903 24.4613 10.9871 24.3258 10.9871H22.9C22.7645 10.9871 22.6613 11.0903 22.6613 11.2258V12.8968H20.758V11.2258C20.758 11.0903 20.6548 10.9871 20.5193 10.9871H19.0871C18.9516 10.9871 18.8484 11.0903 18.8484 11.2258V12.8968H16.9451V11.2258C16.9451 10.9161 16.5258 10.9871 16.3322 10.9871V9.00645C16.7645 8.90323 17.2225 8.82581 17.6742 8.82581C18.2419 8.82581 18.758 9.05161 19.3129 9.05161C19.5516 9.05161 20.758 8.99355 20.758 8.63226V5.50968C20.758 5.37419 20.6548 5.27097 20.5193 5.27097C20.2484 5.27097 19.7322 5.49677 19.2677 5.49677C18.758 5.49677 18.1774 5.27097 17.5709 5.27097C17.1516 5.27097 16.7387 5.32903 16.3322 5.41935V5.16774C16.6161 5.03226 16.8096 4.73548 16.8096 4.42581C16.8096 3.34194 15.1709 3.34194 15.1709 4.42581C15.1709 4.73548 15.3645 5.03871 15.6484 5.16774V10.9871C15.4548 10.9871 15.0354 10.9161 15.0354 11.2258V12.8968H13.1322V11.2258C13.1322 11.0903 13.029 10.9871 12.8935 10.9871H11.4613C11.3258 10.9871 11.2225 11.0903 11.2225 11.2258V12.8968H9.31932V11.2258C9.31932 11.0903 9.21609 10.9871 9.08061 10.9871H7.6548C7.51932 10.9871 7.41609 11.0903 7.41609 11.2258V20.5161H5.50642V18.8516C5.50642 18.7161 5.40319 18.6129 5.26771 18.6129H3.8419C3.70642 18.6129 3.60319 18.7161 3.60319 18.8516V23.4516C4.20964 24.4516 4.93222 25.3806 5.77093 26.2194C7.09997 27.5484 8.6419 28.5871 10.3645 29.3161C11.2613 29.6968 12.1838 29.9806 13.1322 30.1677V25.2774C13.1322 21.4968 18.8484 21.4968 18.8484 25.2774V30.1677C19.7967 29.9806 20.7193 29.6903 21.6161 29.3161C23.3387 28.5871 24.8806 27.5484 26.2096 26.2194" fill="#0165E1" /></svg>