<svg width="30" height="32" viewBox="0 0 30 32" fill="none" xmlns="http://www.w3.org/2000/svg">
 <path  d= "M29.5791 17.9927H27.8664C27.7039 17.9927 27.5789 18.1177 27.5789 18.2802V20.2804H25.2912V9.13583C25.2912 8.97331 25.1662 8.84831 25.0037 8.84831H23.2911C23.1286 8.84831 23.0036 8.97331 23.0036 9.13583V11.136H20.7159V9.13583C20.7159 8.97331 20.5909 8.84831 20.4284 8.84831H18.7158C18.5533 8.84831 18.4282 8.97331 18.4282 9.13583V11.136H16.1406V9.13583C16.1406 8.7608 15.6405 8.84831 15.4093 8.84831V6.47313C15.9281 6.34812 16.4781 6.26062 17.0156 6.26062C17.6969 6.26062 18.322 6.52939 18.9783 6.52939C19.2658 6.52939 20.7097 6.46063 20.7097 6.02935V2.27907C20.7097 2.11656 20.5847 1.99155 20.4221 1.99155C20.1034 1.99155 19.4783 2.26032 18.922 2.26032C18.3157 2.26032 17.6157 1.99155 16.8844 1.99155C16.3843 1.99155 15.8843 2.06031 15.403 2.17282V1.86654C15.7405 1.70403 15.9718 1.34776 15.9718 0.972729C15.9718 -0.321116 14.0092 -0.327366 14.0092 0.972729C14.0092 1.34776 14.2404 1.70403 14.578 1.86654V8.84831C14.3467 8.84831 13.8467 8.7608 13.8467 9.13583V11.136H11.559V9.13583C11.559 8.97331 11.434 8.84831 11.2715 8.84831H9.55884C9.39633 8.84831 9.27132 8.97331 9.27132 9.13583V11.136H7.00241V9.13583C7.00241 8.97331 6.8774 8.84831 6.71489 8.84831H5.00226C4.83975 8.84831 4.71474 8.97331 4.71474 9.13583V20.2804H2.42707V18.2802C2.42707 18.1177 2.30206 17.9927 2.13955 17.9927H0.426925C0.264413 17.9927 0.139404 18.1177 0.139404 18.2802V32H11.5715V25.9996C11.5715 21.4617 18.4282 21.4617 18.4282 25.9996V32H29.8603V18.2802C29.8666 18.1177 29.7416 17.9927 29.5791 17.9927V17.9927ZM11.5715 17.7115C11.5715 17.874 11.4465 17.999 11.284 17.999H9.57135C9.40883 17.999 9.28382 17.874 9.28382 17.7115V13.7112C9.28382 13.5486 9.40883 13.4236 9.57135 13.4236H11.284C11.4465 13.4236 11.5715 13.5486 11.5715 13.7112V17.7115ZM20.7222 17.7115C20.7222 17.874 20.5972 17.999 20.4346 17.999H18.722C18.5595 17.999 18.4345 17.874 18.4345 17.7115V13.7112C18.4345 13.5486 18.5595 13.4236 18.722 13.4236H20.4346C20.5972 13.4236 20.7222 13.5486 20.7222 13.7112V17.7115Z" fill="#0165E1" /></svg>