<svg width="32" height="32" viewBox="0 0 32 32" fill="none" xmlns="http://www.w3.org/2000/svg">
 <path  d= "M0.414286 19.6214C0.142857 18.4071 0 17.1786 0 15.95C0 7.14286 7.12857 0 15.9357 0C17.1214 0 18.3143 0.142857 19.4571 0.392857C10.6429 3.75 3.70714 10.7857 0.414286 19.6214ZM28.4786 6.10714C27.5 4.85714 26.3571 3.77143 25.0643 2.87143C14.3786 6.03571 6.04286 14.45 2.94286 25.1571C3.83571 26.45 4.94286 27.7 6.17143 28.6571C9.25 17.85 17.6857 9.25 28.4786 6.10714ZM29.6071 24.1571C30.6929 22.3643 31.4214 20.3214 31.7143 18.2429C26.0429 21.3071 21.3571 26.1429 18.3143 31.8357C20.4571 31.5214 22.5214 30.7429 24.3571 29.6C26.8571 30.5357 29.4214 31.3357 32 32C31.3357 29.3929 30.5429 26.6786 29.6071 24.1571ZM31.7286 13.7643C31.5429 12.3714 31.1643 11 30.6 9.70714C20.75 12.9786 13 20.8929 9.79286 30.7857C11.0857 31.3286 12.4357 31.6786 13.8357 31.8714C17.1429 23.7214 23.6071 17.1 31.7286 13.7643Z" fill="#0165E1" /></svg>