<svg width="24" height="32" viewBox="0 0 24 32" fill="none" xmlns="http://www.w3.org/2000/svg">
 <path  d= "M20.6939 0H3.61728C1.2733 0 0.49823 1.76892 0.49823 2.88153V29.9966C0.49823 31.2655 1.25455 31.7281 1.63584 31.8781C2.02338 32.0343 3.06098 32.1656 3.69229 31.4343C11.7493 22.0959 11.8868 21.9396 11.8868 21.9396C12.0806 21.7271 12.0994 21.7458 12.3119 21.7458H17.5249C19.7188 21.7458 20.0626 20.1707 20.2939 19.2644L23.3317 4.07539C23.863 1.42514 23.1942 0 20.6939 0ZM19.6751 4.61295L18.9625 8.34456C18.8875 8.75084 18.3687 9.16964 17.9062 9.16964H11.2555C10.5054 9.16964 9.96789 9.68844 9.96789 10.4385V11.2511C9.96789 12.0012 10.5054 12.5387 11.2555 12.5387H16.9061C17.4249 12.5387 17.9437 13.1138 17.8312 13.6763C17.7186 14.2326 17.1748 17.0391 17.1186 17.3517C17.0623 17.658 16.6935 18.1955 16.0622 18.1955H11.468C10.6242 18.1955 10.3929 18.308 9.81163 18.9831C9.81163 18.9831 9.25533 19.6957 4.21734 25.7525C4.16108 25.8087 4.10483 25.79 4.10483 25.7337V4.55669C4.10483 4.07539 4.52987 3.51909 5.14243 3.51909H18.8312C19.3438 3.51909 19.8063 4.00039 19.6751 4.61295V4.61295Z" fill="#0165E1" /></svg>