<svg width="32" height="22" viewBox="0 0 32 22" fill="none" xmlns="http://www.w3.org/2000/svg">
 <path  d= "M3.50348 4.45597C1.16021 8.37096 1.42311 13.7719 3.56064 17.4297C4.82943 19.613 6.40114 20.4245 6.40114 21.2304C6.40114 21.619 6.05822 21.9734 5.66958 21.9734C4.5551 21.9734 0 17.6583 0 10.6685C0 4.29594 4.45794 0.0380418 5.54956 0.0380418C5.89248 0.0380418 6.40114 0.312377 6.40114 0.672441C6.40114 1.39828 4.78371 2.30702 3.50348 4.45597ZM14.6941 16.6753C14.9512 16.7782 15.397 16.9725 15.397 16.6067C15.397 16.4524 15.2713 16.441 15.1513 16.401C14.6655 16.2066 14.3511 15.9609 14.0597 15.5322C13.591 14.8407 13.4824 14.1491 13.4824 13.3261C13.4824 11.4915 16.0086 11.16 16.0086 9.32541C16.0086 8.62243 15.5685 8.41668 15.5685 8.22236C15.5685 8.09662 15.6085 8.09662 15.7342 8.09662C16.1915 8.09662 16.8259 8.85676 17.0202 9.22825C17.1459 9.49116 17.1573 9.57117 17.1573 9.86265C17.1573 10.2627 17.1173 10.6742 17.1173 11.08C17.1173 12.6231 18.9405 12.2116 18.9405 11.4687C18.9405 11.1257 18.7348 10.8057 18.7348 10.4742C18.7348 10.4342 18.7348 10.4056 18.7748 10.4056C18.9691 10.4056 19.312 10.8457 19.4092 10.9829C19.7407 11.4915 19.895 12.1716 19.895 12.7775C19.895 14.6292 18.209 15.578 18.209 15.978C18.209 16.0352 18.3747 16.4181 18.9005 16.0866C20.598 15.2236 21.9353 13.3661 21.9353 10.9543C21.9353 9.03393 21.4381 7.65654 20.1007 6.23343C19.8778 5.99911 19.1634 5.26755 18.8148 5.26755C18.3461 5.26755 19.2263 6.33059 19.2263 7.05072C19.2263 7.46222 18.952 7.7537 18.5233 7.7537C17.8603 7.7537 17.6946 6.30202 17.6146 5.85051C17.2831 3.91873 16.883 2.5242 14.9627 1.61547C14.3683 1.3297 12.8766 0.94106 12.8766 1.48973C12.8766 1.6269 13.0309 1.72406 13.1395 1.78121C13.6653 2.10127 14.2597 3.00429 14.2597 3.96446C14.2597 6.59921 10.962 9.00536 10.962 11.7487C10.9505 14.052 12.568 15.898 14.6941 16.6753V16.6753ZM26.4276 0.0266113C26.0847 0.0266113 25.6046 0.398106 25.6046 0.74674C25.6046 1.24397 26.2961 1.86694 26.6105 2.19843C31.2742 7.06215 31.1027 14.4463 27.6164 18.83C27.2163 19.3386 25.5989 20.8475 25.5989 21.3161C25.5989 21.6076 26.0675 21.9677 26.3533 21.9677C27.805 21.9677 32 17.3497 32 11.3543C32.0057 4.53599 27.6506 0.0266113 26.4276 0.0266113ZM24.01 18.4928H9.08734C8.5501 18.4928 8.20146 18.9214 8.20146 19.4301C8.20146 19.9159 8.60153 20.3159 9.08734 20.3159H24.01C24.5472 20.3159 24.6901 19.8873 24.6901 19.3786C24.6901 18.8928 24.4901 18.4928 24.01 18.4928V18.4928Z" fill="#0165E1" /></svg>