<svg width="32" height="32" viewBox="0 0 32 32" fill="none" xmlns="http://www.w3.org/2000/svg">
 <path  d= "M21.692 4.58381C22.4849 3.79094 29.9421 -0.916224 31.635 0.783785C33.3278 2.47665 28.6278 9.93384 27.8349 10.7267C27.0421 11.5196 25.0206 10.791 23.3278 9.09097C21.6278 7.39811 20.892 5.37667 21.692 4.58381V4.58381ZM7.84911 2.57665C5.25624 1.10522 1.57051 -0.530508 0.399073 0.64807C-0.786648 1.83379 0.906219 5.60524 2.39194 8.19811C3.71338 5.8981 5.59196 3.96237 7.84911 2.57665V2.57665ZM29.0492 10.141C29.2849 10.9481 29.2421 11.6196 28.8564 12.0053C27.4064 13.4553 22.6063 10.0767 21.0492 6.99811C19.7635 4.69095 20.2563 3.1838 22.1135 3.51951C22.5206 3.26237 22.9921 2.97665 23.5135 2.69094C21.3849 1.58379 18.9706 0.955215 16.4063 0.955215C7.89911 0.955215 1.00622 7.84811 1.00622 16.3553C1.00622 24.8553 7.89911 31.7554 16.4063 31.7554C24.9135 31.7554 31.8064 24.8625 31.8064 16.3553C31.8064 13.6124 31.085 11.0338 29.8278 8.79812C29.5492 9.29812 29.2849 9.74812 29.0492 10.141V10.141Z" fill="#0165E1" /></svg>