<svg width="32" height="28" viewBox="0 0 32 28" fill="none" xmlns="http://www.w3.org/2000/svg">
 <path  d= "M15.6163 0.155029V1.7844C14.7675 3.07315 14.125 8.57128 14.0869 15.2438C14.8206 14.2675 15.2825 13.1607 15.2825 12.2288V11.1738C15.2806 10.8413 15.3294 10.5157 15.4194 10.1957C15.46 10.0619 15.5063 9.94065 15.5831 9.8319C15.66 9.72253 15.7975 9.59503 16.0006 9.59503C16.2031 9.59503 16.3413 9.72315 16.4181 9.8319C16.495 9.94128 16.5412 10.0619 16.5819 10.1957C16.6719 10.5157 16.7206 10.8413 16.7188 11.1738V12.2288C16.7188 13.1607 17.1806 14.2675 17.9144 15.2438C17.875 8.57128 17.2325 3.07315 16.3838 1.7844V0.155029H15.6163V0.155029ZM13.97 9.39065C13.375 9.52503 12.8012 9.71503 12.2537 9.95815C12.81 10.9657 12.8638 11.9982 12.3606 12.2888C11.8606 12.5775 10.995 12.0244 10.4006 11.05C9.67688 11.5994 9.03313 12.2575 8.49063 12.9932C9.41125 13.5944 9.92125 14.4257 9.63562 14.9094C9.35187 15.3907 8.38375 15.3557 7.41875 14.8494C7.0575 15.6775 6.80938 16.5688 6.69063 17.5007C7.29563 17.5119 7.8575 17.6494 8.32687 17.8782C9.43812 17.8594 10.375 17.7557 10.8575 17.6144C11.2044 15.9675 12.2962 14.6 13.7525 13.895C13.7981 12.2982 13.87 10.7907 13.97 9.39065V9.39065ZM18.03 9.39065C18.1294 10.7907 18.2019 12.2982 18.2469 13.895C19.7025 14.6 20.795 15.9675 21.1419 17.6144C21.6244 17.7557 22.5613 17.8594 23.6725 17.8782C24.1419 17.6494 24.7038 17.5125 25.3088 17.5007C25.19 16.5688 24.9425 15.6775 24.5806 14.8494C23.6156 15.3557 22.6475 15.3907 22.3638 14.9094C22.0781 14.4257 22.5888 13.5938 23.5088 12.9932C22.9663 12.2575 22.3225 11.5994 21.5987 11.05C21.0044 12.0244 20.1388 12.5775 19.6388 12.2888C19.1356 11.9982 19.1894 10.9663 19.7456 9.95815C19.1937 9.71326 18.6191 9.52318 18.03 9.39065V9.39065ZM16 9.92815C15.7981 9.92815 15.6338 10.4788 15.6194 11.1738H15.6163V12.2288C15.6163 14.8175 12.5531 18.1688 9.77312 18.1688C6.52312 18.1688 2.10125 18.0782 0 19.9919V20.1488C0.58875 21.2188 1.28625 22.2219 2.07375 23.1469C2.85625 21.8288 5.29812 20.5875 8.825 20.5625C11.68 20.6263 13.7644 21.8332 14.4975 23.1169C14.4981 23.1175 14.4969 23.1194 14.4975 23.12C14.9769 23.2538 15.4881 23.3219 16 23.3207C16.5119 23.3219 17.0231 23.2538 17.5025 23.12C17.5031 23.1194 17.5019 23.1175 17.5025 23.1169C18.2363 21.8332 20.32 20.6263 23.175 20.5625C26.7019 20.5869 29.1431 21.8288 29.9263 23.1469C30.7138 22.2219 31.4112 21.2182 32 20.1488V19.9919C29.8994 18.0782 25.4769 18.1688 22.2269 18.1688C19.4469 18.1688 16.3838 14.8175 16.3838 12.2288V11.1738H16.3806C16.3662 10.4788 16.2019 9.92815 16 9.92815V9.92815ZM16 15.965C17.4013 15.965 18.5375 17.1013 18.5375 18.5025C18.5375 19.9038 17.4013 21.0432 16 21.0432C14.5987 21.0432 13.4625 19.9038 13.4625 18.5025C13.4625 17.1013 14.5987 15.965 16 15.965ZM16 16.4425C14.8631 16.4425 13.94 17.3657 13.94 18.5025C13.94 19.6394 14.8631 20.5625 16 20.5625C17.1369 20.5625 18.06 19.6394 18.06 18.5025C18.06 17.3657 17.1369 16.4425 16 16.4425V16.4425ZM16 16.8263C16.9256 16.8263 17.6763 17.5769 17.6763 18.5025C17.6763 19.4282 16.9256 20.1788 16 20.1788C15.0744 20.1788 14.3237 19.4282 14.3237 18.5025C14.3237 17.5769 15.0744 16.8263 16 16.8263ZM8.825 20.9932C8.18812 20.9975 7.475 21.0157 6.91875 21.0969C6.94562 21.3732 7.01312 22.2613 7.36312 22.9569C7.9325 22.7969 8.51062 22.7132 9.08937 22.7132C11.6694 22.7719 13.5569 24.86 13.9806 27.3675L13.9875 27.6613C14.6375 27.7807 15.3119 27.845 16.0006 27.845C16.69 27.845 17.3638 27.7813 18.0138 27.6613L18.0206 27.3675C18.4444 24.86 20.3319 22.7719 22.9119 22.7132C23.4906 22.7132 24.0687 22.7969 24.6381 22.9569C24.9881 22.2613 25.0556 21.3732 25.0825 21.0969C24.5263 21.0157 23.8125 20.9982 23.1763 20.9932C22.0038 21.0194 20.9769 21.2538 20.1381 21.5975C19.3544 22.5994 18.3156 23.4744 17.0394 23.6644C17.0338 23.6657 17.0287 23.6669 17.0225 23.6675C17.0194 23.6682 17.0156 23.67 17.0125 23.6707C16.685 23.7375 16.3481 23.7707 16.0006 23.7707C15.6538 23.7707 15.3163 23.7375 14.9888 23.6707C14.9856 23.67 14.9819 23.6682 14.9788 23.6675C14.9725 23.6663 14.9681 23.665 14.9619 23.6644C13.6856 23.475 12.6475 22.5994 11.8631 21.5975C11.0244 21.2544 9.99687 21.0194 8.825 20.9932V20.9932Z" fill="#0165E1" /></svg>