<svg width="32" height="32" viewBox="0 0 32 32" fill="none" xmlns="http://www.w3.org/2000/svg">
 <path  d= "M16 32C7.17742 32 0 24.8226 0 16C0 7.17742 7.17742 0 16 0C24.8226 0 32 7.17742 32 16C32 24.8226 24.8226 32 16 32ZM16 1.06645C7.76581 1.06645 1.06645 7.76581 1.06645 16C1.06645 24.2342 7.76581 30.9335 16 30.9335C24.2342 30.9335 30.9335 24.2342 30.9335 16C30.9335 7.76581 24.2342 1.06645 16 1.06645V1.06645ZM17.7819 2.47355V4.06194C19.7351 4.34973 21.5871 5.11516 23.1735 6.29032L24.2955 5.17032C22.4406 3.7471 20.2116 2.79032 17.7819 2.47355ZM14.2097 2.47806C11.7813 2.79677 9.55419 3.75548 7.70129 5.17806L8.81613 6.29806H8.82129C10.3742 5.1471 12.2116 4.35871 14.2097 4.06129V2.47806V2.47806ZM15 5.71484V11.0613C14.3523 11.1923 13.7471 11.4445 13.2148 11.7981L9.4329 8.01806L8.01806 9.4329L11.8032 13.2181C11.4503 13.749 11.1935 14.3529 11.0632 15H5.71484V17H11.0632C11.1935 17.6465 11.451 18.2458 11.8032 18.7768L8.01806 22.5632L9.4329 23.9781L13.2148 20.1961C13.7564 20.556 14.3627 20.8073 15 20.9361V26.2845H17V20.9361C17.6484 20.8052 18.2497 20.5452 18.7819 20.191L22.5671 23.9774L23.9819 22.5626L20.1968 18.7761C20.549 18.2452 20.8077 17.6458 20.9387 16.9994H26.2852V14.9994H20.9387C20.8084 14.3529 20.5497 13.749 20.1968 13.2174L23.9819 9.43226L22.5671 8.01742L18.7819 11.8026C18.2497 11.4484 17.6484 11.1916 17 11.0606V5.71484H15V5.71484ZM26.8219 7.69677L25.7019 8.81677C26.8801 10.4048 27.6484 12.2589 27.9387 14.2148H29.5271C29.2077 11.7832 28.2477 9.55097 26.8219 7.69677ZM5.17355 7.70516C3.75032 9.55806 2.79226 11.7865 2.47355 14.2155H4.06387C4.36065 12.2181 5.14516 10.38 6.29548 8.8271L5.17355 7.70516V7.70516ZM2.47355 17.7852C2.79097 20.2135 3.74774 22.4419 5.17032 24.2948L6.29032 23.1729C5.14129 21.62 4.36 19.7813 4.06387 17.7845H2.47355V17.7852ZM27.9381 17.7852C27.6406 19.7845 26.8542 21.6239 25.7013 23.1787L26.8213 24.2987C28.2458 22.4445 29.2071 20.2155 29.5265 17.7852H27.9381ZM8.81677 25.7019L7.69677 26.8219C9.55032 28.2471 11.7806 29.2077 14.2103 29.5271V27.9374C12.211 27.6387 10.3697 26.8542 8.81677 25.7019V25.7019ZM23.1735 25.7052C21.6194 26.8561 19.7813 27.6458 17.7819 27.9419V29.5271C20.2123 29.2097 22.4406 28.2503 24.2955 26.8271L23.1787 25.7052H23.1735Z" fill="#0165E1" /></svg>