<svg width="32" height="30" viewBox="0 0 32 30" fill="none" xmlns="http://www.w3.org/2000/svg">
 <path  d= "M29.1143 0.714355H2.9C1.32143 0.714355 0 2.03578 0 3.61436V13.2715C0 22.1786 7.12143 29.2858 16.0143 29.2858C24.8714 29.2858 32 22.1786 32 13.2715V3.61436C32 2.01436 30.7357 0.714355 29.1143 0.714355V0.714355ZM17.5429 19.8929C16.6571 20.7358 15.3 20.6858 14.5143 19.8929C6.39286 12.1144 6.30714 12.3858 6.30714 11.0929C6.30714 9.88578 7.29286 8.90007 8.5 8.90007C9.71429 8.90007 9.65 9.1715 16.0143 15.2786C22.4857 9.0715 22.3429 8.90007 23.55 8.90007C24.7571 8.90007 25.7429 9.88578 25.7429 11.0929C25.7429 12.3644 25.5357 12.2144 17.5429 19.8929V19.8929Z" fill="#0165E1" /></svg>