<svg width="32" height="32" viewBox="0 0 32 32" fill="none" xmlns="http://www.w3.org/2000/svg">
 <path  d= "M16 0C7.16129 0 0 7.16129 0 16C0 24.8387 7.16129 32 16 32C24.8387 32 32 24.8387 32 16C32 7.16129 24.8387 0 16 0ZM12.8065 24.1806L4.69677 16.071L12.8065 7.96129L15.0774 10.2452L13.5161 11.8065L12.8 11.0903L7.81935 16.071L12.8 21.0516L14.5161 19.3355L11.0903 15.9226L12.6645 14.3484L17.6452 19.329L12.8065 24.1806V24.1806ZM19.1935 24.0387L16.9226 21.7677L18.4774 20.1935L19.1935 20.9097L24.1742 15.929L19.1935 10.9484L17.4839 12.6581L20.9097 16.071L19.3355 17.6452L14.3548 12.6645L19.1935 7.82581L27.3032 15.9355L19.1935 24.0387Z" fill="#0165E1" /></svg>