<svg width="32" height="32" viewBox="0 0 32 32" fill="none" xmlns="http://www.w3.org/2000/svg">
 <path  d= "M10.0071 22.6071C10.8714 22.6071 12.1143 22.7571 12.1143 23.8857C12.1143 24.9929 11.1214 25.2286 10.1857 25.2286C9.30714 25.2286 7.97857 25.0857 7.97857 23.9429C7.97857 22.8 9.1 22.6071 10.0071 22.6071ZM8.24286 14.2786C8.24286 15.3357 8.71429 16 9.83571 16C10.9429 16 11.35 15.2857 11.35 14.25C11.3571 11.7929 8.24286 11.7643 8.24286 14.2786V14.2786ZM32 3.42857V28.5714C32 30.4643 30.4643 32 28.5714 32H3.42857C1.53571 32 0 30.4643 0 28.5714V3.42857C0 1.53571 1.53571 0 3.42857 0H28.5714C30.4643 0 32 1.53571 32 3.42857ZM14.7857 10.1214C13.9071 10.4643 12.9643 10.7214 12.0071 10.7214C9.25714 9.14286 5.52857 10.7857 5.52857 14.2571C5.52857 15.5429 6.35714 17.3214 7.64286 17.75V17.8C6.68571 18.2214 6.42143 20.3786 7.69286 21.1571V21.2071C6.3 21.6643 5.38571 22.55 5.38571 24.0786C5.38571 26.7071 7.87143 27.4357 10.0571 27.4357C12.7071 27.4357 14.6857 26.4786 14.6857 23.5571C14.6857 19.9571 9.53571 21.2857 9.53571 19.3357C9.53571 18.65 9.90714 18.3786 10.5429 18.25C12.6571 17.8571 13.9857 16.2071 13.9857 14.0571C13.9857 13.6857 13.9071 13.3286 13.7786 12.9857C14.1214 12.9071 14.4571 12.8214 14.7857 12.7071V10.1214V10.1214ZM18.8429 10.25H16.0143C16.1071 11.0071 16.0929 20.4357 16.0143 21.3571H18.8429C18.7643 20.4429 18.7571 10.9929 18.8429 10.25ZM19.1643 6.44286C19.1643 5.48571 18.45 4.57143 17.4429 4.57143C16.4214 4.57143 15.6857 5.46429 15.6857 6.44286C15.6857 7.41429 16.4357 8.29286 17.4429 8.29286C18.4214 8.29286 19.1643 7.4 19.1643 6.44286V6.44286ZM26.6143 10.25H24.0143C24.0143 9.55 23.9857 8.85 24.0929 8.14286H21.2C21.2929 8.66429 21.2786 9.11429 21.2786 10.25H20.0571V12.6714C20.9071 12.5357 20.9214 12.6214 21.2786 12.6214V12.6714H21.25V17.15C21.25 19.3714 21.5714 21.5214 24.3 21.5214C25.0643 21.5214 25.9429 21.3929 26.6214 21.0214V18.5214C26.2143 18.8 25.6286 18.9429 25.1286 18.9429C24.1857 18.9429 24.0214 18.0214 24.0214 17.2714V12.6143C25.6429 12.6143 26.6214 12.6643 26.6214 12.6643V10.25H26.6143Z" fill="#0165E1" /></svg>