<svg width="30" height="32" viewBox="0 0 30 32" fill="none" xmlns="http://www.w3.org/2000/svg">
 <path  d= "M0.342853 13.55C0.342853 15.3571 1.5 17.8357 3.30714 18.4429V18.5143C1.96428 19.1071 1.59285 22.1286 3.37857 23.2143V23.2857C1.42857 23.9286 0.142853 25.1643 0.142853 27.3C0.142853 30.9786 3.62857 32 6.67857 32C10.3929 32 13.1571 30.6643 13.1571 26.5714C13.1571 21.5357 5.94285 23.3929 5.94285 20.6571C5.94285 19.6929 6.45714 19.3214 7.35 19.1357C10.3143 18.5857 12.1714 16.2786 12.1714 13.2643C12.1714 12.7429 12.0643 12.25 11.8857 11.7643C12.3643 11.6571 12.8286 11.5286 13.2929 11.3714V7.76429C12.0643 8.25 10.7429 8.60714 9.4 8.60714C5.55714 6.39286 0.342853 8.7 0.342853 13.55V13.55ZM6.60714 25.25C7.82142 25.25 9.54999 25.4643 9.54999 27.0357C9.54999 28.5929 8.15714 28.9143 6.85714 28.9143C5.62142 28.9143 3.76428 28.7214 3.76428 27.1143C3.77142 25.5214 5.34285 25.25 6.60714 25.25V25.25ZM6.37857 16C4.80714 16 4.14285 15.0714 4.14285 13.5857C4.14285 10.0643 8.5 10.1 8.5 13.55C8.5 15 7.92857 16 6.37857 16ZM29.8571 19.5357V23.0357C28.9071 23.5571 27.6786 23.7357 26.6071 23.7357C22.7857 23.7357 22.3357 20.7214 22.3357 17.6143V11.35H22.3714V11.2786C21.8714 11.2786 21.85 11.1643 20.6571 11.35V7.95714H22.3714C22.3714 6.36429 22.3929 5.74286 22.2643 5.01429H26.3143C26.1714 6 26.2071 6.97857 26.2071 7.95714H29.85V11.35C29.85 11.35 28.4714 11.2786 26.2071 11.2786V17.7857C26.2071 18.8429 26.4429 20.1286 27.7643 20.1286C28.4643 20.1286 29.2857 19.9286 29.8571 19.5357ZM19.4286 2.62143C19.4286 3.95714 18.3929 5.20714 17.0143 5.20714C15.6 5.20714 14.55 3.97857 14.55 2.62143C14.55 1.24286 15.5857 0 17.0143 0C18.4286 0 19.4286 1.28571 19.4286 2.62143ZM18.9857 7.94286C18.8571 8.98571 18.8714 22.2143 18.9857 23.5H15.0214C15.1357 22.2071 15.15 9 15.0214 7.94286H18.9857Z" fill="#0165E1" /></svg>