<svg width="32" height="32" viewBox="0 0 32 32" fill="none" xmlns="http://www.w3.org/2000/svg">
 <path  d= "M10.7032 25.5224C10.7032 25.6514 10.5548 25.7546 10.3677 25.7546C10.1548 25.774 10.0065 25.6707 10.0065 25.5224C10.0065 25.3933 10.1548 25.2901 10.3419 25.2901C10.5355 25.2707 10.7032 25.374 10.7032 25.5224ZM8.69677 25.232C8.65161 25.3611 8.78065 25.5095 8.97419 25.5482C9.14194 25.6127 9.33548 25.5482 9.37419 25.4191C9.4129 25.2901 9.29032 25.1417 9.09677 25.0837C8.92903 25.0385 8.74194 25.103 8.69677 25.232ZM11.5484 25.1224C11.3613 25.1675 11.2323 25.2901 11.2516 25.4385C11.271 25.5675 11.4387 25.6514 11.6323 25.6062C11.8194 25.5611 11.9484 25.4385 11.929 25.3095C11.9097 25.1869 11.7355 25.103 11.5484 25.1224ZM15.7935 0.39978C6.84516 0.39978 0 7.19333 0 16.1417C0 23.2966 4.50323 29.4191 10.9355 31.574C11.7613 31.7224 12.0516 31.2127 12.0516 30.7933C12.0516 30.3933 12.0323 28.1869 12.0323 26.832C12.0323 26.832 7.51613 27.7998 6.56774 24.9095C6.56774 24.9095 5.83226 23.032 4.77419 22.5482C4.77419 22.5482 3.29677 21.5353 4.87742 21.5546C4.87742 21.5546 6.48387 21.6837 7.36774 23.2191C8.78064 25.7095 11.1484 24.9933 12.071 24.5675C12.2194 23.5353 12.6387 22.8191 13.1032 22.3933C9.49677 21.9933 5.85806 21.4707 5.85806 15.2643C5.85806 13.4901 6.34839 12.5998 7.38065 11.4643C7.2129 11.0449 6.66452 9.31591 7.54839 7.08365C8.89677 6.6643 12 8.82559 12 8.82559C13.2903 8.4643 14.6774 8.2772 16.0516 8.2772C17.4258 8.2772 18.8129 8.4643 20.1032 8.82559C20.1032 8.82559 23.2065 6.65784 24.5548 7.08365C25.4387 9.32236 24.8903 11.0449 24.7226 11.4643C25.7548 12.6062 26.3871 13.4966 26.3871 15.2643C26.3871 21.4901 22.5871 21.9869 18.9806 22.3933C19.5742 22.903 20.0774 23.8707 20.0774 25.3869C20.0774 27.5611 20.0581 30.2514 20.0581 30.7804C20.0581 31.1998 20.3548 31.7095 21.1742 31.5611C27.6258 29.4191 32 23.2966 32 16.1417C32 7.19333 24.7419 0.39978 15.7935 0.39978ZM6.27097 22.6514C6.1871 22.7159 6.20645 22.8643 6.31613 22.9869C6.41935 23.0901 6.56774 23.1353 6.65161 23.0514C6.73548 22.9869 6.71613 22.8385 6.60645 22.7159C6.50323 22.6127 6.35484 22.5675 6.27097 22.6514ZM5.57419 22.1288C5.52903 22.2127 5.59355 22.3159 5.72258 22.3804C5.82581 22.4449 5.95484 22.4256 6 22.3353C6.04516 22.2514 5.98064 22.1482 5.85161 22.0837C5.72258 22.0449 5.61935 22.0643 5.57419 22.1288ZM7.66452 24.4256C7.56129 24.5095 7.6 24.703 7.74839 24.8256C7.89677 24.974 8.08387 24.9933 8.16774 24.8901C8.25161 24.8062 8.2129 24.6127 8.08387 24.4901C7.94194 24.3417 7.74839 24.3224 7.66452 24.4256ZM6.92903 23.4772C6.82581 23.5417 6.82581 23.7095 6.92903 23.8578C7.03226 24.0062 7.20645 24.0707 7.29032 24.0062C7.39355 23.9224 7.39355 23.7546 7.29032 23.6062C7.2 23.4578 7.03226 23.3933 6.92903 23.4772Z" fill="#0165E1" /></svg>