<svg width="32" height="26" viewBox="0 0 32 26" fill="none" xmlns="http://www.w3.org/2000/svg">
 <path  d= "M12.4067 17.8463C12.4067 19.2396 11.68 21.5196 9.96 21.5196C8.24 21.5196 7.51333 19.2396 7.51333 17.8463C7.51333 16.4529 8.24 14.1729 9.96 14.1729C11.68 14.1729 12.4067 16.4529 12.4067 17.8463V17.8463ZM32 14.4796C32 16.6063 31.7867 18.8596 30.8333 20.8129C28.3067 25.9196 21.36 25.7996 16.3867 25.7996C11.3333 25.7996 3.97333 25.9796 1.34667 20.8129C0.373333 18.8796 0 16.6063 0 14.4796C0 11.6863 0.926667 9.04625 2.76667 6.90625C2.42 5.85292 2.25333 4.74625 2.25333 3.65292C2.25333 2.21959 2.58 1.49959 3.22667 0.199585C6.24667 0.199585 8.18 0.799585 10.48 2.59959C12.4133 2.13959 14.4 1.93292 16.3933 1.93292C18.1933 1.93292 20.0067 2.12625 21.7533 2.54625C24.02 0.766251 25.9533 0.199585 28.94 0.199585C29.5933 1.49959 29.9133 2.21959 29.9133 3.65292C29.9133 4.74625 29.74 5.83292 29.4 6.86625C31.2333 9.02625 32 11.6863 32 14.4796V14.4796ZM27.7133 17.8463C27.7133 14.9196 25.9333 12.3396 22.8133 12.3396C21.5533 12.3396 20.3467 12.5663 19.08 12.7396C18.0867 12.8929 17.0933 12.9529 16.0733 12.9529C15.06 12.9529 14.0667 12.8929 13.0667 12.7396C11.82 12.5663 10.6 12.3396 9.33333 12.3396C6.21333 12.3396 4.43333 14.9196 4.43333 17.8463C4.43333 23.6996 9.79333 24.5996 14.46 24.5996H17.6733C22.36 24.5996 27.7133 23.7063 27.7133 17.8463V17.8463ZM22.2067 14.1729C20.4867 14.1729 19.76 16.4529 19.76 17.8463C19.76 19.2396 20.4867 21.5196 22.2067 21.5196C23.9267 21.5196 24.6533 19.2396 24.6533 17.8463C24.6533 16.4529 23.9267 14.1729 22.2067 14.1729Z" fill="#0165E1" /></svg>