<svg width="32" height="28" viewBox="0 0 32 28" fill="none" xmlns="http://www.w3.org/2000/svg">
 <path  d= "M30.9833 6.34021C30.8556 6.00132 30.4667 5.8291 30.1333 5.97355C29.8167 6.10688 29.6611 6.46799 29.7833 6.78466C30.3889 8.39577 30.7222 10.1458 30.7222 11.968C30.7222 19.4458 25.15 25.618 17.9333 26.5624V19.6902C18.3722 19.6069 18.7944 19.4902 19.2111 19.3458V25.1235C25.1389 23.6847 29.5389 18.3402 29.5389 11.968C29.5389 6.86799 26.7167 2.42355 22.55 0.11799C22.2333 -0.0597875 21.8278 0.0679903 21.6667 0.395768C21.5167 0.701324 21.6333 1.07355 21.9278 1.23466C25.7 3.32355 28.2556 7.34577 28.2556 11.968C28.2556 17.1513 25.0389 21.5847 20.4889 23.3791V18.2569C21.2778 18.0069 21.8722 17.2735 21.8722 16.3958C21.8722 15.668 21.4944 15.0402 20.9111 14.7013C21.3722 10.2847 23.3833 11.4458 23.3833 10.0402V9.22355C23.3833 7.11243 18.5 0.234657 16.2167 0.0735459C16.0778 0.0624348 15.9389 0.0624348 15.7944 0.0735459C13.5056 0.240213 8.62222 7.11243 8.62222 9.22355V10.0458C8.62222 11.4513 10.6389 10.2847 11.0944 14.7069C10.5056 15.0458 10.1333 15.6735 10.1333 16.4013C10.1333 17.2791 10.7222 18.0124 11.5111 18.2624V23.3847C6.96111 21.5958 3.74444 17.1624 3.74444 11.9735C3.74444 7.35688 6.3 3.33466 10.0722 1.24021C10.3722 1.07355 10.4833 0.706879 10.3333 0.401324C10.1722 0.0735459 9.77222 -0.0542319 9.45 0.123546C5.28333 2.4291 2.46111 6.87355 2.46111 11.9735C2.46111 18.3458 6.86111 23.6847 12.7889 25.1291V19.3513C13.2111 19.4902 13.6278 19.6069 14.0667 19.6958V26.568C6.85556 25.6235 1.27778 19.4513 1.27778 11.9735C1.27778 10.1513 1.61111 8.40132 2.21667 6.79021C2.33889 6.46799 2.18333 6.11243 1.86667 5.9791C1.53333 5.83466 1.14444 6.00132 1.01667 6.34577C0.361111 8.09577 0 9.99021 0 11.9735C0 20.5902 6.81111 27.618 15.35 27.9624V19.8569C15.7278 19.8791 16.1833 19.8847 16.65 19.8569V27.9569C25.1889 27.618 32 20.5902 32 11.9735C32 9.99021 31.6389 8.09577 30.9833 6.34021ZM19.8833 15.0847C20.6056 15.0847 21.2 15.668 21.2 16.4013C21.2 17.1291 20.6111 17.718 19.8833 17.718C19.1611 17.718 18.5667 17.1347 18.5667 16.4013C18.5667 15.6735 19.1556 15.0847 19.8833 15.0847ZM12.1167 17.7124C11.3833 17.7124 10.8 17.118 10.8 16.3958C10.8 15.6735 11.3833 15.0791 12.1167 15.0791C12.8444 15.0791 13.4333 15.668 13.4333 16.3958C13.4333 17.118 12.85 17.7124 12.1167 17.7124Z" fill="#0165E1" /></svg>