<svg width="32" height="30" viewBox="0 0 32 30" fill="none" xmlns="http://www.w3.org/2000/svg">
 <path  d= "M1.8614 11.4832L16 29.8571L0.50465 18.3562C0.0761503 18.0348 -0.10235 17.4814 0.0583378 16.9816L1.8614 11.4832V11.4832ZM6.57421 0.557853C6.37783 0.00447861 5.5924 0.00447861 5.39602 0.557853L1.8614 11.4832H10.109L6.57421 0.557853V0.557853ZM10.109 11.4832L16 29.8571L21.8911 11.4832H10.109V11.4832ZM31.9417 16.9816L30.1386 11.4832L16 29.8571L31.4954 18.3562C31.9238 18.0348 32.1023 17.4814 31.9417 16.9816ZM26.6039 0.557853C26.4076 0.00447861 25.6221 0.00447861 25.4258 0.557853L21.8911 11.4832H30.1386L26.6039 0.557853V0.557853Z" fill="#0165E1" /></svg>