<svg width="32" height="32" viewBox="0 0 32 32" fill="none" xmlns="http://www.w3.org/2000/svg">
 <path  d= "M18.0571 8.32857C18.0571 8.95714 17.9429 9.59286 17.8143 10.2143C17.4 12.2 16.9857 14.2 16.5786 16.1857C16.4786 16.6357 15.9857 16.5357 15.6 16.5357C13.9 16.5357 13.4214 14.6786 13.4214 13.2857C13.4214 11.1929 14.2214 8.42143 16.1714 7.35C16.4786 7.17143 16.8286 7.05 17.1786 7.05C17.9929 7.05 18.0571 7.64286 18.0571 8.32857V8.32857ZM32 3.42857V28.5714C32 30.4643 30.4643 32 28.5714 32H3.42857C1.53571 32 0 30.4643 0 28.5714V3.42857C0 1.53571 1.53571 0 3.42857 0H28.5714C30.4643 0 32 1.53571 32 3.42857ZM27.4286 16.7857C27.4286 16.4214 25.9429 14.0929 25.6071 13.9643C25.45 13.9 25.0929 13.8 24.9214 13.8C23.2714 13.8 22.1571 14.55 20.7643 15.3357L20.7286 15.3C21.0357 13.2 21.7714 11.2143 21.7714 9.05714C21.7714 5.87143 20.0714 4.57857 16.95 4.57857C11.8286 4.57857 9.23571 9.63572 9.23571 13.4C9.23571 17.3071 11.5214 19.4714 15.4 19.4714C15.9357 19.4714 15.8929 19.4286 15.8929 19.6357C15.1429 25.3714 11.8571 25.5571 11.8571 23.8429C11.8571 22.1 13.8571 21.2357 13.8786 21.1286C13.8643 20.5857 11.7857 19.9 11.2571 19.9C9.75 19.9 8.92143 22.2571 8.92143 23.5143C8.92143 25.8214 10.3786 27.4214 12.7286 27.4214C16.1714 27.4214 18.6857 23.8714 19.4643 20.8714C20.1357 18.1786 19.9643 18.0571 20.3429 17.8643C21.7714 17.1429 22.9 16.6643 24.5143 16.6643C25.3071 16.6643 25.8714 16.8286 27.1357 17.0357C27.2643 17.0429 27.4286 16.9143 27.4286 16.7857V16.7857Z" fill="#0165E1" /></svg>