<svg width="26" height="32" viewBox="0 0 26 32" fill="none" xmlns="http://www.w3.org/2000/svg">
 <path  d= "M23.4438 13.2C23.225 13.1125 22.7188 12.9625 22.4813 12.9625C20.1625 12.9625 18.5938 14.0125 16.6375 15.1187L16.5812 15.0625C17.0187 12.1063 18.05 9.31875 18.05 6.2875C18.05 1.81875 15.6625 0 11.275 0C4.08125 0 0.4375 7.10625 0.4375 12.4C0.4375 17.8937 3.64375 20.9375 9.1 20.9375C9.85 20.9375 9.7875 20.875 9.7875 21.175C8.73125 29.2312 4.1125 29.4937 4.1125 27.0875C4.1125 24.6375 6.925 23.425 6.95625 23.275C6.9375 22.5125 4.01875 21.55 3.275 21.55C1.15625 21.5562 0 24.75 0 26.5063C0 29.75 2.05 32 5.34375 32C10.1813 32 13.7187 27.1375 14.8062 22.9125C15.75 19.1313 15.5063 18.9563 16.0375 18.6875C18.05 17.675 19.6312 17 21.9 17C23.0125 17 23.8062 17.2312 25.5812 17.525C25.7625 17.525 26 17.3438 26 17.1625C26 16.6625 23.9125 13.3812 23.4438 13.2V13.2ZM12.4875 7.925C11.9063 10.7188 11.325 13.525 10.75 16.3188C10.6063 16.9563 9.91875 16.8062 9.375 16.8062C6.98125 16.8062 6.3125 14.1938 6.3125 12.2375C6.3125 9.3 7.4375 5.40625 10.175 3.9C10.6125 3.64375 11.1 3.48125 11.5875 3.48125C12.75 3.48125 12.8375 4.3125 12.8375 5.275C12.8312 6.16875 12.6688 7.05625 12.4875 7.925V7.925Z" fill="#0165E1" /></svg>