<svg width="30" height="32" viewBox="0 0 30 32" fill="none" xmlns="http://www.w3.org/2000/svg">
 <path  d= "M23.8572 20.5571H22.9143V23.0357C21.1643 24.6857 18.8929 25.5929 16.4929 25.5929C11.2643 25.5929 7.03572 21.2929 7.03572 15.9929C7.03572 10.7 11.2643 6.39286 16.4929 6.39286C19.0143 6.39286 21.3929 7.39286 23.1786 9.20714L27.6286 4.68571C24.6429 1.66429 20.6929 0 16.4786 0C7.71429 0 0.714294 7.18571 0.714294 16C0.714294 24.75 7.64287 32 16.4786 32C20.9929 32 25.3714 30.1286 28.6929 26.1071C28.55 24.1357 27.7357 20.5571 23.8572 20.5571ZM22.9929 12.5214H15.4V18.8786H23.8572C26.25 18.8786 28.1786 19.9571 29.2857 21.8643V19.6786C29.2857 15.0214 26.4 12.5214 22.9929 12.5214Z" fill="#0165E1" /></svg>