<svg width="22" height="32" viewBox="0 0 22 32" fill="none" xmlns="http://www.w3.org/2000/svg">
 <path  d= "M1.66347 25.2094H1.83849C2.63233 25.2094 3.43242 25.2094 4.22627 25.2156C4.32628 25.2156 4.42004 25.1906 4.45129 25.3469C4.89509 27.5284 6.32651 28.7598 8.383 29.3411C10.0644 29.8162 11.7646 29.8287 13.4648 29.4536C15.5776 28.9911 16.9653 27.6847 17.7153 25.6782C18.2154 24.3343 18.3842 22.9404 18.4029 21.5215C18.4092 21.1589 18.4217 18.5836 18.3904 18.2211L18.3342 18.2023C18.2842 18.2961 18.2279 18.3836 18.1779 18.4774C16.7965 21.1714 14.3462 22.6903 11.5896 22.7966C5.15137 23.0466 1.00089 19.2337 0.838369 11.7828C0.807116 10.3014 0.950882 8.85123 1.35718 7.42606C2.64483 2.98179 6.02023 0.0376947 10.9771 0.000190279C14.8088 -0.0248126 17.3215 2.41922 18.2404 4.39445C18.2717 4.46321 18.3217 4.53822 18.3904 4.51322V0.662768H21.1595C21.1595 18.1836 21.1657 21.4277 21.1657 21.4277C21.1595 26.3345 19.4968 30.41 14.7275 31.5664C10.3832 32.6228 4.78883 31.8664 2.47606 27.991C1.976 27.1471 1.73847 26.222 1.66347 25.2094V25.2094ZM10.8083 2.28171C7.52665 2.25045 4.02624 4.82575 3.61994 10.6452C3.36366 14.3331 4.54505 18.2836 8.08922 19.9338C9.81442 20.7401 12.7335 20.8714 14.8588 19.39C17.8341 17.3147 18.778 13.3267 18.2842 9.76383C17.6778 5.31956 15.2963 2.26295 10.8083 2.28171V2.28171Z" fill="#0165E1" /></svg>