<svg width="32" height="32" viewBox="0 0 32 32" fill="none" xmlns="http://www.w3.org/2000/svg">
 <path  d= "M11.1999 6.77143C13.8857 11.1 15.7857 14.85 17.2214 18.3786C16.6285 20.7929 15.8785 23.1286 14.9857 25.4C14.0428 21.6643 13.0928 18.1643 10.9857 14.7929C11.4499 12.1929 11.1499 9.53571 11.1999 6.77143V6.77143ZM7.80708 12H1.14994C0.685655 12 0.399941 12.5357 0.685655 12.9071C3.69994 16.7857 5.80708 21.3214 7.23566 26.2857H14.6285C13.4714 21.3071 11.8642 16.7357 8.73566 12.4643C8.52137 12.1786 8.16423 12 7.80708 12V12ZM11.2214 5.71429C16.1142 13.4286 20.5071 22.4643 21.0928 32H29.2142C28.3571 22.1429 24.3285 13.0714 18.9857 5.71429H11.2214ZM29.2071 0.821429C29.0785 0.335714 28.6214 0 28.1214 0H21.8142C21.4357 0 21.1714 0.357143 21.2571 0.735714C22.1999 4.05714 22.8499 7.55714 23.1499 11.1643C26.5928 17.3214 28.8428 23.9 29.6214 30.5071C30.7499 26.1857 31.4285 20.9714 31.4285 16.0071C31.4285 10.75 30.5642 5.64286 29.2071 0.821429V0.821429Z" fill="#0165E1" /></svg>