<svg width="32" height="32" viewBox="0 0 32 32" fill="none" xmlns="http://www.w3.org/2000/svg">
 <path  d= "M28.5714 0H3.42857C1.53571 0 0 1.53571 0 3.42857V28.5714C0 30.4643 1.53571 32 3.42857 32H28.5714C30.4643 32 32 30.4643 32 28.5714V3.42857C32 1.53571 30.4643 0 28.5714 0ZM11.7143 23.1429C7.76429 23.1429 4.57143 19.95 4.57143 16C4.57143 12.05 7.76429 8.85714 11.7143 8.85714C13.6429 8.85714 15.25 9.55714 16.5 10.7286L14.5643 12.5929C14.0357 12.0857 13.1143 11.4929 11.7214 11.4929C9.28572 11.4929 7.3 13.5071 7.3 16.0071C7.3 18.5 9.28572 20.5214 11.7214 20.5214C14.55 20.5214 15.6071 18.4857 15.7786 17.4429H11.7143V14.9857H18.4571C18.5286 15.3429 18.5714 15.7071 18.5714 16.1714C18.5714 20.25 15.8357 23.1429 11.7143 23.1429V23.1429ZM27.4286 17.3H25.3571V19.3714H23.2714V17.3H21.2V15.2143H23.2714V13.1429H25.3571V15.2143H27.4286V17.3Z" fill="#0165E1" /></svg>