<svg width="32" height="20" viewBox="0 0 32 20" fill="none" xmlns="http://www.w3.org/2000/svg">
 <path  d= "M19.4407 8.5675C19.5362 9.07229 19.6044 9.57708 19.6044 10.2319C19.6044 15.9482 15.7708 20 10 20C4.47479 20 9.93411e-09 15.5253 9.93411e-09 10C9.93411e-09 4.47474 4.47479 0 10 0C12.7012 0 14.9522 0.98224 16.6985 2.61937L13.9836 5.2251C13.2469 4.51568 11.9509 3.68349 10 3.68349C6.58937 3.68349 3.80625 6.5075 3.80625 10C3.80625 13.4925 6.58937 16.3165 10 16.3165C13.9563 16.3165 15.4434 13.4652 15.6753 12.0054H10V8.56745H19.4407V8.5675ZM29.0972 8.90276V6H26.1805V8.90276H23.2778V11.8195H26.1805V14.7222H29.0972V11.8195H32V8.90276H29.0972V8.90276Z" fill="#0165E1" /></svg>