<svg width="32" height="32" viewBox="0 0 32 32" fill="none" xmlns="http://www.w3.org/2000/svg">
 <path  d= "M16 0C7.16774 0 0 7.16774 0 16C0 24.8323 7.16774 32 16 32C24.8323 32 32 24.8323 32 16C32 7.16774 24.8323 0 16 0ZM23.3935 14.6065L16.1032 24.4581L8.83226 14.6065C8.27097 13.8387 7.6 11.3548 9.70968 9.96129C11.5226 8.79355 13.2323 9.69032 14.129 10.729C15.1548 11.8839 17.1355 11.8194 18.1097 10.729C19.0065 9.69032 20.7161 8.79355 22.5032 9.96129C24.6258 11.3548 23.9613 13.8323 23.3935 14.6065V14.6065Z" fill="#0165E1" /></svg>