<svg width="32" height="32" viewBox="0 0 32 32" fill="none" xmlns="http://www.w3.org/2000/svg">
 <path  d= "M18.9097 13.1613C19.1935 13.4452 19.1935 13.929 18.9097 14.2129L18.2839 14.8387C18 15.1419 17.5161 15.1419 17.2129 14.8387L16.5355 14.1613C16.2516 13.8581 16.2516 13.3935 16.5355 13.0903L17.1613 12.4645C17.4452 12.1806 17.929 12.1806 18.2323 12.4645L18.9097 13.1613V13.1613ZM16.9613 11.8903C17.1548 11.6968 17.1548 11.3871 16.9613 11.2129C16.7806 11.0194 16.4774 11.0194 16.2839 11.2129C16.1032 11.3935 16.1032 11.6968 16.2839 11.8903C16.4839 12.071 16.7871 12.071 16.9613 11.8903ZM15.2839 12.2323C15.0903 12.4129 15.0903 12.7161 15.2839 12.8903C15.4645 13.0839 15.7677 13.0839 15.9613 12.8903C16.1419 12.7097 16.1419 12.4065 15.9613 12.2323C15.7677 12.0387 15.4645 12.0387 15.2839 12.2323ZM19.9613 11.3742C18.6774 10.4452 17.7806 8.5871 19.1935 6.98064C20.5871 5.37419 21.8194 5.87097 23.0516 7.03226C23.8194 7.76129 24.9419 8.63871 24.1613 10.1419C23.3548 11.6581 21.2516 12.2839 19.9613 11.3742V11.3742ZM23.0387 8.50323C22.4645 7.85806 21.5355 8.94839 22.0387 9.54193C22.5161 10.1226 24.1097 9.69677 23.0387 8.50323ZM32 16C32 24.8387 24.8387 32 16 32C7.16129 32 0 24.8387 0 16C0 7.16129 7.16129 0 16 0C24.8387 0 32 7.16129 32 16ZM27.729 18.7484C27.8903 17.7097 26.4258 17.6774 26.1032 17.0903C25.2258 15.5355 24.3161 14.7161 22.5871 15.129C23.3355 14.6129 24.1032 14.7355 24.1032 14.7355C24.1226 14.3226 24.1032 13.8968 23.4968 13.129C23.7484 12.3226 23.5161 11.6839 23.5161 11.6839C24.5161 11.129 25.2452 10.1097 25.3935 8.89677C25.6258 6.89677 24.1806 5.07742 22.1806 4.84516C20.7548 4.68387 19.3613 5.34194 18.6774 6.50323C17.1806 9.09032 18.7677 11.0774 20.1226 11.7548C19.1935 11.6645 17.9097 10.9871 17.5355 9.54193C17.1097 7.88387 17.7161 6.32903 18.1097 5.58064C18.1097 5.58064 17.8258 5.20645 17.5935 5.00645C17.5935 5.00645 16.7032 5.00645 16.0065 5.34839C16.7742 4.36774 17.6323 4.41935 17.6323 4.41935C17.6323 4.00645 17.5935 3.45806 17.4 3.02581C17.0516 2.31613 15.8645 2.19355 15.3548 3.20645C15.3613 3.19355 15.3742 3.18065 15.3806 3.17419C15.0581 3.94194 15.3097 6.78064 16.471 8.8C16.3097 8.89032 15.8839 9.19355 15.6323 9.44516C14.2387 10.071 12.0065 13.3355 12.0065 13.3355C10.1871 14.0323 7.02581 16.6194 7.45161 18.4774C7.47097 18.671 7.54194 18.8323 7.64516 18.9613C7.46452 19.1032 7.29032 19.2839 7.10968 19.4968C6.34194 20.3871 6.76774 21.7677 8.25161 21.071C9.27097 20.6065 10.1613 19.7677 10.5935 19.1097C10.5935 19.1097 10.2387 18.7871 9.54193 18.8258C11.329 18.4 11.7548 18.2194 12.5226 18.2387C13.0387 18.4903 13.0387 16.0258 13.0387 16.0258C13.0387 15.0774 12.8968 14.0258 12.3226 13.3484C13.129 14.1355 14.2 15.4581 14.129 17.2581C14.0774 18.4387 13.1484 18.7419 13.1484 18.7419C12.5613 19.8129 10.3613 22.9935 11.1871 25.5806C11.1871 25.5806 10.5613 24.6194 10.529 24.1548C9.40645 25.4065 7.52903 27.529 8.94194 28.3161C10.6581 29.2645 15.9613 22.6 17.0839 19.1355C19.3161 17.7935 20.6581 16.0839 21.2065 14.9419C22.6258 17.7484 27.3548 21.0387 27.729 18.7484V18.7484Z" fill="#0165E1" /></svg>