<svg width="20" height="32" viewBox="0 0 20 32" fill="none" xmlns="http://www.w3.org/2000/svg">
 <path  d= "M9.72893 32C9.72893 31.6579 10.0387 31.2126 10.0387 30.5607C10.0387 29.5797 9.19968 27.9855 4.99799 24.9714C2.78419 23.0932 0.705933 21.1956 0.705933 17.9814C0.705933 10.5785 10.2001 6.58975 10.2001 0.645422C10.2001 0.432432 10.1872 0.212989 10.1614 0C10.4905 0.154901 12.685 2.79468 12.685 5.83461C12.685 11.0303 5.90158 14.1735 5.90158 18.9367C5.90158 20.6729 6.97298 21.9831 8.00565 23.4223C9.45785 25.3715 10.8584 27.0948 10.8584 29.0052C10.852 29.9411 10.5744 30.9221 9.72893 32V32ZM19.1521 16.4195C19.2489 16.9617 19.2941 17.4909 19.2941 18.0073C19.2941 21.3505 17.3965 24.3001 14.9504 26.8366C14.8858 26.9012 14.8084 26.9915 14.7439 26.9915C14.5115 26.9915 12.4526 24.3066 12.4526 23.5579C12.4526 23.5579 15.1505 19.9629 15.1505 17.3038C15.1505 16.6067 14.9762 15.9032 14.5631 15.148C14.4663 17.2328 10.9681 20.8084 10.8132 20.8084C10.639 20.8084 9.65793 19.3885 9.65793 18.0912C9.65793 17.7491 9.72247 17.4006 9.86446 17.0714C10.0194 16.7164 13.5175 12.4244 13.5175 9.53933C13.5175 9.13917 13.453 8.76482 13.2981 8.43566L13.0399 7.97096C14.1178 8.39048 18.3711 12.1081 19.1521 16.4195" fill="#0165E1" /></svg>