<svg width="24" height="32" viewBox="0 0 24 32" fill="none" xmlns="http://www.w3.org/2000/svg">
 <path  d= "M3.83292 11.8431C3.76421 12.4677 4.15773 13.0361 4.15773 13.0361C4.20146 12.5676 4.29515 12.2366 4.40759 11.9992C4.43257 12.6426 4.60747 13.4671 5.20712 14.1292C5.63812 14.6039 7.43082 15.5846 8.63636 14.5102C8.69882 14.6602 8.76753 14.8413 8.82375 15.0412C9.00489 15.6846 8.6551 16.6215 8.6551 16.6215C8.6551 16.6215 9.5983 15.5534 9.52334 14.5915C10.1979 14.5602 10.8601 14.0668 10.8413 13.3734C10.8413 13.3734 9.66076 14.023 8.62387 12.8237C8.01797 12.1241 6.06911 10.2003 3.43316 10.8374C3.70175 10.8999 3.98908 10.9873 4.27641 11.0935H4.27017C4.00782 11.2184 3.86416 11.537 3.83292 11.8431V11.8431ZM5.60064 11.7306C6.81867 12.4177 7.93677 13.3359 8.40524 14.0418C8.0492 14.2479 7.04979 14.6914 6.03164 13.9356C5.38826 13.4609 5.41949 12.299 5.60064 11.7306ZM10.5477 26.3283C10.6852 26.472 10.6414 26.6594 10.604 26.7531C10.5352 26.9217 10.2604 27.4776 9.79193 27.9898C9.62328 28.171 9.37967 28.2772 9.10483 28.2772C8.83624 28.2772 8.5614 28.1772 8.36777 28.0086C8.2241 27.8774 7.73064 27.4152 7.51202 26.8468C7.43082 26.6344 7.44955 26.4657 7.56823 26.3408C7.64944 26.2596 7.81809 26.1597 8.16164 26.1597H9.99806C10.2542 26.1597 10.4353 26.2159 10.5477 26.3283ZM14.4767 14.5915C14.4017 15.5596 15.3449 16.6215 15.3449 16.6215C15.3449 16.6215 14.9951 15.6846 15.1763 15.0412C15.2325 14.8413 15.3012 14.6664 15.3637 14.5102C16.5692 15.5909 18.3619 14.6039 18.7867 14.1292C19.3863 13.4671 19.555 12.6426 19.5862 11.9992C19.6986 12.2366 19.7986 12.5676 19.836 13.0361C19.836 13.0361 20.2358 12.4677 20.1609 11.8431C20.1234 11.5307 19.9797 11.2184 19.7236 11.106H19.7174C20.0047 10.9936 20.292 10.9061 20.5606 10.8499C17.9184 10.2128 15.9758 12.1366 15.3699 12.8362C14.3268 14.0355 13.1525 13.3859 13.1525 13.3859C13.14 14.0668 13.8021 14.5665 14.4767 14.5915ZM15.5885 14.0418C16.057 13.3297 17.1751 12.4177 18.3931 11.7306C18.5805 12.299 18.6055 13.4609 17.9559 13.9418C16.9377 14.6976 15.9446 14.2541 15.5885 14.0418C15.5885 14.0418 15.5823 14.048 15.5885 14.0418ZM16.4318 26.3408C16.5505 26.4595 16.5692 26.6281 16.488 26.8343C16.2694 27.3902 15.7759 27.8399 15.6323 27.9649C15.4386 28.1273 15.17 28.2272 14.8952 28.2272C14.6204 28.2272 14.3767 28.1273 14.2081 27.9461C13.7396 27.4464 13.4585 26.903 13.3961 26.7406C13.3586 26.6469 13.3149 26.4657 13.4523 26.3221C13.5585 26.2096 13.7459 26.1534 14.0082 26.1534H15.8446C16.1819 26.1597 16.3506 26.2596 16.4318 26.3408ZM10.2916 10.6313C10.91 11.0061 11.466 11.1372 11.9969 11.1497C12.5278 11.1372 13.0838 11.0061 13.7021 10.6313C13.7021 10.6313 12.7964 11.7369 12.0031 11.7431H11.9906C11.1974 11.7306 10.2916 10.6313 10.2916 10.6313V10.6313ZM21.8161 19.8384C21.6662 20.9565 21.0041 21.9496 20.2795 22.568C20.0859 21.1501 20.0484 19.1013 20.0484 18.6703C20.0484 17.7521 20.6418 17.14 20.8105 17.04C20.9666 16.9463 21.1478 16.8526 21.3289 16.7527C22.4533 16.153 23.8524 15.4035 23.8524 14.023C23.8524 13.0111 23.2715 12.5739 22.8905 12.2866C22.8405 12.2491 22.7968 12.2178 22.7531 12.1804C22.6219 12.0742 22.522 11.993 22.4845 11.9055C22.2097 11.2934 22.2596 9.76928 22.3783 9.5569C22.4158 9.51942 23.4214 8.25142 23.1154 7.10834C22.9905 6.64611 22.6844 6.27757 22.2346 6.04646C21.9036 5.87781 21.4913 5.78411 21.0166 5.76537C21.0104 5.64045 20.9854 5.52176 20.9604 5.39684C20.9229 5.23443 20.8917 5.06578 20.9042 4.89088C20.9292 4.59731 20.9541 4.32871 21.0416 4.18505C21.5663 3.35428 22.8405 3.08569 22.853 3.08569L23.6213 2.93578L23.1154 2.34238C23.1091 2.32988 22.0348 1.24927 20.2233 1.24927C19.7299 1.24927 19.2239 1.33047 18.718 1.49288C17.2063 1.98009 16.0383 3.39801 15.6323 3.94769C15.4386 3.88522 15.2387 3.82901 15.0326 3.77904C14.7703 2.79211 15.5948 1.37419 15.5948 1.37419C15.5948 1.37419 14.7453 1.1868 13.4898 2.32364C13.3274 1.91763 12.9838 1.04314 13.3773 -7.44617e-10C11.5347 0.649619 11.0724 1.64279 10.935 2.54226C10.4603 2.20496 10.5165 1.09936 10.4853 0.818271C10.0168 0.874488 8.66134 2.18622 8.72381 3.83525C8.59888 3.86648 8.4802 3.90396 8.35527 3.94144C7.94926 3.39176 6.78744 1.97384 5.26958 1.48663C4.77612 1.34921 4.27017 1.26801 3.77671 1.26801C1.96527 1.26801 0.897144 2.34862 0.884651 2.36112L0.378698 2.94827L1.147 3.09818C1.15949 3.09818 2.43374 3.36678 2.95844 4.19754C3.04588 4.33496 3.07087 4.6098 3.09586 4.90338C3.10835 5.07827 3.07087 5.24693 3.03964 5.40933C3.01465 5.52801 2.98967 5.65294 2.98342 5.77786C2.50245 5.7966 2.09644 5.8903 1.76539 6.05895C1.31565 6.29006 1.00958 6.6586 0.884651 7.12083C0.572334 8.25766 1.58424 9.52567 1.62172 9.56939C1.7404 9.78177 1.79037 11.3059 1.51553 11.918C1.47805 12.0055 1.37811 12.0867 1.24694 12.1929C1.20321 12.2241 1.15949 12.2616 1.10952 12.299C0.728493 12.5864 0.147583 13.0299 0.147583 14.0355C0.147583 15.416 1.54676 16.1655 2.6711 16.7652C2.85849 16.8651 3.03339 16.9588 3.18955 17.0525C3.3582 17.1525 3.9516 17.7646 3.9516 18.6828C3.9516 19.1138 3.91413 21.1626 3.72049 22.5805C2.99591 21.9621 2.3338 20.9627 2.18389 19.8446C2.18389 19.8446 0.359959 21.2563 0.897144 24.267C1.22195 26.1097 2.34629 27.1466 3.83292 27.6838C4.3826 28.8768 5.66935 30.5384 8.03671 30.782C8.93618 31.519 10.1855 32 12.0094 32H12.0219C13.8396 32 15.0888 31.519 15.9945 30.782C18.3619 30.5384 19.6487 28.8768 20.1983 27.6838C21.685 27.1403 22.8031 26.1097 23.1341 24.267C23.6463 21.2438 21.8161 19.8384 21.8161 19.8384V19.8384ZM19.099 2.37361C19.4488 2.26118 19.8236 2.20496 20.2046 2.20496C20.8917 2.20496 21.4476 2.39235 21.7474 2.51728C21.5538 2.60472 21.3477 2.71716 21.1415 2.84833C20.9916 2.82335 20.7917 2.79836 20.5669 2.79836C19.911 2.79836 19.2864 2.992 18.7742 3.35428C18.0059 3.89772 17.6498 4.40992 17.4812 4.75347C17.3438 4.67226 17.2001 4.59731 17.0377 4.52235C16.9377 4.47238 16.8441 4.42866 16.7441 4.38493C17.1251 3.81651 17.9871 2.72965 19.099 2.37361V2.37361ZM20.4107 3.51044C20.3607 3.57291 20.3108 3.64162 20.267 3.71033C20.0609 4.03514 20.0234 4.4349 19.9922 4.82217C19.961 5.22194 19.9235 5.60297 19.7174 5.88405C19.455 5.93402 19.2114 5.99024 18.999 6.0527C18.8554 5.85907 18.6492 5.61546 18.3432 5.35311C18.4306 5.05329 18.6867 4.34745 19.1864 3.94769C19.5362 3.67909 19.9485 3.52918 20.4107 3.51044V3.51044ZM2.85225 2.84833C2.64612 2.71091 2.43999 2.59848 2.24635 2.51728C2.54618 2.39235 3.1021 2.20496 3.7892 2.20496C4.17023 2.20496 4.53876 2.26118 4.8948 2.37361C6.00665 2.7359 6.86864 3.82276 7.24967 4.37868C7.14973 4.42241 7.04979 4.46613 6.94985 4.5161C6.79369 4.59106 6.64378 4.67226 6.50636 4.74722C6.34395 4.40992 5.98791 3.89147 5.21336 3.34804C4.69492 2.98575 4.07653 2.79211 3.41442 2.79211C3.20204 2.79836 3.00216 2.82335 2.85225 2.84833V2.84833ZM5.64436 5.35311C5.33829 5.61546 5.12592 5.85282 4.9885 6.0527C4.77612 5.99649 4.53251 5.93402 4.27017 5.88405C4.06404 5.60921 4.03281 5.22819 4.00158 4.82842C3.97034 4.44115 3.93287 4.04138 3.72674 3.71657C3.68301 3.64786 3.63304 3.57915 3.58307 3.51669C4.0453 3.53543 4.45756 3.67909 4.80111 3.95393C5.30081 4.34745 5.55691 5.05329 5.64436 5.35311ZM3.63304 16.253C3.46439 16.153 3.28325 16.0593 3.10835 15.9656C2.17764 15.4659 1.22195 14.9475 1.22195 14.0605C1.22195 13.3672 1.49055 13.1485 1.77788 12.9237L1.80911 12.8987C1.85283 12.8612 1.89656 12.8237 1.94653 12.7863C1.89031 13.236 1.82785 13.617 1.77788 13.717C1.77788 13.717 2.53368 12.78 2.75855 10.9498C2.846 10.2315 2.68984 8.80734 2.43999 8.26391C2.45248 8.56998 2.43999 8.87605 2.42125 9.16338C2.39627 9.11341 2.37128 9.06344 2.34005 9.02596C2.14017 8.77611 1.60298 7.93285 1.75289 7.36444C1.80911 7.14581 1.94653 6.98966 2.1714 6.87722C2.40876 6.75854 2.72108 6.69608 3.11459 6.69608C3.88289 6.69608 4.7324 6.92719 5.16964 7.07086C6.73747 7.57056 8.63011 9.00098 9.17354 9.42573C9.18604 9.43822 9.19853 9.44447 9.19853 9.44447L9.54833 9.68807L9.3297 9.32579C9.31721 9.30705 8.13665 7.36444 6.00665 6.42124C6.13158 6.24009 6.46888 5.91528 7.35586 5.47804C8.69258 4.82217 10.2604 4.49112 11.9969 4.49112C13.7396 4.49112 15.3012 4.82217 16.6379 5.47804C17.5249 5.90904 17.8622 6.24009 17.9871 6.42124C15.8634 7.36444 14.6828 9.30705 14.6703 9.32579L14.4517 9.68807L14.8015 9.44447C14.8015 9.44447 14.814 9.43822 14.8265 9.42573C15.3699 9.00098 17.2626 7.56432 18.8304 7.07086C19.2676 6.93344 20.1171 6.69608 20.8854 6.69608C21.279 6.69608 21.5913 6.75854 21.8286 6.87722C22.0473 6.98966 22.1847 7.15206 22.2471 7.36444C22.4033 7.93285 21.8661 8.77611 21.66 9.02596C21.6287 9.06344 21.6038 9.10716 21.5788 9.16338C21.56 8.87605 21.5475 8.56998 21.56 8.26391C21.3102 8.81359 21.154 10.2315 21.2415 10.9498C21.4663 12.78 22.2222 13.717 22.2222 13.717C22.1722 13.617 22.1097 13.236 22.0535 12.7863C22.0972 12.8237 22.1472 12.8612 22.1909 12.8987L22.2222 12.9237C22.5095 13.1548 22.7781 13.3672 22.7781 14.0605C22.7781 14.9475 21.8161 15.4659 20.8917 15.9656C20.7105 16.0593 20.5356 16.1593 20.367 16.253C19.8236 16.5653 19.2426 17.2961 19.1739 18.3892C19.1177 19.3012 19.2302 21.5061 19.3863 23.1302C18.6118 23.43 17.7185 23.53 16.9065 23.5549C16.7816 23.2988 16.6629 23.024 16.563 22.7367C16.5192 22.6118 15.3387 19.5448 14.9139 18.8515C15.2575 21.2875 16.007 23.455 16.3818 24.4482C16.1632 24.4169 15.9258 24.4045 15.651 24.4045H8.34278C8.06794 24.4045 7.82434 24.4232 7.61196 24.4482C7.98674 23.455 8.74255 21.2875 9.07985 18.8515C8.6551 19.551 7.47454 22.618 7.43082 22.7367C7.33087 23.024 7.21219 23.2988 7.08727 23.5549C6.27524 23.53 5.38826 23.43 4.60747 23.1302C4.76363 21.5061 4.87606 19.3074 4.81985 18.3892C4.76363 17.3024 4.17647 16.5653 3.63304 16.253V16.253ZM2.17764 25.2914C1.42184 24.0422 1.63421 21.9122 1.94653 21.5998C2.62738 23.7486 4.8948 24.367 6.59381 24.4357C6.42515 24.698 6.269 24.9104 6.15656 25.0603L6.06911 25.1478C5.61938 25.635 5.53193 26.3033 5.81301 27.1341C4.39509 27.1279 2.92096 26.522 2.17764 25.2914V25.2914ZM5.03222 28.0086C5.407 28.0773 5.79427 28.1273 6.19404 28.1585C6.41266 28.6582 6.65627 29.1517 6.96234 29.6014C6.06287 29.2329 5.43823 28.602 5.03222 28.0086ZM11.9969 31.138C8.21161 31.1318 7.10601 28.2772 6.69375 27.0966C6.46263 26.4408 6.48137 25.9598 6.74996 25.6537C6.93111 25.4476 7.34337 25.204 8.28656 25.204H15.7072C16.6504 25.204 17.0689 25.4476 17.2438 25.6537C17.5062 25.9535 17.5249 26.4408 17.3 27.0966C16.8878 28.2709 15.7822 31.1318 11.9969 31.138V31.138ZM17.0314 29.6014C17.3375 29.1517 17.5811 28.6582 17.7997 28.1585C18.1995 28.1273 18.5868 28.0773 18.9616 28.0086C18.5555 28.602 17.9309 29.2329 17.0314 29.6014V29.6014ZM21.8161 25.2914C21.0666 26.522 19.5924 27.1216 18.187 27.1466C18.4681 26.3158 18.3807 25.6412 17.9309 25.1603C17.9059 25.129 17.8747 25.0978 17.8435 25.0666C17.731 24.9167 17.5749 24.7043 17.4062 24.4419C19.1052 24.367 21.3726 23.7548 22.0535 21.6061C22.3658 21.9184 22.5782 24.0484 21.8161 25.2914V25.2914Z" fill="#0165E1" /></svg>