<svg width="16" height="32" viewBox="0 0 16 32" fill="none" xmlns="http://www.w3.org/2000/svg">
 <path  d= "M13.1146 24.4433L12.2333 25.9809L11.9457 30.9937C11.9457 31.55 10.1769 32 8.00173 32C5.82659 32 4.05773 31.55 4.05773 30.9937L3.69521 26.0309L2.7639 24.4433C5.33906 25.5246 10.6394 25.4871 13.1146 24.4433V24.4433ZM0.863776 8.61101L1.71383 16.4553C2.0826 15.2052 3.01391 13.5176 4.21399 13.005C4.60776 12.8363 5.00779 12.8363 5.38281 13.0613C5.70783 13.2488 5.98285 13.6426 6.0141 13.7988C6.08911 14.2051 5.8891 14.3676 5.73284 14.3676C5.54532 14.3676 5.40156 14.0801 5.30781 13.9113C5.05154 13.4551 4.66402 13.4363 4.25149 13.7363C3.82021 14.0489 3.44519 14.5739 3.18267 15.0302C2.8639 15.5802 2.59514 16.1865 2.43263 16.7928C2.33887 17.1428 2.25136 17.7053 2.39512 18.0366C2.45763 18.1741 2.55138 18.2616 2.70139 18.2616C3.01391 18.2616 3.47019 17.8491 3.68896 17.6303C3.97022 17.3491 4.33275 16.9115 4.47026 16.6303L4.79528 15.6615C4.95779 15.2364 5.41407 15.3114 5.41407 15.6615C5.41407 16.299 5.1828 16.5115 4.78903 17.8303C4.4265 19.0492 4.314 19.4429 4.314 19.4429C4.27024 19.618 4.10148 19.9117 3.92022 19.9117C3.84522 19.9117 3.78896 19.8867 3.75771 19.8367C3.69521 19.7492 3.70146 19.5055 3.70771 19.4429C3.72021 19.2429 4.10148 18.0554 4.16399 17.8678C4.03898 18.0054 3.90772 18.1429 3.76396 18.2804C3.42644 18.5991 2.88265 19.0179 2.42012 19.0179C2.20761 19.0179 2.0701 18.9617 1.93884 18.8679L2.41387 23.8432C2.53888 24.1557 4.86403 24.912 7.92673 24.912C10.9957 24.912 13.3208 24.1495 13.4396 23.8432L14.1209 17.9304C13.7646 18.2554 13.3521 18.6554 12.8958 18.8554C12.5583 18.9992 11.8082 19.0929 11.8082 18.4991C11.8082 18.1741 12.377 17.5741 12.7083 17.1553C12.7958 17.049 13.002 16.7865 13.002 16.649C13.002 16.4678 12.627 16.5115 12.2708 16.8053C12.0707 16.974 11.8832 17.1991 11.727 17.4116C11.4582 17.7866 11.3144 18.1116 11.1957 18.3804C10.8082 19.2679 10.9394 18.9179 10.6269 19.7555C10.3144 20.5868 10.3644 20.493 10.3019 20.6305C10.2456 20.7493 10.1644 20.8493 10.0519 20.9118C9.9331 20.9743 9.77059 20.968 9.67059 20.893C9.61433 20.8555 9.58933 20.7743 9.58933 20.6618C9.58933 20.6055 9.59558 20.5493 9.60808 20.493C9.70184 20.1117 10.0956 19.3617 10.5456 18.3491C10.6456 18.1179 10.6081 18.1866 10.5956 18.2054C10.2081 18.5804 9.91435 18.7617 9.69559 18.8617C9.33307 19.0242 8.88304 19.0242 8.78928 18.6054C8.78303 18.5804 8.78303 18.5554 8.77678 18.5304C8.03923 19.1054 7.25793 19.2617 7.5267 18.0241C7.23918 18.5366 6.73915 18.9554 6.12661 18.9554C5.87034 18.9554 5.68283 18.8679 5.58908 18.6366C5.44532 18.2929 5.67033 17.7053 5.8766 17.1491C5.98285 16.8678 6.12661 16.5303 6.32037 16.1365C6.42038 15.924 6.58289 15.799 6.7954 15.8552C6.83291 15.8677 6.86416 15.8802 6.89541 15.899C7.05792 16.0115 6.99542 16.1802 6.91416 16.349C6.67665 16.8178 6.47038 17.1616 6.33287 17.6491C6.27662 17.8553 6.20787 18.2116 6.42663 18.2116C6.57664 18.2116 6.7204 18.1616 6.85791 18.0616C7.14543 17.8491 7.37669 17.5303 7.5517 17.2178C7.67671 16.9928 7.82672 16.699 7.90172 16.449C7.93298 16.3428 7.97048 16.2427 8.01423 16.149C8.08299 15.9927 8.17674 15.8302 8.33925 15.8302C8.42051 15.8302 8.48926 15.8615 8.53927 15.924C8.64552 16.0615 8.62052 16.2052 8.56427 16.3553C8.43926 16.7053 8.2705 17.0178 8.13299 17.3991C8.05173 17.6178 7.96423 17.8991 7.96423 18.1304C7.96423 18.3429 8.19549 18.2929 8.38926 18.2054C8.53926 18.1366 8.68927 18.0304 8.81428 17.9241C8.88929 17.6178 8.87054 17.6866 10.4644 13.6613C10.5456 13.4551 10.6957 13.3676 10.8457 13.3676C10.9207 13.3676 10.9832 13.3926 11.0457 13.4363C11.1519 13.5176 11.1519 13.6926 11.1082 13.8238C11.0644 13.9426 11.0707 13.9051 10.8269 14.4801C10.5019 15.2364 10.2894 15.7802 10.0019 16.474C9.8831 16.7615 9.52058 17.6553 9.45807 17.8678C9.42057 18.0054 9.37682 18.2304 9.52058 18.2304C9.8581 18.2304 10.7269 17.4116 10.9644 17.1678C10.9769 17.1491 10.9957 17.1428 11.0207 17.1303C11.0582 17.0115 11.0957 16.899 11.1269 16.7865C11.2144 16.549 11.2957 16.274 11.4582 16.0802C11.5082 16.0177 11.5645 15.9802 11.627 15.9802C11.802 15.9802 11.8895 16.0552 11.8895 16.2302C11.8895 16.299 11.8457 16.549 11.8207 16.6178C11.9082 16.524 12.002 16.4303 12.102 16.3365C13.0396 15.4677 13.7083 15.9115 13.7083 16.349C13.7083 16.8115 13.1521 17.4553 12.8458 17.8116C12.7458 17.9304 12.5395 18.1491 12.5333 18.2116C12.5333 18.2929 12.5895 18.3241 12.6708 18.3241C12.7958 18.3241 13.0708 18.1054 13.1708 18.0304C13.4833 17.7866 13.9084 17.4116 14.2084 17.1491L15.1334 8.59851C13.2271 9.66733 2.78265 9.67358 0.863776 8.61101V8.61101ZM15.2209 8.07972C15.2209 9.39231 0.77002 9.39231 0.77002 8.07972C0.77002 7.52969 4.00773 7.08591 7.99548 7.08591C8.55802 7.08591 9.10805 7.09216 9.63933 7.11091L10.4269 4.06697L14.2584 0.0354617C14.3459 -0.0520439 14.6209 0.0229609 14.8772 0.254226C15.1334 0.48549 15.2897 0.748007 15.2084 0.835513L15.2022 0.841763L11.6207 4.62325L10.9957 7.16717C13.4896 7.32968 15.2209 7.67345 15.2209 8.07972ZM10.8832 8.36724C10.8832 8.31724 10.8269 8.27349 10.7269 8.23598L10.7144 8.28599C10.7144 8.36724 10.4019 8.436 10.0206 8.436C9.63934 8.436 9.32681 8.36724 9.32681 8.28599C9.32681 8.27974 9.32682 8.27349 9.33307 8.26724L9.34557 8.22348C9.23306 8.26099 9.15805 8.31099 9.15805 8.36724C9.15805 8.4985 9.54558 8.59851 10.0144 8.59851C10.4956 8.60476 10.8832 8.4985 10.8832 8.36724V8.36724Z" fill="#0165E1" /></svg>