<svg width="32" height="32" viewBox="0 0 32 32" fill="none" xmlns="http://www.w3.org/2000/svg">
 <path  d= "M28.5714 0H3.42857C1.53571 0 0 1.53571 0 3.42857V28.5714C0 30.4643 1.53571 32 3.42857 32H28.5714C30.4643 32 32 30.4643 32 28.5714V3.42857C32 1.53571 30.4643 0 28.5714 0ZM1.51429 14.0857H1.5C1.50714 14.0786 1.51429 14.0643 1.52143 14.0571C1.52143 14.0643 1.52143 14.0786 1.51429 14.0857ZM17.0857 17.9357V25.1429H14.8429V17.8071L9.14286 6.85714H11.8071C15.5571 13.8786 15.3214 14.0857 16.0429 15.8286C16.9214 13.9 16.4571 14.0857 20.3714 6.85714H22.8571L17.0857 17.9357V17.9357Z" fill="#0165E1" /></svg>