<svg width="32" height="20" viewBox="0 0 32 20" fill="none" xmlns="http://www.w3.org/2000/svg">
 <path  d= "M0 1.21019C0 1.12019 0.0449994 1.07519 0.134998 1.07519H2.17997C2.27497 1.07519 2.31997 1.12019 2.31997 1.21019V5.27014C3.07996 4.88514 3.90495 4.69514 4.80994 4.70014C6.00992 4.70514 7.01991 5.01014 7.8249 5.60013C8.75988 6.27512 9.22488 7.19511 9.22488 8.3651V15.17C9.22488 15.265 9.17988 15.31 9.08988 15.31H7.7249C7.2699 15.31 6.90491 14.945 6.90491 14.495V8.3651C6.90491 8.3201 7.03991 7.01511 4.61494 7.01511C2.18497 7.01511 2.32497 8.3251 2.32497 8.3651V15.17C2.32497 15.265 2.27997 15.31 2.18497 15.31H0.134998C0.0449994 15.31 0 15.265 0 15.17V1.21019H0ZM24.8847 12.285C25.5697 12.795 26.5896 13.24 27.8046 13.24C28.9696 13.24 29.4446 13.015 29.6296 12.56C29.7796 12.165 29.5996 11.7551 29.0196 11.5001L26.3397 10.3251C25.2697 9.85508 24.6497 9.12509 24.4797 8.1451C24.1947 6.46012 25.5897 5.48013 25.6147 5.46013C26.2747 4.98014 27.2146 4.69014 28.5396 4.69014C29.4896 4.69014 30.4096 4.85514 31.2946 5.18514C31.3596 5.21014 31.3896 5.25014 31.3896 5.31514V7.55011C31.3896 7.65511 31.2746 7.7201 31.1896 7.6701C29.2046 6.63512 27.3596 7.05511 26.9896 7.33011C26.6596 7.57511 26.6896 7.9551 27.1196 8.1351L29.9996 9.40008C30.8246 9.75508 31.4046 10.3201 31.7446 11.1051C32.0196 11.7351 32.0746 12.385 31.8996 13.06C31.4196 14.905 29.6546 15.335 29.6196 15.35C29.0946 15.505 28.4396 15.565 27.8046 15.565C26.9746 15.565 26.1747 15.43 25.3947 15.155C24.9097 14.985 24.6647 14.64 24.6647 14.12V12.4C24.6647 12.295 24.7797 12.215 24.8847 12.285ZM18.8098 4.69014C17.2248 4.69014 13.5998 5.69513 13.5998 9.86508V19.04C13.5998 19.08 13.6298 19.175 13.7348 19.175H15.7798C15.8748 19.175 15.9198 19.13 15.9198 19.04V14.6C16.7448 15.235 17.7098 15.555 18.8048 15.555C21.8297 15.555 24.2397 13.13 24.2397 10.1201C24.2447 7.10511 21.8297 4.69014 18.8098 4.69014V4.69014ZM18.8098 13.235C17.9498 13.235 17.2148 12.93 16.6098 12.325C15.9998 11.7151 15.6998 10.9851 15.6998 10.1251C15.6998 8.4001 17.0798 7.01511 18.8098 7.01511C20.5347 7.01511 21.9197 8.3951 21.9197 10.1251C21.9247 11.8401 20.5547 13.235 18.8098 13.235ZM12.5798 15.17C12.5798 15.265 12.5348 15.31 12.4398 15.31H10.3949C10.3149 15.31 10.2599 15.24 10.2599 15.17V5.08014C10.2599 5.01014 10.3149 4.94014 10.3949 4.94014H12.4398C12.5348 4.94014 12.5798 4.98514 12.5798 5.08014V15.17V15.17ZM11.4148 0.825195C12.2098 0.825195 12.8598 1.46019 12.8598 2.27018C12.8598 3.06017 12.2248 3.71516 11.4148 3.71516C10.6049 3.71516 9.96987 3.05017 9.96987 2.27018C9.97487 1.47019 10.6199 0.825195 11.4148 0.825195" fill="#0165E1" /></svg>