<svg width="32" height="32" viewBox="0 0 32 32" fill="none" xmlns="http://www.w3.org/2000/svg">
 <path  d= "M27.6938 0H4.49375C4.24375 2.33125 2.3375 4.2375 0 4.48125V27.7C2.3375 28.0063 4.125 29.725 4.49375 32H27.7563C27.9438 29.725 29.7875 27.8875 32 27.6375V4.48125C29.725 4.1125 27.9375 2.275 27.6938 0ZM25.3813 25.3062C23.1125 25.3062 24.2062 25.1812 21.9375 25.1812C19.7 25.1812 20.625 25.3062 18.4312 25.3062C18.0625 25.3062 18.125 24.7938 18.4312 24.6938C19.8562 24.2188 19.8625 24.0562 19.9688 23.8937C20.6187 22.9187 20.3375 18.7062 20.3375 16.8312C20.3375 16.5 19.9375 16.0312 19.475 16.0312H12.525C12.0625 16.0312 11.6625 16.5 11.6625 16.8312C11.6625 18.7062 11.3813 22.9187 12.0312 23.8937C12.1375 24.05 12.1438 24.2188 13.5688 24.6938C13.875 24.7938 13.9438 25.3062 13.5688 25.3062C11.375 25.3062 12.3 25.1812 10.0625 25.1812C7.79375 25.1812 8.8875 25.3062 6.61875 25.3062C6.125 25.3062 6.25625 24.6313 6.61875 24.6313C7.25625 24.4188 7.4625 24.4125 7.975 23.7687C8.45625 22.9625 8.46875 20.9938 8.46875 15.7812V9.45625C8.46875 8.06875 7.70625 7.6875 6.68125 7.43125C6.13125 7.29375 6.43125 6.69375 6.74375 6.69375C9.025 6.69375 8.03125 6.81875 10.3125 6.81875C12.3563 6.81875 11.3437 6.69375 13.3875 6.69375C13.5937 6.69375 13.9187 7.2125 13.45 7.36875C13.1437 7.46875 11.725 7.6 11.725 9.825C11.725 12.675 11.7125 13.3125 11.7875 14.125C11.7875 14.2062 11.9312 14.925 12.5875 14.925H19.4125C20.0688 14.925 20.2125 14.2062 20.2125 14.125C20.2875 13.3125 20.275 12.675 20.275 9.825C20.275 7.6 18.8562 7.46875 18.55 7.36875C18.0812 7.2125 18.4062 6.69375 18.6125 6.69375C20.6562 6.69375 19.6437 6.81875 21.6875 6.81875C23.9688 6.81875 22.975 6.69375 25.2563 6.69375C25.5625 6.69375 25.875 7.29375 25.3188 7.43125C24.2938 7.6875 23.5312 8.075 23.5312 9.45625V15.7812C23.5312 20.9938 23.5375 22.9625 24.025 23.7687C24.5375 24.4062 24.7375 24.4188 25.3813 24.6313C25.7438 24.6313 25.8688 25.3062 25.3813 25.3062V25.3062Z" fill="#0165E1" /></svg>