<svg width="32" height="12" viewBox="0 0 32 12" fill="none" xmlns="http://www.w3.org/2000/svg">
 <path  d= "M25.4191 10.6916H28.3145V0.925248L25.4191 2.29044V10.6916ZM29.1046 5.16585V10.6916H32V5.16585H29.1046ZM16.5678 4.72079C15.6577 3.81066 14.0475 3.86566 14.0475 3.86566C14.0475 3.86566 12.4372 3.81066 11.5271 4.72079C11.4321 4.8158 11.3421 4.91581 11.2621 5.02083C9.3518 3.54062 7.63655 2.6955 6.15634 1.9654V0.930249L5.03118 1.46032C2.3108 0.355167 0.580555 0.550195 0.165496 1.46532C0.165496 1.46532 -1.07968 3.10556 3.26093 7.01111V5.46089C0.820589 2.7305 1.31066 1.65535 1.49568 1.50033C2.17078 0.930249 3.37095 1.10027 4.71614 1.60534L3.25593 2.29044V5.45589C3.91103 6.19099 4.78115 7.03111 5.93131 7.97625L6.15634 8.15627V6.66606C6.15634 6.32101 6.24136 5.75593 6.69642 5.75593C7.15148 5.75593 7.22649 6.10098 7.22649 6.50604V8.94138C8.12662 9.55147 9.09176 10.0465 10.1119 10.4216V5.72593C10.1119 4.79079 9.44181 3.85566 8.08162 3.85566C7.2915 3.85066 6.5564 4.26572 6.15634 4.95082V2.23543C8.25164 3.28058 10.3519 4.56076 11.152 5.15085C10.642 5.88095 10.687 6.55604 10.687 7.33615C10.687 8.27129 10.617 9.0514 11.5271 9.96153C12.4372 10.8717 14.0475 10.8166 14.0475 10.8166C14.0475 10.8166 15.6627 10.8717 16.5678 9.96153C17.4779 9.0514 17.4029 8.27129 17.4029 7.33615C17.4029 6.41102 17.4779 5.62591 16.5678 4.72079V4.72079ZM14.5825 8.31629C14.5825 8.49632 14.4925 8.94138 14.0475 8.94138C13.6024 8.94138 13.5124 8.49632 13.5124 8.31629V6.29601C13.5124 5.86095 13.8774 5.75093 14.0475 5.75093C14.2175 5.75093 14.5825 5.85595 14.5825 6.29601V8.31629ZM23.8688 4.72079C22.9587 3.81066 21.3485 3.86566 21.3485 3.86566C21.3485 3.86566 19.7333 3.81066 18.8281 4.72079C17.918 5.63091 17.988 6.41603 17.988 7.35116C17.988 8.28629 17.918 9.0664 18.8281 9.97653C19.7383 10.8867 21.3485 10.8316 21.3485 10.8316C21.3485 10.8316 22.9637 10.8867 23.8688 9.97653C24.779 9.0664 24.709 8.28629 24.709 7.35116C24.704 6.41103 24.774 5.62591 23.8688 4.72079ZM21.8786 8.31629C21.8786 8.49632 21.7886 8.94138 21.3435 8.94138C20.8984 8.94138 20.8084 8.49632 20.8084 8.31629V6.29601C20.8084 5.86095 21.1735 5.75093 21.3435 5.75093C21.5135 5.75093 21.8786 5.85595 21.8786 6.29601V8.31629ZM30.5548 4.66578C31.3499 4.66578 32 4.02069 32 3.22057C32 2.42046 31.3549 1.9954 30.5548 1.9954C29.7597 1.9954 29.1096 2.42546 29.1096 3.22057C29.1096 4.01569 29.7547 4.66578 30.5548 4.66578ZM7.22149 10.6916L9.13676 10.7316C8.47667 10.5016 7.83658 10.2216 7.22149 9.89152V10.6916ZM6.15134 10.6916V9.26143C5.8263 9.0514 5.50125 8.82637 5.18121 8.58133C4.4411 8.02125 3.80601 7.49618 3.25593 7.00611V10.6916H6.15134ZM9.13676 10.7316C10.962 11.3567 12.6323 11.4417 13.8724 11.0917C12.8773 11.1017 11.5821 10.9617 10.1069 10.4266V10.6916L9.13676 10.7316V10.7316Z" fill="#0165E1" /></svg>