<svg width="33" height="33" viewBox="0 0 33 33" fill="none" xmlns="http://www.w3.org/2000/svg">
 <path  d= "M5.55602 23.6853C5.68976 24.6747 5.19539 25.684 4.24728 26.1409C3.06917 26.7096 1.65043 26.214 1.07981 25.0359C0.512319 23.8591 1.00919 22.4372 2.18605 21.8703C2.62667 21.6578 3.10042 21.5941 3.55166 21.6591C-1.34079 14.6998 6.80163 9.75108 6.80163 9.75108C6.43538 12.441 6.28663 15.4485 6.28663 15.4485C2.0798 18.0391 6.34413 19.4522 8.77473 20.0028C10.0103 23.3541 13.2234 25.749 17.0034 25.749C17.1234 25.749 17.239 25.7359 17.3578 25.7315L17.3646 26.9103C11.1635 26.9971 7.44599 25.089 5.55602 23.6853V23.6853ZM12.3066 3.20427C12.3622 2.76678 12.3003 2.30866 12.0947 1.88241C11.526 0.704925 10.106 0.20868 8.92848 0.776799C7.74974 1.34554 7.2535 2.76615 7.82287 3.94427C8.25911 4.84863 9.1991 5.3455 10.1466 5.27113C8.73723 7.14048 6.78225 10.8692 6.87038 17.1479L8.23536 17.1385C8.23411 17.0822 8.22661 17.0279 8.22661 16.971C8.22661 13.2867 10.4997 10.1379 13.7172 8.83609C14.2178 6.47674 15.6384 1.69241 18.3321 6.06799C18.3321 6.06799 21.3408 6.21674 24.0308 6.58299C24.0308 6.58236 19.1659 -1.4188 12.3066 3.20427V3.20427ZM31.3176 11.5898C32.4951 11.0217 32.9932 9.6017 32.4239 8.42422C31.8551 7.24611 30.4345 6.75111 29.257 7.3186C28.3026 7.77922 27.8077 8.79921 27.9526 9.79608C25.9708 8.42484 22.3377 6.73049 16.4871 6.81236L16.4959 8.21859C16.6646 8.20922 16.8328 8.19297 17.0046 8.19297C20.7109 8.19297 23.8733 10.4929 25.1602 13.7404C27.6039 14.3042 31.7264 15.7141 27.5639 18.2741C27.5639 18.2741 27.4177 21.2822 27.0508 23.9716C27.0508 23.9716 35.3913 18.8991 30.1108 11.8086C30.5126 11.8398 30.9276 11.7779 31.3176 11.5898V11.5898ZM24.1608 27.8065C25.5002 25.7778 27.062 22.2009 26.982 16.5779L25.762 16.5866C25.767 16.7154 25.7808 16.841 25.7808 16.971C25.7808 20.7378 23.4027 23.9428 20.069 25.1865C19.5159 27.6209 18.104 31.8527 15.5209 27.6546C15.5209 27.6546 12.5134 27.5084 9.82159 27.1409C9.82159 27.1409 14.8165 35.3496 21.8152 30.3265C21.8346 30.6215 21.9058 30.9171 22.0427 31.1996C22.609 32.3802 24.0302 32.8733 25.2077 32.3065C26.3864 31.7377 26.882 30.3171 26.3139 29.1409C25.9039 28.2896 25.0477 27.8015 24.1608 27.8065V27.8065Z" fill="#0165E1" /></svg>