<svg width="30" height="32" viewBox="0 0 30 32" fill="none" xmlns="http://www.w3.org/2000/svg">
 <path  d= "M15.7094 13.225C14.1406 14.7063 13.1594 16.8063 13.1594 19.1375C13.1594 20.9688 13.7656 22.6563 14.7844 24.0125L11.6906 27.125C11.4156 27.025 11.1219 26.9688 10.8156 26.9688C10.1406 26.9688 9.50937 27.2312 9.03437 27.7062C8.55937 28.1812 8.29687 28.8187 8.29687 29.4937C8.29687 30.1687 8.55937 30.8 9.03437 31.275C9.50937 31.75 10.1469 32 10.8156 32C11.4906 32 12.1219 31.7562 12.6031 31.275C13.0781 30.8 13.3406 30.1625 13.3406 29.4937C13.3406 29.2312 13.3031 28.9812 13.2219 28.7375L16.3469 25.6C17.7219 26.6563 19.4344 27.2812 21.3031 27.2812C25.7969 27.2812 29.4281 23.6375 29.4281 19.1437C29.4281 15.0687 26.4469 11.6938 22.5406 11.1V7.25C23.6344 6.7875 24.3031 5.7625 24.3031 4.56875C24.3031 2.9375 22.9969 1.575 21.3656 1.575C19.7344 1.575 18.4469 2.9375 18.4469 4.56875C18.4469 5.7625 19.1156 6.7875 20.2094 7.25V11.075C19.2594 11.2062 18.3594 11.4938 17.5406 11.925C15.8156 10.6188 10.1969 6.56875 6.98437 4.125C7.05937 3.85 7.10937 3.5625 7.10937 3.2625C7.10937 1.4625 5.64062 0 3.83437 0C2.03437 0 0.571869 1.4625 0.571869 3.2625C0.571869 5.06875 2.03437 6.53125 3.83437 6.53125C4.44687 6.53125 5.01562 6.35 5.50937 6.05625L15.7094 13.225V13.225ZM21.3031 23.45C18.9219 23.45 16.9906 21.5188 16.9906 19.1375C16.9906 16.7563 18.9219 14.825 21.3031 14.825C23.6844 14.825 25.6156 16.7563 25.6156 19.1375C25.6156 21.5188 23.6844 23.45 21.3031 23.45Z" fill="#0165E1" /></svg>