<svg width="32" height="32" viewBox="0 0 32 32" fill="none" xmlns="http://www.w3.org/2000/svg">
 <path  d= "M25.0357 18.3357C25.0357 18.7214 25.15 19.3643 24.5929 19.3643C24.4786 19.3643 24.3786 19.3071 24.3214 19.1929C24.1643 18.8286 24.2429 16.0429 24.2429 16C24.2429 15.7286 24.1643 15.0929 24.5929 15.0929C25.1143 15.0929 25.0357 15.6143 25.0357 16V18.3357V18.3357ZM18.9286 14.1357C18.9286 13.4429 19.0429 12.9929 18.1929 12.9929V18.9714C19.0643 18.9929 18.9286 18.35 18.9286 17.6571V14.1357V14.1357ZM32 3.42857V28.5714C32 30.4643 30.4643 32 28.5714 32H3.42857C1.53571 32 0 30.4643 0 28.5714V3.42857C0 1.53571 1.53571 0 3.42857 0H28.5714C30.4643 0 32 1.53571 32 3.42857ZM1.52143 14.0571C1.51429 14.0643 1.50714 14.0786 1.5 14.0857H1.52143V14.0571ZM6.92857 11.4286H4.57143V20.5571H6.92857V11.4286ZM15.0214 11.4286H11.9429L11.4 15.7071C11.2071 14.2786 11.0143 12.8429 10.7786 11.4286H7.72143V20.5571H9.79286V14.5214L10.6643 20.5571H12.1357L12.9643 14.3857V20.5571H15.0143V11.4286H15.0214ZM21.1857 14.6643C21.1857 14.0857 21.2071 13.4643 21.0857 12.9214C20.7786 11.3143 18.8429 11.4286 17.5857 11.4286H15.8286V20.5571C21.9786 20.5643 21.1857 20.9857 21.1857 14.6643ZM27.3214 15.9C27.3214 14.6643 27.2643 13.75 25.7357 13.75C25.1 13.75 24.6714 13.9429 24.2429 14.4071V11.4286H21.9786V20.5571H24.1071L24.2429 19.9786C24.65 20.4643 25.0929 20.6786 25.7357 20.6786C27.15 20.6786 27.3214 19.5929 27.3214 18.4714V15.9Z" fill="#0165E1" /></svg>