<svg width="32" height="32" viewBox="0 0 32 32" fill="none" xmlns="http://www.w3.org/2000/svg">
 <path  d= "M30.1906 9.98165C30.869 8.44571 31.5296 6.20428 31.5296 4.48971C31.5296 -0.0554147 26.552 -1.65848 18.425 2.07865C11.698 1.62984 5.22369 6.68303 3.60638 13.7322C5.53463 11.5533 8.49832 8.58859 11.2299 7.40984C7.83775 10.4282 4.9455 14.2502 2.7495 18.2328C1.45288 20.6032 0 24.4338 0 27.2967C0 33.4577 5.80338 32.703 11.2657 29.9221C13.2296 30.8865 15.4256 30.8954 17.6216 30.8954C23.6919 30.8954 29.1372 27.502 31.1725 21.769H23.6205C20.3386 27.3061 11.3193 25.0813 11.3193 18.8043H31.8688C32.2692 16.0805 31.7653 12.8221 30.1906 9.98165V9.98165ZM4.03494 21.6798C5.14188 24.8767 7.39138 27.6718 10.3016 29.3864C4.75525 32.4451 -0.527625 31.2049 4.03494 21.6798V21.6798ZM11.2835 14.8753C11.4085 11.4283 14.4258 8.94584 17.7823 8.94584C21.1209 8.94584 24.1561 11.4283 24.2811 14.8753H11.2835ZM22.817 3.15027C24.1561 2.50734 25.8522 1.77509 27.3519 1.77509C29.3158 1.77509 30.744 3.1324 30.744 5.13271C30.744 6.3829 30.2798 8.19565 29.8335 9.3744C28.191 6.73115 25.7093 4.2754 22.817 3.15027V3.15027Z" fill="#0165E1" /></svg>