<svg width="32" height="26" viewBox="0 0 32 26" fill="none" xmlns="http://www.w3.org/2000/svg">
 <path  d= "M30.8 8.19998H27.435C25.56 3.73498 21.145 0.599976 16 0.599976C9.15 0.599976 3.6 6.14998 3.6 13C3.6 13.82 3.68 14.625 3.835 15.4H1.2C0.535 15.4 0 15.94 0 16.6C0 17.265 0.535 17.8 1.2 17.8H4.565C6.44 22.265 10.855 25.4 16 25.4C22.85 25.4 28.4 19.85 28.4 13C28.4 12.18 28.32 11.375 28.165 10.6H30.8C31.465 10.6 32 10.06 32 9.39998C32 8.73498 31.465 8.19998 30.8 8.19998ZM26 13C26 18.525 21.525 23 16 23C12.215 23 8.92 20.9 7.225 17.8H21.2C21.865 17.8 22.4 17.26 22.4 16.6C22.4 15.935 21.865 15.4 21.2 15.4H6.29C6.1 14.63 6 13.83 6 13C6 7.47498 10.475 2.99998 16 2.99998C19.785 2.99998 23.08 5.09998 24.775 8.19998H10.8C10.135 8.19998 9.6 8.73998 9.6 9.39998C9.6 10.065 10.135 10.6 10.8 10.6H25.71C25.9 11.37 26 12.17 26 13ZM10.8 11.8H21.2C21.865 11.8 22.4 12.335 22.4 13C22.4 13.66 21.865 14.2 21.2 14.2H10.8C10.135 14.2 9.6 13.665 9.6 13C9.6 12.34 10.135 11.8 10.8 11.8Z" fill="#0165E1" /></svg>