<svg width="32" height="32" viewBox="0 0 32 32" fill="none" xmlns="http://www.w3.org/2000/svg">
 <path  d= "M15.9714 3.45C9.21429 3.45 3.75 8.92857 3.75 15.6786C3.75 22.4286 9.21429 27.9143 15.9714 27.9143C22.7286 27.9143 28.2 22.4357 28.2 15.6857C28.2 8.92857 22.7214 3.45 15.9714 3.45V3.45ZM21.6429 20.5929C21.4143 21.5643 20.6786 22.1071 19.6929 22.2929C18.8286 22.45 18.1071 22.4929 17.4143 21.9357C16.5714 21.2214 16.5571 20.05 17.3143 19.3071C17.9143 18.7357 18.7643 18.6214 20.0286 18.3929C20.2429 18.3571 20.4286 18.3071 20.5786 18.1286C20.8071 17.8714 20.7357 17.9857 20.7357 12.3571C20.7357 11.9571 20.5429 11.85 20.1357 11.9214C19.85 11.9714 13.5714 13.1429 13.5714 13.1429C13.2143 13.2214 13.0929 13.3286 13.0929 13.7357C13.0929 22.0286 13.1286 21.65 13.0071 22.2C12.8571 22.8429 12.4643 23.3286 11.9429 23.6C11.35 23.9286 10.2714 24.0714 9.7 23.9714C8.17143 23.6857 7.63571 21.9214 8.67143 20.9071C9.27143 20.3357 10.1214 20.2214 11.3857 19.9929C11.6 19.9571 11.7857 19.9071 11.9357 19.7286C12.2929 19.3214 12 10.6571 12.1214 10.1786C12.15 9.99286 12.2286 9.83572 12.3714 9.72143C12.5214 9.6 12.7857 9.52857 12.85 9.52857C20.0643 8.17143 20.9429 8 21.0714 8C21.4786 7.97143 21.7143 8.21429 21.7143 8.62143C21.7071 20.8071 21.7429 20.15 21.6429 20.5929V20.5929ZM24.6571 0H7.34286C3.27857 0 0 3.27857 0 7.34286V24.6571C0 28.7214 3.27857 32 7.34286 32H24.6571C28.7286 32 32 28.7214 32 24.6571V7.34286C32 3.27857 28.7214 0 24.6571 0ZM15.9714 29.4286C8.37857 29.4286 2.22143 23.2714 2.22143 15.6786C2.22143 8.08571 8.37857 1.92857 15.9714 1.92857C23.5643 1.92857 29.7214 8.08571 29.7214 15.6786C29.7214 23.2714 23.5643 29.4286 15.9714 29.4286Z" fill="#0165E1" /></svg>