<svg width="28" height="32" viewBox="0 0 28 32" fill="none" xmlns="http://www.w3.org/2000/svg">
 <path  d= "M27.4295 25.1854C26.9769 27.123 25.5061 28.2119 23.5332 28.5796C21.8007 28.8979 20.3582 28.9756 18.9722 27.8584C17.2821 26.437 17.2609 24.0823 18.7813 22.5973C19.9834 21.4518 21.6734 21.2184 24.212 20.7729C24.6363 20.6951 25.004 20.5961 25.3152 20.2496C25.7677 19.7405 25.6263 19.9597 25.6263 8.70927C25.6263 7.91729 25.2374 7.69808 24.4242 7.8395C23.8443 7.9385 11.2928 10.2862 11.2928 10.2862C10.5715 10.4417 10.3452 10.6539 10.3452 11.4671C10.3452 28.0634 10.423 27.2997 10.1684 28.4029C9.87142 29.6898 9.07943 30.6586 8.03288 31.196C6.8449 31.8537 4.69522 32.1436 3.54967 31.9314C0.494865 31.3587 -0.579974 27.8301 1.49192 25.8077C2.69404 24.6621 4.38408 24.4288 6.92268 23.9833C7.34696 23.9055 7.71467 23.8065 8.02581 23.46C8.74001 22.6468 8.15309 5.31505 8.39352 4.35335C8.45009 3.98564 8.60566 3.6745 8.89558 3.44115C9.19257 3.19365 9.72999 3.05223 9.84313 3.05223C24.2686 0.350989 26.0294 0.00449528 26.2769 0.00449528C27.0901 -0.0520752 27.5568 0.428774 27.5568 1.24905C27.5709 25.6097 27.6345 24.3015 27.4295 25.1854V25.1854Z" fill="#0165E1" /></svg>