<svg width="24" height="32" viewBox="0 0 24 32" fill="none" xmlns="http://www.w3.org/2000/svg">
 <path  d= "M7.79519 24.7497C7.79519 24.7497 6.5702 25.4622 8.66393 25.6997C11.2014 25.9872 12.4951 25.9497 15.2888 25.4184C15.2888 25.4184 16.0263 25.8809 17.0513 26.2809C10.7889 28.9621 2.8765 26.1247 7.79519 24.7497ZM7.0327 21.2435C7.0327 21.2435 5.66397 22.256 7.75769 22.4747C10.4639 22.7559 12.6076 22.7747 16.3076 22.0622C16.3076 22.0622 16.8201 22.581 17.6263 22.8622C10.0452 25.0809 1.60777 23.0434 7.0327 21.2435V21.2435ZM13.4826 15.2998C15.0263 17.0748 13.0764 18.6748 13.0764 18.6748C13.0764 18.6748 16.9951 16.6498 15.1951 14.1186C13.5139 11.7561 12.2264 10.5811 19.2013 6.53741C19.2075 6.53741 8.25143 9.27488 13.4826 15.2998V15.2998ZM21.77 27.3371C21.77 27.3371 22.6762 28.0809 20.7763 28.6621C17.1576 29.7559 5.72647 30.0871 2.55151 28.7059C1.40777 28.2121 3.55149 27.5184 4.22649 27.3746C4.92648 27.2246 5.33272 27.2496 5.33272 27.2496C4.06399 26.3559 -2.87342 29.0059 1.80777 29.7621C14.5701 31.8371 25.0825 28.8309 21.77 27.3371V27.3371ZM8.38268 17.6123C8.38268 17.6123 2.56401 18.9935 6.32021 19.4935C7.90769 19.706 11.0701 19.656 14.0139 19.4122C16.4201 19.2122 18.8388 18.7748 18.8388 18.7748C18.8388 18.7748 17.9888 19.1372 17.3763 19.556C11.4701 21.1122 0.0640409 20.3872 3.34525 18.7998C6.12646 17.4623 8.38268 17.6123 8.38268 17.6123V17.6123ZM18.82 23.4434C24.8262 20.3247 22.045 17.3248 20.1075 17.731C19.6325 17.831 19.42 17.9185 19.42 17.9185C19.42 17.9185 19.595 17.6435 19.9325 17.5248C23.7637 16.1748 26.7137 21.4997 18.695 23.6059C18.695 23.5997 18.7888 23.5184 18.82 23.4434ZM15.1951 0C15.1951 0 18.52 3.32496 12.0389 8.43739C6.8452 12.5373 10.8514 14.8811 12.0389 17.5498C9.00767 14.8123 6.7827 12.4061 8.27643 10.1624C10.4702 6.88116 16.5388 5.28118 15.1951 0ZM8.97642 31.8996C14.7388 32.2683 23.5887 31.6933 23.795 28.9684C23.795 28.9684 23.395 29.9996 19.0325 30.8246C14.1139 31.7496 8.04519 31.6433 4.45148 31.0496C4.45148 31.0433 5.18897 31.6558 8.97642 31.8996" fill="#0165E1" /></svg>