<svg width="32" height="32" viewBox="0 0 32 32" fill="none" xmlns="http://www.w3.org/2000/svg">
 <path  d= "M16.5551 21.7458L18.7657 18.5192L17.3468 22.4215L21.7455 23.0606L17.3468 23.6991L19.0498 27.0339C19.0498 27.0339 16.925 24.8001 16.6247 24.4851C16.7485 29.3211 16.7787 30.5108 16.7787 30.5108C16.7787 30.5108 27.6347 25.473 21.6035 14.3329C21.6035 14.3329 29.1246 6.03129 22.3129 0.922482C22.3129 0.922482 33.9494 7.94727 26.5702 20.0091C26.5702 20.0091 32.6718 14.0489 29.479 8.01828C29.479 8.01828 35.0132 15.8235 28.2725 24.4085C28.2725 24.4085 30.1174 23.273 31.7494 18.9446C31.7494 18.9446 30.559 31.8298 16.1431 31.9986V32H15.8562V31.9986C1.44104 31.8298 0.250671 18.9446 0.250671 18.9446C1.88259 23.273 3.72685 24.4085 3.72685 24.4085C-3.01387 15.8228 2.52102 8.01828 2.52102 8.01828C-0.671811 14.0496 5.43049 20.0091 5.43049 20.0091C-1.94866 7.94656 9.68713 0.922482 9.68713 0.922482C2.87539 6.03129 10.3966 14.3329 10.3966 14.3329C4.36528 25.473 15.2213 30.5108 15.2213 30.5108C15.2213 30.5108 15.2516 29.3204 15.3753 24.4851L12.951 27.0339L14.6539 23.6991L10.2552 23.0606L14.6539 22.4215L13.235 18.5192L15.4456 21.7458C15.6038 15.569 15.9954 0.243277 15.9976 0.170856L15.9983 3.75502e-08L15.9997 0.0703112L16.0018 3.75502e-08L16.0025 0.170856C16.006 0.291791 16.3969 15.5831 16.5551 21.7458V21.7458Z" fill="#0165E1" /></svg>