<svg width="30" height="32" viewBox="0 0 30 32" fill="none" xmlns="http://www.w3.org/2000/svg">
 <path  d= "M29.448 26.5673C29.3605 25.8671 28.2602 25.1232 27.685 24.573C27.3662 24.2605 25.872 23.1289 25.7845 22.7038C25.697 22.2912 26.3909 21.3597 26.616 20.8971C26.9348 20.2281 27.1661 19.4154 27.3224 18.859C28.4977 14.7267 28.6165 9.0502 26.9348 5.65555C26.2972 4.36771 24.5217 2.59224 23.4089 1.74827C20.7832 -0.233503 15.9319 -0.458562 12.7748 0.710496C11.8934 1.03558 11.0369 1.32316 10.2679 1.77953C8.19863 2.99235 5.99805 3.81131 5.38539 6.25571C3.87249 6.93089 3.41612 8.8689 3.49114 11.1195C3.50365 11.5571 3.74746 12.1073 3.65994 12.5199C3.61618 12.7262 3.33485 12.995 3.27859 13.1325C2.5534 14.8642 3.1348 17.1336 3.97252 18.3652C4.4789 19.1091 5.31662 19.7655 6.42317 19.9406C6.46693 20.6032 6.62947 21.1721 6.9358 21.8411C7.1296 22.2662 7.85479 23.0289 7.58597 23.5728C7.44844 23.8479 6.27313 24.4355 5.87927 24.6731C4.56017 25.4545 3.60367 25.9422 2.3846 26.8174C1.59689 27.38 0.365319 27.4551 0.55912 28.7616C0.690405 29.6431 1.19054 30.7372 1.47811 31.6249C1.52187 31.7499 1.56564 31.8812 1.6094 32H27.9914C28.2977 31.0435 28.5978 30.0682 28.9041 29.0492C29.1167 28.3365 29.5418 27.3113 29.448 26.5673V26.5673ZM11.8684 2.10461C11.9809 2.07336 12.0809 2.14838 12.1747 2.25465C12.1622 2.57974 11.8371 2.57349 11.6183 2.67977C11.2807 3.09863 10.7806 3.29243 10.368 3.75505C9.94284 4.22392 9.46772 5.48676 8.90507 5.63054C8.62375 5.69931 8.29866 5.58053 8.05485 5.59929C7.40467 5.64305 6.9483 5.97439 6.28563 6.06816C7.13585 4.19892 9.7928 2.69227 11.8684 2.10461V2.10461ZM5.31662 7.95616C6.1606 7.02466 7.3234 6.44951 8.74253 6.33698C9.47397 8.19372 8.21739 10.4006 8.68626 12.4386C8.83005 13.0575 9.32393 14.0265 8.53622 14.0453C8.55498 12.276 6.36065 11.1508 4.70396 12.1948C4.59143 10.8507 4.39763 8.96267 5.31662 7.95616V7.95616ZM7.61098 20.472C7.54846 20.2156 7.44219 19.6655 7.46719 19.528C7.56722 18.9841 8.53622 18.7465 8.15487 17.9838C7.44844 17.9776 7.29215 18.6215 6.64823 18.6902C4.97904 18.8528 3.79747 16.4772 3.87249 15.0393C3.93501 13.8202 4.97278 12.6511 6.3794 12.8012C7.37967 12.9137 7.71726 14.0015 7.91106 14.9705C8.48621 15.0018 9.31768 14.9455 9.59275 14.4954C9.55524 13.4013 9.04261 12.5199 9.08012 11.5133C9.14263 9.6191 10.1742 7.9124 9.3802 6.04941C10.2304 4.11765 12.7248 2.59224 14.5753 1.67325C16.8634 0.529198 20.5081 1.44194 22.6587 2.66101C23.8903 3.35494 24.8093 4.7053 25.6782 5.8306C24.4592 5.468 23.4214 6.09317 23.6089 7.09968C24.628 6.16819 26.3722 7.08718 26.8911 8.12495C27.3849 9.11271 27.3787 10.5819 27.4537 12.051C27.635 15.6144 26.8035 19.2966 25.0093 21.8723C24.5279 22.56 24.1278 23.3102 23.4527 23.7853C21.8272 24.9231 19.3641 25.9547 17.251 25.2482C14.4565 24.3105 13.1875 22.4475 11.6558 20.3219C11.6996 21.491 12.5185 22.4537 13.3312 23.3477C14.0377 24.1292 14.8942 25.0107 15.8131 25.3733C15.0442 25.192 13.8689 25.1357 13.55 25.8234C11.7621 25.7046 10.1054 25.5233 9.25516 24.3105C8.59249 23.3477 7.91731 21.7223 7.61098 20.472V20.472ZM21.4896 28.2303C21.746 28.0427 22.1836 28.049 22.5774 28.0052C22.2398 27.8364 21.7647 27.7739 21.3709 27.8677C21.3646 27.6051 21.2458 27.4425 21.1708 27.23C21.8335 26.9924 23.3901 25.4483 24.2716 25.9609C24.6905 26.2047 24.8655 27.5988 24.903 28.274C24.928 28.8367 24.853 29.3993 24.6217 29.6994C23.4464 29.6619 22.3836 29.5243 21.4521 29.2618C21.5084 28.8804 21.3896 28.5053 21.4896 28.2303V28.2303ZM20.4144 26.9799C19.3641 27.0299 18.7889 26.9049 18.02 26.3047C18.0325 26.2547 18.1075 26.2735 18.1137 26.2172C19.239 26.7174 20.6644 26.0109 21.8022 25.9109C21.3083 26.2297 20.8895 26.6361 20.4144 26.9799V26.9799ZM19.6579 29.0555C19.5579 28.4678 19.4391 28.3053 19.4829 27.7926C21.0458 26.7549 21.3396 29.5806 19.6579 29.0555ZM13.1249 27.4175C12.3997 27.3738 10.1179 26.5423 10.718 25.9359C11.3057 26.3423 12.4373 26.2422 13.3 26.3923C13.35 26.6673 13.1249 27.0299 13.1249 27.4175ZM2.60341 31.0748C2.33459 30.2808 2.02826 29.5056 1.67817 28.7679C3.60367 27.28 5.76049 25.7108 8.06735 24.7981C8.2424 24.7293 9.51773 26.386 9.70528 26.5236C10.7368 27.255 12.0184 27.8364 13.2187 28.4116C13.2937 28.9617 13.4625 29.6744 13.7626 30.6309C13.8064 30.7747 13.8501 30.9247 13.9001 31.081H2.60341V31.0748ZM17.6449 31.4311H17.5949C17.6136 31.4186 17.6261 31.4061 17.6449 31.3998V31.4311ZM18.1137 31.0748C18.245 30.9872 18.3826 30.8997 18.5139 30.8059C18.5826 30.8935 18.6514 30.981 18.7139 31.0748H18.1137V31.0748ZM19.0577 29.5306C18.3826 29.987 17.7699 30.6747 16.976 31.106C16.6009 31.3123 15.288 31.8375 14.8879 31.7437C14.6628 31.6937 14.6441 31.4123 14.5503 31.1498C14.3565 30.5871 13.9189 29.6869 13.8751 28.8367C13.8251 27.7614 13.7188 25.9609 14.8754 26.186C15.8069 26.3673 16.8947 26.7924 17.6199 27.1925C18.0637 27.4363 18.3138 27.7301 18.989 27.7864C18.9827 27.8739 18.9827 27.9614 18.9765 28.0552C18.6076 28.299 18.02 28.2928 17.6136 28.4991C18.2075 28.5241 18.6764 28.6679 19.0828 28.8679C19.0765 29.0805 19.064 29.3055 19.0577 29.5306V29.5306ZM22.3961 31.0748H21.5209C21.5146 30.8747 21.3459 30.7122 21.1395 30.7122C20.9332 30.7122 20.7707 30.8747 20.7582 31.0748H19.6704C19.4954 30.7997 19.3141 30.5371 19.114 30.2933C19.2453 30.1558 19.3641 29.9995 19.4891 29.8619C20.0518 30.0932 20.4144 29.5556 20.8457 29.5994C21.3396 29.6494 21.7335 30.3308 22.4336 30.287L22.3961 31.0748V31.0748ZM22.94 31.0748C22.9525 30.8247 22.965 30.5871 22.9775 30.3558C23.9528 29.8994 24.7905 30.4371 25.2094 31.0748H22.94ZM28.1539 28.7616C28.0101 29.4618 27.7913 30.262 27.535 31.081C27.5225 31.0748 27.51 31.0748 27.4975 31.0748H25.7533C25.7908 31.006 25.8283 30.9372 25.872 30.8685C25.7095 30.4871 25.3094 30.3246 25.1906 29.8994C25.9471 28.4803 25.597 24.0604 23.6777 24.9919C23.9465 24.598 24.653 24.273 24.9781 23.7853C25.7908 24.4355 26.2784 25.0544 27.0536 25.7484C27.4787 26.1235 28.3039 26.5798 28.3915 27.1925C28.4415 27.5363 28.2289 28.374 28.1539 28.7616ZM12.8874 8.15621C13.225 7.22471 14.5878 5.98689 15.7006 6.15568C16.182 6.2307 16.8259 6.66832 16.4633 7.26222C14.5753 6.82461 13.6376 8.04993 13.0624 9.33152C12.556 9.20649 12.7561 8.51255 12.8874 8.15621V8.15621ZM24.3967 12.101C24.9093 11.8759 25.797 12.0572 26.2471 11.7697C25.9846 11.0507 25.6032 10.4318 25.6657 9.41279C25.697 9.41279 25.7283 9.41279 25.7533 9.41904C26.1784 10.3068 26.5472 11.2445 27.0911 12.026C26.7348 12.87 24.3654 13.6139 24.3967 12.101V12.101ZM18.3451 12.2698C17.9199 11.5884 17.1572 10.238 17.4386 9.4378C17.8449 10.1817 17.9762 10.9632 18.5514 11.5196C18.8077 11.7697 19.3141 12.0822 19.064 12.7824C19.0077 12.9512 18.5764 13.3201 18.3326 13.3888C17.4323 13.6577 15.338 13.4451 16.0445 12.3198C16.7884 12.3636 17.7887 12.8074 18.3451 12.2698V12.2698ZM20.0518 16.6459C20.2893 17.0586 20.1393 17.815 20.8082 17.9338C22.071 18.1463 23.5339 17.1648 24.4404 16.821C25.0031 15.8707 24.3904 15.5269 23.884 14.9142C22.8462 13.6639 21.4584 12.1135 21.5084 10.2443C21.9273 9.93793 21.9648 10.7069 22.021 10.8507C22.5649 12.1198 23.9215 13.7389 24.9155 14.8205C25.1594 15.0893 25.5595 15.3456 25.6032 15.5207C25.7345 16.0333 25.2656 16.6459 25.3219 16.9898C23.9653 17.8588 22.4586 18.809 20.2331 18.5902C19.7704 18.1714 19.5891 17.2524 20.0518 16.6459V16.6459ZM7.46719 16.0708C7.04208 15.827 6.94205 14.758 6.44192 14.7329C5.72923 14.6892 5.86052 16.1208 5.86052 16.9523C5.37289 16.5084 5.28537 15.1331 5.64171 14.4329C5.2291 14.2328 5.0478 14.6579 4.82274 14.8017C5.11657 12.6699 7.93607 13.814 7.46719 16.0708ZM26.1971 17.8713C25.5657 19.0716 24.6717 20.3969 22.8212 20.4344C22.7837 20.0468 22.7525 19.4592 22.8212 19.2216C24.2404 19.0841 25.1093 18.3652 26.1971 17.8713ZM17.326 18.6465C18.5076 19.2654 20.6769 19.3342 22.2836 19.2841C22.3711 19.6342 22.3649 20.0719 22.3711 20.497C20.3081 20.6095 17.8699 20.0969 17.326 18.6465V18.6465ZM23.0901 21.566C22.9838 21.8348 22.7587 22.1474 22.4774 22.2599C21.721 22.5663 19.6266 22.8038 18.5764 22.2412C17.9074 21.8848 17.4823 21.0846 17.1135 20.6157C16.9384 20.3907 16.057 19.8093 17.101 19.8093C17.9199 21.8536 20.7269 21.6223 23.0901 21.566V21.566Z" fill="#0165E1" /></svg>