<svg width="32" height="32" viewBox="0 0 32 32" fill="none" xmlns="http://www.w3.org/2000/svg">
 <path  d= "M14.6776 29.7198C14.097 28.8425 13.3939 27.5717 13.1487 26.9847C12.781 26.1009 11.3941 24.0431 15.1614 22.6561C18.4965 21.424 26.5601 21.5918 28.6308 21.5208C28.3727 22.1014 28.076 22.6755 27.7341 23.2367C25.128 27.462 20.6124 29.7843 15.9935 29.7843C15.5549 29.7843 15.1162 29.7585 14.6776 29.7198V29.7198ZM4.26589 8.76745C8.25897 2.28434 16.7483 0.271668 23.2314 4.26475C28.0567 7.23859 30.4048 12.7089 29.6371 17.9857C28.0308 17.9535 18.0707 17.7535 14.7808 17.6696C11.2006 17.5793 9.51044 16.3279 11.007 14.5603C12.5036 12.7928 14.3034 11.9348 15.4517 11.2575C16.6064 10.5801 17.2128 9.08354 13.9293 9.34157C5.63347 9.9028 3.13699 15.7473 2.4274 18.3857C1.85972 15.1796 2.42095 11.7606 4.26589 8.76745ZM2.38224 7.60629C-2.25592 15.128 0.0857365 24.9785 7.60744 29.6166C15.1291 34.2548 24.9796 31.9131 29.6178 24.3979C34.2559 16.8762 31.9143 7.01927 24.3926 2.38755C21.78 0.768384 18.8771 0.000732422 16.0129 0.000732422C10.6458 0.000732422 5.40769 2.70364 2.38224 7.60629V7.60629ZM18.1481 14.728C16.1161 16.0505 13.9357 16.7472 13.9357 16.7472L24.8699 16.6439L27.8696 15.1344C27.8696 15.1344 28.1018 14.5216 26.6375 14.1346C25.1731 13.7475 22.9605 14.8635 21.0446 15.8892C19.1287 16.9084 19.0384 16.4182 19.0384 16.4182C19.0384 16.4182 21.6316 14.6055 22.3089 14.1926C22.9863 13.7798 24.3668 13.2895 23.1734 12.6057C22.9669 12.4896 22.7411 12.4315 22.5025 12.4315C21.3542 12.4315 19.8254 13.6378 18.1481 14.728" fill="#0165E1" /></svg>