<svg width="32" height="34" viewBox="0 0 32 34" fill="none" xmlns="http://www.w3.org/2000/svg">
 <path  d= "M0.0428571 5.29646C0.0428571 2.91789 1.95714 1.0036 4.31429 1.0036C6.45714 1.0036 8.20714 2.56789 8.54286 4.58932C10.8714 4.04646 13.3357 4.63217 15.4357 6.73217L12.2714 9.89646C10.8071 8.43217 9.22857 8.73217 8.31429 9.64646C7.29286 10.6679 7.29286 12.3536 8.31429 13.375L15.4214 20.4822L12.2786 23.6465C6.01429 17.4179 8.72857 20.0965 5.15 16.525C3.23571 14.6322 2.65 11.8965 3.37857 9.46075C1.45714 9.04646 0.0428571 7.33932 0.0428571 5.29646ZM9.29286 13.6107L12.4571 16.775C13.1714 16.0607 18.8643 10.3679 19.5786 9.64646C20.6 8.62503 22.2643 8.62503 23.2857 9.64646C24.2 10.5607 24.5 12.1465 23.0357 13.6036L26.1786 16.7679C28.4071 14.5393 28.9286 11.9393 28.2429 9.53932C30.3286 9.24646 31.95 7.4536 31.95 5.28932C31.95 2.91789 30.0357 0.99646 27.6786 0.99646C25.5143 0.99646 23.7214 2.6036 23.4286 4.68217C21.0143 3.97503 18.3071 4.57503 16.4071 6.47503C15.1 7.83932 11.3286 11.5822 9.29286 13.6107V13.6107ZM28.3143 24.4822C28.9 22.1465 28.25 19.5893 26.4357 17.775C25.5929 16.9036 26.7929 18.1107 19.3286 10.6536L16.1643 13.8179L23.2857 20.9393C24.3071 21.9607 24.3071 23.625 23.2857 24.6465C22.3714 25.5607 20.7857 25.8607 19.3286 24.3965L16.1857 27.5607C18.1571 29.7179 21.0429 30.3322 23.5214 29.5607C23.9143 31.5179 25.6429 32.9965 27.7286 32.9965C30.0857 32.9965 32 31.0822 32 28.7036C32 26.5465 30.3929 24.775 28.3143 24.4822V24.4822ZM22.2929 20.6893L19.15 17.525C12.9357 23.6965 15.55 21.125 12.0286 24.6536C11.0071 25.675 9.34286 25.675 8.32143 24.6536C7.38571 23.6965 7.11429 22.1322 8.55 20.6965L5.40714 17.5322C3.25 19.6893 2.69286 22.1893 3.3 24.5536C1.39286 24.9822 0 26.6893 0 28.7107C0 31.0893 1.91429 33.0036 4.27143 33.0036C6.31429 33.0036 8.02143 31.5893 8.45714 29.6679C10.7929 30.2536 13.35 29.625 15.1857 27.8107C17.4786 25.525 16.0571 26.925 22.2929 20.6893V20.6893Z" fill="#0165E1" /></svg>