<svg width="32" height="22" viewBox="0 0 32 22" fill="none" xmlns="http://www.w3.org/2000/svg">
 <path  d= "M28.612 9.94988C28.3442 9.8014 28.2912 9.62426 28.2505 9.33943C28.1173 8.4054 28.0501 7.43495 27.7352 6.55825C25.7018 0.895791 19.0118 -1.56442 13.7515 1.3666C12.201 2.2305 10.9773 3.42687 10.0414 4.98664C9.861 4.90121 9.73218 4.83312 9.59815 4.77783C7.8929 4.07419 6.25309 4.20448 4.76424 5.29713C3.31794 6.35856 2.70097 7.82073 2.91318 9.62556C2.93329 9.79692 2.80175 10.0573 2.65747 10.1663C0.407825 11.8653 -0.516629 14.5886 0.283764 17.2256C1.06727 19.807 3.54187 21.7459 6.26634 21.8387C7.9823 21.8971 9.70136 21.8696 11.4191 21.8692C16.1799 21.868 20.9412 21.8993 25.7014 21.842C28.6848 21.8061 31.1458 19.7532 31.8315 16.897C32.4852 14.1736 31.2002 11.385 28.612 9.94988V9.94988ZM29.8077 18.837C28.775 20.1077 27.409 20.834 25.7698 20.8565C22.5479 20.9007 19.325 20.8695 16.1025 20.8695C16.1025 20.9092 6.86716 20.8785 6.82751 20.8782C4.34283 20.8594 2.48033 19.7585 1.43595 17.4796C0.365168 15.1431 1.20912 12.3332 3.37255 10.9023C3.8927 10.5583 4.08094 10.2471 3.94447 9.59168C3.63347 8.09836 4.19673 6.87503 5.44114 6.02388C6.74333 5.13319 8.12754 5.10922 9.52179 5.84923C10.1035 6.15797 10.3493 6.50432 10.7793 5.70608C11.5849 4.2106 12.7369 3.05904 14.2162 2.23384C19.7372 -0.845937 27.1531 2.66256 27.2591 9.75098C27.266 10.2127 27.3957 10.455 27.817 10.6514C31.0777 12.1712 32.0348 16.0966 29.8077 18.837V18.837ZM24.8346 14.2768C24.5033 16.0418 22.8733 17.3979 21.058 17.3978C20.0976 17.3978 19.242 17.0271 18.561 16.3949C16.992 14.9383 14.5309 12.1473 13.1262 11.1046C11.9901 10.2612 10.7476 10.406 9.7119 11.3189C6.87968 13.8154 10.6103 18.2173 13.5109 15.6915C13.7686 15.4671 13.9551 15.1509 14.2329 14.9639C14.6965 14.6518 15.4093 14.9138 14.9788 15.5656C13.9955 17.0546 12.1843 17.7294 10.5113 17.2255C8.87435 16.7324 7.7446 15.1879 7.75672 13.2499C7.82611 11.9762 8.45713 10.8106 9.76288 10.0795C11.0417 9.36362 12.3896 9.33484 13.5579 10.2197C16.4351 12.3993 17.8393 14.8505 19.6361 15.9551C21.0272 16.8105 22.7095 16.3722 23.5348 14.9634C25.168 12.1758 21.5752 9.01437 19.067 11.3685C18.841 11.5806 18.6752 11.8745 18.4207 12.0324C17.7989 12.4182 17.4388 11.7994 17.695 11.4459C18.8678 9.82836 20.5538 9.15503 22.4123 9.84762C24.1927 10.5112 25.1942 12.3609 24.8346 14.2768V14.2768Z" fill="#0165E1" /></svg>