<svg width="30" height="32" viewBox="0 0 30 32" fill="none" xmlns="http://www.w3.org/2000/svg">
 <path  d= "M12.932 28.4849C12.932 29.1851 12.3604 29.7566 11.6603 29.7566C10.9601 29.7566 10.3886 29.1851 10.3886 28.4849C10.3886 27.7848 10.9601 27.2132 11.6603 27.2132C12.3604 27.2061 12.932 27.7776 12.932 28.4849ZM19.5621 27.2061C18.8619 27.2061 18.2903 27.7776 18.2903 28.4778C18.2903 29.1779 18.8619 29.7495 19.5621 29.7495C20.2622 29.7495 20.8338 29.1779 20.8338 28.4778C20.8338 27.7776 20.2622 27.2061 19.5621 27.2061ZM29.7286 24.6341C29.7286 27.4133 29.1856 29.9138 28.1425 31.9929H26.1921C27.8711 29.228 28.3712 25.2199 27.7925 22.3979C26.6422 24.5055 24.0702 25.1556 21.6554 24.4555C12.5248 21.7763 7.90231 25.8629 4.89449 28.0491L6.24479 23.8125L3.39416 26.8346C3.73709 28.7421 4.51584 30.4997 5.62323 32H3.56562C2.87261 30.8712 2.33678 29.6423 1.97956 28.3349L0.279177 30.1353C0.279177 24.7841 -0.113768 19.5901 4.67302 14.7604C6.11619 13.303 7.79514 12.1741 9.60983 11.424C9.12401 10.4595 8.93111 9.3378 9.05256 8.13753L7.63082 8.0518C6.35196 7.97321 5.37317 6.87296 5.44462 5.59411V5.58696L5.55893 3.71511C5.63752 2.49341 6.65917 1.52891 7.88087 1.52891C7.97375 1.52891 7.85944 1.52177 9.89561 1.65037C10.8887 1.70752 11.4317 2.35052 11.5245 2.46484C12.0318 1.72181 12.5605 1.00022 13.2821 5.45078e-08L14.7538 0.864479C13.7822 2.93637 14.1037 3.45077 14.1108 3.45791C14.3895 3.45791 15.1039 3.42219 16.4256 3.86515C17.8474 4.33668 18.9905 5.34405 19.6335 6.7015C19.6621 6.7658 20.7409 8.77339 19.7192 11.1739C21.0767 11.6097 23.3843 12.5957 25.6063 14.8747C28.2211 17.5611 29.7286 21.119 29.7286 24.6341ZM9.41693 6.43715C9.64555 5.72271 9.96705 5.02969 10.3529 4.33668C10.36 4.19379 10.51 3.40076 9.79559 3.35075C7.75942 3.22215 7.9166 3.23644 7.88802 3.23644C7.55937 3.23644 7.29503 3.48649 7.2736 3.81514L7.15928 5.68698C7.13785 6.02277 7.4022 6.3157 7.73798 6.33713L9.41693 6.43715V6.43715ZM11.2602 10.8524C11.6603 11.524 12.2676 12.0027 12.8534 12.2813C12.8534 10.7667 14.8896 9.28779 16.6257 11.031L17.2258 11.7669C18.7119 10.4238 18.6118 8.53048 18.0903 7.41594C17.1044 5.33691 14.7395 5.12972 14.2109 5.15115C13.475 5.17973 12.8034 4.76535 12.5176 4.05805C11.5388 5.57267 9.85989 8.52333 11.2602 10.8524V10.8524ZM17.183 15.7392L15.7755 16.8895C15.6397 17.0038 15.6183 17.2038 15.7326 17.3396L16.3685 18.1183C16.4399 18.2041 16.64 18.3112 16.8186 18.1612L18.2189 17.0181L18.6118 17.5039C18.9619 17.9326 19.5978 17.4039 19.2548 16.9824C14.711 11.3883 16.2899 13.3315 15.304 12.117C14.9682 11.6883 14.3109 12.217 14.661 12.6385C14.7967 12.8029 15.9755 14.2532 16.0756 14.3746L15.3897 14.939C15.061 15.2105 15.5754 15.8893 15.9184 15.6106L16.6114 15.0391L17.183 15.7392V15.7392ZM25.642 17.5754C24.4346 15.8821 22.5984 14.2389 20.398 13.2601C19.8335 13.01 19.3263 12.8243 18.7619 12.6457C18.619 12.8029 18.469 12.9529 18.3046 13.0886L20.5837 15.8893C21.3267 16.7966 21.191 18.1398 20.2836 18.8828C20.1908 18.9614 19.3477 19.6472 18.2118 19.2329C18.0046 19.3972 17.4902 19.9402 16.6257 19.9402C16.0113 19.9402 15.4397 19.6687 15.0468 19.19L14.4109 18.4113C13.9608 17.854 13.8465 17.1324 14.0537 16.4965C13.4678 15.7892 13.4607 14.9748 13.725 14.3532C13.2106 14.2603 11.8175 13.9102 10.6744 12.8243C6.68775 14.3032 4.38724 17.4253 3.43702 19.34C2.3725 21.4977 2.09387 23.691 2.01528 25.7843C2.60112 25.1628 1.73664 26.0773 10.16 17.1467L8.02376 23.8339C12.1533 21.612 16.8829 21.2619 22.1269 22.8051C23.813 23.2981 25.3491 22.9194 26.1278 21.812C26.9208 20.6975 26.7351 19.1186 25.642 17.5754V17.5754ZM8.1738 5.36548L9.28833 5.43693L9.35978 4.32239L8.24524 4.25095L8.1738 5.36548Z" fill="#0165E1" /></svg>