<svg width="32" height="32" viewBox="0 0 32 32" fill="none" xmlns="http://www.w3.org/2000/svg">
 <path  d= "M3.9875 25.6L7.76875 21.9125C9.775 24.5875 12.2125 26.0375 15.6812 26.125C17.5875 26.1688 19.45 25.6875 21.0812 24.725C21.4 25.0563 22.2375 25.9438 22.3875 26.1C20.375 27.3938 18.0375 28.0438 15.6313 27.9875C12.925 27.9188 10.3437 26.9438 8.275 25.2125C8.29375 25.175 5.8875 27.5563 5.8625 27.5813C6.45625 29.4438 5.04375 31.4813 2.96875 31.4813C1.29375 31.475 0 30.125 0 28.45C0 26.3063 2.06875 24.9125 3.9875 25.6V25.6ZM26.1688 9.82505C27.3625 11.7813 28.0187 14.0375 27.9625 16.325C27.8937 19.125 26.775 21.7938 24.925 23.8875C24.9437 23.9063 26.4125 25.4625 26.4312 25.4813C27.0312 25.4 27.6312 25.6063 28.05 26.05C28.7562 26.8 28.7313 27.9813 27.9813 28.7C27.2313 29.4063 26.05 29.3813 25.3312 28.6313C24.9125 28.1938 24.7438 27.5813 24.8563 26.9875C23.3 25.325 22.0812 24.0375 22.0812 24.0375C24.75 21.9063 26.0375 19.0625 26.1063 16.275C26.15 14.4688 25.6563 12.7 24.7875 11.1375L26.1688 9.82505V9.82505ZM6.5 3.33755C6.91875 3.77505 7.0875 4.38755 6.975 4.9813L9.84375 7.98755C9.55 8.22505 9.0125 8.63755 8.41875 9.3188C6.83125 11.1 5.94375 13.3688 5.875 15.75C5.83125 17.5563 6.25625 19.325 7.125 20.9L5.75 22.2438C4.54375 20.2688 3.94375 18.0125 4.0125 15.7C4.075 12.9125 5.15625 10.225 6.98125 8.1313L5.4 6.4813C4.8 6.56255 4.2 6.3563 3.78125 5.91255C3.075 5.16255 3.1 3.9813 3.85 3.26255C4.59375 2.56255 5.7625 2.5813 6.5 3.33755ZM29.0562 0.518799C30.6812 0.518799 32 1.9188 32 3.53755C32 5.1563 30.6812 6.5188 29.0562 6.5188C28.6625 6.52505 28.1812 6.45005 28.0625 6.4063L24.1313 10.1375C22.0875 7.41255 19.3375 6.0188 16.2 5.93755C14.2938 5.8938 12.4312 6.36255 10.8125 7.33755L9.49375 5.96255C11.5062 4.66255 13.8438 4.0188 16.25 4.07505C18.9562 4.1438 21.5375 5.1188 23.6063 6.86255L26.175 4.45005C26.0812 4.1563 26.0375 3.85005 26.0375 3.5438C26.0313 1.87505 27.4312 0.518799 29.0562 0.518799ZM16.0438 7.1063C16.3875 7.1063 16.725 7.1313 17.0688 7.17505C21.95 7.78755 25.4062 12.2438 24.8062 17.1188C24.1937 22 19.7375 25.4563 14.8625 24.8563C9.98125 24.2438 6.525 19.7875 7.125 14.9063C7.70625 10.3813 11.5063 7.1188 16.0438 7.1063V7.1063ZM12.3562 14.5688C12.3937 15.9875 13.1188 17.1813 14.3813 17.8313L13.6938 21.0625H18.3L17.6125 17.8313C18.8687 17.15 19.6188 16.0188 19.6375 14.5688C19.6125 12.5188 18.025 10.975 15.9937 10.925C13.9875 10.975 12.4125 12.475 12.3562 14.5688Z" fill="#0165E1" /></svg>