<svg width="32" height="32" viewBox="0 0 32 32" fill="none" xmlns="http://www.w3.org/2000/svg">
 <path  d= "M28.5714 32H3.42857C1.54286 32 0 30.4571 0 28.5714V3.42857C0 1.54286 1.54286 0 3.42857 0H28.5714C30.4571 0 32 1.54286 32 3.42857V28.5714C32 30.4571 30.4571 32 28.5714 32ZM14.2571 10.4643C14.2571 8.27143 13 7.24286 11.4214 7.24286C9.57857 7.24286 8.56429 8.65714 8.56429 10.4214V21.4786C8.56429 23.3214 9.54286 24.7357 11.4571 24.7357C12.9929 24.7357 14.2571 23.7357 14.2571 21.4786V18.4929L18.5857 23.9C19.4643 24.9643 21.3714 25.1 22.5714 23.9C23.6143 22.8214 23.6286 21.2714 22.8571 20.3L19.35 15.8143L22.2429 11.6214C22.9143 10.6571 22.9214 9.15714 21.8429 8.11429C20.6714 6.97857 18.6571 6.87857 17.4571 8.61429L14.2571 13.2357V10.4643V10.4643Z" fill="#0165E1" /></svg>