<svg width="28" height="32" viewBox="0 0 28 32" fill="none" xmlns="http://www.w3.org/2000/svg">
 <path  d= "M10.8065 5.8866C10.8065 1.87171 8.48469 0 5.56282 0C2.15516 0 0.283447 2.5861 0.283447 5.81516V26.0325C0.283447 29.4116 2.09086 31.9905 5.63426 31.9905C8.47754 31.9905 10.8065 30.1617 10.8065 26.0325V20.5674L18.8148 30.4475C20.4365 32.3906 23.9656 32.6406 26.1874 30.4475C28.1162 28.4757 28.1377 25.6324 26.716 23.8607L20.2293 15.6595L25.5801 7.98692C26.8232 6.22237 26.8303 3.4791 24.8372 1.57167C22.6725 -0.500076 18.9506 -0.685818 16.7216 2.48609L10.8065 10.9302V5.8866Z" fill="#0165E1" /></svg>