<svg width="32" height="22" viewBox="0 0 32 22" fill="none" xmlns="http://www.w3.org/2000/svg">
 <path  d= "M31.8757 10.278C31.6657 10.038 28.7361 6.37346 28.2212 5.75353C27.7062 5.1336 27.4512 5.24359 27.1363 5.28858C26.8163 5.33358 23.1118 5.9585 22.6818 6.0285C22.2519 6.10349 21.9819 6.27347 22.2469 6.64342C22.4818 6.97338 24.9165 10.428 25.4565 11.1879L15.7726 13.5076L8.06353 0.634133C7.75857 0.179187 7.69358 0.0192057 6.99366 0.0542016C6.29374 0.084198 0.949374 0.529145 0.569419 0.564141C0.189463 0.594138 -0.230487 0.764118 0.149468 1.66401C0.529423 2.56391 6.59871 15.6424 6.76869 16.0223C6.93867 16.4023 7.37861 17.0222 8.40849 16.7722C9.46337 16.5173 13.1229 15.5624 15.1227 15.0374C16.1776 16.9522 18.3323 20.8317 18.7323 21.3867C19.2622 22.1316 19.6322 22.0066 20.4471 21.7566C21.087 21.5617 30.4259 18.2021 30.8458 18.0321C31.2658 17.8571 31.5258 17.7371 31.2408 17.3122C31.0308 17.0022 28.5661 13.7026 27.2763 11.9728C28.1612 11.7378 31.3058 10.9029 31.6407 10.8079C32.0357 10.7079 32.0907 10.518 31.8757 10.278ZM14.2678 13.8776C14.1528 13.9026 8.72845 15.2024 8.43849 15.2674C8.14852 15.3324 8.14852 15.3024 8.11353 15.2024C8.07853 15.1024 1.66429 1.86899 1.5743 1.70401C1.48431 1.53903 1.48931 1.40904 1.5743 1.40904C1.65929 1.40904 6.69869 0.959095 6.87367 0.949096C7.05365 0.939097 7.03365 0.979092 7.09865 1.08908C7.09865 1.08908 14.2078 13.3576 14.3278 13.5726C14.4578 13.7876 14.3828 13.8526 14.2678 13.8776ZM29.566 16.7472C29.651 16.8822 29.741 16.9722 29.466 17.0672C29.196 17.1672 20.2821 20.1718 20.1121 20.2468C19.9371 20.3218 19.8021 20.3468 19.5822 20.0218C19.3622 19.6969 16.4625 14.6825 16.4625 14.6825L25.9014 12.2278C26.1364 12.1528 26.2114 12.1028 26.3614 12.3377C26.5064 12.5777 29.481 16.6122 29.566 16.7472V16.7472ZM30.1709 10.043C29.9609 10.088 26.4914 10.9479 26.4914 10.9479L23.6567 7.05837C23.5767 6.94339 23.5117 6.8334 23.7117 6.8084C23.9117 6.78341 27.1313 6.19848 27.2763 6.16848C27.4212 6.13348 27.5462 6.09349 27.7262 6.33846C27.9062 6.58343 30.3559 9.68806 30.4509 9.80805C30.5409 9.92304 30.3809 9.99303 30.1709 10.043V10.043Z" fill="#0165E1" /></svg>