<svg width="32" height="32" viewBox="0 0 32 32" fill="none" xmlns="http://www.w3.org/2000/svg">
 <path  d= "M28.5714 0H3.42857C1.53571 0 0 1.53571 0 3.42857V28.5714C0 30.4643 1.53571 32 3.42857 32H28.5714C30.4643 32 32 30.4643 32 28.5714V3.42857C32 1.53571 30.4643 0 28.5714 0ZM21.9857 22.35C17.4571 22.35 15.8857 20.3071 15.05 17.7714C13.8857 14.1286 13.5143 11.75 10.55 11.75C8.95 11.75 7.32857 12.9 7.32857 16.1214C7.32857 18.6357 8.61429 20.2071 10.4214 20.2071C12.4643 20.2071 13.8214 18.6857 13.8214 18.6857L14.6571 20.9643C14.6571 20.9643 13.2429 22.35 10.2857 22.35C6.62143 22.35 4.57857 20.2 4.57857 16.2214C4.57857 12.0857 6.62143 9.65 10.4714 9.65C15.7214 9.65 16.2429 12.6071 17.6714 16.9286C18.3 18.8429 19.4 20.2286 22.0429 20.2286C23.8214 20.2286 24.7643 19.8357 24.7643 18.8643C24.7643 17.4429 23.2071 17.2929 21.2 16.8214C19.0286 16.3 18.1643 15.1714 18.1643 13.3929C18.1643 10.5357 20.4714 9.65 22.8214 9.65C25.4929 9.65 27.1143 10.6214 27.3214 12.9786L24.7 13.2929C24.5929 12.1643 23.9143 11.6929 22.6571 11.6929C21.5071 11.6929 20.8 12.2143 20.8 13.1071C20.8 13.8929 21.1429 14.3643 22.2929 14.6286C24.6286 15.1357 27.4214 15.4857 27.4214 18.7357C27.4286 21.3571 25.2286 22.35 21.9857 22.35V22.35Z" fill="#0165E1" /></svg>