<svg width="32" height="18" viewBox="0 0 32 18" fill="none" xmlns="http://www.w3.org/2000/svg">
 <path  d= "M14.1125 15.9438L12.9375 12.7563C12.9375 12.7563 11.0313 14.8813 8.175 14.8813C5.64375 14.8813 3.85 12.6813 3.85 9.16255C3.85 4.6563 6.125 3.0438 8.35625 3.0438C12.5125 3.0438 13.0313 6.37505 14.6625 11.475C15.8375 15.0313 18.0375 17.8876 24.375 17.8876C28.9187 17.8876 32 16.4938 32 12.8313C32 8.27505 28.0812 7.7938 24.8125 7.07505C23.2 6.7063 22.725 6.05005 22.725 4.95005C22.725 3.7063 23.7125 2.9688 25.325 2.9688C27.0875 2.9688 28.0375 3.6313 28.1812 5.2063L31.8438 4.7688C31.55 1.4688 29.275 0.112549 25.5375 0.112549C22.2375 0.112549 19.0125 1.3563 19.0125 5.3563C19.0125 7.85005 20.225 9.42505 23.2625 10.1563C26.0688 10.8188 28.25 11.0188 28.25 13.0125C28.25 14.3688 26.9313 14.9188 24.4375 14.9188C20.7375 14.9188 19.1938 12.975 18.3188 10.3C16.3188 4.25005 15.5938 0.112549 8.2375 0.112549C2.85625 0.112549 0 3.5188 0 9.31255C0 14.8813 2.85625 17.8876 7.99375 17.8876C12.1312 17.8876 14.1125 15.9438 14.1125 15.9438V15.9438Z" fill="#0165E1" /></svg>