<svg width="32" height="22" viewBox="0 0 32 22" fill="none" xmlns="http://www.w3.org/2000/svg">
 <path  d= "M21.6094 2.77341L22.4687 16.9453L21.8437 16.9296C19.7812 16.8827 17.7656 17.4296 15.9999 18.5233C14.2343 17.4296 12.2187 16.9296 10.1562 16.9296C7.56241 16.9296 5.4843 17.539 3.12497 18.5077L4.90622 3.80461C6.53121 3.13272 8.40622 2.77341 10.1562 2.77341C12.5 2.77341 14.3594 3.5234 16 5.19524C17.5781 3.58591 19.3593 2.82026 21.6094 2.77341ZM32 21.9296C30.5469 21.9296 29.2969 21.6328 27.9844 21.039C26.0313 20.1484 24 19.6172 21.8438 19.6172C19.625 19.6172 17.5781 20.3516 16 21.9296C14.4219 20.3515 12.375 19.6172 10.1562 19.6172C8 19.6172 5.96873 20.1484 4.01563 21.039C2.75001 21.6015 1.46873 21.9296 0.0781585 21.9296H-9.77188e-09L2.42189 2.05467C4.65626 0.789052 7.37502 0.0703125 9.95311 0.0703125C12.0625 0.0703125 14.2344 0.507784 16 1.72655C17.7656 0.507784 19.9375 0.0703125 22.0469 0.0703125C24.625 0.0703125 27.3437 0.789052 29.5781 2.05467L32 21.9296ZM29.5313 19.3827L27.5938 3.42965C25.8438 2.63275 23.7656 2.21088 21.8438 2.21088C19.6563 2.21088 17.6094 2.89836 16 4.414C14.3906 2.89836 12.3438 2.21088 10.1562 2.21088C8.23436 2.21088 6.15625 2.63275 4.40625 3.42965L2.46874 19.3827C5.15624 18.2734 7.18751 17.4765 10.1562 17.4765C12.2968 17.4765 14.1875 18.0234 16 19.164C17.8125 18.0234 19.7031 17.4765 21.8438 17.4765C24.8125 17.4765 26.8438 18.2734 29.5313 19.3827Z" fill="#0165E1" /></svg>