<svg width="32" height="14" viewBox="0 0 32 14" fill="none" xmlns="http://www.w3.org/2000/svg">
 <path  d= "M30.6348 5.14715C30.6348 4.12199 30.7948 3.51689 30.7948 2.41672C30.7948 0.706454 30.1647 0.156368 28.7695 0.156368H27.7443V1.36656H28.0594C28.7695 1.36656 28.9245 1.60159 28.9245 2.47173C28.9245 3.28686 28.8445 4.10198 28.8445 5.04713C28.8445 6.25732 29.2396 6.72739 30.0247 6.91242V6.99244C29.2346 7.17746 28.8445 7.64754 28.8445 8.85773C28.8445 9.80288 28.9245 10.568 28.9245 11.4331C28.9245 12.3283 28.7395 12.5633 28.0594 12.5633V12.5883H27.7443V13.8485H28.7695C30.1597 13.8485 30.7948 13.2984 30.7948 11.5882C30.7948 10.458 30.6348 9.87789 30.6348 8.85773C30.6348 8.30764 30.9748 7.72755 32 7.67754V6.31233C30.9748 6.27732 30.6348 5.69723 30.6348 5.14715V5.14715ZM25.354 6.7474C24.5638 6.43235 23.8287 6.24732 23.8287 5.72224C23.8287 5.32718 24.1438 5.09214 24.7239 5.09214C25.304 5.09214 25.829 5.32718 26.4041 5.74724L27.4543 4.35702C26.7992 3.85695 25.904 3.33186 24.6939 3.33186C22.9086 3.33186 21.6984 4.35702 21.6984 5.80225C21.6984 7.08745 22.8286 7.74755 23.7737 8.11261C24.5888 8.42766 25.379 8.6927 25.379 9.21778C25.379 9.61284 25.0639 9.87289 24.3538 9.87289C23.6987 9.87289 23.0386 9.60784 22.3285 9.05776L21.2783 10.583C22.0684 11.2381 23.2736 11.6882 24.2738 11.6882C26.3741 11.6882 27.5043 10.583 27.5043 9.13777C27.5043 7.69254 26.3791 7.08745 25.354 6.7474V6.7474ZM7.40616 9.71786C7.22113 9.71786 6.98609 9.55784 6.98609 9.06276V0.151367H3.25551C1.83529 0.151367 1.20519 0.701453 1.20519 2.41172C1.20519 3.5419 1.36521 4.172 1.36521 5.14215C1.36521 5.69223 1.02516 6.27232 0 6.32233V7.68754C1.02516 7.71255 1.36521 8.29264 1.36521 8.84272C1.36521 9.81288 1.20519 10.393 1.20519 11.5231C1.20519 13.2334 1.83529 13.7835 3.2305 13.7835H4.25566V12.5733H3.94062C3.28551 12.5733 3.07548 12.3083 3.07548 11.4431C3.07548 10.578 3.15549 9.83788 3.15549 8.86773C3.15549 7.65754 2.76043 7.18747 1.97531 7.00244V6.92242C2.76543 6.7374 3.15549 6.26732 3.15549 5.05713C3.15549 4.11199 3.07548 3.34687 3.07548 2.48173C3.07548 1.6166 3.26051 1.37656 3.94062 1.37656H4.64573V8.91774C4.64573 10.523 5.19581 11.5732 6.80106 11.5732C7.30114 11.5732 7.6962 11.4931 7.98125 11.3881L7.7162 9.67786C7.56118 9.71786 7.48617 9.71786 7.40616 9.71786V9.71786ZM18.993 6.7474C18.1778 6.43235 17.4427 6.24732 17.4427 5.72224C17.4427 5.32718 17.7578 5.09214 18.3379 5.09214C18.918 5.09214 19.443 5.32718 20.0181 5.74724L21.0683 4.35702C20.4132 3.85695 19.518 3.33186 18.3079 3.33186C16.5226 3.33186 15.3124 4.35702 15.3124 5.80225C15.3124 7.08745 16.4426 7.74755 17.3877 8.11261C18.2028 8.42766 18.993 8.6927 18.993 9.21778C18.993 9.61284 18.6779 9.87289 17.9678 9.87289C17.3127 9.87289 16.6526 9.60784 15.9425 9.05776L14.9173 10.583C15.7075 11.2381 16.9126 11.6882 17.9128 11.6882C20.0131 11.6882 21.1433 10.583 21.1433 9.13777C21.1483 7.69254 20.0181 7.08745 18.993 6.7474V6.7474ZM11.2418 3.30686C9.32146 3.30686 7.48617 4.91211 7.53618 7.43251C7.53618 10.0329 9.24644 11.5581 11.5018 11.5581C12.4469 11.5581 13.4971 11.2181 14.3122 10.663L13.5221 9.27279C12.942 9.61285 12.3919 9.77287 11.8118 9.77287C10.7617 9.77287 9.94655 9.27279 9.73652 8.0626H14.4973C14.5223 7.87757 14.5773 7.51252 14.5773 7.09245C14.6073 4.96212 13.4471 3.30686 11.2418 3.30686V3.30686ZM9.74152 6.61738C9.90155 5.56721 10.5316 5.06713 11.2668 5.06713C12.2119 5.06713 12.582 5.72224 12.582 6.61738H9.74152Z" fill="#0165E1" /></svg>