<svg width="32" height="32" viewBox="0 0 32 32" fill="none" xmlns="http://www.w3.org/2000/svg">
 <path  d= "M19.4357 12.3V17.3786C19.4357 17.5071 19.3357 17.6071 19.2071 17.6071H18.3929C18.3143 17.6071 18.2429 17.5643 18.2071 17.5143L15.8786 14.3714V17.3857C15.8786 17.5143 15.7786 17.6143 15.65 17.6143H14.8357C14.7071 17.6143 14.6071 17.5143 14.6071 17.3857V12.3071C14.6071 12.1786 14.7071 12.0786 14.8357 12.0786H15.6429C15.7143 12.0786 15.7929 12.1143 15.8286 12.1786L18.1571 15.3214V12.3071C18.1571 12.1786 18.2571 12.0786 18.3857 12.0786H19.2C19.3286 12.0714 19.4357 12.1786 19.4357 12.3V12.3ZM13.5786 12.0714H12.7643C12.6357 12.0714 12.5357 12.1714 12.5357 12.3V17.3786C12.5357 17.5071 12.6357 17.6071 12.7643 17.6071H13.5786C13.7071 17.6071 13.8071 17.5071 13.8071 17.3786V12.3C13.8071 12.1786 13.7071 12.0714 13.5786 12.0714V12.0714ZM11.6143 16.3286H9.39286V12.3C9.39286 12.1714 9.29286 12.0714 9.16429 12.0714H8.35001C8.22144 12.0714 8.12143 12.1714 8.12143 12.3V17.3786C8.12143 17.4429 8.14286 17.4929 8.18572 17.5357C8.22858 17.5714 8.27858 17.6 8.34286 17.6H11.6071C11.7357 17.6 11.8357 17.5 11.8357 17.3714V16.5571C11.8357 16.4357 11.7357 16.3286 11.6143 16.3286V16.3286ZM23.7214 12.0714H20.4571C20.3357 12.0714 20.2286 12.1714 20.2286 12.3V17.3786C20.2286 17.5 20.3286 17.6071 20.4571 17.6071H23.7214C23.85 17.6071 23.95 17.5071 23.95 17.3786V16.5643C23.95 16.4357 23.85 16.3357 23.7214 16.3357H21.5V15.4786H23.7214C23.85 15.4786 23.95 15.3786 23.95 15.25V14.4286C23.95 14.3 23.85 14.2 23.7214 14.2H21.5V13.3429H23.7214C23.85 13.3429 23.95 13.2429 23.95 13.1143V12.3C23.9428 12.1786 23.8428 12.0714 23.7214 12.0714V12.0714ZM32 5.83572V26.2143C31.9928 29.4143 29.3714 32.0071 26.1643 32H5.78572C2.58573 31.9928 -0.00712813 29.3643 1.47226e-05 26.1643V5.78572C0.00715757 2.58573 2.63573 -0.00712813 5.83572 1.47226e-05H26.2143C29.4143 0.00715757 32.0071 2.62858 32 5.83572ZM27.6 14.5929C27.6 9.37858 22.3714 5.13572 15.95 5.13572C9.52858 5.13572 4.30001 9.37858 4.30001 14.5929C4.30001 19.2643 8.44286 23.1786 14.0429 23.9214C15.4071 24.2143 15.25 24.7143 14.9429 26.55C14.8929 26.8428 14.7071 27.7 15.95 27.1786C17.1929 26.6571 22.6571 23.2286 25.1071 20.4143C26.7928 18.5571 27.6 16.6786 27.6 14.5929Z" fill="#0165E1" /></svg>