<svg width="32" height="32" viewBox="0 0 32 32" fill="none" xmlns="http://www.w3.org/2000/svg">
 <path  d= "M7.16269 31.9964H0.528453V10.6369H7.16269V31.9964V31.9964ZM3.842 7.72325C1.72104 7.72325 0 5.96649 0 3.84554C0 1.72458 1.72104 0.00354004 3.842 0.00354004C5.96295 0.00354004 7.684 1.72458 7.684 3.84554C7.684 5.96649 5.96295 7.72325 3.842 7.72325ZM31.9929 31.9964H25.3729V21.5987C25.3729 19.1207 25.3229 15.9428 21.9237 15.9428C18.4744 15.9428 17.946 18.6351 17.946 21.4202V31.9964H11.3189V10.6369H17.6818V13.5505H17.7746C18.6601 11.8723 20.8239 10.1013 24.0518 10.1013C30.7646 10.1013 32 14.5217 32 20.2633V31.9964H31.9929Z" fill="#0165E1" /></svg>