<svg width="28" height="32" viewBox="0 0 28 32" fill="none" xmlns="http://www.w3.org/2000/svg">
 <path  d= "M27.3384 14.1438C27.3197 14.0875 27.2822 14.0563 27.2509 14.0188L22.8759 11.6062C22.8197 11.5687 22.7509 11.5687 22.6822 11.6062L19.0009 13.8562C18.9447 13.8937 18.9134 13.9625 18.9134 14.0188L18.8572 15.9812L17.3572 14.9812C17.3009 14.9437 17.2134 14.9437 17.1634 14.9812L15.0009 16.3062L14.9134 14.1125C14.9134 14.0563 14.8759 13.9875 14.8259 13.9688L12.5759 12.45L14.6822 11.3625C14.7509 11.325 14.7884 11.2562 14.7884 11.1812L14.4322 2.9125C14.4322 2.85625 14.3759 2.7875 14.3259 2.75L8.66344 0.01875C8.60719 0 8.55719 0 8.51969 0L0.788442 2.4125C0.700942 2.45 0.644692 2.5375 0.663442 2.64375L2.37594 10.9625C2.43219 11.175 4.50094 12.675 4.78844 12.8938L3.10719 13.7C3.01969 13.7562 2.98219 13.8438 3.00094 13.9125L4.28844 20.1812C4.32594 20.3625 5.76969 21.625 5.98219 21.825L4.89469 22.4875C4.83844 22.525 4.78844 22.6125 4.80719 22.6812C4.89469 23.125 5.76969 27.5375 5.86344 27.625L9.93219 31.9438C9.96969 31.9813 10.0197 31.9812 10.0759 32C10.1134 32 10.1447 31.9812 10.1822 31.9625L15.4134 27.7812C15.4697 27.7437 15.4822 27.6938 15.4822 27.6375L15.3572 24.7625L17.1072 26.2437C17.1759 26.3 17.2884 26.3 17.3572 26.2437L21.5384 22.9062C21.5947 22.8687 21.6072 22.8188 21.6072 22.7625L21.7509 20.675L23.0197 21.55C23.0884 21.6062 23.1822 21.6062 23.2509 21.55L26.6634 18.8188C26.7009 18.8 26.7322 18.75 26.7322 18.6938C26.7884 18.2875 27.3759 14.2688 27.3384 14.1438V14.1438ZM14.5384 14.4438L14.7884 20.2313L9.12594 24.0562L8.25094 18.0187L14.5384 14.4438V14.4438ZM14.0572 3.19375L14.3947 11.0688L7.73219 14.5312L6.50094 6.10625L14.0572 3.19375V3.19375ZM2.75094 10.8188L1.12594 3L6.10719 6.0875L7.31969 14.3938L2.75094 10.8188ZM4.66344 20.0562L3.48219 14.375L7.85719 18.0187L8.71344 23.8563L4.66344 20.0562V20.0562ZM6.18219 27.4125L5.32594 23.2188L9.18219 27.025L9.78844 31.2375L6.18219 27.4125V27.4125ZM10.2134 31.4438L9.55094 27.0125L14.9072 23.175L15.1009 27.55L10.2134 31.4438ZM15.3384 24.25C15.3384 24.0375 15.3947 22.8187 15.2134 22.6812L13.6947 21.4312L15.0884 20.5C15.2322 20.3937 15.1572 20.1437 15.1572 20L16.9947 21.4125L17.0322 25.6812L15.3384 24.25V24.25ZM21.2322 22.6625L17.4259 25.7L17.3884 21.4125L21.4947 18.4813L21.2322 22.6625ZM22.9634 21.0562L21.7697 20.2188L21.8947 18.0938C21.9134 18.0375 21.8759 17.9687 21.8259 17.9312L19.2509 16.2313L19.2884 14.3562L23.3259 16.8937L22.9634 21.0562V21.0562ZM26.3759 18.5688L23.3572 20.9625L23.7134 16.8937L26.9072 14.6062L26.3759 18.5688V18.5688Z" fill="#0165E1" /></svg>