<svg width="28" height="32" viewBox="0 0 28 32" fill="none" xmlns="http://www.w3.org/2000/svg">
 <path  d= "M12.2502 7.72438C12.2377 7.63688 12.369 7.58064 12.4502 7.54314C12.5565 7.49939 12.6939 7.48065 12.7939 7.53689C12.8189 7.54939 12.8439 7.58064 12.8314 7.60564C12.8064 7.68063 12.6814 7.66813 12.6127 7.70563C12.5502 7.73687 12.5002 7.81187 12.4252 7.81187C12.3627 7.81812 12.2565 7.78687 12.2502 7.72438V7.72438ZM13.7939 7.70563C13.8563 7.73687 13.9063 7.81187 13.9813 7.81187C14.0501 7.81187 14.1563 7.78687 14.1626 7.71813C14.1751 7.63063 14.0438 7.57439 13.9626 7.53689C13.8563 7.49314 13.7189 7.4744 13.6189 7.53064C13.5939 7.54314 13.5689 7.57439 13.5814 7.59939C13.6001 7.68063 13.7251 7.66813 13.7939 7.70563V7.70563ZM27.2115 27.0915C27.1802 27.604 26.8053 27.9539 26.3428 28.2352C25.4116 28.7976 24.0118 29.2226 23.1618 30.2475L22.9993 30.11L23.1618 30.2475C22.2744 31.3037 21.1807 31.9099 20.1433 31.9911C19.1122 32.0723 18.1435 31.5974 17.6248 30.5537V30.5475C17.556 30.4162 17.506 30.2725 17.4685 30.1288C16.1249 30.2038 14.9563 29.7975 14.0251 29.8725C12.6502 29.9475 11.7878 30.2787 11.0066 30.285C10.7066 30.9474 10.1129 31.3849 9.38797 31.5474C8.38805 31.7786 7.1319 31.5474 5.89451 30.8974L5.9945 30.71L5.89451 30.8974C4.73835 30.285 3.26973 30.3412 2.18857 30.1163C1.64486 30.0038 1.1699 29.8038 0.93242 29.3476C0.701189 28.8914 0.744936 28.2664 1.06991 27.3665C1.17615 27.0478 1.09491 26.5728 1.01991 26.0666C0.982416 25.8229 0.944919 25.5729 0.944919 25.3292C0.944919 25.0604 0.988665 24.798 1.1199 24.5542C1.40113 24.023 1.85734 23.798 2.27606 23.648C2.69477 23.4981 3.07599 23.3981 3.33847 23.1293C3.66344 22.7856 3.96967 22.2294 4.37588 21.8669C4.2134 20.792 4.38838 19.6546 4.76335 18.536C5.55079 16.1674 7.21315 13.8989 8.3943 12.4927C9.40047 11.0616 9.69419 9.91169 9.80043 8.44931C9.86918 6.46198 8.26931 -0.0124809 14.6688 1.80719e-05C19.7246 0.00626755 19.4371 5.33707 19.4059 8.20559C19.3871 10.0867 20.4245 11.3616 21.4932 12.7052C22.4431 13.8301 23.6868 15.4737 24.3992 17.3548C24.9804 18.8922 25.2054 20.5921 24.6304 22.2982C24.7179 22.3294 24.8054 22.3732 24.8867 22.4232C24.9742 22.4731 25.0554 22.5356 25.1367 22.6044C25.5491 22.9544 25.6804 23.4981 25.7929 24.0043C25.9116 24.5105 26.0178 24.9854 26.2428 25.2354C26.9365 26.0104 27.2365 26.5791 27.2115 27.0915ZM13.7939 6.8182C14.0188 6.87445 14.3501 6.96819 14.6063 7.09318C14.475 6.33074 14.8875 5.62455 15.3437 5.6558C15.8999 5.67455 16.2124 6.62447 15.9124 7.36191C15.8624 7.48065 15.7374 7.57439 15.6687 7.64938C16.0874 7.79312 16.3561 7.90561 16.4561 7.95561C16.9498 7.36191 17.1311 6.31824 16.7249 5.43082C16.1124 4.09343 14.5875 4.06843 13.9751 5.45581C13.7751 5.90578 13.7314 6.38699 13.7939 6.8182V6.8182ZM10.9066 7.9931C11.394 7.63688 11.3378 7.69938 11.2753 7.64938C10.7754 7.21817 10.8628 5.93702 11.3878 5.89328C11.7815 5.86203 12.0627 6.56197 11.9877 7.11818C12.1815 6.98694 12.4065 6.89319 12.6252 6.8307C12.7314 5.62455 12.0627 4.73712 11.4315 4.73712C10.2504 4.73712 9.93167 7.08068 10.9066 7.9931V7.9931ZM10.3191 9.29924C10.4129 9.60547 10.7004 9.95544 11.2378 10.2554C11.7253 10.5429 11.9877 10.9741 12.4877 11.1928C12.6502 11.2616 12.8439 11.3116 13.0877 11.3241C14.2376 11.3928 14.7813 10.6179 15.475 10.3929C16.2061 10.1617 16.7311 9.70546 16.8936 9.26175C17.0936 8.73054 16.7624 8.34307 16.2374 8.12434C15.5312 7.81812 15.2187 7.79937 14.825 7.54314C14.1813 7.13067 13.6501 6.98694 13.2064 6.98694C12.3065 6.98694 11.7565 7.59939 11.4628 7.87436C11.4315 7.90561 10.9691 8.24308 10.5816 8.53056C10.3191 8.73679 10.2316 8.99302 10.3191 9.29924V9.29924ZM8.22556 25.0979L7.00067 22.8731C6.5757 22.2982 6.13824 21.9482 5.63203 21.8732C5.15082 21.7982 4.84459 21.9607 4.52587 22.3044C4.2259 22.6231 3.97592 23.0731 3.6322 23.4293C3.14474 23.8355 3.05099 23.8168 2.4073 24.048C2.01358 24.1855 1.70111 24.3355 1.48237 24.7542C1.31364 25.0667 1.35114 25.5166 1.42613 26.0041C1.50112 26.4978 1.61361 27.0228 1.46363 27.4977V27.5102C1.15115 28.3664 1.15115 28.8664 1.30114 29.1601C1.79485 30.1225 4.2134 29.5413 6.08199 30.5287C8.04433 31.5536 10.6191 31.5974 10.7878 29.4038C10.9191 28.1227 8.81926 26.3416 8.22556 25.0979V25.0979ZM17.8435 27.3352C18.0435 26.6478 18.2372 26.0041 18.2685 25.5229C18.3185 24.573 18.3685 23.7293 18.5435 23.0294C18.7372 22.2419 19.1247 21.5857 19.8808 21.3232C20.0246 20.0046 21.0495 20.0046 22.2744 20.5421C23.4555 21.0733 23.8993 21.542 23.6993 22.1732C23.7618 22.1732 23.8243 22.1669 23.9618 22.1732C24.2867 21.117 23.0681 20.4233 22.0432 19.9984C22.2244 19.2484 22.1932 18.4922 22.0182 17.7673C21.6432 16.1862 20.6058 14.78 19.8183 14.0801C19.6746 14.0738 19.6871 14.1988 19.9808 14.4863C20.7058 15.155 22.2994 17.5611 21.437 19.7921C21.1932 19.7296 20.962 19.6984 20.7558 19.7046C20.4245 17.886 19.6621 16.3799 19.2809 15.6675C18.5622 14.3301 17.4373 11.5866 16.9561 9.68671C16.6749 10.0867 16.1812 10.4304 15.5625 10.6241C15.2687 10.7179 14.9563 10.9679 14.5688 11.1866C13.7001 11.6865 12.6939 11.7365 11.919 11.1116C11.6378 10.8866 11.419 10.6366 11.1316 10.4679C11.0316 10.4117 10.8128 10.2617 10.7441 10.2117C10.6191 12.574 9.038 15.5425 8.28806 17.2548C7.76935 18.486 7.46313 19.8046 7.42563 21.0983C6.06324 19.2797 7.05691 16.9549 7.58812 15.9487C8.18182 14.8488 8.27556 14.5426 8.13182 14.6488C7.59437 15.5237 6.75694 16.9174 6.43196 18.3485C6.26323 19.0922 6.23198 19.8484 6.45071 20.5483C6.66944 21.2482 7.1444 21.8919 7.98808 22.4169C7.98808 22.4169 9.53795 23.3106 10.3816 24.448C10.8441 25.0729 10.9878 25.6166 10.8441 26.0041C10.6879 26.4228 10.2441 26.5603 9.80043 26.5603C10.1004 26.9353 10.4441 27.3727 10.7004 27.7852C13.0502 29.3913 15.8374 28.7664 17.8435 27.3352V27.3352ZM25.9303 25.5291C25.3054 24.823 25.4804 23.4606 24.8617 22.9294C24.4305 22.5544 24.0117 22.5919 23.4493 22.6106C22.9681 23.1606 21.8369 23.8355 21.0495 23.6293C20.3308 23.4481 19.9246 22.6106 19.8746 21.7857C19.8558 21.7982 19.8308 21.8045 19.8121 21.817C19.3684 22.0607 19.1184 22.4919 18.9559 23.1356C18.7997 23.773 18.7434 24.6042 18.6934 25.5541C18.6497 26.2916 18.306 27.204 18.0747 28.0914C17.856 28.9164 17.7123 29.6663 18.006 30.36C18.456 31.2662 19.2246 31.6349 20.1121 31.5661C20.9995 31.4974 22.0119 30.9537 22.8368 29.9725C24.2117 28.3102 26.7303 28.1164 26.7865 27.0665C26.8053 26.7478 26.5928 26.2541 25.9303 25.5291ZM10.8253 9.29299C10.9503 9.41173 11.1191 9.57422 11.3253 9.73671C11.7378 10.0617 12.3127 10.3992 13.0314 10.3992C13.7564 10.3992 14.4375 10.0304 15.0187 9.72421C15.325 9.56172 15.6999 9.28675 15.9437 9.07426C16.1874 8.86178 16.3124 8.68055 16.1374 8.6618C15.9624 8.64305 15.9749 8.82428 15.7624 8.98052C15.4875 9.1805 15.1562 9.44298 14.8938 9.59297C14.4313 9.85545 13.6751 10.2304 13.0252 10.2304C12.3752 10.2304 11.8565 9.93044 11.469 9.62422C11.2753 9.46798 11.1128 9.31174 10.9878 9.193C10.8941 9.10551 10.8691 8.90553 10.7191 8.88678C10.6316 8.88053 10.6066 9.11801 10.8253 9.29299V9.29299Z" fill="#0165E1" /></svg>