<svg width="32" height="24" viewBox="0 0 32 24" fill="none" xmlns="http://www.w3.org/2000/svg">
 <path  d= "M0 1.0708H4.8625V14.1145C4.8625 16.1833 5.8 17.4145 6.5625 17.927C5.76875 18.6208 3.3625 19.2333 1.55 17.7521C0.4875 16.8771 0 15.4208 0 14.0646V1.0708ZM30.3687 11.9146V10.5396H31.8563V5.73955H30.225C29.5938 2.8458 27.025 0.695801 23.9562 0.695801C20.4187 0.695801 17.5375 3.5708 17.5375 7.11455V18.3146C18.5375 18.4583 19.75 18.2958 20.7687 17.4396C21.8375 16.5646 22.3188 15.1146 22.3188 13.7521V13.3333H24.7437V8.5333H22.3188V7.07705C22.3188 4.91455 25.5812 4.91455 25.5812 7.07705V11.8958C25.5812 15.4333 28.4562 18.3146 32 18.3146V13.5333C31.0938 13.5333 30.3687 12.8021 30.3687 11.9146V11.9146ZM11.975 5.72705V12.7896C11.975 13.7521 10.4875 13.7521 10.4875 12.7896V5.72705H5.6875V14.0208C5.6875 15.5083 6.1875 17.3958 8.5 18.0146C10.8125 18.6271 12.1375 17.3521 12.1375 17.3521C12.0062 18.1896 11.2313 18.8083 9.95625 18.9333C8.9875 19.0333 7.75625 18.7083 7.14375 18.4458V22.8396C8.7125 23.3083 10.3625 23.4521 11.9937 23.1333C14.9375 22.5646 16.7938 20.1083 16.7938 16.8333V5.6958H11.975V5.72705V5.72705Z" fill="#0165E1" /></svg>