<svg width="31" height="33" viewBox="0 0 31 33" fill="none" xmlns="http://www.w3.org/2000/svg">
 <path  d= "M30.5332 21.3791C30.3124 20.9084 29.8924 20.5841 29.3653 20.4591C29.1888 19.6541 28.9453 19.2591 28.9231 19.1998C29.016 19.0941 29.106 18.9876 29.126 18.9626C29.8703 18.039 29.3846 16.6869 28.1124 16.3676C27.3967 15.679 26.7488 15.3554 26.2166 15.089C25.7066 14.834 25.9102 14.934 25.4316 14.7182C25.3045 14.0961 25.2623 12.6489 25.0602 11.6332C24.8787 10.7196 24.513 10.0574 23.9487 9.62242C23.723 9.13384 23.4066 8.64097 23.0251 8.27882C24.7995 5.55876 25.2666 2.87227 23.9673 1.4651C23.3887 0.838653 22.5294 0.541504 21.5015 0.541504C20.0544 0.541504 18.2743 1.13152 16.4771 2.22297C16.4771 2.22297 15.3071 1.28152 15.2821 1.26152C10.2763 -2.68071 -3.88118 14.7404 1.11607 18.5476L2.4061 19.5334C1.59609 21.7863 2.72254 24.472 5.06973 25.3342C5.58832 25.5249 6.15119 25.6178 6.73477 25.5849C6.73477 25.5849 10.527 32.5394 18.5279 32.5415C27.7838 32.5444 30.1389 23.4899 30.1639 23.4084C30.1639 23.4092 30.9139 22.3006 30.5332 21.3791V21.3791ZM1.50108 17.3955C0.486775 15.684 2.25181 12.1675 3.50756 10.1689C6.6112 5.22947 11.777 1.33152 14.1228 1.88796L14.7678 1.64081C14.77 1.64296 16.53 3.13013 16.5321 3.13156C17.7443 2.40369 19.2879 1.66224 20.7322 1.51438C19.8536 1.71224 18.7829 2.16797 17.5143 2.9437C17.4836 2.96156 14.5128 4.9666 12.6978 6.76664C11.7085 7.74738 7.73694 12.5103 7.74051 12.5061C8.46624 11.1325 8.94482 10.4582 10.0934 9.01312C10.7434 8.19596 11.437 7.40094 12.1463 6.66735C12.4756 6.32663 12.8092 5.99877 13.1428 5.68805C13.3721 5.47447 13.6028 5.26875 13.8321 5.07232C13.9378 4.9816 14.0435 4.89374 14.1485 4.80731L14.1492 4.8066L11.8213 2.88441L11.9442 3.74586L13.6364 5.23661C13.6364 5.23661 12.1392 6.24449 11.3942 6.88022C8.40909 9.42742 5.47974 13.3375 4.38972 17.144L4.44186 17.1419C3.89899 17.4412 3.36041 17.9212 2.88969 18.574C2.87826 18.5712 1.67252 17.6862 1.50108 17.3955V17.3955ZM6.43762 24.5449C4.64972 24.5449 3.19969 23.0184 3.19969 21.1362C3.19969 19.2533 4.64901 17.7276 6.43762 17.7276C6.9012 17.7276 7.34193 17.8305 7.74051 18.0147C7.74051 18.0147 8.42838 18.3619 8.62196 20.0012C8.82339 19.4891 8.92482 19.0683 8.92482 19.0683C9.15554 19.7741 9.2734 20.5155 9.22697 21.2655C9.4184 21.0112 9.62341 20.5319 9.62341 20.5319C9.98056 22.627 8.45195 24.5449 6.43762 24.5449V24.5449ZM10.4234 12.5068C10.4234 12.5068 11.8156 9.85957 14.8757 8.10882C14.6478 8.07239 14.0906 8.1431 13.9928 8.15453C14.5485 7.67666 15.5814 7.35737 16.295 7.21237C16.0864 7.07951 15.5885 7.04593 15.3421 7.03951C15.2692 7.03736 15.27 7.03808 15.1835 7.04165C15.855 6.66664 17.0993 6.44592 18.23 6.64521C18.0879 6.45664 17.7657 6.31878 17.5393 6.25163C17.5193 6.24592 17.4307 6.22377 17.4307 6.22377L17.5157 6.20377C18.1972 6.07234 18.9936 6.21449 19.6229 6.46735C19.5515 6.30163 19.3765 6.10806 19.245 5.98591C19.2315 5.97305 19.1529 5.91662 19.1529 5.91662C19.8115 6.05306 20.4429 6.34092 20.9179 6.66664C20.8537 6.54164 20.6937 6.33163 20.5829 6.21734C21.2122 6.39735 21.9194 6.84664 22.2223 7.49023C22.2294 7.50452 22.2487 7.55737 22.2508 7.5638C21.0579 6.64664 17.5764 6.90665 14.0906 9.16527C12.4956 10.1996 11.3256 11.331 10.4234 12.5068V12.5068ZM29.2324 22.9599C29.1903 23.042 28.7517 25.4171 26.2423 27.3892C23.073 29.8793 18.9093 29.6272 17.3372 28.2321C16.4971 27.4464 16.1336 26.3228 16.1336 26.3228C16.1336 26.3228 16.0385 26.9564 16.0221 27.205C15.3885 26.1271 15.4421 24.8106 15.4421 24.8106C15.4421 24.8106 15.1042 25.4413 14.9492 25.7942C14.4828 24.607 14.7235 23.3813 14.7235 23.3813L14.3549 23.9313C14.3549 23.9313 14.1821 22.5877 14.6064 21.4691C15.0607 20.2734 15.9407 19.4048 16.1143 19.2962C15.4464 19.0841 14.6771 18.4755 14.6757 18.474C14.6757 18.474 14.9814 18.494 15.1942 18.4455C15.1942 18.4455 13.8442 17.4783 13.6071 15.9983C13.8028 16.2397 14.2135 16.5133 14.2135 16.5133C14.0806 16.1261 13.9999 15.264 14.1242 14.4161L14.1249 14.4154C14.3807 12.7953 15.7157 11.7403 17.2279 11.7532C18.8379 11.7675 19.9172 12.1053 21.2672 10.8603C21.553 10.5967 21.7808 10.3696 22.1823 10.281C22.2244 10.2717 22.3294 10.2274 22.5444 10.2274C22.7623 10.2274 22.9716 10.2767 23.1637 10.391C23.8959 10.8267 24.0537 11.9632 24.1323 12.7968C24.423 15.8883 24.3059 15.3375 25.5566 15.9747C26.1538 16.2783 26.8238 16.5669 27.5874 17.3833C27.5895 17.3855 27.5931 17.3897 27.5931 17.3897H27.6024C28.246 17.4055 28.5774 17.9119 28.281 18.2805C26.1216 20.8591 23.1051 22.0941 19.7443 22.1977C19.6058 22.2013 19.2929 22.2084 19.2915 22.2084C17.9336 22.2498 17.4922 24.0056 18.3436 25.062C18.8822 25.7299 19.9172 25.9492 20.7701 25.9521L20.7822 25.9478C24.4573 26.0221 28.1495 23.4213 28.7874 21.9877C28.7917 21.977 28.831 21.8863 28.831 21.8863C28.6831 22.0598 25.1038 25.4299 20.7537 25.3078C20.7537 25.3078 20.2779 25.2978 19.8301 25.1935C19.2393 25.0563 18.7908 24.7963 18.6193 24.2077C18.98 24.2799 19.4372 24.3263 19.9672 24.3263C23.1073 24.3263 25.3695 22.8991 25.1338 22.8799C25.1245 22.8799 25.1152 22.882 25.0995 22.8856C24.733 22.9706 20.9587 24.4328 18.5729 23.6827C18.5786 23.6099 18.59 23.5392 18.6072 23.4756C18.8193 22.7649 19.1965 22.8641 19.8065 22.8377C21.9837 22.7656 23.7402 22.2177 25.0566 21.5927C26.4602 20.9262 27.5302 20.0677 27.916 19.6341C28.416 20.4762 28.4131 21.557 28.4131 21.557C28.4131 21.557 28.6088 21.4884 28.8688 21.4884C29.6817 21.4891 29.8496 22.2191 29.2324 22.9599V22.9599ZM18.5686 23.9385C18.5686 23.9349 18.5679 23.9313 18.5679 23.9277C18.5686 23.9313 18.5686 23.9349 18.5686 23.9385ZM18.5679 23.9235C18.5672 23.9142 18.5672 23.9049 18.5665 23.8956C18.565 23.8492 18.5643 23.8006 18.5665 23.7513C18.565 23.8042 18.565 23.8527 18.5665 23.8956C18.5672 23.9049 18.5672 23.9149 18.5679 23.9235ZM18.5765 24.0277C18.5765 24.0292 18.5765 24.0306 18.5772 24.032C18.5772 24.0306 18.5772 24.0292 18.5765 24.0277ZM18.5779 24.0363C18.5922 24.1492 18.6143 24.2013 18.6172 24.2077C18.6007 24.1727 18.5872 24.112 18.5779 24.0363ZM13.9185 2.51869L14.1235 1.88796L14.4721 3.1537L14.0414 3.01442L13.9185 2.51869V2.51869ZM15.5171 3.78443L15.2585 2.88513L15.9707 3.48228C15.8107 3.58514 15.6593 3.68657 15.5171 3.78443ZM18.5679 23.9235C18.5672 23.9142 18.5672 23.9049 18.5665 23.8956C18.5672 23.9049 18.5672 23.9149 18.5679 23.9235ZM18.5672 23.8956C18.5657 23.8492 18.565 23.8006 18.5672 23.7513C18.565 23.8049 18.565 23.8527 18.5672 23.8956ZM18.5686 23.9385C18.5686 23.9349 18.5679 23.9313 18.5679 23.9277L18.5686 23.9385ZM18.5772 24.032C18.5772 24.0306 18.5772 24.0292 18.5765 24.0277L18.5772 24.032ZM18.5779 24.0363C18.5922 24.1492 18.6143 24.2013 18.6172 24.2077C18.6007 24.1727 18.5872 24.112 18.5779 24.0363ZM22.2994 14.1354C22.2944 13.8954 22.333 13.4982 22.5587 13.4246H22.5594C22.9458 13.2904 23.458 14.2804 23.4816 15.159C23.1759 15.0061 22.8173 14.9411 22.448 14.9733C22.3551 14.6897 22.3108 14.4232 22.2994 14.1354V14.1354ZM14.7342 4.34659L13.7635 3.53371L15.2328 3.98229C15.0435 4.11658 14.8757 4.23944 14.7342 4.34659ZM16.7129 16.2711C16.4693 16.364 16.2964 16.4361 16.2128 16.424C16.0778 16.404 16.2086 16.1561 16.5043 15.9161C17.0993 15.4418 17.9157 15.2947 18.6136 15.554C18.9193 15.6661 19.2622 15.8911 19.4422 16.1533C19.5101 16.2526 19.5286 16.3276 19.5008 16.359C19.4458 16.4233 19.25 16.3369 18.9615 16.224C18.2222 15.9483 17.6772 15.9061 16.7129 16.2711V16.2711ZM17.7522 17.309C17.5872 17.3762 17.48 17.4276 17.4364 17.3926C17.3922 17.3583 17.4357 17.2197 17.59 17.0704C17.7243 16.9412 17.8636 16.8683 18.0236 16.8012C18.0486 16.7904 18.075 16.7812 18.1022 16.774C18.1765 16.754 18.2515 16.729 18.3329 16.7169C18.9843 16.6061 19.4615 16.9676 19.3993 17.0726C19.3715 17.1219 19.2508 17.1104 19.0708 17.0983C18.6972 17.0726 18.3057 17.079 17.7522 17.309V17.309ZM6.1469 19.4948C6.01476 19.5226 6.08904 19.5069 5.95832 19.5434C5.93966 19.5482 5.9213 19.5542 5.90332 19.5612C5.86189 19.5805 5.82404 19.5934 5.78761 19.6134C5.75689 19.6305 5.49689 19.7462 5.28545 20.0048C5.00045 20.3584 4.89687 20.8212 4.91473 21.267C4.93187 21.6998 5.05902 21.9391 5.08259 21.9977C5.18117 22.2091 4.95045 22.2527 4.74044 22.0256L4.73973 22.0248C4.57187 21.847 4.46401 21.5755 4.41115 21.3348C4.19829 20.3384 4.64258 19.3369 5.66903 18.9369C5.72618 18.9141 5.79332 18.9005 5.84761 18.8848H5.84689C5.9519 18.8533 6.3269 18.7776 6.70906 18.8369C7.12835 18.9019 7.49765 19.1119 7.73265 19.3848L7.73336 19.3855C7.91408 19.5905 8.0498 19.8798 8.02551 20.1377V20.1384C8.01623 20.2455 7.96908 20.3991 7.87265 20.4391C7.83694 20.4541 7.80051 20.4462 7.77551 20.4212C7.70551 20.3527 7.75979 20.2119 7.58979 19.9712C7.36336 19.6519 6.85335 19.3455 6.1469 19.4948V19.4948ZM8.30981 21.7213C8.44409 22.4941 7.88122 23.1856 7.20121 23.1999C6.72477 23.2106 6.46477 22.9127 6.51119 22.8477C6.53262 22.817 6.60548 22.8306 6.71691 22.847C7.32407 22.9413 7.69265 22.5713 7.78122 22.1834C7.78265 22.177 7.80622 22.0734 7.80551 22.002C7.81051 21.9391 7.80337 21.8763 7.79408 21.8191C7.72265 21.4177 7.26193 21.342 6.96549 21.0227C6.69977 20.7341 6.75191 20.3641 6.91906 20.1862C7.11978 19.9884 7.40693 20.0605 7.40336 20.1305C7.40336 20.1677 7.33407 20.1955 7.24835 20.2548C7.13692 20.3334 7.12192 20.4091 7.15049 20.5391C7.16907 20.6105 7.20121 20.657 7.2705 20.712C7.51907 20.9091 8.18837 21.0477 8.30981 21.7213V21.7213ZM23.5151 15.9018C23.6994 15.9304 23.8166 16.1583 23.7773 16.4111C23.738 16.664 23.5566 16.8454 23.3723 16.8162C23.188 16.7876 23.0708 16.5597 23.1101 16.3069C23.1501 16.0547 23.3309 15.8733 23.5151 15.9018ZM21.4915 16.6383C21.593 16.4533 21.8801 16.4161 22.1337 16.5554C22.3873 16.694 22.5101 16.9569 22.4094 17.1412C22.308 17.3262 22.0208 17.3633 21.7672 17.224C21.5137 17.0854 21.3901 16.8233 21.4915 16.6383Z" fill="#0165E1" /></svg>