<svg width="26" height="32" viewBox="0 0 26 32" fill="none" xmlns="http://www.w3.org/2000/svg">
 <path  d= "M13.4902 31.9931C13.4289 31.7893 13.3845 31.0037 13.4033 30.4568C13.4377 29.4637 13.4645 28.9118 13.4908 28.6593C13.5308 28.2718 13.6702 27.3643 13.6958 27.3231C13.7333 27.2631 13.7208 25.5812 13.6808 25.2524C13.6614 25.0912 13.6414 24.5087 13.6377 23.9568C13.6295 22.9275 13.6045 22.6993 13.467 22.4093C13.3983 22.2643 13.3902 22.1693 13.4052 21.695C13.4152 21.3943 13.4052 21.0368 13.3839 20.9006C13.2558 20.09 13.1677 19.1693 13.1808 18.7818C13.1939 18.3993 13.2077 18.335 13.3095 18.1775C13.5002 17.8831 13.7164 17.3 13.8483 16.7231C13.9895 16.1068 14.0908 15.6493 14.1352 15.4268C14.1908 15.1506 14.287 14.8193 14.4077 14.4862C14.5495 14.0956 14.5633 13.5243 14.4308 13.5243C14.412 13.5243 14.3445 13.6006 14.2802 13.6937C14.2158 13.7868 13.9827 13.9937 13.762 14.1537C13.2389 14.5337 13.0308 14.7406 12.9708 14.94C12.9127 15.1343 12.907 15.3918 12.9608 15.425C12.982 15.4381 13.0414 15.575 13.0927 15.73C13.1939 16.035 13.2095 16.3625 13.1377 16.69C13.1133 16.8006 13.072 17.0318 13.0464 17.2043C13.0208 17.3768 12.9852 17.6081 12.9683 17.7181C12.9508 17.8281 12.9077 17.9481 12.8714 17.9843C12.8114 18.0443 12.8002 18.0412 12.7433 17.9512C12.7089 17.8968 12.6683 17.7631 12.6533 17.6543C12.6377 17.5456 12.5514 17.21 12.4608 16.9087C12.2558 16.2275 12.2408 15.8993 12.4008 15.5987C12.4583 15.4906 12.5052 15.3606 12.5052 15.3106C12.5052 15.1612 12.3677 14.9781 12.042 14.6925C11.6014 14.3062 11.5027 14.1975 11.4027 13.9862C11.2958 13.7612 11.2114 13.7325 11.1189 13.89C11.0077 14.0781 10.9564 14.4593 10.9333 15.2662L10.9114 16.0243L11.0333 16.165C11.2339 16.3962 11.7877 17.1931 11.8945 17.4043C12.1077 17.8256 12.1658 18.135 12.1702 18.8768C12.1745 19.6168 12.2295 20.2987 12.2952 20.4212C12.3177 20.4625 12.327 20.5056 12.3164 20.5162C12.3058 20.5268 12.342 20.6468 12.397 20.7831C12.452 20.9193 12.5102 21.1718 12.5258 21.3443C12.5414 21.5168 12.5895 21.8087 12.6327 21.9925C12.772 22.59 12.8058 22.8725 12.782 23.2512C12.7695 23.4556 12.7489 23.9431 12.7364 24.3337C12.6545 26.9437 12.6208 27.9574 12.6089 28.1593C12.6014 28.2856 12.5845 28.8787 12.5714 29.4762C12.5489 30.4949 12.4902 31.1868 12.4202 31.2668C12.3802 31.3124 11.9158 30.9599 11.6377 30.6737C11.4033 30.4318 11.3864 30.3743 11.4608 30.0518C11.5045 29.8637 11.602 28.9087 11.6689 28.0131C11.6914 27.7143 11.7195 27.3568 11.732 27.2187C11.7839 26.6331 11.8358 25.9468 11.8952 25.0449C11.9302 24.5162 11.9783 24.0174 12.0027 23.9368C12.0264 23.8562 12.0583 23.3187 12.0733 22.7425L12.1002 21.6943L11.9589 21.4256C11.8514 21.2206 11.6545 20.9918 11.1327 20.4668C10.7558 20.0875 10.3927 19.6981 10.3258 19.6012L10.2039 19.4256L10.2508 18.7443C10.3189 17.7625 10.3195 15.7087 10.252 15.0531L10.1964 14.5093L9.99142 14.2268C9.62517 13.7218 9.62892 13.7425 9.60267 12.1475C9.59642 11.7681 9.57892 11.4287 9.5633 11.3937C9.51142 11.2769 9.37267 11.2275 9.02955 11.2031C8.4758 11.1644 8.34455 11.0844 7.53893 10.2937C7.15455 9.91623 6.76768 9.5456 6.67955 9.46935C6.50393 9.3181 6.50518 9.34498 6.64455 8.86748L6.72893 8.57686L6.6233 8.38686C6.56518 8.28248 6.49268 8.16748 6.46143 8.13248C6.3783 8.03811 6.11768 7.45186 6.08706 7.28936C6.06768 7.18561 6.08143 7.12248 6.14143 7.04561C6.2808 6.86686 6.35393 6.69061 6.41955 6.37499C6.56518 5.67561 6.9033 4.74436 7.08205 4.54874C7.2808 4.33187 7.5633 4.48312 7.67018 4.86311C7.75393 5.16249 7.7558 5.47499 7.67643 6.02249C7.6433 6.25249 7.61518 6.56499 7.61455 6.71686C7.6133 6.96749 7.62643 7.00998 7.75518 7.17873C7.9633 7.45186 8.2383 7.64186 8.70518 7.83623C8.81142 7.88061 8.94392 7.96061 9.00017 8.01436C9.6983 8.68436 10.1639 9.02561 10.4345 9.06748C10.7583 9.11748 10.9333 9.35123 11.062 9.90435C11.1439 10.2575 11.312 10.6006 11.4033 10.6006C11.4402 10.6006 11.5339 10.5612 11.6114 10.5137C11.7352 10.4375 11.752 10.4056 11.752 10.2525C11.7514 10.0206 11.6789 9.37248 11.627 9.13748C11.6039 9.03373 11.5783 8.88373 11.5689 8.80311C11.5602 8.72248 11.5308 8.56248 11.5045 8.44748C11.3452 7.74998 11.2764 7.48123 11.2483 7.44436C11.1514 7.31811 10.9933 6.80686 10.9402 6.44936C10.8377 5.75499 10.6927 5.55999 10.1333 5.36249C9.8433 5.25999 9.57767 5.10499 9.3008 4.87624C9.22892 4.81686 9.05017 4.67499 8.90392 4.55999C8.75705 4.44562 8.6283 4.33937 8.61643 4.32499C8.60518 4.31062 8.52955 4.25374 8.4483 4.19874C8.0583 3.93499 7.8958 3.76249 7.74455 3.45124L7.59205 3.13749L7.5783 2.32625L7.56455 1.515L7.99643 1.10562C8.2433 0.871248 8.52643 0.646249 8.6583 0.578749C8.86517 0.473124 8.93642 0.460624 9.36892 0.450624C9.90205 0.438749 10.0014 0.451874 10.0977 0.548124C10.1933 0.643749 10.1827 0.948123 10.0795 1.07937C10.0333 1.13812 9.9958 1.20312 9.9958 1.22437C9.9958 1.26062 9.83267 1.53125 9.65705 1.78625C9.61455 1.84812 9.52392 2.12062 9.50892 2.2125C10.7864 3.04937 10.8558 2.44812 10.3883 4.02374L11.1008 4.18249C11.2952 3.64124 11.5052 3.10374 11.6389 2.54374C11.657 2.06687 10.8902 2.28187 10.6764 2.00125C10.5308 1.63062 10.872 1.115 11.0552 0.801248C11.1552 0.654999 11.4689 0.507499 11.6064 0.541874C11.6614 0.555624 11.8664 0.519999 12.067 0.461874C12.2658 0.404374 12.4783 0.356874 12.5389 0.356874C12.5995 0.356874 12.7677 0.320624 12.9127 0.276249C13.1408 0.206875 13.1939 0.203125 13.3095 0.251249C13.3827 0.281249 13.5464 0.319374 13.6733 0.336249C13.7995 0.352499 13.9683 0.406249 14.0483 0.455624C14.1283 0.504999 14.2689 0.566249 14.362 0.591249C14.5189 0.633749 14.5495 0.626874 14.8027 0.486874L15.0745 0.336874L15.7433 0.311249C16.3958 0.286249 16.4189 0.281874 16.697 0.14375L16.9833 0L17.137 0.0893748C17.247 0.153125 17.3333 0.259999 17.4402 0.463124C17.5877 0.744998 17.5889 0.749373 17.5258 0.923748C17.4708 1.07625 17.4702 1.13 17.5195 1.32312C17.5508 1.44562 17.6102 1.61187 17.6508 1.6925C17.6914 1.77312 17.7283 1.88562 17.7327 1.94312C17.752 2.21375 17.7308 2.27437 17.582 2.37562C17.4464 2.46749 17.1458 2.86999 17.1458 2.95937C17.1458 2.97937 17.1158 3.06499 17.0789 3.14874C16.7639 3.86812 16.6564 3.99624 16.1877 4.20999C15.6127 4.47249 15.4189 4.53437 15.1745 4.53437C14.9808 4.53437 14.9245 4.54999 14.8908 4.61311C14.8677 4.65624 14.7527 4.76124 14.6352 4.84499C14.5077 4.93686 14.3977 5.05624 14.3614 5.14374C14.3277 5.22374 14.2577 5.30561 14.2058 5.32561C14.1539 5.34561 14.0845 5.39311 14.0527 5.43249C14.0202 5.47124 13.8239 5.62249 13.6152 5.76874C13.407 5.91499 13.1858 6.08249 13.1233 6.14124C13.0608 6.19999 12.9939 6.24811 12.9739 6.24811C12.9539 6.24811 12.8939 6.29436 12.8408 6.35124C12.7589 6.43811 12.7477 6.48311 12.7695 6.63874C12.7833 6.74061 12.8233 6.90561 12.8583 7.00623C12.9408 7.24373 12.9402 7.49748 12.8552 7.66686C12.7658 7.84561 12.7995 8.08248 12.9395 8.26623C13.0652 8.43061 13.0745 8.55123 12.9839 8.81873C12.9458 8.93123 12.9183 9.15936 12.9177 9.3756C12.9164 9.6806 12.9314 9.7681 13.0089 9.89935C13.0839 10.0269 13.1227 10.0544 13.2114 10.0444C13.3352 10.03 13.3552 9.97873 13.5058 9.28685C13.642 8.65998 13.7377 8.54186 14.3658 8.21936C14.5495 8.12498 14.832 7.97186 14.9927 7.87936C15.1539 7.78686 15.417 7.64873 15.5783 7.57248C15.9952 7.37498 16.2689 7.16498 16.5295 6.84311C16.9739 6.29374 17.1533 5.82936 17.3327 4.76186C17.367 4.55687 17.422 4.40874 17.5114 4.27874C17.592 4.16187 17.6595 3.98999 17.692 3.82187C17.7558 3.49062 17.8702 3.25437 18.0408 3.10249C18.3345 2.84124 18.4158 3.03437 18.3277 3.78187C18.2989 4.02312 18.2589 4.42749 18.2377 4.68061L18.1995 5.14061L18.4777 5.39624L18.7558 5.65186L18.7627 6.17811C18.7664 6.46749 18.792 6.77374 18.8202 6.85874L18.8714 7.01311L18.4695 7.40561C17.9358 7.92623 17.6645 8.27623 17.422 8.75623C17.3114 8.97436 17.1883 9.20061 17.1483 9.25811C17.012 9.45248 16.7445 10.0712 16.6008 10.5244L16.4577 10.9756L16.022 11.3812C15.7827 11.6044 15.5245 11.8343 15.4489 11.8918C15.2583 12.0368 15.1827 12.2137 15.1827 12.5162C15.1827 12.7025 15.2095 12.8262 15.282 12.97C15.3364 13.0787 15.3952 13.2143 15.4127 13.2718C15.4302 13.3293 15.4739 13.4106 15.5108 13.4525C15.5983 13.5518 15.6308 14.46 15.5627 14.9037C15.5202 15.1837 15.3358 15.655 15.2689 15.655C15.157 15.655 15.0152 16.2343 14.952 16.9512C14.9408 17.0775 14.9133 17.3225 14.8908 17.495C14.8683 17.6675 14.8308 18.1187 14.8064 18.4981C14.7583 19.2618 14.7945 19.6712 14.9345 19.945C15.1477 20.3631 14.967 20.7381 14.2452 21.3725L13.997 21.5906L14.0014 21.915C14.0039 22.0937 14.0358 22.3431 14.0727 22.4693C14.3608 23.4681 14.3683 23.5268 14.3464 24.7899C14.3177 26.4399 14.3302 27.3068 14.3858 27.5493C14.412 27.6643 14.4427 27.8618 14.4533 27.9881C14.4639 28.1143 14.4945 28.3212 14.5208 28.4481C14.5502 28.5893 14.5695 29.1368 14.5702 29.8693L14.5714 31.0606L14.4583 31.2249C14.2889 31.4693 13.5139 32.0712 13.4902 31.9931V31.9931ZM15.3358 29.1737C15.3245 29.1549 15.3152 28.7443 15.3152 28.2618C15.3152 27.3831 15.2595 26.5406 15.1739 26.1087C15.1489 25.9824 15.1233 25.5024 15.1177 25.0424C15.1083 24.2968 15.0302 23.5193 14.9527 23.3937C14.9114 23.3268 14.7639 22.29 14.7633 22.0625C14.7627 21.7981 14.827 21.6875 15.0933 21.4918C15.352 21.3018 15.397 21.2956 15.4358 21.4468C15.4533 21.5156 15.5264 21.7981 15.5983 22.0737C15.8439 23.0187 15.857 23.0906 15.8514 23.4325C15.8452 23.7937 15.8433 23.8156 15.7427 24.5406C15.6814 24.9824 15.6695 25.3149 15.6777 26.3174C15.6883 27.5299 15.6377 28.5506 15.5502 28.8968C15.5058 29.0706 15.3752 29.2393 15.3358 29.1737ZM10.8989 26.8249C10.8839 26.8012 10.8358 26.4974 10.7908 26.1506C10.7458 25.8031 10.6977 25.4999 10.6827 25.4762C10.6683 25.4524 10.6402 25.2699 10.6208 25.0706C10.6014 24.8712 10.5639 24.6043 10.5377 24.4781C10.4758 24.1787 10.3283 23.2687 10.3239 23.1612C10.322 23.1149 10.3027 22.9081 10.2802 22.7012C10.2383 22.3131 10.2277 20.9718 10.2664 20.9331C10.3264 20.8731 10.6808 21.1056 10.9745 21.3975L11.3045 21.7256L11.2764 22.13C11.2608 22.3525 11.2389 22.7693 11.2277 23.0568C11.2164 23.3443 11.197 23.6737 11.1858 23.7887C11.1745 23.9037 11.1477 24.3737 11.127 24.8337C11.0777 25.9218 11.0058 26.7893 10.9614 26.8337C10.9414 26.8524 10.9139 26.8487 10.8989 26.8249V26.8249ZM5.44956 10.1631C6.76643 10.9625 6.56455 11.0475 7.23018 11.2669C8.0433 11.535 8.40955 11.7125 8.67705 12.3212C5.94831 14.58 4.36393 15.94 3.88269 16.7475C1.94394 19.9981 3.50831 23.0968 7.80455 22.1981C6.9183 24.0249 2.93144 23.9874 1.63706 21.8918C0.094568 19.395 0.256443 14.4981 5.44956 10.1631V10.1631ZM18.6239 21.3518C22.1651 21.7818 23.7689 18.9931 21.5326 15.775C21.5326 15.775 19.8533 13.9412 17.5152 11.5275C17.7014 10.5619 18.1083 9.51998 19.4258 8.16373C25.0008 12.1331 25.1758 17.0143 25.2045 17.4987C25.4714 21.91 20.2883 23.1937 18.6239 21.3518V21.3518Z" fill="#0165E1" /></svg>