<svg width="30" height="32" viewBox="0 0 30 32" fill="none" xmlns="http://www.w3.org/2000/svg">
 <path  d= "M29.9211 10.5064C29.9211 3.56462 25.3718 1.52923 25.3718 1.52923C20.9082 -0.520442 9.05297 -0.499017 4.63225 1.52923C4.63225 1.52923 0.0829815 3.56462 0.0829815 10.5064C0.0829815 18.7693 -0.388372 29.032 7.62463 31.1531C10.517 31.9172 13.0023 32.0815 15.002 31.9672C18.63 31.7672 20.6654 30.6746 20.6654 30.6746L20.544 28.0393C20.544 28.0393 17.9515 28.8534 15.0377 28.7606C12.1525 28.6606 9.11011 28.4463 8.63875 24.9041C8.5959 24.5898 8.57448 24.2613 8.57448 23.9114C14.6878 25.404 19.9012 24.5613 21.3367 24.3899C25.3432 23.9114 28.8355 21.4403 29.2783 19.1835C29.9782 15.627 29.9211 10.5064 29.9211 10.5064V10.5064ZM24.5576 19.4478H21.2296V11.292C21.2296 7.74252 16.6589 7.60683 16.6589 11.7847V16.2483H13.3523V11.7847C13.3523 7.60683 8.78159 7.74252 8.78159 11.292V19.4478H5.44641C5.44641 10.7278 5.07504 8.8852 6.76048 6.94979C8.61019 4.88584 12.4596 4.75014 14.1736 7.38544L15.002 8.77807L15.8305 7.38544C17.5516 4.73586 21.4081 4.90012 23.2436 6.94979C24.9361 8.89948 24.5576 10.7349 24.5576 19.4478V19.4478Z" fill="#0165E1" /></svg>