<svg width="20" height="32" viewBox="0 0 20 32" fill="none" xmlns="http://www.w3.org/2000/svg">
 <path  d= "M7.39375 14.9C7.6125 14.1187 7.825 12.8 8.21875 12.8C8.7375 12.9125 8.81875 14.2625 9.38125 15.0875C9.66875 13.6187 9.7125 9.76875 10.2625 9.66875C10.825 9.625 11.4937 13.825 11.6375 14.5125C12.2562 14.7687 14.6938 14.925 14.6938 14.925C14.8125 15.3813 13.1938 15.4 12.1938 15.4125C11.9063 16.3375 11.8562 17.1438 11.4812 17.1625C11.1875 17.175 10.9687 15.3625 10.3875 14.0625L9.8 18.1562C9.525 18.9688 8.83125 16.75 8.43125 15.7C8.225 15.6937 4.53125 15.6 5.45625 15.2125L7.39375 14.9V14.9ZM14.25 28C15.575 28 15.575 26 14.25 26H5.75C4.425 26 4.425 28 5.75 28H14.25ZM12.75 32C14.075 32 14.075 30 12.75 30H7.25C5.925 30 5.925 32 7.25 32H12.75ZM14.8875 23.1562C15.0875 21.975 15.2125 20.8813 15.6313 20.1063C16.125 19.1875 16.6375 18.35 17.1313 17.5438C18.6688 15.0188 20 12.8437 20 9.7C20 4.35 15.5125 0 10 0C4.4875 0 0 4.35 0 9.7C0 12.8375 1.33125 15.0188 2.86875 17.5438C3.3625 18.35 3.86875 19.1875 4.36875 20.1063C4.7875 20.8875 4.9125 21.9688 5.1125 23.1625C5.33125 24.475 7.36875 24.1437 7.15 22.8438C6.925 21.4875 6.8 20.3 6.19375 19.1812C4.15625 15.4062 2.0625 13.2062 2.0625 9.7C2.0625 5.45625 5.625 2 10 2C14.375 2 17.9375 5.45625 17.9375 9.7C17.9375 13.2062 15.8437 15.4062 13.8062 19.175C13.2 20.3 13.075 21.5125 12.85 22.8375C12.6375 24.125 14.6625 24.4875 14.8875 23.1562Z" fill="#0165E1" /></svg>