<svg width="32" height="32" viewBox="0 0 32 32" fill="none" xmlns="http://www.w3.org/2000/svg">
 <path  d= "M0 0V32H32V0H0ZM26.5857 7.57857L24.8714 9.22143C24.7214 9.33572 24.65 9.52143 24.6786 9.7V21.7929C24.65 21.9786 24.7214 22.1643 24.8714 22.2714L26.55 23.9143V24.2786H18.1214V23.9286L19.8571 22.2429C20.0286 22.0714 20.0286 22.0214 20.0286 21.7643V11.9857L15.2 24.2429H14.55L8.92857 11.9857V20.2C8.87857 20.5429 9 20.8929 9.24286 21.1429L11.5 23.8786V24.2429H5.08571V23.8786L7.34286 21.1429C7.58571 20.8929 7.69286 20.5429 7.63571 20.2V10.7C7.66429 10.4357 7.56429 10.1786 7.36429 10L5.35714 7.57857V7.21429H11.5929L16.4071 17.7857L20.6429 7.22143H26.5857V7.57857Z" fill="#0165E1" /></svg>