<svg width="32" height="26" viewBox="0 0 32 26" fill="none" xmlns="http://www.w3.org/2000/svg">
 <path  d= "M3.79078 5.48464C3.83047 5.09431 3.67831 4.70399 3.38722 4.43936L0.403556 0.840435V0.304565H9.67873L16.8501 16.03L23.1548 0.304565H32V0.840435L29.4463 3.28823C29.228 3.45362 29.1156 3.73148 29.1619 4.00273V21.9973C29.1156 22.2686 29.228 22.5465 29.4463 22.7118L31.9405 25.1596V25.6955H19.3905V25.1596L21.9773 22.6523C22.2287 22.4009 22.2287 22.3215 22.2287 21.9378V7.39656L15.0374 25.6492H14.0649L5.70271 7.39656V19.6289C5.62994 20.145 5.80194 20.661 6.16581 21.0315L9.52657 25.1067V25.6426H-1.26184e-08V25.1133L3.36076 21.0315C3.71801 20.661 3.8834 20.1383 3.79078 19.6289V5.48464Z" fill="#0165E1" /></svg>