<svg width="32" height="30" viewBox="0 0 32 30" fill="none" xmlns="http://www.w3.org/2000/svg">
 <path  d= "M6.68803 15C6.68803 22.1645 11.6232 28.1055 18.07 29.1819C16.9701 29.4466 15.823 29.5878 14.6466 29.5878C6.55274 29.5878 0 23.0586 0 15C0 6.94144 6.55274 0.412231 14.6407 0.412231C15.823 0.412231 16.9701 0.553404 18.0642 0.818101C11.6173 1.89454 6.68803 7.83553 6.68803 15ZM24.1816 20.8998C19.6112 24.1586 13.6172 23.6939 10.0409 20.041C10.3644 20.8704 10.7879 21.6704 11.3173 22.4233C14.9407 27.6114 22.0464 28.8525 27.1815 25.1879C32.3167 21.5233 33.5401 14.3471 29.9167 9.15314C29.3873 8.39434 28.7815 7.72377 28.1227 7.14144C30.3226 11.7766 28.7521 17.6411 24.1816 20.8998V20.8998ZM11.3114 6.54734C11.2291 6.60616 11.1526 6.67086 11.0761 6.72968C14.8584 5.68266 19.07 6.96497 21.5993 10.2884C23.6993 13.053 24.1228 16.5588 23.0346 19.5822C26.3698 16.2765 27.0109 11.2237 24.3463 7.71201C21.4052 3.85918 15.576 3.33567 11.3114 6.54734V6.54734ZM17.4112 13.1177C17.1524 13.1177 16.9407 12.906 16.9407 12.6472V10.2943C16.9407 10.0355 16.7289 9.82371 16.4701 9.82371H13.6466C13.3878 9.82371 13.1761 10.0355 13.1761 10.2943V12.6472C13.1761 12.906 12.9643 13.1177 12.7055 13.1177H10.3526C10.0938 13.1177 9.88205 13.3295 9.88205 13.5883V16.4117C9.88205 16.6706 10.0938 16.8823 10.3526 16.8823H12.7055C12.9643 16.8823 13.1761 17.0941 13.1761 17.3529V19.7058C13.1761 19.9646 13.3878 20.1763 13.6466 20.1763H16.4701C16.7289 20.1763 16.9407 19.9646 16.9407 19.7058V17.3529C16.9407 17.0941 17.1524 16.8823 17.4112 16.8823H19.7641C20.0229 16.8823 20.2347 16.6706 20.2347 16.4117V13.5883C20.2347 13.3295 20.0229 13.1177 19.7641 13.1177H17.4112Z" fill="#0165E1" /></svg>