<svg width="32" height="32" viewBox="0 0 32 32" fill="none" xmlns="http://www.w3.org/2000/svg">
 <path  d= "M6.00782 25.6007C6.07453 25.9464 5.86834 26.2739 5.52266 26.3466C5.19518 26.4134 4.86163 26.2072 4.79493 25.8615C4.72822 25.534 4.93441 25.1883 5.26189 25.1156C5.58937 25.0428 5.93505 25.255 6.00782 25.6007ZM14.6861 29.9307C14.304 30.2097 14.2009 30.7434 14.4617 31.1436C14.7407 31.5439 15.2743 31.647 15.6746 31.368C16.0566 31.0891 16.1597 30.5554 15.8808 30.1551C15.6261 29.7609 15.0863 29.6518 14.6861 29.9307V29.9307ZM9.47063 1.8947C9.85269 1.8098 10.0953 1.42774 10.0104 1.04568C9.94366 0.645422 9.5616 0.402843 9.17954 0.49381C8.79748 0.578713 8.5549 0.960774 8.62767 1.34284C8.71257 1.74309 9.08857 1.98567 9.47063 1.8947V1.8947ZM2.09017 14.1995C1.48372 13.7811 0.652892 13.9387 0.234444 14.5634C-0.184005 15.1698 -0.0263286 16.0189 0.580118 16.4373C1.18657 16.8679 2.0174 16.7163 2.43585 16.0916C2.85429 15.4609 2.69662 14.6301 2.09017 14.1995V14.1995ZM18.5855 3.83533C19.2284 3.45327 19.4164 2.62244 19.0525 1.9978C18.6704 1.35496 17.8578 1.14877 17.2332 1.53083C16.6085 1.9129 16.4023 2.74373 16.7844 3.38656C17.1483 4.0112 17.9609 4.21739 18.5855 3.83533ZM6.99633 7.35273C7.46329 7.02524 7.56639 6.38241 7.2571 5.91545C6.94781 5.44848 6.30498 5.34539 5.85621 5.65467C5.38924 5.98216 5.28615 6.62499 5.59544 7.09195C5.90472 7.56498 6.54149 7.66808 6.99633 7.35273ZM29.5744 16.8133C29.1256 16.9164 28.8284 17.3652 28.9315 17.8382C29.0164 18.287 29.4713 18.5841 29.92 18.481C30.3688 18.3961 30.666 17.9413 30.5629 17.4743C30.4719 17.0256 30.0231 16.7284 29.5744 16.8133ZM31.9819 13.3687C31.9152 13.023 31.5817 12.8168 31.2542 12.8835C30.9085 12.9502 30.7023 13.302 30.7691 13.6476C30.8358 13.9751 31.1693 14.1995 31.515 14.1328C31.8425 14.0418 32.0668 13.7144 31.9819 13.3687ZM27.1122 8.89917C26.5906 9.26303 26.4693 9.97258 26.815 10.4941C27.1607 11.0157 27.8702 11.137 28.3918 10.7913C28.8951 10.4274 29.0164 9.71787 28.6707 9.19633C28.3251 8.66872 27.6155 8.5353 27.1122 8.89917V8.89917ZM26.7301 17.353C28.3251 19.9668 27.6458 23.4175 25.1352 25.1823C24.0799 25.9282 22.8852 26.2557 21.6845 26.2193C20.9567 29.0757 17.4757 30.1369 15.3107 28.1963C15.244 28.2509 15.153 28.2994 15.0863 28.3722C12.7151 30.0157 9.48883 29.4274 7.84535 27.0198C7.2571 26.1526 6.95994 25.1641 6.92962 24.1756C2.96346 23.5145 1.4716 18.475 4.43712 15.7035C2.72088 12.8593 4.47351 9.19026 7.67555 8.73543C9.19773 4.72075 14.2009 2.8165 17.597 5.44848C21.6845 4.09611 25.8629 7.23144 25.5354 11.5797C28.0279 12.3438 28.7375 15.6368 26.7301 17.353ZM22.485 21.8589C22.297 20.6097 20.0046 21.58 19.8712 20.2155C19.6832 18.2748 22.5214 14.0843 22.297 12.4529C22.0908 10.9975 21.1205 10.6882 20.2715 10.67C19.4588 10.6518 19.2466 10.7913 18.9737 10.949C18.7978 11.0521 18.5734 11.2461 18.2641 10.9308C17.8821 10.5669 17.591 10.2212 17.0876 10.1484C16.3417 10.0272 16.0142 10.2697 15.4745 10.7367C15.2683 10.9126 14.7467 11.519 14.2616 11.2886C14.0554 11.1855 13.3276 10.8216 12.8061 10.5972C11.8176 10.1666 10.3803 10.8762 9.85876 11.8101C9.07644 13.1989 7.55426 18.669 7.32987 19.3968C6.80833 21.0099 7.9909 22.3441 9.56766 22.2531C10.2408 22.2167 10.6775 21.9742 11.108 21.1979C11.3506 20.7491 13.6369 14.6665 13.8128 14.3693C13.9341 14.1631 14.3525 13.8842 14.6982 14.06C15.0439 14.248 15.1167 14.6301 15.0621 14.9758C14.9954 15.564 13.364 19.2755 13.3094 19.6879C13.1032 21.0766 14.9408 21.301 15.6503 19.9304C15.8747 19.4999 18.4218 14.3147 18.6462 13.9691C18.9069 13.587 19.0949 13.4657 19.3557 13.4839C19.5437 13.4839 19.8591 13.5385 19.7863 14.1449C19.7014 14.715 17.6577 18.5295 17.4272 19.4635C17.1483 20.7128 17.8275 21.9742 18.9373 22.5321C19.6286 22.8778 22.7276 23.4842 22.485 21.8589V21.8589ZM22.8307 27.4564C22.206 27.9052 22.0483 28.7906 22.485 29.4335C22.9156 30.0763 23.7828 30.2279 24.4256 29.7973C25.0684 29.3486 25.2201 28.4631 24.7895 27.8203C24.3407 27.1775 23.4735 27.0016 22.8307 27.4564Z" fill="#0165E1" /></svg>