<svg width="33" height="33" viewBox="0 0 33 33" fill="none" xmlns="http://www.w3.org/2000/svg">
 <path  d= "M16.8362 0.541504C8.00012 0.541504 0.83625 7.70537 0.83625 16.5415C0.83625 25.3783 8.00012 32.5415 16.8362 32.5415C25.6724 32.5415 32.8362 25.3783 32.8362 16.5415C32.8362 7.70537 25.6724 0.541504 16.8362 0.541504ZM22.3498 17.8105L26.1988 21.6602V27.2763L24.5169 28.517L22.8362 27.2763V23.0531L20.6788 20.8957L18.5214 23.0531V27.2763L16.8362 28.517L15.1511 27.2763V23.0531L12.9937 20.8957L10.8363 23.0525V27.2757L9.15431 28.5163L7.47302 27.2757V21.6596L11.3098 17.8228V12.1544L15.1485 8.3157V3.43699L16.8298 2.19634L18.5111 3.43699V8.31699L22.3498 12.1557V17.8105ZM16.8298 11.3905L18.9872 13.548V17.8318L16.8362 19.9821L14.6724 17.8183V13.5473L16.8298 11.3905V11.3905Z" fill="#0165E1" /></svg>