<svg width="32" height="20" viewBox="0 0 32 20" fill="none" xmlns="http://www.w3.org/2000/svg">
 <path  d= "M21.2361 8.18057C20.8195 3.91665 17.2083 0.569458 12.8333 0.569458C9.20829 0.569458 5.99999 2.90282 4.84721 6.2917C2.11109 6.69446 -4.30547e-10 9.04171 -4.30547e-10 11.8889C-4.30547e-10 15.014 2.54164 17.5556 5.68056 17.5556H20.2083C22.8333 17.5556 24.9722 15.4306 24.9722 12.8056C24.9722 10.5417 23.3611 8.63891 21.2361 8.18057V8.18057ZM20.2083 15.4306H5.68056C3.72221 15.4306 2.12499 13.8472 2.12499 11.8889C2.12499 9.93054 3.72221 8.34721 5.68056 8.34721C6.62497 8.34721 7.5139 8.72218 8.18056 9.38889C9.18195 10.3903 10.6954 8.87587 9.69447 7.87498C8.95833 7.15274 8.05556 6.65277 7.08335 6.40276C8.08335 4.18056 10.3334 2.69444 12.8334 2.69444C16.3195 2.69444 19.1528 5.52778 19.1528 8.99998C19.1528 9.68058 19.0417 10.3472 18.8333 10.9861C18.3847 12.3664 20.4452 12.9394 20.8472 11.6528C20.9861 11.2361 21.0972 10.8056 21.1667 10.375C22.1389 10.75 22.8472 11.6945 22.8472 12.8056C22.8472 14.25 21.6667 15.4306 20.2083 15.4306V15.4306ZM32 12.8056C32 15.0139 31.3611 17.1389 30.1389 18.9583C29.9305 19.2639 29.5972 19.4306 29.25 19.4306C28.4315 19.4306 27.8892 18.4862 28.375 17.7778C29.3472 16.3056 29.875 14.5833 29.875 12.8056C29.875 11.0278 29.3473 9.30557 28.375 7.84724C27.5897 6.70198 29.3462 5.47756 30.1389 6.66672C31.3611 8.47222 32 10.5973 32 12.8056V12.8056ZM28.4445 12.8056C28.4445 14.3889 27.9861 15.9167 27.0973 17.2362C26.8889 17.5417 26.5556 17.6945 26.2084 17.6945C25.3455 17.6945 24.8529 16.7424 25.3334 16.0417C25.9862 15.0834 26.3195 13.9722 26.3195 12.8056C26.3195 11.6528 25.9862 10.5278 25.3334 9.56947C24.5428 8.41644 26.2869 7.20707 27.0973 8.3889C27.9861 9.69443 28.4445 11.2222 28.4445 12.8056V12.8056Z" fill="#0165E1" /></svg>