<svg width="32" height="32" viewBox="0 0 32 32" fill="none" xmlns="http://www.w3.org/2000/svg">
 <path  d= "M16 0C7.16129 0 0 7.16774 0 16C0 24.8387 7.16129 32 16 32C24.8387 32 32 24.8387 32 16C32 7.16774 24.8387 0 16 0ZM10.8387 22.7032C8.8129 23.3871 7.04516 24.4645 5.67742 25.8129V8.25806C5.67742 6.83226 6.83226 5.67742 8.25806 5.67742C9.68387 5.67742 10.8387 6.83226 10.8387 8.25806V22.7032ZM18.5806 22.0645C17.7484 21.9355 16.8903 21.8645 16.0129 21.8645C15.1226 21.8645 14.2581 21.9355 13.4194 22.0645V8.25806C13.4194 6.83226 14.5742 5.67742 16 5.67742C17.4258 5.67742 18.5806 6.83226 18.5806 8.25806V22.0645ZM26.3226 25.7871C24.9548 24.4452 23.1871 23.3742 21.1613 22.6903V8.25806C21.1613 6.83226 22.3161 5.67742 23.7419 5.67742C25.1677 5.67742 26.3226 6.83226 26.3226 8.25806V25.7871Z" fill="#0165E1" /></svg>