<svg width="34" height="32" viewBox="0 0 34 32" fill="none" xmlns="http://www.w3.org/2000/svg">
 <path  d= "M20.4193 23.208C19.4546 24.1319 18.2929 24.8453 16.9953 25.2801C15.7045 24.8453 14.536 24.1319 13.5781 23.208H20.4193ZM23.4086 9.64785C24.7673 8.49972 26.3706 7.6641 28.1369 7.18855V18.1399C28.1369 33.0452 5.85373 32.9229 5.85373 18.1603V7.18175C7.61329 7.65052 9.22339 8.51331 10.5753 9.65465C14.4341 6.93718 19.5769 6.94398 23.4086 9.64785V9.64785ZM9.22339 5.67356C13.5985 1.59736 20.3854 1.59057 24.7741 5.65997C24.2917 5.89775 23.8298 6.15591 23.3746 6.44124C19.3867 4.36918 14.5972 4.37597 10.6093 6.44804C10.1813 6.17629 9.66497 5.89096 9.22339 5.67356V5.67356ZM3.12947 4.15857V8.86658C-0.83803 11.3463 -0.83803 17.0937 3.13626 19.621C4.92979 36.2722 29.0677 35.9461 30.8272 19.7229L30.8476 19.6074C34.8355 17.1413 34.8491 11.3395 30.8612 8.85979V4.15857C29.6859 4.19254 28.5514 4.36238 27.4576 4.6613C21.8868 -1.5549 12.1379 -1.5549 6.56706 4.6681C5.4597 4.36918 4.31836 4.19254 3.12947 4.15857V4.15857ZM17.763 21.7406C17.763 21.7406 20.2087 21.7202 21.9275 21.6387C22.6205 21.6047 23.361 21.3669 23.6599 21.1971C25.4467 20.1712 25.3855 18.534 25.4399 17.9769C20.0389 17.9361 18.653 17.7119 17.763 21.7406ZM8.55761 17.9837C8.61196 18.5408 8.55081 20.178 10.3375 21.2039C10.6365 21.3737 11.3702 21.6115 12.0699 21.6455C13.7887 21.7202 16.2344 21.7474 16.2344 21.7474C15.3377 17.7119 13.945 17.9361 8.55761 17.9837ZM20.0457 26.3671C19.8283 26.007 19.5769 25.8711 19.5769 25.8711C17.8921 26.3671 16.0306 26.3399 14.4205 25.8711C14.4205 25.8711 14.2235 25.973 13.9857 26.3195C13.7955 26.598 13.7344 26.9717 13.7344 26.9717C15.7113 28.1674 18.2929 28.1674 20.2699 26.9717C20.2631 26.9649 20.2495 26.7 20.0457 26.3671V26.3671Z" fill="#0165E1" /></svg>