<svg width="24" height="33" viewBox="0 0 24 33" fill="none" xmlns="http://www.w3.org/2000/svg">
 <path  d= "M15.4275 19.2471C16.4006 19.2471 17.1244 19.9634 17.1244 20.9321C17.1244 21.904 16.3981 22.6171 15.4275 22.6171C14.4463 22.6171 13.7306 21.894 13.7306 20.9321C13.7306 19.9628 14.4544 19.2471 15.4275 19.2471ZM7.07813 20.9321C7.07813 19.9565 7.80813 19.2471 8.775 19.2471C9.74813 19.2471 10.4719 19.9634 10.4719 20.9321C10.4719 21.8953 9.755 22.6171 8.775 22.6171C7.81 22.6171 7.07813 21.9103 7.07813 20.9321V20.9321ZM12 10.4759C9.8275 10.4759 5.60563 11.7146 3.71813 14.729L0.890002 0.541504V21.509C0.890002 27.6121 5.86563 32.5415 12 32.5415C18.14 32.5415 23.11 27.6071 23.11 21.509C23.11 15.4178 18.1481 10.4759 12 10.4759V10.4759ZM12 29.7334C7.42063 29.7334 3.71813 26.0521 3.71813 21.509C3.71813 16.9665 7.42063 13.2846 12 13.2846C16.5794 13.2846 20.2819 16.9665 20.2819 21.509C20.2819 26.0515 16.5788 29.7334 12 29.7334V29.7334Z" fill="#0165E1" /></svg>