<svg width="32" height="32" viewBox="0 0 32 32" fill="none" xmlns="http://www.w3.org/2000/svg">
 <path  d= "M6.84745 0.106176C3.66232 0.6775 1.09851 3.03421 0.291511 6.13364C-0.00129261 7.25487 -0.0227173 7.91189 0.0129905 16.596C0.0272736 24.566 0.0344151 24.7517 0.170105 25.373C0.905684 28.6938 3.2624 31.0577 6.61892 31.8361C7.05456 31.9361 7.6116 31.9575 11.1967 31.9718C14.9031 32.0003 15.2888 31.9932 15.3887 31.8932C15.4887 31.7932 15.4959 30.5149 15.4959 16.0247C15.4959 5.27666 15.4744 0.22044 15.4316 0.1276C15.3673 0.00619388 15.2531 -0.000947718 11.3681 0.00619383C8.21149 0.0133354 7.26166 0.0347601 6.84745 0.106176V0.106176ZM12.8392 16.0033V29.4222L10.1397 29.3865C7.65445 29.358 7.39021 29.3437 6.8903 29.2223C4.75498 28.6724 3.1767 27.0298 2.72678 24.8874C2.58395 24.216 2.58395 7.74049 2.71964 7.08347C3.11956 5.21952 4.41219 3.67695 6.14758 2.98422C7.01885 2.63428 7.42592 2.59143 10.2611 2.58429L12.8249 2.57715V16.0033H12.8392ZM7.41878 6.63355C7.00457 6.71211 6.36897 7.03348 6.02618 7.32628C5.33345 7.92617 4.98351 8.78316 5.04064 9.79012C5.06921 10.3115 5.09777 10.4543 5.31202 10.8756C5.62625 11.5184 6.09045 11.9897 6.73319 12.3039C7.17597 12.5253 7.29023 12.5468 7.8687 12.5682C8.39003 12.5896 8.57571 12.5682 8.92564 12.4468C10.3611 11.9611 11.2324 10.5685 10.9824 9.13309C10.7039 7.44055 9.08276 6.2979 7.41878 6.63355V6.63355ZM18.7167 0.0419016C18.6881 0.0633262 18.6739 7.24058 18.6739 16.0033C18.6739 30.4506 18.681 31.9146 18.781 31.9575C18.9595 32.0218 24.1014 32.0003 24.737 31.9289C27.4294 31.6218 29.8075 29.9864 31.093 27.5583C31.2573 27.2441 31.4787 26.7227 31.5929 26.4014C32.0071 25.1587 32 25.4872 32 15.9676C32 8.36895 31.9857 7.23344 31.8929 6.75496C31.2358 3.30559 28.6006 0.698924 25.1441 0.106176C24.6799 0.0276186 23.9657 0.00619383 21.659 0.00619383C20.0593 -0.000947718 18.7381 0.0204769 18.7167 0.0419016V0.0419016ZM25.794 14.475C26.8295 14.7464 27.6722 15.5319 28.0221 16.5389C28.2435 17.1602 28.2364 18.0743 28.015 18.6456C27.6079 19.6954 26.8152 20.431 25.794 20.7024C24.1371 21.1309 22.3732 20.1311 21.8947 18.4885C21.7519 17.9886 21.759 17.1388 21.9233 16.6174C22.416 14.9963 24.1371 14.0393 25.794 14.475V14.475Z" fill="#0165E1" /></svg>