<svg width="30" height="32" viewBox="0 0 30 32" fill="none" xmlns="http://www.w3.org/2000/svg">
 <path  d= "M14.9936 32C14.5682 32 14.1364 31.8857 13.7618 31.6698L9.84392 29.3521C9.25974 29.0219 9.54548 28.9076 9.73597 28.8441C10.517 28.5711 10.6757 28.5139 11.5076 28.0377C11.5965 27.9869 11.7108 28.006 11.7997 28.0631L14.8095 29.8474C14.9174 29.9109 15.0698 29.9109 15.1714 29.8474L26.8996 23.0785C27.0075 23.015 27.0774 22.888 27.0774 22.761V9.22314C27.0774 9.08979 27.0075 8.96914 26.8932 8.8993L15.1714 2.13672C15.0635 2.07322 14.9174 2.07322 14.8095 2.13672L3.09404 8.90565C2.97975 8.96914 2.9099 9.09614 2.9099 9.22949V22.761C2.9099 22.888 2.97975 23.015 3.09404 23.0721L6.30706 24.9263C8.05327 25.7962 9.12004 24.7739 9.12004 23.7389V10.3788C9.12004 10.1883 9.27243 10.0423 9.46293 10.0423H10.9488C11.1329 10.0423 11.2917 10.1883 11.2917 10.3788V23.7452C11.2917 26.0693 10.0217 27.4027 7.81832 27.4027C7.13889 27.4027 6.6055 27.4027 5.11964 26.6661L2.04632 24.8945C1.28434 24.4564 0.814453 23.6373 0.814453 22.7546V9.22314C0.814453 8.34686 1.28434 7.52138 2.04632 7.08324L13.7618 0.314317C14.5047 -0.104772 15.4889 -0.104772 16.2255 0.314317L27.9537 7.08959C28.7156 7.52773 29.1855 8.34686 29.1855 9.22949V22.761C29.1855 23.6373 28.7156 24.4564 27.9537 24.9009L16.2255 31.6698C15.8509 31.8857 15.4254 32 14.9936 32ZM24.4612 18.659C24.4612 16.1254 22.7468 15.4523 19.1464 14.9761C15.5016 14.4935 15.1333 14.2459 15.1333 13.395C15.1333 12.6901 15.4445 11.7504 18.1432 11.7504C20.5497 11.7504 21.4387 12.2711 21.807 13.8966C21.8388 14.049 21.9785 14.1633 22.1372 14.1633H23.6612C23.7564 14.1633 23.8453 14.1252 23.9088 14.0554C23.9723 13.9855 24.0041 13.8903 23.9977 13.795C23.7628 10.9947 21.9023 9.69302 18.1432 9.69302C14.7968 9.69302 12.8029 11.1027 12.8029 13.4712C12.8029 16.0365 14.7904 16.7477 17.9971 17.0652C21.8388 17.4398 22.1372 18.005 22.1372 18.7606C22.1372 20.0687 21.0831 20.6274 18.613 20.6274C15.508 20.6274 14.8285 19.8464 14.5999 18.3034C14.5745 18.1383 14.4349 18.0177 14.2634 18.0177H12.7458C12.5553 18.0177 12.4093 18.1701 12.4093 18.3542C12.4093 20.329 13.4824 22.6848 18.6194 22.6848C22.3277 22.6784 24.4612 21.2116 24.4612 18.659V18.659Z" fill="#0165E1" /></svg>