<svg width="32" height="20" viewBox="0 0 32 20" fill="none" xmlns="http://www.w3.org/2000/svg">
 <path  d= "M15.815 19.7997C15.71 19.7997 15.605 19.7697 15.51 19.7197L14.55 19.1497C14.405 19.0697 14.475 19.0397 14.525 19.0247C14.715 18.9597 14.755 18.9447 14.96 18.8247C14.98 18.8147 15.01 18.8197 15.03 18.8297L15.77 19.2697C15.795 19.2847 15.835 19.2847 15.86 19.2697L18.75 17.5997C18.775 17.5847 18.795 17.5547 18.795 17.5197V14.1847C18.795 14.1497 18.78 14.1197 18.75 14.1047L15.86 12.4397C15.835 12.4247 15.8 12.4247 15.77 12.4397L12.88 14.1047C12.85 14.1197 12.835 14.1547 12.835 14.1847V17.5197C12.835 17.5497 12.855 17.5797 12.88 17.5947L13.67 18.0497C14.1 18.2647 14.365 18.0097 14.365 17.7597V14.4647C14.365 14.4197 14.4 14.3797 14.45 14.3797H14.815C14.86 14.3797 14.9 14.4147 14.9 14.4647V17.7597C14.9 18.3347 14.59 18.6597 14.045 18.6597C13.88 18.6597 13.745 18.6597 13.38 18.4797L12.62 18.0447C12.435 17.9347 12.315 17.7347 12.315 17.5197V14.1847C12.315 13.9697 12.43 13.7647 12.62 13.6597L15.51 11.9897C15.695 11.8847 15.935 11.8847 16.115 11.9897L19.005 13.6597C19.19 13.7697 19.31 13.9697 19.31 14.1847V17.5197C19.31 17.7347 19.195 17.9397 19.005 18.0447L16.115 19.7147C16.03 19.7697 15.925 19.7997 15.815 19.7997V19.7997ZM18.15 16.5097C18.15 15.8847 17.73 15.7197 16.84 15.5997C15.94 15.4797 15.85 15.4197 15.85 15.2097C15.85 15.0347 15.925 14.8047 16.59 14.8047C17.185 14.8047 17.405 14.9347 17.495 15.3347C17.505 15.3747 17.535 15.3997 17.575 15.3997H17.95C17.975 15.3997 17.995 15.3897 18.01 15.3747C18.025 15.3547 18.035 15.3347 18.03 15.3097C17.97 14.6197 17.515 14.2997 16.59 14.2997C15.765 14.2997 15.275 14.6497 15.275 15.2297C15.275 15.8647 15.765 16.0347 16.555 16.1147C17.5 16.2097 17.575 16.3447 17.575 16.5297C17.575 16.8547 17.315 16.9897 16.705 16.9897C15.94 16.9897 15.77 16.7997 15.715 16.4197C15.71 16.3797 15.675 16.3497 15.63 16.3497H15.255C15.21 16.3497 15.17 16.3847 15.17 16.4347C15.17 16.9197 15.435 17.4997 16.7 17.4997C17.625 17.4997 18.15 17.1397 18.15 16.5097V16.5097ZM20.875 14.0047C20.875 14.3097 20.625 14.5597 20.32 14.5597C20.015 14.5597 19.765 14.3097 19.765 14.0047C19.765 13.6897 20.025 13.4497 20.32 13.4497C20.62 13.4447 20.875 13.6897 20.875 14.0047ZM20.785 14.0047C20.785 13.7447 20.575 13.5397 20.315 13.5397C20.06 13.5397 19.85 13.7447 19.85 14.0047C19.85 14.2647 20.06 14.4747 20.315 14.4747C20.575 14.4697 20.785 14.2597 20.785 14.0047ZM20.56 14.3147H20.43C20.425 14.2847 20.405 14.1247 20.405 14.1197C20.395 14.0847 20.385 14.0647 20.34 14.0647H20.23V14.3147H20.11V13.6897H20.325C20.4 13.6897 20.545 13.6897 20.545 13.8547C20.545 13.9697 20.47 13.9947 20.425 14.0097C20.51 14.0147 20.515 14.0697 20.53 14.1497C20.535 14.1997 20.545 14.2847 20.56 14.3147V14.3147ZM20.42 13.8747C20.42 13.7897 20.36 13.7897 20.33 13.7897H20.23V13.9647H20.325C20.405 13.9647 20.42 13.9097 20.42 13.8747V13.8747ZM6.865 6.74971C6.865 6.61471 6.795 6.49471 6.68 6.42971L3.615 4.66471C3.565 4.63471 3.505 4.61971 3.445 4.61471H3.415C3.355 4.61471 3.3 4.63471 3.245 4.66471L0.185 6.42971C0.07 6.49471 0 6.61971 0 6.74971L0.005 11.4997C0.005 11.5647 0.04 11.6247 0.095 11.6597C0.15 11.6947 0.22 11.6947 0.28 11.6597L2.1 10.6147C2.215 10.5447 2.285 10.4247 2.285 10.2947V8.07471C2.285 7.94471 2.355 7.81971 2.47 7.75471L3.245 7.30971C3.305 7.27471 3.365 7.25971 3.43 7.25971C3.495 7.25971 3.56 7.27471 3.615 7.30971L4.39 7.75471C4.505 7.81971 4.575 7.94471 4.575 8.07471V10.2947C4.575 10.4247 4.645 10.5497 4.76 10.6147L6.58 11.6597C6.635 11.6947 6.71 11.6947 6.765 11.6597C6.82 11.6297 6.855 11.5647 6.855 11.4997L6.865 6.74971ZM23.625 1.56471V10.3847C23.625 10.5147 23.555 10.6397 23.44 10.7047L20.375 12.4747C20.26 12.5397 20.12 12.5397 20.005 12.4747L16.94 10.7047C16.825 10.6397 16.755 10.5147 16.755 10.3847V6.84471C16.755 6.71471 16.825 6.58971 16.94 6.52471L20.005 4.75471C20.12 4.68971 20.26 4.68971 20.375 4.75471L21.14 5.19471C21.225 5.24471 21.335 5.17971 21.335 5.08471V0.384713C21.335 0.244713 21.485 0.154713 21.61 0.224713L23.435 1.24471C23.55 1.30471 23.625 1.42971 23.625 1.56471V1.56471ZM21.325 8.00971C21.325 7.97471 21.305 7.94471 21.28 7.92971L20.23 7.31971C20.2 7.30471 20.165 7.30471 20.135 7.31971L19.085 7.92971C19.055 7.94471 19.04 7.97471 19.04 8.00971V9.22471C19.04 9.25971 19.06 9.28971 19.085 9.30471L20.135 9.90971C20.165 9.92471 20.2 9.92471 20.225 9.90971L21.275 9.30471C21.305 9.28971 21.32 9.25971 21.32 9.22471V8.00971H21.325ZM31.815 7.97471C31.93 7.90971 32 7.78471 32 7.65471V6.79971C32 6.66971 31.93 6.54471 31.815 6.47971L28.77 4.70971C28.655 4.64471 28.515 4.64471 28.4 4.70971L25.335 6.47971C25.22 6.54471 25.15 6.66971 25.15 6.79971V10.3397C25.15 10.4747 25.22 10.5947 25.335 10.6597L28.38 12.3947C28.49 12.4597 28.63 12.4597 28.745 12.3947L30.585 11.3697C30.71 11.2997 30.71 11.1197 30.585 11.0497L27.5 9.27971C27.44 9.24471 27.405 9.18471 27.405 9.11971V8.00971C27.405 7.94471 27.44 7.88471 27.5 7.84971L28.46 7.29471C28.515 7.25971 28.59 7.25971 28.645 7.29471L29.605 7.84971C29.66 7.88471 29.7 7.94471 29.7 8.00971V8.87971C29.7 9.01971 29.855 9.10971 29.98 9.03971L31.815 7.97471V7.97471ZM27.95 8.14971C27.93 8.16471 27.915 8.18471 27.915 8.20971V8.88971C27.915 8.91471 27.93 8.93971 27.95 8.94971L28.54 9.28971C28.56 9.30471 28.59 9.30471 28.61 9.28971L29.2 8.94971C29.22 8.93471 29.235 8.91471 29.235 8.88971V8.20971C29.235 8.18471 29.22 8.15971 29.2 8.14971L28.61 7.80971C28.59 7.79471 28.56 7.79471 28.54 7.80971L27.95 8.14971ZM15.24 10.3247V6.80471C15.24 6.67471 15.16 6.54971 15.045 6.48471L11.99 4.72471C11.885 4.66471 11.74 4.65471 11.62 4.72471L8.565 6.48471C8.45 6.54971 8.37 6.66971 8.37 6.80471V10.3247C8.37 10.4647 8.465 10.5847 8.57 10.6447L11.63 12.4047C11.75 12.4747 11.89 12.4697 12 12.4047L15.05 10.6447C15.14 10.5947 15.205 10.5097 15.23 10.4097C15.235 10.3847 15.24 10.3547 15.24 10.3247ZM11.525 4.07971L11.485 4.10471H11.54L11.525 4.07971V4.07971ZM15.335 10.5897L15.315 10.5547V10.5997L15.335 10.5897Z" fill="#0165E1" /></svg>