<svg width="32" height="14" viewBox="0 0 32 14" fill="none" xmlns="http://www.w3.org/2000/svg">
 <path  d= "M9.35561 2.19414L7.6455 7.87952L4.92032 2.19414H2.45016L0 10.1997H2.24515L3.80025 4.87432L6.33041 10.1997H9.1756L11.6008 2.19414H9.35561ZM31.9821 2.14914C31.8371 1.24908 30.787 0.74405 29.877 0.584039C27.6468 0.194014 24.7816 1.39909 25.4517 3.52423V3.52923C23.2615 3.96426 21.7364 4.86932 20.7414 5.93939C20.5913 5.44936 20.0613 5.10934 19.0412 5.10934H14.661C14.1959 5.10934 14.0159 4.99433 14.0859 4.73931C14.1659 4.46429 14.1809 4.39929 14.2709 4.12927C14.3759 3.80925 14.661 3.77425 14.936 3.77425H21.6114L22.0964 2.19915C15.111 2.19915 14.871 2.17414 14.0909 2.25915C13.4759 2.32415 12.9158 2.49916 12.5608 3.0092C12.2208 3.50423 11.8408 4.78932 11.6808 5.36435C11.4107 6.33442 11.6508 6.79445 13.3209 6.79445H17.6862C18.0762 6.79445 18.1262 6.92946 18.0712 7.12447C18.0162 7.34448 17.9312 7.6245 17.8462 7.85452C17.7662 8.06453 17.6112 8.22454 17.1561 8.22454H10.8157L10.2357 10.1997C17.2311 10.1997 17.5011 10.1697 18.2812 10.0847C18.6112 10.0497 18.9312 9.97965 19.2063 9.83965C19.2163 10.0247 19.2313 10.2047 19.2663 10.3797C19.5363 11.9048 20.6364 12.9949 22.1064 13.3549C24.5366 13.9499 27.5418 12.5148 28.8619 9.95465C29.797 8.14454 29.5669 6.1444 28.6919 4.67931H28.6969C30.177 4.38429 32.2121 3.57924 31.9821 2.14914V2.14914ZM26.5367 7.38449C26.2417 8.85958 24.7066 9.77464 23.4565 9.57963C21.9114 9.33961 21.5314 7.6045 22.7515 6.33942C23.5615 5.49936 25.0116 5.13934 26.1767 4.99433C26.5117 5.69937 26.6917 6.59443 26.5367 7.38449V7.38449ZM27.6268 3.22921C27.4168 2.92919 27.1368 2.30415 27.5018 1.91413C27.8368 1.5541 28.5469 1.40909 29.0919 1.5291C29.857 1.69911 30.077 2.32415 29.3369 2.74918C28.8019 3.0542 28.1568 3.15421 27.6268 3.22921V3.22921Z" fill="#0165E1" /></svg>