<svg width="26" height="32" viewBox="0 0 26 32" fill="none" xmlns="http://www.w3.org/2000/svg">
 <path  d= "M5.7747 0.00854994C5.7747 0.00854994 14.3806 -0.520448 13.5806 6.74359C13.5806 6.74359 14.8128 1.91165 20.2254 4.12441C20.2254 4.12441 19.0835 8.89829 14.5483 7.73708C14.5483 7.73708 15.4902 4.21473 18.8126 4.0857C18.8126 4.0857 16.2385 3.42123 13.5161 7.23388C13.5161 7.23388 12.2388 1.13751 7.47782 0.802046C7.47782 0.802046 12.3291 2.05358 12.4839 7.73708C12.4839 7.74353 5.61988 8.18866 5.7747 0.00854994V0.00854994ZM25.9024 20.3685C25.9024 23.4973 25.2767 26.5165 23.838 28.9034C21.1156 30.8968 17.0643 32 13 32C8.94224 32 4.88444 30.8968 2.16204 28.9034C0.723422 26.5165 0.0976562 23.4973 0.0976562 20.3685C0.0976562 17.2461 1.23952 14.2592 2.67813 11.8723C5.40053 9.87887 8.94224 8.73701 13 8.73701C17.0643 8.73701 20.5995 9.87242 23.3219 11.8723C24.7606 14.2592 25.9024 17.2461 25.9024 20.3685V20.3685ZM7.83908 27.0971C7.83908 26.0972 7.03269 25.2908 6.03275 25.2908C5.03282 25.2908 4.22642 26.0972 4.22642 27.0971C4.22642 28.097 5.03282 28.9034 6.03275 28.9034C7.03269 28.9034 7.83908 28.097 7.83908 27.0971ZM7.83908 22.8264C7.83908 21.8265 7.03269 21.0201 6.03275 21.0201C5.03282 21.0201 4.22642 21.8265 4.22642 22.8264C4.22642 23.8263 5.03282 24.6327 6.03275 24.6327C7.03269 24.6327 7.83908 23.8263 7.83908 22.8264ZM7.83908 18.5557C7.83908 17.5558 7.03269 16.7494 6.03275 16.7494C5.03282 16.7494 4.22642 17.5558 4.22642 18.5557C4.22642 19.5557 5.03282 20.3621 6.03275 20.3621C7.03269 20.3621 7.83908 19.5557 7.83908 18.5557ZM12.4839 27.0971C12.4839 26.0972 11.6775 25.2908 10.6776 25.2908C9.67767 25.2908 8.87128 26.0972 8.87128 27.0971C8.87128 28.097 9.67767 28.9034 10.6776 28.9034C11.6775 28.9034 12.4839 28.097 12.4839 27.0971ZM12.4839 22.8264C12.4839 21.8265 11.6775 21.0201 10.6776 21.0201C9.67767 21.0201 8.87128 21.8265 8.87128 22.8264C8.87128 23.8263 9.67767 24.6327 10.6776 24.6327C11.6775 24.6327 12.4839 23.8263 12.4839 22.8264ZM12.4839 18.5557C12.4839 17.5558 11.6775 16.7494 10.6776 16.7494C9.67767 16.7494 8.87128 17.5558 8.87128 18.5557C8.87128 19.5557 9.67767 20.3621 10.6776 20.3621C11.6775 20.3621 12.4839 19.5557 12.4839 18.5557ZM17.1288 27.0971C17.1288 26.0972 16.3224 25.2908 15.3225 25.2908C14.3225 25.2908 13.5161 26.0972 13.5161 27.0971C13.5161 28.097 14.3225 28.9034 15.3225 28.9034C16.3224 28.9034 17.1288 28.097 17.1288 27.0971ZM17.1288 22.8264C17.1288 21.8265 16.3224 21.0201 15.3225 21.0201C14.3225 21.0201 13.5161 21.8265 13.5161 22.8264C13.5161 23.8263 14.3225 24.6327 15.3225 24.6327C16.3224 24.6327 17.1288 23.8263 17.1288 22.8264ZM17.1288 18.5557C17.1288 17.5558 16.3224 16.7494 15.3225 16.7494C14.3225 16.7494 13.5161 17.5558 13.5161 18.5557C13.5161 19.5557 14.3225 20.3621 15.3225 20.3621C16.3224 20.3621 17.1288 19.5557 17.1288 18.5557ZM21.7737 27.0971C21.7737 26.0972 20.9673 25.2908 19.9673 25.2908C18.9674 25.2908 18.161 26.0972 18.161 27.0971C18.161 28.097 18.9674 28.9034 19.9673 28.9034C20.9673 28.9034 21.7737 28.097 21.7737 27.0971ZM21.7737 22.8264C21.7737 21.8265 20.9673 21.0201 19.9673 21.0201C18.9674 21.0201 18.161 21.8265 18.161 22.8264C18.161 23.8263 18.9674 24.6327 19.9673 24.6327C20.9673 24.6327 21.7737 23.8263 21.7737 22.8264ZM21.7737 18.5557C21.7737 17.5558 20.9673 16.7494 19.9673 16.7494C18.9674 16.7494 18.161 17.5558 18.161 18.5557C18.161 19.5557 18.9674 20.3621 19.9673 20.3621C20.9673 20.3621 21.7737 19.5557 21.7737 18.5557ZM23.3219 16.001C23.0123 14.5624 22.8446 13.6206 22.2898 12.3884C19.7867 11.1046 16.4514 10.324 13 10.324C9.54865 10.324 6.21338 11.1046 3.71032 12.3884C3.14262 13.6464 2.98779 14.5753 2.67813 16.001C5.40053 15.4914 9.04546 15.0463 13 15.0463C16.9546 15.0463 20.5995 15.4914 23.3219 16.001Z" fill="#0165E1" /></svg>