<svg width="20" height="32" viewBox="0 0 20 32" fill="none" xmlns="http://www.w3.org/2000/svg">
 <path  d= "M17.1888 20.8685C15.4768 21.9557 13.1213 22.3868 11.5655 22.5492L12.8714 23.8363L17.6386 28.6036C19.3818 30.3905 16.5452 33.1834 14.7833 31.459C13.5899 30.2468 11.8404 28.4974 10.016 26.6729L5.24874 31.4527C3.48679 33.1709 0.650173 30.3531 2.41213 28.5974C3.62425 27.3852 5.35496 25.6358 7.17939 23.8301L8.46649 22.543C6.92947 22.3805 4.53646 21.9744 2.80575 20.8623C0.768887 19.5502 -0.124585 18.7817 0.66267 17.1759C1.12503 16.2637 2.39338 15.4952 4.07411 16.8198C4.07411 16.8198 6.34215 18.6255 10.0035 18.6255C13.6649 18.6255 15.9329 16.8198 15.9329 16.8198C17.6136 15.5014 18.8758 16.2637 19.3444 17.1759C20.1191 18.7817 19.2256 19.5502 17.1888 20.8685ZM1.89354 8.10373C1.89354 3.62387 5.53615 0 9.99726 0C14.4584 0 18.101 3.62387 18.101 8.10373C18.101 12.5648 14.4584 16.1887 9.99726 16.1887C5.53615 16.1887 1.89354 12.5648 1.89354 8.10373V8.10373ZM6.01725 8.10373C6.01725 10.2968 7.8042 12.0837 9.99726 12.0837C12.1903 12.0837 13.9773 10.2968 13.9773 8.10373C13.9773 5.89192 12.1903 4.10497 9.99726 4.10497C7.8042 4.10497 6.01725 5.89192 6.01725 8.10373Z" fill="#0165E1" /></svg>