<svg width="32" height="32" viewBox="0 0 32 32" fill="none" xmlns="http://www.w3.org/2000/svg">
 <path  d= "M15.2113 0.0152878C15.6952 -0.00471198 16.1791 -0.00277646 16.6629 0.0094815C16.8958 0.0185137 17.1274 0.0352877 17.359 0.0565778C17.6765 0.073997 17.9907 0.123029 18.3055 0.161093C18.4945 0.188835 18.6816 0.224318 18.87 0.255286C19.3797 0.341092 19.881 0.466897 20.379 0.60367C21.1687 0.827539 21.9397 1.11463 22.6861 1.45592C24.3996 2.24559 25.9725 3.34042 27.3074 4.67396C28.5996 5.97008 29.6764 7.48361 30.4615 9.13779C30.5344 9.30489 30.6189 9.46682 30.6854 9.63714C30.8667 10.052 31.0331 10.4739 31.1744 10.9036C31.4415 11.6991 31.648 12.5158 31.7822 13.3442C31.8189 13.5468 31.8492 13.7507 31.8725 13.9552C31.908 14.2023 31.9331 14.4513 31.9486 14.701C32.0022 15.239 32.0028 15.7803 31.9983 16.3203C31.9938 16.641 31.9815 16.9616 31.9499 17.2809C31.9344 17.499 31.917 17.7171 31.8867 17.9338C31.8615 18.1093 31.846 18.2861 31.8151 18.4609C31.757 18.7932 31.7054 19.1261 31.6299 19.4551C31.3654 20.6487 30.9654 21.8132 30.4357 22.9151C29.4183 25.0331 27.9306 26.926 26.1054 28.4067C24.9892 29.3193 23.754 30.0759 22.4338 30.6557C22.0332 30.8286 21.63 30.9944 21.2164 31.1337C20.99 31.2086 20.7642 31.2873 20.5345 31.3524C20.1074 31.4737 19.6771 31.5873 19.2416 31.675C18.941 31.7337 18.639 31.7866 18.3365 31.835C17.9978 31.8776 17.659 31.9279 17.3178 31.9473C16.8862 31.9899 16.4526 32.0015 16.0197 31.9995C15.5797 32.0015 15.1391 31.9918 14.7004 31.9486C14.4881 31.9337 14.2765 31.9163 14.0662 31.8873C13.8907 31.8621 13.7139 31.8466 13.5391 31.8157C13.2733 31.7692 13.0068 31.7273 12.7423 31.6724C12.4681 31.6118 12.1946 31.5505 11.9236 31.4776C11.3668 31.3376 10.8217 31.1544 10.2843 30.9531C9.6075 30.6873 8.94299 30.3886 8.30751 30.0337C8.16945 29.9595 8.03139 29.886 7.89784 29.8034C7.17398 29.3789 6.48753 28.8937 5.8385 28.3621C3.6011 26.5293 1.8766 24.0764 0.912739 21.3493C0.713386 20.7854 0.544355 20.2106 0.409517 19.628C0.314034 19.2306 0.246938 18.8267 0.178552 18.4242C0.152745 18.2726 0.139197 18.119 0.117262 17.9667C0.0785525 17.7113 0.0688751 17.4532 0.0417786 17.1964C-0.00983386 16.5855 -0.00402745 15.9713 0.00887566 15.3584C0.0179078 15.1319 0.030811 14.9061 0.0540366 14.6803C0.0740364 14.4758 0.0837137 14.2694 0.113391 14.0661C0.139842 13.8848 0.155326 13.7016 0.188229 13.5216C0.23339 13.2674 0.272099 13.0119 0.325002 12.759C0.54629 11.6933 0.871449 10.6475 1.30951 9.65069C1.3837 9.4623 1.4766 9.28166 1.55854 9.0965C2.07789 8.01845 2.71337 6.99587 3.4611 6.0604C4.75142 4.42299 6.37076 3.04881 8.18816 2.03011C8.67203 1.76237 9.16622 1.51076 9.67654 1.29657C10.6972 0.8527 11.7675 0.525606 12.8578 0.304318C13.0842 0.261092 13.312 0.224318 13.5391 0.184964C13.7081 0.154642 13.8797 0.139803 14.0494 0.115287C14.2771 0.0810937 14.5075 0.0714164 14.7365 0.0481908C14.8952 0.0327071 15.0533 0.0249652 15.2113 0.0152878V0.0152878ZM15.7687 1.59011C15.1733 1.59656 14.5797 1.65398 13.99 1.73398C13.5191 1.80366 13.0526 1.90172 12.5894 2.0114C11.692 2.2372 10.8165 2.54946 9.97911 2.94171C9.30428 3.26365 8.65074 3.63203 8.03203 4.05267C7.76236 4.24106 7.4901 4.42686 7.23591 4.63525C6.90817 4.89137 6.59204 5.16234 6.28882 5.4475C6.12689 5.59201 5.9785 5.75072 5.82302 5.90298C4.00239 7.76038 2.69789 10.1217 2.11337 12.6571C1.98176 13.2016 1.88499 13.7552 1.82692 14.3119C1.75596 14.8855 1.73402 15.4635 1.73596 16.041C1.74305 16.5016 1.76047 16.9622 1.81467 17.4197C1.85467 17.879 1.93531 18.3332 2.02112 18.7861C2.09015 19.0861 2.15208 19.3874 2.23595 19.6835C2.64176 21.1919 3.30046 22.6319 4.17594 23.9254C4.73335 24.7628 5.38754 25.5338 6.11011 26.2331C7.16043 27.2538 8.37138 28.1067 9.68041 28.7634C10.1501 28.9905 10.6262 29.2066 11.1172 29.3847C11.4423 29.4983 11.7662 29.615 12.0991 29.706C12.8255 29.9144 13.5681 30.0673 14.3178 30.1615C14.5055 30.1802 14.6926 30.2008 14.8804 30.2195C15.772 30.2892 16.67 30.2841 17.5603 30.1918C17.8474 30.1531 18.1358 30.1279 18.4216 30.077C18.6558 30.0337 18.8913 29.9963 19.1229 29.9415C19.3894 29.8783 19.6571 29.8183 19.9203 29.7434C21.63 29.2699 23.248 28.4718 24.6674 27.408C25.6854 26.6454 26.6003 25.746 27.3848 24.7448C27.5951 24.4854 27.7828 24.2086 27.9738 23.9351C28.1925 23.6086 28.3983 23.2738 28.5931 22.9325C28.748 22.6461 28.899 22.3577 29.0415 22.0648C29.4086 21.2874 29.7048 20.4764 29.9286 19.6461C30.0957 19.0003 30.2351 18.3455 30.3093 17.6816C30.4235 16.8126 30.4344 15.9332 30.3925 15.059C30.3738 14.8081 30.3493 14.5577 30.328 14.3068C30.1841 13.0758 29.8899 11.861 29.4364 10.7068C29.0525 9.73069 28.5635 8.79521 27.9777 7.92425C27.159 6.71136 26.1557 5.62234 25.0119 4.70944C23.3958 3.41913 21.4977 2.48043 19.4861 1.99463C18.9842 1.87011 18.4739 1.77914 17.9616 1.70753C17.7094 1.66947 17.4552 1.65463 17.2023 1.62753C16.7255 1.59076 16.2468 1.58108 15.7687 1.59011V1.59011ZM8.98557 4.74428C9.84363 4.17074 10.7972 3.75203 11.7791 3.44236C11.5746 3.55655 11.3636 3.66042 11.1643 3.78364C10.441 4.21461 9.77589 4.74492 9.20428 5.36363C8.76557 5.84298 8.38106 6.37846 8.10687 6.96942C7.89461 7.412 7.743 7.8849 7.66429 8.37005C7.60429 8.68295 7.58042 9.00295 7.58881 9.32166C7.5972 10.2029 7.87526 11.0687 8.31719 11.8262C8.69912 12.4855 9.19654 13.0732 9.75976 13.5848C10.0727 13.8661 10.4204 14.1068 10.7243 14.3977C10.8701 14.539 11.0139 14.6829 11.1391 14.8435C11.3081 15.0571 11.4546 15.2945 11.5256 15.5597C11.5836 15.7545 11.5681 15.9597 11.5701 16.1603C11.5714 16.4248 11.5675 16.6893 11.572 16.9539C11.581 17.1822 11.5707 17.4113 11.5791 17.6397C11.5843 17.7932 11.5804 17.9467 11.5823 18.1003C11.5926 18.4725 11.5862 18.8442 11.592 19.2164C11.5991 19.4042 11.5933 19.5919 11.6004 19.7803C11.6023 19.8854 11.6088 19.9919 11.5985 20.0971C11.5397 20.1048 11.481 20.1087 11.4223 20.1074C10.7133 20.1074 10.0107 19.9377 9.36105 19.6603C8.97396 19.4861 8.59912 19.2803 8.25848 19.0261C7.88752 18.7558 7.543 18.448 7.23978 18.1029C6.81849 17.6358 6.46688 17.11 6.16753 16.5577C6.0985 16.4268 6.02302 16.2984 5.96237 16.1629C5.88753 15.9926 5.79334 15.8313 5.7256 15.6584C5.46431 15.0339 5.30173 14.3719 5.20431 13.7029C5.1727 13.4165 5.13399 13.13 5.1269 12.8416C5.08173 11.8268 5.18109 10.8062 5.42818 9.82101C5.56496 9.29521 5.73592 8.77715 5.96431 8.2836C6.37205 7.36748 6.95398 6.53007 7.66107 5.81975C8.06623 5.41976 8.50816 5.05589 8.98557 4.74428V4.74428ZM20.2997 3.44623C20.4764 3.49397 20.6487 3.55848 20.8216 3.61913C21.2319 3.76945 21.6397 3.93138 22.0287 4.13267C22.8745 4.54815 23.6616 5.08815 24.3396 5.74363C24.9977 6.38556 25.5487 7.13716 25.9616 7.95909C26.0441 8.13651 26.1319 8.31135 26.2074 8.49199C26.6145 9.46617 26.8525 10.5087 26.9319 11.561C26.9583 11.8539 26.9603 12.1474 26.9609 12.441C26.9654 13.1919 26.8648 13.941 26.6835 14.6687C26.5564 15.1377 26.4028 15.6035 26.1764 16.0352C25.9712 16.4635 25.7454 16.8842 25.477 17.2764C25.0293 17.9519 24.4706 18.5584 23.8113 19.0325C23.1351 19.5254 22.3506 19.8725 21.5274 20.0248C21.301 20.0693 21.0706 20.0945 20.8397 20.1029C20.7203 20.1067 20.5997 20.1132 20.481 20.0964C20.4629 19.9577 20.481 19.8183 20.4803 19.6796C20.4784 19.439 20.4893 19.199 20.4868 18.959C20.499 18.5061 20.4881 18.0526 20.5003 17.5997C20.5022 17.4461 20.4984 17.2926 20.5022 17.139C20.5132 16.8119 20.4997 16.4848 20.5113 16.1577C20.5177 15.9648 20.4958 15.7681 20.5442 15.5797C20.5868 15.4184 20.659 15.2661 20.7435 15.1229C21.0313 14.6513 21.4571 14.2868 21.8842 13.9448C22.2313 13.6752 22.5596 13.379 22.8532 13.052C23.3487 12.512 23.7674 11.8984 24.0648 11.2281C24.2261 10.8455 24.3564 10.4475 24.4229 10.0371C24.4783 9.7552 24.4912 9.46746 24.488 9.18102C24.4867 8.67457 24.3977 8.17135 24.2532 7.68619C24.1403 7.31652 23.9777 6.96491 23.7958 6.62491C23.5461 6.17782 23.2377 5.76621 22.8951 5.38621C22.2538 4.68622 21.4919 4.09977 20.6629 3.63784C20.5435 3.57203 20.4152 3.52042 20.2997 3.44623V3.44623ZM13.7965 7.21716C13.8597 7.14103 13.9249 7.06684 13.9978 6.9991C13.9584 7.0591 13.9159 7.11587 13.872 7.172C13.672 7.42232 13.5146 7.70813 13.4184 8.01457C13.3623 8.22554 13.3101 8.44038 13.3068 8.65973C13.3023 8.82231 13.3017 8.98682 13.3275 9.14811C13.4004 9.64037 13.6068 10.1062 13.8933 10.5107C14.0223 10.6849 14.1675 10.8507 14.3397 10.9836C14.4442 11.0655 14.5675 11.1184 14.6842 11.1804C14.8849 11.2887 15.092 11.3887 15.2694 11.5339C15.4416 11.6687 15.5629 11.8778 15.5533 12.101C15.5526 16.8539 15.5533 21.6067 15.5526 26.3602C15.5526 26.4473 15.5475 26.5344 15.5552 26.6209C15.5636 26.7163 15.6081 26.8034 15.65 26.8886C15.7055 26.9957 15.7649 27.1041 15.8552 27.1867C15.91 27.2363 15.9823 27.277 16.0584 27.2667C16.1552 27.2538 16.23 27.1796 16.281 27.1009C16.3429 27.0034 16.3894 26.897 16.4281 26.788C16.4771 26.6505 16.4565 26.5028 16.4629 26.3602C16.472 26.1002 16.4616 25.8402 16.472 25.5802C16.4739 25.2002 16.4739 24.8209 16.4758 24.4409C16.4849 24.2073 16.4778 23.9738 16.4829 23.7402C16.4926 23.4802 16.4816 23.2203 16.492 22.9603C16.4939 22.5738 16.4939 22.1874 16.4965 21.8009C16.5055 21.5674 16.4978 21.3338 16.5036 21.1003C16.5126 20.8467 16.5023 20.5932 16.5126 20.3403C16.5145 19.9538 16.5145 19.5674 16.5165 19.1809C16.5268 18.9267 16.5158 18.6725 16.5287 18.4184C16.5474 18.5113 16.5371 18.6067 16.5429 18.7009C16.5552 18.9338 16.57 19.1674 16.592 19.4003C16.6126 19.6222 16.6203 19.8448 16.6474 20.0661C16.6713 20.2661 16.6803 20.4674 16.7087 20.6667C16.7455 20.9306 16.7649 21.1964 16.8081 21.4596C16.9023 22.0428 16.9907 22.628 17.1365 23.2009C17.2094 23.5119 17.2913 23.8209 17.3945 24.1235C17.5584 24.6331 17.7636 25.1344 18.0597 25.5828C18.1713 25.7531 18.3094 25.9041 18.4532 26.048C18.4707 26.0641 18.4887 26.0809 18.51 26.0938C18.5487 26.1099 18.5945 26.0893 18.6197 26.057C18.6655 26.0002 18.6952 25.9318 18.7294 25.868C18.9906 25.3647 19.2571 24.8641 19.5255 24.3641C19.5706 24.2796 19.6184 24.1951 19.6906 24.1312C19.8035 24.0299 19.9384 23.9577 20.0764 23.897C20.2623 23.8183 20.4571 23.7557 20.659 23.7409C21.0835 23.7009 21.5048 23.7893 21.9209 23.8602C22.159 23.8977 22.3984 23.9357 22.639 23.9512C22.8803 23.9577 23.1216 23.9544 23.3622 23.9331C23.9138 23.8738 24.4583 23.7422 24.9712 23.5299C25.3132 23.3854 25.6461 23.2183 25.959 23.0183C26.6983 22.5532 27.3435 21.9493 27.897 21.2757C27.9725 21.1841 28.0422 21.0887 28.1202 20.9996C28.0428 21.2087 27.948 21.4106 27.8519 21.6112C27.7712 21.7983 27.6686 21.9732 27.5764 22.1545C27.2435 22.7757 26.8654 23.3744 26.4312 23.9299C26.1712 24.266 25.8809 24.5783 25.5712 24.8699C25.1429 25.2602 24.6635 25.6035 24.1242 25.8222C23.5945 26.0396 23.0074 26.1209 22.4409 26.0344C22.2113 25.997 21.9887 25.9254 21.7693 25.8486C21.5893 25.786 21.4216 25.6951 21.2513 25.6106C21.03 25.5002 20.8229 25.3647 20.6248 25.2183C20.7997 25.4157 20.9919 25.5964 21.1861 25.7738C21.4616 26.0164 21.75 26.2454 22.0655 26.4338C22.3222 26.5918 22.6003 26.7176 22.8938 26.7893C22.988 26.8131 23.0848 26.8189 23.1809 26.828C23.1003 26.8989 23.0113 26.9596 22.9235 27.0202C22.3035 27.4421 21.6326 27.7854 20.9435 28.0802C19.5977 28.6415 18.1584 28.9815 16.7023 29.0699C16.4016 29.0854 16.101 29.0931 15.8004 29.0931C15.4791 29.086 15.1571 29.0847 14.8378 29.0512C14.1152 29.0021 13.3997 28.875 12.6978 28.7008C12.0301 28.526 11.372 28.306 10.743 28.0202C10.181 27.7712 9.63847 27.477 9.13073 27.1305C9.01267 27.046 8.88944 26.9673 8.78428 26.8673C9.21009 26.7905 9.62492 26.6486 10.0094 26.4493C10.3798 26.2647 10.7185 26.0196 11.0178 25.7351C11.1623 25.5938 11.2946 25.4389 11.4172 25.2777C11.1959 25.4151 10.9701 25.5454 10.732 25.6506C10.4475 25.7899 10.1469 25.8938 9.84105 25.9744C9.47138 26.0725 9.08364 26.086 8.70493 26.048C8.18042 25.9867 7.68171 25.7725 7.25268 25.4686C6.97398 25.2789 6.72237 25.0538 6.48108 24.8196C5.84044 24.1641 5.30689 23.4125 4.82561 22.6351C4.57142 22.2306 4.33981 21.8125 4.1082 21.3951C4.04045 21.2635 3.96949 21.1338 3.90304 21.0016C4.08691 21.1899 4.26239 21.3867 4.4469 21.5745C5.0269 22.1532 5.64431 22.6996 6.32818 23.1538C6.81527 23.4699 7.33913 23.7493 7.91268 23.8654C8.11332 23.9125 8.32042 23.8957 8.52364 23.9177C8.70235 23.9357 8.88235 23.9306 9.0617 23.937C9.38751 23.9409 9.71395 23.9396 10.0398 23.9267C10.2752 23.9164 10.5088 23.8841 10.7423 23.8564C10.8759 23.8402 11.0075 23.8106 11.1385 23.779C11.3888 23.7177 11.6617 23.717 11.9017 23.8183C12.2088 23.9377 12.4462 24.1822 12.6359 24.4448C12.7752 24.6396 12.8978 24.846 13.001 25.0628C13.0759 25.2196 13.1597 25.3718 13.2301 25.5312C13.2946 25.6757 13.3688 25.8164 13.4507 25.9518C13.4939 26.0176 13.541 26.0905 13.6197 26.1164C13.6881 26.068 13.73 25.9931 13.7668 25.9209C13.9023 25.6525 13.9875 25.3628 14.0823 25.0789C14.2126 24.6538 14.3262 24.2228 14.4171 23.7873C14.5597 23.1906 14.6268 22.5796 14.71 21.9725C14.7462 21.7157 14.7636 21.457 14.7946 21.2003C14.8507 20.5138 14.9171 19.828 14.9391 19.1396C14.9442 19.0196 14.9546 18.9003 14.9552 18.7803C14.9558 18.4996 14.9713 18.2196 14.9694 17.9396C14.9687 17.7861 14.9687 17.6326 14.9694 17.4797C14.9726 17.1526 14.9565 16.8255 14.9552 16.4984C14.9423 16.0719 14.9094 15.6468 14.872 15.2223C14.8249 14.8429 14.772 14.4623 14.6707 14.0926C14.5384 13.5926 14.31 13.1229 14.0384 12.6849C13.8346 12.3578 13.6004 12.0474 13.323 11.7797C13.0726 11.5307 12.7694 11.3229 12.4236 11.2345C12.3268 11.2081 12.2262 11.2055 12.1275 11.1933C12.132 11.0004 12.1726 10.8107 12.2088 10.6223C12.3114 10.1249 12.4539 9.6352 12.6449 9.16424C12.743 8.90424 12.8649 8.65457 12.9926 8.40812C13.2152 7.9849 13.4842 7.58297 13.7965 7.21716V7.21716ZM15.8139 7.32684C15.8365 7.32297 15.8597 7.3191 15.8829 7.31458C15.8952 7.43006 15.8887 7.54555 15.8894 7.66103V10.121C15.8887 10.2333 15.8978 10.3462 15.8797 10.4578C15.8565 10.4558 15.8339 10.4546 15.8113 10.4546C15.75 10.2126 15.7004 9.96746 15.6423 9.72488C15.6178 9.62617 15.6049 9.52553 15.5733 9.42876C15.4636 9.41327 15.352 9.41779 15.241 9.41585C14.9146 9.41521 14.5875 9.41585 14.261 9.41521C14.1539 9.41456 14.0468 9.42101 13.9397 9.41327C13.9378 9.38811 13.923 9.35456 13.95 9.33714C14.0326 9.29521 14.1255 9.28037 14.212 9.25005C14.4333 9.1765 14.6558 9.11069 14.8771 9.0365C14.9668 9.00553 15.0642 8.99005 15.1455 8.93715C15.1481 8.90102 15.1468 8.86424 15.1423 8.82876C15.0629 8.79328 14.9791 8.77263 14.8965 8.74618C14.6946 8.67973 14.4907 8.61973 14.2894 8.55134C14.1739 8.51134 14.0526 8.48683 13.9404 8.43586C13.9384 8.41199 13.9359 8.38876 13.9333 8.36554C14.2617 8.35328 14.5913 8.36941 14.9204 8.3578C15.1371 8.34941 15.3546 8.36296 15.5713 8.35328C15.5791 8.32812 15.5881 8.3036 15.5952 8.27844C15.6649 7.95974 15.7455 7.64425 15.8139 7.32684V7.32684ZM16.1991 7.31394C16.2223 7.31716 16.2455 7.32168 16.2687 7.32684C16.332 7.57522 16.3803 7.82748 16.4436 8.07586C16.4668 8.16748 16.4797 8.26167 16.51 8.35135C16.6732 8.36296 16.8371 8.3507 17.001 8.35457C17.3339 8.36231 17.6674 8.36231 18.0003 8.35909C18.0494 8.35844 18.0984 8.36102 18.1474 8.36425C18.1448 8.38747 18.1429 8.4107 18.141 8.43393C18.0236 8.48747 17.8971 8.51457 17.7752 8.55586C17.5345 8.63521 17.2926 8.71005 17.0513 8.78618C17.0145 8.79715 16.9791 8.81328 16.9436 8.82747C16.9339 8.86295 16.932 8.89973 16.9358 8.9365C16.992 8.96747 17.0532 8.98876 17.1145 9.00682C17.4294 9.10489 17.7423 9.2094 18.0584 9.30359C18.0829 9.31198 18.1087 9.32101 18.1313 9.33521C18.1571 9.35263 18.1461 9.38617 18.141 9.41134C18.0339 9.41972 17.9274 9.41327 17.8203 9.41392C17.4868 9.41456 17.1539 9.41327 16.8203 9.41456C16.7165 9.4165 16.6126 9.41327 16.5094 9.42811C16.4758 9.53585 16.4629 9.64875 16.4339 9.75778C16.3733 9.98811 16.3358 10.2249 16.27 10.4533C16.2468 10.4539 16.2242 10.4546 16.2016 10.4571C16.1829 10.3455 16.192 10.2326 16.192 10.1204V7.66038C16.1933 7.54555 16.1868 7.42942 16.1991 7.31394V7.31394ZM4.19787 10.2152C4.27013 10.0765 4.33206 9.93133 4.41529 9.79843C4.29787 10.2862 4.22755 10.7836 4.18174 11.2823C4.13013 11.7797 4.1269 12.2816 4.1469 12.781C4.21465 14.0674 4.50432 15.3506 5.06496 16.5151C5.25786 16.9016 5.47463 17.2784 5.74237 17.619C6.13721 18.1009 6.55075 18.5713 7.02236 18.9796C7.33204 19.2442 7.66687 19.4816 8.02494 19.6764C8.2359 19.7829 8.44493 19.8951 8.66622 19.9783C8.98944 20.1093 9.32363 20.2112 9.66105 20.297C9.90815 20.359 10.163 20.388 10.4043 20.4719C10.7268 20.5732 11.0152 20.7693 11.2449 21.0158C11.563 21.3532 11.7668 21.7816 11.903 22.2203C11.9668 22.4074 12.0055 22.6015 12.043 22.7957C12.0526 22.8441 12.0572 22.8938 12.0533 22.9435C11.6339 23.1228 11.1978 23.2699 10.7462 23.3422C10.481 23.3925 10.2114 23.4061 9.94234 23.4119C9.28105 23.4273 8.6217 23.2983 7.99913 23.0815C7.75784 22.9899 7.51591 22.8977 7.28752 22.777C6.76753 22.5293 6.2785 22.2157 5.8385 21.8441C5.65012 21.6796 5.46238 21.5132 5.29657 21.3261C4.70561 20.6919 4.24497 19.9448 3.89078 19.1551C3.73659 18.7971 3.59336 18.4338 3.47981 18.0609C3.40433 17.8067 3.32756 17.5519 3.26949 17.2926C3.22111 17.1029 3.19078 16.9087 3.14885 16.7171C3.11917 16.579 3.10433 16.4384 3.0824 16.299C3.02756 15.9487 2.99982 15.5939 2.99659 15.239C3.00369 14.8403 3.01272 14.441 3.06562 14.0455C3.09143 13.861 3.10885 13.6752 3.13982 13.4907C3.20304 13.1229 3.27788 12.7571 3.37917 12.3984C3.57852 11.6468 3.86175 10.9178 4.19787 10.2152V10.2152ZM27.6641 9.79972C27.7351 9.90682 27.7873 10.0242 27.8435 10.1391C27.979 10.4262 28.117 10.7133 28.2319 11.0094C28.7228 12.2197 29.0254 13.5119 29.0731 14.819C29.0744 14.9326 29.0777 15.0461 29.0802 15.1603C29.0886 15.7777 28.9983 16.3919 28.8751 16.9958C28.828 17.2274 28.7757 17.4584 28.7086 17.6855C28.448 18.6351 28.0635 19.5564 27.5209 20.3809C26.9912 21.1919 26.2945 21.9003 25.4667 22.4074C25.097 22.639 24.7061 22.8357 24.3022 23.0003C23.9293 23.1415 23.5467 23.2602 23.1538 23.3299C22.7409 23.3977 22.3209 23.428 21.9022 23.4093C21.3913 23.3783 20.8842 23.2757 20.4048 23.0964C20.2797 23.0448 20.1506 23.0022 20.0281 22.9461C20.0145 22.8486 20.0442 22.7532 20.0623 22.6583C20.1371 22.288 20.2577 21.9254 20.43 21.5887C20.5829 21.2977 20.7861 21.0306 21.0403 20.8209C21.1971 20.6887 21.3784 20.588 21.5668 20.5093C21.7977 20.4125 22.0487 20.3822 22.2919 20.3267C22.7584 20.2164 23.219 20.0732 23.6564 19.8751C24.3242 19.5751 24.928 19.1409 25.4403 18.6196C25.5429 18.5158 25.6487 18.4145 25.7461 18.3055C25.9635 18.0629 26.179 17.8171 26.3816 17.5616C26.8641 16.9119 27.2086 16.1687 27.4596 15.4016C27.5615 15.0597 27.6667 14.7177 27.7312 14.3661C27.7719 14.181 27.7983 13.9932 27.8293 13.8061C27.8854 13.4132 27.9319 13.0178 27.9377 12.6203C27.9454 12.1913 27.9467 11.761 27.9035 11.3339C27.8564 10.8184 27.7828 10.3042 27.6641 9.79972V9.79972Z" fill="#0165E1" /></svg>