<svg width="32" height="24" viewBox="0 0 32 24" fill="none" xmlns="http://www.w3.org/2000/svg">
 <path  d= "M21.1654 21.2352C21.1654 22.5003 20.1504 23.5153 18.8853 23.5153C17.6203 23.5153 16.5953 22.5003 16.5953 21.2352C16.5953 19.9702 17.6253 18.9452 18.8853 18.9452C20.1554 18.9452 21.1654 19.9702 21.1654 21.2352ZM8.47015 18.9452C7.20513 18.9452 6.19011 19.9752 6.19011 21.2352C6.19011 22.4953 7.20513 23.5153 8.47015 23.5153C9.73518 23.5153 10.7602 22.5003 10.7602 21.2352C10.7602 19.9702 9.73518 18.9452 8.47015 18.9452V18.9452ZM23.0554 5.44495C7.94514 5.44495 4.09507 4.80494 0 0.484863C1.72003 3.06991 2.66505 7.93 18.6553 7.69499C35.3206 7.44499 25.1555 12.0001 22.1954 17.1402C31.5306 8.80501 38.1657 5.44495 23.0554 5.44495V5.44495Z" fill="#0165E1" /></svg>