<svg width="32" height="32" viewBox="0 0 32 32" fill="none" xmlns="http://www.w3.org/2000/svg">
 <path  d= "M20.2505 2.11042C9.27048 2.11042 3.95463 16.5484 10.7349 25.0189C13.0896 27.9478 16.4507 29.8961 20.2505 29.8961C22.5924 29.8961 24.7858 29.18 26.6631 27.9349C23.8375 30.4638 20.0893 31.9992 15.9992 31.9992C15.7476 31.9992 15.4831 31.9992 15.2315 31.9798C6.74803 31.5863 0 24.5867 0 16C0 7.16177 7.16091 0.000854492 15.9992 0.000854492H16.0508C20.1215 0.0202083 23.8375 1.55561 26.6567 4.07161C24.7858 2.82006 22.5859 2.11042 20.2505 2.11042V2.11042ZM26.8179 27.7671C24.1794 29.3606 20.9666 29.2896 18.3023 27.393C21.9279 26.0704 24.6052 21.4836 24.6052 16C24.6052 10.5358 21.9472 5.94893 18.3216 4.60706C21.0182 2.72329 24.2052 2.65233 26.8954 4.2845C33.7273 10.6519 33.7015 21.4255 26.8179 27.7671Z" fill="#0165E1" /></svg>