<svg width="32" height="28" viewBox="0 0 32 28" fill="none" xmlns="http://www.w3.org/2000/svg">
 <path  d= "M30.5928 24.7947C30.5928 25.4402 29.7221 25.8756 28.8063 25.6204C28.1307 25.4402 27.0648 24.6446 26.7946 24.1041C26.4793 23.4585 27.0198 22.2875 27.8455 22.3926C28.7162 22.4827 30.5928 23.8038 30.5928 24.7947V24.7947ZM20.7144 3.95686C20.5043 -0.0515372 15.1146 -0.471927 13.7184 2.65075C16.1955 1.29958 18.7327 1.78002 20.7144 3.95686ZM4.15523 22.3926C3.28451 22.4827 1.40789 23.8038 1.40789 24.7947C1.40789 25.4402 2.27862 25.8756 3.1944 25.6204C3.86995 25.4402 4.92084 24.6446 5.19107 24.1041C5.5214 23.4585 4.98096 22.2875 4.15523 22.3926V22.3926ZM31.8089 23.1883C31.869 23.3835 31.914 23.5786 31.914 23.7888C31.959 25.5452 29.452 27.3469 27.8305 27.4069C26.8697 27.4519 25.9088 26.9415 25.4585 26.1007C19.1531 26.3259 12.8477 26.371 6.55735 26.1007C6.09196 26.9415 5.13112 27.4369 4.17029 27.4069C2.56389 27.3468 0.056777 25.5452 0.086777 23.7888C0.101777 23.5786 0.131833 23.3835 0.191888 23.1883C-0.117335 22.6626 -0.0772789 22.3393 0.492167 22.5427C0.672334 22.2575 0.882501 22.0173 1.10772 21.7771C0.964946 21.1706 1.17828 20.9941 1.72323 21.2666C1.97845 21.0865 2.27867 20.9063 2.60901 20.7562C2.60901 19.8808 3.26673 20.1378 3.56984 20.4409C4.26245 20.342 4.68812 20.4803 5.05612 20.7562V19.6603C4.33462 19.6603 2.79828 19.0283 2.50389 17.6485C2.22756 16.4971 2.64873 15.5332 3.90012 15.0063C3.94512 14.676 4.35051 14.2256 4.72579 14.1205C5.14618 14.0154 5.4164 14.3757 5.50646 14.691C5.91896 14.691 6.49296 14.7724 6.67746 15.1414C6.97774 15.1113 7.29296 15.0663 7.59324 15.0363C7.45813 14.9312 7.30802 14.8411 7.14285 14.7811C6.85763 14.2857 6.37718 14.1656 5.77668 14.1355C5.77668 14.0905 5.77668 14.0454 5.79168 13.9854C4.69573 13.9553 3.34456 13.6701 2.74406 12.9945C1.55956 11.6813 1.85878 8.35137 3.41962 7.24465C3.88501 6.92937 4.62062 7.19959 4.68068 7.78509C4.8154 8.92943 4.70284 9.27582 6.1369 9.22632C6.58729 8.79098 7.06774 8.41565 7.60818 8.11537C6.78251 8.04026 6.00185 8.20543 5.17607 8.32554C5.88451 7.6322 6.50679 6.91209 8.32874 5.96848C9.63491 5.30792 11.1061 4.81247 12.5624 4.67742C11.5265 4.24203 10.3405 4.01681 9.24452 3.76164C13.4931 2.86086 18.9428 2.53058 22.8162 5.84842C23.822 6.70415 24.6177 7.86015 25.1882 9.18132C27.3992 9.45093 27.2143 8.87126 27.335 7.78509C27.3951 7.21459 28.1307 6.92937 28.5961 7.25965C29.4217 7.84515 29.8271 8.97109 29.9622 9.93193C30.0823 10.9228 29.9772 12.2289 29.2716 12.9945C28.6711 13.6701 27.365 13.9704 26.2841 14.0004V14.1506C25.6685 14.1656 25.1581 14.2857 24.8578 14.7961C24.6927 14.8562 24.5426 14.9463 24.3924 15.0513C24.7077 15.0813 25.0229 15.1264 25.3232 15.1564C25.4271 14.8442 26.0196 14.691 26.4942 14.691C26.5842 14.3907 26.8695 14.0304 27.2748 14.1205C27.6802 14.2106 28.0555 14.6759 28.1006 15.0063C28.7011 15.2465 29.3316 15.6818 29.4967 16.4325C29.6018 16.8829 29.5868 17.2732 29.5117 17.6485C29.1936 19.052 27.6583 19.6603 26.9596 19.6603C26.9596 20.0356 26.9596 20.3959 26.9446 20.7562C27.3896 20.4225 27.8538 20.3585 28.4308 20.4409C28.7596 20.1121 29.4066 19.9181 29.4066 20.7562C29.7219 20.9063 30.0371 21.0865 30.2924 21.2666C30.8535 20.986 31.0518 21.2367 30.8929 21.7771C31.1181 22.0172 31.3433 22.2725 31.5084 22.5427C32.0715 22.3416 32.1207 22.6582 31.8089 23.1883V23.1883ZM27.7104 9.07626C28.6712 9.4516 29.1666 10.3073 29.3918 11.0579C29.4518 10.4724 29.2417 8.86609 28.6261 8.22054C28.2208 7.8152 27.8455 7.93531 27.8455 8.26554C27.8455 8.61087 27.7705 8.91109 27.7104 9.07626V9.07626ZM26.6745 9.76682C27.3951 10.6375 27.6203 12.0788 27.3801 13.2648C27.9806 13.1447 28.521 12.9195 28.8363 12.5892C28.9414 12.4691 29.0465 12.319 29.1065 12.1689C29.0465 10.9829 28.536 9.79682 27.4551 9.45154C27.275 9.63171 26.9447 9.72176 26.6745 9.76682ZM25.4584 9.81187C25.8788 10.9528 26.1491 12.1839 26.2541 13.3999C26.4493 13.3999 26.6745 13.3849 26.8997 13.3549C27.23 12.0037 26.8847 10.4874 26.119 9.82687C25.9088 9.82687 25.6686 9.82687 25.4584 9.81187V9.81187ZM4.3204 9.07626C4.26034 8.91109 4.18529 8.61087 4.18529 8.26554C4.18529 7.93526 3.79495 7.81515 3.40462 8.22054C2.77406 8.86609 2.57889 10.4724 2.63895 11.0579C2.86412 10.3073 3.35956 9.45154 4.3204 9.07626ZM4.63568 13.2648C4.39545 12.0788 4.62068 10.6375 5.34129 9.76687C5.07101 9.72182 4.74079 9.63176 4.56062 9.4516C3.47967 9.79687 2.98423 10.9829 2.90917 12.1689C2.98423 12.319 3.07428 12.4692 3.1794 12.5893C3.49467 12.9345 4.03512 13.1447 4.63568 13.2648V13.2648ZM6.93263 9.87187C6.6474 9.93193 6.37718 10.037 6.10696 10.1422L5.4314 10.4274V10.4124C5.02607 11.193 4.8759 12.319 5.13112 13.3549C5.38635 13.3849 5.61151 13.3999 5.83668 13.3999C5.97179 12.1689 6.34713 10.9678 6.93263 9.87187V9.87187ZM11.8268 8.58082C11.8268 10.9228 13.7334 12.8144 16.0604 12.8144C18.3874 12.8144 20.294 10.9228 20.294 8.58082C20.294 6.25381 18.3874 4.3622 16.0604 4.3622C13.7334 4.3622 11.8268 6.25381 11.8268 8.58082ZM20.294 13.9854C20.8479 16.797 20.4773 17.5794 21.2098 17.2132C22.0956 16.7628 22.4709 15.0363 22.4859 14.0454C21.7653 14.0004 21.0297 14.0004 20.294 13.9854V13.9854ZM16.3156 13.9554V13.9404C16.3006 14.2256 16.3306 16.0572 16.5559 16.2223C17.1714 16.5226 18.7477 16.4776 19.3933 16.2824C19.6935 16.1923 19.5284 14.2256 19.4833 13.9554C18.4324 13.9404 17.3665 13.9404 16.3156 13.9554V13.9554ZM15.5349 13.9554V13.9404C14.454 13.9554 13.3881 13.9554 12.3222 13.9854C12.2171 14.4958 12.067 16.7027 12.4273 16.8529C13.1479 17.1682 14.7393 17.1381 15.4599 16.9429C15.7151 16.8078 15.595 14.4208 15.5349 13.9554V13.9554ZM10.7759 17.1532C11.0762 17.2883 11.2563 17.2883 11.3164 16.9129C11.4215 16.4326 11.4515 14.8712 11.5866 14.0154C10.9111 14.0304 10.2205 14.0605 9.54485 14.1055C9.24458 15.2014 9.55985 16.6127 10.7759 17.1532ZM7.12779 16.5376C9.55991 19.1498 12.2772 21.2967 15.7902 22.4526C19.5434 21.3867 22.2157 19.1198 24.8579 16.5076C24.2416 16.2678 24.4293 15.9318 24.4526 15.862C23.9572 15.817 23.4618 15.7569 22.9813 15.7119C22.4559 17.5434 20.9847 18.6544 20.3841 17.4683C20.234 17.1831 20.1889 16.8228 20.1289 16.5376C19.9187 17.0029 19.3932 16.9879 18.7627 17.033C18.0271 17.0931 17.0062 17.1081 16.3156 16.8679C16.1505 17.5885 15.7001 17.5885 14.8294 17.6636C14.0487 17.7387 12.127 17.8888 11.7817 17.0631C11.7217 18.6544 9.83008 17.6185 9.27458 16.6727C9.09441 16.3574 8.9743 16.0422 8.88424 15.6969C8.44885 15.7419 8.01352 15.7869 7.57807 15.847C7.7138 16.0505 7.66413 16.3499 7.12779 16.5376V16.5376ZM6.42218 24.9748C6.10696 23.6837 5.38629 22.2125 4.56062 21.9722C3.31456 21.5969 0.732334 23.2784 0.882446 25.0048C1.58806 26.0857 3.10434 26.9865 4.17029 27.0315C5.16112 27.0765 6.16696 26.416 6.37718 25.4252C6.40713 25.2901 6.42218 25.14 6.42218 24.9748V24.9748ZM6.82752 24.6446C8.68913 23.5636 10.6708 22.6628 12.7126 22.0323C10.5657 20.8914 8.92935 19.3751 7.30796 17.7537C7.18785 17.8288 7.02274 17.8888 6.87263 17.9488C6.78168 18.2216 7.35696 18.245 7.1729 18.6395C7.05279 18.8647 6.69246 19.0598 6.33218 19.1499C6.21213 19.3 6.04696 19.4201 5.89685 19.5102H5.88185C5.86685 20.2608 5.86685 21.0115 5.89685 21.7621C6.39346 22.649 6.75385 23.6129 6.82752 24.6446V24.6446ZM24.6478 25.3501C22.606 24.1641 20.5342 23.0532 18.2223 22.4076C17.4566 22.7529 16.676 23.0381 15.8803 23.2634C15.7602 23.3084 15.7602 23.3084 15.6401 23.2634C14.9795 23.0532 14.349 22.813 13.7035 22.5277C11.4665 23.1733 9.4098 24.1491 7.45813 25.3501H7.44313V25.3651C7.45813 25.3651 7.45813 25.3651 7.45813 25.3501C13.193 25.5754 18.9279 25.5453 24.6478 25.3501V25.3501ZM26.1491 21.7921L26.1341 21.8071C26.1641 21.0414 26.1791 20.2758 26.1791 19.5101C26.0139 19.4201 25.8638 19.2849 25.7287 19.1348C25.3684 19.0597 25.0081 18.8496 24.888 18.6393C24.7829 18.4142 24.9631 18.219 25.2183 18.0688C25.2033 18.0388 25.1882 17.9788 25.1882 17.9337C25.0231 17.8887 24.8879 17.8286 24.7678 17.7536C23.0114 19.39 21.1347 20.9063 19.0179 22.0172C21.1798 22.6628 23.2366 23.5786 25.2332 24.6595C25.2916 23.8433 25.6349 22.6735 26.1491 21.7921V21.7921ZM27.4402 21.9723C26.6295 22.2125 25.8938 23.6837 25.5786 24.9749C25.5786 26.2985 26.7607 27.0802 27.8305 27.0316C28.8963 26.9866 30.4127 26.0859 31.1183 25.0049C31.2835 23.2784 28.7012 21.5969 27.4402 21.9723V21.9723ZM16.1505 7.22965C16.153 7.22965 16.1554 7.22981 16.1579 7.22981C16.1605 7.22981 16.1629 7.22965 16.1655 7.22965H16.1505V7.22965ZM16.1505 12.6043C17.7419 12.6043 19.0329 11.4033 19.0329 9.91699C19.0329 7.91187 16.7825 6.69037 15.0245 7.45487C15.55 7.61998 15.9403 8.10043 15.9403 8.65587C15.9403 9.94793 14.0908 10.4312 13.3581 9.28643C12.9527 11.179 14.4341 12.6043 16.1505 12.6043ZM3.7799 26.1158C3.8099 26.4761 4.45545 26.8214 4.9809 26.6412C5.35623 26.4911 5.79162 26.0557 5.94174 25.7405C6.1069 25.3501 5.88168 24.6295 5.40129 24.7196C4.9059 24.8097 3.7499 25.6504 3.7799 26.1158V26.1158ZM26.5994 24.7196C26.134 24.6296 25.9088 25.3501 26.0739 25.7405C26.2091 26.0557 26.6445 26.4911 27.0348 26.6412C27.5452 26.8214 28.2058 26.4761 28.2208 26.1158C28.2658 25.6504 27.0948 24.8097 26.5994 24.7196Z" fill="#0165E1" /></svg>