<svg width="32" height="32" viewBox="0 0 32 32" fill="none" xmlns="http://www.w3.org/2000/svg">
 <path  d= "M0 16.697C0.148442 7.93247 6.28621 1.6979 13.7987 0.684617C22.7568 -0.515829 30.2951 5.57676 31.7408 13.6636C33.1155 21.331 28.9011 28.5079 21.9565 31.3476C21.3563 31.5929 21.0272 31.4573 20.7948 30.8507C19.646 27.8625 18.4972 24.8678 17.3484 21.8796C17.1483 21.3568 17.2838 21.0277 17.8002 20.7953C19.362 20.0854 20.3366 18.8978 20.5947 17.194C21.0078 14.4575 19.0135 12.1147 16.4319 11.8888C13.9148 11.6693 11.7979 13.4184 11.4301 15.7418C11.0944 17.8716 12.1464 19.853 14.1343 20.7566C14.7539 21.0406 14.8765 21.3116 14.6377 21.9441C13.4824 24.9517 12.3272 27.9593 11.1719 30.9733C11.0041 31.4186 10.6362 31.5735 10.1715 31.3928C6.77671 30.0826 3.62715 27.4559 1.72967 23.7125C0.122626 20.5372 0.103264 18.0524 0 16.697ZM1.34889 16.5744C1.3747 17.0004 1.38761 17.4973 1.43279 18.0007C1.83939 22.6412 4.63398 27.2622 9.88754 29.818C10.0941 29.9148 10.1715 29.8697 10.249 29.6696C11.2106 27.1461 12.1787 24.6225 13.1533 22.099C13.2372 21.886 13.192 21.7892 12.9984 21.6666C10.9589 20.3823 9.94563 18.5364 10.0553 16.1162C10.1199 14.7221 10.6556 13.5023 11.5914 12.4825C13.5276 10.3721 16.561 9.91385 19.0458 11.3466C21.1046 12.5342 22.2405 14.8189 21.963 17.1811C21.7307 19.156 20.7174 20.6598 19.0135 21.686C18.8393 21.7892 18.7876 21.8731 18.8651 22.0732C19.8461 24.6032 20.8142 27.1332 21.7823 29.6696C21.8597 29.8697 21.9372 29.9148 22.1437 29.818C24.4349 28.7467 26.3517 27.2171 27.8297 25.1711C30.0757 22.0603 30.9986 18.5945 30.5597 14.7802C29.6755 7.19671 22.8537 0.916961 14.0697 2.00123C7.22204 2.84026 1.46506 8.61659 1.34889 16.5744Z" fill="#0165E1" /></svg>