<svg width="32" height="32" viewBox="0 0 32 32" fill="none" xmlns="http://www.w3.org/2000/svg">
 <path  d= "M16 32C7.16129 32 0 24.8387 0 16C0 7.16129 7.16129 0 16 0C17.3484 0 18.6645 0.167742 19.9161 0.483871L2.72903 24.7742H16V32ZM16 22.7355V8.95484L6.36129 22.7355H16ZM22.1935 24.7742V30.7548C25.1419 29.5161 27.6452 27.4194 29.3806 24.7742H22.1935ZM25.8968 15.8581L24.529 16.4L25.8968 16.9355V15.8581ZM24.5871 19.3742C24.1548 19.3742 24.071 19.7806 24.071 20.2065V20.7032H25.1161V20.0581C25.1161 19.6774 24.9677 19.3742 24.5871 19.3742V19.3742ZM32 16C32 18.4065 31.471 20.6903 30.5161 22.7355H22.1935V1.24516C27.9548 3.66452 32 9.36129 32 16ZM23.2516 8.74839H27.6516V5.67742H26.7548V7.78065H25.8581V5.87097H24.9613V7.78065H24.1419V5.67742H23.2452V8.74839H23.2516ZM27.6452 20.7032H25.9355V19.9935C25.9355 19 25.5742 18.3677 24.5871 18.3677C23.5935 18.3677 23.2516 19.0516 23.2516 20.0387V21.671H27.6516V20.7032H27.6452ZM27.6452 14.0581L23.2452 15.9742V16.7742L27.6452 18.6774V17.6065L26.7161 17.2387V15.529L27.6452 15.1484V14.0581ZM27.3355 9.63871H25.0387V11.3548H25.9355V10.5677H26.6452C27.2 11.5871 26.729 12.8452 25.4452 12.8452C23.9935 12.8452 23.6194 11.2129 24.4452 10.4129L23.6968 9.72903C22.6516 10.8581 22.9097 13.8516 25.4452 13.8516C27.6387 13.8516 28.329 11.5355 27.3355 9.63871V9.63871Z" fill="#0165E1" /></svg>