<svg width="26" height="32" viewBox="0 0 26 32" fill="none" xmlns="http://www.w3.org/2000/svg">
 <path  d= "M25.5146 19.6993C21.9228 28.6103 13.3182 23.2194 13.3182 23.2194C10.6782 28.5516 6.3172 31.9804 1.28481 32C0.235307 32 0.202713 30.4095 1.28481 30.4095C5.48281 30.3899 9.13977 27.626 11.5321 23.2324C8.85295 24.2689 3.801 25.0511 0.997987 17.8741C8.1033 14.9472 11.3691 18.6042 12.6207 20.8401C13.2661 19.2495 13.7289 17.5221 14.0287 15.6447C14.0287 15.6447 4.92221 17.0723 4.28338 9.24995C12.0471 6.12752 14.2308 14.2497 14.2308 14.2497C14.3351 13.1611 14.4459 10.8209 14.4459 10.7688C14.4459 10.7688 7.51663 5.96456 11.9623 0C20.0846 2.80302 15.9648 10.5863 15.9648 10.5863C15.9974 10.6906 15.9974 12.1377 15.9648 12.7635C15.9648 12.7635 18.9112 6.96191 24.8562 9.01528C24.5824 17.7503 15.6063 15.9511 15.6063 15.9511C15.3194 17.7372 14.8762 19.4321 14.3025 21.0031C14.3025 21.0031 19.713 15.0189 25.5146 19.6993V19.6993Z" fill="#0165E1" /></svg>