<svg width="32" height="26" viewBox="0 0 32 26" fill="none" xmlns="http://www.w3.org/2000/svg">
 <path  d= "M21.541 9.45362C21.541 6.74456 18.3861 6.92746 16.0886 7.75046C16.0143 10.0023 15.9457 12.3627 15.9171 14.5974C15.9571 14.7574 16.0657 14.9517 16.7801 14.9517C18.8834 14.9517 21.5467 12.5056 21.541 9.45362V9.45362ZM10.4247 13.5801C10.4361 13.5801 10.7962 13.4258 11.0648 13.4258C12.5851 13.4258 12.2479 15.9462 10.2418 15.9462C9.01304 15.9462 8.12145 14.9117 8.12145 13.4886C8.12145 11.0882 10.5733 8.02479 13.8768 6.25876C13.9339 5.55007 14.0482 5.0014 14.4769 4.64705C15.117 4.13267 15.9971 4.44701 16.1629 5.28145C20.2893 4.01265 23.89 5.3386 23.89 9.39647C23.89 13.8487 19.3577 18.118 15.8828 17.295C15.8771 19.5469 15.9343 21.5472 16.0371 23.0103V23.0218C16.0486 23.2161 16.0714 23.7362 15.7342 24.1134C15.1856 24.7192 13.8253 24.6849 13.6539 22.8389C13.4195 20.3013 13.6653 11.0596 13.7339 8.97925C12.5051 9.83655 10.3904 11.854 10.3904 13.3172C10.4019 13.4601 10.4133 13.5458 10.4247 13.5801V13.5801ZM1.52643e-07 8.72206C1.52643e-07 8.72206 -0.005715 10.8596 2.19468 10.8596H3.90927L5.1895 23.2732C5.1895 23.2732 5.1895 25.8051 7.74424 25.8051H24.2558C24.2558 25.8051 26.8105 25.7823 26.8105 23.2732L28.0907 10.8596H29.8053C29.8053 10.8596 32 10.9282 32 8.72206C32 8.72206 32.0057 6.58454 29.8053 6.58454H28.085C27.6678 5.12142 26.359 2.33806 21.2609 2.33806H19.6607V1.24644C19.6607 1.24644 19.5063 0.194824 18.4547 0.194824H13.551C13.551 0.194824 12.3451 0.194824 12.3451 1.24644V2.33806H10.7391C10.7391 2.33806 4.73799 2.57811 3.85212 6.58454H2.19468C2.19468 6.58454 1.52643e-07 6.51595 1.52643e-07 8.72206Z" fill="#0165E1" /></svg>