<svg width="28" height="32" viewBox="0 0 28 32" fill="none" xmlns="http://www.w3.org/2000/svg">
 <path  d= "M8.30995 18.8119C8.06298 20.1667 7.08217 26.482 6.79286 28.2673C6.77169 28.3943 6.7223 28.4437 6.58118 28.4437H1.31723C0.780958 28.4437 0.392866 27.978 0.463428 27.4628L4.59838 1.22074C4.70422 0.543345 5.31106 0.0282406 6.00962 0.0282406C16.7563 0.0282406 17.6595 -0.23284 20.4043 0.83265C24.6451 2.47675 25.0332 6.44235 23.5091 10.7325C21.992 15.1497 18.3933 17.0479 13.6233 17.1043C10.5609 17.1537 8.71921 16.6104 8.30995 18.8119V18.8119ZM25.6471 8.658C25.5201 8.56627 25.4707 8.53099 25.4354 8.74974C25.2943 9.55415 25.0755 10.3374 24.8145 11.1206C21.999 19.1506 14.1948 18.452 10.3845 18.452C9.95405 18.452 9.6718 18.6849 9.61535 19.1153C8.02065 29.0223 7.70312 31.0897 7.70312 31.0897C7.63255 31.5907 7.95008 32 8.45108 32H12.9318C13.5386 32 14.0396 31.5555 14.1596 30.9486C14.209 30.5676 14.0819 31.3791 15.1757 24.5063C15.5002 22.9539 16.1847 23.1162 17.2431 23.1162C22.2531 23.1162 26.1622 21.084 27.3265 15.1921C27.7851 12.7365 27.6511 10.1539 25.6471 8.658V8.658Z" fill="#0165E1" /></svg>