<svg width="26" height="32" viewBox="0 0 26 32" fill="none" xmlns="http://www.w3.org/2000/svg">
 <path  d= "M22.125 3.975C19.7125 1.4125 16.5313 0 13.1625 0C5.99375 0 0.15625 6.0125 0.15625 13.4C0.15625 18.0937 3.76875 23.3875 5.325 25.4438C7.6125 28.4688 11.0375 32 13.1625 32C15.7625 32 20.2188 26.1125 20.7188 25.4375C22.2563 23.3688 25.8438 18.0437 25.8438 13.4C25.8438 9.86875 24.525 6.51875 22.125 3.975V3.975ZM13.1625 30.8687C10.5063 30.8687 1.2875 20.4125 1.2875 13.4062C1.2875 6.69375 6.53125 1.1375 13.1625 1.1375C19.4625 1.1375 24.7062 6.7 24.7062 13.4062C24.7125 20.4125 15.4938 30.8687 13.1625 30.8687V30.8687ZM20.125 12.925C20.125 16.6188 16.9312 19.7812 13.2 19.7812C6.9125 19.7812 3.78125 13.0187 7.39375 8.41875V8.44375C7.39375 9.975 8.65 11.2188 10.1938 11.2188C11.7375 11.2188 12.9937 9.975 12.9937 8.44375C12.9937 7.30625 12.3 6.33125 11.3125 5.9C16.1 4.7 20.125 8.35625 20.125 12.925Z" fill="#0165E1" /></svg>