<svg width="32" height="26" viewBox="0 0 32 26" fill="none" xmlns="http://www.w3.org/2000/svg">
 <path  d= "M20.8382 13.3923L20.8318 12.5536C20.8318 12.5536 22.2316 11.2763 22.1929 11.186L21.5801 9.89583C21.5414 9.80552 19.677 9.86358 19.677 9.86358L19.0707 9.26364C19.0707 9.26364 19.0836 7.42512 18.9932 7.38641L17.6966 6.79292C17.6063 6.75422 16.3613 8.14762 16.3613 8.14762L15.5162 8.13472C15.5162 8.13472 14.1937 6.75422 14.1034 6.79292L12.8132 7.32835C12.7229 7.36061 12.8261 9.19268 12.8261 9.19268L12.2391 9.77972C12.2391 9.77972 10.3554 9.72166 10.3232 9.80552L9.80062 11.0828C9.76192 11.1731 11.1553 12.4375 11.1553 12.4375L11.1618 13.2697C11.1618 13.2697 9.76192 14.547 9.80062 14.6373L10.4135 15.9275C10.4522 16.0178 12.3165 15.9597 12.3165 15.9597L12.9229 16.5597C12.9229 16.5597 12.91 18.6111 13.0003 18.6433L14.2969 19.1788C14.3873 19.2175 15.6323 17.6628 15.6323 17.6628L16.4774 17.6757C16.4774 17.6757 17.7998 19.211 17.8837 19.1788L19.1739 18.6949C19.2642 18.6562 19.161 16.6242 19.161 16.6242L19.748 16.0372C19.748 16.0372 21.6317 16.0952 21.6639 16.0049L22.1865 14.7276C22.2316 14.6566 20.8382 13.3923 20.8382 13.3923V13.3923ZM17.9417 12.831C17.9869 13.9341 17.116 14.8695 16 14.9211C14.884 14.9727 13.9292 14.1148 13.8841 13.0116C13.8389 11.9085 14.7098 10.9731 15.8258 10.928C16.9418 10.8764 17.8966 11.7344 17.9417 12.831V12.831ZM30.9211 10.3861L24.6636 4.12867L24.6572 4.13512C19.8125 -0.593431 12.052 -0.561176 7.2525 4.23834C3.96896 7.52833 5.45913 6.03816 1.07892 10.3861C-0.359641 11.8247 -0.359641 14.1728 1.07892 15.6114C5.58815 20.0884 4.07217 18.5788 7.36216 21.8688L7.36861 21.8624C12.2133 26.5909 19.9738 26.5651 24.7733 21.7592C28.0633 18.4756 26.5731 19.9593 30.9211 15.6114C32.3596 14.1728 32.3596 11.8247 30.9211 10.3861V10.3861ZM9.05876 19.9529C5.21399 16.1146 5.21399 9.88938 9.05876 6.05106C12.8971 2.20629 19.1223 2.21274 22.967 6.05106C26.8054 9.88938 26.8118 16.1146 22.967 19.9593C19.1223 23.7977 12.9035 23.7912 9.05876 19.9529V19.9529Z" fill="#0165E1" /></svg>