<svg width="32" height="22" viewBox="0 0 32 22" fill="none" xmlns="http://www.w3.org/2000/svg">
 <path  d= "M10.645 15.4145C10.835 15.4095 11.785 15.3445 11.925 15.3045C11.805 15.1745 9.745 15.2545 8.525 12.8245C8.31 12.3945 8.15 11.9445 8.205 11.4445C8.35 10.1695 9.85 9.94449 10.805 10.5195C12.605 11.5995 13.97 15.0845 16.49 15.3945C18.34 15.6195 20.72 14.5445 21.9 13.1245C21.87 13.1195 21.86 13.1145 21.85 13.1195C21.83 13.1245 21.81 13.1295 21.795 13.1345C20.13 13.7395 17.08 13.6195 15.06 12.3945C13.18 11.2545 12.405 9.45949 12.47 8.66449C12.56 7.59949 13.615 7.50449 14.265 7.68449C14.985 7.87949 15.485 8.56449 16.21 9.05449C16.99 9.57449 17.855 9.73949 18.775 9.56949C19.52 9.43449 20.495 8.95449 20.6 8.84449C20.545 8.83949 20.51 8.83949 20.475 8.83449C20.165 8.80449 19.855 8.79449 19.55 8.74949C13.99 7.92449 13.105 0.569487 6.925 0.0944867C4.71 -0.0755133 1.955 0.499487 0.11 1.84449C0.07 1.87449 0.035 1.90449 0 1.93449C0.005 1.94449 0.005 1.94949 0.01 1.95949C0.05 1.95949 0.09 1.95449 0.13 1.94949C0.445 1.89949 0.755 1.90949 1.065 1.96449C2.255 2.17949 3.45 3.11949 3.86 5.78949C4.125 7.50449 3.825 8.32949 4.26 10.0945C5.21 13.9495 8.81 15.4745 10.645 15.4145ZM3.765 1.44449C3.72 1.39449 3.72 1.38449 3.7 1.34449C4.305 1.21449 4.91 1.13949 5.53 1.10449C5.475 1.83949 4.42 2.16949 3.765 1.44449ZM13.61 18.9695C11.47 19.0295 9.01 17.6345 7.435 15.8995C7.205 15.6495 6.595 14.8895 6.505 14.7295L6.525 14.7095C6.855 14.9145 7.81 15.6395 9.265 16.0595C10.475 16.4095 11.67 16.3745 12.845 15.8945C13.98 15.4295 14.895 15.8695 15 16.0395C14.075 16.2295 13.995 16.2595 13.8 16.4345C13.545 16.6545 13.57 17.0195 14.15 17.2945C15.46 17.9145 17.3 17.1545 19.01 18.5645C19.13 18.6645 19.415 18.9545 19.515 19.0995C19.51 19.1095 19.5 19.1145 19.495 19.1245C19.255 19.0495 18.675 18.7495 17.485 18.6595C16.25 18.5595 15.17 18.9245 13.61 18.9695V18.9695ZM22.35 6.36949C23.17 6.10949 24.415 5.69949 25.675 6.20449C26.48 6.52949 26.985 7.13949 27.28 7.93449C27.455 8.40449 27.535 8.91949 27.535 9.36949C27.525 9.36949 27.515 9.36949 27.505 9.37449C27.495 9.35449 27.485 9.32949 27.48 9.30949C27.23 8.20949 25.985 7.11949 24.1 7.81449C21.59 8.74449 17.58 8.29949 15.255 5.41449C15.22 5.36949 15.135 5.32949 15.19 5.25449C15.195 5.24449 15.295 5.28449 15.34 5.31949C16.245 5.98949 17.255 6.41449 18.355 6.62949C19.88 6.93449 21.085 6.77449 22.35 6.36949V6.36949ZM27.485 12.2445C25.865 12.2545 25.795 14.7495 22.305 15.4645C21.395 15.6495 20.37 15.6945 20.06 15.6745V15.6545C20.2 15.5795 20.795 15.5245 21.545 14.8245C21.94 14.4595 22.31 14.0695 22.685 13.6795C23.66 12.6695 24.755 11.5695 26.78 11.7295C27.935 11.8195 28.245 12.1395 28.585 12.3645C28.6 12.3745 28.605 12.3895 28.62 12.4095C28.595 12.4095 28.585 12.4145 28.575 12.4095C28.225 12.2745 27.86 12.2445 27.485 12.2445V12.2445ZM26.87 11.0395C26.865 11.0495 26.865 11.0595 26.86 11.0695C25.415 10.8495 24.46 10.6745 23.435 11.2695C22.585 11.7645 21.865 12.2945 20.335 12.4895C18.98 12.6595 18.08 12.6095 17.03 12.0895C17.015 12.0795 17 12.0695 16.98 12.0595C16.98 12.0495 16.985 12.0445 16.985 12.0345C18.23 12.2245 18.805 12.2895 19.76 11.7445C20.875 11.0995 21.765 10.4145 23.325 10.1945C24.805 9.98949 25.89 10.3195 26.87 11.0395V11.0395ZM13.43 3.06449C13.4 3.03449 13.375 3.00449 13.325 2.94949C13.705 2.94949 14.81 2.88949 15.995 3.36949C16.98 3.76949 17.605 4.41949 18.505 5.01449C19.06 5.37949 19.675 5.47949 20.325 5.41949C20.54 5.39949 20.75 5.35949 20.965 5.33449C20.985 5.32949 21.01 5.33449 21.04 5.34949C21.01 5.36949 20.98 5.39449 20.95 5.40949C20.545 5.60949 20.115 5.72449 19.67 5.76449C18.365 5.89449 17.155 5.57949 16 4.99449C15.035 4.49949 14.18 3.84949 13.43 3.06449V3.06449ZM32 14.9845C31.825 15.1395 30.865 15.5645 29.865 15.2495C29.25 15.0545 28.89 14.5045 28.285 14.0445C27.785 13.6645 27.24 13.6495 26.88 13.6245C26.91 13.5845 26.925 13.5645 26.94 13.5545C27.68 13.0945 28.465 12.9445 29.305 13.2295C29.93 13.4395 30.265 13.9045 30.825 14.4395C31.365 14.9595 31.875 14.9345 31.98 14.9645C31.985 14.9595 31.99 14.9645 32 14.9845V14.9845ZM21.375 21.8345C21.485 21.8945 21.455 21.9095 21.45 21.9345C20.525 21.8645 19.755 21.5545 19.11 20.8245C18.02 19.5895 17.025 19.4295 16.68 19.3395C16.705 19.3295 16.72 19.3195 16.735 19.3195C17.39 19.3245 18.04 19.3545 18.68 19.5145C19.945 19.8345 20.43 20.7845 20.76 21.2795C20.92 21.5195 21.125 21.6945 21.375 21.8345V21.8345Z" fill="#0165E1" /></svg>