<svg width="32" height="32" viewBox="0 0 32 32" fill="none" xmlns="http://www.w3.org/2000/svg">
 <path  d= "M5.99725 3.96103C8.90552 1.70272 12.5971 0.456404 16.2818 0.550501C18.1307 0.526821 19.9765 0.885759 21.7139 1.50829C20.2058 1.21915 18.6492 1.11259 17.1274 1.35562C14.4479 1.68901 11.939 3.05247 10.1381 5.05405C10.4927 4.99236 10.8118 4.82473 11.1395 4.68763C12.2731 4.19596 13.4826 3.85946 14.7165 3.761C15.9503 3.62765 17.1935 3.73421 18.4211 3.88127C17.52 4.05513 16.6015 4.16668 15.7347 4.48012C13.5829 5.17245 11.6555 6.55274 10.3413 8.39479C9.47883 9.62677 8.8644 11.0737 8.79959 12.5905C8.77778 13.6212 9.1255 14.7659 10.039 15.343C10.7326 15.758 11.5876 15.9281 12.384 15.7642C13.3492 15.6103 14.2634 15.224 15.109 14.7435C15.8288 14.3173 16.5255 13.8343 17.1063 13.228C17.3431 13.0267 17.2645 12.6996 17.2701 12.4285C17.1374 12.4073 16.996 12.3593 16.8763 12.4472C16.1625 12.8384 15.4127 13.1602 14.6373 13.4081C13.3866 13.7938 12.0026 13.9365 10.7563 13.4567C11.5558 13.5645 12.3852 13.476 13.1149 13.1164C14.3793 12.5089 15.4156 11.5417 16.5174 10.6936C18.2522 9.36691 20.1092 8.19413 22.0741 7.23697C23.6806 6.48856 25.3824 5.81305 27.1721 5.72893C26.195 6.58639 25.1624 7.38652 24.2482 8.31565C23.3416 9.19056 22.5321 10.1589 21.7413 11.1392C21.5213 11.4264 21.1817 11.5729 20.8926 11.7742C19.5067 12.7108 18.3625 14.015 17.6496 15.5305C17.0664 16.7607 16.743 18.1459 16.9137 19.5088C17.0352 20.3644 17.4583 21.2331 18.2198 21.6904C19.0262 22.1883 20.0357 22.1946 20.9374 22.0089C22.9876 21.5434 24.7767 20.2036 26.0024 18.5192C27.2799 16.7993 27.9099 14.632 27.8252 12.497C27.7928 12.0284 27.7267 11.5623 27.7211 11.0918C28.2209 12.3095 28.6477 13.5738 28.7618 14.8937C28.887 15.786 28.8085 16.6909 28.6608 17.5745C28.5412 18.2612 28.3062 18.9193 28.1741 19.6016C29.4429 18.1852 30.3035 16.4086 30.6331 14.5347C30.9895 12.3306 30.6692 10.0256 29.7451 7.99472C31.0438 9.9963 31.766 12.3437 31.9766 14.7123C32.0078 15.5081 32.0078 16.3064 31.9766 17.1015C31.7953 19.2365 31.1684 21.3359 30.1221 23.2085C28.4894 26.1672 25.8722 28.5607 22.7975 29.9585C17.9045 32.223 11.8798 31.9158 7.2984 29.0412C4.87807 27.5593 2.87026 25.407 1.58531 22.8744C0.668023 21.0741 0.127124 19.0844 0 17.0673V15.1087C0.245523 10.7484 2.55432 6.61381 5.99725 3.96103ZM19.8718 8.9818C20.2152 8.93195 20.5461 8.82165 20.8701 8.70138C21.1811 8.59108 21.4478 8.3306 21.5151 8.00033C20.9599 8.31191 20.3965 8.62037 19.8718 8.9818Z" fill="#0165E1" /></svg>