<svg width="32" height="18" viewBox="0 0 32 18" fill="none" xmlns="http://www.w3.org/2000/svg">
 <path  d= "M16 1.42496C24.57 1.42496 31.16 5.03496 31.16 8.99996C31.16 12.965 24.565 16.575 16 16.575C7.43 16.575 0.84 12.965 0.84 8.99996C0.84 5.03496 7.435 1.42496 16 1.42496ZM16 0.584961C7.165 0.584961 0 4.34996 0 8.99996C0 13.65 7.165 17.415 16 17.415C24.835 17.415 32 13.65 32 8.99996C32 4.34996 24.835 0.584961 16 0.584961ZM10.91 8.32496C10.515 10.35 9.12 10.14 7.405 10.14L8.09 6.60996C9.99 6.60996 11.28 6.40496 10.91 8.32496ZM4.87 13.715H6.705L7.14 11.475C9.195 11.475 10.47 11.625 11.65 10.52C12.955 9.31996 13.295 7.18496 12.365 6.11496C11.88 5.55496 11.1 5.27996 10.04 5.27996H6.505L4.87 13.715ZM14.155 3.03496H15.98L15.545 5.27496C17.12 5.27496 18.58 5.15996 19.285 5.80996C20.025 6.48996 19.67 7.35996 18.87 11.465H17.02C17.79 7.49496 17.935 7.16496 17.655 6.86496C17.385 6.57496 16.77 6.63496 15.285 6.63496L14.345 11.465H12.52L14.155 3.03496V3.03496ZM25.25 8.32496C24.85 10.38 23.415 10.14 21.745 10.14L22.43 6.60996C24.34 6.60996 25.62 6.40496 25.25 8.32496V8.32496ZM19.21 13.715H21.05L21.485 11.475C23.645 11.475 24.84 11.6 25.995 10.52C27.3 9.31996 27.64 7.18496 26.71 6.11496C26.225 5.55496 25.445 5.27996 24.385 5.27996H20.85L19.21 13.715V13.715Z" fill="#0165E1" /></svg>