<svg width="32" height="24" viewBox="0 0 32 24" fill="none" xmlns="http://www.w3.org/2000/svg">
 <path  d= "M32 0.449341C27.96 3.12934 27.53 5.07434 27.18 5.66934C26.845 6.27934 26.595 8.68434 26.015 9.84934C25.43 11.0293 23.305 11.9593 22.71 12.3493C22.125 12.7393 21.295 14.2543 20.615 15.5593C15.21 15.3393 12.245 17.4993 7.655 20.2393C9.125 19.7543 9.82 19.4043 9.82 19.4043C14.53 17.6043 16.785 15.9893 23.875 16.9443C23.93 16.9443 23.97 16.9743 24.015 16.9843C24.21 17.0943 24.28 17.3293 24.17 17.5243L21.475 22.3143C21.35 22.5493 21.085 22.6743 20.82 22.6193C14.48 21.4293 9.475 23.4843 4.875 23.5493C1.205 23.6043 0 21.8743 0 21.7943C0 21.7393 0.03 21.7093 0.085 21.7093C0.085 21.7093 2 21.7093 5.24 20.9443C8.92 13.9293 12.2 11.4743 15.77 11.4743C15.77 11.4743 19.355 11.4743 20.3 14.5693C21.44 12.5843 21.715 12.1093 21.715 12.1093C21.98 11.6393 23.465 8.24934 26.035 5.03934C28.61 1.83934 30.555 1.04434 32 0.449341V0.449341Z" fill="#0165E1" /></svg>