<svg width="32" height="32" viewBox="0 0 32 32" fill="none" xmlns="http://www.w3.org/2000/svg">
 <path  d= "M2.2852 27.6402L0 31.9393L0.0571301 8.51593C0.0571301 3.80983 3.85628 0.00354004 8.56952 0.00354004H31.9357C25.2944 2.06737 18.3745 6.73061 13.8041 12.0437C8.76233 17.8567 5.89868 21.8558 2.2852 27.6402ZM31.9929 0.00354004C31.9929 0.00354004 21.7951 4.7739 18.6815 11.9366C17.0248 15.7643 16.6177 20.3704 13.6112 23.2626C11.5474 25.2479 8.62665 25.9906 6.0915 27.2832C4.43472 28.1401 1.3497 30.1754 0.0285651 31.9964H23.4805C28.1937 31.9964 32 28.1901 32 23.484C31.9929 23.484 31.9929 0.00354004 31.9929 0.00354004Z" fill="#0165E1" /></svg>