<svg width="32" height="32" viewBox="0 0 32 32" fill="none" xmlns="http://www.w3.org/2000/svg">
 <path  d= "M14.6643 10.1857C14.6643 11.6929 13.65 12.9071 12.4 12.9071C11.8929 12.9071 11.4857 12.8214 11.1714 12.6429V7.78571C11.4857 7.59286 11.8929 7.48571 12.4 7.48571C13.65 7.48571 14.6643 8.69286 14.6643 10.1857V10.1857ZM18.4214 14.9714C17.9143 14.9714 17.5071 15.0786 17.1929 15.2714V20.1286C17.5071 20.3071 17.9143 20.3929 18.4214 20.3929C19.6643 20.3929 20.6857 19.1857 20.6857 17.6929C20.6857 16.1857 19.6643 14.9714 18.4214 14.9714V14.9714ZM32 3.42857V28.5714C32 30.4643 30.4643 32 28.5714 32H3.42857C1.53571 32 0 30.4643 0 28.5714V3.42857C0 1.53571 1.53571 0 3.42857 0H28.5714C30.4643 0 32 1.53571 32 3.42857ZM13.2143 15.9357C16.1429 15.9357 18.5143 13.3929 18.5143 10.25C18.5143 7.10714 16.1429 4.56429 13.2143 4.56429C12.3571 4.56429 11.4929 4.79286 10.7429 5.19286H7.47857V19.9286L11.1786 19.2071V15.5929C11.7929 15.8143 12.4714 15.9357 13.2143 15.9357ZM24.5286 17.7429C24.5286 14.6 22.1571 12.0571 19.25 12.0571C19.0214 12.0571 18.7929 12.0714 18.5643 12.1071C18.3 13 17.8429 13.8071 17.1929 14.4929C16.2071 15.5643 14.8929 16.1929 13.4929 16.2643V27.4286L17.1929 26.7071V23.0929C17.8071 23.3214 18.4929 23.4286 19.2429 23.4286C22.1571 23.4286 24.5286 20.8857 24.5286 17.7429Z" fill="#0165E1" /></svg>