<svg width="32" height="30" viewBox="0 0 32 30" fill="none" xmlns="http://www.w3.org/2000/svg">
 <path  d= "M13.3808 11.0726C13.7395 10.4007 14.1324 10.1046 14.8555 9.83133C16.41 9.24486 17.1445 8.09468 18.2093 6.92172C18.8868 7.40002 18.8925 8.32244 20.0085 8.23133V9.47261L20.3673 9.4897C22.4968 8.66977 24.6206 7.77012 26.437 6.3808C29.1872 4.28542 29.4491 3.53382 31.0662 0.686848L31.1801 0.538806C31.1459 1.34165 30.8214 2.09325 30.474 2.81069C28.7374 6.44343 25.9929 8.52172 22.1153 9.45553C21.4093 9.62066 20.6121 9.63774 19.9744 9.96229C20.0541 10.5203 20.726 10.9929 20.726 11.2719C20.726 11.4655 20.4128 11.6819 20.2989 11.7616C19.6612 11.0271 19.3822 10.6626 19.0064 10.5032C18.5737 10.3039 15.368 10.1388 13.3808 11.0726V11.0726ZM21.2327 25.7004C20.1509 25.7004 17.5829 26.2413 16.6833 26.8278L17.0762 29.3957C19.1089 29.7431 21.0676 29.6007 23.1117 28.8377C22.8384 28.2683 21.7737 25.7004 21.2327 25.7004ZM13.4947 14.432C13.3125 14.3182 13.1359 14.2669 12.9196 14.2669C12.5438 14.2669 12.2021 14.4491 11.8206 14.4776L11.9174 14.7566L13.4947 14.432ZM12.7772 16.2427L14.1495 19.7274L15.3452 18.9417L13.563 16.0434L12.7772 16.2427V16.2427ZM31.2313 0.424927L31.1972 0.48756L31.1801 0.538806L31.2142 0.504642L31.2313 0.424927ZM27.8605 22.1815C25.9302 18.9417 23.573 15.4399 19.3196 15.605L19.3025 15.2634C19.2399 14.4947 21.1701 15.4456 21.3011 13.4982L20.4811 13.9082C19.3537 11.3061 19.9915 10.8164 16.7516 10.8164C15.9146 10.8164 15.2313 10.9132 14.3943 11.0783C14.5594 12.1374 14.5196 13.168 13.7737 13.9424L14.884 14.2555C14.7872 14.4377 14.7189 14.6143 14.7189 14.8135C14.7189 16.0093 17.1559 14.9787 17.1559 16.7267C17.1559 17.7744 15.0605 20.1488 14.0299 20.1488C13.5744 20.1488 10.9722 17.3018 10.9893 16.7267L11.0064 16.4648L13.9843 15.81C14.7246 15.6619 14.6847 14.5175 13.8192 14.5175C13.6085 14.5175 11.3651 15.0413 11.0064 15.121C10.8925 14.8249 10.5794 14.3182 10.2206 14.3182C10.0384 14.3182 9.86192 14.5004 9.67972 14.5459C9.15587 14.694 7.91459 14.711 8.45552 15.6904L0.506762 17.4214C0.193594 17.484 0 17.7801 0 18.0933C0 18.4349 0.313167 18.7139 0.654804 18.7139C1.11032 18.7139 8.13096 17.0968 9.04769 16.8804C9.19573 17.0626 9.30961 17.2392 9.49181 17.3701C10.6363 18.1901 12.8968 22.2612 13.842 22.2612C15.2142 22.2612 17.1445 20.9858 17.9018 19.8755C18.084 19.6306 18.2947 19.4484 18.6078 19.4826C18.642 20.2683 16.8085 21.4299 16.7288 21.9708C16.6491 22.5516 16.6719 23.9751 16.7117 24.311C18.232 24.7723 19.6726 24.1061 21.1473 24.1459C21.3922 22.9502 21.7509 21.7602 21.7053 20.5303L21.6883 19.9893C21.6085 18.042 21.0676 17.7972 19.7068 16.6527C19.6441 16.5901 19.5587 16.5046 19.4961 16.4249C19.6214 16.3452 19.5587 16.368 19.758 16.3281C24.7972 16.3281 22.9637 26.7822 26.1068 29.4185C27.9915 28.5644 30.2349 27.8299 32 26.731C30.3488 25.2733 29.005 24.1288 27.8605 22.1815ZM16.689 24.8007V26.3552L17.3609 26.1616L17.1957 24.8064H16.689V24.8007ZM21.0221 24.9659C21.0221 24.8861 20.9879 24.7836 20.9708 24.7039C19.4448 24.7039 18.8698 24.9203 17.5829 25.0626L17.6968 25.7687C18.2093 25.6833 21.0221 25.3929 21.0221 24.9659V24.9659Z" fill="#0165E1" /></svg>