<svg width="26" height="32" viewBox="0 0 26 32" fill="none" xmlns="http://www.w3.org/2000/svg">
 <path  d= "M13.7694 0C7.19123 0 0.690033 4.38543 0.690033 11.4829C0.690033 15.9965 3.22896 18.5611 4.76771 18.5611C5.40244 18.5611 5.76789 16.7916 5.76789 16.2915C5.76789 15.6952 4.24838 14.4257 4.24838 11.9445C4.24838 6.78972 8.17218 3.13519 13.25 3.13519C17.6162 3.13519 20.8476 5.61642 20.8476 10.175C20.8476 13.5794 19.482 19.9652 15.0581 19.9652C13.4616 19.9652 12.096 18.8112 12.096 17.157C12.096 14.7335 13.7886 12.3869 13.7886 9.88644C13.7886 5.64207 7.76826 6.41144 7.76826 11.5406C7.76826 12.6177 7.9029 13.8102 8.38376 14.7912C7.49898 18.5996 5.69096 24.2737 5.69096 28.1975C5.69096 29.4093 5.86407 30.6018 5.97947 31.8136C6.19746 32.0572 6.08847 32.0316 6.42186 31.9097C9.65323 27.4859 9.53782 26.6203 10.9996 20.8308C11.7882 22.3311 13.8271 23.1389 15.4428 23.1389C22.2517 23.1389 25.31 16.5031 25.31 10.5212C25.31 4.15461 19.809 0 13.7694 0Z" fill="#0165E1" /></svg>