<svg width="32" height="32" viewBox="0 0 32 32" fill="none" xmlns="http://www.w3.org/2000/svg">
 <path  d= "M32 16C32 24.8387 24.8387 32 16 32C14.3484 32 12.7613 31.7484 11.2645 31.2839C11.9161 30.2194 12.8903 28.4774 13.2516 27.0903C13.4452 26.3419 14.2452 23.2839 14.2452 23.2839C14.7677 24.2774 16.2903 25.1226 17.9097 25.1226C22.7355 25.1226 26.2129 20.6839 26.2129 15.1677C26.2129 9.88387 21.8968 5.92903 16.3484 5.92903C9.44516 5.92903 5.77419 10.5613 5.77419 15.6129C5.77419 17.9613 7.02581 20.8839 9.01935 21.8129C9.32258 21.9548 9.48387 21.8903 9.55484 21.6C9.60645 21.3806 9.87742 20.2903 10 19.7871C10.0387 19.6258 10.0194 19.4839 9.89032 19.329C9.23871 18.5226 8.70968 17.0516 8.70968 15.6774C8.70968 12.1484 11.3806 8.73548 15.9355 8.73548C19.8645 8.73548 22.6194 11.4129 22.6194 15.2452C22.6194 19.5742 20.4323 22.5742 17.5871 22.5742C16.0194 22.5742 14.8387 21.2774 15.2194 19.6839C15.671 17.7806 16.5419 15.729 16.5419 14.3548C16.5419 13.129 15.8839 12.1032 14.5161 12.1032C12.9097 12.1032 11.6194 13.7613 11.6194 15.9871C11.6194 17.4065 12.0968 18.3613 12.0968 18.3613C12.0968 18.3613 10.5161 25.0581 10.2258 26.3097C9.90323 27.6903 10.0323 29.6387 10.1677 30.9032C4.21936 28.5742 0 22.7806 0 16C0 7.16129 7.16129 0 16 0C24.8387 0 32 7.16129 32 16Z" fill="#0165E1" /></svg>