<svg width="32" height="32" viewBox="0 0 32 32" fill="none" xmlns="http://www.w3.org/2000/svg">
 <path  d= "M32 3.42857V28.5714C32 30.4643 30.4643 32 28.5714 32H11.0286C11.7286 30.8286 12.6286 29.1429 12.9857 27.7643C13.2 26.9429 14.0786 23.5929 14.0786 23.5929C14.65 24.6857 16.3214 25.6071 18.1 25.6071C23.3929 25.6071 27.2 20.7429 27.2 14.7C27.2 8.90714 22.4714 4.57143 16.3857 4.57143C8.81429 4.57143 4.8 9.65 4.8 15.1857C4.8 17.7571 6.17143 20.9571 8.35714 21.9786C8.69286 22.1357 8.86429 22.0643 8.94286 21.7429C9 21.5 9.3 20.3071 9.42857 19.7571C9.47143 19.5786 9.45 19.4286 9.30714 19.2571C8.58571 18.3786 8 16.7643 8 15.2571C8 11.3857 10.9286 7.64286 15.9214 7.64286C20.2286 7.64286 23.25 10.5786 23.25 14.7786C23.25 19.5214 20.8571 22.8071 17.7357 22.8071C16.0143 22.8071 14.7286 21.3857 15.1357 19.6357C15.6286 17.55 16.5857 15.3 16.5857 13.7929C16.5857 10.0071 11.1929 10.5286 11.1929 15.5786C11.1929 17.1286 11.7143 18.1857 11.7143 18.1857C9.47143 27.6714 9.13571 27.7929 9.6 31.9429L9.75714 32H3.42857C1.53571 32 0 30.4643 0 28.5714V3.42857C0 1.53571 1.53571 0 3.42857 0H28.5714C30.4643 0 32 1.53571 32 3.42857Z" fill="#0165E1" /></svg>