<svg width="32" height="26" viewBox="0 0 32 26" fill="none" xmlns="http://www.w3.org/2000/svg">
 <path  d= "M31.7169 19.558C31.0891 20.3469 29.5614 20.908 29.5614 20.908L18.1675 24.9967V21.9802L26.5504 18.9914C27.5004 18.6525 27.6504 18.1692 26.8727 17.9137C26.1005 17.6581 24.7005 17.7303 23.7506 18.0748L18.1675 20.0469V16.9137C19.4563 16.4804 20.784 16.1582 22.3729 15.9804C24.645 15.7304 27.4226 16.0137 29.6059 16.8415C32.0613 17.6192 32.3391 18.7692 31.7169 19.558ZM19.2508 14.4194V6.6975C19.2508 5.79198 19.0841 4.95868 18.2341 4.71981C17.5842 4.5087 17.1786 5.11423 17.1786 6.01975V25.3467L11.9678 23.6912V0.65332C14.1843 1.06441 17.412 2.03659 19.1452 2.6199C23.5617 4.1365 25.0561 6.0253 25.0561 10.2751C25.0561 14.4138 22.5006 15.986 19.2508 14.4194V14.4194ZM2.40152 21.6635C-0.120594 20.9524 -0.542797 19.4692 0.607152 18.6192C1.66822 17.8303 3.47925 17.2359 3.47925 17.2359L10.9511 14.5805V17.6081L5.5736 19.5303C4.62364 19.8691 4.4792 20.3524 5.25139 20.608C6.02358 20.8635 7.42352 20.7913 8.37347 20.4469L10.9511 19.508V22.219C8.0846 22.7357 5.31805 22.6246 2.40152 21.6635V21.6635Z" fill="#0165E1" /></svg>