<svg width="32" height="32" viewBox="0 0 32 32" fill="none" xmlns="http://www.w3.org/2000/svg">
 <path  d= "M29.644 5.70367L22.6069 5.06068L23.6071 2.67449C24.3501 0.99559 22.8355 -0.211792 21.5566 0.0311134L2.17424 3.20317C1.09545 3.39607 0.316726 4.51057 0.645362 5.81797L8.15399 30.7015C8.61837 32.2232 10.7759 32.4304 11.5618 31.2016L14.0837 25.429L30.8871 8.9043C32.0587 7.70406 31.1943 5.83941 29.644 5.70367V5.70367ZM21.8281 1.53855C22.1925 1.48854 22.364 1.71716 22.1996 2.06723L20.9994 4.9178L8.32546 3.75328L21.8281 1.53855V1.53855ZM2.18853 5.4179C1.96705 5.05354 2.25997 4.70347 2.62433 4.76777L20.3921 6.38952L13.4693 22.8714L2.18853 5.4179ZM10.283 30.3157C10.0972 30.6015 9.71859 30.5372 9.61142 30.23L3.67453 10.5475L12.7978 24.6646C12.2977 25.7362 10.283 30.3157 10.283 30.3157ZM29.7726 7.84695L15.5769 21.8069L21.9853 6.53955L29.5868 7.23254C29.8726 7.31113 29.994 7.61119 29.7726 7.84695V7.84695Z" fill="#0165E1" /></svg>