<svg width="32" height="32" viewBox="0 0 32 32" fill="none" xmlns="http://www.w3.org/2000/svg">
 <path  d= "M11.9854 0.314367C8.7569 0.885776 8.1712 2.07859 8.1712 4.28566V7.1927H15.8067V8.1641H5.30702C3.08566 8.1641 1.14287 9.49977 0.53575 12.0354C-0.164227 14.9424 -0.192797 16.7567 0.53575 19.7923C1.07859 22.0493 2.3714 23.6636 4.59275 23.6636H7.21409V20.178C7.21409 17.6566 9.39259 15.4353 11.9854 15.4353H19.6137C21.735 15.4353 23.4278 13.6853 23.4278 11.5568V4.27852C23.4278 2.20716 21.685 0.657213 19.6137 0.307225C17.0566 -0.11419 14.2781 -0.0927615 11.9854 0.314367V0.314367ZM11.5068 2.34287C12.2925 2.34287 12.9425 2.99999 12.9425 3.79996C12.9425 4.59993 12.2996 5.24991 11.5068 5.24991C10.714 5.24991 10.0711 4.59993 10.0711 3.79996C10.0783 2.99285 10.714 2.34287 11.5068 2.34287V2.34287ZM24.7349 8.15696V11.5497C24.7349 14.1782 22.5064 16.3924 19.9637 16.3924H12.3353C10.2497 16.3924 8.52119 18.178 8.52119 20.2708V27.542C8.52119 29.6134 10.3211 30.8276 12.3353 31.4204C14.7495 32.1276 17.0709 32.2561 19.9637 31.4204C21.885 30.8633 23.7778 29.7419 23.7778 27.542V24.635H16.1566V23.6636H27.5991C29.8205 23.6636 30.6419 22.1136 31.4133 19.7923C32.2132 17.3995 32.1775 15.0996 31.4133 12.0354C30.8633 9.82833 29.8205 8.1641 27.5991 8.1641H24.7349V8.15696ZM20.4422 26.5706C21.235 26.5706 21.8779 27.2206 21.8779 28.0206C21.8779 28.8277 21.235 29.4777 20.4422 29.4777C19.6565 29.4777 19.0065 28.8205 19.0065 28.0206C19.0137 27.2134 19.6565 26.5706 20.4422 26.5706Z" fill="#0165E1" /></svg>