<svg width="28" height="32" viewBox="0 0 28 32" fill="none" xmlns="http://www.w3.org/2000/svg">
 <path  d= "M27.1096 26.2778C26.3892 26.3648 24.3059 22.9815 24.3059 22.9815C24.3059 24.9405 23.2974 27.4969 21.1152 29.3431C22.1678 29.6676 24.5429 30.541 23.9779 31.4944C23.5206 32.2658 16.1335 31.987 14.0009 31.7467C11.8683 31.987 4.48115 32.2658 4.0239 31.4944C3.45859 30.5413 5.83127 29.6685 6.88533 29.3435C4.70283 27.4973 3.69415 24.9407 3.69415 22.9815C3.69415 22.9815 1.61078 26.3648 0.890465 26.2778C0.55484 26.2372 0.113966 24.425 1.47465 20.0463C2.11596 17.9823 2.84934 16.2664 3.98365 13.4351C3.79271 6.12893 6.81139 0.000375 14 0C21.1086 0.000375 24.1972 6.0083 24.0165 13.4352C25.1489 16.2616 25.886 17.9883 26.5255 20.0463C27.886 24.425 27.4452 26.2371 27.1096 26.2778Z" fill="#0165E1" /></svg>