<svg width="32" height="32" viewBox="0 0 32 32" fill="none" xmlns="http://www.w3.org/2000/svg">
 <path  d= "M19.7 30.1032H19.6161C13.9839 30.1032 9.41614 25.5355 9.41614 19.9032C9.41614 14.271 13.9839 9.70323 19.6161 9.70323C25.7387 9.70323 30.4678 15.0645 29.7452 21.0968C30.0032 21.4258 30.2742 21.7161 30.4678 22.0839C31.3323 20.129 31.7774 18.0581 31.7774 15.7806C31.7774 7.06452 24.7129 0 15.9968 0C7.28711 0 0.222595 7.06452 0.222595 15.7806C0.222595 24.4968 7.28711 31.5613 15.9968 31.5613C17.5968 31.5613 19.0807 31.3548 20.5387 30.9097C20.2032 30.6839 19.9581 30.3806 19.6742 30.0968L19.7 30.1032V30.1032ZM18.3323 25.6C18.3323 22.0645 21.1968 19.2 24.7323 19.2C28.2678 19.2 31.1323 22.0645 31.1323 25.6C31.1323 29.1355 28.2678 32 24.7323 32C21.1968 32 18.3323 29.1355 18.3323 25.6Z" fill="#0165E1" /></svg>