<svg width="32" height="32" viewBox="0 0 32 32" fill="none" xmlns="http://www.w3.org/2000/svg">
 <path  d= "M31.4643 25.3357H29.3715C29.2643 26.3 28.6215 27.5357 27.0143 27.5357C25.5501 27.5357 24.4929 26.5214 23.4786 24.9786C26.6358 22.5357 28.8143 18.7286 28.8143 14.05C28.8215 5.65714 21.9143 0 14.6429 0C7.52148 0 0.521484 5.69286 0.521484 14.05C0.521484 23.6286 9.90006 29.8786 18.3072 27.55C19.7143 29.95 21.5715 32 25.1072 32C30.9501 32 31.5929 26.6214 31.4643 25.3357ZM21.2143 21.2286C19.8215 19.1429 18.0929 17.5 14.6786 17.5C12.5001 17.5 10.8001 18.2143 9.75006 19.1286L10.6215 20.8643C11.0643 20.65 11.5501 20.5786 12.0358 20.5786C14.5715 20.5786 15.8715 22.7786 16.9786 24.9571C16.2643 25.1714 15.5001 25.2571 14.6429 25.2571C9.28577 25.2571 6.96434 21.4714 6.96434 14.0643C6.96434 6.60714 9.28577 2.78571 14.6429 2.78571C20.0858 2.78571 22.4072 6.60714 22.4072 14.05C22.4143 17.0357 22.0215 19.45 21.2143 21.2286Z" fill="#0165E1" /></svg>