<svg width="32" height="26" viewBox="0 0 32 26" fill="none" xmlns="http://www.w3.org/2000/svg">
 <path  d= "M32 11.3807C32 5.45984 24.8344 0.662598 16 0.662598C7.16558 0.662598 0 5.45984 0 11.3807C0 16.6571 5.6895 21.0413 13.1855 21.928V25.3373H18.6437V21.95C19.9821 21.8013 21.2654 21.5425 22.4661 21.1845L24.6747 25.3373H30.8434L27.1312 19.075C30.1329 17.1252 32 14.3989 32 11.3807V11.3807ZM6.28984 12.1793C6.28984 8.1311 11.737 4.85399 18.4509 4.85399C25.1649 4.85399 30.1219 7.09564 30.1219 12.1793C30.1219 14.9387 28.6623 16.8609 26.2499 18.0395C26.1177 17.9514 25.9911 17.8798 25.8974 17.8357C25.3356 17.5493 24.3663 17.2574 24.3663 17.2574C24.3663 17.2574 29.136 16.9049 29.136 12.1518C29.136 7.39857 24.146 7.31045 24.146 7.31045H13.1855V18.7831C9.1043 17.5989 6.28984 15.0874 6.28984 12.1793V12.1793ZM18.6878 14.2888V11.2265C21.8713 11.2265 23.5236 10.8519 23.5236 12.7301C23.5236 14.7404 21.4196 14.2888 18.6878 14.2888ZM18.6382 18.2819H20.1033C20.6981 18.2819 21.1442 18.9263 21.4251 19.3394C20.5384 19.444 19.6076 19.4936 18.6382 19.4991V18.2819V18.2819Z" fill="#0165E1" /></svg>