<svg width="32" height="28" viewBox="0 0 32 28" fill="none" xmlns="http://www.w3.org/2000/svg">
 <path  d= "M25.4678 1.84355C20.7293 -0.619459 16.1158 -0.0630937 11.4336 2.12486C10.7272 2.44993 10.4647 2.7875 10.1896 3.31261C9.54573 4.51286 9.1769 5.65059 8.94561 6.60704C7.62033 8.20737 6.67013 10.114 6.23879 12.227C5.57616 13.3522 4.93227 14.815 4.79474 16.6904C4.79474 16.6904 4.75099 17.1655 4.76349 17.1842C2.55678 16.8967 0 15.4964 0 15.4964C0.568868 16.4028 3.83205 17.5156 4.76974 17.8656C4.76974 17.8656 4.87601 23.9919 8.80183 26.0673C8.09543 24.9921 7.9704 24.8046 7.9704 24.8046C7.9704 24.8046 5.92623 21.0663 6.2763 18.297C6.32006 18.297 6.37007 18.3095 6.41383 18.3095C7.90789 23.7731 12.8652 27.7739 18.7226 27.7739C19.1102 27.7739 19.479 27.7614 19.8479 27.7302C20.7231 27.8239 21.5732 27.7614 22.3546 27.4864C22.786 27.3488 23.2173 27.0863 23.6174 26.8112C28.0058 24.367 29.925 21.6852 31.3127 17.5781C31.6503 16.5779 31.8191 15.3589 31.9254 14.3149C32.4692 9.17007 30.0125 4.21279 25.4678 1.84355ZM8.6768 8.20112C8.6768 8.20112 8.60179 8.97003 8.63304 9.43263C8.4205 9.58891 8.00166 9.93898 7.49531 10.4766C7.82037 9.67643 8.2017 8.90752 8.6768 8.20112V8.20112ZM6.7264 15.8215C7.00145 14.7462 7.55782 13.3772 8.58928 12.377C8.58928 12.377 8.69555 15.3776 9.57699 18.0094L6.98895 17.5781C6.85142 17.0029 6.77015 16.4216 6.7264 15.8215ZM7.22025 18.497C8.14544 18.697 9.34569 18.9721 9.91456 19.0659C11.6212 23.8669 16.6847 26.8362 16.6847 26.8362C16.7472 26.8675 16.791 26.88 16.8535 26.8987C12.2838 26.1736 8.55803 22.8542 7.22025 18.497V18.497ZM24.13 25.761C23.2236 26.0548 21.867 26.2861 20.0854 25.9923C20.0854 25.9923 14.3905 24.5483 12.115 19.2534C14.503 19.2972 15.3907 19.2409 16.991 19.0096C19.454 18.6533 21.9295 17.9969 24.18 16.9467C24.9177 16.6091 24.8739 15.7339 24.7801 15.0838C24.6551 14.2836 24.0862 14.3274 23.4424 14.79C23.4424 14.79 18.3163 18.4532 11.5774 18.1469C10.4084 16.1465 9.90205 11.2205 9.90205 11.2205C12.4901 9.02004 15.1031 7.49473 20.4292 7.94482C20.4417 7.54474 20.6168 6.25072 19.154 6.1882C19.154 6.1882 13.309 5.49431 10.0271 8.28239C10.1834 7.25092 10.3959 6.45076 10.721 5.81938C12.8589 3.89398 15.6595 2.72498 18.7414 2.72498C25.3928 2.72498 30.8064 8.16986 30.8064 14.8838C30.7939 19.6347 28.0683 23.7606 24.13 25.761V25.761Z" fill="#0165E1" /></svg>