<svg width="32" height="28" viewBox="0 0 32 28" fill="none" xmlns="http://www.w3.org/2000/svg">
 <path  d= "M26.1375 9.07349C25.8 8.96099 25.4625 8.85474 25.125 8.75474C25.1812 8.52349 25.2312 8.29224 25.2812 8.06099C26.05 4.33599 25.5437 1.34224 23.8375 0.354736C22.1937 -0.589014 19.5125 0.392236 16.8 2.75474C16.5312 2.98599 16.2687 3.22974 16.0187 3.47349C15.85 3.31099 15.675 3.14849 15.5 2.99224C12.6562 0.467236 9.80625 -0.595264 8.1 0.398486C6.4625 1.34849 5.975 4.16724 6.6625 7.69224C6.73125 8.04224 6.80625 8.38599 6.89375 8.73599C6.49375 8.84849 6.1 8.97349 5.73125 9.10474C2.39375 10.261 0 12.086 0 13.9735C0 15.9235 2.55 17.8797 6.01875 19.0672C6.3 19.161 6.58125 19.2547 6.86875 19.336C6.775 19.711 6.69375 20.0797 6.61875 20.461C5.9625 23.9297 6.475 26.6797 8.1125 27.6235C9.8 28.5985 12.6375 27.5985 15.4 25.1797C15.6187 24.986 15.8375 24.786 16.0562 24.5735C16.3312 24.8422 16.6188 25.0985 16.9062 25.3485C19.5812 27.6485 22.225 28.5797 23.8563 27.636C25.5438 26.661 26.0938 23.7047 25.3813 20.1047C25.325 19.8297 25.2625 19.5485 25.1938 19.261C25.3938 19.2047 25.5875 19.1422 25.7812 19.0797C29.3875 17.886 32 15.9547 32 13.9735C32 12.0797 29.5375 10.2422 26.1375 9.07349V9.07349ZM17.6812 3.76724C20.0062 1.74224 22.175 0.948486 23.1625 1.51724C24.2188 2.12349 24.625 4.57349 23.9625 7.79224C23.9187 8.00474 23.875 8.21099 23.8188 8.41724C22.4313 8.10474 21.025 7.87974 19.6125 7.75474C18.8 6.59224 17.9125 5.47974 16.95 4.43599C17.1938 4.20474 17.4312 3.98599 17.6812 3.76724V3.76724ZM9.55625 15.586C9.84375 16.136 10.1375 16.6797 10.45 17.2172C10.7687 17.761 11.0938 18.3047 11.4375 18.836C10.4625 18.7297 9.49375 18.5735 8.5375 18.3672C8.8125 17.4672 9.15625 16.536 9.55625 15.586V15.586ZM9.55625 12.4235C9.1625 11.4922 8.83125 10.5797 8.55625 9.69849C9.45625 9.49849 10.4125 9.33599 11.4062 9.21099C11.075 9.72974 10.75 10.261 10.4438 10.7985C10.1375 11.3297 9.8375 11.8735 9.55625 12.4235ZM10.2688 14.0047C10.6813 13.1422 11.1312 12.2985 11.6062 11.4672C12.0812 10.636 12.5938 9.82974 13.1313 9.03599C14.0688 8.96724 15.025 8.92974 16 8.92974C16.975 8.92974 17.9375 8.96724 18.8687 9.03599C19.4 9.82349 19.9063 10.6297 20.3875 11.4547C20.8688 12.2797 21.3187 13.1235 21.7437 13.9797C21.325 14.8422 20.875 15.6922 20.3937 16.5297C19.9187 17.361 19.4125 18.1672 18.8813 18.9672C17.95 19.036 16.9812 19.0672 16 19.0672C15.0188 19.0672 14.0687 19.036 13.15 18.9797C12.6062 18.186 12.0938 17.3735 11.6125 16.5422C11.1313 15.711 10.6875 14.8672 10.2688 14.0047ZM21.5562 17.2047C21.875 16.6547 22.175 16.0985 22.4688 15.536C22.8688 16.4422 23.2187 17.361 23.525 18.3047C22.5562 18.5235 21.575 18.6922 20.5875 18.8047C20.925 18.2797 21.2437 17.7422 21.5562 17.2047ZM22.4562 12.4235C22.1625 11.8735 21.8625 11.3235 21.55 10.786C21.2437 10.2547 20.925 9.72974 20.5938 9.21099C21.6 9.33599 22.5625 9.50474 23.4625 9.71099C23.175 10.636 22.8375 11.536 22.4562 12.4235V12.4235ZM16.0125 5.39224C16.6688 6.10474 17.2875 6.85474 17.8625 7.62974C16.625 7.57349 15.3813 7.57349 14.1438 7.62974C14.7563 6.82349 15.3875 6.07349 16.0125 5.39224ZM8.7625 1.56099C9.8125 0.948486 12.1438 1.82349 14.6 3.99849C14.7563 4.13599 14.9125 4.28599 15.075 4.43599C14.1062 5.47974 13.2125 6.59224 12.3938 7.75474C10.9813 7.87974 9.58125 8.09849 8.19375 8.40474C8.1125 8.08599 8.04375 7.76099 7.975 7.43599C7.3875 4.41099 7.775 2.12974 8.7625 1.56099V1.56099ZM7.23125 18.036C6.96875 17.961 6.7125 17.8797 6.45625 17.7922C5.125 17.3735 3.6125 16.711 2.51875 15.8422C1.8875 15.4047 1.4625 14.7297 1.34375 13.9735C1.34375 12.8297 3.31875 11.3672 6.16875 10.3735C6.525 10.2485 6.8875 10.136 7.25 10.0297C7.675 11.386 8.1875 12.7172 8.78125 14.0047C8.18125 15.311 7.6625 16.661 7.23125 18.036V18.036ZM14.5188 24.161C13.4875 25.1047 12.2937 25.8547 10.9937 26.3672C10.3 26.6985 9.5 26.7297 8.7875 26.4485C7.79375 25.8735 7.38125 23.6672 7.94375 20.6985C8.0125 20.3485 8.0875 19.9985 8.175 19.6547C9.575 19.9547 10.9875 20.161 12.4187 20.2672C13.2437 21.436 14.15 22.5547 15.1187 23.6047C14.9187 23.7985 14.7188 23.986 14.5188 24.161ZM16.05 22.6422C15.4125 21.9547 14.775 21.1922 14.1562 20.3735C14.7563 20.3985 15.375 20.411 16 20.411C16.6438 20.411 17.275 20.3985 17.9 20.3672C17.325 21.161 16.7062 21.9172 16.05 22.6422V22.6422ZM24.2188 24.5172C24.1625 25.2797 23.7875 25.9922 23.1875 26.4735C22.1938 27.0485 20.075 26.2985 17.7875 24.336C17.525 24.111 17.2625 23.8672 16.9937 23.6172C17.95 22.561 18.8313 21.4422 19.6313 20.2672C21.0625 20.1485 22.4875 19.9297 23.8937 19.611C23.9562 19.8672 24.0125 20.1235 24.0625 20.3735C24.3688 21.7235 24.4188 23.1297 24.2188 24.5172V24.5172ZM25.3563 17.7985C25.1813 17.8547 25.0063 17.911 24.825 17.961C24.3875 16.5985 23.85 15.2672 23.2313 13.9735C23.8313 12.6985 24.3375 11.386 24.7625 10.0422C25.0875 10.136 25.4 10.236 25.7 10.336C28.6125 11.336 30.6562 12.8235 30.6562 13.961C30.6562 15.186 28.475 16.7672 25.3563 17.7985ZM16 11.136C17.5812 11.136 18.8625 12.4172 18.8625 13.9985C18.8625 15.5797 17.5812 16.861 16 16.861C14.4188 16.861 13.1375 15.5797 13.1375 13.9985C13.1375 12.4172 14.4188 11.136 16 11.136Z" fill="#0165E1" /></svg>