<svg width="32" height="24" viewBox="0 0 32 24" fill="none" xmlns="http://www.w3.org/2000/svg">
 <path  d= "M29.35 0.363892H21.5833C18.9111 0.363892 16.5889 2.21389 16.0056 4.825C15.4167 2.21389 13.1 0.363892 10.4278 0.363892H2.66667C1.19444 0.363892 0 1.55834 0 3.03056V16.6861C0 18.1583 1.19444 19.3528 2.66667 19.3528H7.65C13.3278 19.3528 15.0222 20.7083 15.8333 23.5194C15.8722 23.675 16.1222 23.675 16.1667 23.5194C16.9833 20.7083 18.6778 19.3528 24.35 19.3528H29.3333C30.8056 19.3528 32 18.1583 32 16.6861V3.03611C32 1.56945 30.8167 0.375003 29.35 0.363892V0.363892ZM13.4444 15.1083C13.4444 15.2139 13.3611 15.3028 13.25 15.3028H4.34444C4.23889 15.3028 4.15 15.2194 4.15 15.1083V13.8361C4.15 13.7306 4.23333 13.6417 4.34444 13.6417H13.2556C13.3611 13.6417 13.45 13.725 13.45 13.8361V15.1083H13.4444ZM13.4444 11.725C13.4444 11.8306 13.3611 11.9194 13.25 11.9194H4.34444C4.23889 11.9194 4.15 11.8361 4.15 11.725V10.4528C4.15 10.3472 4.23333 10.2583 4.34444 10.2583H13.2556C13.3611 10.2583 13.45 10.3417 13.45 10.4528V11.725H13.4444ZM13.4444 8.34167C13.4444 8.44723 13.3611 8.53611 13.25 8.53611H4.34444C4.23889 8.53611 4.15 8.45278 4.15 8.34167V7.06945C4.15 6.96389 4.23333 6.875 4.34444 6.875H13.2556C13.3611 6.875 13.45 6.95834 13.45 7.06945V8.34167H13.4444ZM27.85 15.1028C27.85 15.2083 27.7667 15.2972 27.6556 15.2972H18.75C18.6444 15.2972 18.5556 15.2139 18.5556 15.1028V13.8306C18.5556 13.725 18.6389 13.6361 18.75 13.6361H27.6611C27.7667 13.6361 27.8556 13.7194 27.8556 13.8306V15.1028H27.85ZM27.85 11.7194C27.85 11.825 27.7667 11.9139 27.6556 11.9139H18.75C18.6444 11.9139 18.5556 11.8306 18.5556 11.7194V10.4472C18.5556 10.3417 18.6389 10.2528 18.75 10.2528H27.6611C27.7667 10.2528 27.8556 10.3361 27.8556 10.4472V11.7194H27.85ZM27.85 8.33611C27.85 8.44167 27.7667 8.53056 27.6556 8.53056H18.75C18.6444 8.53056 18.5556 8.44722 18.5556 8.33611V7.06945C18.5556 6.96389 18.6389 6.875 18.75 6.875H27.6611C27.7667 6.875 27.8556 6.95834 27.8556 7.06945V8.33611H27.85Z" fill="#0165E1" /></svg>