<svg width="32" height="32" viewBox="0 0 32 32" fill="none" xmlns="http://www.w3.org/2000/svg">
 <path  d= "M16.0319 32C7.04482 32 0.0641753 24.5032 0.335143 15.6065C0.515788 10.4968 3.12224 5.7871 7.85127 2.67742C7.87063 2.67742 7.97385 2.63871 7.92224 2.72903C7.54805 3.08387 0.741595 11.1032 7.01256 17.3355C10.2255 20.529 12.819 17.4968 12.819 17.4968C15.3029 14.2645 12.7803 9.37419 12.7803 9.37419C12.1351 7.76774 9.83192 6.7871 9.83192 6.7871L11.69 4.73548C13.2642 5.4129 14.4771 7.23226 14.4771 7.23226C14.5287 5.32258 13.0642 3.27097 13.0642 3.27097L15.9416 0L18.7997 3.23226C17.4771 5.09032 17.3868 7.27097 17.3868 7.27097C18.2771 5.7871 20.1932 4.73548 20.1932 4.73548L22.0319 6.7871C20.2642 7.36129 19.1029 9.36129 19.1029 9.36129C18.0835 11.2 17.3545 15.129 19.1416 17.5742C21.2319 20.4516 24.7997 17.3935 24.7997 17.3935C31.4255 11.4645 24.1222 2.87742 24.1222 2.87742C23.7287 2.52258 24.1739 2.69677 24.1739 2.69677C27.4061 5.05161 31.5674 8.14194 31.6706 15.9097C31.7997 25.3032 25.2255 32 16.0319 32Z" fill="#0165E1" /></svg>