<svg width="32" height="32" viewBox="0 0 32 32" fill="none" xmlns="http://www.w3.org/2000/svg">
 <path  d= "M25.2286 0H6.77143C3.02857 0 0 3.02857 0 6.77143V25.2286C0 28.9714 3.02857 32 6.77143 32H25.2286C28.9714 32 32 28.9714 32 25.2286V6.77143C32 3.02857 28.9714 0 25.2286 0ZM10.35 12.0643V16.0857C10.35 18.0143 8.78571 19.5786 6.85714 19.5786V8.56429C6.85714 7.62143 7.62143 6.85714 8.56429 6.85714H19.5786C19.5786 8.78571 18.0143 10.35 16.0857 10.35H12.0643C11.1857 10.3071 10.3071 11.1786 10.35 12.0643V12.0643ZM22.9429 17.2071H18.9214C18.0429 17.1643 17.1643 18.0357 17.2071 18.9214V22.9429C17.2071 24.8714 15.6429 26.4357 13.7143 26.4357V15.4214C13.7143 14.4786 14.4786 13.7143 15.4214 13.7143H26.4357C26.4357 15.6429 24.8714 17.2071 22.9429 17.2071Z" fill="#0165E1" /></svg>