<svg width="34" height="32" viewBox="0 0 34 32" fill="none" xmlns="http://www.w3.org/2000/svg">
 <path  d= "M30.1628 12.2544C29.0916 12.2544 28.149 12.6972 27.4563 13.3899C24.9068 11.626 21.4719 10.4905 17.6656 10.3691L19.6437 1.45682L25.9423 2.87079C25.9423 4.4133 27.1992 5.67016 28.7417 5.67016C30.3128 5.67016 31.5768 4.37759 31.5768 2.83508C31.5768 1.29257 30.3199 -2.72418e-08 28.7417 -2.72418e-08C27.6419 -2.72418e-08 26.6921 0.664138 26.2208 1.57108L19.2652 0.028565C18.9153 -0.0642714 18.5725 0.185673 18.4797 0.535595L16.3087 10.362C12.531 10.5191 9.13178 11.6545 6.57521 13.4184C5.8825 12.6972 4.90415 12.2544 3.83296 12.2544C-0.137581 12.2544 -1.43729 17.5818 2.19761 19.4028C2.06907 19.967 2.01194 20.5668 2.01194 21.1667C2.01194 27.1511 8.75329 32 17.03 32C25.3424 32 32.0838 27.1511 32.0838 21.1667C32.0838 20.5668 32.0195 19.9384 31.8624 19.3742C35.4259 17.5461 34.1119 12.2544 30.1628 12.2544V12.2544ZM7.96061 19.7813C7.96061 18.2102 9.21747 16.9462 10.7957 16.9462C12.3382 16.9462 13.5951 18.2031 13.5951 19.7813C13.5951 21.3238 12.3382 22.5807 10.7957 22.5807C9.22461 22.5878 7.96061 21.3238 7.96061 19.7813V19.7813ZM23.2643 26.4584C20.6649 29.0578 13.3308 29.0578 10.7314 26.4584C10.4458 26.2084 10.4458 25.7657 10.7314 25.48C10.9814 25.2301 11.4241 25.2301 11.6741 25.48C13.6593 27.5153 20.2436 27.551 22.3145 25.48C22.5645 25.2301 23.0072 25.2301 23.2572 25.48C23.55 25.7657 23.55 26.2084 23.2643 26.4584ZM23.2072 22.5878C21.6647 22.5878 20.4078 21.331 20.4078 19.7884C20.4078 18.2174 21.6647 16.9534 23.2072 16.9534C24.7783 16.9534 26.0423 18.2102 26.0423 19.7884C26.0351 21.3238 24.7783 22.5878 23.2072 22.5878Z" fill="#0165E1" /></svg>