<svg width="32" height="32" viewBox="0 0 32 32" fill="none" xmlns="http://www.w3.org/2000/svg">
 <path  d= "M20.2286 22.3929C20.4214 22.5857 20.4214 22.8786 20.2286 23.05C18.4786 24.8 13.5286 24.8071 11.7714 23.05C11.5786 22.8786 11.5786 22.5857 11.7714 22.3929C11.9429 22.2214 12.2357 22.2214 12.4071 22.3929C13.7429 23.7643 18.1929 23.7929 19.5857 22.3929C19.7571 22.2286 20.0571 22.2286 20.2286 22.3929ZM13.7071 18.55C13.7071 17.4857 12.8571 16.6357 11.8143 16.6357C10.75 16.6357 9.9 17.4857 9.9 18.55C9.9 19.5929 10.75 20.4429 11.8143 20.4429C12.8571 20.4429 13.7071 19.5929 13.7071 18.55ZM20.1857 16.6357C19.1429 16.6357 18.2929 17.4857 18.2929 18.55C18.2929 19.5929 19.1429 20.4429 20.1857 20.4429C21.25 20.4429 22.1 19.5929 22.1 18.55C22.1 17.4857 21.25 16.6357 20.1857 16.6357ZM32 3.42857V28.5714C32 30.4643 30.4643 32 28.5714 32H3.42857C1.53571 32 0 30.4643 0 28.5714V3.42857C0 1.53571 1.53571 0 3.42857 0H28.5714C30.4643 0 32 1.53571 32 3.42857ZM24.8786 13.4714C24.1571 13.4714 23.5214 13.7714 23.05 14.2357C21.3286 13.0429 19.0143 12.2786 16.4429 12.1929L17.7786 6.17857L22.0286 7.13571C22.0286 8.17857 22.8786 9.02857 23.9214 9.02857C24.9857 9.02857 25.8357 8.15714 25.8357 7.11429C25.8357 6.07143 24.9857 5.2 23.9214 5.2C23.1786 5.2 22.5429 5.64286 22.2214 6.26429L17.5286 5.22143C17.2929 5.15714 17.0643 5.32857 17 5.56429L15.5357 12.1929C12.9857 12.3 10.6929 13.0643 8.97143 14.2571C8.50714 13.7714 7.84286 13.4714 7.12143 13.4714C4.44286 13.4714 3.56429 17.0714 6.01429 18.2929C5.92857 18.6786 5.88571 19.0786 5.88571 19.4857C5.88571 23.5214 10.4357 26.7929 16.0214 26.7929C21.6286 26.7929 26.1786 23.5214 26.1786 19.4857C26.1786 19.0786 26.1357 18.6571 26.0286 18.2714C28.4286 17.0429 27.5429 13.4714 24.8786 13.4714V13.4714Z" fill="#0165E1" /></svg>