<svg width="32" height="32" viewBox="0 0 32 32" fill="none" xmlns="http://www.w3.org/2000/svg">
 <path  d= "M12.4839 19.1935C11.5935 19.1935 10.8774 18.4774 10.8774 17.6065C10.8774 16.7161 11.5935 16 12.4839 16C13.3613 16 14.071 16.7161 14.071 17.6065C14.071 18.4839 13.3548 19.1935 12.4839 19.1935ZM32 16C32 24.8387 24.8387 32 16 32C7.16129 32 0 24.8387 0 16C0 7.16129 7.16129 0 16 0C24.8387 0 32 7.16129 32 16ZM23.4645 13.3419C22.8581 13.3419 22.3226 13.5935 21.929 13.9871C20.4839 12.9871 18.5355 12.3419 16.3742 12.271L17.4968 7.21935L21.071 8.02581C21.071 8.90323 21.7871 9.6129 22.6581 9.6129C23.5484 9.6129 24.2645 8.88387 24.2645 8.00645C24.2645 7.12903 23.5484 6.4 22.6581 6.4C22.0323 6.4 21.4968 6.77419 21.2323 7.29032L17.2839 6.4129C17.0903 6.36129 16.8903 6.50323 16.8387 6.69677L15.6065 12.271C13.4645 12.3613 11.5355 13 10.0903 14C9.69677 13.5871 9.14194 13.3419 8.53548 13.3419C6.28387 13.3419 5.54839 16.3677 7.60645 17.3935C7.53548 17.7161 7.49677 18.0516 7.49677 18.3935C7.49677 21.7871 11.3161 24.5355 16.0129 24.5355C20.729 24.5355 24.5484 21.7871 24.5484 18.3935C24.5484 18.0516 24.5097 17.6968 24.4258 17.3742C26.4452 16.3419 25.7032 13.3419 23.4645 13.3419V13.3419ZM19.0194 20.8387C17.8452 22.0129 14.1097 21.9935 12.9806 20.8387C12.8387 20.6968 12.5871 20.6968 12.4452 20.8387C12.2839 21 12.2839 21.2516 12.4452 21.3935C13.9161 22.8645 18.0774 22.8645 19.5548 21.3935C19.7161 21.2516 19.7161 21 19.5548 20.8387C19.4129 20.6968 19.1613 20.6968 19.0194 20.8387ZM19.5161 16C18.6387 16 17.929 16.7161 17.929 17.6065C17.929 18.4839 18.6452 19.1935 19.5161 19.1935C20.4065 19.1935 21.1226 18.4774 21.1226 17.6065C21.1226 16.7161 20.4129 16 19.5161 16V16Z" fill="#0165E1" /></svg>