<svg width="32" height="32" viewBox="0 0 32 32" fill="none" xmlns="http://www.w3.org/2000/svg">
 <path  d= "M16.0032 0C7.16452 0 0.00323486 7.16129 0.00323486 16C0.00323486 24.8387 7.16452 32 16.0032 32C17.2032 32 18.371 31.8645 19.4936 31.6194C19.1323 31.1419 18.7968 30.6903 18.4678 30.2452C17.6678 30.3806 16.8419 30.4581 15.9968 30.4581C8.02259 30.4516 1.55162 23.9806 1.55162 16C1.55162 8.01935 8.02259 1.54839 16.0032 1.54839C23.9839 1.54839 30.4548 8.01935 30.4548 16C30.4548 20.5806 28.3258 24.6581 25.0032 27.3097C23.3323 28.5226 22.4807 28.6903 19.6161 24.4581C14.5387 17.1742 16.5194 19.871 14.8613 17.471C19.5581 18.0452 29.6032 12.8258 25.7387 6.59355C20.2613 -2.24516 0.970977 5.53548 3.85485 14.0903C4.0613 14.7226 4.78388 16.5806 6.79678 16.5806C6.92582 16.5806 6.96453 16.5419 6.92582 16.471C6.64194 15.9097 5.62904 15.8387 5.62904 14.0581C5.62904 11.4452 8.24194 8.27742 12.1 6.31613C16.3645 4.23226 20.6097 4.36774 22.3065 6.66452C24.0613 9.13548 20.9581 14.3548 14.5387 15.4968C15.0226 14.8903 18.2161 10.6452 18.5903 10.0774C20.0548 7.84516 20.1129 6.91613 19.4936 6.25806C18.4936 5.16774 17.5903 5.59355 16.2226 5.50323C15.5258 5.44516 8.88711 17.1935 7.42259 19.4968C7.04194 20.0774 6.05485 21.6968 6.05485 22.7806C6.05485 24.1548 6.23549 26.0968 7.38388 26.0968C8.06775 26.0968 7.90001 24.8903 7.90001 24.3806C7.90001 23.5484 9.66775 21.1935 12.7258 17.6323C14.0419 19.9613 16.4484 25.0065 21.1258 31.1613C27.4484 29.0258 31.9968 23.0452 31.9968 16C32.0032 7.16129 24.8419 0 16.0032 0Z" fill="#0165E1" /></svg>