<svg width="32" height="32" viewBox="0 0 32 32" fill="none" xmlns="http://www.w3.org/2000/svg">
 <path  d= "M13.2903 10.2484C13.2903 17.3709 9.35484 23.5 3.76774 26.2097C1.41935 23.4161 0 19.8355 0 15.8935C0 7.9774 5.74839 1.41611 13.2903 0.145142V10.2484ZM15.9355 31.8548C13.1677 31.8548 10.5613 31.1451 8.29032 29.8935C11.9806 27.5645 14.9613 24.0419 15.9355 19.9193C16.9355 24.0419 19.9161 27.5645 23.6 29.9C21.3355 31.1451 18.729 31.8548 15.9355 31.8548ZM28.2323 26.2097C22.6452 23.5 18.7097 17.3774 18.7097 10.2484V0.145142C26.2516 1.41611 32 7.9774 32 15.8935C32 19.8355 30.5806 23.4161 28.2323 26.2097Z" fill="#0165E1" /></svg>