<svg width="32" height="32" viewBox="0 0 32 32" fill="none" xmlns="http://www.w3.org/2000/svg">
 <path  d= "M22.8571 32H9.14286C4.11429 32 0 27.8857 0 22.8571V9.14286C0 4.11429 4.11429 0 9.14286 0H22.8571C27.8857 0 32 4.11429 32 9.14286V22.8571C32 27.8857 27.8857 32 22.8571 32ZM13.8143 17.2286C13.3786 17.0857 12.9857 17.0071 12.6429 17.0071C12.1286 17.0071 11.6786 17.1429 11.2929 17.4071C10.9071 17.6714 10.6071 18.05 10.3786 18.5357H10.3L10 17.2286H8V27.15H10.5786V20.7429C10.6857 20.3571 10.8929 20.0429 11.2 19.8C11.5071 19.5571 11.9 19.4357 12.3571 19.4357C12.6857 19.4357 13.0571 19.5071 13.4714 19.6571L13.8143 17.2286V17.2286ZM22.0429 24.6143C21.8143 24.7857 21.4929 24.9571 21.0643 25.1214C20.6357 25.2857 20.15 25.3714 19.6071 25.3714C18.7357 25.3714 18.1 25.1571 17.7143 24.7357C17.3214 24.3143 17.1071 23.6857 17.0714 22.85H23.0214C23.0857 22.5071 23.1357 22.1786 23.1714 21.8571C23.2071 21.5429 23.2214 21.2429 23.2214 20.9643C23.2214 20.2 23.1071 19.5571 22.8857 19.0429C22.6571 18.5286 22.3643 18.1143 21.9929 17.8143C21.6214 17.5071 21.2 17.2929 20.7214 17.1571C20.2429 17.0286 19.7571 16.9571 19.25 16.9571C17.7429 16.9571 16.5714 17.3929 15.7357 18.2643C14.9 19.1357 14.4857 20.4429 14.4857 22.1929C14.4857 23.8214 14.8571 25.1 15.6 26.0286C16.3429 26.9643 17.5143 27.4286 19.1143 27.4286C19.8786 27.4286 20.6071 27.3214 21.2857 27.1C21.9643 26.8786 22.5071 26.6143 22.9 26.3L22.0429 24.6143V24.6143ZM20.4857 19.5929C20.7571 19.9786 20.8643 20.5286 20.8143 21.2429H17.1214C17.1857 20.5714 17.3857 20.0286 17.7071 19.6286C18.0286 19.2286 18.5286 19.0214 19.2071 19.0214C19.7929 19.0143 20.2143 19.2071 20.4857 19.5929ZM26.1929 19.7714C26.4857 20.05 26.8643 20.1857 27.3429 20.1857C27.8429 20.1857 28.2429 20.05 28.5357 19.7714C28.8286 19.4929 28.9714 19.1214 28.9714 18.6571C28.9714 18.1929 28.8286 17.8286 28.5357 17.5571C28.2429 17.2857 27.85 17.15 27.3429 17.15C26.8643 17.15 26.4857 17.2857 26.1929 17.5571C25.9 17.8286 25.7571 18.1929 25.7571 18.6571C25.7571 19.1214 25.9 19.4929 26.1929 19.7714ZM26.1929 26.95C26.4857 27.2286 26.8643 27.3643 27.3429 27.3643C27.8429 27.3643 28.2429 27.2286 28.5357 26.95C28.8286 26.6714 28.9714 26.3 28.9714 25.8357C28.9714 25.3714 28.8286 25.0071 28.5357 24.7357C28.2429 24.4643 27.85 24.3286 27.3429 24.3286C26.8643 24.3286 26.4857 24.4643 26.1929 24.7357C25.9 25.0071 25.7571 25.3714 25.7571 25.8357C25.7571 26.3071 25.9 26.6714 26.1929 26.95Z" fill="#0165E1" /></svg>