<svg width="32" height="32" viewBox="0 0 32 32" fill="none" xmlns="http://www.w3.org/2000/svg">
 <path  d= "M18.1417 17.4323C21.1094 16.5742 21.3416 15.9162 20.9804 14.6323L20.2578 12.0969C19.8642 10.7485 19.0707 10.284 15.6708 11.2711L3.52898 14.7613L5.37412 21.1225L18.1417 17.4323V17.4323ZM16.032 0.000244141C8.47731 0.000244141 2.14191 5.20663 0.46451 12.2259L14.7804 8.10336C17.0256 7.44531 18.2772 7.34853 19.8965 7.57434C22.2384 7.96788 23.2965 9.18722 23.8577 11.1356L24.5481 13.5743C25.0771 15.3871 24.6126 16.8387 23.0319 18.3226C21.7804 19.4451 21.0191 19.9032 19.0707 20.4645L13.0966 22.1806L27.3158 23.929L27.9416 26.1354L24.8384 26.9934L6.3354 24.587L7.81925 29.7611C10.1934 31.1805 12.9998 31.9998 15.9675 31.9998C24.8061 31.9998 31.9996 24.8128 31.9996 15.9807C32.0641 7.18724 24.8706 0.000244141 16.032 0.000244141ZM2.47093 24.5548L0 16.0516C0 19.1806 0.922568 22.0774 2.47093 24.5548Z" fill="#0165E1" /></svg>