<svg width="32" height="28" viewBox="0 0 32 28" fill="none" xmlns="http://www.w3.org/2000/svg">
 <path  d= "M32 14.0132C32 7.78467 24.8857 3.06324 16.3 3.06324C14.9571 3.06324 13.6357 3.17752 12.35 3.40609C11.5571 2.65609 10.6214 1.97752 9.63571 1.44895C4.37143 -1.12962 0 1.38466 0 1.38466C0 1.38466 4.06429 4.74895 3.4 7.69181C-0.335714 11.4275 -0.35 16.5561 3.4 20.3061C4.06429 23.2561 0 26.6132 0 26.6132C0 26.6132 4.37143 29.1275 9.63571 26.5561C10.6214 26.0204 11.5571 25.349 12.35 24.5989C13.6357 24.8275 14.9571 24.9418 16.3 24.9418C24.8929 24.9347 32 20.2418 32 14.0132V14.0132ZM16.3071 22.8704C14.6143 22.8704 13 22.6704 11.5 22.3132C9.97857 24.1561 6.63571 26.7204 3.38571 25.8918C4.44286 24.749 6.00714 22.8132 5.67143 19.6347C3.72143 18.1061 2.55714 16.1561 2.55714 14.0275C2.55714 9.14181 8.71429 5.17752 16.3071 5.17752C23.9 5.17752 30.0571 9.14181 30.0571 14.0275C30.0571 18.9061 23.9 22.8704 16.3071 22.8704ZM18.1357 14.0204C18.1357 15.0347 17.3143 15.8632 16.3071 15.8632C15.3 15.8632 14.4786 15.0418 14.4786 14.0204C14.4786 13.0061 15.3 12.1775 16.3071 12.1775C17.3143 12.1775 18.1357 13.0061 18.1357 14.0204ZM24.4857 14.0204C24.4857 15.0347 23.6714 15.8632 22.6571 15.8632C21.65 15.8632 20.8286 15.0418 20.8286 14.0204C20.8286 13.0061 21.6429 12.1775 22.6571 12.1775C23.6643 12.1775 24.4857 13.0061 24.4857 14.0204ZM11.7786 14.0204C11.7786 15.0347 10.9643 15.8632 9.95 15.8632C8.94286 15.8632 8.12143 15.0418 8.12143 14.0204C8.12143 13.0061 8.93571 12.1775 9.95 12.1775C10.9643 12.1775 11.7786 13.0061 11.7786 14.0204Z" fill="#0165E1" /></svg>