<svg width="32" height="32" viewBox="0 0 32 32" fill="none" xmlns="http://www.w3.org/2000/svg">
 <path  d= "M16 0C7.16129 0 0 7.16129 0 16C0 24.8387 7.16129 32 16 32C24.8387 32 32 24.8387 32 16C32 7.16129 24.8387 0 16 0ZM26.1548 27.0645H20.3484L13.1226 18.5935C11.9677 17.2774 12.871 14.9742 14.8387 14.9742H19.6968L14.2387 8.56774L8.8 14.9484H2.99355L12.4839 3.81935C13.4129 2.63226 15.1484 2.70323 16 3.81935L26.1742 15.7613C27.4 17.2323 26.3032 19.4516 24.3935 19.3806C24.3548 19.3806 19.6065 19.3935 19.6065 19.3935L26.1548 27.0645Z" fill="#0165E1" /></svg>