<svg width="32" height="32" viewBox="0 0 32 32" fill="none" xmlns="http://www.w3.org/2000/svg">
 <path  d= "M14.7677 16.0516C14.7677 15.4645 15.1935 14.9097 15.8194 14.9097C16.3935 14.9097 16.9419 15.3226 16.9419 15.9484C16.9419 16.5355 16.529 17.0903 15.9032 17.0903C15.3226 17.0903 14.7677 16.6581 14.7677 16.0516V16.0516ZM32 16C32 24.8387 24.8387 32 16 32C7.16129 32 0 24.8387 0 16C0 7.16129 7.16129 0 16 0C24.8387 0 32 7.16129 32 16ZM30.2839 16C30.2839 8.10968 23.8903 1.71613 16 1.71613C8.10968 1.71613 1.71613 8.10968 1.71613 16C1.71613 23.8903 8.10968 30.2839 16 30.2839C23.8903 30.2839 30.2839 23.8903 30.2839 16ZM25.6065 22.2323C25.6065 22.4645 26.4452 22.8903 26.6581 23.0194C24.8903 25.6968 22.1548 27.6258 19.0516 28.3935L18.7677 27.2C18.7484 27.0387 18.6452 27.0194 18.4968 27.0194C18.3742 27.0194 18.3032 27.2 18.3161 27.2903L18.6 28.5032C17.7419 28.6839 16.871 28.7742 15.9935 28.7742C13.6516 28.7742 11.3484 28.1161 9.34839 26.8968C9.45806 26.7161 10.1355 25.7355 10.1355 25.5935C10.1355 25.471 10.0258 25.3613 9.90323 25.3613C9.65161 25.3613 9.11613 26.4323 8.95484 26.6452C6.25806 24.8581 4.30968 22.0903 3.56129 18.929L4.79355 18.6581C4.93548 18.6194 4.97419 18.5161 4.97419 18.3871C4.97419 18.2645 4.79355 18.1935 4.69032 18.2065L3.48387 18.4839C3.32258 17.6645 3.23226 16.8387 3.23226 16C3.23226 13.6065 3.90968 11.2516 5.18065 9.23226C5.36129 9.34194 6.21935 9.92903 6.36129 9.92903C6.48387 9.92903 6.59355 9.83871 6.59355 9.71613C6.59355 9.46452 5.64516 8.9871 5.43226 8.83871C7.25161 6.18064 10.0194 4.26452 13.1613 3.55484L13.4323 4.74839C13.471 4.89032 13.5742 4.92903 13.7032 4.92903C13.8323 4.92903 13.8968 4.74839 13.8839 4.64516L13.6129 3.46452C14.4 3.32258 15.2 3.23226 16.0065 3.23226C18.4 3.23226 20.7355 3.90968 22.7742 5.18065C22.6516 5.36129 22.0774 6.2 22.0774 6.34194C22.0774 6.46452 22.1677 6.57419 22.2903 6.57419C22.5419 6.57419 23.0194 5.64516 23.1484 5.43226C25.7935 7.21935 27.6839 9.94839 28.4194 13.0581L27.4194 13.271C27.2581 13.3097 27.2387 13.4129 27.2387 13.5548C27.2387 13.6774 27.4194 13.7484 27.5097 13.7355L28.529 13.5032C28.6903 14.3226 28.7806 15.1613 28.7806 16C28.7806 18.3419 28.1355 20.6452 26.9226 22.6258C26.7419 22.5355 25.9935 22 25.8516 22C25.7161 22 25.6065 22.1097 25.6065 22.2323V22.2323ZM23.4645 6.60645C22.6258 7.39355 14.8065 14.5871 14.5871 14.9613L8.35484 25.3161C9.17419 24.5484 17.0129 17.3161 17.2129 16.9742L23.4645 6.60645V6.60645Z" fill="#0165E1" /></svg>