<svg width="32" height="24" viewBox="0 0 32 24" fill="none" xmlns="http://www.w3.org/2000/svg">
 <path  d= "M27.5485 13.7943C26.4288 13.7993 25.4591 14.0692 24.6493 14.4691C24.3544 13.8743 24.0495 13.3544 23.9995 12.9645C23.9395 12.5097 23.8745 12.2397 23.9445 11.6999C24.0145 11.1601 24.3294 10.3953 24.3244 10.3403C24.3194 10.2853 24.2544 10.0104 23.6096 10.0054C22.9648 10.0004 22.4099 10.1303 22.3449 10.3003C22.28 10.4703 22.155 10.8551 22.08 11.255C21.9651 11.8399 20.7904 13.9293 20.1256 15.019C19.9056 14.5941 19.7207 14.2192 19.6807 13.9193C19.6207 13.4644 19.5557 13.1945 19.6257 12.6546C19.6957 12.1148 20.0106 11.35 20.0056 11.295C20.0006 11.24 19.9356 10.9651 19.2908 10.9601C18.646 10.9551 18.0912 11.0851 18.0262 11.255C17.9612 11.425 17.8912 11.8249 17.7612 12.2098C17.6313 12.5946 16.0667 16.0737 15.6568 16.9784C15.4469 17.4383 15.267 17.8082 15.137 18.0581C15.007 18.308 15.127 18.0731 15.117 18.1031C15.007 18.318 14.942 18.438 14.942 18.438V18.443C14.8571 18.6029 14.7621 18.7479 14.7171 18.7479C14.6871 18.7479 14.6221 18.328 14.7321 17.7532C14.967 16.5435 15.5219 14.6641 15.5169 14.5991C15.5119 14.5641 15.6219 14.2392 15.152 14.0642C14.6971 13.8993 14.5322 14.1742 14.4922 14.1742C14.4522 14.1742 14.4222 14.2742 14.4222 14.2742C14.4222 14.2742 14.9271 12.1548 13.4525 12.1548C12.5327 12.1548 11.2531 13.1645 10.6233 14.0792C10.2284 14.2942 9.37363 14.759 8.47389 15.2539C8.12899 15.4438 7.77409 15.6388 7.43918 15.8237C7.41419 15.7987 7.3942 15.7737 7.3692 15.7487C5.57971 13.8393 2.27565 12.4897 2.41561 9.92541C2.4656 8.99067 2.79051 6.53637 8.7688 3.55722C13.6674 1.11791 17.5863 1.78772 18.2611 3.2773C19.2308 5.40169 16.1667 9.35557 11.0781 9.92541C9.1387 10.1403 8.11899 9.39056 7.86406 9.11064C7.59914 8.81572 7.55915 8.80073 7.45918 8.85571C7.29422 8.94569 7.39919 9.20561 7.45918 9.36057C7.60913 9.75546 8.23396 10.4553 9.29865 10.8052C10.2334 11.1101 12.5077 11.28 15.257 10.2153C18.3461 9.02566 20.7504 5.7116 20.0456 2.93739C19.3258 0.118196 14.6521 -0.806541 10.2284 0.763013C7.59414 1.69775 4.74495 3.16733 2.69553 5.08178C0.261225 7.36114 -0.128664 9.34557 0.0312907 10.1753C0.601129 13.1195 4.65997 15.039 6.28451 16.4585C6.20453 16.5035 6.12956 16.5435 6.05958 16.5835C5.24481 16.9884 2.15069 18.6079 1.37591 20.3174C0.501157 22.2569 1.52087 23.6465 2.19068 23.8364C4.28008 24.4163 6.41947 23.3716 7.56915 21.6571C8.71882 19.9426 8.57886 17.7032 8.04901 16.6835C8.04401 16.6685 8.03401 16.6585 8.02902 16.6435C8.23896 16.5185 8.45389 16.3936 8.66883 16.2686C9.08372 16.0237 9.4886 15.7987 9.8435 15.6038C9.64356 16.1436 9.4986 16.7935 9.42362 17.7332C9.33364 18.8329 9.78852 20.2575 10.3783 20.8173C10.6383 21.0622 10.9532 21.0672 11.1481 21.0672C11.8379 21.0672 12.1478 20.4974 12.4927 19.8176C12.9176 18.9878 13.2925 18.0231 13.2925 18.0231C13.2925 18.0231 12.8227 20.6324 14.1073 20.6324C14.5772 20.6324 15.047 20.0275 15.257 19.7176V19.7226C15.257 19.7226 15.267 19.7026 15.2919 19.6626C15.3419 19.5877 15.3669 19.5427 15.3669 19.5427V19.5277C15.5569 19.2028 15.9718 18.458 16.5966 17.2283C17.4063 15.6388 18.1811 13.6543 18.1811 13.6543C18.1811 13.6543 18.2511 14.1392 18.491 14.944C18.631 15.4188 18.9259 15.9387 19.1608 16.4436C18.9709 16.7035 18.8559 16.8534 18.8559 16.8534C18.8559 16.8534 18.8559 16.8584 18.8609 16.8634C18.711 17.0634 18.541 17.2783 18.3661 17.4883C17.7263 18.248 16.9665 19.1178 16.8665 19.3677C16.7465 19.6626 16.7765 19.8826 17.0065 20.0525C17.1764 20.1825 17.4763 20.2025 17.7912 20.1775C18.3661 20.1375 18.771 19.9975 18.9659 19.9076C19.2758 19.7976 19.6357 19.6226 19.9756 19.3777C20.6004 18.9178 20.9803 18.258 20.9453 17.3883C20.9253 16.9084 20.7704 16.4286 20.5804 15.9787C20.6354 15.8987 20.6954 15.8137 20.7504 15.7288C21.7401 14.2842 22.5049 12.6996 22.5049 12.6996C22.5049 12.6996 22.5749 13.1845 22.8148 13.9892C22.9348 14.3941 23.1697 14.839 23.3846 15.2739C22.4549 16.0287 21.8801 16.9034 21.6801 17.4783C21.3102 18.543 21.6002 19.0228 22.145 19.1328C22.3899 19.1828 22.7398 19.0678 22.9998 18.9578C23.3247 18.8479 23.7146 18.6729 24.0795 18.403C24.7043 17.9431 25.3091 17.2983 25.2691 16.4236C25.2541 16.0287 25.1441 15.6338 24.9992 15.2539C25.784 14.924 26.8037 14.744 28.1033 14.894C30.8875 15.2189 31.4324 16.9584 31.3274 17.6832C31.2224 18.413 30.6376 18.8129 30.4426 18.9328C30.2477 19.0528 30.1877 19.0978 30.2027 19.1878C30.2277 19.3177 30.3177 19.3127 30.4826 19.2827C30.7126 19.2428 31.9422 18.6929 31.9972 17.3483C32.0772 15.6488 30.4426 13.7793 27.5485 13.7943V13.7943ZM6.08957 21.0272C5.16983 22.032 3.8802 22.4119 3.32535 22.0919C2.73052 21.747 2.96546 20.2675 4.10013 19.1978C4.78994 18.548 5.67968 17.9481 6.26952 17.5782C6.40448 17.4983 6.59942 17.3783 6.83935 17.2333C6.87934 17.2083 6.89934 17.1983 6.89934 17.1983C6.94432 17.1683 6.99431 17.1434 7.0443 17.1134C7.45918 18.6329 7.05929 19.9725 6.08957 21.0272V21.0272ZM12.8077 16.4585C12.4877 17.2433 11.8129 19.2428 11.4031 19.1378C11.0532 19.0478 10.8382 17.5232 11.3331 16.0237C11.583 15.2689 12.1129 14.3691 12.4278 14.0192C12.9326 13.4544 13.4875 13.2745 13.6174 13.4994C13.7924 13.7943 13.0076 15.9687 12.8077 16.4585ZM18.3561 19.1078C18.2211 19.1778 18.0962 19.2228 18.0362 19.1878C17.9912 19.1628 18.0912 19.0678 18.0912 19.0678C18.0912 19.0678 18.786 18.323 19.0609 17.9831C19.2208 17.7832 19.4058 17.5482 19.6057 17.2883C19.6057 17.3133 19.6107 17.3383 19.6107 17.3683C19.6057 18.263 18.746 18.8679 18.3561 19.1078V19.1078ZM22.6349 18.1331C22.5349 18.0631 22.5499 17.8282 22.8848 17.0984C23.0148 16.8134 23.3147 16.3336 23.8345 15.8737C23.8945 16.0637 23.9295 16.2436 23.9295 16.4136C23.9245 17.5382 23.1197 17.9581 22.6349 18.1331Z" fill="#0165E1" /></svg>