<svg width="32" height="30" viewBox="0 0 32 30" fill="none" xmlns="http://www.w3.org/2000/svg">
 <path  d= "M25.0357 6.97139L21.1643 3.67854L26.4071 0.892822L32 4.04997L25.0357 6.97139V6.97139ZM13.7143 4.42854L16.9786 2.41425L19.4571 4.88568L15.5 6.95711L13.7143 4.42854V4.42854ZM9.06429 4.89996L11.3429 3.32139L12.5714 5.34996L9.95 6.95711L9.06429 4.89996ZM7.4 11.2L6.77143 8.71425L8.88571 7.40711L9.82143 9.92854L7.4 11.2V11.2ZM5.88571 5.22139L7.59286 3.92854L8.22857 5.64282L6.32143 6.94996L5.88571 5.22139V5.22139ZM4.21429 10.4571L3.95714 8.42854L5.55 7.32139L5.98571 9.37139L4.21429 10.4571ZM2.02857 11.6428L3.51429 10.7285L3.75 13.1142L2.11429 13.9714L2.02857 11.6428V11.6428ZM0.1 14.85L1.47143 14.1214L1.5 16.85L0 17.4785L0.1 14.85ZM4.32143 19.0857L2.3 19.6785L2.18571 16.3357L3.97857 15.5714L4.32143 19.0857ZM7.07143 14.5071L4.85 15.4357L4.47857 12.5214L6.43571 11.4928L7.07143 14.5071ZM8.8 22.6357L5.82857 23.0571L5.25 18.5214L7.76429 17.75L8.8 22.6357ZM10.8357 12.6428L12.35 16.7214L9.05 17.6928L8.07143 13.8285L10.8357 12.6428V12.6428ZM16.9571 29.1071L11.8929 28.8714L10.1571 22.0285L14.1 21.4142L16.9571 29.1071V29.1071ZM10.8929 9.12854L13.9071 7.52854L15.9071 10.8071L12.2786 12.3285L10.8929 9.12854ZM13.8214 15.9071L18.2 14.5714L21.9714 20.7571L16.2714 21.5642L13.8214 15.9071V15.9071ZM17.4929 9.79282L22.3 7.73568L26.9786 12.4071L20.65 14.2785L17.4929 9.79282V9.79282Z" fill="#0165E1" /></svg>