<svg width="28" height="32" viewBox="0 0 28 32" fill="none" xmlns="http://www.w3.org/2000/svg">
 <path  d= "M3.85476 15.7777C2.76471 14.4913 2.18245 12.6701 2.17568 10.3681C2.17568 3.57056 7.26708 0.0025105 13.4959 0.0025105C20.1716 -0.105817 24.1121 3.32005 25.9739 4.78247L22.5548 9.66399L20.0294 7.99845L21.8507 5.38505C19.3795 3.76013 16.4749 2.91382 13.523 2.96121C10.0904 2.90705 5.96038 4.80279 5.96038 8.12032C5.96038 9.3864 6.71867 9.52181 7.89674 9.17652C9.47426 8.81768 10.7336 9.21714 11.6747 10.1244C13.4621 11.7696 13.2454 14.7012 11.6273 16.3465C9.6503 18.3438 5.85882 18.1948 3.85476 15.7777V15.7777ZM25.3646 16.1772C24.3152 14.9043 22.7309 14.1867 21.0856 14.2408C18.5061 14.1054 16.2718 16.1366 16.3125 18.7906C16.2651 19.928 16.7187 21.0249 17.5582 21.7899C18.5129 22.731 19.7925 23.1237 21.37 22.7649C22.5481 22.4196 23.3064 22.555 23.3064 23.8211C23.3064 24.1122 23.2725 24.3966 23.2116 24.6809C22.0809 27.4501 19.1831 29.0411 14.9922 29.0411C11.4783 29.0547 8.05923 27.9308 5.23594 25.8387L7.51759 23.1711L5.1073 21.316L0.990845 26.1772L2.0335 27.1115C5.588 30.2801 10.1852 32.0201 14.9448 31.9998C18.4248 31.9998 21.3362 31.2889 23.9902 29.014C27.8561 25.534 27.6598 18.9125 25.3646 16.1772V16.1772Z" fill="#0165E1" /></svg>