<svg width="32" height="32" viewBox="0 0 32 32" fill="none" xmlns="http://www.w3.org/2000/svg">
 <path  d= "M15.3462 6.82796L10.6714 8.78972V0.768767L6.86616 14.0072L10.6714 12.3237V21.3881L15.3462 6.82796V6.82796ZM9.55836 0.100934L9.46792 0.427894L8.41052 4.10793C5.60701 5.1862 3.61743 7.90623 3.61743 11.0854C3.61743 14.7237 6.00354 17.7568 9.41923 18.4246V22.1533C4.00004 21.4229 0 16.7133 0 11.0923C0 5.49229 4.16004 0.852246 9.55836 0.100934V0.100934ZM31.2212 31.2108C30.442 31.99 29.6142 32.0665 29.2316 31.9413C28.8559 31.816 27.3464 30.5569 25.0298 28.8525C22.7133 27.1412 22.6924 26.369 22.0385 24.9081C21.3846 23.4542 19.9237 21.9446 18.0384 21.2629L17.3637 20.2403C15.6454 21.4159 13.6767 22.1116 11.7079 22.2368L11.854 21.7777L12.9601 18.3342C16.1949 17.5063 18.588 14.5776 18.588 11.0854C18.588 7.29405 15.9167 3.98271 11.9097 3.63488V0.010498C17.6976 0.365284 22.2611 5.19316 22.2611 11.0923C22.2611 13.4298 21.482 15.5933 20.2437 17.3811L21.2593 18.0489C21.9411 19.9342 23.4507 21.3881 24.9046 22.042C26.3585 22.6959 27.1446 22.7168 28.8559 25.0334C30.5673 27.3429 31.8264 28.8525 31.9516 29.2282C32.0768 29.6038 32.0003 30.4317 31.2212 31.2108V31.2108ZM30.5325 29.9656C30.5325 29.6595 30.282 29.4091 29.976 29.4091C29.6699 29.4091 29.4194 29.6595 29.4194 29.9656C29.4194 30.2717 29.6699 30.5221 29.976 30.5221C30.282 30.5221 30.5325 30.2717 30.5325 29.9656Z" fill="#0165E1" /></svg>