<svg width="32" height="32" viewBox="0 0 32 32" fill="none" xmlns="http://www.w3.org/2000/svg">
 <path  d= "M25.2372 0.00354004H6.76278C3.04218 0.00354004 0 3.04572 0 6.75917V25.2336C0 28.9542 3.04218 31.9964 6.76278 31.9964H25.2372C28.9578 31.9964 32 28.9542 32 25.2408V6.75917C32 3.04572 28.9578 0.00354004 25.2372 0.00354004ZM21.6666 22.5985C19.6742 26.0406 15.2466 27.2332 11.7974 25.255C10.162 28.0973 7.87681 25.8692 8.77661 24.3124L9.89779 22.37C10.3191 21.6344 11.2689 21.3773 12.0045 21.8058C13.3327 22.5771 11.9973 21.7987 13.3256 22.5699C15.2966 23.7054 17.8532 23.0198 18.9958 21.0488C20.1312 19.0779 19.4457 16.5213 17.4747 15.3787C16.2035 14.6503 17.4318 15.3501 16.1464 14.6217C14.3896 13.6076 15.9036 10.9154 17.6889 11.9437C19.0172 12.715 17.6818 11.9366 19.01 12.7078C22.4664 14.7074 23.659 19.1564 21.6666 22.5985ZM23.2234 7.68754C22.0094 9.79421 22.0594 9.74422 21.8665 9.93704C21.4024 10.4012 20.7025 10.5583 19.9741 10.1941C18.6458 9.42287 19.9813 10.2013 18.653 9.43001C16.682 8.29455 14.1254 8.98011 12.9828 10.9511C11.8402 12.9221 12.5329 15.4787 14.5039 16.6213C14.5039 16.6213 15.825 17.3782 15.8322 17.3782C17.5889 18.3923 16.075 21.0845 14.2897 20.0562C12.9614 19.2849 14.2968 20.0633 12.9685 19.2921C9.52645 17.3068 8.33385 12.8578 10.3191 9.40858C12.3115 5.96649 16.7391 4.7739 20.1884 6.75203L20.5311 6.15217C21.5523 4.37399 24.2446 5.91651 23.2234 7.68754V7.68754Z" fill="#0165E1" /></svg>