<svg width="32" height="24" viewBox="0 0 32 24" fill="none" xmlns="http://www.w3.org/2000/svg">
 <path  d= "M27.2032 11.0469C27.3594 10.4219 27.4219 9.78127 27.4219 9.14068C27.4219 4.4219 23.5781 0.578125 18.8594 0.578125C14.9219 0.578125 11.4844 3.28124 10.5469 7.09376C9.76558 6.42191 8.76555 6.04692 7.73437 6.04692C5.37498 6.04692 3.45309 7.96876 3.45309 10.3281C3.45309 10.7031 3.5 11.0938 3.60937 11.4688C1.42187 12.5 1.07853e-09 14.7188 1.07853e-09 17.1407C-5.09896e-05 20.6094 2.82809 23.4219 6.28123 23.4219H25.7188C29.1719 23.4219 32 20.6094 32 17.1407C32.0001 14.2656 30.0157 11.7344 27.2032 11.0469V11.0469ZM9.875 19.4219C9.875 19.8438 9.51562 20.2032 9.09378 20.2032H7.51567C7.09377 20.2032 6.73444 19.8438 6.73444 19.4219V13.7656C6.73444 13.3438 7.09382 12.9844 7.51567 12.9844H9.09378C9.51567 12.9844 9.875 13.3438 9.875 13.7656V19.4219V19.4219ZM14.4375 19.4219C14.4375 19.8438 14.0781 20.2032 13.6562 20.2032H12.0781C11.6562 20.2032 11.2969 19.8438 11.2969 19.4219V12.7188C11.2969 12.2969 11.6563 11.9376 12.0781 11.9376H13.6562C14.0781 11.9376 14.4375 12.297 14.4375 12.7188V19.4219ZM19 19.4219C19 19.8438 18.6407 20.2032 18.2188 20.2032H16.6406C16.2188 20.2032 15.8594 19.8438 15.8594 19.4219V11.125C15.8594 10.7031 16.2188 10.3438 16.6406 10.3438H18.2188C18.6407 10.3438 19 10.7032 19 11.125V19.4219ZM23.4375 19.4219C23.4375 19.8438 23.0782 20.2032 22.6563 20.2032H21.2032C20.7813 20.2032 20.422 19.8438 20.422 19.4219V7.96876C20.422 7.53131 20.7813 7.17188 21.2032 7.17188H22.6563C23.0782 7.17188 23.4375 7.53126 23.4375 7.96876V19.4219Z" fill="#0165E1" /></svg>