<svg width="30" height="32" viewBox="0 0 30 32" fill="none" xmlns="http://www.w3.org/2000/svg">
 <path  d= "M25.8578 13.8173H26.5422V15.9445H25.8578V13.8173ZM25.8578 13.2069H26.5422V11.0797H25.8578V13.2069ZM25.8578 18.682H26.5422V16.5549H25.8578V18.682ZM23.5457 8.34221H21.4185V9.0081H23.5457V8.34221ZM25.8578 21.4196H26.5422V19.2924H25.8578V21.4196V21.4196ZM20.5491 8.34221H18.422V9.0081H20.5491V8.34221ZM17.5526 8.34221H15.4439V9.0081H17.5526V8.34221ZM14.5561 8.34221H12.4474V9.0081H14.5561V8.34221ZM25.8578 10.4694H26.5422V8.34221H24.415V9.0081H25.8578V10.4694ZM9.63581 26.8948L11.578 27.7457L11.8555 27.1168L9.91327 26.2659L9.63581 26.8948ZM12.1514 27.9861L14.0752 28.8555L14.3526 28.2266L12.4289 27.3757L12.1514 27.9861V27.9861ZM25.8578 24.1572H26.5422V22.03H25.8578V24.1572V24.1572ZM4.62315 24.6752L6.56534 25.526L6.8428 24.9156L4.9006 24.0462L4.62315 24.6752V24.6752ZM7.13871 25.7849L9.0809 26.6358L9.35836 26.0069L7.41616 25.1561L7.13871 25.7849ZM15.5364 28.2266L15.8139 28.8555L17.7561 27.9861L17.4787 27.3757L15.5364 28.2266V28.2266ZM23.0462 24.9156L23.3237 25.526L25.2658 24.6752L24.9884 24.0462L23.0462 24.9156V24.9156ZM20.5491 26.0069L20.8266 26.6358L22.7688 25.7849L22.4914 25.1561L20.5491 26.0069ZM18.0335 27.1168L18.311 27.7457L20.2532 26.8948L19.9757 26.2659L18.0335 27.1168ZM20.5491 2.71907H18.422V3.38497H20.5491V2.71907ZM26.5237 2.71907H24.415V3.38497H26.5237V2.71907ZM14.5561 2.71907H12.4474V3.38497H14.5561V2.71907ZM23.5457 2.71907H21.4185V3.38497H23.5457V2.71907ZM17.5526 2.71907H15.4439V3.38497H17.5526V2.71907ZM29.2058 -3.50788e-09V25.7479L14.852 32L0.79425 25.7479V-3.50788e-09H29.2058V-3.50788e-09ZM27.3561 7.41731H2.64392V24.5457L14.8705 29.9838L27.356 24.5457V7.41731H27.3561ZM27.3561 1.84973H2.64392V5.56764H27.356V1.84973H27.3561ZM5.58502 2.71907H3.47629V3.38497H5.58502V2.71907ZM11.5781 2.71907H9.45089V3.38497H11.5781V2.71907ZM8.58148 2.71907H6.45436V3.38497H8.58154V2.71907H8.58148ZM9.06245 17.7202C9.06245 14.5387 11.6705 11.9306 14.8521 11.9306C18.052 11.9306 20.6417 14.5387 20.6417 17.7202C20.6417 20.9202 18.0521 23.5098 14.8521 23.5098C11.6705 23.5098 9.06245 20.9202 9.06245 17.7202ZM16.7202 18.8671C16.7202 19.6995 15.2035 19.7734 14.6486 19.7734C13.8717 19.7734 12.7619 19.6069 12.3735 18.8301H12.318L11.7445 19.9954C12.6879 20.5873 13.5942 20.7722 14.741 20.7722C15.9803 20.7722 17.978 20.4023 17.978 18.793C17.978 15.741 13.0023 17.7572 13.0023 16.3884C13.0023 15.5561 14.3156 15.4451 14.889 15.4451C15.5734 15.4451 16.7387 15.6485 17.1457 16.2774H17.2011L17.7561 15.2046C16.7943 14.8162 16.0174 14.4462 14.9445 14.4462C13.6682 14.4462 11.8 14.8531 11.8 16.4624C11.8 19.274 16.7202 17.2208 16.7202 18.8671V18.8671ZM8.58148 8.34221H6.45436V9.0081H8.58154V8.34221H8.58148ZM4.14224 9.0081H5.58502V8.34221H3.45783V10.4694H4.14224V9.0081ZM4.14224 11.0797H3.45783V13.2069H4.14224V11.0797ZM11.5781 8.34221H9.45089V9.0081H11.5781V8.34221ZM4.14224 13.8173H3.45783V15.9445H4.14224V13.8173ZM4.14224 19.2925H3.45783V21.4197H4.14224V19.2925ZM4.14224 16.5549H3.45783V18.6821H4.14224V16.5549ZM4.14224 22.03H3.45783V24.1572H4.14224V22.03Z" fill="#0165E1" /></svg>