<svg width="33" height="33" viewBox="0 0 33 33" fill="none" xmlns="http://www.w3.org/2000/svg">
 <path  d= "M25.5316 29.8364C22.7606 31.8873 19.4703 32.9712 16.0167 32.9712C7.16447 32.9712 0.0154419 25.8099 0.0154419 16.9712C0.0154419 8.12022 7.17931 0.971191 16.0167 0.971191C19.9716 0.971191 23.7677 2.42603 26.7058 5.06797C26.8748 5.22022 26.7432 5.49635 26.5212 5.46668C25.3812 5.3099 24.1503 5.23055 22.8625 5.23055C14.5167 5.23055 8.51415 8.68022 8.51415 15.2531C8.51415 22.288 14.458 24.6647 19.9225 26.7841C22.0929 27.6254 24.1419 28.4202 25.5329 29.4673C25.6554 29.5602 25.6548 29.7454 25.5316 29.8364V29.8364ZM31.9483 15.4931C31.9432 15.4325 31.9129 15.3751 31.8664 15.3357C28.5271 12.5641 25.8264 11.4338 22.5451 11.4338C17.1174 11.4338 17.3677 14.7996 17.3677 14.8938C17.3677 17.6422 20.7264 18.8944 24.6154 20.3447C26.62 21.0925 28.6922 21.8654 30.5948 22.9209C30.7161 22.9886 30.8696 22.9331 30.9206 22.8035C32.1393 19.6815 32.078 16.9822 31.9483 15.4931V15.4931Z" fill="#0165E1" /></svg>