<svg width="32" height="26" viewBox="0 0 32 26" fill="none" xmlns="http://www.w3.org/2000/svg">
 <path  d= "M30.3034 0.799805H23.5679C22.6465 0.799805 21.8777 1.54961 21.8777 2.47097V4.98725H10.1033V2.47097C10.1033 1.54961 9.34075 0.799805 8.41303 0.799805H1.67752C0.749801 0.799805 1.21198e-08 1.54961 1.21198e-08 2.47097V23.529C1.21198e-08 24.4503 0.749801 25.2001 1.69023 25.2001H30.3098C31.2502 25.2001 32 24.4503 32 23.529V2.47097C31.9873 1.54961 31.2375 0.799805 30.3034 0.799805ZM9.24543 19.3415C6.91978 19.3415 5.02621 17.4543 5.02621 15.1223C5.02621 12.7776 6.91342 10.8904 9.24543 10.8904C11.5902 10.8904 13.4774 12.7776 13.4774 15.1223C13.4774 17.4543 11.5902 19.3415 9.24543 19.3415V19.3415ZM22.7419 19.3415C20.3971 19.3415 18.5099 17.4543 18.5099 15.1096C18.5099 12.7839 20.3971 10.8904 22.7419 10.8904C25.0675 10.8904 26.9611 12.7776 26.9611 15.1096C26.9611 17.4543 25.0675 19.3415 22.7419 19.3415V19.3415Z" fill="#0165E1" /></svg>