<svg width="32" height="32" viewBox="0 0 32 32" fill="none" xmlns="http://www.w3.org/2000/svg">
 <path  d= "M32 29.7821L21.5143 19.1535C22.9429 17.1607 23.7929 14.7107 23.7929 12.0678C23.7929 5.41783 18.4571 0.00354699 11.9 0.00354699C5.33571 -0.00359587 0 5.41069 0 12.0607C0 18.7107 5.33571 24.125 11.8929 24.125C14.7357 24.125 17.3429 23.1107 19.3929 21.4178L29.8214 31.9964L32 29.7821ZM11.8929 21.3393C6.85 21.3393 2.74286 17.175 2.74286 12.0607C2.74286 6.9464 6.85 2.78212 11.8929 2.78212C16.9357 2.78212 21.0429 6.9464 21.0429 12.0607C21.0429 17.175 16.9429 21.3393 11.8929 21.3393V21.3393Z" fill="#0165E1" /></svg>