<svg width="32" height="32" viewBox="0 0 32 32" fill="none" xmlns="http://www.w3.org/2000/svg">
 <path  d= "M0 0L4.97929 8.48214L0.775 7.65929L5.76357 14.1614C5.54714 15.3769 5.54714 16.621 5.76357 17.8364L0.775 24.3386L4.97929 23.5157L0 32L8.48214 27.0207L7.65929 31.225L14.1614 26.2364C15.3771 26.4536 16.6236 26.4536 17.8386 26.2364L24.3407 31.225L23.5179 27.0207L32 32L27.0207 23.5157L31.225 24.3386L26.2364 17.8364C26.4529 16.6214 26.4536 15.3764 26.2364 14.1614L31.225 7.65929L27.0207 8.48214L32 0L23.5179 4.97929L24.3407 0.772143L17.8364 5.76286C17.2293 5.65429 16.615 5.59929 16 5.59929C15.385 5.59929 14.7707 5.655 14.1636 5.76286L7.65929 0.772143L8.48214 4.97929L0 0ZM16 7.12714C18.2714 7.12714 20.5429 7.99286 22.275 9.725C25.7393 13.1893 25.7386 18.8114 22.275 22.275C18.8114 25.7386 13.1893 25.7364 9.725 22.2729C6.26071 18.8086 6.26143 13.1864 9.725 9.72286C11.4564 7.99071 13.7286 7.12714 16 7.12714V7.12714ZM16 9.74571C14.3986 9.74571 12.7979 10.3543 11.5771 11.575C9.13571 14.0164 9.135 17.9807 11.5771 20.4229C14.0193 22.865 17.9807 22.8643 20.4229 20.4229C22.8643 17.9814 22.865 14.0171 20.4229 11.575C19.2021 10.3543 17.6014 9.74571 16 9.74571V9.74571Z" fill="#0165E1" /></svg>