<svg width="32" height="20" viewBox="0 0 32 20" fill="none" xmlns="http://www.w3.org/2000/svg">
 <path  d= "M32 13.6624C32 16.9574 29.375 19.3824 26.125 19.3824C17.83 19.3824 16.295 6.89743 8.14 6.89743C0.795 6.89743 0.785 17.5074 8.42 17.5074C10.545 17.5074 12.965 16.6174 14.685 15.3824C14.965 15.1774 15.53 14.5674 15.825 14.5674C16.12 14.5674 16.37 14.8174 16.37 15.1124C16.37 15.5024 15.715 16.0674 15.435 16.3174C13.39 18.0974 10.42 19.3774 7.7 19.3774C3.53 19.3824 0 16.4274 0 12.1324C0 7.83743 3.375 4.67743 7.64 4.67743C16.905 4.67743 18.765 16.9724 25.735 16.9724C30.73 16.9724 30.475 9.98743 25.905 9.98743C25.03 9.98743 24.155 10.5674 23.56 10.5674C23.14 10.5674 22.765 10.2074 22.765 9.78743C22.765 9.20743 23.03 8.60243 23.03 7.97243C23.03 4.64243 20.485 2.23743 17.185 2.23743C14.53 2.23743 13.185 4.08243 12.745 4.08243C12.435 4.08243 12.185 3.83243 12.185 3.52243C12.185 3.24243 12.39 3.00743 12.575 2.80243C13.84 1.36243 15.81 0.617432 17.715 0.617432C21.685 0.617432 24.67 3.53743 24.67 7.50743C24.67 7.85243 24.655 8.19243 24.61 8.53743C25.205 8.38243 25.815 8.30243 26.405 8.30243C29.44 8.30243 32 10.5674 32 13.6624V13.6624Z" fill="#0165E1" /></svg>