<svg width="32" height="32" viewBox="0 0 32 32" fill="none" xmlns="http://www.w3.org/2000/svg">
 <path  d= "M30.3424 19.1328C30.5496 18.1326 30.6782 17.0681 30.6782 16.0035C30.6782 7.8946 24.1125 1.33601 16.0107 1.33601C14.9462 1.33601 13.8888 1.45747 12.8814 1.6718C11.524 0.621566 9.83789 0 8.00177 0C3.58651 0 0 3.58651 0 8.00177C0 9.83789 0.621566 11.524 1.66465 12.8743C1.45747 13.8745 1.32887 14.939 1.32887 16.0035C1.32887 24.1125 7.8946 30.6711 15.9964 30.6711C17.0609 30.6711 18.1183 30.5496 19.1257 30.3353C20.4831 31.3784 22.1692 31.9999 23.9982 31.9999C28.4134 31.9999 31.9999 28.4134 31.9999 23.9982C32.0071 22.1692 31.3855 20.4831 30.3424 19.1328V19.1328ZM16.4394 25.67C11.7526 25.67 7.8303 23.5838 7.8303 21.0261C7.8303 19.883 8.4733 18.8399 9.93791 18.8399C12.167 18.8399 12.3742 22.0477 16.2322 22.0477C18.0683 22.0477 19.2543 21.2333 19.2543 20.1687C19.2543 18.8327 18.1112 18.6256 16.2536 18.1683C11.7883 17.0681 7.83745 16.5965 7.83745 11.9384C7.83745 7.70885 12.0241 6.14422 15.632 6.14422C19.5686 6.14422 23.5481 7.70885 23.5481 10.1022C23.5481 11.3096 22.7336 12.3742 21.3833 12.3742C19.3614 12.3742 19.2971 9.98078 16.025 9.98078C14.1889 9.98078 13.0243 10.4809 13.0243 11.5883C13.0243 13.0029 14.5104 13.1458 17.9611 13.9459C20.9189 14.6104 24.4411 15.8607 24.4411 19.49C24.4411 23.7124 20.3617 25.67 16.4394 25.67V25.67Z" fill="#0165E1" /></svg>