<svg width="32" height="32" viewBox="0 0 32 32" fill="none" xmlns="http://www.w3.org/2000/svg">
 <path  d= "M31.8698 17.0257C31.4269 15.6686 29.9484 14.9472 28.5841 15.39L25.3413 16.4686L23.1771 10.0401L26.4199 8.96158C27.7841 8.51873 28.4984 7.04733 28.0627 5.68307C27.6198 4.32595 26.1413 3.60453 24.777 4.04738L21.5342 5.12593L20.4128 1.76885C19.97 0.411725 18.4914 -0.309692 17.1272 0.133158C15.7629 0.576008 15.0486 2.04741 15.4843 3.41168L16.6057 6.76876L9.93442 8.9973L8.81301 5.64021C8.37016 4.28309 6.89161 3.56167 5.52735 4.00452C4.16309 4.44737 3.44881 5.91878 3.88452 7.28304L5.00593 10.6401L1.77027 11.7115C0.406006 12.1544 -0.308267 13.6258 0.12744 14.9901C0.484577 16.0258 1.4917 16.7043 2.5274 16.7472C3.01311 16.8186 3.38453 16.6329 6.64876 15.5472L8.81301 21.9757L5.57021 23.0542C4.21309 23.4971 3.49167 24.9756 3.92738 26.3327C4.28451 27.3684 5.29164 28.047 6.32734 28.0898C6.81304 28.1613 7.18447 27.9756 10.4487 26.8899L11.5701 30.2469C11.9915 31.4541 13.3344 32.3183 14.8558 31.8826C16.22 31.4398 16.9343 29.9684 16.4986 28.6041L15.3772 25.247L22.0628 23.0114L23.1842 26.3684C23.6056 27.5756 24.9485 28.4398 26.4699 28.0041C27.8341 27.5613 28.5484 26.0899 28.1127 24.7256L26.9913 21.3685L30.2341 20.29C31.5912 19.8614 32.3126 18.3829 31.8698 17.0257V17.0257ZM13.7201 20.3971L11.5558 13.9544L18.2343 11.7187L20.3985 18.1614L13.7201 20.3971V20.3971Z" fill="#0165E1" /></svg>