<svg width="32" height="32" viewBox="0 0 32 32" fill="none" xmlns="http://www.w3.org/2000/svg">
 <path  d= "M17.443 13.2498L18.8217 17.3716L14.5499 18.8002L13.1712 14.6785L17.443 13.2498ZM20.4004 30.6584C9.39942 33.9587 4.64186 31.4014 1.34157 20.4004C-1.95872 9.39942 0.598645 4.64186 11.5996 1.34157C22.6006 -1.95872 27.3581 0.598645 30.6584 11.5996C33.9587 22.6006 31.4014 27.3581 20.4004 30.6584V30.6584ZM26.158 16.6429C25.8794 15.7714 24.9294 15.3142 24.0579 15.5928L21.9862 16.2857L20.6075 12.1639L22.6792 11.471C23.5507 11.1924 24.0078 10.2424 23.7293 9.37085C23.4507 8.49934 22.5006 8.04216 21.6291 8.32075L19.5575 9.01367L18.8431 6.86348C18.5645 5.99198 17.6144 5.53479 16.7429 5.81339C15.8714 6.09199 15.4142 7.04207 15.6928 7.91358L16.4072 10.0638L12.1354 11.4996L11.421 9.34941C11.1424 8.47791 10.1923 8.02073 9.32084 8.29932C8.44934 8.57792 7.99215 9.528 8.27075 10.3995L8.9851 12.5497L6.91349 13.2426C6.04198 13.5212 5.5848 14.4713 5.86339 15.3428C6.09199 16.0071 6.7349 16.4429 7.39924 16.4715C7.70641 16.5143 7.94929 16.4 10.0352 15.7071L11.4139 19.8289L9.34227 20.5218C8.47077 20.8004 8.01358 21.7505 8.29218 22.622C8.52077 23.2864 9.16369 23.7221 9.82803 23.7507C10.1352 23.7935 10.3781 23.6792 12.464 22.9863L13.1783 25.1365C13.4426 25.908 14.307 26.4652 15.2785 26.1866C16.15 25.908 16.6072 24.9579 16.3286 24.0864L15.6143 21.9362L19.8861 20.5004L20.6004 22.6506C20.8647 23.4221 21.7291 23.9793 22.7006 23.7007C23.5721 23.4221 24.0293 22.472 23.7507 21.6005L23.0363 19.4503L25.1079 18.7574C25.9795 18.4574 26.4366 17.5073 26.158 16.6429Z" fill="#0165E1" /></svg>