<svg width="32" height="32" viewBox="0 0 32 32" fill="none" xmlns="http://www.w3.org/2000/svg">
 <path  d= "M15.5893 13.2148C15.5893 15.197 13.8571 16.8221 11.732 16.8221C9.6069 16.8221 7.87472 15.197 7.87472 13.2148C7.87472 11.2147 9.6069 9.6075 11.732 9.6075C13.857 9.6075 15.5893 11.2147 15.5893 13.2148V13.2148ZM31.4827 16.3399C30.3398 17.7507 28.1612 19.4829 24.8396 20.8401C28.3576 32.8227 16.25 34.7335 16.4464 28.5904C16.4464 28.6975 16.4285 25.2867 16.4285 22.7509C16.1607 22.6973 15.8928 22.6259 15.5714 22.5544C15.5714 25.1081 15.5535 28.6975 15.5535 28.5904C15.75 34.7335 3.64234 32.8227 7.16034 20.8401C3.83878 19.4829 1.66015 17.7507 0.517213 16.3399C-0.0542244 15.4828 0.570838 14.5719 1.51728 15.2327C1.64228 15.3219 1.78509 15.4113 1.91009 15.5005V3.10725C1.91015 1.39294 3.1959 0 4.78528 0H27.2326C28.8219 0 30.1077 1.39294 30.1077 3.10725V15.5006L30.4827 15.2328C31.4292 14.5719 32.0542 15.4828 31.4827 16.3399ZM28.5719 4.518C28.5719 2.46438 27.9112 1.66075 26.0182 1.66075H6.16034C4.17809 1.66075 3.62453 2.33938 3.62453 4.518V16.5363C7.85684 18.7507 11.482 18.3578 13.4642 18.2864C14.3035 18.2685 14.8393 18.4293 15.1607 18.7686C15.2663 18.874 15.7872 19.3589 16.4287 19.84C16.5001 18.8578 17.0537 18.2328 18.5359 18.2864C20.5538 18.3756 24.2683 18.7686 28.572 16.4291V4.518H28.5719ZM20.6966 9.6075C18.5715 9.6075 16.8393 11.2147 16.8393 13.2148C16.8393 15.197 18.5715 16.8221 20.6966 16.8221C22.8395 16.8221 24.5538 15.197 24.5538 13.2148C24.5538 11.2147 22.8395 9.6075 20.6966 9.6075V9.6075Z" fill="#0165E1" /></svg>