<svg width="32" height="32" viewBox="0 0 32 32" fill="none" xmlns="http://www.w3.org/2000/svg">
 <path  d= "M31.9279 24.542C31.6022 25.3018 30.2254 25.8601 27.7179 26.2494C27.5889 26.4235 27.482 27.1673 27.3112 27.7466C27.2096 28.0945 26.9598 28.301 26.5532 28.301L26.5347 28.3006C25.9475 28.3006 25.3345 28.0305 24.1064 28.0305C22.4489 28.0305 21.8775 28.4081 20.5906 29.3172C19.2261 30.2821 17.9174 31.1149 15.9639 31.0296C13.986 31.1755 12.3373 29.9729 11.4095 29.3169C10.1148 28.4017 9.54522 28.0305 7.89441 28.0305C6.71542 28.0305 5.97342 28.3255 5.46617 28.3255C4.96161 28.3255 4.76536 28.0179 4.6898 27.7605C4.52086 27.1862 4.41455 26.4316 4.28211 26.2524C2.98968 26.0518 0.0752555 25.5434 0.00100576 24.243C-0.00799419 24.0796 0.0436535 23.9186 0.146042 23.791C0.248431 23.6633 0.394352 23.5779 0.555816 23.5512C4.90474 22.8353 6.86354 18.3699 6.94498 18.1804C6.9496 18.1694 6.95467 18.1589 6.95979 18.1482C7.19185 17.6771 7.24379 17.2826 7.11373 16.9761C6.7981 16.2326 5.43423 15.9659 4.86042 15.7389C3.37824 15.1535 3.17199 14.4809 3.25968 14.0199C3.41199 13.2176 4.61749 12.724 5.3223 13.0541C5.87973 13.3154 6.37498 13.4476 6.79398 13.4476C7.10785 13.4476 7.30723 13.3724 7.41648 13.312C7.28879 11.066 6.97267 7.85635 7.77191 6.06392C9.88272 1.33156 14.3566 0.963814 15.6767 0.963814C15.7357 0.963814 16.248 0.958252 16.3086 0.958252C19.5678 0.958252 22.6994 2.632 24.2287 6.06092C25.0273 7.85154 24.713 11.0479 24.5847 13.3115C24.6835 13.366 24.857 13.4328 25.1221 13.4451C25.5219 13.4273 25.9855 13.2958 26.5014 13.0541C26.8817 12.8762 27.4018 12.9003 27.7814 13.0577L27.7832 13.0583C28.3755 13.2699 28.7481 13.6968 28.7575 14.1752C28.769 14.7844 28.2249 15.3105 27.1402 15.7388C27.0078 15.791 26.8468 15.8423 26.6755 15.8966C26.0632 16.0908 25.138 16.3844 24.887 16.9761C24.7571 17.2826 24.8085 17.6767 25.0408 18.1478C25.0462 18.1583 25.0512 18.1692 25.0557 18.18C25.137 18.3694 27.0942 22.8337 31.4451 23.5509C31.8468 23.617 32.1428 24.0432 31.9279 24.542V24.542Z" fill="#0165E1" /></svg>