<svg width="32" height="32" viewBox="0 0 32 32" fill="none" xmlns="http://www.w3.org/2000/svg">
 <path  d= "M28.5714 0H3.42857C1.53571 0 0 1.53571 0 3.42857V28.5714C0 30.4643 1.53571 32 3.42857 32H28.5714C30.4643 32 32 30.4643 32 28.5714V3.42857C32 1.53571 30.4643 0 28.5714 0ZM28.1071 22.4929C27.8571 23.0714 26.8143 23.4929 24.9071 23.7929C24.8071 23.9286 24.7286 24.4929 24.6 24.9286C24.5214 25.1929 24.3357 25.35 24.0214 25.35H24.0071C23.5643 25.35 23.0929 25.1429 22.1643 25.1429C20.9071 25.1429 20.4714 25.4286 19.4929 26.1214C18.4571 26.8571 17.4643 27.4857 15.9786 27.4214C14.4786 27.5357 13.2214 26.6214 12.5143 26.1214C11.5286 25.4286 11.1 25.1429 9.84286 25.1429C8.95 25.1429 8.38571 25.3643 8 25.3643C7.61429 25.3643 7.46429 25.1286 7.40714 24.9357C7.27857 24.5 7.2 23.9286 7.1 23.7929C6.11429 23.6429 3.9 23.2571 3.85 22.2643C3.83571 22.0071 4.01429 21.7786 4.27143 21.7357C7.57857 21.1929 9.06429 17.8 9.12857 17.6571C9.12857 17.65 9.13571 17.6429 9.14286 17.6357C9.32143 17.2786 9.35714 16.9786 9.25714 16.7429C9.01429 16.1786 7.97857 15.9786 7.54286 15.8C6.41429 15.3571 6.25714 14.8429 6.32857 14.4929C6.44286 13.8857 7.35714 13.5071 7.89286 13.7571C8.31429 13.9571 8.69286 14.0571 9.01429 14.0571C9.25 14.0571 9.40714 14 9.48571 13.9571C9.38571 12.25 9.15 9.81429 9.75714 8.45C11.3643 4.85714 14.7643 4.57143 15.7643 4.57143C15.8071 4.57143 16.2 4.56429 16.2429 4.56429C18.7214 4.56429 21.1 5.83571 22.2643 8.44286C22.8714 9.80714 22.6357 12.2357 22.5357 13.95C22.6143 13.9929 22.7429 14.0429 22.9429 14.05C23.25 14.0357 23.6 13.9357 23.9929 13.75C24.2786 13.6143 24.6786 13.6357 24.9643 13.75C25.4143 13.9143 25.7 14.2357 25.7071 14.6C25.7143 15.0643 25.3 15.4643 24.4786 15.7857C24.3786 15.8286 24.2571 15.8643 24.1286 15.9071C23.6643 16.0571 22.9571 16.2786 22.7714 16.7286C22.6714 16.9643 22.7143 17.2643 22.8857 17.6214C22.8929 17.6286 22.8929 17.6357 22.9 17.6429C22.9643 17.7857 24.45 21.1786 27.7571 21.7214C28.0429 21.7929 28.2643 22.1143 28.1071 22.4929V22.4929Z" fill="#0165E1" /></svg>