<svg width="32" height="32" viewBox="0 0 32 32" fill="none" xmlns="http://www.w3.org/2000/svg">
 <path  d= "M16 0C7.16129 0 0 7.16129 0 16C0 24.8387 7.16129 32 16 32C24.8387 32 32 24.8387 32 16C32 7.16129 24.8387 0 16 0ZM26.9355 21.8645C26.7097 22.3871 25.7677 22.7677 24.0452 23.0387C23.9548 23.1613 23.8839 23.671 23.7677 24.0645C23.6968 24.3032 23.529 24.4452 23.2452 24.4452H23.2323C22.8323 24.4452 22.4065 24.2581 21.5677 24.2581C20.4323 24.2581 20.0387 24.5161 19.1548 25.1419C18.2194 25.8065 17.3226 26.3742 15.9806 26.3161C14.6258 26.4194 13.4903 25.5935 12.8516 25.1419C11.9613 24.5161 11.5742 24.2581 10.4387 24.2581C9.63226 24.2581 9.12258 24.4581 8.77419 24.4581C8.42581 24.4581 8.29032 24.2452 8.23871 24.071C8.12258 23.6774 8.05161 23.1613 7.96129 23.0387C7.07097 22.9032 5.07097 22.5548 5.02581 21.6581C5.0129 21.4258 5.17419 21.2194 5.40645 21.1806C8.39355 20.6903 9.73548 17.6258 9.79355 17.4968C9.79355 17.4903 9.8 17.4839 9.80645 17.4774C9.96774 17.1548 10 16.8839 9.90968 16.671C9.69032 16.1613 8.75484 15.9806 8.36129 15.8194C7.34194 15.4194 7.2 14.9548 7.26452 14.6387C7.36774 14.0903 8.19355 13.7484 8.67742 13.9742C9.05806 14.1548 9.4 14.2452 9.69032 14.2452C9.90323 14.2452 10.0452 14.1935 10.1161 14.1548C10.0258 12.6129 9.8129 10.4129 10.3613 9.18065C11.8129 5.93548 14.8839 5.67742 15.7871 5.67742C15.8258 5.67742 16.1806 5.67097 16.2194 5.67097C18.4581 5.67097 20.6065 6.81935 21.6581 9.17419C22.2065 10.4065 21.9935 12.6 21.9032 14.1484C21.9742 14.1871 22.0903 14.2323 22.271 14.2387C22.5484 14.2258 22.8645 14.1355 23.2194 13.9677C23.4774 13.8452 23.8387 13.8645 24.0968 13.9677C24.5032 14.1161 24.7613 14.4065 24.7677 14.7355C24.7742 15.1548 24.4 15.5161 23.6581 15.8065C23.5677 15.8452 23.4581 15.8774 23.3419 15.9161C22.9226 16.0516 22.2839 16.2516 22.1161 16.6581C22.0258 16.871 22.0645 17.1419 22.2194 17.4645C22.2258 17.471 22.2258 17.4774 22.2323 17.4839C22.2903 17.6129 23.6323 20.6774 26.6194 21.1677C26.8774 21.2323 27.0774 21.5226 26.9355 21.8645V21.8645Z" fill="#0165E1" /></svg>