<svg width="32" height="14" viewBox="0 0 32 14" fill="none" xmlns="http://www.w3.org/2000/svg">
 <path  d= "M5.57087 7.01248L5.86091 10.263L5.57087 13.6785C5.55587 13.8035 5.46085 13.8986 5.35083 13.8986C5.24082 13.8986 5.1408 13.8035 5.1408 13.6785L4.86076 10.263L5.1408 7.01248C5.1408 6.90246 5.23582 6.80244 5.35083 6.80244C5.46085 6.80244 5.55587 6.90246 5.57087 7.01248ZM6.64104 4.73212C6.50101 4.73212 6.406 4.84214 6.391 4.98216L6.14096 10.263L6.391 13.6785C6.406 13.8185 6.50101 13.9286 6.64104 13.9286C6.76606 13.9286 6.87607 13.8185 6.87607 13.6785L7.16612 10.263L6.87607 4.98216C6.87607 4.84214 6.76606 4.73212 6.64104 4.73212ZM7.91623 3.52693C7.76121 3.52693 7.65119 3.63695 7.63619 3.79197L7.41616 10.293L7.63619 13.6835C7.65119 13.8385 7.76121 13.9486 7.91623 13.9486C8.05626 13.9486 8.18128 13.8385 8.18128 13.6835L8.44632 10.293L8.18128 3.79197C8.18128 3.63695 8.05626 3.52693 7.91623 3.52693ZM0.360056 8.35769C0.290045 8.35769 0.250039 8.4127 0.235037 8.48271L0 10.263L0.235037 12.0133C0.250039 12.0833 0.290045 12.1383 0.360056 12.1383C0.430067 12.1383 0.470073 12.0833 0.485076 12.0133L0.765119 10.263L0.485076 8.48271C0.470073 8.4127 0.430067 8.35769 0.360056 8.35769V8.35769ZM1.54024 7.26252C1.47023 7.26252 1.41522 7.31752 1.41522 7.38753L1.09517 10.263L1.41522 13.0684C1.41522 13.1534 1.47023 13.2084 1.54024 13.2084C1.61025 13.2084 1.66526 13.1534 1.68026 13.0834L2.04032 10.263L1.68026 7.38753C1.66526 7.31752 1.61025 7.26252 1.54024 7.26252V7.26252ZM2.80544 6.69243C2.72042 6.69243 2.65041 6.76244 2.64041 6.85745L2.35037 10.263L2.64041 13.5535C2.65541 13.6385 2.72542 13.7085 2.80544 13.7085C2.89045 13.7085 2.96046 13.6385 2.96046 13.5535L3.30552 10.263L2.96046 6.85745C2.96046 6.76244 2.89045 6.69243 2.80544 6.69243V6.69243ZM4.07063 6.58241C3.97562 6.58241 3.89061 6.65242 3.89061 6.76244L3.60056 10.263L3.89061 13.6535C3.89061 13.7635 3.97562 13.8335 4.07063 13.8335C4.16565 13.8335 4.25066 13.7635 4.26567 13.6535L4.58571 10.263L4.26567 6.76244C4.25066 6.65242 4.16565 6.58241 4.07063 6.58241ZM16.1425 1.03655C16.0875 0.996539 16.0025 0.966534 15.9325 0.966534C15.8225 0.966534 15.7225 1.00654 15.6524 1.06155C15.5574 1.14656 15.4974 1.27158 15.4874 1.3966V1.43661L15.3224 10.273L15.4074 11.8982L15.4924 13.4835C15.5074 13.7185 15.7024 13.9136 15.9375 13.9136C16.1725 13.9136 16.3676 13.7185 16.3676 13.4835L16.5626 10.273L16.3676 1.3966C16.3475 1.24658 16.2675 1.10656 16.1425 1.03655V1.03655ZM14.8073 1.80166C14.7373 1.76166 14.6673 1.73165 14.5873 1.73165C14.5073 1.73165 14.4322 1.76166 14.3672 1.80166C14.2572 1.87168 14.1872 1.9967 14.1872 2.13672L14.1722 2.22173L14.0322 10.263C14.0322 10.263 14.0322 10.278 14.1872 13.5435V13.5585C14.1872 13.6435 14.2172 13.7235 14.2722 13.7935C14.3572 13.8885 14.4673 13.9486 14.5923 13.9486C14.7023 13.9486 14.8023 13.8935 14.8723 13.8235C14.9573 13.7535 14.9973 13.6585 14.9973 13.5435L15.0123 13.2084L15.1674 10.278L15.0023 2.13672C14.9873 1.9967 14.9173 1.87168 14.8073 1.80166V1.80166ZM9.23644 2.92684C9.08142 2.92684 8.94639 3.06686 8.94639 3.23189L8.72636 10.263L8.94639 13.6235C8.9614 13.7885 9.08642 13.9136 9.23644 13.9136C9.40147 13.9136 9.52649 13.7885 9.54149 13.6235L9.79153 10.263L9.54149 3.23189C9.53149 3.06686 9.40647 2.92684 9.23644 2.92684ZM28.0744 6.06733C27.5343 6.06733 27.0192 6.17735 26.5441 6.37238C26.2241 2.83183 23.2536 0.0513915 19.6281 0.0513915C18.7379 0.0513915 17.8778 0.216417 17.1127 0.521465C16.8076 0.631482 16.7226 0.741499 16.7226 0.981536V13.4685C16.7226 13.7185 16.9176 13.8986 17.1527 13.9286H28.0694C30.2347 13.9286 32 12.1783 32 10.0129C32.005 7.8326 30.2397 6.06733 28.0744 6.06733V6.06733ZM13.2371 3.05186C13.027 3.05186 12.862 3.21688 12.847 3.44192L12.682 10.278L12.847 13.5585C12.862 13.7685 13.027 13.9336 13.2371 13.9336C13.4471 13.9336 13.6121 13.7685 13.6121 13.5585L13.8072 10.278L13.6121 3.44192C13.5971 3.21688 13.4471 3.05186 13.2371 3.05186ZM10.5566 2.6618C10.3916 2.6618 10.2366 2.81682 10.2366 2.99685L10.0416 10.263L10.2366 13.6085C10.2516 13.7885 10.3916 13.9286 10.5566 13.9286C10.7367 13.9286 10.8767 13.7885 10.8917 13.6085L11.1117 10.263L10.8917 2.99685C10.8767 2.81682 10.7367 2.6618 10.5566 2.6618V2.6618ZM11.8919 2.83183C11.6968 2.83183 11.5468 2.98685 11.5468 3.17688L11.3518 10.263L11.5468 13.5835C11.5618 13.7785 11.7018 13.9286 11.8919 13.9286C12.0819 13.9286 12.2369 13.7735 12.2369 13.5835L12.4469 10.263L12.2369 3.17688C12.2369 2.98185 12.0869 2.83183 11.8919 2.83183V2.83183Z" fill="#0165E1" /></svg>