<svg width="32" height="32" viewBox="0 0 32 32" fill="none" xmlns="http://www.w3.org/2000/svg">
 <path  d= "M25.1429 0H6.85714C3.08571 0 0 3.08571 0 6.85714V25.1429C0 28.9143 3.08571 32 6.85714 32H25.1429C28.9143 32 32 28.9143 32 25.1429V6.85714C32 3.08571 28.9143 0 25.1429 0ZM15.7857 25.0643C12.9571 25.0643 9.93572 23.7929 9.93572 21.2286V19.2857H12.7857V20.5571C12.7857 21.6357 14.1786 22.3071 15.7786 22.3071C17.5071 22.3071 18.7286 21.5643 18.7286 20.2C18.7286 18.5 16.7857 17.9214 14.8214 17.1571C12.5429 16.2714 10.3143 15.2857 10.3143 12.2214C10.3143 8.79286 13.0714 7.47857 16.0214 7.47857C18.7071 7.47857 21.4143 8.48572 21.4143 10.4714V12.7H18.5643V11.55C18.5643 10.6857 17.2929 10.2286 16.0214 10.2286C14.6286 10.2286 13.4786 10.8071 13.4786 12.1C13.4786 13.6786 15.0857 14.1857 16.8357 14.8786C19.4 15.7643 21.9143 16.8214 21.9143 19.9857C21.9214 23.4571 19 25.0643 15.7857 25.0643V25.0643Z" fill="#0165E1" /></svg>