<svg width="32" height="32" viewBox="0 0 32 32" fill="none" xmlns="http://www.w3.org/2000/svg">
 <path  d= "M16 0C7.16774 0 0 7.16774 0 16C0 24.8323 7.16774 32 16 32C24.8323 32 32 24.8323 32 16C32 7.16774 24.8323 0 16 0ZM22.4968 23.5419C22.2258 23.5419 22.0581 23.4581 21.8065 23.3097C17.7806 20.8839 13.0968 20.7806 8.47097 21.729C8.21935 21.7935 7.89032 21.8968 7.70323 21.8968C7.07742 21.8968 6.68387 21.4 6.68387 20.8774C6.68387 20.2129 7.07742 19.8968 7.56129 19.7935C12.8452 18.6258 18.2452 18.729 22.8516 21.4839C23.2452 21.7355 23.4774 21.9613 23.4774 22.5484C23.4774 23.1355 23.0194 23.5419 22.4968 23.5419V23.5419ZM24.2323 19.3097C23.8968 19.3097 23.671 19.1613 23.4387 19.0387C19.4065 16.6516 13.3935 15.6903 8.04516 17.1419C7.73548 17.2258 7.56774 17.3097 7.27742 17.3097C6.5871 17.3097 6.02581 16.7484 6.02581 16.0581C6.02581 15.3677 6.36129 14.9097 7.02581 14.7226C8.81935 14.2194 10.6516 13.8452 13.3355 13.8452C17.5226 13.8452 21.5677 14.8839 24.7548 16.7806C25.2774 17.0903 25.4839 17.4903 25.4839 18.0516C25.4774 18.7484 24.9355 19.3097 24.2323 19.3097V19.3097ZM26.2323 14.3935C25.8968 14.3935 25.6903 14.3097 25.4 14.1419C20.8065 11.4 12.5935 10.7419 7.27742 12.2258C7.04516 12.2903 6.75484 12.3935 6.44516 12.3935C5.59355 12.3935 4.94194 11.729 4.94194 10.871C4.94194 9.99355 5.48387 9.49677 6.06452 9.32903C8.33548 8.66452 10.8774 8.34839 13.6452 8.34839C18.3548 8.34839 23.2903 9.32903 26.8968 11.4323C27.4 11.7226 27.729 12.1226 27.729 12.8903C27.729 13.7677 27.0194 14.3935 26.2323 14.3935V14.3935Z" fill="#0165E1" /></svg>