<svg width="33" height="26" viewBox="0 0 33 26" fill="none" xmlns="http://www.w3.org/2000/svg">
 <path  d= "M12.3071 18.4298C11.704 19.033 11.704 20.0104 12.3071 20.6136C12.9102 21.2167 13.8877 21.2167 14.4908 20.6136L24.3144 10.79C25.52 9.58435 27.475 9.58435 28.6806 10.79C29.8862 11.9956 29.8862 13.9505 28.6806 15.1561L19.0464 24.7897C20.2507 25.9954 22.2044 25.9966 23.41 24.7922L23.4125 24.7897L30.8656 17.3374C33.2774 14.9255 33.2774 11.0162 30.8656 8.60498C28.4537 6.19315 24.5438 6.19315 22.1332 8.60498L12.3071 18.4298V18.4298ZM27.59 11.8799C26.9869 11.2768 26.0094 11.2768 25.4069 11.8799L15.582 21.7035C14.3777 22.9092 12.424 22.9104 11.2183 21.7067L11.2152 21.7035C10.6127 21.1011 9.63587 21.1004 9.03275 21.7029L9.03213 21.7035C8.42901 22.306 8.42839 23.2835 9.03088 23.8866L9.03213 23.8879C11.4433 26.2985 15.3533 26.2985 17.7645 23.8879L27.5894 14.063C28.1925 13.4599 28.1925 12.4824 27.59 11.8799V11.8799ZM11.2158 17.338L21.0395 7.51438C21.6419 6.91126 21.6419 5.93377 21.0395 5.33066C20.437 4.72817 19.4601 4.72817 18.8576 5.33066L9.03213 15.1543C7.82715 16.3599 5.87217 16.3605 4.66657 15.1549L4.66594 15.1543C3.46034 13.9493 3.45909 11.9956 4.66407 10.7893L4.66594 10.7875L14.3014 1.15197C13.0964 -0.0536383 11.1421 -0.0542631 9.93587 1.15072L9.93462 1.15197L2.48285 8.60498C0.0716347 11.0168 0.0716347 14.9261 2.48285 17.3374C4.89531 19.7492 8.80338 19.7492 11.2158 17.338V17.338ZM5.7578 14.063C6.36029 14.6655 7.33715 14.6655 7.93964 14.063L17.7651 4.2388C18.9701 3.03319 20.9245 3.03257 22.1301 4.23755L22.1313 4.2388C22.7344 4.84191 23.7119 4.84191 24.3144 4.2388C24.9175 3.63568 24.9175 2.6582 24.3144 2.05571C21.9026 -0.356134 17.9939 -0.356134 15.582 2.05571L5.7578 11.8799C5.15469 12.4824 5.15469 13.4599 5.75718 14.063H5.7578V14.063Z" fill="#0165E1" /></svg>