<svg width="28" height="32" viewBox="0 0 28 32" fill="none" xmlns="http://www.w3.org/2000/svg">
 <path  d= "M12.8607 7.93861C13.1162 7.73919 13.5026 7.75165 13.7207 7.96977L24.315 18.3958L24.1467 18.2275L26.9074 20.8013C27.138 21.0194 27.1131 21.3622 26.8638 21.5616L14.5246 31.7757C13.9076 32.2494 13.4465 31.8256 13.4465 31.8256L0.44043 19.6048C0.222312 19.3867 0.253472 19.0439 0.515213 18.8445L3.36944 16.6695C3.63118 16.4701 4.01756 16.4826 4.23568 16.7007L13.702 25.8928C13.9326 26.1109 14.3252 26.1234 14.5869 25.9177L20.3951 21.3061C20.6506 21.1067 20.6755 20.7639 20.4512 20.5458L15.2163 15.4792C14.992 15.2611 14.5994 15.2487 14.3439 15.4481L14.3376 15.4543C14.0821 15.6537 13.6895 15.6413 13.4652 15.4232L9.22122 11.416C9.0031 11.1979 9.02803 10.8552 9.28977 10.6557L12.8607 7.93861V7.93861ZM13.783 23.9734C14.0136 24.1915 14.4124 24.204 14.6742 23.9983L17.8026 21.5803L17.7839 21.5616L18.2638 21.1877C18.5255 20.9883 18.5504 20.6455 18.3198 20.4274L14.7614 17.0372C14.5371 16.8191 14.1382 16.8066 13.8765 17.0061L13.8702 17.0123C13.6085 17.2117 13.2159 17.2055 12.9853 16.9874L7.0899 11.2665C6.86555 11.0483 6.89671 10.7118 7.15845 10.5062L12.9043 6.05034C13.1598 5.85091 13.5462 5.86338 13.7705 6.0815L23.7665 15.9903C23.9971 16.2084 24.3897 16.2208 24.6453 16.0214L27.4995 13.7904C27.755 13.591 27.7737 13.2482 27.5431 13.0301L14.4249 0.154929C14.3314 0.0801463 13.9263 -0.187827 13.4091 0.223481L0.521445 10.3254C0.259704 10.5249 0.222312 10.8676 0.446662 11.0857L3.08277 13.6845" fill="#0165E1" /></svg>