<svg width="32" height="28" viewBox="0 0 32 28" fill="none" xmlns="http://www.w3.org/2000/svg">
 <path  d= "M28.25 8.38937C28.25 10.8037 26.2857 12.7465 23.8929 12.7465C21.4786 12.7465 19.5357 10.7965 19.5357 8.38937C19.5357 5.98223 21.4857 4.03223 23.8929 4.03223C26.2857 4.03223 28.25 5.97508 28.25 8.38937ZM32 8.40366C32 12.9037 28.3571 16.5322 23.8786 16.5322L16.0714 22.2322C15.7857 25.3037 13.1786 27.7179 10.0357 27.7179C7.14286 27.7179 4.7 25.6608 4.10714 22.9322L0 21.2822V13.6179L6.94286 16.4251C8.02143 15.7679 9.24286 15.4751 10.6571 15.6037L15.7286 8.33937C15.7643 3.88937 19.4071 0.282227 23.8714 0.282227C28.3571 0.282227 32 3.92508 32 8.40366ZM14.5 21.6394C14.5 19.1608 12.5143 17.1751 10.0357 17.1751C9.71429 17.1751 9.39286 17.2108 9.07143 17.2822L10.9286 18.0322C12.75 18.7608 13.6429 20.8179 12.9071 22.6394C12.1786 24.4608 10.1071 25.3537 8.28571 24.6037C7.55714 24.3179 6.82143 24.0108 6.09286 23.7322C6.84286 25.1394 8.32143 26.1037 10.0357 26.1037C12.5143 26.1037 14.5 24.1179 14.5 21.6394ZM29.3214 8.40366C29.3214 5.40366 26.8714 2.9608 23.8786 2.9608C20.8571 2.9608 18.4143 5.40366 18.4143 8.40366C18.4143 11.4179 20.8643 13.8465 23.8786 13.8465C26.8714 13.8537 29.3214 11.4251 29.3214 8.40366Z" fill="#0165E1" /></svg>