<svg width="32" height="32" viewBox="0 0 32 32" fill="none" xmlns="http://www.w3.org/2000/svg">
 <path  d= "M32 16C32 24.8387 24.8258 32 15.9742 32C8.63226 32 2.45161 27.0774 0.554839 20.3613L6.69677 22.8968C7.10968 24.9677 8.94839 26.5355 11.1419 26.5355C13.671 26.5355 15.7806 24.4452 15.671 21.7935L21.1226 17.9097C24.4839 17.9935 27.3032 15.271 27.3032 11.8774C27.3032 8.54839 24.5935 5.84516 21.2581 5.84516C17.9226 5.84516 15.2129 8.55484 15.2129 11.8774V11.9548L11.3935 17.4839C10.3935 17.4258 9.4129 17.7032 8.5871 18.2645L0 14.7161C0.658064 6.47742 7.55484 0 15.9742 0C24.8258 0 32 7.16129 32 16ZM10.0452 24.2774L8.07742 23.4645C8.43901 24.2154 9.06336 24.8076 9.83226 25.129C11.5677 25.8516 13.5613 25.0258 14.2839 23.2968C14.6323 22.4581 14.6387 21.5355 14.2903 20.6968C13.9419 19.8581 13.2903 19.2 12.4516 18.8516C11.6194 18.5032 10.729 18.5161 9.94194 18.8129L11.9742 19.6516C13.2516 20.1806 13.8581 21.6452 13.3226 22.9226C12.7871 24.2065 11.3226 24.8065 10.0452 24.2774V24.2774ZM21.2581 15.8968C19.0387 15.8968 17.2323 14.0903 17.2323 11.8774C17.2323 9.66452 19.0387 7.85806 21.2581 7.85806C23.4774 7.85806 25.2839 9.66452 25.2839 11.8774C25.2839 14.0903 23.4839 15.8968 21.2581 15.8968V15.8968ZM21.2645 14.8903C22.9355 14.8903 24.2903 13.5355 24.2903 11.871C24.2903 10.2 22.9355 8.85161 21.2645 8.85161C19.5935 8.85161 18.2387 10.2065 18.2387 11.871C18.2452 13.5355 19.6 14.8903 21.2645 14.8903Z" fill="#0165E1" /></svg>