<svg width="32" height="32" viewBox="0 0 32 32" fill="none" xmlns="http://www.w3.org/2000/svg">
 <path  d= "M13.2286 23.1786C13.7786 21.8571 13.1571 20.3429 11.8286 19.7929L9.72143 18.9214C10.5357 18.6143 11.4571 18.6 12.3214 18.9571C13.1929 19.3214 13.8643 20 14.2286 20.8643C14.5857 21.7357 14.5857 22.6929 14.2214 23.5571C13.4714 25.35 11.4071 26.2 9.60714 25.45C8.77857 25.1071 8.15 24.4786 7.79286 23.7214L9.82857 24.5643C11.1571 25.1214 12.6786 24.5 13.2286 23.1786V23.1786ZM28.5714 0H3.42857C1.53571 0 0 1.53571 0 3.42857V14.9071L8.32857 18.3429C9.18571 17.7571 10.2 17.4786 11.2357 17.5357L15.1929 11.8071V11.7286C15.1929 8.28571 18 5.47857 21.45 5.47857C24.9 5.47857 27.7071 8.28571 27.7071 11.7286C27.7071 15.2429 24.7857 18.0643 21.3071 17.9786L15.6643 22C15.7786 24.75 13.5857 26.9143 10.9714 26.9143C8.7 26.9143 6.79286 25.2929 6.36429 23.15L0 20.5143V28.5714C0 30.4643 1.53571 32 3.42857 32H28.5714C30.4643 32 32 30.4643 32 28.5714V3.42857C32 1.53571 30.4643 0 28.5714 0ZM21.45 15.8929C19.15 15.8929 17.2786 14.0286 17.2786 11.7286C17.2786 9.42857 19.15 7.56429 21.45 7.56429C23.75 7.56429 25.6214 9.43571 25.6214 11.7286C25.6214 14.0214 23.75 15.8929 21.45 15.8929ZM21.4571 14.85C23.1857 14.85 24.5929 13.45 24.5929 11.7214C24.5929 9.99286 23.1929 8.59286 21.4571 8.59286C19.7286 8.59286 18.3214 9.99286 18.3214 11.7214C18.3214 13.45 19.7286 14.85 21.4571 14.85V14.85Z" fill="#0165E1" /></svg>