<svg width="32" height="30" viewBox="0 0 32 30" fill="none" xmlns="http://www.w3.org/2000/svg">
 <path  d= "M19.6126 29.0975C19.2849 29.2586 17.8295 29.2753 17.5851 29.0697C17.3574 28.9031 17.4629 28.4087 17.5018 28.2365C17.624 27.4033 17.3629 27.7977 16.9574 27.5977C16.7852 27.5144 16.7297 27.2922 16.7019 27.0422C16.6741 26.9589 16.6464 26.9033 16.6186 26.8478C16.5241 26.2534 16.9963 24.9814 17.0741 24.437C17.3463 23.1205 17.0352 22.3706 17.1574 21.8318C17.3629 20.9319 17.3851 21.6373 17.3851 20.1708C17.3074 18.7321 17.5685 18.1211 17.4129 18.01C16.5908 18.01 13.8411 18.6044 11.1804 18.1211C8.61957 17.6267 7.88077 16.5102 7.54748 16.4046C6.97533 16.1547 6.25875 16.4324 6.031 16.7935C6.02544 16.799 4.0868 20.7152 3.83127 21.6707C3.48687 22.8094 3.8035 24.3037 4.05902 25.3813C4.05902 25.3869 4.30899 26.1923 4.63117 26.4645C4.74783 26.5478 4.91447 26.6034 5.03112 26.7145C5.18666 26.8645 5.55328 27.5588 5.5755 27.6033C5.71993 27.8532 5.77548 28.0476 5.49218 28.1865C5.2922 28.2976 4.97558 28.3254 4.69228 28.3254C4.54785 28.3532 4.60895 28.5198 4.52008 28.6031C4.35899 28.7587 3.37022 28.942 2.85917 28.742C2.71474 28.6865 2.54254 28.5754 2.51477 28.4643C2.43145 28.2421 2.63142 27.9643 2.45922 27.7699C2.20925 27.6088 1.73153 27.6588 1.51489 27.1033C1.39269 26.8034 1.37047 26.6811 1.37047 24.3592C1.37047 23.8204 1.04273 22.2095 0.914968 21.754C0.831645 21.4485 0.831645 21.1152 0.914968 20.8652C0.931633 20.8152 1.14272 20.6097 1.14272 20.1431C1.08717 20.0597 0.887194 20.1153 0.859419 20.0597C0.281713 15.5825 0.531682 15.6714 0.431695 14.5993C0.348372 13.7105 -0.173786 12.1607 0.0595186 11.0275C0.0872929 10.8942 0.248384 9.86101 1.4038 8.86669C3.1258 7.38354 4.09235 6.73918 10.236 8.22788C10.2971 8.2501 13.9189 9.39996 16.3853 7.72795C17.2463 7.10025 17.9851 7.10025 18.3572 6.83917C18.3628 6.83361 21.7846 3.94508 23.19 3.21184C25.8119 1.57871 27.0728 2.28418 27.3617 2.21196C27.6228 2.15642 28.106 0.778809 28.306 0.778809C28.6115 0.778809 28.3949 1.90089 28.506 2.21752C28.5338 2.32862 28.706 2.49526 28.8504 2.49526C28.9782 2.49526 28.9448 2.45082 29.4225 2.21752C29.8892 1.91756 30.2502 1.23986 30.5668 1.27319C31.2168 1.36207 29.5114 3.58402 29.5114 3.87842C29.5114 3.98952 29.5225 3.92286 29.7669 4.40614C29.9114 4.71165 30.0225 5.15604 30.1113 5.51711C30.5724 7.1669 30.428 6.32812 30.8557 7.56685C31.9778 10.3498 32 10.0777 32 10.5054C32 10.922 31.7723 11.1164 31.6001 11.4219C31.5167 11.5886 31.3445 11.8385 31.2001 11.8663C31.0501 11.9052 31.5889 11.783 30.4557 12.0052C30.0558 12.0607 29.7114 11.7552 29.6281 11.4775C29.5392 11.2164 29.7836 10.9164 28.9726 10.2054C28.4004 9.64993 27.8005 9.57772 27.2006 9.26109C26.6562 8.94446 26.5396 9.31664 26.2007 9.70548C25.2008 10.9775 24.3121 12.3107 23.3122 13.5828C22.6567 14.416 21.9679 15.2715 21.4513 16.2158C21.2347 16.5935 20.9236 17.7767 20.8792 17.8767C20.5348 18.8599 20.5736 19.3098 19.9626 21.6707C19.7904 22.2261 19.646 22.8594 19.4793 23.4704C19.3571 23.8482 19.0683 26.209 19.4516 26.77C19.5682 26.9644 19.9348 27.02 20.0793 27.2144C20.0848 27.22 20.6125 28.2254 20.5959 28.3254C20.5959 28.6642 20.0737 28.6365 19.9682 28.6865C19.7015 28.8475 19.7571 29.0142 19.6126 29.0975" fill="#0165E1" /></svg>