<svg width="32" height="14" viewBox="0 0 32 14" fill="none" xmlns="http://www.w3.org/2000/svg">
 <path  d= "M32 7.28256C32 5.00721 30.8998 3.21193 28.7895 3.21193C26.6792 3.21193 25.394 5.00721 25.394 7.26756C25.394 9.94298 26.9092 11.1782 29.0695 11.1782C30.1297 11.1782 30.9248 10.9381 31.5299 10.6031V8.93282C30.9248 9.23787 30.2297 9.4229 29.3496 9.4229C28.4845 9.4229 27.7243 9.11785 27.6243 8.07769H31.97C31.98 7.96267 32 7.4976 32 7.28256V7.28256ZM27.6043 6.44243C27.6043 5.44228 28.2194 5.02221 28.7745 5.02221C29.3196 5.02221 29.8997 5.44228 29.8997 6.44243H27.6043ZM21.9584 3.21193C21.0883 3.21193 20.5282 3.62199 20.2182 3.90704L20.1031 3.35695H18.1478V13.5986L20.3682 13.1285L20.3732 10.6181C20.6932 10.8531 21.1683 11.1782 21.9434 11.1782C23.5337 11.1782 24.9839 10.018 24.9839 7.19755C24.9889 4.61715 23.5187 3.21193 21.9584 3.21193V3.21193ZM21.4283 9.33789C20.9083 9.33789 20.5982 9.14786 20.3832 8.91782L20.3682 5.6173C20.5982 5.36226 20.9183 5.17724 21.4283 5.17724C22.2385 5.17724 22.7986 6.08738 22.7986 7.24756C22.8036 8.44275 22.2535 9.33789 21.4283 9.33789ZM17.3177 0.401489V2.21177L15.0874 2.68685V0.876563L17.3177 0.401489ZM15.0924 3.36195H17.3227V11.0231H15.0924V3.36195ZM12.702 4.01705C13.2221 3.06191 14.2572 3.25694 14.5573 3.36195V5.40227C14.2722 5.31226 13.3871 5.17724 12.862 5.86734V11.0231H10.6467V3.36195H12.567L12.702 4.01705V4.01705ZM8.25129 3.36195H9.93655V5.25225H8.25129V8.41274C8.25129 9.72295 9.65151 9.31288 9.93655 9.19786V10.8881C9.64151 11.0482 9.10642 11.1832 8.37631 11.1832C7.0611 11.1832 6.07095 10.333 6.07095 9.01783L6.08095 1.89672L8.24629 1.43665L8.25129 3.36195V3.36195ZM2.24035 5.6173C2.24035 6.61746 5.63588 6.14239 5.63588 8.7878C5.63588 10.3881 4.36568 11.1782 2.52039 11.1782C1.75527 11.1782 0.920144 11.0281 0.0950148 10.6731V8.67278C0.840131 9.07784 1.79028 9.38289 2.52539 9.38289C3.02047 9.38289 3.37553 9.24787 3.37553 8.83781C3.37553 7.77764 0 8.1777 0 5.71732C0 4.14707 1.20019 3.20693 3.00047 3.20693C3.73558 3.20693 4.4707 3.32195 5.20581 3.61199V5.70232C4.53071 5.33726 3.67057 5.13223 2.99547 5.13223C2.5304 5.13723 2.24035 5.27225 2.24035 5.6173" fill="#0165E1" /></svg>