<svg width="24" height="32" viewBox="0 0 24 32" fill="none" xmlns="http://www.w3.org/2000/svg">
 <path  d= "M9.69729 9.66061C9.69729 8.26714 10.8596 7.72974 12.7217 7.72974C15.4337 7.72974 18.8767 8.56083 21.5887 10.023V1.63093C18.633 0.449912 15.6836 0 12.7279 0C5.49811 0 0.680298 3.77426 0.680298 10.0855C0.680298 19.9524 14.2277 18.3527 14.2277 22.6081C14.2277 24.2578 12.7967 24.7889 10.8096 24.7889C7.86015 24.7889 4.04839 23.5704 1.05522 21.9457V29.9754C4.36708 31.4001 7.72892 32 10.8033 32C18.2144 32 23.3196 28.8131 23.3196 22.4019C23.3196 11.7665 9.69729 13.6723 9.69729 9.66061" fill="#0165E1" /></svg>