<svg width="30" height="32" viewBox="0 0 30 32" fill="none" xmlns="http://www.w3.org/2000/svg">
 <path  d= "M29.025 11.7312L29.2875 13.4812V15.2312L27.7188 17.9875L25.2313 22.8875L21.725 27.1063L16.7813 29.4688L15.675 31L15.1938 31.75L14.5938 32C14.5938 32 15.675 28.025 15.8063 28.025C15.9375 28.025 17.075 28.0688 17.075 28.0688L21.2438 25.6562L15.4625 27.2875L11.9688 29.5875L10.5438 31.3375L10.1313 31.425L11.4313 26.825L11.8625 26.4813L13.1563 27.2875L18.675 24.4625L22.225 21.2437L23.15 16.9688L15.3125 18.425L16.2625 17.2875L5.42501 13.9563L10.5438 13.3L0.168762 5.61875L7.35001 6.75L1.01876 0L16.825 7.9125L14.8563 5.5375L22.6313 10.1875L13.675 4L14.8438 6.4L11.7438 5.26875L8.90001 0L21.0625 7.625L18.3813 4.1375L25.1313 10.1625L25.8813 9.60625L24.5688 8.58125L24.8313 6.21875L27.1938 5.56875L29.0188 7.1125L29.7375 7.375L29.3 7.7625L29.8313 8.5125L29.0125 8.975L28.3688 10.2375L29.025 11.7312V11.7312Z" fill="#0165E1" /></svg>