<svg width="32" height="32" viewBox="0 0 32 32" fill="none" xmlns="http://www.w3.org/2000/svg">
 <path  d= "M16 0C7.16129 0 0 7.16129 0 16C0 24.8387 7.16129 32 16 32C24.8387 32 32 24.8387 32 16C32 7.16129 24.8387 0 16 0ZM16 11.4516C15.3677 11.4516 14.8516 11.9677 14.8516 12.6V19.4968C14.8516 22.1355 12.6645 24.2645 10.0194 24.2645C7.34839 24.2645 5.1871 22.1032 5.1871 19.4323V16.4323H8.88387V19.3871C8.88387 20.0323 9.4 20.5355 10.0323 20.5355C10.6645 20.5355 11.1806 20.0258 11.1806 19.3871V12.3935C11.1806 9.8129 13.3871 7.74194 16 7.74194C18.6258 7.74194 20.8194 9.82581 20.8194 12.4258V13.9548L18.6194 14.6065L17.1419 13.9161V12.5871C17.1484 11.9677 16.6323 11.4516 16 11.4516ZM26.8129 19.4258C26.8129 22.0968 24.6516 24.2581 21.9806 24.2581C19.3226 24.2581 17.1484 22.1161 17.1484 19.471V16.4516L18.6258 17.1419L20.8258 16.4903V19.529C20.8258 20.1613 21.3419 20.6645 21.9742 20.6645C22.6065 20.6645 23.1226 20.1548 23.1226 19.529V16.4323H26.8194C26.8129 19.3935 26.8129 19.4258 26.8129 19.4258V19.4258Z" fill="#0165E1" /></svg>