<svg width="32" height="26" viewBox="0 0 32 26" fill="none" xmlns="http://www.w3.org/2000/svg">
 <path  d= "M32 13.6332V18.0683C32 22.0198 28.7994 25.2204 24.8479 25.2204C20.9155 25.2204 17.6958 22.0516 17.6958 18.1383V13.6714L19.8783 14.6895L23.1298 13.7223V18.2147C23.1298 19.15 23.8934 19.9009 24.8288 19.9009C25.7642 19.9009 26.5341 19.15 26.5341 18.2147V13.6332H32ZM17.7021 9.92991L19.8847 10.948L23.1362 9.98082V7.71556C23.1362 3.86589 19.8847 0.779785 16.0032 0.779785C12.1344 0.779785 8.87015 3.8468 8.87015 7.66465V17.9983C8.87015 18.9464 8.10658 19.6973 7.17121 19.6973C6.23583 19.6973 5.47226 18.9464 5.47226 17.9983V13.6332H0V18.0683C0 22.0134 3.20064 25.2141 7.15212 25.2141C11.0718 25.2141 14.3042 22.0643 14.3042 18.1638V7.96372C14.3042 7.02834 15.0678 6.26477 16.0032 6.26477C16.9386 6.26477 17.7021 7.02834 17.7021 7.96372V9.92991Z" fill="#0165E1" /></svg>