<svg width="32" height="32" viewBox="0 0 32 32" fill="none" xmlns="http://www.w3.org/2000/svg">
 <path  d= "M32 0C26.05 0.785714 20.0857 1.57143 14.1429 2.35714C7.57143 3.25 2.47857 8.55 2.07143 15.2143C1.83571 19.1786 3.35714 23.0357 6.2 25.8L0 32C5.95 31.2143 11.8929 30.4286 17.8429 29.6429C24.4 28.75 29.5071 23.4429 29.8929 16.8C30.1429 12.8357 28.6071 8.97857 25.7714 6.21429L32 0ZM26.3071 16.5929C26.0071 22.2714 21.0214 26.5357 15.3929 26.2C9.71429 25.8643 5.34286 21.1286 5.65714 15.4143C5.97857 9.75714 10.9643 5.46429 16.5857 5.80714C22.25 6.14286 26.6214 10.8786 26.3071 16.5929V16.5929Z" fill="#0165E1" /></svg>