<svg width="32" height="15" viewBox="0 0 32 15" fill="none" xmlns="http://www.w3.org/2000/svg">
 <path  d= "M32 8.33C32 11.535 26.55 14.135 19.825 14.135C18.585 14.135 17.395 14.045 16.27 13.885C16.655 13.905 17.045 13.915 17.44 13.915C24.165 13.915 29.615 11.07 29.615 7.56C29.615 6.09 28.66 4.74 27.055 3.66C30.055 4.715 32 6.415 32 8.33V8.33ZM2.385 6.6C2.38 3.09 7.825 0.235 14.55 0.22C14.945 0.22 15.33 0.23 15.715 0.245C14.59 0.0850001 13.4 7.62939e-08 12.165 7.62939e-08C5.44 0.0200001 -0.00499656 2.63 3.44077e-06 5.835C0.00500344 7.75 1.955 9.45 4.965 10.5C3.35 9.425 2.39 8.07 2.385 6.6V6.6ZM5.395 8.595C5.395 8.595 5.92 9.255 6.86 9.255C7.755 9.255 8.28 8.68 8.28 8C8.28 6.6 6.27 6.745 6.27 6.015C6.27 5.745 6.535 5.56 6.895 5.56C7.18 5.56 7.46 5.69 7.46 5.89V6.085H8.17V5.69C8.17 5.085 7.4 4.85 6.9 4.85C6.075 4.85 5.475 5.36 5.475 6.055C5.475 7.385 7.485 7.325 7.485 8.05C7.485 8.38 7.195 8.555 6.87 8.555C6.275 8.555 5.835 8.05 5.835 8.05L5.395 8.595V8.595ZM11.435 4.915V7.635C11.435 8.2 11.08 8.525 10.545 8.525C10.01 8.525 9.655 8.2 9.655 7.64V4.915H8.865V7.665C8.865 8.61 9.535 9.26 10.55 9.26C11.555 9.26 12.22 8.61 12.22 7.665V4.915H11.435V4.915ZM13.155 9.185H13.945V7.71H14.72C15.52 7.71 16.08 7.135 16.08 6.305C16.08 5.475 15.52 4.915 14.72 4.915H12.765V5.585H13.155V9.185ZM13.945 7.035V5.58H14.59C15.025 5.58 15.275 5.865 15.275 6.3C15.275 6.745 15.02 7.035 14.575 7.035H13.945V7.035ZM16.795 9.185H17.585V7.71H18.36C19.16 7.71 19.72 7.135 19.72 6.305C19.72 5.475 19.16 4.915 18.36 4.915H16.405V5.585H16.795V9.185ZM17.58 7.035V5.58H18.225C18.66 5.58 18.91 5.865 18.91 6.3C18.91 6.745 18.66 7.035 18.21 7.035H17.58V7.035ZM20.435 8.775C20.435 9.065 20.555 9.185 20.845 9.185H22.725C23.015 9.185 23.135 9.065 23.135 8.775V8.125H22.42V8.385C22.42 8.47 22.37 8.515 22.29 8.515H21.36C21.275 8.515 21.23 8.465 21.23 8.385V5.325C21.23 5.04 21.11 4.915 20.82 4.915H20.05V5.585H20.31C20.395 5.585 20.44 5.635 20.44 5.715V8.775H20.435ZM23.605 8.775C23.605 9.065 23.725 9.185 24.015 9.185H25.95C26.235 9.185 26.36 9.065 26.36 8.775V8.125H25.645V8.385C25.645 8.47 25.595 8.515 25.515 8.515H24.53C24.445 8.515 24.4 8.465 24.4 8.385V7.37H25.785V6.7H24.4V5.58H25.36C25.445 5.58 25.49 5.63 25.49 5.71V5.97H26.2V5.32C26.2 5.035 26.075 4.91 25.79 4.91H23.21V5.58H23.6V8.775H23.605ZM26.55 4.975V5.27H26.63V4.975H26.765V4.915H26.415V4.975H26.55V4.975ZM26.835 4.915V5.27H26.91V4.985L27.025 5.27H27.09L27.205 4.985V5.27H27.28V4.915H27.165L27.06 5.17L26.955 4.915H26.835V4.915Z" fill="#0165E1" /></svg>