<svg width="32" height="32" viewBox="0 0 32 32" fill="none" xmlns="http://www.w3.org/2000/svg">
 <path  d= "M14.3492 2.58131C13.6226 2.44022 11.3792 2.32029 10.6596 2.32029C10.067 2.32029 10.1729 2.46138 10.1729 2.46138C14.6667 5.99577 15.4921 11.0046 15.5062 11.0751C15.6402 12.1757 15.2875 12.6907 14.8924 13.2832C14.7937 13.4102 14.702 13.636 14.9136 13.9111L16.9524 16.6906H16.9312C17.5944 17.6854 18.9136 18.9622 16.5503 19.5055C16.0071 19.6395 15.2311 19.9499 15.7602 20.6201C15.9154 20.8247 16.381 21.2903 15.8871 21.7841C15.358 22.1227 15.6967 22.3414 15.7602 22.5178C15.8871 22.9834 15.5767 23.3079 15.4568 23.4137C15.1605 23.6395 15.1958 23.964 15.2734 24.1263V24.1333C15.4921 25.0575 15.1535 26.0451 14.9983 26.5954L15.0053 26.5883C14.9065 26.8141 16.5573 26.4049 16.5644 26.4049C22.7372 24.7823 27.1887 20.1615 27.1887 14.7153C27.1817 8.62716 21.6367 3.57602 14.3492 2.58131V2.58131ZM31.2381 11.5196C30.328 9.02223 28.8042 7.12452 27.0829 5.49489C21.7355 0.436696 14.6949 0.0910171 11.9859 0.218001C9.38274 0.33793 5.60849 1.02223 4.73372 2.12982C4.4092 2.53899 4.45153 2.56721 3.01238 9.41023C2.5891 9.57954 3.54572e-05 10.7295 3.54572e-05 13.8758C-0.0211285 20.1333 9.43918 20.1757 9.43918 13.8547C9.43918 12.1192 8.52207 10.6025 7.14641 9.76297V1.41024C7.99297 1.1986 15.5908 -0.621504 22.9206 4.04163C25.0229 5.38202 30.2787 9.46667 29.7566 16.9376C29.6508 18.4331 29.3545 19.8159 28.7972 20.9164C24.776 28.9234 16.7549 30.3555 13.7849 30.6448C8.96651 31.1104 5.14289 29.6501 5.03707 29.6571C4.84659 29.6642 4.19051 30.158 4.21167 30.1792C6.79368 31.0328 9.45329 31.8017 12.7478 31.8017C16.1341 31.8017 18.6949 31.2233 21.0723 30.2779C28.3457 27.3785 32 21.9252 32 15.837C32 14.2215 31.6966 12.7894 31.2381 11.5196V11.5196ZM13.8625 13.8899C13.2628 12.7894 13.8977 12.7683 14.2011 12.2392C14.5891 11.5619 14.321 10.6801 14.0811 9.96755C13.4039 7.95697 11.6967 4.00636 8.22578 2.65892V9.71358C8.54324 10.031 12.0424 12.0769 12.3316 17.9534C12.6208 23.7876 8.66316 26.5319 8.68433 26.6518C10.2928 26.9693 13.3404 27.4067 14.0953 26.0451C14.4974 25.3256 13.9894 24.0628 14.0318 24.0628C13.7778 23.061 14.582 22.6942 14.582 22.5249C14.582 22.4261 14.0741 22.3062 14.0741 21.9534C14.0741 21.5372 14.6737 21.516 14.7372 21.1986C14.8007 20.8811 14.5185 20.6483 14.3774 20.0275C14.1305 18.6871 16.3457 18.8988 16.5503 18.3979C16.649 18.1651 16.4515 17.8476 16.3104 17.643" fill="#0165E1" /></svg>