<svg width="22" height="32" viewBox="0 0 22 32" fill="none" xmlns="http://www.w3.org/2000/svg">
 <path  d= "M3.51992 30.9864C3.60744 32.2304 1.79463 32.3742 1.66336 31.1677C0.93824 23.0476 3.60744 16.1965 8.00192 11.5894C7.02676 9.46408 8.57702 6.76988 11.1649 6.76988C13.059 6.76988 14.6093 8.30764 14.6093 10.2142C14.6093 12.9647 11.515 14.6399 9.17712 13.0334C5.07018 17.4904 2.83856 23.6477 3.51992 30.9864V30.9864ZM11.0024 0C3.13236 0 -1.76846 8.3889 1.73212 15.1463C2.27596 16.234 3.93874 15.4276 3.37615 14.3086C0.481914 8.52017 4.68887 1.85656 11.0024 1.85656C15.7157 1.85656 19.5601 5.6947 19.5601 10.4142C19.5601 16.0902 14.1279 20.0346 9.0771 18.7344C7.88315 18.4781 7.47683 20.2596 8.66453 20.5534C15.5844 22.0037 21.4167 16.8028 21.4167 10.408C21.4167 4.66328 16.7534 0 11.0024 0Z" fill="#0165E1" /></svg>