<svg width="32" height="32" viewBox="0 0 32 32" fill="none" xmlns="http://www.w3.org/2000/svg">
 <path  d= "M13 5.51788C13 4.89288 13.3929 4.16075 14.1072 4.16075C14.8036 4.16075 15.2143 4.89288 15.2143 5.51788C15.2143 6.16069 14.8036 6.875 14.1072 6.875C13.3929 6.875 13 6.16069 13 5.51788ZM32 15.5179C32 17.7679 31.2857 21.9108 29.7321 23.625C28.3035 25.1786 24.2679 27.4464 22.1786 28.0357L22.1071 28.0536V30.0893C22.1071 31.1072 21.3214 32 20.2857 32C19.6607 32 19.0714 31.6429 18.7499 31.1071C18.4107 31.6429 17.8214 32 17.1964 32C16.5714 32 15.9821 31.6429 15.6428 31.1071C15.3214 31.6429 14.7321 32 14.1072 32C13.4643 32 12.8929 31.6429 12.5536 31.1071C12.2321 31.6429 11.6429 32 11.0179 32C9.83931 32 9.17856 31.0179 9.17856 29.9464C8.16069 30.7143 6.94638 31.1607 5.64288 31.1607C4.26788 31.1607 2.92856 30.6429 1.875 29.7321C2.51781 29.7142 3.16069 29.5892 3.76781 29.375C2.46425 29.0179 1.30356 28.1964 0.517812 27.1071C1.85344 27.3974 3.40588 27.2117 4.71425 26.4107C3.33925 25.0357 1.17856 22.7321 0.4285 20.9464C0.0714375 20.1071 0 18.9821 0 18.0893C0 14.9822 1.26788 8.08931 5.39288 8.08931C6.05356 8.08931 6.57144 8.39294 6.83931 9.01787C7.06928 8.68136 7.31975 8.35934 7.58931 8.05363C7.71431 7.89288 7.94644 7.71431 8.03575 7.53575C8.53569 6.75006 8.76787 6.21437 9.39287 5.41075C11.4107 2.83925 14.5 1.07144 17.8214 1.07144C18.1964 1.07144 18.5714 1.08925 18.9286 1.14287C19.6071 0.410687 20.5536 0 21.5357 0C22.4464 0 23.3929 0.375 24.0357 1.01787C24.0893 1.0715 24.125 1.16075 24.125 1.23213C24.125 1.46425 23.4822 2.07144 23.3214 2.25C23.5893 2.33931 24.3036 2.67862 24.3036 3C24.3036 3.17856 24.125 3.32144 24.0179 3.44644C25.9822 5.17856 27.1072 7.64288 27.5357 10.1964C27.8036 9.875 28.1786 9.66069 28.6072 9.66069C29.2679 9.66069 29.9108 10.1072 30.3929 10.5358C31.6964 11.6964 32 13.8571 32 15.5179ZM11.75 5.58925C11.75 6.73213 12.5357 7.91069 13.7679 7.91069C15 7.91069 15.7857 6.73213 15.7857 5.58925C15.7857 4.46425 15 3.28569 13.7679 3.28569C12.5357 3.28569 11.75 4.46431 11.75 5.58925ZM14.8571 12.125C14.8571 10.8929 15.0893 9.67856 15.3928 8.48213C12.1404 13.453 14.5471 20.0178 19.6964 20.0178C21.0357 20.0178 22.3571 19.5357 23.4464 18.7678C23.5714 18.3035 23.6786 17.8393 23.6786 17.3571C23.6786 16.4642 23.2857 16.0178 22.3928 16.0178C22.1071 16.0178 21.8214 16.0714 21.5535 16.1249C17.5946 16.9167 14.8571 16.3542 14.8571 12.125V12.125ZM12.2858 28.0536C12.2858 27.3572 11.7321 26.7501 11.0179 26.7501C10.3036 26.7501 9.76787 27.3573 9.76787 28.0536V30.0893C9.76787 30.7857 10.3036 31.4107 11.0179 31.4107C11.7321 31.4107 12.2858 30.8035 12.2858 30.0893V28.0536V28.0536ZM15.3572 28.0536C15.3572 27.3572 14.8214 26.7501 14.1072 26.7501C13.3929 26.7501 12.8393 27.3573 12.8393 28.0536V30.0893C12.8393 30.7857 13.3929 31.4107 14.1072 31.4107C14.8214 31.4107 15.3572 30.7857 15.3572 30.0893V28.0536V28.0536ZM18.4643 28.0536C18.4643 27.3572 17.9107 26.7501 17.1964 26.7501C16.4821 26.7501 15.9286 27.3573 15.9286 28.0536V30.0893C15.9286 30.7857 16.4821 31.4107 17.1964 31.4107C17.9107 31.4107 18.4643 30.8035 18.4643 30.0893V28.0536V28.0536ZM21.5714 28.0536C21.5714 27.3572 21.0179 26.7501 20.3036 26.7501C19.5893 26.7501 19.0357 27.3573 19.0357 28.0536V30.0893C19.0357 30.7857 19.5893 31.4107 20.3036 31.4107C21.0179 31.4107 21.5714 30.7857 21.5714 30.0893V28.0536V28.0536ZM26.3571 17.875C24.4286 21.5714 20.7143 24.2857 16.4464 24.2857C10.4108 24.2857 6.41075 19 6.41075 13.25C6.41075 12.1964 6.53575 11.1607 6.78575 10.1429C5.53575 12.2501 4.92863 14.6786 4.92863 17.1072C4.92863 20.8751 6.48219 24.7144 9.39294 27.1607C9.71438 26.5536 10.3215 26.1429 11.0179 26.1429C11.6429 26.1429 12.2322 26.5 12.5536 27.0357C12.8929 26.5001 13.4643 26.1429 14.1073 26.1429C14.7323 26.1429 15.3215 26.5 15.6429 27.0357C15.9823 26.5001 16.5715 26.1429 17.1966 26.1429C17.8216 26.1429 18.4108 26.5 18.7501 27.0357C19.0716 26.5001 19.6608 26.1429 20.2859 26.1429C20.9644 26.1429 21.5894 26.5536 21.893 27.1429C24.6072 24.875 26.1786 21.3929 26.3571 17.875V17.875ZM27.0179 11.6429C27.0179 8.28575 24.8572 5.03575 21.2321 5.03575C19.3393 5.03575 17.5714 5.98219 16.3036 7.33931C15.0539 11.4883 14.5881 15.875 18.8929 15.875C20.6932 15.875 24.9777 14.0914 24.1607 18.1786C25.9643 16.5536 27.0179 14.0714 27.0179 11.6429V11.6429Z" fill="#0165E1" /></svg>