<svg width="30" height="33" viewBox="0 0 30 33" fill="none" xmlns="http://www.w3.org/2000/svg">
 <path  d= "M13.7192 1.24801C14.3476 0.884143 15.3702 0.878337 16.0025 1.23447L28.1399 8.06996C28.7728 8.42609 29.2857 9.30481 29.2857 10.03V23.8281C29.2857 24.5545 28.7741 25.4339 28.1431 25.7932L15.9999 32.7055C15.3689 33.0649 14.3496 33.059 13.7231 32.692L1.96696 25.8068C1.34051 25.4397 0.832764 24.5532 0.832764 23.8274V10.03C0.832764 9.30352 1.34244 8.41964 1.97019 8.05642L13.7192 1.24801ZM8.8031 13.939C7.79084 13.939 6.77794 13.948 5.76568 13.948V20.3913H6.98052V18.4951H8.8031C11.9605 18.4951 11.9509 13.939 8.8031 13.939ZM17.7038 20.3087L15.7521 18.1087C18.1005 17.6319 17.9625 13.9661 15.0618 13.948C14.0399 13.948 13.0186 13.939 11.9967 13.939V20.3913H13.2115V18.2377H14.3812L16.2586 20.3913H17.7038V20.3087ZM15.0625 15.0803C16.5451 15.0803 16.5399 17.1422 15.0625 17.1422H13.2121V15.0803H15.0625V15.0803ZM8.99343 14.979C10.3386 14.979 10.3341 17.4461 8.99343 17.4461H6.94116V14.9797L8.99343 14.979V14.979ZM21.2289 13.8197C16.8805 13.8197 16.7218 20.539 21.2289 20.539C25.6412 20.5384 25.6373 13.8197 21.2289 13.8197ZM21.2289 14.9242C24.0309 14.9242 24.0741 19.4248 21.2289 19.4248C18.3825 19.4248 18.407 14.9242 21.2289 14.9242V14.9242Z" fill="#0165E1" /></svg>