<svg width="32" height="32" viewBox="0 0 32 32" fill="none" xmlns="http://www.w3.org/2000/svg">
 <path  d= "M13.0613 6.4271V11.6923H2.51226L5.62323 15.6865H13.0252V28.38H17.1935V15.7523H22.5658V11.7077H17.1994V10.471H26.5942V6.4271H13.0613V6.4271ZM13.3748 6.81419H26.1342V10.0839H16.7381V12.0794H22.1045V15.3652H16.7329V27.9929H13.331V15.2994H5.79742L3.22 12.0794H13.3748V6.81419ZM15.9994 1.23055e-08C7.16323 1.23055e-08 0 7.16322 0 16C0 24.8368 7.16323 32 15.9994 32C24.8355 32 32 24.8361 32 16C32 7.16387 24.8361 1.23055e-08 15.9994 1.23055e-08ZM16.0006 0.854194C24.3658 0.854194 31.1464 7.63613 31.1464 16.0013C31.1464 24.3665 24.3658 31.1471 16.0006 31.1471C7.63548 31.1471 0.853548 24.3658 0.853548 16.0006C0.853548 7.63548 7.63548 0.854194 16.0006 0.854194V0.854194ZM16.0006 1.36323C7.91677 1.36323 1.36258 7.91613 1.36258 16C1.36258 24.0839 7.91677 30.6381 16.0006 30.6381C24.0845 30.6381 30.6374 24.0839 30.6374 16C30.6374 7.91613 24.0845 1.36323 16.0006 1.36323V1.36323ZM15.9994 2.22129C23.609 2.22129 29.7774 8.39032 29.7774 15.9994C29.7774 23.6084 23.6084 29.7774 15.9994 29.7774C8.39032 29.7774 2.22129 23.6097 2.22129 16C2.22129 8.39032 8.38968 2.22129 15.9994 2.22129V2.22129ZM11.269 8.98258L12.2794 10.1471L10.8497 9.53742L10.0542 10.8581L10.1929 9.31032L8.69097 8.96194L10.2058 8.61548L10.0729 7.07935L10.871 8.4129L12.291 7.81161L11.269 8.98258V8.98258ZM8.22774 5.98L8.74452 6.78L9.56323 6.40194L8.96194 7.14064L9.57484 7.80193L8.68645 7.45871L8.24645 8.24581L8.29871 7.29484L7.41419 7.12L8.33484 6.87613L8.22774 5.98V5.98ZM24.4065 10.8568L25.18 12.1187L26.5271 11.531L25.5658 12.6568L26.5406 13.7561L25.1729 13.1897L24.4284 14.4568L24.5445 12.9813L23.1097 12.6652L24.549 12.3194L24.4065 10.8568V10.8568ZM17.5 17.2084L18.3942 17.0006L18.3116 16.0865L18.7858 16.8723L19.6297 16.5116L19.029 17.2052L19.6329 17.8961L18.7877 17.5387L18.3174 18.3265L18.3961 17.4123L17.5 17.2084V17.2084ZM9.40774 17.6277L10.9387 17.3781L10.8271 15.7955L11.5374 17.1748L13.0077 16.58L11.9155 17.6819L12.9355 18.8968L11.5503 18.1987L10.7103 19.5445L10.9465 18.011L9.40774 17.6277V17.6277ZM13.5006 6.94V12.2052H3.49419L5.86323 15.1735H13.4568V27.8671H16.6065V15.2394H21.9787V12.2052H16.6065V9.95806H26.0084V6.94H13.5006V6.94ZM14.2013 7.66258H25.2852V9.23419H15.9277V12.8619H21.2781V14.4065H15.9277V27.1432H14.2013V14.4065H6.21355L4.91742 12.8619H14.2013V7.66258V7.66258Z" fill="#0165E1" /></svg>