<svg width="32" height="32" viewBox="0 0 32 32" fill="none" xmlns="http://www.w3.org/2000/svg">
 <path  d= "M28 0H4C1.79286 0 0 1.79286 0 4V28C0 30.2071 1.79286 32 4 32H28C30.2071 32 32 30.2071 32 28V4C32 1.79286 30.2071 0 28 0ZM13.9214 24.2429C13.9214 25.3 13.0643 26.1643 12 26.1643H6.07857C5.02143 26.1643 4.15714 25.3071 4.15714 24.2429V6.07857C4.15714 5.02143 5.01429 4.15714 6.07857 4.15714H12C13.0571 4.15714 13.9214 5.01429 13.9214 6.07857V24.2429ZM27.8429 16.2429C27.8429 17.3 26.9857 18.1643 25.9214 18.1643H20C18.9429 18.1643 18.0786 17.3071 18.0786 16.2429V6.07857C18.0786 5.02143 18.9357 4.15714 20 4.15714H25.9214C26.9786 4.15714 27.8429 5.01429 27.8429 6.07857V16.2429V16.2429Z" fill="#0165E1" /></svg>