<svg width="32" height="20" viewBox="0 0 32 20" fill="none" xmlns="http://www.w3.org/2000/svg">
 <path  d= "M9.24444 11.3623C9.24444 12.0977 8.64833 12.6938 7.913 12.6938C7.17767 12.6938 6.58155 12.0977 6.58155 11.3623C6.58155 10.627 7.17767 10.0309 7.913 10.0309C8.64833 10.0309 9.24444 10.6269 9.24444 11.3623ZM23.9646 10.0314C23.2296 10.0314 22.6337 10.6273 22.6337 11.3623C22.6337 12.0973 23.2295 12.6932 23.9646 12.6932C24.6996 12.6932 25.2954 12.0974 25.2954 11.3623C25.2954 10.6273 24.6996 10.0314 23.9646 10.0314ZM28.9305 17.7809C25.4491 20.5089 20.4152 19.8981 17.6873 16.4165L15.9662 18.9901L14.2616 16.4379C11.5796 19.7929 6.72705 20.4319 3.268 17.8854C-0.290778 15.2656 -1.05194 10.2568 1.56794 6.698C1.23107 5.5577 0.700701 4.48379 0 3.52317L5.01589 3.52039C8.29676 1.47892 12.1007 0.435985 15.9639 0.518728C19.7348 0.451502 23.444 1.48117 26.6407 3.48256L31.9861 3.48667C31.279 4.45464 30.746 5.53842 30.411 6.68939C33.0106 10.1753 32.3534 15.0988 28.9305 17.7809V17.7809ZM14.4092 11.4312C14.4088 7.90028 11.5462 5.03817 8.01522 5.03856C4.48428 5.03895 1.62222 7.90161 1.62256 11.4326C1.62294 14.9635 4.48561 17.8256 8.01655 17.8252C11.5451 17.8211 14.4046 14.9619 14.4092 11.4334V11.4312V11.4312ZM15.9976 10.8504C16.2994 6.77039 19.6371 3.57906 23.7265 3.46028C21.2775 2.40144 18.6316 1.87479 15.9639 1.91517C13.2927 1.88927 10.6439 2.40429 8.177 3.42923C12.3072 3.51712 15.6936 6.73056 15.9976 10.8504ZM29.9813 9.25223C28.7595 5.93923 25.0834 4.24401 21.7704 5.46573C18.4574 6.6875 16.7622 10.3636 17.9839 13.6766V13.6783C19.2083 16.9898 22.8838 18.6834 26.1966 17.4624C29.5085 16.2399 31.2028 12.5645 29.9813 9.25223V9.25223ZM11.868 11.3619V11.3683C11.8648 13.5532 10.091 15.3218 7.90611 15.3187C5.72122 15.3155 3.95261 13.5417 3.95578 11.3568C3.95894 9.17189 5.73278 7.40328 7.91767 7.40645C10.0987 7.41289 11.8644 9.18089 11.868 11.3619ZM10.5062 11.3619V11.3573C10.5034 9.92484 9.33989 8.76589 7.90744 8.76873C6.475 8.77156 5.31605 9.93506 5.31889 11.3674C5.32172 12.7999 6.48522 13.9588 7.91761 13.956C9.34683 13.9497 10.503 12.7911 10.5062 11.3619V11.3619ZM27.9186 11.3619V11.3646C27.9175 13.5495 26.1454 15.3198 23.9604 15.3187C21.7755 15.3175 20.0052 13.5454 20.0064 11.3605C20.0075 9.17561 21.7796 7.40528 23.9646 7.40645C26.1473 7.41012 27.9157 9.17917 27.9186 11.3619ZM26.5573 11.3615C26.5568 9.92906 25.3952 8.76823 23.9627 8.76873C22.5303 8.76923 21.3694 9.93084 21.3699 11.3633C21.3704 12.7957 22.5321 13.9565 23.9645 13.9561C25.3959 13.9535 26.5554 12.7934 26.5573 11.362V11.3615Z" fill="#0165E1" /></svg>