<svg width="32" height="32" viewBox="0 0 32 32" fill="none" xmlns="http://www.w3.org/2000/svg">
 <path  d= "M28.5714 0H3.42857C1.53571 0 0 1.53571 0 3.42857V28.5714C0 30.4643 1.53571 32 3.42857 32H28.5714C30.4643 32 32 30.4643 32 28.5714V3.42857C32 1.53571 30.4643 0 28.5714 0ZM22.6929 26.0143C22.0857 26.6643 20.4643 27.4286 18.3429 27.4286C12.95 27.4286 11.7786 23.4643 11.7786 21.15V14.7214H9.65714C9.41429 14.7214 9.21429 14.5214 9.21429 14.2786V11.2429C9.21429 10.9214 9.41429 10.6357 9.72143 10.5286C12.4929 9.55 13.3571 7.13571 13.4857 5.3C13.5214 4.80714 13.7786 4.57143 14.2 4.57143H17.3643C17.6071 4.57143 17.8071 4.77143 17.8071 5.01429V10.1571H21.5143C21.7571 10.1571 21.9571 10.3571 21.9571 10.6V14.25C21.9571 14.4929 21.7571 14.6929 21.5143 14.6929H17.7929V20.6429C17.7929 22.1714 18.85 23.0357 20.8286 22.2429C21.0429 22.1571 21.2286 22.1 21.4 22.1429C21.5571 22.1786 21.6571 22.2929 21.7286 22.4929L22.7143 25.3643C22.7857 25.5929 22.8571 25.8429 22.6929 26.0143V26.0143Z" fill="#0165E1" /></svg>