<svg width="20" height="32" viewBox="0 0 20 32" fill="none" xmlns="http://www.w3.org/2000/svg">
 <path  d= "M19.363 30.0187C18.513 30.925 16.238 32 13.2755 32C5.72551 32 4.08801 26.45 4.08801 23.2125V14.2125H1.11926C0.775513 14.2125 0.494263 13.9312 0.494263 13.5875V9.3375C0.494263 8.8875 0.775513 8.4875 1.20051 8.3375C5.07551 6.975 6.29426 3.5875 6.46926 1.01875C6.51926 0.33125 6.87551 0 7.47551 0H11.9068C12.2505 0 12.5318 0.28125 12.5318 0.625V7.825H17.7193C18.063 7.825 18.3443 8.1 18.3443 8.44375V13.55C18.3443 13.8938 18.063 14.175 17.7193 14.175H12.5068V22.5C12.5068 24.6375 13.988 25.85 16.7568 24.7375C17.0568 24.6187 17.3193 24.5375 17.5505 24.6C17.7693 24.6563 17.913 24.8125 18.013 25.0938L19.388 29.1125C19.5005 29.425 19.5943 29.775 19.363 30.0187Z" fill="#0165E1" /></svg>