<svg width="32" height="26" viewBox="0 0 32 26" fill="none" xmlns="http://www.w3.org/2000/svg">
 <path  d= "M28.7107 6.48228C28.7311 6.76653 28.7311 7.05084 28.7311 7.33509C28.7311 16.0051 22.1321 25.995 10.0711 25.995C6.35534 25.995 2.90357 24.9188 0 23.0509C0.52794 23.1118 1.0355 23.1321 1.58376 23.1321C4.64971 23.1321 7.47209 22.0966 9.72591 20.3301C6.84265 20.2691 4.42639 18.3808 3.59389 15.7818C4.00002 15.8427 4.40608 15.8833 4.83252 15.8833C5.42133 15.8833 6.01021 15.8021 6.5584 15.66C3.55333 15.0508 1.29944 12.4112 1.29944 9.22341V9.14222C2.17251 9.62954 3.18783 9.9341 4.26389 9.97467C2.49738 8.79697 1.34007 6.78684 1.34007 4.51271C1.34007 3.29445 1.66488 2.1777 2.23345 1.20307C5.4619 5.18277 10.3147 7.78172 15.7563 8.06603C15.6548 7.57872 15.5939 7.07116 15.5939 6.56353C15.5939 2.94926 18.5178 0.005127 22.1523 0.005127C24.0406 0.005127 25.7462 0.797005 26.9442 2.0762C28.4264 1.79195 29.8477 1.24369 31.1066 0.492441C30.6192 2.01532 29.5837 3.29451 28.2234 4.10664C29.5432 3.96458 30.8224 3.59902 32 3.09145C31.1067 4.39089 29.9899 5.54821 28.7107 6.48228V6.48228Z" fill="#0165E1" /></svg>