<svg width="32" height="32" viewBox="0 0 32 32" fill="none" xmlns="http://www.w3.org/2000/svg">
 <path  d= "M24.1536 22.0714C23.6536 22.2357 23.325 22.2357 22.8322 22.2357C18.7464 22.2357 12.7893 8.05714 12.7893 3.31429C12.7893 1.55 13.175 1 13.7822 0.5C8.81787 1.10714 3.11787 2.92857 1.1893 5.24286C0.803585 5.79286 0.525014 6.72857 0.525014 7.89286C0.525014 15.2857 8.15359 32 13.675 32C16.2679 32 20.625 27.75 24.1536 22.0714V22.0714ZM21.5607 0C26.6893 0 31.475 0.828571 31.475 3.75C31.475 9.65 27.725 16.7714 25.8464 16.7714C22.425 16.7714 18.5822 7.33571 18.5822 2.59286C18.5822 0.385715 19.4107 0 21.5607 0" fill="#0165E1" /></svg>