<svg width="33" height="32" viewBox="0 0 33 32" fill="none" xmlns="http://www.w3.org/2000/svg">
 <path  d= "M30.4184 0H3.26124C1.92553 0 0.839813 1.08571 0.839813 2.42143V29.5714C0.839813 30.9143 1.92553 32 3.26124 32H30.4112C31.747 32 32.8327 30.9143 32.8327 29.5786V2.42143C32.8398 1.08571 31.7541 0 30.4184 0ZM17.8112 25.65C12.4827 26.1857 7.72553 22.3 7.18981 16.9714H13.9327V18.4286C13.9327 18.6929 14.147 18.9143 14.4184 18.9143H19.2684C19.5327 18.9143 19.7541 18.7 19.7541 18.4286V13.5786C19.7541 13.3143 19.5398 13.0929 19.2684 13.0929H14.4184C14.1541 13.0929 13.9327 13.3071 13.9327 13.5786V15.0357H7.18981C7.68981 10.0786 11.8612 6.30714 16.8398 6.30714C21.8184 6.30714 25.9898 10.0786 26.4898 15.0357C27.0255 20.3571 23.1398 25.1143 17.8112 25.65V25.65Z" fill="#0165E1" /></svg>