<svg width="28" height="32" viewBox="0 0 28 32" fill="none" xmlns="http://www.w3.org/2000/svg">
 <path  d= "M20.1166 13.4357H27.4666V12.3786H20.1166V13.4357ZM20.1166 10.7857H27.4666V9.9H20.1166V10.7857ZM20.1166 16.0857H27.4666V14.85H20.1166V16.0857ZM8.8523 22.2786H0.645153C0.830867 22.8857 1.05944 23.4786 1.33087 24.05H11.2094C10.288 23.6429 9.48801 23.0357 8.8523 22.2786V22.2786ZM19.2594 21.3929H27.0952C27.2237 20.8714 27.3166 20.3429 27.3737 19.8H19.9166C19.7666 20.3643 19.5452 20.9 19.2594 21.3929ZM16.2952 24.0429H26.2523C26.5166 23.4714 26.6666 22.8857 26.8594 22.2714H18.6452C18.0166 23.0357 17.2094 23.6429 16.2952 24.0429V24.0429ZM27.4666 0H20.1166V0.178571H27.4666V0ZM13.7523 32C16.5737 32 19.1952 31.1571 21.3809 29.7H6.13087C8.30944 31.1571 10.9309 32 13.7523 32ZM20.1166 8.12857H27.4666V7.42857H20.1166V8.12857ZM20.1166 5.47857H27.4666V4.95H20.1166V5.47857ZM20.1166 2.82857H27.4666V2.47857H20.1166V2.82857ZM7.38801 9.9H0.0380096V10.7857H7.38801V9.9V9.9ZM2.80944 26.6929H24.6166C25.0952 26.0857 25.5166 25.4357 25.888 24.75H1.68087C2.0523 25.4357 2.33801 26.0857 2.80944 26.6929ZM7.38801 18.2071V17.3214H0.0380096V18.2071C0.0380096 18.3857 0.0380096 18.5643 0.0451525 18.7357H7.40944C7.39515 18.5643 7.38801 18.3857 7.38801 18.2071ZM20.1166 18.2071C20.1166 18.3857 20.1094 18.5643 20.088 18.7357H27.4523C27.4594 18.5571 27.4666 18.3857 27.4666 18.2071V17.3214H20.1166V18.2071V18.2071ZM5.61658 29.35H21.8809C22.7237 28.7286 23.5023 28.0214 24.1809 27.2286H3.24515C3.93087 28.0143 4.77372 28.7286 5.61658 29.35V29.35ZM7.38801 2.47857H0.0380096V2.82857H7.38801V2.47857V2.47857ZM7.38801 0H0.0380096V0.178571H7.38801V0V0ZM7.38801 12.3786H0.0380096V13.4357H7.38801V12.3786V12.3786ZM7.38801 14.85H0.0380096V16.0857H7.38801V14.85V14.85ZM7.38801 7.42857H0.0380096V8.13571H7.38801V7.42857V7.42857ZM7.38801 4.95H0.0380096V5.47857H7.38801V4.95V4.95ZM7.58801 19.8H0.130867C0.195153 20.3429 0.28801 20.8714 0.409438 21.3929H8.24515C7.95944 20.9 7.73087 20.3643 7.58801 19.8" fill="#0165E1" /></svg>