<svg width="32" height="28" viewBox="0 0 32 28" fill="none" xmlns="http://www.w3.org/2000/svg">
 <path  d= "M20.2388 3.24775C16.0759 11.5995 15.8255 11.2031 15.6534 12.2829L15.3821 13.994C15.283 14.62 15.0378 15.2199 14.6674 15.7363L6.89989 26.5764C6.50342 27.1294 5.8357 27.4215 5.15754 27.3381C3.05524 27.0772 1.09901 25.6583 0.186106 23.7647C-0.111241 23.1491 -0.0486412 22.4188 0.347821 21.8658L8.11536 11.0205C8.48573 10.5041 8.97088 10.0815 9.53427 9.78416L11.0627 8.97559C12.0278 8.46436 11.5688 8.35481 18.1365 1.72972C18.1886 1.47932 18.1886 1.3489 18.3243 1.31239C18.4808 1.27587 18.6686 1.26022 18.6529 1.07242L18.632 0.832459C18.6216 0.733343 18.6999 0.644661 18.799 0.644661C19.0337 0.639444 19.4876 0.70726 20.1344 1.16632C20.7761 1.6306 20.99 2.04271 21.0578 2.26703C21.0891 2.36093 21.0265 2.46004 20.9326 2.48612L20.6978 2.54351C20.5205 2.59046 20.5674 2.77304 20.5778 2.92954C20.5831 3.0756 20.4579 3.11733 20.2388 3.24775V3.24775ZM11.3079 2.54351C11.4853 2.59046 11.4383 2.77304 11.4279 2.92954C11.4175 3.07039 11.5375 3.11212 11.7618 3.24253C12.1739 4.07197 12.5599 4.8336 12.9199 5.53784C12.9564 5.60566 13.0398 5.61609 13.092 5.56393C13.6763 4.93793 14.3753 4.19717 15.2047 3.34165C15.2725 3.26862 15.2778 3.15907 15.2099 3.08604C14.7926 2.65827 14.3492 2.20443 13.8745 1.7245C13.8223 1.47932 13.8223 1.34369 13.6867 1.30717C13.5302 1.26544 13.3424 1.255 13.358 1.06721C13.3737 0.895058 13.4311 0.644661 13.212 0.639444C12.9772 0.634228 12.5234 0.696827 11.8765 1.16111C11.2349 1.62538 11.021 2.0375 10.9532 2.26181C10.8802 2.48091 11.141 2.50177 11.3079 2.54351ZM31.6475 21.8606L23.8852 11.0153C23.1966 10.0502 22.4976 9.7946 20.943 8.97559C20.3587 8.66781 20.2022 8.40698 19.3519 7.46799C19.2998 7.41061 19.2007 7.42104 19.1641 7.49407C16.7488 12.1264 16.7071 11.8134 16.608 12.4394C16.5193 12.9976 16.5402 13.4827 16.6236 13.994C16.7228 14.62 16.9679 15.2199 17.3383 15.7363L25.1059 26.5817C25.5023 27.1346 26.1596 27.4267 26.8326 27.3485C28.9348 27.0929 30.9015 25.6792 31.8249 23.7699C32.1065 23.1491 32.0492 22.4188 31.6475 21.8606V21.8606Z" fill="#0165E1" /></svg>