<svg width="32" height="20" viewBox="0 0 32 20" fill="none" xmlns="http://www.w3.org/2000/svg">
 <path  d= "M32 9.99744C32 10.1521 31.9152 10.3017 31.7755 10.3716L27.3309 13.0403C27.2611 13.0802 27.1913 13.1101 27.1065 13.1101C27.0366 13.1101 26.9518 13.0952 26.882 13.0553C26.7423 12.9705 26.6575 12.8308 26.6575 12.6662V10.8903H14.7504C16.0125 12.8657 16.7707 16.2228 18.2223 16.2228H19.5542V14.886C19.5542 14.6366 19.7487 14.442 19.9981 14.442H24.4427C24.6921 14.442 24.8867 14.6366 24.8867 14.886V19.3306C24.8867 19.58 24.6921 19.7745 24.4427 19.7745H19.9981C19.7487 19.7745 19.5542 19.58 19.5542 19.3306V17.9987H18.2223C14.4611 17.9987 14.1768 10.8903 12.0019 10.8903H6.9986C6.59454 12.4168 5.20779 13.5591 3.55666 13.5591C1.59626 13.5541 0 11.9578 0 9.99744C0 8.03703 1.59626 6.44077 3.55666 6.44077C5.20779 6.44077 6.59953 7.57811 6.9986 9.10952C8.94903 9.10952 9.18846 9.58341 10.7199 6.09658C12.7202 1.652 13.6181 2.00118 16.1521 2.00118C16.5263 0.958623 17.499 0.225342 18.6663 0.225342C20.1378 0.225342 21.335 1.41755 21.335 2.89409C21.335 4.37063 20.1428 5.56283 18.6663 5.56283C17.499 5.56283 16.5263 4.82456 16.1521 3.78699H14.6656C13.214 3.78699 12.4558 7.14911 11.1938 9.1195H26.6625V7.34366C26.6625 7.17904 26.7473 7.03937 26.887 6.95457C27.0267 6.86977 27.2062 6.88473 27.3309 6.96953L31.7755 9.63828C31.9152 9.69315 32 9.8428 32 9.99744Z" fill="#0165E1" /></svg>