<svg width="32" height="32" viewBox="0 0 32 32" fill="none" xmlns="http://www.w3.org/2000/svg">
 <path  d= "M9.8 17.8188L10.1562 18.7188H9.64375C9.5625 18.5187 9.45 18.2375 9.40625 18.125C9.25 17.7312 9.3375 17.6 9.40625 17.5C9.525 17.3312 9.60625 17.225 9.63125 17.175C9.63125 17.3125 9.68125 17.5313 9.8 17.8188V17.8188ZM28.3813 18.9937C28.25 19.8562 28.025 20.6875 27.725 21.475L30.4125 22.9375L27.6125 21.7625C27.2812 22.5875 26.8625 23.3625 26.3687 24.0875L28.5063 25.975L26.2062 24.325C25.6812 25.0625 25.0813 25.7375 24.4125 26.3438L25.9688 28.5125L24.2125 26.525C23.525 27.125 22.7687 27.65 21.9562 28.0938L22.9375 30.4188L21.7313 28.2125C20.9125 28.6375 20.0438 28.9687 19.1313 29.2062L19.55 31.6063L18.8937 29.2687C18 29.4812 17.0687 29.6 16.1125 29.6063L16 32L15.8813 29.6C14.925 29.5938 13.9938 29.475 13.1 29.2687L12.4375 31.6L12.8562 29.2125C11.9437 28.9812 11.0688 28.6438 10.25 28.225L9.05 30.4188L10.025 28.1063C9.2125 27.6688 8.45 27.1438 7.7625 26.5375L6.01875 28.5125L7.5625 26.3625C6.89375 25.7562 6.2875 25.0813 5.7625 24.3438L3.48125 25.9813L5.6 24.1125C5.10625 23.3875 4.6875 22.6062 4.35 21.7812L1.575 22.95L4.2375 21.5C3.9375 20.7063 3.7125 19.8688 3.58125 19.0063L0.39375 19.5688L3.5375 18.6812C3.46875 18.15 3.43125 17.6125 3.43125 17.0625C3.43125 16.7688 3.44375 16.475 3.4625 16.1812L0 16L3.5 15.825C3.58125 15.0062 3.7375 14.2125 3.96875 13.4438L0.4 12.4375L4.08125 13.0875C4.33125 12.3375 4.65 11.6187 5.03125 10.9375L1.5875 9.0625L5.23125 10.6C5.625 9.9375 6.075 9.325 6.58125 8.75L3.4875 6.025L6.85625 8.44375C7.3625 7.90625 7.91875 7.4125 8.51875 6.96875L6.01875 3.49375L8.86875 6.71875C9.4625 6.30625 10.1 5.95 10.7625 5.64375L9.05625 1.5875L11.1687 5.46875C11.825 5.19375 12.5062 4.975 13.2125 4.81875L12.4375 0.4L13.6562 4.725C14.3438 4.59375 15.05 4.525 15.7688 4.5125L16 0L16.225 4.5125C16.9438 4.525 17.65 4.6 18.3375 4.73125L19.5625 0.4L18.7875 4.81875C19.4938 4.98125 20.175 5.2 20.825 5.475L22.9438 1.5875L21.2313 5.65625C21.8938 5.9625 22.525 6.325 23.1187 6.73125L25.9813 3.49375L23.475 6.9875C24.0688 7.43125 24.625 7.925 25.1313 8.4625L28.5187 6.03125L25.4125 8.775C25.9125 9.34375 26.3625 9.95625 26.7563 10.6125L30.425 9.06875L26.9562 10.9563C27.3375 11.6375 27.65 12.35 27.9 13.1L31.6063 12.45L28.0125 13.4625C28.2438 14.225 28.4 15.0188 28.4813 15.8313L32 16L28.5 16.175C28.5188 16.4625 28.5312 16.7562 28.5312 17.0562C28.5312 17.6 28.4937 18.1375 28.4312 18.6688L31.6 19.5625L28.3813 18.9937V18.9937ZM27.0187 17.0562C27.0187 10.9625 22.0813 6.025 15.9875 6.025C9.89375 6.025 4.95625 10.9625 4.95625 17.0562C4.95625 23.15 9.89375 28.0875 15.9875 28.0875C22.0813 28.0875 27.0187 23.15 27.0187 17.0562ZM25.5187 17.0562C25.5187 22.325 21.25 26.5938 15.9812 26.5938C10.7125 26.5938 6.44375 22.325 6.44375 17.0562C6.44375 11.7875 10.7125 7.51875 15.9812 7.51875C21.25 7.51875 25.5187 11.7875 25.5187 17.0562V17.0562ZM12.1875 15.0625C12.1875 15.1937 12.2688 15.3 12.4125 15.3813C12.6188 15.5 12.8 15.6688 12.925 15.8938C13.1 15.5375 13.1938 15.3 13.1938 15.1938C13.1938 15.0563 13.125 14.9188 12.9937 14.7563C12.8625 14.6 12.7938 14.4312 12.7875 14.275C12.3813 14.7 12.1875 14.9562 12.1875 15.0625ZM9.64375 13.875C9.64375 14.0062 9.725 14.1125 9.86875 14.1938C10.0875 14.3125 10.2563 14.4813 10.3813 14.7063C10.5563 14.35 10.65 14.1125 10.65 14.0063C10.65 13.8688 10.5812 13.7313 10.45 13.5688C10.3187 13.4125 10.25 13.2437 10.2437 13.0875C9.8375 13.5125 9.64375 13.7687 9.64375 13.875ZM8.45625 13.875C8.45625 14.0062 8.5375 14.1125 8.68125 14.1938C8.8875 14.3125 9.06875 14.4813 9.19375 14.7063C9.36875 14.35 9.4625 14.1125 9.4625 14.0063C9.4625 13.8688 9.39375 13.7313 9.2625 13.5688C9.13125 13.4125 9.0625 13.2437 9.05625 13.0875C8.65625 13.5125 8.45625 13.7687 8.45625 13.875ZM21.2625 19.3687C20.7375 19.1812 20.7188 18.9437 20.7188 18.3937V11.375C20.2063 12.1562 19.8312 12.5375 19.5938 12.5375C19.9875 13.4375 20.1875 14.0312 20.1875 14.3062V18.325C20.1875 18.4625 20.05 18.7313 19.8937 18.7313H18.7687C18.5937 18.2625 18.1312 17.05 17.8125 16.2125C17.6875 16.3687 17.3625 16.7875 17.1437 17.0688C17.2937 17.1688 17.4 17.2937 17.4688 17.4625C17.6312 17.8812 17.8687 18.4938 17.9625 18.725H17.3875C17.1438 18.075 16.7875 17.1375 16.65 16.7812C16.525 16.9375 16.2 17.3563 15.9812 17.6375C16.1312 17.7375 16.2375 17.8625 16.3062 18.0312C16.3562 18.1562 16.4813 18.4875 16.575 18.7125H16C15.9062 18.4562 15.65 17.8 15.475 17.3375C15.35 17.4937 15.025 17.9125 14.8062 18.1938C14.9625 18.2938 15.075 18.4187 15.1313 18.5875C15.1438 18.625 15.1625 18.675 15.1687 18.6938H14.0625C13.775 17.825 13.35 16.9625 13.35 16.5625C13.35 16.425 13.3687 16.2437 13.4187 16.05C12.8687 16.725 12.5437 17.0437 12.5437 17.6125C12.5437 18.0812 13.1938 19.3813 13.1938 19.6938C13.1938 19.8 13.1625 19.9 13.1062 20C12.5062 19.2063 12.1375 18.7062 11.9312 18.7062H11.1812L10.4812 16.9562C10.2437 16.3562 10.125 15.9562 10.125 15.7812C10.125 15.5438 10.1562 15.3 10.2312 15.0188C10.1687 15.1 10 15.3125 9.8875 15.4625C9.8375 15.3312 9.69375 14.9812 9.6 14.7437C9.46875 14.9 9.13125 15.3125 8.9 15.5938C8.95625 15.7375 9.10625 16.1 9.20625 16.3563C9.05 16.5625 8.6375 17.0937 8.35625 17.4625C8.10625 17.7937 7.99375 18.2938 8.1875 18.825C8.34375 19.2438 8.3125 19.3187 8.08125 19.7062H11.9375C12.2812 19.7062 12.8312 20.5812 12.9062 21.0812C13.7312 20.0812 13.8688 19.8563 13.9563 19.7313H20.6437C20.8875 19.7313 21.0938 19.6125 21.2625 19.3687V19.3687ZM22.5187 17.7062V11.3562C21.9562 12.1375 21.525 12.5188 21.225 12.5188C21.6688 13.4188 21.8937 14.0125 21.8937 14.2875V18.4312C21.8937 19.525 22.4312 19.7062 23.3937 19.7062C23.9 19.7062 24.175 19.6563 24.25 19.5375C23.9812 19.4375 23.775 19.3812 23.6313 19.3312C23.125 19.1312 22.5187 18.8687 22.5187 17.7062Z" fill="#0165E1" /></svg>