<svg width="32" height="32" viewBox="0 0 32 32" fill="none" xmlns="http://www.w3.org/2000/svg">
 <path  d= "M16.0357 8.62146C16.1429 7.36432 16.3857 4.85718 19.5929 4.85718H26.6357C28.1143 4.85718 28.9286 4.30004 28.9286 3.31432V2.43575C28.9286 1.56432 29.5929 0.857178 30.4643 0.857178C31.3357 0.857178 32 1.56432 32 2.43575V5.04289C32 8.10718 30.4643 9.47146 27.2286 9.47146H20.05C17.9 9.47146 17.6929 10.5215 17.6929 11.4072C17.6929 11.5 17.6857 11.5857 17.6786 11.6715C17.6286 12.55 16.9 13.2572 16.0071 13.2572C15.1143 13.2572 14.3857 12.5572 14.3357 11.6715C14.3286 11.5857 14.3214 11.5 14.3214 11.4072C14.3214 10.5286 14.1071 9.47146 11.9643 9.47146H4.77143C1.53571 9.47146 0 8.10718 0 5.04289V2.43575C0 1.56432 0.671429 0.857178 1.54286 0.857178C2.41429 0.857178 3.07857 1.56432 3.07857 2.43575V3.31432C3.07857 4.30004 3.89286 4.85718 5.37143 4.85718H12.4143C15.6143 4.85718 15.8643 7.36432 15.9714 8.62146H16.0357V8.62146ZM16 31.1429C16.8214 31.1429 17.5286 30.6429 17.8357 29.9786C17.9143 29.85 24.7714 17.8643 24.85 17.7357C25.7 16.3357 24.6214 14.5715 22.9071 14.5715C21.9143 14.5715 21.2429 15.0286 20.7786 16.0215L16 24.4286L11.2214 16.0215C10.7643 15.0286 10.0857 14.5715 9.09286 14.5715C7.37857 14.5715 6.3 16.3286 7.15 17.7357C7.22857 17.8715 14.0857 29.85 14.1643 29.9786C14.4714 30.6429 15.1786 31.1429 16 31.1429V31.1429Z" fill="#0165E1" /></svg>