<svg width="32" height="32" viewBox="0 0 32 32" fill="none" xmlns="http://www.w3.org/2000/svg">
 <path  d= "M28.5714 0H3.42857C1.53571 0 0 1.53571 0 3.42857V28.5714C0 30.4643 1.53571 32 3.42857 32H28.5714C30.4643 32 32 30.4643 32 28.5714V3.42857C32 1.53571 30.4643 0 28.5714 0ZM20.05 24.9429C17.0214 28.2429 11.4786 28.2714 8.45 24.9429C3.59286 19.6857 7.03571 10.9357 14.25 10.9357C15.2 10.9357 16.15 11.0857 17.0429 11.4143C16.7357 12.0143 16.5214 12.6714 16.4429 13.35C15.75 13.0571 15 12.9214 14.25 12.9214C10.7643 12.9214 8.20714 15.9 8.20714 19.2714C8.20714 22.3429 10.2429 24.8929 13.1714 25.4071C17.5643 23.6929 18.3786 17.0071 18.3786 12.9071C18.3786 12.3857 18.3786 11.85 18.3357 11.3286C17.5357 8.97857 16.4357 6.71429 15.1786 4.57857C17.1143 5.88571 18.1714 9.04286 18.3357 11.3V11.3286C18.8857 12.9357 19.1786 14.6286 19.1786 16.3286C19.1786 20.1929 17.6143 23.4 14.3 25.4857L14.1286 25.5C17.7 25.5714 20.2857 22.7429 20.2857 19.2714C20.2857 18.4 20.1357 17.5357 19.7929 16.7214C20.4714 16.5857 21.1143 16.3214 21.6786 15.9714C22.7714 18.5857 22.5786 22.2071 20.05 24.9429V24.9429ZM22.0714 14.4071C21.1214 14.4071 20.2786 13.9 19.6143 13.2571C21.1786 12.4 23.1571 11.0643 24.0643 9.47143C24.1714 9.25714 24.3571 8.85714 24.3857 8.61429C23.4929 10.6071 21.2286 12.1714 19.1071 12.6643C18.7714 12.1429 18.5714 11.5571 18.5714 10.9286C18.5714 10.1929 18.9429 9.20714 19.4929 8.67143C21.0357 7.20714 23.2786 8.06429 24.6643 5.1C26.9857 8.4 25.6 14.4071 22.0714 14.4071V14.4071Z" fill="#0165E1" /></svg>