<svg width="28" height="32" viewBox="0 0 28 32" fill="none" xmlns="http://www.w3.org/2000/svg">
 <path  d= "M17.2643 9.40831V9.45207C16.1454 6.16385 14.6013 2.98815 12.8384 0C15.5452 1.8254 17.0268 6.25137 17.2643 9.40831ZM19.3085 17.0162C19.7837 18.154 19.9962 19.3605 19.9962 20.5795C19.9962 25.4368 16.3829 29.3939 11.3818 29.2939L11.6194 29.2752C16.2579 26.3558 18.4521 21.861 18.4521 16.4536C18.4521 14.0718 18.0458 11.7088 17.2706 9.45207C17.3331 10.1835 17.3331 10.9336 17.3331 11.6651C17.3331 17.4038 16.2016 26.7684 10.044 29.1689C5.93687 28.4562 3.08624 24.8805 3.08624 20.5795C3.08624 15.8535 6.67453 11.6838 11.5506 11.6838C12.6008 11.6838 13.6573 11.8776 14.62 12.2839C14.7263 11.34 15.0264 10.4148 15.4577 9.5771C14.2137 9.127 12.8821 8.9082 11.5506 8.9082C1.45463 8.9082 -3.37142 21.1546 3.43007 28.5187C7.67475 33.1823 15.4327 33.1385 19.6711 28.5187C23.2094 24.6867 23.4782 19.6168 21.9466 15.9535C21.1527 16.4536 20.2525 16.8224 19.3085 17.0162V17.0162ZM26.135 0.73141C24.1971 4.88857 21.0527 3.68206 18.896 5.73876C18.1208 6.48892 17.6082 7.86422 17.6082 8.8957C17.6082 9.77714 17.8895 10.5898 18.3583 11.3212C21.3215 10.6336 24.5034 8.4456 25.7475 5.65124C25.7037 5.99506 25.4474 6.55144 25.2974 6.8515C24.0283 9.08324 21.259 10.9524 19.0647 12.1589C19.9899 13.0591 21.1715 13.7718 22.503 13.7718C27.4416 13.7718 29.3858 5.35742 26.135 0.73141V0.73141Z" fill="#0165E1" /></svg>