<svg width="32" height="32" viewBox="0 0 32 32" fill="none" xmlns="http://www.w3.org/2000/svg">
 <path  d= "M27.7501 3.116C26.9565 2.38484 23.7444 0.0538864 16.5828 0.0226403C16.5828 0.0226403 8.14011 -0.483546 4.02813 3.29098C1.74092 5.57819 0.934766 8.93402 0.847277 13.0897C0.759788 17.2455 0.653552 25.032 8.15886 27.1442H8.16511L8.15886 30.3688C8.15886 30.3688 8.10886 31.6749 8.97126 31.9374C10.0086 32.2623 10.621 31.2687 11.6147 30.2001C12.1584 29.6127 12.9083 28.7503 13.4769 28.0941C18.6138 28.5253 22.5571 27.5379 23.007 27.3942C24.0444 27.0567 29.9124 26.3068 30.8623 18.5203C31.8496 10.4838 30.3873 5.40946 27.7501 3.116V3.116ZM28.6188 17.9329C27.8126 24.4321 23.057 24.8445 22.1821 25.1257C21.8071 25.2445 18.3388 26.1069 13.9831 25.8256C13.9831 25.8256 10.7335 29.7439 9.72116 30.7625C9.38995 31.0937 9.0275 31.0625 9.03375 30.4063C9.03375 29.9751 9.05874 25.0507 9.05874 25.0507C9.0525 25.0507 9.0525 25.0507 9.05874 25.0507C2.69704 23.2885 3.072 16.6581 3.14074 13.1897C3.20948 9.72142 3.86565 6.87803 5.8029 4.96577C9.28372 1.80992 16.4516 2.27861 16.4516 2.27861C22.5071 2.3036 25.4067 4.12837 26.0816 4.7408C28.3126 6.65306 29.4499 11.2275 28.6188 17.9329V17.9329ZM19.9324 12.8835C19.9574 13.421 19.1512 13.4585 19.1262 12.921C19.0575 11.5462 18.4138 10.8775 17.089 10.8025C16.5516 10.7713 16.6015 9.96514 17.1327 9.99639C18.8763 10.0901 19.8449 11.09 19.9324 12.8835ZM21.201 13.5897C21.2635 10.94 19.6074 8.86528 16.4641 8.63406C15.9329 8.59656 15.9891 7.79041 16.5203 7.82791C20.1449 8.09038 22.0759 10.5838 22.0071 13.6084C22.0009 14.1459 21.1885 14.1209 21.201 13.5897V13.5897ZM24.1381 14.4271C24.1444 14.9645 23.332 14.9708 23.332 14.4333C23.2945 9.34022 19.9011 6.56557 15.7829 6.53432C15.2517 6.52807 15.2517 5.72817 15.7829 5.72817C20.3886 5.75942 24.0944 8.94027 24.1381 14.4271V14.4271ZM23.4319 20.5576V20.5701C22.757 21.7574 21.4947 23.0697 20.1948 22.651L20.1823 22.6323C18.8638 22.2636 15.7579 20.6638 13.7956 19.1015C12.7833 18.3016 11.8584 17.358 11.146 16.4518C10.5023 15.6457 9.8524 14.6895 9.22122 13.5397C7.89014 11.1337 7.59643 10.0589 7.59643 10.0589C7.17773 8.75904 8.48382 7.4967 9.67742 6.82179H9.68992C10.2648 6.52182 10.8148 6.62181 11.1835 7.06551C11.1835 7.06551 11.9584 7.99039 12.2896 8.44658C12.6021 8.87153 13.0207 9.55269 13.2395 9.9339C13.6207 10.6151 13.3832 11.3087 13.0082 11.5962L12.2583 12.1961C11.8771 12.5023 11.9271 13.071 11.9271 13.071C11.9271 13.071 13.0395 17.2767 17.1952 18.3391C17.1952 18.3391 17.7639 18.3891 18.0701 18.0079L18.67 17.258C18.9575 16.883 19.6512 16.6456 20.3323 17.0268C21.251 17.5454 22.4196 18.3516 23.1945 19.0827C23.6319 19.4389 23.7319 19.9826 23.4319 20.5576Z" fill="#0165E1" /></svg>