<svg width="32" height="28" viewBox="0 0 32 28" fill="none" xmlns="http://www.w3.org/2000/svg">
 <path  d= "M31.9851 6.55667C31.8422 9.67089 29.6709 13.9351 25.4566 19.3493C21.1067 25.0063 17.4282 27.8348 14.414 27.8348C12.5498 27.8348 10.9712 26.1134 9.67838 22.6706C7.16415 13.4422 6.09274 8.03521 4.01421 8.03521C3.77136 8.03521 2.93566 8.54234 1.49997 9.54232L0 7.5995C3.68564 4.36385 7.207 0.76392 9.4141 0.563924C11.9069 0.321071 13.4355 2.02818 14.014 5.67097C16.064 18.635 16.9711 20.5921 20.6996 14.7208C22.0353 12.6065 22.7567 10.9994 22.8567 9.89231C23.1996 6.61381 20.2996 6.83523 18.3354 7.67807C19.9068 2.52817 22.9138 0.0282199 27.3495 0.171074C30.6208 0.256787 32.1708 2.39246 31.9851 6.55667V6.55667Z" fill="#0165E1" /></svg>