<svg width="32" height="32" viewBox="0 0 32 32" fill="none" xmlns="http://www.w3.org/2000/svg">
 <path  d= "M28.8 0H3.2C1.43571 0 0 1.43571 0 3.2V28.8C0 30.5643 1.43571 32 3.2 32H28.8C30.5643 32 32 30.5643 32 28.8V3.2C32 1.43571 30.5643 0 28.8 0ZM26.9286 10.6286C26.8286 12.8786 25.2571 15.9643 22.2143 19.8714C19.0714 23.9571 16.4071 26 14.2357 26C12.8857 26 11.75 24.7571 10.8143 22.2643C8.99286 15.6 8.21429 11.6929 6.71429 11.6929C6.54286 11.6929 5.93571 12.0571 4.9 12.7786L3.81429 11.3786C6.47857 9.03571 9.02143 6.43571 10.6143 6.29286C12.4143 6.12143 13.5214 7.35 13.9357 9.98571C15.4143 19.3571 16.0714 20.7714 18.7643 16.5286C19.7286 15 20.25 13.8357 20.3214 13.0357C20.5714 10.6643 18.4714 10.8286 17.05 11.4357C18.1857 7.71429 20.3571 5.90714 23.5643 6.00714C25.9429 6.07143 27.0643 7.61429 26.9286 10.6286Z" fill="#0165E1" /></svg>