<svg width="32" height="32" viewBox="0 0 32 32" fill="none" xmlns="http://www.w3.org/2000/svg">
 <path  d= "M28.5714 0H3.42857C1.53571 0 0 1.53571 0 3.42857V28.5714C0 30.4643 1.53571 32 3.42857 32H28.5714C30.4643 32 32 30.4643 32 28.5714V3.42857C32 1.53571 30.4643 0 28.5714 0ZM27.4143 10.6857C27.3143 12.9071 25.7571 15.9571 22.75 19.8214C19.6429 23.8571 17.0143 25.8786 14.8643 25.8786C13.5286 25.8786 12.4071 24.65 11.4857 22.1929C9.68571 15.6 8.92143 11.7357 7.43571 11.7357C7.26429 11.7357 6.66429 12.0929 5.64286 12.8143L4.57143 11.4286C7.20714 9.11429 9.72143 6.54286 11.2929 6.4C13.0714 6.22857 14.1643 7.44286 14.5786 10.05C16.0429 19.3071 16.6929 20.7071 19.35 16.5143C20.3071 15 20.8214 13.8571 20.8857 13.0643C21.1286 10.7214 19.0571 10.8786 17.6571 11.4786C18.7786 7.8 20.9286 6.01429 24.0929 6.11429C26.4429 6.18571 27.55 7.71429 27.4143 10.6857V10.6857Z" fill="#0165E1" /></svg>