<svg width="30" height="32" viewBox="0 0 30 32" fill="none" xmlns="http://www.w3.org/2000/svg">
 <path  d= "M29.0206 15.9046V19.7091C27.677 20.0158 26.326 20.1546 25.216 20.1546C22.5215 25.8066 17.6946 30.6554 16.0808 31.5609C15.0584 32.1378 14.1018 32.1743 12.9626 31.5025C10.9837 30.3122 3.47685 24.1563 0.979431 4.80497H6.41971C7.78525 16.4231 11.1297 22.3818 14.8028 26.8436C16.8402 24.8062 18.8046 22.0897 20.3234 19.0373C16.6869 17.1898 14.4742 13.1297 14.4742 8.40505C14.4742 3.61468 17.2272 1.11426e-07 21.9373 1.11426e-07C30.3277 1.11426e-07 29.6924 9.33975 27.896 13.2538C27.896 13.2538 24.5077 13.9256 23.259 11.7568C23.5073 10.9317 23.8578 9.50771 23.8578 8.21518C23.8578 5.92954 23.0326 4.81227 21.7839 4.81227C20.4549 4.81227 19.5348 6.06098 19.5348 8.46346C19.5421 14.247 23.8724 17.1314 29.0206 15.9046V15.9046Z" fill="#0165E1" /></svg>