<svg width="33" height="8" viewBox="0 0 33 8" fill="none" xmlns="http://www.w3.org/2000/svg">
 <path  d= "M6.08124 8C4.37624 8 3.76124 6.48 3.76124 6.48L0.966243 0.905C0.966243 0.905 0.446243 0 1.48624 0H3.12624C3.64624 0 3.78624 0.435 4.06624 0.905L5.90124 4.63C5.90124 4.63 6.16124 5.285 6.95624 5.285C7.75124 5.285 8.01124 4.63 8.01124 4.63L9.84624 0.905C10.1262 0.43 10.2662 0 10.7862 0H12.4262C13.4662 0 12.9462 0.905 12.9462 0.905L10.1562 6.48C10.1562 6.48 9.54624 8 7.83624 8H6.08124ZM25.8312 8C24.1262 8 23.5112 6.48 23.5112 6.48L20.7162 0.905C20.7162 0.905 20.1962 0 21.2362 0H22.8762C23.3962 0 23.5362 0.435 23.8162 0.905L25.6512 4.63C25.6512 4.63 25.9112 5.285 26.7062 5.285C27.5012 5.285 27.7612 4.63 27.7612 4.63L29.6012 0.905C29.8812 0.43 30.0212 0 30.5412 0H32.1862C33.2262 0 32.7062 0.905 32.7062 0.905L29.9112 6.48C29.9112 6.48 29.3012 8 27.5912 8H25.8312V8ZM17.7162 0C19.4212 0 20.0362 1.52 20.0362 1.52L22.8312 7.095C22.8312 7.095 23.3512 8 22.3112 8H20.6712C20.1512 8 20.0112 7.565 19.7312 7.095L17.8962 3.37C17.8962 3.37 17.6362 2.715 16.8412 2.715C16.0462 2.715 15.7862 3.37 15.7862 3.37L13.9512 7.095C13.6712 7.565 13.5312 8 13.0112 8H11.3662C10.3262 8 10.8462 7.095 10.8462 7.095L13.6412 1.52C13.6412 1.52 14.2512 0 15.9612 0H17.7162V0Z" fill="#0165E1" /></svg>