<svg width="33" height="24" viewBox="0 0 33 24" fill="none" xmlns="http://www.w3.org/2000/svg">
 <path  d= "M26.9476 0.0859376C24.4552 0.0859376 22.3678 1.69401 21.7191 4.10642C20.5841 0.477799 17.6255 0.0859376 16.4099 0.0859376C15.1737 0.0859376 12.235 0.478424 11.0801 4.10642C10.4313 1.69401 8.36453 0.0859376 5.85149 0.0859376C2.79222 0.0859376 0.380432 2.20399 0.380432 4.91077C0.380432 6.7207 0.641673 6.99007 5.20339 19.5028C6.60146 23.2882 9.43886 23.837 10.9994 23.837C13.4512 23.837 15.3768 22.6208 16.3699 20.4633C17.363 22.6401 19.2879 23.8564 21.7403 23.8564C23.3009 23.8564 26.1377 23.2876 27.5364 19.5021C32.3206 6.46196 32.3799 6.65383 32.3799 5.30263C32.4193 2.28274 30.1294 0.0859376 26.9476 0.0859376V0.0859376ZM28.5938 7.26131L24.4958 18.2884C24.0009 19.6315 23.1696 20.6146 21.6059 20.6146C20.141 20.6146 19.2698 19.839 18.8542 18.4959L16.3992 11.1574H16.3399L13.885 18.4959C13.45 19.8396 12.5788 20.5958 11.1338 20.5958C9.57011 20.5958 8.73826 19.6121 8.24391 18.2697L4.1853 7.31818C3.84906 6.39134 3.69032 5.82386 3.69032 5.16201C3.69032 4.14079 4.68028 3.32707 6.08586 3.32707C7.25394 3.32707 8.08516 4.06455 8.34265 5.14263L11.0944 13.8811H11.1538L13.945 5.332C14.3212 4.10267 14.9743 3.32707 16.3799 3.32707C17.7854 3.32707 18.4385 4.08392 18.8148 5.332L21.6059 13.8811H21.6653L24.4171 5.14263C24.6746 4.06455 25.5058 3.32707 26.6739 3.32707C28.0595 3.32707 29.0694 4.15954 29.0694 5.55887C29.0494 6.05073 28.8119 6.56133 28.5938 7.26131V7.26131Z" fill="#0165E1" /></svg>