<svg width="33" height="26" viewBox="0 0 33 26" fill="none" xmlns="http://www.w3.org/2000/svg">
 <path  d= "M26.1901 9.13958C26.6651 7.63956 25.3526 6.21455 23.8526 6.5333C22.4775 6.8333 22.0525 4.77703 23.4088 4.48328C26.5401 3.80202 29.1776 6.80205 28.1901 9.78334C27.7651 11.1084 25.7651 10.4583 26.1901 9.13958V9.13958ZM14.1774 25.9585C7.53362 25.9585 0.752289 22.746 0.752289 17.4397C0.752289 14.6709 2.50231 11.4771 5.5211 8.45832C11.7524 2.227 18.2212 2.152 16.3712 8.10207C16.1212 8.92083 17.14 8.45832 17.14 8.47707C22.1088 6.37705 25.9213 7.42706 24.2651 11.6896C24.0338 12.2771 24.3338 12.3709 24.7838 12.5084C33.2652 15.1522 26.9589 25.9585 14.1774 25.9585ZM23.1588 16.8147C22.8213 13.3334 18.2525 10.9396 12.9462 11.4584C7.64612 11.9959 3.64607 15.2272 3.98358 18.7084C4.32108 22.1897 8.88989 24.5835 14.1962 24.0648C19.4963 23.5273 23.4963 20.296 23.1588 16.8147ZM22.4963 0.233225C20.8775 0.58323 21.4463 2.96451 23.0151 2.627C27.5339 1.67699 31.4402 5.92704 29.9964 10.3771C29.5339 11.8896 31.8152 12.6896 32.3339 11.1271C34.3277 4.88953 28.8901 -1.11679 22.4963 0.233225V0.233225ZM17.59 19.671C16.5212 22.096 13.4149 23.421 10.7712 22.5647C8.22113 21.746 7.14611 19.2272 8.25238 16.9584C9.35864 14.7459 12.1962 13.4959 14.715 14.1396C17.34 14.8147 18.6588 17.2772 17.59 19.671ZM12.1962 17.7959C11.3899 17.4584 10.3212 17.8147 9.82115 18.6022C9.30239 19.4085 9.55239 20.3522 10.3587 20.7272C11.1774 21.1022 12.2837 20.746 12.8024 19.921C13.3024 19.1022 13.0337 18.1522 12.1962 17.7959ZM14.2337 16.9584C13.9149 16.8522 13.5212 16.9959 13.3399 17.2959C13.1587 17.6147 13.2524 17.9584 13.5712 18.1022C13.8899 18.2272 14.3025 18.0834 14.4837 17.7647C14.6587 17.4397 14.5525 17.0834 14.2337 16.9584V16.9584Z" fill="#0165E1" /></svg>