<svg width="32" height="28" viewBox="0 0 32 28" fill="none" xmlns="http://www.w3.org/2000/svg">
 <path  d= "M21.6553 8.85381C22.0276 8.85381 22.3884 8.87126 22.7491 8.91781C21.7833 4.35636 16.8902 0.964355 11.328 0.964355C5.09091 0.964355 0 5.19999 0 10.5876C0 13.6945 1.70473 16.2604 4.53236 18.2444L3.40945 21.6538L7.36582 19.6698C8.78545 19.9491 9.91418 20.2342 11.3338 20.2342C11.6945 20.2342 12.0378 20.2167 12.3985 20.1876C12.1658 19.4371 12.0378 18.64 12.0378 17.8138C12.032 12.8742 16.2793 8.85381 21.6553 8.85381V8.85381ZM15.5753 5.77599C16.4189 5.77599 16.9833 6.34036 16.9833 7.19563C16.9833 8.03926 16.4189 8.60363 15.5753 8.60363C14.7142 8.60363 13.8705 8.03926 13.8705 7.19563C13.8764 6.34036 14.72 5.77599 15.5753 5.77599ZM7.63927 8.60363C6.79564 8.60363 5.93455 8.03926 5.93455 7.19563C5.93455 6.33454 6.79564 5.77599 7.63927 5.77599C8.50036 5.77599 9.05891 6.34036 9.05891 7.19563C9.05891 8.04508 8.50036 8.60363 7.63927 8.60363ZM32 17.6858C32 13.1534 27.4676 9.46472 22.3767 9.46472C16.9833 9.46472 12.7535 13.1534 12.7535 17.6858C12.7535 22.2182 16.9891 25.9069 22.3767 25.9069C23.4996 25.9069 24.64 25.6102 25.7862 25.3309L28.8931 27.0356L28.032 24.208C30.3127 22.4974 32 20.2342 32 17.6858ZM19.2524 16.2604C18.688 16.2604 18.1295 15.696 18.1295 15.12C18.1295 14.5556 18.6938 13.9971 19.2524 13.9971C20.1135 13.9971 20.672 14.5614 20.672 15.12C20.672 15.7018 20.1076 16.2604 19.2524 16.2604ZM25.4836 16.2604C24.9193 16.2604 24.3607 15.696 24.3607 15.12C24.3607 14.5556 24.9251 13.9971 25.4836 13.9971C26.3273 13.9971 26.9033 14.5614 26.9033 15.12C26.9091 15.7018 26.3273 16.2604 25.4836 16.2604Z" fill="#0165E1" /></svg>