<svg width="32" height="32" viewBox="0 0 32 32" fill="none" xmlns="http://www.w3.org/2000/svg">
 <path  d= "M31.9964 9.21223V7.69114L29.9612 7.06271L29.8041 6.32002L31.2395 4.84178L30.4968 3.45637L28.4258 3.99197L27.9116 3.45637L28.4472 1.44254L27.0832 0.614149L25.5622 2.11381L24.798 1.88529L24.2981 0H22.6842L22.2415 1.88529L21.3774 2.11381L19.9705 0.614149L18.5851 1.39969L19.1636 3.37782L18.5851 3.97768L16.5499 3.44209L15.7643 4.80607L17.2426 6.30574L17.0355 7.04843L15.0002 7.60545L14.9788 9.1551L17.0355 9.69069L17.2069 10.5548L15.7715 11.9759L16.5142 13.297L18.628 12.7614L19.1422 13.3756L18.5637 15.2966L19.9848 16.125L21.3702 14.6682L22.1986 14.8753L22.6771 16.9105L24.291 16.9319L24.7695 14.8753L25.5979 14.6253L27.0761 16.1678L28.5329 15.3037L27.9045 13.3042L28.4615 12.7257L30.5182 13.3542L31.2537 11.9188L29.7612 10.5762L29.9183 9.71212L31.9964 9.21223V9.21223ZM23.484 12.4401C21.2488 12.4401 19.4278 10.6262 19.4278 8.38384C19.4278 6.14149 21.2417 4.32761 23.484 4.32761C25.7264 4.32761 27.5403 6.14149 27.5403 8.38384C27.5403 10.6333 25.7264 12.4401 23.484 12.4401ZM28.6472 13.6112L31.9964 14.6467V17.4961L28.0616 18.453L27.7688 20.0741L30.5468 22.595L29.1756 25.3015L25.3193 24.1089L24.2767 25.1944L25.4693 28.9435L22.7342 30.5646L19.9563 27.6724L18.4066 28.1437L17.5068 32L14.4789 31.9643L13.5791 28.1366L12.0295 27.7367L9.43004 30.4789L6.75921 28.9293L7.84468 25.3229L6.86632 24.1732L2.90292 25.1801L1.49609 22.6949L4.20263 20.0241L3.85985 18.3959L0.00357056 17.389L0.0392769 14.4682L3.85985 13.4184L4.2669 12.0116L1.48895 9.19795L2.96719 6.64137L6.79491 7.64829L7.88038 6.52711L6.79491 2.81366L9.39433 1.33542L12.0223 4.14907L13.6434 3.71346L14.4718 0H17.4997L18.3281 3.27784L16.7141 2.85651L16.2642 2.7351L16.0286 3.14216L15.243 4.50614L15.0074 4.90605L15.3359 5.23455L16.5642 6.47713L16.5427 6.54854L14.8431 7.01272L14.4004 7.13412L14.3932 7.59116L14.3789 8.51239C10.9868 9.25508 8.43026 12.283 8.43026 15.9036C8.43026 20.0669 11.8081 23.4519 15.9786 23.4519C19.5849 23.4519 22.5985 20.9239 23.3484 17.5389L24.291 17.5532L24.7838 17.5604L24.898 17.0819L25.2979 15.368L25.4336 15.3252L26.6548 16.5963L26.9904 16.9462L27.4046 16.7034L28.8614 15.8393L29.2756 15.5894L29.1328 15.1252L28.6472 13.6112V13.6112Z" fill="#0165E1" /></svg>