<svg width="32" height="22" viewBox="0 0 32 22" fill="none" xmlns="http://www.w3.org/2000/svg">
 <path  d= "M32 0.763454L31.985 1.37336C30.5802 1.41335 29.7354 2.16323 29.1954 3.38804C27.9456 6.27759 24.0312 15.3862 21.4317 21.3152H20.7518L16.6574 11.6618C15.0327 14.8413 13.2429 18.1607 11.6982 21.3152C11.6832 21.3302 10.9483 21.3152 10.9483 21.3002C8.60366 15.8161 6.14404 10.372 3.79441 4.87281C3.2245 3.53802 1.32479 1.37336 0.0149977 1.38836C0.0149977 1.23338 0 0.888434 0 0.678467H8.09374V1.37336C7.13389 1.42835 5.45415 2.03825 5.92907 3.08309C7.0239 5.5677 11.1083 15.0962 12.2081 17.5108C12.958 16.0261 15.0976 12.0517 15.9725 10.372C15.2776 8.95717 13.043 3.678 12.3331 2.3732C11.8481 1.48334 10.5284 1.40335 9.54351 1.38836V0.693464L16.6674 0.708462V1.36336C15.6975 1.39336 14.7627 1.7533 15.1976 2.66816C16.1425 4.66784 16.7274 6.07262 17.6022 7.90234C17.8822 7.36242 19.337 4.43288 20.0069 2.86313C20.4518 1.83329 19.8119 1.43335 18.0772 1.39336C18.0922 1.21338 18.0772 0.878436 18.0922 0.713461C20.3118 0.698464 23.6463 0.698464 24.2462 0.683466V1.36336C23.1214 1.40335 21.9566 2.00326 21.3417 2.94811L18.3821 9.08715C18.7021 9.89203 21.5466 16.226 21.8416 16.9209L27.9606 2.79314C27.5307 1.63832 26.1409 1.38836 25.601 1.37836V0.683466L31.99 0.738457L32 0.763454Z" fill="#0165E1" /></svg>