<svg width="33" height="14" viewBox="0 0 33 14" fill="none" xmlns="http://www.w3.org/2000/svg">
 <path  d= "M19.8594 0.755841C19.8594 1.40734 19.9634 2.39034 18.4254 2.94734C17.9494 3.11984 17.6279 3.43034 17.6279 3.43034C17.6279 1.88034 17.8639 1.31934 18.4979 0.987342C18.9854 0.731841 19.8594 0.755841 19.8594 0.755841ZM14.0694 2.53284L12.3574 9.16584L10.9334 3.73734C10.5489 2.13784 9.89293 1.31084 8.51193 1.31084C7.14343 1.31084 6.47893 2.11984 6.09043 3.73734L4.66643 9.16584L2.95443 2.53284C2.67693 1.19684 1.38343 0.619341 0.19043 0.769341L3.46893 13.1658C3.46893 13.1658 4.55043 13.2438 5.09193 12.9678C5.80293 12.6053 6.14093 12.3258 6.57143 10.6393C6.95493 9.13584 8.02693 4.71884 8.12743 4.40434C8.36543 3.65734 8.68193 3.71384 8.89743 4.40434C8.99593 4.71934 10.0699 9.13584 10.4534 10.6393C10.8834 12.3258 11.2219 12.6053 11.9329 12.9678C12.4739 13.2438 13.5559 13.1658 13.5559 13.1658L16.8344 0.769341C15.6134 0.615841 14.3434 1.21584 14.0694 2.53284ZM19.8584 2.79334C19.8584 2.79334 19.6534 3.11034 19.1854 3.37184C18.8849 3.53984 18.5964 3.65384 18.2869 3.80234C17.5299 4.16534 17.6279 4.49984 17.6279 5.56234V13.1658C17.6279 13.1658 18.4554 13.2703 18.9964 12.9943C19.6929 12.6393 19.8529 12.2968 19.8594 10.7553V3.24184L19.8584 3.24234V2.79334V2.79334ZM28.0304 6.99734L32.1904 0.810341C32.1904 0.810341 30.4349 0.511341 29.5654 1.30284C28.9004 1.90784 28.3449 2.78034 26.8564 4.92634C26.8329 4.96284 26.5439 5.45334 26.2029 4.92634C24.7384 2.81484 24.1629 1.91184 23.4939 1.30284C22.6244 0.511341 20.8689 0.810341 20.8689 0.810341L25.0289 6.99734L20.8804 13.1653C20.8804 13.1653 22.7089 13.3963 23.5779 12.6048C24.1524 12.0818 24.4569 11.5863 26.2034 9.06884C26.5439 8.54284 26.8319 9.03034 26.8569 9.06884C28.3269 11.1878 28.8184 11.9718 29.5139 12.6048C30.3834 13.3963 32.1799 13.1653 32.1799 13.1653L28.0304 6.99734Z" fill="#0165E1" /></svg>