<svg width="30" height="32" viewBox="0 0 30 32" fill="none" xmlns="http://www.w3.org/2000/svg">
 <path  d= "M15.7153 29.4706L16.3753 30.4606L16.7053 29.6906L17.0353 30.1306V32C18.3516 31.505 18.3547 27.8213 18.6297 25.9244C18.9184 23.9313 18.5747 20.1237 23.7153 16.605C23.1603 15.1294 22.9653 13.5156 23.5503 11.6019C25.2922 11.8106 26.9216 12.2631 27.5091 14.9831L25.6122 15.5056C26.3091 16.9456 26.6753 18.4281 26.4372 20.0144L24.7322 19.5737L24.3472 21.6631L23.1928 21.2231L22.6428 23.3125L21.4334 22.8725L23.0828 24.1919L23.6328 22.4325L25.1722 22.7625L25.6122 20.5356L27.2616 21.4431C27.2772 20.1919 27.6972 17.8144 26.7116 16.165L28.3609 16.495C28.6103 15.1156 28.2122 14.0444 27.8659 12.9487L29.2678 13.5538C29.2403 11.9869 27.3966 10.0044 25.4191 9.8975C24.1553 9.82938 21.8728 8.32437 22.0378 6.65375C22.1603 5.41187 23.1284 3.99 24.7322 3.5475C21.9828 5.82937 24.1272 7.75375 25.0622 8.13875C25.3372 7.42375 26.1584 3.82125 25.0622 0.00125C22.5328 1.43063 19.4541 4.07 19.2341 9.23812L15.6053 11.6575L15.3853 17.4856L22.0934 13.7469L22.5334 14.1869L21.4341 14.4069L18.6847 16.8263L17.6947 16.4963L15.9353 19.575L15.7153 27.0525L17.0347 28.0425L15.0003 29.0325L12.9659 28.0425L14.2853 27.0525L14.0653 19.575L12.3059 16.4963L11.3159 16.8263L8.56655 14.4069L7.46718 14.1869L7.90718 13.7469L14.6153 17.4856L14.3953 11.6575L10.7666 9.23812C10.5466 4.06875 7.4678 1.42938 4.93843 0C3.84218 3.82 4.66343 7.4225 4.93843 8.1375C5.87343 7.7525 8.01718 5.82812 5.26843 3.54625C6.87218 3.98875 7.8403 5.41063 7.9628 6.6525C8.12718 8.32375 5.8453 9.82812 4.58155 9.89625C2.60343 10.0037 0.759678 11.9863 0.732178 13.5531L2.13405 12.9481C1.7878 14.0437 1.38968 15.115 1.63905 16.4944L3.28843 16.1644C2.30343 17.8138 2.7228 20.1912 2.73843 21.4425L4.3878 20.535L4.8278 22.7619L6.36718 22.4319L6.91718 24.1912L8.56655 22.8719L7.3578 23.3125L6.8078 21.2231L5.65343 21.6631L5.26843 19.5737L3.56405 20.0138C3.3253 18.4275 3.69218 16.945 4.38905 15.505L2.49218 14.9825C3.07968 12.2625 4.70905 11.8094 6.45093 11.6012C7.03593 13.515 6.84093 15.1294 6.28593 16.6044C11.4266 20.1231 11.0828 23.9312 11.3716 25.9237C11.6466 27.8206 11.6497 31.5044 12.9659 31.9994V30.13L13.2959 29.69L13.6259 30.46L14.2859 29.47L15.0009 30.7894L15.7153 29.4706V29.4706ZM20.6634 23.5325L19.6734 22.8725C20.1403 22.6 20.5334 22.3463 20.8828 22.1025C20.8453 22.5563 20.8659 22.97 20.6634 23.5325V23.5325ZM22.4228 20.4538C22.3978 21.1375 22.3666 21.8075 22.3128 22.4331C21.8222 22.3169 21.3397 22.1956 20.9934 21.9931C21.5084 21.4994 21.9653 20.9763 22.4228 20.4538ZM23.9622 20.7838C23.9609 19.9444 23.8341 19.2706 23.6322 18.6944C23.2959 19.2625 22.9303 19.8306 22.4778 20.3988L23.9622 20.7838ZM24.1822 15.725C25.3972 16.5256 25.9197 17.8287 26.0516 19.2437C25.2816 18.9606 24.5122 18.6619 23.7422 18.5837C24.0584 17.8344 24.1578 16.825 24.1822 15.725V15.725ZM24.0722 12.8663C24.1228 13.76 24.1872 14.6675 24.1822 15.5056C25.3834 14.9987 26.0434 14.8981 26.9316 14.6256C26.2691 13.4412 25.2303 13.0306 24.0722 12.8663V12.8663ZM9.33718 23.5325L10.3272 22.8725C9.8603 22.6 9.46718 22.3463 9.1178 22.1025C9.1553 22.5563 9.13468 22.97 9.33718 23.5325ZM7.5778 20.4538C7.6028 21.1375 7.63405 21.8075 7.6878 22.4331C8.17843 22.3169 8.66093 22.1956 9.00718 21.9931C8.49218 21.4994 8.0353 20.9763 7.5778 20.4538ZM6.0378 20.7838C6.03905 19.9444 6.16593 19.2706 6.3678 18.6944C6.70405 19.2625 7.06968 19.8306 7.52218 20.3988L6.0378 20.7838ZM5.8178 15.725C4.6028 16.5256 4.0803 17.8287 3.94843 19.2437C4.71843 18.9606 5.4878 18.6619 6.2578 18.5837C5.94218 17.8344 5.84218 16.825 5.8178 15.725ZM5.9278 12.8663C5.87718 13.76 5.8128 14.6675 5.8178 15.5056C4.61655 14.9987 3.95655 14.8981 3.06843 14.6256C3.73155 13.4412 4.76968 13.0306 5.9278 12.8663V12.8663Z" fill="#0165E1" /></svg>