<svg width="32" height="32" viewBox="0 0 32 32" fill="none" xmlns="http://www.w3.org/2000/svg">
 <path  d= "M16 0C7.18065 0 0 7.17419 0 16C0 24.8194 7.18065 32 16 32C24.8194 32 32 24.8194 32 16C32 7.17419 24.8194 0 16 0ZM1.6129 16C1.6129 13.9161 2.05806 11.9355 2.85806 10.1484L9.72258 28.9484C4.92258 26.6129 1.6129 21.6903 1.6129 16ZM16 30.3871C14.5871 30.3871 13.2258 30.1806 11.9355 29.8L16.2516 17.2581L20.671 29.3742C20.7032 29.4452 20.7355 29.5097 20.7742 29.5742C19.2839 30.0968 17.6774 30.3871 16 30.3871V30.3871ZM17.9806 9.25806C18.8452 9.2129 19.6258 9.12258 19.6258 9.12258C20.4 9.03226 20.3097 7.89032 19.5355 7.93548C19.5355 7.93548 17.2065 8.11613 15.7032 8.11613C14.2903 8.11613 11.9161 7.93548 11.9161 7.93548C11.1419 7.89032 11.0516 9.07742 11.8258 9.12258C11.8258 9.12258 12.5613 9.2129 13.3355 9.25806L15.5742 15.4L12.4258 24.8387L7.1871 9.25806C8.05161 9.2129 8.83226 9.12258 8.83226 9.12258C9.60645 9.03226 9.51613 7.89032 8.74194 7.93548C8.74194 7.93548 6.4129 8.11613 4.90968 8.11613C4.63871 8.11613 4.32258 8.10968 3.98064 8.09677C6.55484 4.19355 10.9742 1.6129 16 1.6129C19.7419 1.6129 23.1548 3.04516 25.7161 5.3871C25.6516 5.38065 25.5935 5.37419 25.529 5.37419C24.1161 5.37419 23.1161 6.60645 23.1161 7.92903C23.1161 9.11613 23.8 10.1161 24.529 11.3032C25.0774 12.2581 25.7161 13.4903 25.7161 15.271C25.7161 16.5032 25.2452 17.929 24.6194 19.9226L23.1871 24.7161L17.9806 9.25806V9.25806ZM23.2323 28.4323L27.6258 15.729C28.4452 13.6774 28.7226 12.0387 28.7226 10.5742C28.7226 10.0452 28.6903 9.55484 28.6258 9.09677C29.7484 11.1484 30.3871 13.4968 30.3871 16C30.3871 21.3097 27.5097 25.9419 23.2323 28.4323V28.4323Z" fill="#0165E1" /></svg>