<svg width="32" height="32" viewBox="0 0 32 32" fill="none" xmlns="http://www.w3.org/2000/svg">
 <path  d= "M3.46452 10.4129L10.0129 28.3484C5.43226 26.129 2.27742 21.4323 2.27742 16C2.27742 14.0065 2.70323 12.1226 3.46452 10.4129V10.4129ZM25.2645 15.3097C25.2645 13.6129 24.6581 12.4387 24.1355 11.5226C23.4387 10.3935 22.7871 9.43226 22.7871 8.30323C22.7871 7.03871 23.7419 5.86452 25.0903 5.86452C25.1484 5.86452 25.2065 5.87097 25.271 5.87742C22.8258 3.63871 19.5742 2.27097 16 2.27097C11.2065 2.27097 6.9871 4.72903 4.52903 8.45806C4.85161 8.47097 5.15484 8.47742 5.4129 8.47742C6.84516 8.47742 9.07097 8.30323 9.07097 8.30323C9.8129 8.25806 9.89677 9.34839 9.16129 9.43226C9.16129 9.43226 8.41935 9.51613 7.59355 9.56129L12.5935 24.4258L15.6 15.4194L13.4645 9.56129C12.7226 9.51613 12.0258 9.43226 12.0258 9.43226C11.2839 9.3871 11.3742 8.25806 12.1097 8.30323C12.1097 8.30323 14.3742 8.47742 15.7226 8.47742C17.1548 8.47742 19.3806 8.30323 19.3806 8.30323C20.1226 8.25806 20.2065 9.34839 19.471 9.43226C19.471 9.43226 18.729 9.51613 17.9032 9.56129L22.8645 24.3161L24.2323 19.7419C24.8129 17.8452 25.2645 16.4839 25.2645 15.3097ZM16.2387 17.2L12.1226 29.1677C13.3548 29.529 14.6516 29.729 16 29.729C17.6 29.729 19.129 29.4516 20.5548 28.9484C20.5161 28.8903 20.4839 28.8258 20.4581 28.7613L16.2387 17.2ZM28.0452 9.4129C28.1032 9.85161 28.1355 10.3161 28.1355 10.8258C28.1355 12.2194 27.8774 13.7806 27.0903 15.7419L22.8968 27.8645C26.9806 25.4839 29.7226 21.0645 29.7226 16C29.7226 13.6129 29.1161 11.3677 28.0452 9.4129V9.4129ZM32 16C32 24.8258 24.8194 32 16 32C7.17419 32 0 24.8194 0 16C0 7.17419 7.17419 0 16 0C24.8194 0 32 7.17419 32 16ZM31.2645 16C31.2645 7.58064 24.4129 0.735484 16 0.735484C7.58064 0.735484 0.735484 7.58064 0.735484 16C0.735484 24.4194 7.5871 31.2645 16 31.2645C24.4194 31.2645 31.2645 24.4194 31.2645 16Z" fill="#0165E1" /></svg>