<svg width="32" height="32" viewBox="0 0 32 32" fill="none" xmlns="http://www.w3.org/2000/svg">
 <path  d= "M30.2108 20.5611C34.0735 24.9802 30.4968 31.3929 23.8987 31.3929C21.1774 31.3929 18.4821 30.1775 17.0172 27.9542C16.5439 27.9787 15.4571 27.9787 14.9838 27.9542C13.5157 30.1821 10.8178 31.3929 8.10216 31.3929C1.54027 31.3929 -2.09203 25.0024 1.79006 20.5611C-3.64822 11.5006 3.93853 0.607178 16.0004 0.607178C28.0695 0.607178 35.6448 11.5077 30.2108 20.5611ZM6.87094 14.8594H9.72473V10.8686H6.87094V14.8594ZM21.7951 20.7741V19.136C17.6373 20.5732 12.6999 19.768 8.90437 16.8016L8.92128 18.5124C12.4328 21.6987 17.9746 22.4895 21.7951 20.7741ZM11.4357 14.8594H22.8469V10.8686H11.4357V14.8594Z" fill="#0165E1" /></svg>