<svg width="32" height="32" viewBox="0 0 32 32" fill="none" xmlns="http://www.w3.org/2000/svg">
 <path  d= "M32 16C32 24.825 24.8313 32 16 32C7.175 32 0 24.8313 0 16C0 7.16875 7.16875 0 16 0C24.8313 0 32 7.16875 32 16ZM30 16C30 8.3 23.7312 2 16 2C8.28125 2 2 8.28125 2 16C2 23.7188 8.28125 30 16 30C23.7188 30 30 23.7188 30 16ZM10.0562 7.7875L15.4875 10.1062L13.1687 15.5375L7.7375 13.2188L10.0562 7.7875ZM16.9312 18.3563L19.8438 24.2313H18.9312L15.8062 17.9813L12.75 24.2313H11.875L15.0688 17.55L13.675 16.9625L14.05 16.0875L18.3375 17.9062L17.9625 18.8L16.9312 18.3563ZM16.1938 11.0875L20.4813 12.925L18.6437 17.1938L14.375 15.375L16.1938 11.0875V11.0875ZM21.2125 13.7688L24.625 15.2125L23.1625 18.6063L19.7687 17.1625L21.2125 13.7688V13.7688Z" fill="#0165E1" /></svg>