<svg width="32" height="32" viewBox="0 0 32 32" fill="none" xmlns="http://www.w3.org/2000/svg">
 <path  d= "M31.9964 3.08503V28.915C31.9964 30.6503 30.6396 32 28.9114 32H3.08857C1.3818 31.9929 0.00354004 30.6646 0.00354004 28.9078V3.08503C0.00354004 1.36398 1.3461 0 3.08857 0H28.9185C30.6324 0 31.9964 1.34256 31.9964 3.08503ZM29.3327 28.9078V3.08503C29.3327 2.87079 29.147 2.67083 28.9185 2.67083H28.2544L20.3776 7.99821L16 4.43472L11.6295 7.99821L3.7527 2.66369H3.08857C2.86005 2.66369 2.67437 2.86365 2.67437 3.07788V28.9078C2.67437 29.1221 2.86005 29.322 3.08857 29.322H28.9185C29.147 29.3292 29.3327 29.1292 29.3327 28.9078V28.9078ZM10.7297 10.9975V13.6398H5.48089V10.9975H10.7297ZM10.7297 16.3106V18.9743H5.48089V16.3106H10.7297ZM11.5224 5.79156L15.3787 2.67083H6.91628L11.5224 5.79156V5.79156ZM26.519 10.9975V13.6398H12.5222V10.9975H26.519ZM26.519 16.3106V18.9743H12.5222V16.3106H26.519ZM20.4775 5.79156L25.0837 2.67083H16.6284L20.4775 5.79156V5.79156ZM26.519 21.638V24.3017H19.4206V21.638H26.519V21.638Z" fill="#0165E1" /></svg>