<svg width="32" height="33" viewBox="0 0 32 33" fill="none" xmlns="http://www.w3.org/2000/svg">
 <path  d= "M23.3461 20.9839C26.2037 24.4865 27.5196 27.357 26.8552 28.6406C26.3456 29.6147 23.1977 31.5176 20.882 32.2465C18.9726 32.8464 16.4698 33.1044 14.4057 32.9044C11.9416 32.6658 9.4452 31.7821 7.30362 30.3887C5.50392 29.2147 5.09754 28.731 5.09754 27.7698C5.09754 25.8411 7.21976 22.461 10.8514 18.6036C12.9156 16.4169 15.7861 13.8496 16.1021 13.9205C16.7085 14.056 21.5399 18.7649 23.3461 20.9839V20.9839ZM11.6513 9.73415C9.73547 7.99896 7.90352 6.25732 6.07802 5.64452C5.09754 5.31554 5.02658 5.33489 4.22672 6.16701C2.34316 8.12797 0.775686 11.3081 0.33705 14.0625C-0.0112786 16.2685 -0.0564323 16.8878 0.0661278 17.965C0.427357 21.2225 1.18207 23.4738 2.67859 25.7637C3.29139 26.7055 3.45911 26.8797 3.27849 26.4023C3.00757 25.6928 3.25914 23.9834 3.89129 22.274C4.81372 19.7583 7.36813 14.9913 11.6513 9.73415V9.73415ZM31.7511 13.8302C30.661 8.66982 27.397 5.4252 26.939 5.4252C26.4681 5.4252 25.378 5.84448 24.6168 6.32182C23.1139 7.25715 21.9721 8.34729 20.4691 9.7277C23.2042 13.1658 27.0616 18.7197 28.3968 22.7771C28.8355 24.1124 29.0225 25.4283 28.8742 26.1507C28.7645 26.699 28.7645 26.699 28.9645 26.4475C29.358 25.9508 30.2481 24.4285 30.6029 23.6415C31.0803 22.5965 31.5705 21.0484 31.8027 19.855C32.0801 18.4037 32.0543 15.2881 31.7511 13.8302V13.8302ZM8.60018 3.23202C11.6771 3.07076 15.6764 5.45745 15.9731 5.51551C16.0183 5.52196 16.644 5.24458 17.3664 4.8898C21.4883 2.88369 23.4299 3.22557 24.2943 3.26427C20.1724 0.729215 14.4444 0.0390081 9.20653 2.50956C7.6971 3.22557 7.6584 3.27717 8.60018 3.23202Z" fill="#0165E1" /></svg>