<svg width="33" height="33" viewBox="0 0 33 33" fill="none" xmlns="http://www.w3.org/2000/svg">
 <path  d= "M29.4077 0.971191H4.26481C2.37196 0.971191 0.836243 2.50691 0.836243 4.39976V29.5426C0.836243 31.4355 2.37196 32.9712 4.26481 32.9712H29.4077C31.3005 32.9712 32.8362 31.4355 32.8362 29.5426V4.39976C32.8362 2.50691 31.3005 0.971191 29.4077 0.971191ZM10.8648 21.5569H7.53624C7.14339 21.5569 6.91481 21.1783 7.10767 20.8212L10.6291 14.6283C10.6362 14.6283 10.6362 14.6212 10.6291 14.614L8.38624 10.7569C8.17196 10.3569 8.40053 10.0355 8.81481 10.0355H12.1434C12.5148 10.0355 12.822 10.2426 13.0648 10.6569L15.3434 14.6069C15.2505 14.7712 14.0577 16.8712 11.7648 20.9069C11.5148 21.3498 11.2148 21.5569 10.8648 21.5569ZM26.5577 6.26405L19.2148 19.1712V19.1855L23.8934 27.6855C24.0934 28.0498 23.9005 28.4069 23.4648 28.4069H20.1362C19.7434 28.4069 19.4434 28.1998 19.2148 27.7855L14.5005 19.1926C14.6648 18.8998 17.1291 14.5569 21.8862 6.17119C22.122 5.75691 22.4148 5.54976 22.7791 5.54976H26.1291C26.5362 5.54262 26.7577 5.88548 26.5577 6.26405V6.26405Z" fill="#0165E1" /></svg>