<svg width="29" height="33" viewBox="0 0 29 33" fill="none" xmlns="http://www.w3.org/2000/svg">
 <path  d= "M12.2592 13.6826C12.1307 13.9183 10.4596 16.8534 7.25318 22.5021C6.90326 23.0948 6.48193 23.3948 5.98918 23.3948H1.34022C0.79034 23.3948 0.476124 22.8592 0.733209 22.3664L5.66068 13.7041C5.67496 13.7041 5.67496 13.6969 5.66068 13.6826L2.52567 8.28384C2.21859 7.72683 2.54709 7.27693 3.13267 7.27693H7.78164C8.30295 7.27693 8.73142 7.56972 9.06706 8.14816L12.2592 13.6826ZM27.9628 1.97811L17.6794 20.0455V20.0669L24.2208 31.9643C24.4993 32.4713 24.2351 32.9712 23.6138 32.9712H18.9577C18.415 32.9712 17.9865 32.6855 17.6723 32.1L11.0738 20.0669C11.3094 19.6527 14.7515 13.5827 21.4143 1.84243C21.7428 1.26398 22.157 0.971191 22.664 0.971191H27.3558C27.9271 0.971191 28.2342 1.44966 27.9628 1.97811V1.97811Z" fill="#0165E1" /></svg>