<svg width="26" height="33" viewBox="0 0 26 33" fill="none" xmlns="http://www.w3.org/2000/svg">
 <path  d= "M14.7531 19.2212L15.0031 32.9712C14.2094 32.8337 13.5344 32.7274 12.9844 32.7274C12.4594 32.7274 11.7844 32.8337 10.9656 32.9712L11.2156 19.2212C7.77812 13.2962 4.31562 6.92119 0.340622 0.971191C1.08437 1.16494 1.77812 1.21494 2.41562 1.21494C2.97812 1.21494 3.69062 1.16494 4.54687 0.971191C7.10312 5.48369 9.67812 9.63994 12.9844 15.0649C15.3156 11.2149 18.6781 6.05869 21.4156 0.971191C22.1094 1.15244 22.7906 1.21494 23.4719 1.21494C24.1906 1.21494 24.9219 1.15244 25.6594 0.971191C23.5094 3.96494 17.4344 14.5274 14.7531 19.2212Z" fill="#0165E1" /></svg>