<svg width="26" height="33" viewBox="0 0 26 33" fill="none" xmlns="http://www.w3.org/2000/svg">
 <path  d= "M9.49715 21.2878C9.43365 21.3068 2.56364 23.5545 2.14458 23.5545C1.17947 23.4973 0.969944 22.5259 0.881053 21.5735C0.785812 20.6719 0.792162 19.6814 0.900101 18.602C1.02074 17.4083 1.24932 15.7384 2.43665 15.8083C2.74142 15.8083 6.69707 17.4527 9.59239 18.6274C10.6781 19.0591 10.7734 20.9004 9.49715 21.2878V21.2878ZM13.1734 14.0558C13.2877 16.4813 11.5543 17.1353 10.1765 14.9638L3.42715 4.29685C3.33191 3.87779 3.4462 3.50953 3.76367 3.19206C4.75417 2.14441 10.0749 0.66501 11.4781 1.02692C11.9544 1.14756 12.2464 1.41424 12.3544 1.82694C12.4369 2.35394 13.0845 12.4558 13.1734 14.0558ZM13.0845 24.5196C13.0845 24.8117 13.0972 31.9103 12.9766 32.2341C12.8306 32.615 12.5321 32.85 12.0686 32.9452C11.4274 33.0531 10.348 32.8246 8.83046 32.2658C7.4336 31.7515 5.23037 30.9007 5.70022 29.5673C5.87801 29.1292 8.9638 25.5799 10.6083 23.6243C11.3702 22.6592 13.1353 23.2751 13.0845 24.5196ZM24.5261 17.04C24.1705 17.275 17.491 18.8306 17.0275 18.9829L17.0465 18.9448C15.8973 19.2433 14.7989 17.7702 15.5671 16.748C15.8021 16.513 19.7514 10.8811 20.1895 10.5891C20.5196 10.3605 20.907 10.3478 21.3514 10.551C22.5197 11.1097 24.8499 14.5574 24.996 15.9225C24.9896 16.1067 25.0721 16.6654 24.5261 17.04ZM25.1674 25.3387C24.996 26.6466 22.3419 29.9991 21.1165 30.4816C20.6784 30.6467 20.2974 30.6086 19.9927 30.3547C19.6752 30.1324 16.0687 24.1894 15.8719 23.8593C15.1798 22.8307 16.3037 21.3322 17.4973 21.7513C17.4973 21.7513 24.5134 24.018 24.7801 24.2529C25.1102 24.5132 25.2372 24.8752 25.1674 25.3387Z" fill="#0165E1" /></svg>