<svg width="32" height="33" viewBox="0 0 32 33" fill="none" xmlns="http://www.w3.org/2000/svg">
 <path  d= "M7.00337 4.7678H19.6135L19.139 6.04916H7.00337C4.31184 6.04916 2.12879 8.19153 2.12879 10.8153V24.7407C2.12879 27.1407 3.81693 29.5068 7.82371 29.5068V30.8017H7.00337C3.60676 30.8017 0.813538 28.0763 0.813538 24.7339V10.8153C0.813538 7.47289 3.57286 4.7678 7.00337 4.7678ZM22.5356 0.971191H27.044C17.2949 26.6051 17.1661 28.0153 14.522 30.7542C13.1118 32.2186 11.1796 32.9034 9.21354 32.9712V29.5068C12.5491 28.9848 13.5932 26.1237 13.5932 24.4017C13.5932 23.039 13.6339 23.5475 8.0271 9.2695H12.1898L15.6068 19.8864L22.5356 0.971191ZM31.1864 10.5644V30.8017H16.6779C17.1254 30.1509 17.4034 29.6966 17.4983 29.4864H29.8712V10.5644C29.8712 8.36102 28.7118 7.04577 26.6034 6.3L27.0576 5.10678C29.8847 6.02882 31.1864 8.02882 31.1864 10.5644Z" fill="#0165E1" /></svg>