<svg width="32" height="24" viewBox="0 0 32 24" fill="none" xmlns="http://www.w3.org/2000/svg">
 <path  d= "M31.3313 4.24168C30.9633 2.85593 29.879 1.76457 28.5022 1.3942C26.0067 0.721191 16 0.721191 16 0.721191C16 0.721191 5.99337 0.721191 3.49781 1.3942C2.12103 1.76463 1.0367 2.85593 0.668671 4.24168C0 6.75341 -2.27988e-08 11.9939 -2.27988e-08 11.9939C-2.27988e-08 11.9939 0 17.2344 0.668671 19.7461C1.0367 21.1319 2.12103 22.1778 3.49781 22.5482C5.99337 23.2212 16 23.2212 16 23.2212C16 23.2212 26.0066 23.2212 28.5022 22.5482C29.879 22.1778 30.9633 21.1319 31.3313 19.7461C32 17.2344 32 11.9939 32 11.9939C32 11.9939 32 6.75341 31.3313 4.24168V4.24168ZM12.7273 16.7519V7.23593L21.0909 11.994L12.7273 16.7519V16.7519Z" fill="#0165E1" /></svg>