<svg width="32" height="33" viewBox="0 0 32 33" fill="none" xmlns="http://www.w3.org/2000/svg">
 <path  d= "M13.3429 13.1212L20.1429 16.9855L13.3429 20.8498V13.1212ZM32 4.39976V29.5426C32 31.4355 30.4643 32.9712 28.5714 32.9712H3.42857C1.53571 32.9712 0 31.4355 0 29.5426V4.39976C0 2.50691 1.53571 0.971191 3.42857 0.971191H28.5714C30.4643 0.971191 32 2.50691 32 4.39976ZM29 16.9926C29 16.9926 29 12.7355 28.4571 10.6926C28.1571 9.56405 27.2786 8.67833 26.1571 8.37833C24.1357 7.82833 16 7.82833 16 7.82833C16 7.82833 7.86429 7.82833 5.84286 8.37833C4.72143 8.67833 3.84286 9.56405 3.54286 10.6926C3 12.7283 3 16.9926 3 16.9926C3 16.9926 3 21.2498 3.54286 23.2926C3.84286 24.4212 4.72143 25.2712 5.84286 25.5712C7.86429 26.114 16 26.114 16 26.114C16 26.114 24.1357 26.114 26.1571 25.564C27.2786 25.264 28.1571 24.414 28.4571 23.2855C29 21.2498 29 16.9926 29 16.9926V16.9926Z" fill="#0165E1" /></svg>